%TF.GenerationSoftware,KiCad,Pcbnew,6.0.1-79c1e3a40b~116~ubuntu20.04.1*%
%TF.CreationDate,2022-02-02T21:23:13+02:00*%
%TF.ProjectId,PiUPS,50695550-532e-46b6-9963-61645f706362,rev?*%
%TF.SameCoordinates,Original*%
%TF.FileFunction,Legend,Bot*%
%TF.FilePolarity,Positive*%
%FSLAX46Y46*%
G04 Gerber Fmt 4.6, Leading zero omitted, Abs format (unit mm)*
G04 Created by KiCad (PCBNEW 6.0.1-79c1e3a40b~116~ubuntu20.04.1) date 2022-02-02 21:23:13*
%MOMM*%
%LPD*%
G01*
G04 APERTURE LIST*
G04 Aperture macros list*
%AMRoundRect*
0 Rectangle with rounded corners*
0 $1 Rounding radius*
0 $2 $3 $4 $5 $6 $7 $8 $9 X,Y pos of 4 corners*
0 Add a 4 corners polygon primitive as box body*
4,1,4,$2,$3,$4,$5,$6,$7,$8,$9,$2,$3,0*
0 Add four circle primitives for the rounded corners*
1,1,$1+$1,$2,$3*
1,1,$1+$1,$4,$5*
1,1,$1+$1,$6,$7*
1,1,$1+$1,$8,$9*
0 Add four rect primitives between the rounded corners*
20,1,$1+$1,$2,$3,$4,$5,0*
20,1,$1+$1,$4,$5,$6,$7,0*
20,1,$1+$1,$6,$7,$8,$9,0*
20,1,$1+$1,$8,$9,$2,$3,0*%
G04 Aperture macros list end*
%ADD10C,0.120000*%
%ADD11C,0.200000*%
%ADD12C,0.150000*%
%ADD13C,0.100000*%
%ADD14C,1.300000*%
%ADD15C,3.450000*%
%ADD16C,2.390000*%
%ADD17O,1.700000X1.350000*%
%ADD18O,1.500000X1.100000*%
%ADD19C,0.900000*%
%ADD20C,0.600000*%
%ADD21O,0.900000X1.700000*%
%ADD22O,0.900000X2.000000*%
%ADD23R,3.960000X1.980000*%
%ADD24O,3.960000X1.980000*%
%ADD25C,0.300000*%
%ADD26C,6.750000*%
%ADD27R,1.750000X1.750000*%
%ADD28C,1.750000*%
%ADD29R,1.300000X0.600000*%
%ADD30R,1.000000X1.000000*%
%ADD31RoundRect,0.250000X-0.450000X0.350000X-0.450000X-0.350000X0.450000X-0.350000X0.450000X0.350000X0*%
%ADD32RoundRect,0.250000X0.450000X-0.350000X0.450000X0.350000X-0.450000X0.350000X-0.450000X-0.350000X0*%
%ADD33RoundRect,0.150000X0.150000X-0.825000X0.150000X0.825000X-0.150000X0.825000X-0.150000X-0.825000X0*%
%ADD34RoundRect,0.250000X-0.350000X-0.450000X0.350000X-0.450000X0.350000X0.450000X-0.350000X0.450000X0*%
%ADD35RoundRect,0.150000X0.875000X0.150000X-0.875000X0.150000X-0.875000X-0.150000X0.875000X-0.150000X0*%
%ADD36RoundRect,0.150000X-0.150000X0.825000X-0.150000X-0.825000X0.150000X-0.825000X0.150000X0.825000X0*%
%ADD37RoundRect,0.250000X0.350000X0.450000X-0.350000X0.450000X-0.350000X-0.450000X0.350000X-0.450000X0*%
%ADD38RoundRect,0.250000X-0.475000X0.337500X-0.475000X-0.337500X0.475000X-0.337500X0.475000X0.337500X0*%
%ADD39RoundRect,0.250000X0.650000X-0.412500X0.650000X0.412500X-0.650000X0.412500X-0.650000X-0.412500X0*%
%ADD40R,0.600000X1.300000*%
%ADD41RoundRect,0.250000X0.475000X-0.337500X0.475000X0.337500X-0.475000X0.337500X-0.475000X-0.337500X0*%
G04 APERTURE END LIST*
D10*
X90170000Y-80270000D02*
X90170000Y-80570000D01*
X109280000Y-78100000D02*
X109800000Y-78620000D01*
X136400000Y-105420000D02*
X135190000Y-105420000D01*
X89650000Y-80790000D02*
X90170000Y-80270000D01*
X135190000Y-105420000D02*
X134390000Y-106410000D01*
X109800000Y-78620000D02*
X109500000Y-78620000D01*
X90170000Y-80270000D02*
X89870000Y-80270000D01*
X109800000Y-78620000D02*
X109800000Y-78320000D01*
D11*
X75568095Y-99192857D02*
X77091904Y-99192857D01*
X76330000Y-99954761D02*
X76330000Y-98430952D01*
D12*
X148857142Y-93807142D02*
X148857142Y-94450000D01*
X148900000Y-94578571D01*
X148985714Y-94664285D01*
X149114285Y-94707142D01*
X149200000Y-94707142D01*
X148000000Y-94707142D02*
X148428571Y-94707142D01*
X148428571Y-93807142D01*
X147185714Y-94621428D02*
X147228571Y-94664285D01*
X147357142Y-94707142D01*
X147442857Y-94707142D01*
X147571428Y-94664285D01*
X147657142Y-94578571D01*
X147700000Y-94492857D01*
X147742857Y-94321428D01*
X147742857Y-94192857D01*
X147700000Y-94021428D01*
X147657142Y-93935714D01*
X147571428Y-93850000D01*
X147442857Y-93807142D01*
X147357142Y-93807142D01*
X147228571Y-93850000D01*
X147185714Y-93892857D01*
X146542857Y-93807142D02*
X146542857Y-94450000D01*
X146585714Y-94578571D01*
X146671428Y-94664285D01*
X146800000Y-94707142D01*
X146885714Y-94707142D01*
X145685714Y-94707142D02*
X146114285Y-94707142D01*
X146114285Y-93807142D01*
X144871428Y-94621428D02*
X144914285Y-94664285D01*
X145042857Y-94707142D01*
X145128571Y-94707142D01*
X145257142Y-94664285D01*
X145342857Y-94578571D01*
X145385714Y-94492857D01*
X145428571Y-94321428D01*
X145428571Y-94192857D01*
X145385714Y-94021428D01*
X145342857Y-93935714D01*
X145257142Y-93850000D01*
X145128571Y-93807142D01*
X145042857Y-93807142D01*
X144914285Y-93850000D01*
X144871428Y-93892857D01*
X144228571Y-93807142D02*
X144228571Y-94450000D01*
X144271428Y-94578571D01*
X144357142Y-94664285D01*
X144485714Y-94707142D01*
X144571428Y-94707142D01*
X143371428Y-94707142D02*
X143800000Y-94707142D01*
X143800000Y-93807142D01*
X142557142Y-94621428D02*
X142600000Y-94664285D01*
X142728571Y-94707142D01*
X142814285Y-94707142D01*
X142942857Y-94664285D01*
X143028571Y-94578571D01*
X143071428Y-94492857D01*
X143114285Y-94321428D01*
X143114285Y-94192857D01*
X143071428Y-94021428D01*
X143028571Y-93935714D01*
X142942857Y-93850000D01*
X142814285Y-93807142D01*
X142728571Y-93807142D01*
X142600000Y-93850000D01*
X142557142Y-93892857D01*
X141914285Y-93807142D02*
X141914285Y-94450000D01*
X141957142Y-94578571D01*
X142042857Y-94664285D01*
X142171428Y-94707142D01*
X142257142Y-94707142D01*
X141057142Y-94707142D02*
X141485714Y-94707142D01*
X141485714Y-93807142D01*
X140242857Y-94621428D02*
X140285714Y-94664285D01*
X140414285Y-94707142D01*
X140500000Y-94707142D01*
X140628571Y-94664285D01*
X140714285Y-94578571D01*
X140757142Y-94492857D01*
X140800000Y-94321428D01*
X140800000Y-94192857D01*
X140757142Y-94021428D01*
X140714285Y-93935714D01*
X140628571Y-93850000D01*
X140500000Y-93807142D01*
X140414285Y-93807142D01*
X140285714Y-93850000D01*
X140242857Y-93892857D01*
X102309047Y-121942380D02*
X102118571Y-121942380D01*
X102023333Y-121990000D01*
X101928095Y-122085238D01*
X101880476Y-122275714D01*
X101880476Y-122609047D01*
X101928095Y-122799523D01*
X102023333Y-122894761D01*
X102118571Y-122942380D01*
X102309047Y-122942380D01*
X102404285Y-122894761D01*
X102499523Y-122799523D01*
X102547142Y-122609047D01*
X102547142Y-122275714D01*
X102499523Y-122085238D01*
X102404285Y-121990000D01*
X102309047Y-121942380D01*
X101451904Y-122942380D02*
X101451904Y-121942380D01*
X100880476Y-122942380D01*
X100880476Y-121942380D01*
D11*
X146328095Y-109872857D02*
X147851904Y-109872857D01*
X147090000Y-110634761D02*
X147090000Y-109110952D01*
D12*
X109280000Y-80007380D02*
X109280000Y-79007380D01*
X108899047Y-79007380D01*
X108803809Y-79055000D01*
X108756190Y-79102619D01*
X108708571Y-79197857D01*
X108708571Y-79340714D01*
X108756190Y-79435952D01*
X108803809Y-79483571D01*
X108899047Y-79531190D01*
X109280000Y-79531190D01*
X108137142Y-80007380D02*
X108232380Y-79959761D01*
X108280000Y-79864523D01*
X108280000Y-79007380D01*
X107327619Y-80007380D02*
X107327619Y-79483571D01*
X107375238Y-79388333D01*
X107470476Y-79340714D01*
X107660952Y-79340714D01*
X107756190Y-79388333D01*
X107327619Y-79959761D02*
X107422857Y-80007380D01*
X107660952Y-80007380D01*
X107756190Y-79959761D01*
X107803809Y-79864523D01*
X107803809Y-79769285D01*
X107756190Y-79674047D01*
X107660952Y-79626428D01*
X107422857Y-79626428D01*
X107327619Y-79578809D01*
X106422857Y-79959761D02*
X106518095Y-80007380D01*
X106708571Y-80007380D01*
X106803809Y-79959761D01*
X106851428Y-79912142D01*
X106899047Y-79816904D01*
X106899047Y-79531190D01*
X106851428Y-79435952D01*
X106803809Y-79388333D01*
X106708571Y-79340714D01*
X106518095Y-79340714D01*
X106422857Y-79388333D01*
X105613333Y-79959761D02*
X105708571Y-80007380D01*
X105899047Y-80007380D01*
X105994285Y-79959761D01*
X106041904Y-79864523D01*
X106041904Y-79483571D01*
X105994285Y-79388333D01*
X105899047Y-79340714D01*
X105708571Y-79340714D01*
X105613333Y-79388333D01*
X105565714Y-79483571D01*
X105565714Y-79578809D01*
X106041904Y-79674047D01*
X104518095Y-79340714D02*
X104137142Y-79340714D01*
X104375238Y-79007380D02*
X104375238Y-79864523D01*
X104327619Y-79959761D01*
X104232380Y-80007380D01*
X104137142Y-80007380D01*
X103803809Y-80007380D02*
X103803809Y-79007380D01*
X103375238Y-80007380D02*
X103375238Y-79483571D01*
X103422857Y-79388333D01*
X103518095Y-79340714D01*
X103660952Y-79340714D01*
X103756190Y-79388333D01*
X103803809Y-79435952D01*
X102899047Y-80007380D02*
X102899047Y-79340714D01*
X102899047Y-79007380D02*
X102946666Y-79055000D01*
X102899047Y-79102619D01*
X102851428Y-79055000D01*
X102899047Y-79007380D01*
X102899047Y-79102619D01*
X102470476Y-79959761D02*
X102375238Y-80007380D01*
X102184761Y-80007380D01*
X102089523Y-79959761D01*
X102041904Y-79864523D01*
X102041904Y-79816904D01*
X102089523Y-79721666D01*
X102184761Y-79674047D01*
X102327619Y-79674047D01*
X102422857Y-79626428D01*
X102470476Y-79531190D01*
X102470476Y-79483571D01*
X102422857Y-79388333D01*
X102327619Y-79340714D01*
X102184761Y-79340714D01*
X102089523Y-79388333D01*
X100422857Y-80007380D02*
X100422857Y-79007380D01*
X100422857Y-79959761D02*
X100518095Y-80007380D01*
X100708571Y-80007380D01*
X100803809Y-79959761D01*
X100851428Y-79912142D01*
X100899047Y-79816904D01*
X100899047Y-79531190D01*
X100851428Y-79435952D01*
X100803809Y-79388333D01*
X100708571Y-79340714D01*
X100518095Y-79340714D01*
X100422857Y-79388333D01*
X99946666Y-80007380D02*
X99946666Y-79340714D01*
X99946666Y-79007380D02*
X99994285Y-79055000D01*
X99946666Y-79102619D01*
X99899047Y-79055000D01*
X99946666Y-79007380D01*
X99946666Y-79102619D01*
X99327619Y-80007380D02*
X99422857Y-79959761D01*
X99470476Y-79912142D01*
X99518095Y-79816904D01*
X99518095Y-79531190D01*
X99470476Y-79435952D01*
X99422857Y-79388333D01*
X99327619Y-79340714D01*
X99184761Y-79340714D01*
X99089523Y-79388333D01*
X99041904Y-79435952D01*
X98994285Y-79531190D01*
X98994285Y-79816904D01*
X99041904Y-79912142D01*
X99089523Y-79959761D01*
X99184761Y-80007380D01*
X99327619Y-80007380D01*
X98137142Y-80007380D02*
X98137142Y-79007380D01*
X98137142Y-79959761D02*
X98232380Y-80007380D01*
X98422857Y-80007380D01*
X98518095Y-79959761D01*
X98565714Y-79912142D01*
X98613333Y-79816904D01*
X98613333Y-79531190D01*
X98565714Y-79435952D01*
X98518095Y-79388333D01*
X98422857Y-79340714D01*
X98232380Y-79340714D01*
X98137142Y-79388333D01*
X97280000Y-79959761D02*
X97375238Y-80007380D01*
X97565714Y-80007380D01*
X97660952Y-79959761D01*
X97708571Y-79864523D01*
X97708571Y-79483571D01*
X97660952Y-79388333D01*
X97565714Y-79340714D01*
X97375238Y-79340714D01*
X97280000Y-79388333D01*
X97232380Y-79483571D01*
X97232380Y-79578809D01*
X97708571Y-79674047D01*
X108541904Y-80950714D02*
X108160952Y-80950714D01*
X108399047Y-80617380D02*
X108399047Y-81474523D01*
X108351428Y-81569761D01*
X108256190Y-81617380D01*
X108160952Y-81617380D01*
X107684761Y-81617380D02*
X107780000Y-81569761D01*
X107827619Y-81522142D01*
X107875238Y-81426904D01*
X107875238Y-81141190D01*
X107827619Y-81045952D01*
X107780000Y-80998333D01*
X107684761Y-80950714D01*
X107541904Y-80950714D01*
X107446666Y-80998333D01*
X107399047Y-81045952D01*
X107351428Y-81141190D01*
X107351428Y-81426904D01*
X107399047Y-81522142D01*
X107446666Y-81569761D01*
X107541904Y-81617380D01*
X107684761Y-81617380D01*
X105780000Y-81569761D02*
X105875238Y-81617380D01*
X106065714Y-81617380D01*
X106160952Y-81569761D01*
X106208571Y-81474523D01*
X106208571Y-81093571D01*
X106160952Y-80998333D01*
X106065714Y-80950714D01*
X105875238Y-80950714D01*
X105780000Y-80998333D01*
X105732380Y-81093571D01*
X105732380Y-81188809D01*
X106208571Y-81284047D01*
X105303809Y-80950714D02*
X105303809Y-81617380D01*
X105303809Y-81045952D02*
X105256190Y-80998333D01*
X105160952Y-80950714D01*
X105018095Y-80950714D01*
X104922857Y-80998333D01*
X104875238Y-81093571D01*
X104875238Y-81617380D01*
X103970476Y-81617380D02*
X103970476Y-81093571D01*
X104018095Y-80998333D01*
X104113333Y-80950714D01*
X104303809Y-80950714D01*
X104399047Y-80998333D01*
X103970476Y-81569761D02*
X104065714Y-81617380D01*
X104303809Y-81617380D01*
X104399047Y-81569761D01*
X104446666Y-81474523D01*
X104446666Y-81379285D01*
X104399047Y-81284047D01*
X104303809Y-81236428D01*
X104065714Y-81236428D01*
X103970476Y-81188809D01*
X103494285Y-81617380D02*
X103494285Y-80617380D01*
X103494285Y-80998333D02*
X103399047Y-80950714D01*
X103208571Y-80950714D01*
X103113333Y-80998333D01*
X103065714Y-81045952D01*
X103018095Y-81141190D01*
X103018095Y-81426904D01*
X103065714Y-81522142D01*
X103113333Y-81569761D01*
X103208571Y-81617380D01*
X103399047Y-81617380D01*
X103494285Y-81569761D01*
X102446666Y-81617380D02*
X102541904Y-81569761D01*
X102589523Y-81474523D01*
X102589523Y-80617380D01*
X101684761Y-81569761D02*
X101780000Y-81617380D01*
X101970476Y-81617380D01*
X102065714Y-81569761D01*
X102113333Y-81474523D01*
X102113333Y-81093571D01*
X102065714Y-80998333D01*
X101970476Y-80950714D01*
X101780000Y-80950714D01*
X101684761Y-80998333D01*
X101637142Y-81093571D01*
X101637142Y-81188809D01*
X102113333Y-81284047D01*
X99875238Y-81617380D02*
X100208571Y-81141190D01*
X100446666Y-81617380D02*
X100446666Y-80617380D01*
X100065714Y-80617380D01*
X99970476Y-80665000D01*
X99922857Y-80712619D01*
X99875238Y-80807857D01*
X99875238Y-80950714D01*
X99922857Y-81045952D01*
X99970476Y-81093571D01*
X100065714Y-81141190D01*
X100446666Y-81141190D01*
X99589523Y-80617380D02*
X99018095Y-80617380D01*
X99303809Y-81617380D02*
X99303809Y-80617380D01*
X98113333Y-81522142D02*
X98160952Y-81569761D01*
X98303809Y-81617380D01*
X98399047Y-81617380D01*
X98541904Y-81569761D01*
X98637142Y-81474523D01*
X98684761Y-81379285D01*
X98732380Y-81188809D01*
X98732380Y-81045952D01*
X98684761Y-80855476D01*
X98637142Y-80760238D01*
X98541904Y-80665000D01*
X98399047Y-80617380D01*
X98303809Y-80617380D01*
X98160952Y-80665000D01*
X98113333Y-80712619D01*
X109582380Y-121942380D02*
X109391904Y-121942380D01*
X109296666Y-121990000D01*
X109201428Y-122085238D01*
X109153809Y-122275714D01*
X109153809Y-122609047D01*
X109201428Y-122799523D01*
X109296666Y-122894761D01*
X109391904Y-122942380D01*
X109582380Y-122942380D01*
X109677619Y-122894761D01*
X109772857Y-122799523D01*
X109820476Y-122609047D01*
X109820476Y-122275714D01*
X109772857Y-122085238D01*
X109677619Y-121990000D01*
X109582380Y-121942380D01*
X108391904Y-122418571D02*
X108725238Y-122418571D01*
X108725238Y-122942380D02*
X108725238Y-121942380D01*
X108249047Y-121942380D01*
X107534761Y-122418571D02*
X107868095Y-122418571D01*
X107868095Y-122942380D02*
X107868095Y-121942380D01*
X107391904Y-121942380D01*
X90043809Y-82147380D02*
X90043809Y-81147380D01*
X89662857Y-81147380D01*
X89567619Y-81195000D01*
X89520000Y-81242619D01*
X89472380Y-81337857D01*
X89472380Y-81480714D01*
X89520000Y-81575952D01*
X89567619Y-81623571D01*
X89662857Y-81671190D01*
X90043809Y-81671190D01*
X88900952Y-82147380D02*
X88996190Y-82099761D01*
X89043809Y-82004523D01*
X89043809Y-81147380D01*
X88091428Y-82147380D02*
X88091428Y-81623571D01*
X88139047Y-81528333D01*
X88234285Y-81480714D01*
X88424761Y-81480714D01*
X88520000Y-81528333D01*
X88091428Y-82099761D02*
X88186666Y-82147380D01*
X88424761Y-82147380D01*
X88520000Y-82099761D01*
X88567619Y-82004523D01*
X88567619Y-81909285D01*
X88520000Y-81814047D01*
X88424761Y-81766428D01*
X88186666Y-81766428D01*
X88091428Y-81718809D01*
X87186666Y-82099761D02*
X87281904Y-82147380D01*
X87472380Y-82147380D01*
X87567619Y-82099761D01*
X87615238Y-82052142D01*
X87662857Y-81956904D01*
X87662857Y-81671190D01*
X87615238Y-81575952D01*
X87567619Y-81528333D01*
X87472380Y-81480714D01*
X87281904Y-81480714D01*
X87186666Y-81528333D01*
X86377142Y-82099761D02*
X86472380Y-82147380D01*
X86662857Y-82147380D01*
X86758095Y-82099761D01*
X86805714Y-82004523D01*
X86805714Y-81623571D01*
X86758095Y-81528333D01*
X86662857Y-81480714D01*
X86472380Y-81480714D01*
X86377142Y-81528333D01*
X86329523Y-81623571D01*
X86329523Y-81718809D01*
X86805714Y-81814047D01*
X85281904Y-81480714D02*
X84900952Y-81480714D01*
X85139047Y-81147380D02*
X85139047Y-82004523D01*
X85091428Y-82099761D01*
X84996190Y-82147380D01*
X84900952Y-82147380D01*
X84567619Y-82147380D02*
X84567619Y-81147380D01*
X84139047Y-82147380D02*
X84139047Y-81623571D01*
X84186666Y-81528333D01*
X84281904Y-81480714D01*
X84424761Y-81480714D01*
X84520000Y-81528333D01*
X84567619Y-81575952D01*
X83662857Y-82147380D02*
X83662857Y-81480714D01*
X83662857Y-81147380D02*
X83710476Y-81195000D01*
X83662857Y-81242619D01*
X83615238Y-81195000D01*
X83662857Y-81147380D01*
X83662857Y-81242619D01*
X83234285Y-82099761D02*
X83139047Y-82147380D01*
X82948571Y-82147380D01*
X82853333Y-82099761D01*
X82805714Y-82004523D01*
X82805714Y-81956904D01*
X82853333Y-81861666D01*
X82948571Y-81814047D01*
X83091428Y-81814047D01*
X83186666Y-81766428D01*
X83234285Y-81671190D01*
X83234285Y-81623571D01*
X83186666Y-81528333D01*
X83091428Y-81480714D01*
X82948571Y-81480714D01*
X82853333Y-81528333D01*
X81662857Y-82099761D02*
X81567619Y-82147380D01*
X81377142Y-82147380D01*
X81281904Y-82099761D01*
X81234285Y-82004523D01*
X81234285Y-81956904D01*
X81281904Y-81861666D01*
X81377142Y-81814047D01*
X81520000Y-81814047D01*
X81615238Y-81766428D01*
X81662857Y-81671190D01*
X81662857Y-81623571D01*
X81615238Y-81528333D01*
X81520000Y-81480714D01*
X81377142Y-81480714D01*
X81281904Y-81528333D01*
X80805714Y-82147380D02*
X80805714Y-81147380D01*
X80377142Y-82147380D02*
X80377142Y-81623571D01*
X80424761Y-81528333D01*
X80520000Y-81480714D01*
X80662857Y-81480714D01*
X80758095Y-81528333D01*
X80805714Y-81575952D01*
X79472380Y-81480714D02*
X79472380Y-82147380D01*
X79900952Y-81480714D02*
X79900952Y-82004523D01*
X79853333Y-82099761D01*
X79758095Y-82147380D01*
X79615238Y-82147380D01*
X79520000Y-82099761D01*
X79472380Y-82052142D01*
X78996190Y-81480714D02*
X78996190Y-82147380D01*
X78996190Y-81575952D02*
X78948571Y-81528333D01*
X78853333Y-81480714D01*
X78710476Y-81480714D01*
X78615238Y-81528333D01*
X78567619Y-81623571D01*
X78567619Y-82147380D01*
X78234285Y-81480714D02*
X77853333Y-81480714D01*
X78091428Y-81147380D02*
X78091428Y-82004523D01*
X78043809Y-82099761D01*
X77948571Y-82147380D01*
X77853333Y-82147380D01*
X91686666Y-83090714D02*
X91305714Y-83090714D01*
X91543809Y-82757380D02*
X91543809Y-83614523D01*
X91496190Y-83709761D01*
X91400952Y-83757380D01*
X91305714Y-83757380D01*
X90829523Y-83757380D02*
X90924761Y-83709761D01*
X90972380Y-83662142D01*
X91020000Y-83566904D01*
X91020000Y-83281190D01*
X90972380Y-83185952D01*
X90924761Y-83138333D01*
X90829523Y-83090714D01*
X90686666Y-83090714D01*
X90591428Y-83138333D01*
X90543809Y-83185952D01*
X90496190Y-83281190D01*
X90496190Y-83566904D01*
X90543809Y-83662142D01*
X90591428Y-83709761D01*
X90686666Y-83757380D01*
X90829523Y-83757380D01*
X88924761Y-83709761D02*
X89020000Y-83757380D01*
X89210476Y-83757380D01*
X89305714Y-83709761D01*
X89353333Y-83614523D01*
X89353333Y-83233571D01*
X89305714Y-83138333D01*
X89210476Y-83090714D01*
X89020000Y-83090714D01*
X88924761Y-83138333D01*
X88877142Y-83233571D01*
X88877142Y-83328809D01*
X89353333Y-83424047D01*
X88448571Y-83090714D02*
X88448571Y-83757380D01*
X88448571Y-83185952D02*
X88400952Y-83138333D01*
X88305714Y-83090714D01*
X88162857Y-83090714D01*
X88067619Y-83138333D01*
X88020000Y-83233571D01*
X88020000Y-83757380D01*
X87115238Y-83757380D02*
X87115238Y-83233571D01*
X87162857Y-83138333D01*
X87258095Y-83090714D01*
X87448571Y-83090714D01*
X87543809Y-83138333D01*
X87115238Y-83709761D02*
X87210476Y-83757380D01*
X87448571Y-83757380D01*
X87543809Y-83709761D01*
X87591428Y-83614523D01*
X87591428Y-83519285D01*
X87543809Y-83424047D01*
X87448571Y-83376428D01*
X87210476Y-83376428D01*
X87115238Y-83328809D01*
X86639047Y-83757380D02*
X86639047Y-82757380D01*
X86639047Y-83138333D02*
X86543809Y-83090714D01*
X86353333Y-83090714D01*
X86258095Y-83138333D01*
X86210476Y-83185952D01*
X86162857Y-83281190D01*
X86162857Y-83566904D01*
X86210476Y-83662142D01*
X86258095Y-83709761D01*
X86353333Y-83757380D01*
X86543809Y-83757380D01*
X86639047Y-83709761D01*
X85591428Y-83757380D02*
X85686666Y-83709761D01*
X85734285Y-83614523D01*
X85734285Y-82757380D01*
X84829523Y-83709761D02*
X84924761Y-83757380D01*
X85115238Y-83757380D01*
X85210476Y-83709761D01*
X85258095Y-83614523D01*
X85258095Y-83233571D01*
X85210476Y-83138333D01*
X85115238Y-83090714D01*
X84924761Y-83090714D01*
X84829523Y-83138333D01*
X84781904Y-83233571D01*
X84781904Y-83328809D01*
X85258095Y-83424047D01*
X83591428Y-83757380D02*
X83591428Y-82757380D01*
X83115238Y-83757380D02*
X83115238Y-82757380D01*
X82543809Y-83757380D01*
X82543809Y-82757380D01*
X82210476Y-82757380D02*
X81639047Y-82757380D01*
X81924761Y-83757380D02*
X81924761Y-82757380D01*
X80591428Y-83709761D02*
X80496190Y-83757380D01*
X80305714Y-83757380D01*
X80210476Y-83709761D01*
X80162857Y-83614523D01*
X80162857Y-83566904D01*
X80210476Y-83471666D01*
X80305714Y-83424047D01*
X80448571Y-83424047D01*
X80543809Y-83376428D01*
X80591428Y-83281190D01*
X80591428Y-83233571D01*
X80543809Y-83138333D01*
X80448571Y-83090714D01*
X80305714Y-83090714D01*
X80210476Y-83138333D01*
X79734285Y-83757380D02*
X79734285Y-83090714D01*
X79734285Y-82757380D02*
X79781904Y-82805000D01*
X79734285Y-82852619D01*
X79686666Y-82805000D01*
X79734285Y-82757380D01*
X79734285Y-82852619D01*
X78829523Y-83090714D02*
X78829523Y-83900238D01*
X78877142Y-83995476D01*
X78924761Y-84043095D01*
X79020000Y-84090714D01*
X79162857Y-84090714D01*
X79258095Y-84043095D01*
X78829523Y-83709761D02*
X78924761Y-83757380D01*
X79115238Y-83757380D01*
X79210476Y-83709761D01*
X79258095Y-83662142D01*
X79305714Y-83566904D01*
X79305714Y-83281190D01*
X79258095Y-83185952D01*
X79210476Y-83138333D01*
X79115238Y-83090714D01*
X78924761Y-83090714D01*
X78829523Y-83138333D01*
X78353333Y-83090714D02*
X78353333Y-83757380D01*
X78353333Y-83185952D02*
X78305714Y-83138333D01*
X78210476Y-83090714D01*
X78067619Y-83090714D01*
X77972380Y-83138333D01*
X77924761Y-83233571D01*
X77924761Y-83757380D01*
X77020000Y-83757380D02*
X77020000Y-83233571D01*
X77067619Y-83138333D01*
X77162857Y-83090714D01*
X77353333Y-83090714D01*
X77448571Y-83138333D01*
X77020000Y-83709761D02*
X77115238Y-83757380D01*
X77353333Y-83757380D01*
X77448571Y-83709761D01*
X77496190Y-83614523D01*
X77496190Y-83519285D01*
X77448571Y-83424047D01*
X77353333Y-83376428D01*
X77115238Y-83376428D01*
X77020000Y-83328809D01*
X76400952Y-83757380D02*
X76496190Y-83709761D01*
X76543809Y-83614523D01*
X76543809Y-82757380D01*
D13*
X133067619Y-102593809D02*
X133115238Y-102570000D01*
X133162857Y-102522380D01*
X133234285Y-102450952D01*
X133281904Y-102427142D01*
X133329523Y-102427142D01*
X133305714Y-102546190D02*
X133353333Y-102522380D01*
X133400952Y-102474761D01*
X133424761Y-102379523D01*
X133424761Y-102212857D01*
X133400952Y-102117619D01*
X133353333Y-102070000D01*
X133305714Y-102046190D01*
X133210476Y-102046190D01*
X133162857Y-102070000D01*
X133115238Y-102117619D01*
X133091428Y-102212857D01*
X133091428Y-102379523D01*
X133115238Y-102474761D01*
X133162857Y-102522380D01*
X133210476Y-102546190D01*
X133305714Y-102546190D01*
X132662857Y-102046190D02*
X132758095Y-102046190D01*
X132805714Y-102070000D01*
X132829523Y-102093809D01*
X132877142Y-102165238D01*
X132900952Y-102260476D01*
X132900952Y-102450952D01*
X132877142Y-102498571D01*
X132853333Y-102522380D01*
X132805714Y-102546190D01*
X132710476Y-102546190D01*
X132662857Y-102522380D01*
X132639047Y-102498571D01*
X132615238Y-102450952D01*
X132615238Y-102331904D01*
X132639047Y-102284285D01*
X132662857Y-102260476D01*
X132710476Y-102236666D01*
X132805714Y-102236666D01*
X132853333Y-102260476D01*
X132877142Y-102284285D01*
X132900952Y-102331904D01*
X111249047Y-78676190D02*
X111249047Y-78176190D01*
X111130000Y-78176190D01*
X111058571Y-78200000D01*
X111010952Y-78247619D01*
X110987142Y-78295238D01*
X110963333Y-78390476D01*
X110963333Y-78461904D01*
X110987142Y-78557142D01*
X111010952Y-78604761D01*
X111058571Y-78652380D01*
X111130000Y-78676190D01*
X111249047Y-78676190D01*
X110534761Y-78176190D02*
X110630000Y-78176190D01*
X110677619Y-78200000D01*
X110701428Y-78223809D01*
X110749047Y-78295238D01*
X110772857Y-78390476D01*
X110772857Y-78580952D01*
X110749047Y-78628571D01*
X110725238Y-78652380D01*
X110677619Y-78676190D01*
X110582380Y-78676190D01*
X110534761Y-78652380D01*
X110510952Y-78628571D01*
X110487142Y-78580952D01*
X110487142Y-78461904D01*
X110510952Y-78414285D01*
X110534761Y-78390476D01*
X110582380Y-78366666D01*
X110677619Y-78366666D01*
X110725238Y-78390476D01*
X110749047Y-78414285D01*
X110772857Y-78461904D01*
X79321428Y-85136190D02*
X79488095Y-84898095D01*
X79607142Y-85136190D02*
X79607142Y-84636190D01*
X79416666Y-84636190D01*
X79369047Y-84660000D01*
X79345238Y-84683809D01*
X79321428Y-84731428D01*
X79321428Y-84802857D01*
X79345238Y-84850476D01*
X79369047Y-84874285D01*
X79416666Y-84898095D01*
X79607142Y-84898095D01*
X79130952Y-84683809D02*
X79107142Y-84660000D01*
X79059523Y-84636190D01*
X78940476Y-84636190D01*
X78892857Y-84660000D01*
X78869047Y-84683809D01*
X78845238Y-84731428D01*
X78845238Y-84779047D01*
X78869047Y-84850476D01*
X79154761Y-85136190D01*
X78845238Y-85136190D01*
X78535714Y-84636190D02*
X78488095Y-84636190D01*
X78440476Y-84660000D01*
X78416666Y-84683809D01*
X78392857Y-84731428D01*
X78369047Y-84826666D01*
X78369047Y-84945714D01*
X78392857Y-85040952D01*
X78416666Y-85088571D01*
X78440476Y-85112380D01*
X78488095Y-85136190D01*
X78535714Y-85136190D01*
X78583333Y-85112380D01*
X78607142Y-85088571D01*
X78630952Y-85040952D01*
X78654761Y-84945714D01*
X78654761Y-84826666D01*
X78630952Y-84731428D01*
X78607142Y-84683809D01*
X78583333Y-84660000D01*
X78535714Y-84636190D01*
X152841428Y-101116190D02*
X153008095Y-100878095D01*
X153127142Y-101116190D02*
X153127142Y-100616190D01*
X152936666Y-100616190D01*
X152889047Y-100640000D01*
X152865238Y-100663809D01*
X152841428Y-100711428D01*
X152841428Y-100782857D01*
X152865238Y-100830476D01*
X152889047Y-100854285D01*
X152936666Y-100878095D01*
X153127142Y-100878095D01*
X152412857Y-100782857D02*
X152412857Y-101116190D01*
X152531904Y-100592380D02*
X152650952Y-100949523D01*
X152341428Y-100949523D01*
X152079523Y-100830476D02*
X152127142Y-100806666D01*
X152150952Y-100782857D01*
X152174761Y-100735238D01*
X152174761Y-100711428D01*
X152150952Y-100663809D01*
X152127142Y-100640000D01*
X152079523Y-100616190D01*
X151984285Y-100616190D01*
X151936666Y-100640000D01*
X151912857Y-100663809D01*
X151889047Y-100711428D01*
X151889047Y-100735238D01*
X151912857Y-100782857D01*
X151936666Y-100806666D01*
X151984285Y-100830476D01*
X152079523Y-100830476D01*
X152127142Y-100854285D01*
X152150952Y-100878095D01*
X152174761Y-100925714D01*
X152174761Y-101020952D01*
X152150952Y-101068571D01*
X152127142Y-101092380D01*
X152079523Y-101116190D01*
X151984285Y-101116190D01*
X151936666Y-101092380D01*
X151912857Y-101068571D01*
X151889047Y-101020952D01*
X151889047Y-100925714D01*
X151912857Y-100878095D01*
X151936666Y-100854285D01*
X151984285Y-100830476D01*
X69357619Y-81283809D02*
X69405238Y-81260000D01*
X69452857Y-81212380D01*
X69524285Y-81140952D01*
X69571904Y-81117142D01*
X69619523Y-81117142D01*
X69595714Y-81236190D02*
X69643333Y-81212380D01*
X69690952Y-81164761D01*
X69714761Y-81069523D01*
X69714761Y-80902857D01*
X69690952Y-80807619D01*
X69643333Y-80760000D01*
X69595714Y-80736190D01*
X69500476Y-80736190D01*
X69452857Y-80760000D01*
X69405238Y-80807619D01*
X69381428Y-80902857D01*
X69381428Y-81069523D01*
X69405238Y-81164761D01*
X69452857Y-81212380D01*
X69500476Y-81236190D01*
X69595714Y-81236190D01*
X69190952Y-80783809D02*
X69167142Y-80760000D01*
X69119523Y-80736190D01*
X69000476Y-80736190D01*
X68952857Y-80760000D01*
X68929047Y-80783809D01*
X68905238Y-80831428D01*
X68905238Y-80879047D01*
X68929047Y-80950476D01*
X69214761Y-81236190D01*
X68905238Y-81236190D01*
X91541428Y-80786190D02*
X91708095Y-80548095D01*
X91827142Y-80786190D02*
X91827142Y-80286190D01*
X91636666Y-80286190D01*
X91589047Y-80310000D01*
X91565238Y-80333809D01*
X91541428Y-80381428D01*
X91541428Y-80452857D01*
X91565238Y-80500476D01*
X91589047Y-80524285D01*
X91636666Y-80548095D01*
X91827142Y-80548095D01*
X91112857Y-80452857D02*
X91112857Y-80786190D01*
X91231904Y-80262380D02*
X91350952Y-80619523D01*
X91041428Y-80619523D01*
X90636666Y-80452857D02*
X90636666Y-80786190D01*
X90755714Y-80262380D02*
X90874761Y-80619523D01*
X90565238Y-80619523D01*
X78133333Y-122286190D02*
X78300000Y-122048095D01*
X78419047Y-122286190D02*
X78419047Y-121786190D01*
X78228571Y-121786190D01*
X78180952Y-121810000D01*
X78157142Y-121833809D01*
X78133333Y-121881428D01*
X78133333Y-121952857D01*
X78157142Y-122000476D01*
X78180952Y-122024285D01*
X78228571Y-122048095D01*
X78419047Y-122048095D01*
X77704761Y-121786190D02*
X77800000Y-121786190D01*
X77847619Y-121810000D01*
X77871428Y-121833809D01*
X77919047Y-121905238D01*
X77942857Y-122000476D01*
X77942857Y-122190952D01*
X77919047Y-122238571D01*
X77895238Y-122262380D01*
X77847619Y-122286190D01*
X77752380Y-122286190D01*
X77704761Y-122262380D01*
X77680952Y-122238571D01*
X77657142Y-122190952D01*
X77657142Y-122071904D01*
X77680952Y-122024285D01*
X77704761Y-122000476D01*
X77752380Y-121976666D01*
X77847619Y-121976666D01*
X77895238Y-122000476D01*
X77919047Y-122024285D01*
X77942857Y-122071904D01*
X136131428Y-106426190D02*
X136298095Y-106188095D01*
X136417142Y-106426190D02*
X136417142Y-105926190D01*
X136226666Y-105926190D01*
X136179047Y-105950000D01*
X136155238Y-105973809D01*
X136131428Y-106021428D01*
X136131428Y-106092857D01*
X136155238Y-106140476D01*
X136179047Y-106164285D01*
X136226666Y-106188095D01*
X136417142Y-106188095D01*
X135940952Y-105973809D02*
X135917142Y-105950000D01*
X135869523Y-105926190D01*
X135750476Y-105926190D01*
X135702857Y-105950000D01*
X135679047Y-105973809D01*
X135655238Y-106021428D01*
X135655238Y-106069047D01*
X135679047Y-106140476D01*
X135964761Y-106426190D01*
X135655238Y-106426190D01*
X135202857Y-105926190D02*
X135440952Y-105926190D01*
X135464761Y-106164285D01*
X135440952Y-106140476D01*
X135393333Y-106116666D01*
X135274285Y-106116666D01*
X135226666Y-106140476D01*
X135202857Y-106164285D01*
X135179047Y-106211904D01*
X135179047Y-106330952D01*
X135202857Y-106378571D01*
X135226666Y-106402380D01*
X135274285Y-106426190D01*
X135393333Y-106426190D01*
X135440952Y-106402380D01*
X135464761Y-106378571D01*
X73371428Y-84986190D02*
X73538095Y-84748095D01*
X73657142Y-84986190D02*
X73657142Y-84486190D01*
X73466666Y-84486190D01*
X73419047Y-84510000D01*
X73395238Y-84533809D01*
X73371428Y-84581428D01*
X73371428Y-84652857D01*
X73395238Y-84700476D01*
X73419047Y-84724285D01*
X73466666Y-84748095D01*
X73657142Y-84748095D01*
X72895238Y-84986190D02*
X73180952Y-84986190D01*
X73038095Y-84986190D02*
X73038095Y-84486190D01*
X73085714Y-84557619D01*
X73133333Y-84605238D01*
X73180952Y-84629047D01*
X72585714Y-84486190D02*
X72538095Y-84486190D01*
X72490476Y-84510000D01*
X72466666Y-84533809D01*
X72442857Y-84581428D01*
X72419047Y-84676666D01*
X72419047Y-84795714D01*
X72442857Y-84890952D01*
X72466666Y-84938571D01*
X72490476Y-84962380D01*
X72538095Y-84986190D01*
X72585714Y-84986190D01*
X72633333Y-84962380D01*
X72657142Y-84938571D01*
X72680952Y-84890952D01*
X72704761Y-84795714D01*
X72704761Y-84676666D01*
X72680952Y-84581428D01*
X72657142Y-84533809D01*
X72633333Y-84510000D01*
X72585714Y-84486190D01*
X81941428Y-73726190D02*
X82108095Y-73488095D01*
X82227142Y-73726190D02*
X82227142Y-73226190D01*
X82036666Y-73226190D01*
X81989047Y-73250000D01*
X81965238Y-73273809D01*
X81941428Y-73321428D01*
X81941428Y-73392857D01*
X81965238Y-73440476D01*
X81989047Y-73464285D01*
X82036666Y-73488095D01*
X82227142Y-73488095D01*
X81512857Y-73392857D02*
X81512857Y-73726190D01*
X81631904Y-73202380D02*
X81750952Y-73559523D01*
X81441428Y-73559523D01*
X81274761Y-73273809D02*
X81250952Y-73250000D01*
X81203333Y-73226190D01*
X81084285Y-73226190D01*
X81036666Y-73250000D01*
X81012857Y-73273809D01*
X80989047Y-73321428D01*
X80989047Y-73369047D01*
X81012857Y-73440476D01*
X81298571Y-73726190D01*
X80989047Y-73726190D01*
X152851428Y-109286190D02*
X153018095Y-109048095D01*
X153137142Y-109286190D02*
X153137142Y-108786190D01*
X152946666Y-108786190D01*
X152899047Y-108810000D01*
X152875238Y-108833809D01*
X152851428Y-108881428D01*
X152851428Y-108952857D01*
X152875238Y-109000476D01*
X152899047Y-109024285D01*
X152946666Y-109048095D01*
X153137142Y-109048095D01*
X152422857Y-108952857D02*
X152422857Y-109286190D01*
X152541904Y-108762380D02*
X152660952Y-109119523D01*
X152351428Y-109119523D01*
X151946666Y-108786190D02*
X152041904Y-108786190D01*
X152089523Y-108810000D01*
X152113333Y-108833809D01*
X152160952Y-108905238D01*
X152184761Y-109000476D01*
X152184761Y-109190952D01*
X152160952Y-109238571D01*
X152137142Y-109262380D01*
X152089523Y-109286190D01*
X151994285Y-109286190D01*
X151946666Y-109262380D01*
X151922857Y-109238571D01*
X151899047Y-109190952D01*
X151899047Y-109071904D01*
X151922857Y-109024285D01*
X151946666Y-109000476D01*
X151994285Y-108976666D01*
X152089523Y-108976666D01*
X152137142Y-109000476D01*
X152160952Y-109024285D01*
X152184761Y-109071904D01*
X69861428Y-112136190D02*
X70028095Y-111898095D01*
X70147142Y-112136190D02*
X70147142Y-111636190D01*
X69956666Y-111636190D01*
X69909047Y-111660000D01*
X69885238Y-111683809D01*
X69861428Y-111731428D01*
X69861428Y-111802857D01*
X69885238Y-111850476D01*
X69909047Y-111874285D01*
X69956666Y-111898095D01*
X70147142Y-111898095D01*
X69670952Y-111683809D02*
X69647142Y-111660000D01*
X69599523Y-111636190D01*
X69480476Y-111636190D01*
X69432857Y-111660000D01*
X69409047Y-111683809D01*
X69385238Y-111731428D01*
X69385238Y-111779047D01*
X69409047Y-111850476D01*
X69694761Y-112136190D01*
X69385238Y-112136190D01*
X68909047Y-112136190D02*
X69194761Y-112136190D01*
X69051904Y-112136190D02*
X69051904Y-111636190D01*
X69099523Y-111707619D01*
X69147142Y-111755238D01*
X69194761Y-111779047D01*
X118280952Y-75051190D02*
X118280952Y-75455952D01*
X118257142Y-75503571D01*
X118233333Y-75527380D01*
X118185714Y-75551190D01*
X118090476Y-75551190D01*
X118042857Y-75527380D01*
X118019047Y-75503571D01*
X117995238Y-75455952D01*
X117995238Y-75051190D01*
X117542857Y-75051190D02*
X117638095Y-75051190D01*
X117685714Y-75075000D01*
X117709523Y-75098809D01*
X117757142Y-75170238D01*
X117780952Y-75265476D01*
X117780952Y-75455952D01*
X117757142Y-75503571D01*
X117733333Y-75527380D01*
X117685714Y-75551190D01*
X117590476Y-75551190D01*
X117542857Y-75527380D01*
X117519047Y-75503571D01*
X117495238Y-75455952D01*
X117495238Y-75336904D01*
X117519047Y-75289285D01*
X117542857Y-75265476D01*
X117590476Y-75241666D01*
X117685714Y-75241666D01*
X117733333Y-75265476D01*
X117757142Y-75289285D01*
X117780952Y-75336904D01*
X81951428Y-78306190D02*
X82118095Y-78068095D01*
X82237142Y-78306190D02*
X82237142Y-77806190D01*
X82046666Y-77806190D01*
X81999047Y-77830000D01*
X81975238Y-77853809D01*
X81951428Y-77901428D01*
X81951428Y-77972857D01*
X81975238Y-78020476D01*
X81999047Y-78044285D01*
X82046666Y-78068095D01*
X82237142Y-78068095D01*
X81522857Y-77972857D02*
X81522857Y-78306190D01*
X81641904Y-77782380D02*
X81760952Y-78139523D01*
X81451428Y-78139523D01*
X81165714Y-77806190D02*
X81118095Y-77806190D01*
X81070476Y-77830000D01*
X81046666Y-77853809D01*
X81022857Y-77901428D01*
X80999047Y-77996666D01*
X80999047Y-78115714D01*
X81022857Y-78210952D01*
X81046666Y-78258571D01*
X81070476Y-78282380D01*
X81118095Y-78306190D01*
X81165714Y-78306190D01*
X81213333Y-78282380D01*
X81237142Y-78258571D01*
X81260952Y-78210952D01*
X81284761Y-78115714D01*
X81284761Y-77996666D01*
X81260952Y-77901428D01*
X81237142Y-77853809D01*
X81213333Y-77830000D01*
X81165714Y-77806190D01*
X70647619Y-96913809D02*
X70695238Y-96890000D01*
X70742857Y-96842380D01*
X70814285Y-96770952D01*
X70861904Y-96747142D01*
X70909523Y-96747142D01*
X70885714Y-96866190D02*
X70933333Y-96842380D01*
X70980952Y-96794761D01*
X71004761Y-96699523D01*
X71004761Y-96532857D01*
X70980952Y-96437619D01*
X70933333Y-96390000D01*
X70885714Y-96366190D01*
X70790476Y-96366190D01*
X70742857Y-96390000D01*
X70695238Y-96437619D01*
X70671428Y-96532857D01*
X70671428Y-96699523D01*
X70695238Y-96794761D01*
X70742857Y-96842380D01*
X70790476Y-96866190D01*
X70885714Y-96866190D01*
X70195238Y-96866190D02*
X70480952Y-96866190D01*
X70338095Y-96866190D02*
X70338095Y-96366190D01*
X70385714Y-96437619D01*
X70433333Y-96485238D01*
X70480952Y-96509047D01*
X80133333Y-122286190D02*
X80300000Y-122048095D01*
X80419047Y-122286190D02*
X80419047Y-121786190D01*
X80228571Y-121786190D01*
X80180952Y-121810000D01*
X80157142Y-121833809D01*
X80133333Y-121881428D01*
X80133333Y-121952857D01*
X80157142Y-122000476D01*
X80180952Y-122024285D01*
X80228571Y-122048095D01*
X80419047Y-122048095D01*
X79966666Y-121786190D02*
X79633333Y-121786190D01*
X79847619Y-122286190D01*
X149231428Y-105266190D02*
X149398095Y-105028095D01*
X149517142Y-105266190D02*
X149517142Y-104766190D01*
X149326666Y-104766190D01*
X149279047Y-104790000D01*
X149255238Y-104813809D01*
X149231428Y-104861428D01*
X149231428Y-104932857D01*
X149255238Y-104980476D01*
X149279047Y-105004285D01*
X149326666Y-105028095D01*
X149517142Y-105028095D01*
X148802857Y-104932857D02*
X148802857Y-105266190D01*
X148921904Y-104742380D02*
X149040952Y-105099523D01*
X148731428Y-105099523D01*
X148588571Y-104766190D02*
X148255238Y-104766190D01*
X148469523Y-105266190D01*
X133251428Y-110826190D02*
X133418095Y-110588095D01*
X133537142Y-110826190D02*
X133537142Y-110326190D01*
X133346666Y-110326190D01*
X133299047Y-110350000D01*
X133275238Y-110373809D01*
X133251428Y-110421428D01*
X133251428Y-110492857D01*
X133275238Y-110540476D01*
X133299047Y-110564285D01*
X133346666Y-110588095D01*
X133537142Y-110588095D01*
X133060952Y-110373809D02*
X133037142Y-110350000D01*
X132989523Y-110326190D01*
X132870476Y-110326190D01*
X132822857Y-110350000D01*
X132799047Y-110373809D01*
X132775238Y-110421428D01*
X132775238Y-110469047D01*
X132799047Y-110540476D01*
X133084761Y-110826190D01*
X132775238Y-110826190D01*
X132346666Y-110492857D02*
X132346666Y-110826190D01*
X132465714Y-110302380D02*
X132584761Y-110659523D01*
X132275238Y-110659523D01*
X150871428Y-99316190D02*
X151038095Y-99078095D01*
X151157142Y-99316190D02*
X151157142Y-98816190D01*
X150966666Y-98816190D01*
X150919047Y-98840000D01*
X150895238Y-98863809D01*
X150871428Y-98911428D01*
X150871428Y-98982857D01*
X150895238Y-99030476D01*
X150919047Y-99054285D01*
X150966666Y-99078095D01*
X151157142Y-99078095D01*
X150442857Y-98982857D02*
X150442857Y-99316190D01*
X150561904Y-98792380D02*
X150680952Y-99149523D01*
X150371428Y-99149523D01*
X149942857Y-98816190D02*
X150180952Y-98816190D01*
X150204761Y-99054285D01*
X150180952Y-99030476D01*
X150133333Y-99006666D01*
X150014285Y-99006666D01*
X149966666Y-99030476D01*
X149942857Y-99054285D01*
X149919047Y-99101904D01*
X149919047Y-99220952D01*
X149942857Y-99268571D01*
X149966666Y-99292380D01*
X150014285Y-99316190D01*
X150133333Y-99316190D01*
X150180952Y-99292380D01*
X150204761Y-99268571D01*
X130333333Y-94628571D02*
X130357142Y-94652380D01*
X130428571Y-94676190D01*
X130476190Y-94676190D01*
X130547619Y-94652380D01*
X130595238Y-94604761D01*
X130619047Y-94557142D01*
X130642857Y-94461904D01*
X130642857Y-94390476D01*
X130619047Y-94295238D01*
X130595238Y-94247619D01*
X130547619Y-94200000D01*
X130476190Y-94176190D01*
X130428571Y-94176190D01*
X130357142Y-94200000D01*
X130333333Y-94223809D01*
X130047619Y-94390476D02*
X130095238Y-94366666D01*
X130119047Y-94342857D01*
X130142857Y-94295238D01*
X130142857Y-94271428D01*
X130119047Y-94223809D01*
X130095238Y-94200000D01*
X130047619Y-94176190D01*
X129952380Y-94176190D01*
X129904761Y-94200000D01*
X129880952Y-94223809D01*
X129857142Y-94271428D01*
X129857142Y-94295238D01*
X129880952Y-94342857D01*
X129904761Y-94366666D01*
X129952380Y-94390476D01*
X130047619Y-94390476D01*
X130095238Y-94414285D01*
X130119047Y-94438095D01*
X130142857Y-94485714D01*
X130142857Y-94580952D01*
X130119047Y-94628571D01*
X130095238Y-94652380D01*
X130047619Y-94676190D01*
X129952380Y-94676190D01*
X129904761Y-94652380D01*
X129880952Y-94628571D01*
X129857142Y-94580952D01*
X129857142Y-94485714D01*
X129880952Y-94438095D01*
X129904761Y-94414285D01*
X129952380Y-94390476D01*
X74433333Y-93166190D02*
X74600000Y-92928095D01*
X74719047Y-93166190D02*
X74719047Y-92666190D01*
X74528571Y-92666190D01*
X74480952Y-92690000D01*
X74457142Y-92713809D01*
X74433333Y-92761428D01*
X74433333Y-92832857D01*
X74457142Y-92880476D01*
X74480952Y-92904285D01*
X74528571Y-92928095D01*
X74719047Y-92928095D01*
X73980952Y-92666190D02*
X74219047Y-92666190D01*
X74242857Y-92904285D01*
X74219047Y-92880476D01*
X74171428Y-92856666D01*
X74052380Y-92856666D01*
X74004761Y-92880476D01*
X73980952Y-92904285D01*
X73957142Y-92951904D01*
X73957142Y-93070952D01*
X73980952Y-93118571D01*
X74004761Y-93142380D01*
X74052380Y-93166190D01*
X74171428Y-93166190D01*
X74219047Y-93142380D01*
X74242857Y-93118571D01*
X150861428Y-111256190D02*
X151028095Y-111018095D01*
X151147142Y-111256190D02*
X151147142Y-110756190D01*
X150956666Y-110756190D01*
X150909047Y-110780000D01*
X150885238Y-110803809D01*
X150861428Y-110851428D01*
X150861428Y-110922857D01*
X150885238Y-110970476D01*
X150909047Y-110994285D01*
X150956666Y-111018095D01*
X151147142Y-111018095D01*
X150432857Y-110922857D02*
X150432857Y-111256190D01*
X150551904Y-110732380D02*
X150670952Y-111089523D01*
X150361428Y-111089523D01*
X150147142Y-111256190D02*
X150051904Y-111256190D01*
X150004285Y-111232380D01*
X149980476Y-111208571D01*
X149932857Y-111137142D01*
X149909047Y-111041904D01*
X149909047Y-110851428D01*
X149932857Y-110803809D01*
X149956666Y-110780000D01*
X150004285Y-110756190D01*
X150099523Y-110756190D01*
X150147142Y-110780000D01*
X150170952Y-110803809D01*
X150194761Y-110851428D01*
X150194761Y-110970476D01*
X150170952Y-111018095D01*
X150147142Y-111041904D01*
X150099523Y-111065714D01*
X150004285Y-111065714D01*
X149956666Y-111041904D01*
X149932857Y-111018095D01*
X149909047Y-110970476D01*
X128297619Y-114143809D02*
X128345238Y-114120000D01*
X128392857Y-114072380D01*
X128464285Y-114000952D01*
X128511904Y-113977142D01*
X128559523Y-113977142D01*
X128535714Y-114096190D02*
X128583333Y-114072380D01*
X128630952Y-114024761D01*
X128654761Y-113929523D01*
X128654761Y-113762857D01*
X128630952Y-113667619D01*
X128583333Y-113620000D01*
X128535714Y-113596190D01*
X128440476Y-113596190D01*
X128392857Y-113620000D01*
X128345238Y-113667619D01*
X128321428Y-113762857D01*
X128321428Y-113929523D01*
X128345238Y-114024761D01*
X128392857Y-114072380D01*
X128440476Y-114096190D01*
X128535714Y-114096190D01*
X127892857Y-113762857D02*
X127892857Y-114096190D01*
X128011904Y-113572380D02*
X128130952Y-113929523D01*
X127821428Y-113929523D01*
X78963333Y-94658571D02*
X78987142Y-94682380D01*
X79058571Y-94706190D01*
X79106190Y-94706190D01*
X79177619Y-94682380D01*
X79225238Y-94634761D01*
X79249047Y-94587142D01*
X79272857Y-94491904D01*
X79272857Y-94420476D01*
X79249047Y-94325238D01*
X79225238Y-94277619D01*
X79177619Y-94230000D01*
X79106190Y-94206190D01*
X79058571Y-94206190D01*
X78987142Y-94230000D01*
X78963333Y-94253809D01*
X78534761Y-94206190D02*
X78630000Y-94206190D01*
X78677619Y-94230000D01*
X78701428Y-94253809D01*
X78749047Y-94325238D01*
X78772857Y-94420476D01*
X78772857Y-94610952D01*
X78749047Y-94658571D01*
X78725238Y-94682380D01*
X78677619Y-94706190D01*
X78582380Y-94706190D01*
X78534761Y-94682380D01*
X78510952Y-94658571D01*
X78487142Y-94610952D01*
X78487142Y-94491904D01*
X78510952Y-94444285D01*
X78534761Y-94420476D01*
X78582380Y-94396666D01*
X78677619Y-94396666D01*
X78725238Y-94420476D01*
X78749047Y-94444285D01*
X78772857Y-94491904D01*
X125307619Y-98503809D02*
X125355238Y-98480000D01*
X125402857Y-98432380D01*
X125474285Y-98360952D01*
X125521904Y-98337142D01*
X125569523Y-98337142D01*
X125545714Y-98456190D02*
X125593333Y-98432380D01*
X125640952Y-98384761D01*
X125664761Y-98289523D01*
X125664761Y-98122857D01*
X125640952Y-98027619D01*
X125593333Y-97980000D01*
X125545714Y-97956190D01*
X125450476Y-97956190D01*
X125402857Y-97980000D01*
X125355238Y-98027619D01*
X125331428Y-98122857D01*
X125331428Y-98289523D01*
X125355238Y-98384761D01*
X125402857Y-98432380D01*
X125450476Y-98456190D01*
X125545714Y-98456190D01*
X124879047Y-97956190D02*
X125117142Y-97956190D01*
X125140952Y-98194285D01*
X125117142Y-98170476D01*
X125069523Y-98146666D01*
X124950476Y-98146666D01*
X124902857Y-98170476D01*
X124879047Y-98194285D01*
X124855238Y-98241904D01*
X124855238Y-98360952D01*
X124879047Y-98408571D01*
X124902857Y-98432380D01*
X124950476Y-98456190D01*
X125069523Y-98456190D01*
X125117142Y-98432380D01*
X125140952Y-98408571D01*
X76067619Y-85143809D02*
X76115238Y-85120000D01*
X76162857Y-85072380D01*
X76234285Y-85000952D01*
X76281904Y-84977142D01*
X76329523Y-84977142D01*
X76305714Y-85096190D02*
X76353333Y-85072380D01*
X76400952Y-85024761D01*
X76424761Y-84929523D01*
X76424761Y-84762857D01*
X76400952Y-84667619D01*
X76353333Y-84620000D01*
X76305714Y-84596190D01*
X76210476Y-84596190D01*
X76162857Y-84620000D01*
X76115238Y-84667619D01*
X76091428Y-84762857D01*
X76091428Y-84929523D01*
X76115238Y-85024761D01*
X76162857Y-85072380D01*
X76210476Y-85096190D01*
X76305714Y-85096190D01*
X75924761Y-84596190D02*
X75615238Y-84596190D01*
X75781904Y-84786666D01*
X75710476Y-84786666D01*
X75662857Y-84810476D01*
X75639047Y-84834285D01*
X75615238Y-84881904D01*
X75615238Y-85000952D01*
X75639047Y-85048571D01*
X75662857Y-85072380D01*
X75710476Y-85096190D01*
X75853333Y-85096190D01*
X75900952Y-85072380D01*
X75924761Y-85048571D01*
X136017619Y-111273809D02*
X136065238Y-111250000D01*
X136112857Y-111202380D01*
X136184285Y-111130952D01*
X136231904Y-111107142D01*
X136279523Y-111107142D01*
X136255714Y-111226190D02*
X136303333Y-111202380D01*
X136350952Y-111154761D01*
X136374761Y-111059523D01*
X136374761Y-110892857D01*
X136350952Y-110797619D01*
X136303333Y-110750000D01*
X136255714Y-110726190D01*
X136160476Y-110726190D01*
X136112857Y-110750000D01*
X136065238Y-110797619D01*
X136041428Y-110892857D01*
X136041428Y-111059523D01*
X136065238Y-111154761D01*
X136112857Y-111202380D01*
X136160476Y-111226190D01*
X136255714Y-111226190D01*
X135874761Y-110726190D02*
X135541428Y-110726190D01*
X135755714Y-111226190D01*
X131021428Y-102906190D02*
X131188095Y-102668095D01*
X131307142Y-102906190D02*
X131307142Y-102406190D01*
X131116666Y-102406190D01*
X131069047Y-102430000D01*
X131045238Y-102453809D01*
X131021428Y-102501428D01*
X131021428Y-102572857D01*
X131045238Y-102620476D01*
X131069047Y-102644285D01*
X131116666Y-102668095D01*
X131307142Y-102668095D01*
X130830952Y-102453809D02*
X130807142Y-102430000D01*
X130759523Y-102406190D01*
X130640476Y-102406190D01*
X130592857Y-102430000D01*
X130569047Y-102453809D01*
X130545238Y-102501428D01*
X130545238Y-102549047D01*
X130569047Y-102620476D01*
X130854761Y-102906190D01*
X130545238Y-102906190D01*
X130354761Y-102453809D02*
X130330952Y-102430000D01*
X130283333Y-102406190D01*
X130164285Y-102406190D01*
X130116666Y-102430000D01*
X130092857Y-102453809D01*
X130069047Y-102501428D01*
X130069047Y-102549047D01*
X130092857Y-102620476D01*
X130378571Y-102906190D01*
X130069047Y-102906190D01*
X136111428Y-105286190D02*
X136278095Y-105048095D01*
X136397142Y-105286190D02*
X136397142Y-104786190D01*
X136206666Y-104786190D01*
X136159047Y-104810000D01*
X136135238Y-104833809D01*
X136111428Y-104881428D01*
X136111428Y-104952857D01*
X136135238Y-105000476D01*
X136159047Y-105024285D01*
X136206666Y-105048095D01*
X136397142Y-105048095D01*
X135920952Y-104833809D02*
X135897142Y-104810000D01*
X135849523Y-104786190D01*
X135730476Y-104786190D01*
X135682857Y-104810000D01*
X135659047Y-104833809D01*
X135635238Y-104881428D01*
X135635238Y-104929047D01*
X135659047Y-105000476D01*
X135944761Y-105286190D01*
X135635238Y-105286190D01*
X135468571Y-104786190D02*
X135159047Y-104786190D01*
X135325714Y-104976666D01*
X135254285Y-104976666D01*
X135206666Y-105000476D01*
X135182857Y-105024285D01*
X135159047Y-105071904D01*
X135159047Y-105190952D01*
X135182857Y-105238571D01*
X135206666Y-105262380D01*
X135254285Y-105286190D01*
X135397142Y-105286190D01*
X135444761Y-105262380D01*
X135468571Y-105238571D01*
X138171428Y-110308571D02*
X138195238Y-110332380D01*
X138266666Y-110356190D01*
X138314285Y-110356190D01*
X138385714Y-110332380D01*
X138433333Y-110284761D01*
X138457142Y-110237142D01*
X138480952Y-110141904D01*
X138480952Y-110070476D01*
X138457142Y-109975238D01*
X138433333Y-109927619D01*
X138385714Y-109880000D01*
X138314285Y-109856190D01*
X138266666Y-109856190D01*
X138195238Y-109880000D01*
X138171428Y-109903809D01*
X137695238Y-110356190D02*
X137980952Y-110356190D01*
X137838095Y-110356190D02*
X137838095Y-109856190D01*
X137885714Y-109927619D01*
X137933333Y-109975238D01*
X137980952Y-109999047D01*
X137528571Y-109856190D02*
X137195238Y-109856190D01*
X137409523Y-110356190D01*
X85731428Y-75706190D02*
X85898095Y-75468095D01*
X86017142Y-75706190D02*
X86017142Y-75206190D01*
X85826666Y-75206190D01*
X85779047Y-75230000D01*
X85755238Y-75253809D01*
X85731428Y-75301428D01*
X85731428Y-75372857D01*
X85755238Y-75420476D01*
X85779047Y-75444285D01*
X85826666Y-75468095D01*
X86017142Y-75468095D01*
X85302857Y-75372857D02*
X85302857Y-75706190D01*
X85421904Y-75182380D02*
X85540952Y-75539523D01*
X85231428Y-75539523D01*
X85088571Y-75206190D02*
X84779047Y-75206190D01*
X84945714Y-75396666D01*
X84874285Y-75396666D01*
X84826666Y-75420476D01*
X84802857Y-75444285D01*
X84779047Y-75491904D01*
X84779047Y-75610952D01*
X84802857Y-75658571D01*
X84826666Y-75682380D01*
X84874285Y-75706190D01*
X85017142Y-75706190D01*
X85064761Y-75682380D01*
X85088571Y-75658571D01*
D11*
X133075000Y-102990000D02*
X132975000Y-102990000D01*
X131325000Y-105950000D02*
X132625000Y-105950000D01*
X133075000Y-105910000D02*
X133075000Y-102990000D01*
X132975000Y-102990000D02*
X132975000Y-105910000D01*
X132975000Y-105910000D02*
X133075000Y-105910000D01*
D10*
X111725000Y-78875000D02*
X111725000Y-82025000D01*
X110025000Y-78875000D02*
X110025000Y-82025000D01*
X110025000Y-78875000D02*
X111725000Y-78875000D01*
X78265000Y-86847936D02*
X78265000Y-87302064D01*
X79735000Y-86847936D02*
X79735000Y-87302064D01*
X153260000Y-103277064D02*
X153260000Y-102822936D01*
X151790000Y-103277064D02*
X151790000Y-102822936D01*
X71875000Y-85075000D02*
X71875000Y-88525000D01*
X66755000Y-85075000D02*
X66755000Y-83125000D01*
X66755000Y-85075000D02*
X66755000Y-87025000D01*
X71875000Y-85075000D02*
X71875000Y-83125000D01*
X90490000Y-78097936D02*
X90490000Y-78552064D01*
X91960000Y-78097936D02*
X91960000Y-78552064D01*
X77315000Y-119622936D02*
X77315000Y-120077064D01*
X78785000Y-119622936D02*
X78785000Y-120077064D01*
X135065000Y-108602064D02*
X135065000Y-108147936D01*
X136535000Y-108602064D02*
X136535000Y-108147936D01*
X72315000Y-86697936D02*
X72315000Y-87152064D01*
X73785000Y-86697936D02*
X73785000Y-87152064D01*
X81397936Y-74040000D02*
X81852064Y-74040000D01*
X81397936Y-75510000D02*
X81852064Y-75510000D01*
X153260000Y-107052064D02*
X153260000Y-106597936D01*
X151790000Y-107052064D02*
X151790000Y-106597936D01*
X70445000Y-112147064D02*
X70445000Y-111692936D01*
X71915000Y-112147064D02*
X71915000Y-111692936D01*
X117900000Y-76165000D02*
X114040000Y-76165000D01*
X121760000Y-76165000D02*
X121760000Y-76420000D01*
X121760000Y-76420000D02*
X123575000Y-76420000D01*
X117900000Y-76165000D02*
X121760000Y-76165000D01*
X121760000Y-86685000D02*
X121760000Y-86430000D01*
X114040000Y-76165000D02*
X114040000Y-76420000D01*
X117900000Y-86685000D02*
X121760000Y-86685000D01*
X117900000Y-86685000D02*
X114040000Y-86685000D01*
X114040000Y-86685000D02*
X114040000Y-86430000D01*
X81397936Y-76015000D02*
X81852064Y-76015000D01*
X81397936Y-77485000D02*
X81852064Y-77485000D01*
X68035000Y-92575000D02*
X68035000Y-89125000D01*
X73155000Y-92575000D02*
X73155000Y-94525000D01*
X73155000Y-92575000D02*
X73155000Y-90625000D01*
X68035000Y-92575000D02*
X68035000Y-94525000D01*
X80785000Y-119622936D02*
X80785000Y-120077064D01*
X79315000Y-119622936D02*
X79315000Y-120077064D01*
X149815000Y-104797936D02*
X149815000Y-105252064D01*
X151285000Y-104797936D02*
X151285000Y-105252064D01*
X133152064Y-108540000D02*
X132697936Y-108540000D01*
X133152064Y-110010000D02*
X132697936Y-110010000D01*
X149815000Y-101477064D02*
X149815000Y-101022936D01*
X151285000Y-101477064D02*
X151285000Y-101022936D01*
X129515000Y-96381248D02*
X129515000Y-96903752D01*
X130985000Y-96381248D02*
X130985000Y-96903752D01*
X73590000Y-90497936D02*
X73590000Y-90952064D01*
X75060000Y-90497936D02*
X75060000Y-90952064D01*
X151285000Y-109027064D02*
X151285000Y-108572936D01*
X149815000Y-109027064D02*
X149815000Y-108572936D01*
X130810000Y-109775000D02*
X130810000Y-111725000D01*
X125690000Y-109775000D02*
X125690000Y-106325000D01*
X125690000Y-109775000D02*
X125690000Y-111725000D01*
X130810000Y-109775000D02*
X130810000Y-107825000D01*
X77890000Y-92348752D02*
X77890000Y-90926248D01*
X79710000Y-92348752D02*
X79710000Y-90926248D01*
X124415000Y-102300000D02*
X124415000Y-100350000D01*
X129535000Y-102300000D02*
X129535000Y-100350000D01*
X124415000Y-102300000D02*
X124415000Y-104250000D01*
X129535000Y-102300000D02*
X129535000Y-105750000D01*
D11*
X76075000Y-85540000D02*
X75975000Y-85540000D01*
X76075000Y-88460000D02*
X76075000Y-85540000D01*
X75975000Y-85540000D02*
X75975000Y-88460000D01*
X75975000Y-88460000D02*
X76075000Y-88460000D01*
X77725000Y-85500000D02*
X76425000Y-85500000D01*
X136500000Y-113950000D02*
X136500000Y-112650000D01*
X136460000Y-112200000D02*
X133540000Y-112200000D01*
X133540000Y-112200000D02*
X133540000Y-112300000D01*
X136460000Y-112300000D02*
X136460000Y-112200000D01*
X133540000Y-112300000D02*
X136460000Y-112300000D01*
D10*
X129965000Y-100222936D02*
X129965000Y-100677064D01*
X131435000Y-100222936D02*
X131435000Y-100677064D01*
X133152064Y-108010000D02*
X132697936Y-108010000D01*
X133152064Y-106540000D02*
X132697936Y-106540000D01*
X137115000Y-112586252D02*
X137115000Y-112063748D01*
X138585000Y-112586252D02*
X138585000Y-112063748D01*
X85627064Y-76015000D02*
X85172936Y-76015000D01*
X85627064Y-77485000D02*
X85172936Y-77485000D01*
%LPC*%
D14*
X144225000Y-107400000D03*
X144225000Y-102400000D03*
D15*
X137723600Y-77191600D03*
X82523600Y-93191600D03*
D16*
X74193600Y-77191600D03*
D17*
X68189600Y-109182400D03*
D18*
X71189600Y-114332400D03*
X71189600Y-109492400D03*
D17*
X68189600Y-114642400D03*
D19*
X101950000Y-121175000D03*
X108750000Y-121175000D03*
D20*
X81680800Y-117625200D03*
X75900800Y-117625200D03*
D21*
X74470800Y-121315200D03*
X83110800Y-121315200D03*
D22*
X83110800Y-117145200D03*
X74470800Y-117145200D03*
D23*
X72999600Y-99140000D03*
D24*
X72999600Y-104140000D03*
D25*
X117775900Y-109296200D03*
X117025900Y-108521200D03*
X117025900Y-109296200D03*
X117025900Y-110071200D03*
X115975900Y-108521200D03*
X115975900Y-109296200D03*
X115975900Y-110071200D03*
X115225900Y-109296200D03*
D26*
X69932000Y-119770000D03*
X127932000Y-70770000D03*
X69932000Y-70770000D03*
X127932000Y-119770000D03*
D27*
X74802000Y-72040000D03*
D28*
X74802000Y-69500000D03*
X77342000Y-72040000D03*
X77342000Y-69500000D03*
X79882000Y-72040000D03*
X79882000Y-69500000D03*
X82422000Y-72040000D03*
X82422000Y-69500000D03*
X84962000Y-72040000D03*
X84962000Y-69500000D03*
X87502000Y-72040000D03*
X87502000Y-69500000D03*
X90042000Y-72040000D03*
X90042000Y-69500000D03*
X92582000Y-72040000D03*
X92582000Y-69500000D03*
X95122000Y-72040000D03*
X95122000Y-69500000D03*
X97662000Y-72040000D03*
X97662000Y-69500000D03*
X100202000Y-72040000D03*
X100202000Y-69500000D03*
X102742000Y-72040000D03*
X102742000Y-69500000D03*
X105282000Y-72040000D03*
X105282000Y-69500000D03*
X107822000Y-72040000D03*
X107822000Y-69500000D03*
X110362000Y-72040000D03*
X110362000Y-69500000D03*
X112902000Y-72040000D03*
X112902000Y-69500000D03*
X115442000Y-72040000D03*
X115442000Y-69500000D03*
X117982000Y-72040000D03*
X117982000Y-69500000D03*
X120522000Y-72040000D03*
X120522000Y-69500000D03*
X123062000Y-72040000D03*
X123062000Y-69500000D03*
D23*
X147275000Y-107675000D03*
D24*
X147275000Y-102675000D03*
D29*
X131975000Y-105400000D03*
X131975000Y-103500000D03*
X134075000Y-104450000D03*
D30*
X110875000Y-79525000D03*
X110875000Y-82025000D03*
D31*
X79000000Y-86075000D03*
X79000000Y-88075000D03*
D32*
X152525000Y-104050000D03*
X152525000Y-102050000D03*
D33*
X71220000Y-87550000D03*
X69950000Y-87550000D03*
X68680000Y-87550000D03*
X67410000Y-87550000D03*
X67410000Y-82600000D03*
X68680000Y-82600000D03*
X69950000Y-82600000D03*
X71220000Y-82600000D03*
D31*
X91225000Y-77325000D03*
X91225000Y-79325000D03*
X78050000Y-118850000D03*
X78050000Y-120850000D03*
D32*
X135800000Y-109375000D03*
X135800000Y-107375000D03*
D31*
X73050000Y-85925000D03*
X73050000Y-87925000D03*
D34*
X80625000Y-74775000D03*
X82625000Y-74775000D03*
D32*
X152525000Y-107825000D03*
X152525000Y-105825000D03*
X71180000Y-112920000D03*
X71180000Y-110920000D03*
D35*
X122550000Y-76980000D03*
X122550000Y-78250000D03*
X122550000Y-79520000D03*
X122550000Y-80790000D03*
X122550000Y-82060000D03*
X122550000Y-83330000D03*
X122550000Y-84600000D03*
X122550000Y-85870000D03*
X113250000Y-85870000D03*
X113250000Y-84600000D03*
X113250000Y-83330000D03*
X113250000Y-82060000D03*
X113250000Y-80790000D03*
X113250000Y-79520000D03*
X113250000Y-78250000D03*
X113250000Y-76980000D03*
D34*
X80625000Y-76750000D03*
X82625000Y-76750000D03*
D36*
X68690000Y-90100000D03*
X69960000Y-90100000D03*
X71230000Y-90100000D03*
X72500000Y-90100000D03*
X72500000Y-95050000D03*
X71230000Y-95050000D03*
X69960000Y-95050000D03*
X68690000Y-95050000D03*
D31*
X80050000Y-118850000D03*
X80050000Y-120850000D03*
X150550000Y-104025000D03*
X150550000Y-106025000D03*
D37*
X133925000Y-109275000D03*
X131925000Y-109275000D03*
D32*
X150550000Y-102250000D03*
X150550000Y-100250000D03*
D38*
X130250000Y-95605000D03*
X130250000Y-97680000D03*
D31*
X74325000Y-89725000D03*
X74325000Y-91725000D03*
D32*
X150550000Y-109800000D03*
X150550000Y-107800000D03*
D36*
X126345000Y-107300000D03*
X127615000Y-107300000D03*
X128885000Y-107300000D03*
X130155000Y-107300000D03*
X130155000Y-112250000D03*
X128885000Y-112250000D03*
X127615000Y-112250000D03*
X126345000Y-112250000D03*
D39*
X78800000Y-93200000D03*
X78800000Y-90075000D03*
D33*
X128880000Y-104775000D03*
X127610000Y-104775000D03*
X126340000Y-104775000D03*
X125070000Y-104775000D03*
X125070000Y-99825000D03*
X126340000Y-99825000D03*
X127610000Y-99825000D03*
X128880000Y-99825000D03*
D29*
X77075000Y-86050000D03*
X77075000Y-87950000D03*
X74975000Y-87000000D03*
D40*
X135950000Y-113300000D03*
X134050000Y-113300000D03*
X135000000Y-111200000D03*
D31*
X130700000Y-99450000D03*
X130700000Y-101450000D03*
D37*
X133925000Y-107275000D03*
X131925000Y-107275000D03*
D41*
X137850000Y-113362500D03*
X137850000Y-111287500D03*
D37*
X86400000Y-76750000D03*
X84400000Y-76750000D03*
M02*
