%TF.GenerationSoftware,KiCad,Pcbnew,6.0.1-79c1e3a40b~116~ubuntu20.04.1*%
%TF.CreationDate,2022-02-02T21:23:13+02:00*%
%TF.ProjectId,PiUPS,50695550-532e-46b6-9963-61645f706362,rev?*%
%TF.SameCoordinates,Original*%
%TF.FileFunction,Soldermask,Bot*%
%TF.FilePolarity,Negative*%
%FSLAX46Y46*%
G04 Gerber Fmt 4.6, Leading zero omitted, Abs format (unit mm)*
G04 Created by KiCad (PCBNEW 6.0.1-79c1e3a40b~116~ubuntu20.04.1) date 2022-02-02 21:23:13*
%MOMM*%
%LPD*%
G01*
G04 APERTURE LIST*
G04 Aperture macros list*
%AMRoundRect*
0 Rectangle with rounded corners*
0 $1 Rounding radius*
0 $2 $3 $4 $5 $6 $7 $8 $9 X,Y pos of 4 corners*
0 Add a 4 corners polygon primitive as box body*
4,1,4,$2,$3,$4,$5,$6,$7,$8,$9,$2,$3,0*
0 Add four circle primitives for the rounded corners*
1,1,$1+$1,$2,$3*
1,1,$1+$1,$4,$5*
1,1,$1+$1,$6,$7*
1,1,$1+$1,$8,$9*
0 Add four rect primitives between the rounded corners*
20,1,$1+$1,$2,$3,$4,$5,0*
20,1,$1+$1,$4,$5,$6,$7,0*
20,1,$1+$1,$6,$7,$8,$9,0*
20,1,$1+$1,$8,$9,$2,$3,0*%
G04 Aperture macros list end*
%ADD10C,1.300000*%
%ADD11C,3.450000*%
%ADD12C,2.390000*%
%ADD13O,1.700000X1.350000*%
%ADD14O,1.500000X1.100000*%
%ADD15C,0.900000*%
%ADD16C,0.600000*%
%ADD17O,0.900000X1.700000*%
%ADD18O,0.900000X2.000000*%
%ADD19R,3.960000X1.980000*%
%ADD20O,3.960000X1.980000*%
%ADD21C,0.300000*%
%ADD22C,6.750000*%
%ADD23R,1.750000X1.750000*%
%ADD24C,1.750000*%
%ADD25R,1.300000X0.600000*%
%ADD26R,1.000000X1.000000*%
%ADD27RoundRect,0.250000X-0.450000X0.350000X-0.450000X-0.350000X0.450000X-0.350000X0.450000X0.350000X0*%
%ADD28RoundRect,0.250000X0.450000X-0.350000X0.450000X0.350000X-0.450000X0.350000X-0.450000X-0.350000X0*%
%ADD29RoundRect,0.150000X0.150000X-0.825000X0.150000X0.825000X-0.150000X0.825000X-0.150000X-0.825000X0*%
%ADD30RoundRect,0.250000X-0.350000X-0.450000X0.350000X-0.450000X0.350000X0.450000X-0.350000X0.450000X0*%
%ADD31RoundRect,0.150000X0.875000X0.150000X-0.875000X0.150000X-0.875000X-0.150000X0.875000X-0.150000X0*%
%ADD32RoundRect,0.150000X-0.150000X0.825000X-0.150000X-0.825000X0.150000X-0.825000X0.150000X0.825000X0*%
%ADD33RoundRect,0.250000X0.350000X0.450000X-0.350000X0.450000X-0.350000X-0.450000X0.350000X-0.450000X0*%
%ADD34RoundRect,0.250000X-0.475000X0.337500X-0.475000X-0.337500X0.475000X-0.337500X0.475000X0.337500X0*%
%ADD35RoundRect,0.250000X0.650000X-0.412500X0.650000X0.412500X-0.650000X0.412500X-0.650000X-0.412500X0*%
%ADD36R,0.600000X1.300000*%
%ADD37RoundRect,0.250000X0.475000X-0.337500X0.475000X0.337500X-0.475000X0.337500X-0.475000X-0.337500X0*%
G04 APERTURE END LIST*
D10*
X144225000Y-107400000D03*
X144225000Y-102400000D03*
D11*
X137723600Y-77191600D03*
X82523600Y-93191600D03*
D12*
X74193600Y-77191600D03*
D13*
X68189600Y-109182400D03*
D14*
X71189600Y-114332400D03*
X71189600Y-109492400D03*
D13*
X68189600Y-114642400D03*
D15*
X101950000Y-121175000D03*
X108750000Y-121175000D03*
D16*
X81680800Y-117625200D03*
X75900800Y-117625200D03*
D17*
X74470800Y-121315200D03*
X83110800Y-121315200D03*
D18*
X83110800Y-117145200D03*
X74470800Y-117145200D03*
D19*
X72999600Y-99140000D03*
D20*
X72999600Y-104140000D03*
D21*
X117775900Y-109296200D03*
X117025900Y-108521200D03*
X117025900Y-109296200D03*
X117025900Y-110071200D03*
X115975900Y-108521200D03*
X115975900Y-109296200D03*
X115975900Y-110071200D03*
X115225900Y-109296200D03*
D22*
X69932000Y-119770000D03*
X127932000Y-70770000D03*
X69932000Y-70770000D03*
X127932000Y-119770000D03*
D23*
X74802000Y-72040000D03*
D24*
X74802000Y-69500000D03*
X77342000Y-72040000D03*
X77342000Y-69500000D03*
X79882000Y-72040000D03*
X79882000Y-69500000D03*
X82422000Y-72040000D03*
X82422000Y-69500000D03*
X84962000Y-72040000D03*
X84962000Y-69500000D03*
X87502000Y-72040000D03*
X87502000Y-69500000D03*
X90042000Y-72040000D03*
X90042000Y-69500000D03*
X92582000Y-72040000D03*
X92582000Y-69500000D03*
X95122000Y-72040000D03*
X95122000Y-69500000D03*
X97662000Y-72040000D03*
X97662000Y-69500000D03*
X100202000Y-72040000D03*
X100202000Y-69500000D03*
X102742000Y-72040000D03*
X102742000Y-69500000D03*
X105282000Y-72040000D03*
X105282000Y-69500000D03*
X107822000Y-72040000D03*
X107822000Y-69500000D03*
X110362000Y-72040000D03*
X110362000Y-69500000D03*
X112902000Y-72040000D03*
X112902000Y-69500000D03*
X115442000Y-72040000D03*
X115442000Y-69500000D03*
X117982000Y-72040000D03*
X117982000Y-69500000D03*
X120522000Y-72040000D03*
X120522000Y-69500000D03*
X123062000Y-72040000D03*
X123062000Y-69500000D03*
D19*
X147275000Y-107675000D03*
D20*
X147275000Y-102675000D03*
D25*
X131975000Y-105400000D03*
X131975000Y-103500000D03*
X134075000Y-104450000D03*
D26*
X110875000Y-79525000D03*
X110875000Y-82025000D03*
D27*
X79000000Y-86075000D03*
X79000000Y-88075000D03*
D28*
X152525000Y-104050000D03*
X152525000Y-102050000D03*
D29*
X71220000Y-87550000D03*
X69950000Y-87550000D03*
X68680000Y-87550000D03*
X67410000Y-87550000D03*
X67410000Y-82600000D03*
X68680000Y-82600000D03*
X69950000Y-82600000D03*
X71220000Y-82600000D03*
D27*
X91225000Y-77325000D03*
X91225000Y-79325000D03*
X78050000Y-118850000D03*
X78050000Y-120850000D03*
D28*
X135800000Y-109375000D03*
X135800000Y-107375000D03*
D27*
X73050000Y-85925000D03*
X73050000Y-87925000D03*
D30*
X80625000Y-74775000D03*
X82625000Y-74775000D03*
D28*
X152525000Y-107825000D03*
X152525000Y-105825000D03*
X71180000Y-112920000D03*
X71180000Y-110920000D03*
D31*
X122550000Y-76980000D03*
X122550000Y-78250000D03*
X122550000Y-79520000D03*
X122550000Y-80790000D03*
X122550000Y-82060000D03*
X122550000Y-83330000D03*
X122550000Y-84600000D03*
X122550000Y-85870000D03*
X113250000Y-85870000D03*
X113250000Y-84600000D03*
X113250000Y-83330000D03*
X113250000Y-82060000D03*
X113250000Y-80790000D03*
X113250000Y-79520000D03*
X113250000Y-78250000D03*
X113250000Y-76980000D03*
D30*
X80625000Y-76750000D03*
X82625000Y-76750000D03*
D32*
X68690000Y-90100000D03*
X69960000Y-90100000D03*
X71230000Y-90100000D03*
X72500000Y-90100000D03*
X72500000Y-95050000D03*
X71230000Y-95050000D03*
X69960000Y-95050000D03*
X68690000Y-95050000D03*
D27*
X80050000Y-118850000D03*
X80050000Y-120850000D03*
X150550000Y-104025000D03*
X150550000Y-106025000D03*
D33*
X133925000Y-109275000D03*
X131925000Y-109275000D03*
D28*
X150550000Y-102250000D03*
X150550000Y-100250000D03*
D34*
X130250000Y-95605000D03*
X130250000Y-97680000D03*
D27*
X74325000Y-89725000D03*
X74325000Y-91725000D03*
D28*
X150550000Y-109800000D03*
X150550000Y-107800000D03*
D32*
X126345000Y-107300000D03*
X127615000Y-107300000D03*
X128885000Y-107300000D03*
X130155000Y-107300000D03*
X130155000Y-112250000D03*
X128885000Y-112250000D03*
X127615000Y-112250000D03*
X126345000Y-112250000D03*
D35*
X78800000Y-93200000D03*
X78800000Y-90075000D03*
D29*
X128880000Y-104775000D03*
X127610000Y-104775000D03*
X126340000Y-104775000D03*
X125070000Y-104775000D03*
X125070000Y-99825000D03*
X126340000Y-99825000D03*
X127610000Y-99825000D03*
X128880000Y-99825000D03*
D25*
X77075000Y-86050000D03*
X77075000Y-87950000D03*
X74975000Y-87000000D03*
D36*
X135950000Y-113300000D03*
X134050000Y-113300000D03*
X135000000Y-111200000D03*
D27*
X130700000Y-99450000D03*
X130700000Y-101450000D03*
D33*
X133925000Y-107275000D03*
X131925000Y-107275000D03*
D37*
X137850000Y-113362500D03*
X137850000Y-111287500D03*
D33*
X86400000Y-76750000D03*
X84400000Y-76750000D03*
M02*
