G04 #@! TF.GenerationSoftware,KiCad,Pcbnew,5.1.10-88a1d61d58~90~ubuntu20.04.1*
G04 #@! TF.CreationDate,2021-09-24T13:56:54+03:00*
G04 #@! TF.ProjectId,PiUPS,50695550-532e-46b6-9963-61645f706362,rev?*
G04 #@! TF.SameCoordinates,Original*
G04 #@! TF.FileFunction,Soldermask,Top*
G04 #@! TF.FilePolarity,Negative*
%FSLAX46Y46*%
G04 Gerber Fmt 4.6, Leading zero omitted, Abs format (unit mm)*
G04 Created by KiCad (PCBNEW 5.1.10-88a1d61d58~90~ubuntu20.04.1) date 2021-09-24 13:56:54*
%MOMM*%
%LPD*%
G01*
G04 APERTURE LIST*
%ADD10C,0.010000*%
%ADD11C,0.300000*%
%ADD12R,2.050000X3.050000*%
%ADD13R,0.600000X0.240000*%
%ADD14R,0.240000X0.600000*%
%ADD15R,2.700000X2.700000*%
%ADD16C,0.900000*%
%ADD17R,1.400000X1.600000*%
%ADD18R,2.700000X3.600000*%
%ADD19C,1.750000*%
%ADD20R,1.750000X1.750000*%
%ADD21C,2.750000*%
%ADD22O,1.980000X3.960000*%
%ADD23R,1.980000X3.960000*%
%ADD24C,1.600000*%
%ADD25R,1.600000X1.600000*%
%ADD26C,3.000000*%
%ADD27O,3.960000X1.980000*%
%ADD28R,3.960000X1.980000*%
%ADD29R,1.450000X1.150000*%
%ADD30O,1.900000X1.050000*%
%ADD31R,1.900000X1.750000*%
%ADD32R,1.400000X0.400000*%
%ADD33R,0.600000X1.160000*%
%ADD34C,0.600000*%
%ADD35R,0.300000X1.160000*%
%ADD36O,0.900000X1.700000*%
%ADD37O,0.900000X2.000000*%
%ADD38C,2.390000*%
%ADD39C,3.450000*%
%ADD40R,7.340000X6.350000*%
G04 APERTURE END LIST*
D10*
G36*
X132698000Y-104398000D02*
G01*
X132698000Y-103625000D01*
X132698208Y-103617045D01*
X132698833Y-103609112D01*
X132699871Y-103601222D01*
X132701322Y-103593397D01*
X132703179Y-103585660D01*
X132705439Y-103578029D01*
X132708096Y-103570528D01*
X132711141Y-103563176D01*
X132714567Y-103555993D01*
X132718364Y-103549000D01*
X132722522Y-103542215D01*
X132727029Y-103535657D01*
X132731874Y-103529343D01*
X132737042Y-103523292D01*
X132742520Y-103517520D01*
X132748292Y-103512042D01*
X132754343Y-103506874D01*
X132760657Y-103502029D01*
X132767215Y-103497522D01*
X132774000Y-103493364D01*
X132780993Y-103489567D01*
X132788176Y-103486141D01*
X132795528Y-103483096D01*
X132803029Y-103480439D01*
X132810660Y-103478179D01*
X132818397Y-103476322D01*
X132826222Y-103474871D01*
X132834112Y-103473833D01*
X132842045Y-103473208D01*
X132850000Y-103473000D01*
X132950000Y-103473000D01*
X132957955Y-103473208D01*
X132965888Y-103473833D01*
X132973778Y-103474871D01*
X132981603Y-103476322D01*
X132989340Y-103478179D01*
X132996971Y-103480439D01*
X133004472Y-103483096D01*
X133011824Y-103486141D01*
X133019007Y-103489567D01*
X133026000Y-103493364D01*
X133032785Y-103497522D01*
X133039343Y-103502029D01*
X133045657Y-103506874D01*
X133051708Y-103512042D01*
X133057480Y-103517520D01*
X133062958Y-103523292D01*
X133068126Y-103529343D01*
X133072971Y-103535657D01*
X133077478Y-103542215D01*
X133081636Y-103549000D01*
X133085433Y-103555993D01*
X133088859Y-103563176D01*
X133091904Y-103570528D01*
X133094561Y-103578029D01*
X133096821Y-103585660D01*
X133098678Y-103593397D01*
X133100129Y-103601222D01*
X133101167Y-103609112D01*
X133101792Y-103617045D01*
X133102000Y-103625000D01*
X133102000Y-103998000D01*
X133247000Y-103998000D01*
X133248000Y-103998000D01*
X133248000Y-103623000D01*
X133248206Y-103615150D01*
X133248822Y-103607321D01*
X133249847Y-103599535D01*
X133251278Y-103591813D01*
X133253111Y-103584177D01*
X133255342Y-103576647D01*
X133257963Y-103569245D01*
X133260968Y-103561990D01*
X133264349Y-103554901D01*
X133268096Y-103548000D01*
X133272199Y-103541304D01*
X133276647Y-103534832D01*
X133281428Y-103528602D01*
X133286528Y-103522630D01*
X133291934Y-103516934D01*
X133297630Y-103511528D01*
X133303602Y-103506428D01*
X133309832Y-103501647D01*
X133316304Y-103497199D01*
X133323000Y-103493096D01*
X133329901Y-103489349D01*
X133336990Y-103485968D01*
X133344245Y-103482963D01*
X133351647Y-103480342D01*
X133359177Y-103478111D01*
X133366813Y-103476278D01*
X133374535Y-103474847D01*
X133382321Y-103473822D01*
X133390150Y-103473206D01*
X133398000Y-103473000D01*
X133501000Y-103473000D01*
X133508903Y-103473207D01*
X133516784Y-103473827D01*
X133524622Y-103474859D01*
X133532395Y-103476300D01*
X133540082Y-103478145D01*
X133547662Y-103480390D01*
X133555114Y-103483029D01*
X133562417Y-103486055D01*
X133569553Y-103489458D01*
X133576500Y-103493230D01*
X133583240Y-103497361D01*
X133589756Y-103501838D01*
X133596027Y-103506651D01*
X133602039Y-103511785D01*
X133607773Y-103517227D01*
X133613215Y-103522961D01*
X133618349Y-103528973D01*
X133623162Y-103535244D01*
X133627639Y-103541760D01*
X133631770Y-103548500D01*
X133635542Y-103555447D01*
X133638945Y-103562583D01*
X133641971Y-103569886D01*
X133644610Y-103577338D01*
X133646855Y-103584918D01*
X133648700Y-103592605D01*
X133650141Y-103600378D01*
X133651173Y-103608216D01*
X133651793Y-103616097D01*
X133652000Y-103624000D01*
X133652000Y-104398000D01*
X134150000Y-104398000D01*
X134157955Y-104398208D01*
X134165888Y-104398833D01*
X134173778Y-104399871D01*
X134181603Y-104401322D01*
X134189340Y-104403179D01*
X134196971Y-104405439D01*
X134204472Y-104408096D01*
X134211824Y-104411141D01*
X134219007Y-104414567D01*
X134226000Y-104418364D01*
X134232785Y-104422522D01*
X134239343Y-104427029D01*
X134245657Y-104431874D01*
X134251708Y-104437042D01*
X134257480Y-104442520D01*
X134262958Y-104448292D01*
X134268126Y-104454343D01*
X134272971Y-104460657D01*
X134277478Y-104467215D01*
X134281636Y-104474000D01*
X134285433Y-104480993D01*
X134288859Y-104488176D01*
X134291904Y-104495528D01*
X134294561Y-104503029D01*
X134296821Y-104510660D01*
X134298678Y-104518397D01*
X134300129Y-104526222D01*
X134301167Y-104534112D01*
X134301792Y-104542045D01*
X134302000Y-104550000D01*
X134302000Y-107501000D01*
X134301794Y-107508850D01*
X134301178Y-107516679D01*
X134300153Y-107524465D01*
X134298722Y-107532187D01*
X134296889Y-107539823D01*
X134294658Y-107547353D01*
X134292037Y-107554755D01*
X134289032Y-107562010D01*
X134285651Y-107569099D01*
X134281904Y-107576000D01*
X134277801Y-107582696D01*
X134273353Y-107589168D01*
X134268572Y-107595398D01*
X134263472Y-107601370D01*
X134258066Y-107607066D01*
X134252370Y-107612472D01*
X134246398Y-107617572D01*
X134240168Y-107622353D01*
X134233696Y-107626801D01*
X134227000Y-107630904D01*
X134220099Y-107634651D01*
X134213010Y-107638032D01*
X134205755Y-107641037D01*
X134198353Y-107643658D01*
X134190823Y-107645889D01*
X134183187Y-107647722D01*
X134175465Y-107649153D01*
X134167679Y-107650178D01*
X134159850Y-107650794D01*
X134152000Y-107651000D01*
X133653000Y-107651000D01*
X133652948Y-107651001D01*
X133652895Y-107651005D01*
X133652844Y-107651012D01*
X133652792Y-107651022D01*
X133652741Y-107651034D01*
X133652691Y-107651049D01*
X133652642Y-107651066D01*
X133652593Y-107651086D01*
X133652546Y-107651109D01*
X133652500Y-107651134D01*
X133652455Y-107651161D01*
X133652412Y-107651191D01*
X133652371Y-107651223D01*
X133652331Y-107651257D01*
X133652293Y-107651293D01*
X133652257Y-107651331D01*
X133652223Y-107651371D01*
X133652191Y-107651412D01*
X133652161Y-107651455D01*
X133652134Y-107651500D01*
X133652109Y-107651546D01*
X133652086Y-107651593D01*
X133652066Y-107651642D01*
X133652049Y-107651691D01*
X133652034Y-107651741D01*
X133652022Y-107651792D01*
X133652012Y-107651844D01*
X133652005Y-107651895D01*
X133652001Y-107651948D01*
X133652000Y-107652000D01*
X133652000Y-108426000D01*
X133651794Y-108433850D01*
X133651178Y-108441679D01*
X133650153Y-108449465D01*
X133648722Y-108457187D01*
X133646889Y-108464823D01*
X133644658Y-108472353D01*
X133642037Y-108479755D01*
X133639032Y-108487010D01*
X133635651Y-108494099D01*
X133631904Y-108501000D01*
X133627801Y-108507696D01*
X133623353Y-108514168D01*
X133618572Y-108520398D01*
X133613472Y-108526370D01*
X133608066Y-108532066D01*
X133602370Y-108537472D01*
X133596398Y-108542572D01*
X133590168Y-108547353D01*
X133583696Y-108551801D01*
X133577000Y-108555904D01*
X133570099Y-108559651D01*
X133563010Y-108563032D01*
X133555755Y-108566037D01*
X133548353Y-108568658D01*
X133540823Y-108570889D01*
X133533187Y-108572722D01*
X133525465Y-108574153D01*
X133517679Y-108575178D01*
X133509850Y-108575794D01*
X133502000Y-108576000D01*
X133397000Y-108576000D01*
X133389202Y-108575796D01*
X133381425Y-108575184D01*
X133373691Y-108574166D01*
X133366021Y-108572744D01*
X133358436Y-108570923D01*
X133350956Y-108568707D01*
X133343603Y-108566103D01*
X133336396Y-108563118D01*
X133329355Y-108559760D01*
X133322500Y-108556038D01*
X133315849Y-108551962D01*
X133309420Y-108547544D01*
X133303231Y-108542795D01*
X133297300Y-108537729D01*
X133291641Y-108532359D01*
X133286271Y-108526700D01*
X133281205Y-108520769D01*
X133276456Y-108514580D01*
X133272038Y-108508151D01*
X133267962Y-108501500D01*
X133264240Y-108494645D01*
X133260882Y-108487604D01*
X133257897Y-108480397D01*
X133255293Y-108473044D01*
X133253077Y-108465564D01*
X133251256Y-108457979D01*
X133249834Y-108450309D01*
X133248816Y-108442575D01*
X133248204Y-108434798D01*
X133248000Y-108427000D01*
X133248000Y-108052000D01*
X133103000Y-108052000D01*
X133102948Y-108052001D01*
X133102895Y-108052005D01*
X133102844Y-108052012D01*
X133102792Y-108052022D01*
X133102741Y-108052034D01*
X133102691Y-108052049D01*
X133102642Y-108052066D01*
X133102593Y-108052086D01*
X133102546Y-108052109D01*
X133102500Y-108052134D01*
X133102455Y-108052161D01*
X133102412Y-108052191D01*
X133102371Y-108052223D01*
X133102331Y-108052257D01*
X133102293Y-108052293D01*
X133102257Y-108052331D01*
X133102223Y-108052371D01*
X133102191Y-108052412D01*
X133102161Y-108052455D01*
X133102134Y-108052500D01*
X133102109Y-108052546D01*
X133102086Y-108052593D01*
X133102066Y-108052642D01*
X133102049Y-108052691D01*
X133102034Y-108052741D01*
X133102022Y-108052792D01*
X133102012Y-108052844D01*
X133102005Y-108052895D01*
X133102001Y-108052948D01*
X133102000Y-108053000D01*
X133102000Y-108426000D01*
X133101794Y-108433850D01*
X133101178Y-108441679D01*
X133100153Y-108449465D01*
X133098722Y-108457187D01*
X133096889Y-108464823D01*
X133094658Y-108472353D01*
X133092037Y-108479755D01*
X133089032Y-108487010D01*
X133085651Y-108494099D01*
X133081904Y-108501000D01*
X133077801Y-108507696D01*
X133073353Y-108514168D01*
X133068572Y-108520398D01*
X133063472Y-108526370D01*
X133058066Y-108532066D01*
X133052370Y-108537472D01*
X133046398Y-108542572D01*
X133040168Y-108547353D01*
X133033696Y-108551801D01*
X133027000Y-108555904D01*
X133020099Y-108559651D01*
X133013010Y-108563032D01*
X133005755Y-108566037D01*
X132998353Y-108568658D01*
X132990823Y-108570889D01*
X132983187Y-108572722D01*
X132975465Y-108574153D01*
X132967679Y-108575178D01*
X132959850Y-108575794D01*
X132952000Y-108576000D01*
X132846000Y-108576000D01*
X132838254Y-108575797D01*
X132830530Y-108575189D01*
X132822848Y-108574178D01*
X132815229Y-108572766D01*
X132807695Y-108570957D01*
X132800265Y-108568756D01*
X132792962Y-108566170D01*
X132785803Y-108563205D01*
X132778809Y-108559869D01*
X132772000Y-108556172D01*
X132765393Y-108552123D01*
X132759008Y-108547735D01*
X132752861Y-108543018D01*
X132746969Y-108537985D01*
X132741348Y-108532652D01*
X132736015Y-108527031D01*
X132730982Y-108521139D01*
X132726265Y-108514992D01*
X132721877Y-108508607D01*
X132717828Y-108502000D01*
X132714131Y-108495191D01*
X132710795Y-108488197D01*
X132707830Y-108481038D01*
X132705244Y-108473735D01*
X132703043Y-108466305D01*
X132701234Y-108458771D01*
X132699822Y-108451152D01*
X132698811Y-108443470D01*
X132698203Y-108435746D01*
X132698000Y-108428000D01*
X132698000Y-107652000D01*
X132200000Y-107652000D01*
X132192045Y-107651792D01*
X132184112Y-107651167D01*
X132176222Y-107650129D01*
X132168397Y-107648678D01*
X132160660Y-107646821D01*
X132153029Y-107644561D01*
X132145528Y-107641904D01*
X132138176Y-107638859D01*
X132130993Y-107635433D01*
X132124000Y-107631636D01*
X132117215Y-107627478D01*
X132110657Y-107622971D01*
X132104343Y-107618126D01*
X132098292Y-107612958D01*
X132092520Y-107607480D01*
X132087042Y-107601708D01*
X132081874Y-107595657D01*
X132077029Y-107589343D01*
X132072522Y-107582785D01*
X132068364Y-107576000D01*
X132064567Y-107569007D01*
X132061141Y-107561824D01*
X132058096Y-107554472D01*
X132055439Y-107546971D01*
X132053179Y-107539340D01*
X132051322Y-107531603D01*
X132049871Y-107523778D01*
X132048833Y-107515888D01*
X132048208Y-107507955D01*
X132048000Y-107500000D01*
X132048000Y-104551000D01*
X132048208Y-104543045D01*
X132048833Y-104535112D01*
X132049871Y-104527222D01*
X132051322Y-104519397D01*
X132053179Y-104511660D01*
X132055439Y-104504029D01*
X132058096Y-104496528D01*
X132061141Y-104489176D01*
X132064567Y-104481993D01*
X132068364Y-104475000D01*
X132072522Y-104468215D01*
X132077029Y-104461657D01*
X132081874Y-104455343D01*
X132087042Y-104449292D01*
X132092520Y-104443520D01*
X132098292Y-104438042D01*
X132104343Y-104432874D01*
X132110657Y-104428029D01*
X132117215Y-104423522D01*
X132124000Y-104419364D01*
X132130993Y-104415567D01*
X132138176Y-104412141D01*
X132145528Y-104409096D01*
X132153029Y-104406439D01*
X132160660Y-104404179D01*
X132168397Y-104402322D01*
X132176222Y-104400871D01*
X132184112Y-104399833D01*
X132192045Y-104399208D01*
X132200000Y-104399000D01*
X132697000Y-104399000D01*
X132697052Y-104398999D01*
X132697105Y-104398995D01*
X132697156Y-104398988D01*
X132697208Y-104398978D01*
X132697259Y-104398966D01*
X132697309Y-104398951D01*
X132697358Y-104398934D01*
X132697407Y-104398914D01*
X132697454Y-104398891D01*
X132697500Y-104398866D01*
X132697545Y-104398839D01*
X132697588Y-104398809D01*
X132697629Y-104398777D01*
X132697669Y-104398743D01*
X132697707Y-104398707D01*
X132697743Y-104398669D01*
X132697777Y-104398629D01*
X132697809Y-104398588D01*
X132697839Y-104398545D01*
X132697866Y-104398500D01*
X132697891Y-104398454D01*
X132697914Y-104398407D01*
X132697934Y-104398358D01*
X132697951Y-104398309D01*
X132697966Y-104398259D01*
X132697978Y-104398208D01*
X132697988Y-104398156D01*
X132697995Y-104398105D01*
X132697999Y-104398052D01*
X132698000Y-104398000D01*
G37*
X132698000Y-104398000D02*
X132698000Y-103625000D01*
X132698208Y-103617045D01*
X132698833Y-103609112D01*
X132699871Y-103601222D01*
X132701322Y-103593397D01*
X132703179Y-103585660D01*
X132705439Y-103578029D01*
X132708096Y-103570528D01*
X132711141Y-103563176D01*
X132714567Y-103555993D01*
X132718364Y-103549000D01*
X132722522Y-103542215D01*
X132727029Y-103535657D01*
X132731874Y-103529343D01*
X132737042Y-103523292D01*
X132742520Y-103517520D01*
X132748292Y-103512042D01*
X132754343Y-103506874D01*
X132760657Y-103502029D01*
X132767215Y-103497522D01*
X132774000Y-103493364D01*
X132780993Y-103489567D01*
X132788176Y-103486141D01*
X132795528Y-103483096D01*
X132803029Y-103480439D01*
X132810660Y-103478179D01*
X132818397Y-103476322D01*
X132826222Y-103474871D01*
X132834112Y-103473833D01*
X132842045Y-103473208D01*
X132850000Y-103473000D01*
X132950000Y-103473000D01*
X132957955Y-103473208D01*
X132965888Y-103473833D01*
X132973778Y-103474871D01*
X132981603Y-103476322D01*
X132989340Y-103478179D01*
X132996971Y-103480439D01*
X133004472Y-103483096D01*
X133011824Y-103486141D01*
X133019007Y-103489567D01*
X133026000Y-103493364D01*
X133032785Y-103497522D01*
X133039343Y-103502029D01*
X133045657Y-103506874D01*
X133051708Y-103512042D01*
X133057480Y-103517520D01*
X133062958Y-103523292D01*
X133068126Y-103529343D01*
X133072971Y-103535657D01*
X133077478Y-103542215D01*
X133081636Y-103549000D01*
X133085433Y-103555993D01*
X133088859Y-103563176D01*
X133091904Y-103570528D01*
X133094561Y-103578029D01*
X133096821Y-103585660D01*
X133098678Y-103593397D01*
X133100129Y-103601222D01*
X133101167Y-103609112D01*
X133101792Y-103617045D01*
X133102000Y-103625000D01*
X133102000Y-103998000D01*
X133247000Y-103998000D01*
X133248000Y-103998000D01*
X133248000Y-103623000D01*
X133248206Y-103615150D01*
X133248822Y-103607321D01*
X133249847Y-103599535D01*
X133251278Y-103591813D01*
X133253111Y-103584177D01*
X133255342Y-103576647D01*
X133257963Y-103569245D01*
X133260968Y-103561990D01*
X133264349Y-103554901D01*
X133268096Y-103548000D01*
X133272199Y-103541304D01*
X133276647Y-103534832D01*
X133281428Y-103528602D01*
X133286528Y-103522630D01*
X133291934Y-103516934D01*
X133297630Y-103511528D01*
X133303602Y-103506428D01*
X133309832Y-103501647D01*
X133316304Y-103497199D01*
X133323000Y-103493096D01*
X133329901Y-103489349D01*
X133336990Y-103485968D01*
X133344245Y-103482963D01*
X133351647Y-103480342D01*
X133359177Y-103478111D01*
X133366813Y-103476278D01*
X133374535Y-103474847D01*
X133382321Y-103473822D01*
X133390150Y-103473206D01*
X133398000Y-103473000D01*
X133501000Y-103473000D01*
X133508903Y-103473207D01*
X133516784Y-103473827D01*
X133524622Y-103474859D01*
X133532395Y-103476300D01*
X133540082Y-103478145D01*
X133547662Y-103480390D01*
X133555114Y-103483029D01*
X133562417Y-103486055D01*
X133569553Y-103489458D01*
X133576500Y-103493230D01*
X133583240Y-103497361D01*
X133589756Y-103501838D01*
X133596027Y-103506651D01*
X133602039Y-103511785D01*
X133607773Y-103517227D01*
X133613215Y-103522961D01*
X133618349Y-103528973D01*
X133623162Y-103535244D01*
X133627639Y-103541760D01*
X133631770Y-103548500D01*
X133635542Y-103555447D01*
X133638945Y-103562583D01*
X133641971Y-103569886D01*
X133644610Y-103577338D01*
X133646855Y-103584918D01*
X133648700Y-103592605D01*
X133650141Y-103600378D01*
X133651173Y-103608216D01*
X133651793Y-103616097D01*
X133652000Y-103624000D01*
X133652000Y-104398000D01*
X134150000Y-104398000D01*
X134157955Y-104398208D01*
X134165888Y-104398833D01*
X134173778Y-104399871D01*
X134181603Y-104401322D01*
X134189340Y-104403179D01*
X134196971Y-104405439D01*
X134204472Y-104408096D01*
X134211824Y-104411141D01*
X134219007Y-104414567D01*
X134226000Y-104418364D01*
X134232785Y-104422522D01*
X134239343Y-104427029D01*
X134245657Y-104431874D01*
X134251708Y-104437042D01*
X134257480Y-104442520D01*
X134262958Y-104448292D01*
X134268126Y-104454343D01*
X134272971Y-104460657D01*
X134277478Y-104467215D01*
X134281636Y-104474000D01*
X134285433Y-104480993D01*
X134288859Y-104488176D01*
X134291904Y-104495528D01*
X134294561Y-104503029D01*
X134296821Y-104510660D01*
X134298678Y-104518397D01*
X134300129Y-104526222D01*
X134301167Y-104534112D01*
X134301792Y-104542045D01*
X134302000Y-104550000D01*
X134302000Y-107501000D01*
X134301794Y-107508850D01*
X134301178Y-107516679D01*
X134300153Y-107524465D01*
X134298722Y-107532187D01*
X134296889Y-107539823D01*
X134294658Y-107547353D01*
X134292037Y-107554755D01*
X134289032Y-107562010D01*
X134285651Y-107569099D01*
X134281904Y-107576000D01*
X134277801Y-107582696D01*
X134273353Y-107589168D01*
X134268572Y-107595398D01*
X134263472Y-107601370D01*
X134258066Y-107607066D01*
X134252370Y-107612472D01*
X134246398Y-107617572D01*
X134240168Y-107622353D01*
X134233696Y-107626801D01*
X134227000Y-107630904D01*
X134220099Y-107634651D01*
X134213010Y-107638032D01*
X134205755Y-107641037D01*
X134198353Y-107643658D01*
X134190823Y-107645889D01*
X134183187Y-107647722D01*
X134175465Y-107649153D01*
X134167679Y-107650178D01*
X134159850Y-107650794D01*
X134152000Y-107651000D01*
X133653000Y-107651000D01*
X133652948Y-107651001D01*
X133652895Y-107651005D01*
X133652844Y-107651012D01*
X133652792Y-107651022D01*
X133652741Y-107651034D01*
X133652691Y-107651049D01*
X133652642Y-107651066D01*
X133652593Y-107651086D01*
X133652546Y-107651109D01*
X133652500Y-107651134D01*
X133652455Y-107651161D01*
X133652412Y-107651191D01*
X133652371Y-107651223D01*
X133652331Y-107651257D01*
X133652293Y-107651293D01*
X133652257Y-107651331D01*
X133652223Y-107651371D01*
X133652191Y-107651412D01*
X133652161Y-107651455D01*
X133652134Y-107651500D01*
X133652109Y-107651546D01*
X133652086Y-107651593D01*
X133652066Y-107651642D01*
X133652049Y-107651691D01*
X133652034Y-107651741D01*
X133652022Y-107651792D01*
X133652012Y-107651844D01*
X133652005Y-107651895D01*
X133652001Y-107651948D01*
X133652000Y-107652000D01*
X133652000Y-108426000D01*
X133651794Y-108433850D01*
X133651178Y-108441679D01*
X133650153Y-108449465D01*
X133648722Y-108457187D01*
X133646889Y-108464823D01*
X133644658Y-108472353D01*
X133642037Y-108479755D01*
X133639032Y-108487010D01*
X133635651Y-108494099D01*
X133631904Y-108501000D01*
X133627801Y-108507696D01*
X133623353Y-108514168D01*
X133618572Y-108520398D01*
X133613472Y-108526370D01*
X133608066Y-108532066D01*
X133602370Y-108537472D01*
X133596398Y-108542572D01*
X133590168Y-108547353D01*
X133583696Y-108551801D01*
X133577000Y-108555904D01*
X133570099Y-108559651D01*
X133563010Y-108563032D01*
X133555755Y-108566037D01*
X133548353Y-108568658D01*
X133540823Y-108570889D01*
X133533187Y-108572722D01*
X133525465Y-108574153D01*
X133517679Y-108575178D01*
X133509850Y-108575794D01*
X133502000Y-108576000D01*
X133397000Y-108576000D01*
X133389202Y-108575796D01*
X133381425Y-108575184D01*
X133373691Y-108574166D01*
X133366021Y-108572744D01*
X133358436Y-108570923D01*
X133350956Y-108568707D01*
X133343603Y-108566103D01*
X133336396Y-108563118D01*
X133329355Y-108559760D01*
X133322500Y-108556038D01*
X133315849Y-108551962D01*
X133309420Y-108547544D01*
X133303231Y-108542795D01*
X133297300Y-108537729D01*
X133291641Y-108532359D01*
X133286271Y-108526700D01*
X133281205Y-108520769D01*
X133276456Y-108514580D01*
X133272038Y-108508151D01*
X133267962Y-108501500D01*
X133264240Y-108494645D01*
X133260882Y-108487604D01*
X133257897Y-108480397D01*
X133255293Y-108473044D01*
X133253077Y-108465564D01*
X133251256Y-108457979D01*
X133249834Y-108450309D01*
X133248816Y-108442575D01*
X133248204Y-108434798D01*
X133248000Y-108427000D01*
X133248000Y-108052000D01*
X133103000Y-108052000D01*
X133102948Y-108052001D01*
X133102895Y-108052005D01*
X133102844Y-108052012D01*
X133102792Y-108052022D01*
X133102741Y-108052034D01*
X133102691Y-108052049D01*
X133102642Y-108052066D01*
X133102593Y-108052086D01*
X133102546Y-108052109D01*
X133102500Y-108052134D01*
X133102455Y-108052161D01*
X133102412Y-108052191D01*
X133102371Y-108052223D01*
X133102331Y-108052257D01*
X133102293Y-108052293D01*
X133102257Y-108052331D01*
X133102223Y-108052371D01*
X133102191Y-108052412D01*
X133102161Y-108052455D01*
X133102134Y-108052500D01*
X133102109Y-108052546D01*
X133102086Y-108052593D01*
X133102066Y-108052642D01*
X133102049Y-108052691D01*
X133102034Y-108052741D01*
X133102022Y-108052792D01*
X133102012Y-108052844D01*
X133102005Y-108052895D01*
X133102001Y-108052948D01*
X133102000Y-108053000D01*
X133102000Y-108426000D01*
X133101794Y-108433850D01*
X133101178Y-108441679D01*
X133100153Y-108449465D01*
X133098722Y-108457187D01*
X133096889Y-108464823D01*
X133094658Y-108472353D01*
X133092037Y-108479755D01*
X133089032Y-108487010D01*
X133085651Y-108494099D01*
X133081904Y-108501000D01*
X133077801Y-108507696D01*
X133073353Y-108514168D01*
X133068572Y-108520398D01*
X133063472Y-108526370D01*
X133058066Y-108532066D01*
X133052370Y-108537472D01*
X133046398Y-108542572D01*
X133040168Y-108547353D01*
X133033696Y-108551801D01*
X133027000Y-108555904D01*
X133020099Y-108559651D01*
X133013010Y-108563032D01*
X133005755Y-108566037D01*
X132998353Y-108568658D01*
X132990823Y-108570889D01*
X132983187Y-108572722D01*
X132975465Y-108574153D01*
X132967679Y-108575178D01*
X132959850Y-108575794D01*
X132952000Y-108576000D01*
X132846000Y-108576000D01*
X132838254Y-108575797D01*
X132830530Y-108575189D01*
X132822848Y-108574178D01*
X132815229Y-108572766D01*
X132807695Y-108570957D01*
X132800265Y-108568756D01*
X132792962Y-108566170D01*
X132785803Y-108563205D01*
X132778809Y-108559869D01*
X132772000Y-108556172D01*
X132765393Y-108552123D01*
X132759008Y-108547735D01*
X132752861Y-108543018D01*
X132746969Y-108537985D01*
X132741348Y-108532652D01*
X132736015Y-108527031D01*
X132730982Y-108521139D01*
X132726265Y-108514992D01*
X132721877Y-108508607D01*
X132717828Y-108502000D01*
X132714131Y-108495191D01*
X132710795Y-108488197D01*
X132707830Y-108481038D01*
X132705244Y-108473735D01*
X132703043Y-108466305D01*
X132701234Y-108458771D01*
X132699822Y-108451152D01*
X132698811Y-108443470D01*
X132698203Y-108435746D01*
X132698000Y-108428000D01*
X132698000Y-107652000D01*
X132200000Y-107652000D01*
X132192045Y-107651792D01*
X132184112Y-107651167D01*
X132176222Y-107650129D01*
X132168397Y-107648678D01*
X132160660Y-107646821D01*
X132153029Y-107644561D01*
X132145528Y-107641904D01*
X132138176Y-107638859D01*
X132130993Y-107635433D01*
X132124000Y-107631636D01*
X132117215Y-107627478D01*
X132110657Y-107622971D01*
X132104343Y-107618126D01*
X132098292Y-107612958D01*
X132092520Y-107607480D01*
X132087042Y-107601708D01*
X132081874Y-107595657D01*
X132077029Y-107589343D01*
X132072522Y-107582785D01*
X132068364Y-107576000D01*
X132064567Y-107569007D01*
X132061141Y-107561824D01*
X132058096Y-107554472D01*
X132055439Y-107546971D01*
X132053179Y-107539340D01*
X132051322Y-107531603D01*
X132049871Y-107523778D01*
X132048833Y-107515888D01*
X132048208Y-107507955D01*
X132048000Y-107500000D01*
X132048000Y-104551000D01*
X132048208Y-104543045D01*
X132048833Y-104535112D01*
X132049871Y-104527222D01*
X132051322Y-104519397D01*
X132053179Y-104511660D01*
X132055439Y-104504029D01*
X132058096Y-104496528D01*
X132061141Y-104489176D01*
X132064567Y-104481993D01*
X132068364Y-104475000D01*
X132072522Y-104468215D01*
X132077029Y-104461657D01*
X132081874Y-104455343D01*
X132087042Y-104449292D01*
X132092520Y-104443520D01*
X132098292Y-104438042D01*
X132104343Y-104432874D01*
X132110657Y-104428029D01*
X132117215Y-104423522D01*
X132124000Y-104419364D01*
X132130993Y-104415567D01*
X132138176Y-104412141D01*
X132145528Y-104409096D01*
X132153029Y-104406439D01*
X132160660Y-104404179D01*
X132168397Y-104402322D01*
X132176222Y-104400871D01*
X132184112Y-104399833D01*
X132192045Y-104399208D01*
X132200000Y-104399000D01*
X132697000Y-104399000D01*
X132697052Y-104398999D01*
X132697105Y-104398995D01*
X132697156Y-104398988D01*
X132697208Y-104398978D01*
X132697259Y-104398966D01*
X132697309Y-104398951D01*
X132697358Y-104398934D01*
X132697407Y-104398914D01*
X132697454Y-104398891D01*
X132697500Y-104398866D01*
X132697545Y-104398839D01*
X132697588Y-104398809D01*
X132697629Y-104398777D01*
X132697669Y-104398743D01*
X132697707Y-104398707D01*
X132697743Y-104398669D01*
X132697777Y-104398629D01*
X132697809Y-104398588D01*
X132697839Y-104398545D01*
X132697866Y-104398500D01*
X132697891Y-104398454D01*
X132697914Y-104398407D01*
X132697934Y-104398358D01*
X132697951Y-104398309D01*
X132697966Y-104398259D01*
X132697978Y-104398208D01*
X132697988Y-104398156D01*
X132697995Y-104398105D01*
X132697999Y-104398052D01*
X132698000Y-104398000D01*
G36*
G01*
X146450000Y-71550000D02*
X146450000Y-70450000D01*
G75*
G02*
X146700000Y-70200000I250000J0D01*
G01*
X149700000Y-70200000D01*
G75*
G02*
X149950000Y-70450000I0J-250000D01*
G01*
X149950000Y-71550000D01*
G75*
G02*
X149700000Y-71800000I-250000J0D01*
G01*
X146700000Y-71800000D01*
G75*
G02*
X146450000Y-71550000I0J250000D01*
G01*
G37*
G36*
G01*
X141050000Y-71550000D02*
X141050000Y-70450000D01*
G75*
G02*
X141300000Y-70200000I250000J0D01*
G01*
X144300000Y-70200000D01*
G75*
G02*
X144550000Y-70450000I0J-250000D01*
G01*
X144550000Y-71550000D01*
G75*
G02*
X144300000Y-71800000I-250000J0D01*
G01*
X141300000Y-71800000D01*
G75*
G02*
X141050000Y-71550000I0J250000D01*
G01*
G37*
G36*
G01*
X139500000Y-115000000D02*
X137500000Y-115000000D01*
G75*
G02*
X137250000Y-114750000I0J250000D01*
G01*
X137250000Y-111250000D01*
G75*
G02*
X137500000Y-111000000I250000J0D01*
G01*
X139500000Y-111000000D01*
G75*
G02*
X139750000Y-111250000I0J-250000D01*
G01*
X139750000Y-114750000D01*
G75*
G02*
X139500000Y-115000000I-250000J0D01*
G01*
G37*
G36*
G01*
X139500000Y-123000000D02*
X137500000Y-123000000D01*
G75*
G02*
X137250000Y-122750000I0J250000D01*
G01*
X137250000Y-119250000D01*
G75*
G02*
X137500000Y-119000000I250000J0D01*
G01*
X139500000Y-119000000D01*
G75*
G02*
X139750000Y-119250000I0J-250000D01*
G01*
X139750000Y-122750000D01*
G75*
G02*
X139500000Y-123000000I-250000J0D01*
G01*
G37*
G36*
G01*
X150250000Y-117460000D02*
X149150000Y-117460000D01*
G75*
G02*
X148900000Y-117210000I0J250000D01*
G01*
X148900000Y-114210000D01*
G75*
G02*
X149150000Y-113960000I250000J0D01*
G01*
X150250000Y-113960000D01*
G75*
G02*
X150500000Y-114210000I0J-250000D01*
G01*
X150500000Y-117210000D01*
G75*
G02*
X150250000Y-117460000I-250000J0D01*
G01*
G37*
G36*
G01*
X150250000Y-122860000D02*
X149150000Y-122860000D01*
G75*
G02*
X148900000Y-122610000I0J250000D01*
G01*
X148900000Y-119610000D01*
G75*
G02*
X149150000Y-119360000I250000J0D01*
G01*
X150250000Y-119360000D01*
G75*
G02*
X150500000Y-119610000I0J-250000D01*
G01*
X150500000Y-122610000D01*
G75*
G02*
X150250000Y-122860000I-250000J0D01*
G01*
G37*
G36*
G01*
X144750003Y-107037500D02*
X142549997Y-107037500D01*
G75*
G02*
X142300000Y-106787503I0J249997D01*
G01*
X142300000Y-105962497D01*
G75*
G02*
X142549997Y-105712500I249997J0D01*
G01*
X144750003Y-105712500D01*
G75*
G02*
X145000000Y-105962497I0J-249997D01*
G01*
X145000000Y-106787503D01*
G75*
G02*
X144750003Y-107037500I-249997J0D01*
G01*
G37*
G36*
G01*
X144750003Y-110162500D02*
X142549997Y-110162500D01*
G75*
G02*
X142300000Y-109912503I0J249997D01*
G01*
X142300000Y-109087497D01*
G75*
G02*
X142549997Y-108837500I249997J0D01*
G01*
X144750003Y-108837500D01*
G75*
G02*
X145000000Y-109087497I0J-249997D01*
G01*
X145000000Y-109912503D01*
G75*
G02*
X144750003Y-110162500I-249997J0D01*
G01*
G37*
G36*
G01*
X141450003Y-107037500D02*
X139249997Y-107037500D01*
G75*
G02*
X139000000Y-106787503I0J249997D01*
G01*
X139000000Y-105962497D01*
G75*
G02*
X139249997Y-105712500I249997J0D01*
G01*
X141450003Y-105712500D01*
G75*
G02*
X141700000Y-105962497I0J-249997D01*
G01*
X141700000Y-106787503D01*
G75*
G02*
X141450003Y-107037500I-249997J0D01*
G01*
G37*
G36*
G01*
X141450003Y-110162500D02*
X139249997Y-110162500D01*
G75*
G02*
X139000000Y-109912503I0J249997D01*
G01*
X139000000Y-109087497D01*
G75*
G02*
X139249997Y-108837500I249997J0D01*
G01*
X141450003Y-108837500D01*
G75*
G02*
X141700000Y-109087497I0J-249997D01*
G01*
X141700000Y-109912503D01*
G75*
G02*
X141450003Y-110162500I-249997J0D01*
G01*
G37*
G36*
G01*
X138165003Y-107037500D02*
X135964997Y-107037500D01*
G75*
G02*
X135715000Y-106787503I0J249997D01*
G01*
X135715000Y-105962497D01*
G75*
G02*
X135964997Y-105712500I249997J0D01*
G01*
X138165003Y-105712500D01*
G75*
G02*
X138415000Y-105962497I0J-249997D01*
G01*
X138415000Y-106787503D01*
G75*
G02*
X138165003Y-107037500I-249997J0D01*
G01*
G37*
G36*
G01*
X138165003Y-110162500D02*
X135964997Y-110162500D01*
G75*
G02*
X135715000Y-109912503I0J249997D01*
G01*
X135715000Y-109087497D01*
G75*
G02*
X135964997Y-108837500I249997J0D01*
G01*
X138165003Y-108837500D01*
G75*
G02*
X138415000Y-109087497I0J-249997D01*
G01*
X138415000Y-109912503D01*
G75*
G02*
X138165003Y-110162500I-249997J0D01*
G01*
G37*
D11*
X133175000Y-104750000D03*
X133175000Y-107300000D03*
X133950000Y-105500000D03*
X132400000Y-105500000D03*
X133175000Y-105500000D03*
X133950000Y-106550000D03*
X132400000Y-106550000D03*
X133175000Y-106550000D03*
D12*
X133175000Y-106025000D03*
D13*
X134825000Y-104275000D03*
X134825000Y-104775000D03*
X134825000Y-105275000D03*
X134825000Y-107775000D03*
X134825000Y-107275000D03*
X134825000Y-106775000D03*
X134825000Y-106275000D03*
X134825000Y-105775000D03*
X131525000Y-104275000D03*
X131525000Y-104775000D03*
X131525000Y-105275000D03*
X131525000Y-107775000D03*
X131525000Y-107275000D03*
X131525000Y-106775000D03*
X131525000Y-106275000D03*
X131525000Y-105775000D03*
D14*
X133925000Y-108175000D03*
X132425000Y-108175000D03*
X133925000Y-103875000D03*
X132425000Y-103875000D03*
D15*
X86675000Y-111700000D03*
G36*
G01*
X85300000Y-110087500D02*
X85300000Y-109387500D01*
G75*
G02*
X85362500Y-109325000I62500J0D01*
G01*
X85487500Y-109325000D01*
G75*
G02*
X85550000Y-109387500I0J-62500D01*
G01*
X85550000Y-110087500D01*
G75*
G02*
X85487500Y-110150000I-62500J0D01*
G01*
X85362500Y-110150000D01*
G75*
G02*
X85300000Y-110087500I0J62500D01*
G01*
G37*
G36*
G01*
X85800000Y-110087500D02*
X85800000Y-109387500D01*
G75*
G02*
X85862500Y-109325000I62500J0D01*
G01*
X85987500Y-109325000D01*
G75*
G02*
X86050000Y-109387500I0J-62500D01*
G01*
X86050000Y-110087500D01*
G75*
G02*
X85987500Y-110150000I-62500J0D01*
G01*
X85862500Y-110150000D01*
G75*
G02*
X85800000Y-110087500I0J62500D01*
G01*
G37*
G36*
G01*
X86300000Y-110087500D02*
X86300000Y-109387500D01*
G75*
G02*
X86362500Y-109325000I62500J0D01*
G01*
X86487500Y-109325000D01*
G75*
G02*
X86550000Y-109387500I0J-62500D01*
G01*
X86550000Y-110087500D01*
G75*
G02*
X86487500Y-110150000I-62500J0D01*
G01*
X86362500Y-110150000D01*
G75*
G02*
X86300000Y-110087500I0J62500D01*
G01*
G37*
G36*
G01*
X86800000Y-110087500D02*
X86800000Y-109387500D01*
G75*
G02*
X86862500Y-109325000I62500J0D01*
G01*
X86987500Y-109325000D01*
G75*
G02*
X87050000Y-109387500I0J-62500D01*
G01*
X87050000Y-110087500D01*
G75*
G02*
X86987500Y-110150000I-62500J0D01*
G01*
X86862500Y-110150000D01*
G75*
G02*
X86800000Y-110087500I0J62500D01*
G01*
G37*
G36*
G01*
X87300000Y-110087500D02*
X87300000Y-109387500D01*
G75*
G02*
X87362500Y-109325000I62500J0D01*
G01*
X87487500Y-109325000D01*
G75*
G02*
X87550000Y-109387500I0J-62500D01*
G01*
X87550000Y-110087500D01*
G75*
G02*
X87487500Y-110150000I-62500J0D01*
G01*
X87362500Y-110150000D01*
G75*
G02*
X87300000Y-110087500I0J62500D01*
G01*
G37*
G36*
G01*
X87800000Y-110087500D02*
X87800000Y-109387500D01*
G75*
G02*
X87862500Y-109325000I62500J0D01*
G01*
X87987500Y-109325000D01*
G75*
G02*
X88050000Y-109387500I0J-62500D01*
G01*
X88050000Y-110087500D01*
G75*
G02*
X87987500Y-110150000I-62500J0D01*
G01*
X87862500Y-110150000D01*
G75*
G02*
X87800000Y-110087500I0J62500D01*
G01*
G37*
G36*
G01*
X88225000Y-110512500D02*
X88225000Y-110387500D01*
G75*
G02*
X88287500Y-110325000I62500J0D01*
G01*
X88987500Y-110325000D01*
G75*
G02*
X89050000Y-110387500I0J-62500D01*
G01*
X89050000Y-110512500D01*
G75*
G02*
X88987500Y-110575000I-62500J0D01*
G01*
X88287500Y-110575000D01*
G75*
G02*
X88225000Y-110512500I0J62500D01*
G01*
G37*
G36*
G01*
X88225000Y-111012500D02*
X88225000Y-110887500D01*
G75*
G02*
X88287500Y-110825000I62500J0D01*
G01*
X88987500Y-110825000D01*
G75*
G02*
X89050000Y-110887500I0J-62500D01*
G01*
X89050000Y-111012500D01*
G75*
G02*
X88987500Y-111075000I-62500J0D01*
G01*
X88287500Y-111075000D01*
G75*
G02*
X88225000Y-111012500I0J62500D01*
G01*
G37*
G36*
G01*
X88225000Y-111512500D02*
X88225000Y-111387500D01*
G75*
G02*
X88287500Y-111325000I62500J0D01*
G01*
X88987500Y-111325000D01*
G75*
G02*
X89050000Y-111387500I0J-62500D01*
G01*
X89050000Y-111512500D01*
G75*
G02*
X88987500Y-111575000I-62500J0D01*
G01*
X88287500Y-111575000D01*
G75*
G02*
X88225000Y-111512500I0J62500D01*
G01*
G37*
G36*
G01*
X88225000Y-112012500D02*
X88225000Y-111887500D01*
G75*
G02*
X88287500Y-111825000I62500J0D01*
G01*
X88987500Y-111825000D01*
G75*
G02*
X89050000Y-111887500I0J-62500D01*
G01*
X89050000Y-112012500D01*
G75*
G02*
X88987500Y-112075000I-62500J0D01*
G01*
X88287500Y-112075000D01*
G75*
G02*
X88225000Y-112012500I0J62500D01*
G01*
G37*
G36*
G01*
X88225000Y-112512500D02*
X88225000Y-112387500D01*
G75*
G02*
X88287500Y-112325000I62500J0D01*
G01*
X88987500Y-112325000D01*
G75*
G02*
X89050000Y-112387500I0J-62500D01*
G01*
X89050000Y-112512500D01*
G75*
G02*
X88987500Y-112575000I-62500J0D01*
G01*
X88287500Y-112575000D01*
G75*
G02*
X88225000Y-112512500I0J62500D01*
G01*
G37*
G36*
G01*
X88225000Y-113012500D02*
X88225000Y-112887500D01*
G75*
G02*
X88287500Y-112825000I62500J0D01*
G01*
X88987500Y-112825000D01*
G75*
G02*
X89050000Y-112887500I0J-62500D01*
G01*
X89050000Y-113012500D01*
G75*
G02*
X88987500Y-113075000I-62500J0D01*
G01*
X88287500Y-113075000D01*
G75*
G02*
X88225000Y-113012500I0J62500D01*
G01*
G37*
G36*
G01*
X87800000Y-114012500D02*
X87800000Y-113312500D01*
G75*
G02*
X87862500Y-113250000I62500J0D01*
G01*
X87987500Y-113250000D01*
G75*
G02*
X88050000Y-113312500I0J-62500D01*
G01*
X88050000Y-114012500D01*
G75*
G02*
X87987500Y-114075000I-62500J0D01*
G01*
X87862500Y-114075000D01*
G75*
G02*
X87800000Y-114012500I0J62500D01*
G01*
G37*
G36*
G01*
X87300000Y-114012500D02*
X87300000Y-113312500D01*
G75*
G02*
X87362500Y-113250000I62500J0D01*
G01*
X87487500Y-113250000D01*
G75*
G02*
X87550000Y-113312500I0J-62500D01*
G01*
X87550000Y-114012500D01*
G75*
G02*
X87487500Y-114075000I-62500J0D01*
G01*
X87362500Y-114075000D01*
G75*
G02*
X87300000Y-114012500I0J62500D01*
G01*
G37*
G36*
G01*
X86800000Y-114012500D02*
X86800000Y-113312500D01*
G75*
G02*
X86862500Y-113250000I62500J0D01*
G01*
X86987500Y-113250000D01*
G75*
G02*
X87050000Y-113312500I0J-62500D01*
G01*
X87050000Y-114012500D01*
G75*
G02*
X86987500Y-114075000I-62500J0D01*
G01*
X86862500Y-114075000D01*
G75*
G02*
X86800000Y-114012500I0J62500D01*
G01*
G37*
G36*
G01*
X86300000Y-114012500D02*
X86300000Y-113312500D01*
G75*
G02*
X86362500Y-113250000I62500J0D01*
G01*
X86487500Y-113250000D01*
G75*
G02*
X86550000Y-113312500I0J-62500D01*
G01*
X86550000Y-114012500D01*
G75*
G02*
X86487500Y-114075000I-62500J0D01*
G01*
X86362500Y-114075000D01*
G75*
G02*
X86300000Y-114012500I0J62500D01*
G01*
G37*
G36*
G01*
X85800000Y-114012500D02*
X85800000Y-113312500D01*
G75*
G02*
X85862500Y-113250000I62500J0D01*
G01*
X85987500Y-113250000D01*
G75*
G02*
X86050000Y-113312500I0J-62500D01*
G01*
X86050000Y-114012500D01*
G75*
G02*
X85987500Y-114075000I-62500J0D01*
G01*
X85862500Y-114075000D01*
G75*
G02*
X85800000Y-114012500I0J62500D01*
G01*
G37*
G36*
G01*
X85300000Y-114012500D02*
X85300000Y-113312500D01*
G75*
G02*
X85362500Y-113250000I62500J0D01*
G01*
X85487500Y-113250000D01*
G75*
G02*
X85550000Y-113312500I0J-62500D01*
G01*
X85550000Y-114012500D01*
G75*
G02*
X85487500Y-114075000I-62500J0D01*
G01*
X85362500Y-114075000D01*
G75*
G02*
X85300000Y-114012500I0J62500D01*
G01*
G37*
G36*
G01*
X84300000Y-113012500D02*
X84300000Y-112887500D01*
G75*
G02*
X84362500Y-112825000I62500J0D01*
G01*
X85062500Y-112825000D01*
G75*
G02*
X85125000Y-112887500I0J-62500D01*
G01*
X85125000Y-113012500D01*
G75*
G02*
X85062500Y-113075000I-62500J0D01*
G01*
X84362500Y-113075000D01*
G75*
G02*
X84300000Y-113012500I0J62500D01*
G01*
G37*
G36*
G01*
X84300000Y-112512500D02*
X84300000Y-112387500D01*
G75*
G02*
X84362500Y-112325000I62500J0D01*
G01*
X85062500Y-112325000D01*
G75*
G02*
X85125000Y-112387500I0J-62500D01*
G01*
X85125000Y-112512500D01*
G75*
G02*
X85062500Y-112575000I-62500J0D01*
G01*
X84362500Y-112575000D01*
G75*
G02*
X84300000Y-112512500I0J62500D01*
G01*
G37*
G36*
G01*
X84300000Y-112012500D02*
X84300000Y-111887500D01*
G75*
G02*
X84362500Y-111825000I62500J0D01*
G01*
X85062500Y-111825000D01*
G75*
G02*
X85125000Y-111887500I0J-62500D01*
G01*
X85125000Y-112012500D01*
G75*
G02*
X85062500Y-112075000I-62500J0D01*
G01*
X84362500Y-112075000D01*
G75*
G02*
X84300000Y-112012500I0J62500D01*
G01*
G37*
G36*
G01*
X84300000Y-111512500D02*
X84300000Y-111387500D01*
G75*
G02*
X84362500Y-111325000I62500J0D01*
G01*
X85062500Y-111325000D01*
G75*
G02*
X85125000Y-111387500I0J-62500D01*
G01*
X85125000Y-111512500D01*
G75*
G02*
X85062500Y-111575000I-62500J0D01*
G01*
X84362500Y-111575000D01*
G75*
G02*
X84300000Y-111512500I0J62500D01*
G01*
G37*
G36*
G01*
X84300000Y-111012500D02*
X84300000Y-110887500D01*
G75*
G02*
X84362500Y-110825000I62500J0D01*
G01*
X85062500Y-110825000D01*
G75*
G02*
X85125000Y-110887500I0J-62500D01*
G01*
X85125000Y-111012500D01*
G75*
G02*
X85062500Y-111075000I-62500J0D01*
G01*
X84362500Y-111075000D01*
G75*
G02*
X84300000Y-111012500I0J62500D01*
G01*
G37*
G36*
G01*
X84300000Y-110512500D02*
X84300000Y-110387500D01*
G75*
G02*
X84362500Y-110325000I62500J0D01*
G01*
X85062500Y-110325000D01*
G75*
G02*
X85125000Y-110387500I0J-62500D01*
G01*
X85125000Y-110512500D01*
G75*
G02*
X85062500Y-110575000I-62500J0D01*
G01*
X84362500Y-110575000D01*
G75*
G02*
X84300000Y-110512500I0J62500D01*
G01*
G37*
D16*
X115325000Y-121080000D03*
X122125000Y-121080000D03*
D17*
X118275000Y-111325000D03*
X118275000Y-119325000D03*
X122775000Y-111325000D03*
X122775000Y-119325000D03*
G36*
G01*
X107500001Y-105650000D02*
X106599999Y-105650000D01*
G75*
G02*
X106350000Y-105400001I0J249999D01*
G01*
X106350000Y-104699999D01*
G75*
G02*
X106599999Y-104450000I249999J0D01*
G01*
X107500001Y-104450000D01*
G75*
G02*
X107750000Y-104699999I0J-249999D01*
G01*
X107750000Y-105400001D01*
G75*
G02*
X107500001Y-105650000I-249999J0D01*
G01*
G37*
G36*
G01*
X107500001Y-107650000D02*
X106599999Y-107650000D01*
G75*
G02*
X106350000Y-107400001I0J249999D01*
G01*
X106350000Y-106699999D01*
G75*
G02*
X106599999Y-106450000I249999J0D01*
G01*
X107500001Y-106450000D01*
G75*
G02*
X107750000Y-106699999I0J-249999D01*
G01*
X107750000Y-107400001D01*
G75*
G02*
X107500001Y-107650000I-249999J0D01*
G01*
G37*
G36*
G01*
X108599999Y-106450000D02*
X109500001Y-106450000D01*
G75*
G02*
X109750000Y-106699999I0J-249999D01*
G01*
X109750000Y-107400001D01*
G75*
G02*
X109500001Y-107650000I-249999J0D01*
G01*
X108599999Y-107650000D01*
G75*
G02*
X108350000Y-107400001I0J249999D01*
G01*
X108350000Y-106699999D01*
G75*
G02*
X108599999Y-106450000I249999J0D01*
G01*
G37*
G36*
G01*
X108599999Y-104450000D02*
X109500001Y-104450000D01*
G75*
G02*
X109750000Y-104699999I0J-249999D01*
G01*
X109750000Y-105400001D01*
G75*
G02*
X109500001Y-105650000I-249999J0D01*
G01*
X108599999Y-105650000D01*
G75*
G02*
X108350000Y-105400001I0J249999D01*
G01*
X108350000Y-104699999D01*
G75*
G02*
X108599999Y-104450000I249999J0D01*
G01*
G37*
G36*
G01*
X110599999Y-106450000D02*
X111500001Y-106450000D01*
G75*
G02*
X111750000Y-106699999I0J-249999D01*
G01*
X111750000Y-107400001D01*
G75*
G02*
X111500001Y-107650000I-249999J0D01*
G01*
X110599999Y-107650000D01*
G75*
G02*
X110350000Y-107400001I0J249999D01*
G01*
X110350000Y-106699999D01*
G75*
G02*
X110599999Y-106450000I249999J0D01*
G01*
G37*
G36*
G01*
X110599999Y-104450000D02*
X111500001Y-104450000D01*
G75*
G02*
X111750000Y-104699999I0J-249999D01*
G01*
X111750000Y-105400001D01*
G75*
G02*
X111500001Y-105650000I-249999J0D01*
G01*
X110599999Y-105650000D01*
G75*
G02*
X110350000Y-105400001I0J249999D01*
G01*
X110350000Y-104699999D01*
G75*
G02*
X110599999Y-104450000I249999J0D01*
G01*
G37*
G36*
G01*
X112250000Y-109400001D02*
X112250000Y-108499999D01*
G75*
G02*
X112499999Y-108250000I249999J0D01*
G01*
X113200001Y-108250000D01*
G75*
G02*
X113450000Y-108499999I0J-249999D01*
G01*
X113450000Y-109400001D01*
G75*
G02*
X113200001Y-109650000I-249999J0D01*
G01*
X112499999Y-109650000D01*
G75*
G02*
X112250000Y-109400001I0J249999D01*
G01*
G37*
G36*
G01*
X110250000Y-109400001D02*
X110250000Y-108499999D01*
G75*
G02*
X110499999Y-108250000I249999J0D01*
G01*
X111200001Y-108250000D01*
G75*
G02*
X111450000Y-108499999I0J-249999D01*
G01*
X111450000Y-109400001D01*
G75*
G02*
X111200001Y-109650000I-249999J0D01*
G01*
X110499999Y-109650000D01*
G75*
G02*
X110250000Y-109400001I0J249999D01*
G01*
G37*
G36*
G01*
X107650000Y-108499999D02*
X107650000Y-109400001D01*
G75*
G02*
X107400001Y-109650000I-249999J0D01*
G01*
X106699999Y-109650000D01*
G75*
G02*
X106450000Y-109400001I0J249999D01*
G01*
X106450000Y-108499999D01*
G75*
G02*
X106699999Y-108250000I249999J0D01*
G01*
X107400001Y-108250000D01*
G75*
G02*
X107650000Y-108499999I0J-249999D01*
G01*
G37*
G36*
G01*
X109650000Y-108499999D02*
X109650000Y-109400001D01*
G75*
G02*
X109400001Y-109650000I-249999J0D01*
G01*
X108699999Y-109650000D01*
G75*
G02*
X108450000Y-109400001I0J249999D01*
G01*
X108450000Y-108499999D01*
G75*
G02*
X108699999Y-108250000I249999J0D01*
G01*
X109400001Y-108250000D01*
G75*
G02*
X109650000Y-108499999I0J-249999D01*
G01*
G37*
G36*
G01*
X140224999Y-103200000D02*
X141125001Y-103200000D01*
G75*
G02*
X141375000Y-103449999I0J-249999D01*
G01*
X141375000Y-104150001D01*
G75*
G02*
X141125001Y-104400000I-249999J0D01*
G01*
X140224999Y-104400000D01*
G75*
G02*
X139975000Y-104150001I0J249999D01*
G01*
X139975000Y-103449999D01*
G75*
G02*
X140224999Y-103200000I249999J0D01*
G01*
G37*
G36*
G01*
X140224999Y-101200000D02*
X141125001Y-101200000D01*
G75*
G02*
X141375000Y-101449999I0J-249999D01*
G01*
X141375000Y-102150001D01*
G75*
G02*
X141125001Y-102400000I-249999J0D01*
G01*
X140224999Y-102400000D01*
G75*
G02*
X139975000Y-102150001I0J249999D01*
G01*
X139975000Y-101449999D01*
G75*
G02*
X140224999Y-101200000I249999J0D01*
G01*
G37*
G36*
G01*
X136224999Y-103200000D02*
X137125001Y-103200000D01*
G75*
G02*
X137375000Y-103449999I0J-249999D01*
G01*
X137375000Y-104150001D01*
G75*
G02*
X137125001Y-104400000I-249999J0D01*
G01*
X136224999Y-104400000D01*
G75*
G02*
X135975000Y-104150001I0J249999D01*
G01*
X135975000Y-103449999D01*
G75*
G02*
X136224999Y-103200000I249999J0D01*
G01*
G37*
G36*
G01*
X136224999Y-101200000D02*
X137125001Y-101200000D01*
G75*
G02*
X137375000Y-101449999I0J-249999D01*
G01*
X137375000Y-102150001D01*
G75*
G02*
X137125001Y-102400000I-249999J0D01*
G01*
X136224999Y-102400000D01*
G75*
G02*
X135975000Y-102150001I0J249999D01*
G01*
X135975000Y-101449999D01*
G75*
G02*
X136224999Y-101200000I249999J0D01*
G01*
G37*
G36*
G01*
X145125000Y-103249999D02*
X145125000Y-104150001D01*
G75*
G02*
X144875001Y-104400000I-249999J0D01*
G01*
X144174999Y-104400000D01*
G75*
G02*
X143925000Y-104150001I0J249999D01*
G01*
X143925000Y-103249999D01*
G75*
G02*
X144174999Y-103000000I249999J0D01*
G01*
X144875001Y-103000000D01*
G75*
G02*
X145125000Y-103249999I0J-249999D01*
G01*
G37*
G36*
G01*
X147125000Y-103249999D02*
X147125000Y-104150001D01*
G75*
G02*
X146875001Y-104400000I-249999J0D01*
G01*
X146174999Y-104400000D01*
G75*
G02*
X145925000Y-104150001I0J249999D01*
G01*
X145925000Y-103249999D01*
G75*
G02*
X146174999Y-103000000I249999J0D01*
G01*
X146875001Y-103000000D01*
G75*
G02*
X147125000Y-103249999I0J-249999D01*
G01*
G37*
G36*
G01*
X143100001Y-102400000D02*
X142199999Y-102400000D01*
G75*
G02*
X141950000Y-102150001I0J249999D01*
G01*
X141950000Y-101449999D01*
G75*
G02*
X142199999Y-101200000I249999J0D01*
G01*
X143100001Y-101200000D01*
G75*
G02*
X143350000Y-101449999I0J-249999D01*
G01*
X143350000Y-102150001D01*
G75*
G02*
X143100001Y-102400000I-249999J0D01*
G01*
G37*
G36*
G01*
X143100001Y-104400000D02*
X142199999Y-104400000D01*
G75*
G02*
X141950000Y-104150001I0J249999D01*
G01*
X141950000Y-103449999D01*
G75*
G02*
X142199999Y-103200000I249999J0D01*
G01*
X143100001Y-103200000D01*
G75*
G02*
X143350000Y-103449999I0J-249999D01*
G01*
X143350000Y-104150001D01*
G75*
G02*
X143100001Y-104400000I-249999J0D01*
G01*
G37*
G36*
G01*
X128550001Y-101425000D02*
X127649999Y-101425000D01*
G75*
G02*
X127400000Y-101175001I0J249999D01*
G01*
X127400000Y-100474999D01*
G75*
G02*
X127649999Y-100225000I249999J0D01*
G01*
X128550001Y-100225000D01*
G75*
G02*
X128800000Y-100474999I0J-249999D01*
G01*
X128800000Y-101175001D01*
G75*
G02*
X128550001Y-101425000I-249999J0D01*
G01*
G37*
G36*
G01*
X128550001Y-103425000D02*
X127649999Y-103425000D01*
G75*
G02*
X127400000Y-103175001I0J249999D01*
G01*
X127400000Y-102474999D01*
G75*
G02*
X127649999Y-102225000I249999J0D01*
G01*
X128550001Y-102225000D01*
G75*
G02*
X128800000Y-102474999I0J-249999D01*
G01*
X128800000Y-103175001D01*
G75*
G02*
X128550001Y-103425000I-249999J0D01*
G01*
G37*
G36*
G01*
X86200000Y-121349999D02*
X86200000Y-122250001D01*
G75*
G02*
X85950001Y-122500000I-249999J0D01*
G01*
X85249999Y-122500000D01*
G75*
G02*
X85000000Y-122250001I0J249999D01*
G01*
X85000000Y-121349999D01*
G75*
G02*
X85249999Y-121100000I249999J0D01*
G01*
X85950001Y-121100000D01*
G75*
G02*
X86200000Y-121349999I0J-249999D01*
G01*
G37*
G36*
G01*
X88200000Y-121349999D02*
X88200000Y-122250001D01*
G75*
G02*
X87950001Y-122500000I-249999J0D01*
G01*
X87249999Y-122500000D01*
G75*
G02*
X87000000Y-122250001I0J249999D01*
G01*
X87000000Y-121349999D01*
G75*
G02*
X87249999Y-121100000I249999J0D01*
G01*
X87950001Y-121100000D01*
G75*
G02*
X88200000Y-121349999I0J-249999D01*
G01*
G37*
G36*
G01*
X86200000Y-119349999D02*
X86200000Y-120250001D01*
G75*
G02*
X85950001Y-120500000I-249999J0D01*
G01*
X85249999Y-120500000D01*
G75*
G02*
X85000000Y-120250001I0J249999D01*
G01*
X85000000Y-119349999D01*
G75*
G02*
X85249999Y-119100000I249999J0D01*
G01*
X85950001Y-119100000D01*
G75*
G02*
X86200000Y-119349999I0J-249999D01*
G01*
G37*
G36*
G01*
X88200000Y-119349999D02*
X88200000Y-120250001D01*
G75*
G02*
X87950001Y-120500000I-249999J0D01*
G01*
X87249999Y-120500000D01*
G75*
G02*
X87000000Y-120250001I0J249999D01*
G01*
X87000000Y-119349999D01*
G75*
G02*
X87249999Y-119100000I249999J0D01*
G01*
X87950001Y-119100000D01*
G75*
G02*
X88200000Y-119349999I0J-249999D01*
G01*
G37*
G36*
G01*
X93800001Y-119750000D02*
X92899999Y-119750000D01*
G75*
G02*
X92650000Y-119500001I0J249999D01*
G01*
X92650000Y-118799999D01*
G75*
G02*
X92899999Y-118550000I249999J0D01*
G01*
X93800001Y-118550000D01*
G75*
G02*
X94050000Y-118799999I0J-249999D01*
G01*
X94050000Y-119500001D01*
G75*
G02*
X93800001Y-119750000I-249999J0D01*
G01*
G37*
G36*
G01*
X93800001Y-121750000D02*
X92899999Y-121750000D01*
G75*
G02*
X92650000Y-121500001I0J249999D01*
G01*
X92650000Y-120799999D01*
G75*
G02*
X92899999Y-120550000I249999J0D01*
G01*
X93800001Y-120550000D01*
G75*
G02*
X94050000Y-120799999I0J-249999D01*
G01*
X94050000Y-121500001D01*
G75*
G02*
X93800001Y-121750000I-249999J0D01*
G01*
G37*
G36*
G01*
X93800001Y-115950000D02*
X92899999Y-115950000D01*
G75*
G02*
X92650000Y-115700001I0J249999D01*
G01*
X92650000Y-114999999D01*
G75*
G02*
X92899999Y-114750000I249999J0D01*
G01*
X93800001Y-114750000D01*
G75*
G02*
X94050000Y-114999999I0J-249999D01*
G01*
X94050000Y-115700001D01*
G75*
G02*
X93800001Y-115950000I-249999J0D01*
G01*
G37*
G36*
G01*
X93800001Y-117950000D02*
X92899999Y-117950000D01*
G75*
G02*
X92650000Y-117700001I0J249999D01*
G01*
X92650000Y-116999999D01*
G75*
G02*
X92899999Y-116750000I249999J0D01*
G01*
X93800001Y-116750000D01*
G75*
G02*
X94050000Y-116999999I0J-249999D01*
G01*
X94050000Y-117700001D01*
G75*
G02*
X93800001Y-117950000I-249999J0D01*
G01*
G37*
G36*
G01*
X91250001Y-120500000D02*
X90349999Y-120500000D01*
G75*
G02*
X90100000Y-120250001I0J249999D01*
G01*
X90100000Y-119549999D01*
G75*
G02*
X90349999Y-119300000I249999J0D01*
G01*
X91250001Y-119300000D01*
G75*
G02*
X91500000Y-119549999I0J-249999D01*
G01*
X91500000Y-120250001D01*
G75*
G02*
X91250001Y-120500000I-249999J0D01*
G01*
G37*
G36*
G01*
X91250001Y-122500000D02*
X90349999Y-122500000D01*
G75*
G02*
X90100000Y-122250001I0J249999D01*
G01*
X90100000Y-121549999D01*
G75*
G02*
X90349999Y-121300000I249999J0D01*
G01*
X91250001Y-121300000D01*
G75*
G02*
X91500000Y-121549999I0J-249999D01*
G01*
X91500000Y-122250001D01*
G75*
G02*
X91250001Y-122500000I-249999J0D01*
G01*
G37*
G36*
G01*
X86049999Y-117200000D02*
X86950001Y-117200000D01*
G75*
G02*
X87200000Y-117449999I0J-249999D01*
G01*
X87200000Y-118150001D01*
G75*
G02*
X86950001Y-118400000I-249999J0D01*
G01*
X86049999Y-118400000D01*
G75*
G02*
X85800000Y-118150001I0J249999D01*
G01*
X85800000Y-117449999D01*
G75*
G02*
X86049999Y-117200000I249999J0D01*
G01*
G37*
G36*
G01*
X86049999Y-115200000D02*
X86950001Y-115200000D01*
G75*
G02*
X87200000Y-115449999I0J-249999D01*
G01*
X87200000Y-116150001D01*
G75*
G02*
X86950001Y-116400000I-249999J0D01*
G01*
X86049999Y-116400000D01*
G75*
G02*
X85800000Y-116150001I0J249999D01*
G01*
X85800000Y-115449999D01*
G75*
G02*
X86049999Y-115200000I249999J0D01*
G01*
G37*
G36*
G01*
X80100000Y-113850001D02*
X80100000Y-112949999D01*
G75*
G02*
X80349999Y-112700000I249999J0D01*
G01*
X81050001Y-112700000D01*
G75*
G02*
X81300000Y-112949999I0J-249999D01*
G01*
X81300000Y-113850001D01*
G75*
G02*
X81050001Y-114100000I-249999J0D01*
G01*
X80349999Y-114100000D01*
G75*
G02*
X80100000Y-113850001I0J249999D01*
G01*
G37*
G36*
G01*
X78100000Y-113850001D02*
X78100000Y-112949999D01*
G75*
G02*
X78349999Y-112700000I249999J0D01*
G01*
X79050001Y-112700000D01*
G75*
G02*
X79300000Y-112949999I0J-249999D01*
G01*
X79300000Y-113850001D01*
G75*
G02*
X79050001Y-114100000I-249999J0D01*
G01*
X78349999Y-114100000D01*
G75*
G02*
X78100000Y-113850001I0J249999D01*
G01*
G37*
G36*
G01*
X80100000Y-111850001D02*
X80100000Y-110949999D01*
G75*
G02*
X80349999Y-110700000I249999J0D01*
G01*
X81050001Y-110700000D01*
G75*
G02*
X81300000Y-110949999I0J-249999D01*
G01*
X81300000Y-111850001D01*
G75*
G02*
X81050001Y-112100000I-249999J0D01*
G01*
X80349999Y-112100000D01*
G75*
G02*
X80100000Y-111850001I0J249999D01*
G01*
G37*
G36*
G01*
X78100000Y-111850001D02*
X78100000Y-110949999D01*
G75*
G02*
X78349999Y-110700000I249999J0D01*
G01*
X79050001Y-110700000D01*
G75*
G02*
X79300000Y-110949999I0J-249999D01*
G01*
X79300000Y-111850001D01*
G75*
G02*
X79050001Y-112100000I-249999J0D01*
G01*
X78349999Y-112100000D01*
G75*
G02*
X78100000Y-111850001I0J249999D01*
G01*
G37*
G36*
G01*
X73300000Y-108549999D02*
X73300000Y-109450001D01*
G75*
G02*
X73050001Y-109700000I-249999J0D01*
G01*
X72349999Y-109700000D01*
G75*
G02*
X72100000Y-109450001I0J249999D01*
G01*
X72100000Y-108549999D01*
G75*
G02*
X72349999Y-108300000I249999J0D01*
G01*
X73050001Y-108300000D01*
G75*
G02*
X73300000Y-108549999I0J-249999D01*
G01*
G37*
G36*
G01*
X75300000Y-108549999D02*
X75300000Y-109450001D01*
G75*
G02*
X75050001Y-109700000I-249999J0D01*
G01*
X74349999Y-109700000D01*
G75*
G02*
X74100000Y-109450001I0J249999D01*
G01*
X74100000Y-108549999D01*
G75*
G02*
X74349999Y-108300000I249999J0D01*
G01*
X75050001Y-108300000D01*
G75*
G02*
X75300000Y-108549999I0J-249999D01*
G01*
G37*
D18*
X115125000Y-101775000D03*
X123425000Y-101775000D03*
X99300000Y-105900000D03*
X91000000Y-105900000D03*
D19*
X107797020Y-72181220D03*
X107797020Y-69641220D03*
X110337020Y-72181220D03*
X110337020Y-69641220D03*
X102717020Y-69641220D03*
X102717020Y-72181220D03*
D20*
X74777020Y-72181220D03*
D19*
X74777020Y-69641220D03*
X77317020Y-72181220D03*
X77317020Y-69641220D03*
X79857020Y-72181220D03*
X79857020Y-69641220D03*
X82397020Y-72181220D03*
X82397020Y-69641220D03*
X84937020Y-72181220D03*
X84937020Y-69641220D03*
X87477020Y-72181220D03*
X87477020Y-69641220D03*
X90017020Y-72181220D03*
X90017020Y-69641220D03*
X92557020Y-72181220D03*
X92557020Y-69641220D03*
X95097020Y-72181220D03*
X95097020Y-69641220D03*
X97637020Y-72181220D03*
X97637020Y-69641220D03*
X100177020Y-72181220D03*
X100177020Y-69641220D03*
X105257020Y-72181220D03*
X105257020Y-69641220D03*
X112877020Y-69641220D03*
X112877020Y-72181220D03*
X115417020Y-69641220D03*
X115417020Y-72181220D03*
X117957020Y-69641220D03*
X117957020Y-72181220D03*
X120497020Y-69641220D03*
X120497020Y-72181220D03*
X123037020Y-69641220D03*
X123037020Y-72181220D03*
D21*
X69907020Y-70911220D03*
X127907020Y-70911220D03*
X69907020Y-119911220D03*
X127907020Y-119911220D03*
D22*
X110500000Y-116900000D03*
D23*
X105500000Y-116900000D03*
D24*
X111759560Y-111513660D03*
X109259560Y-111513660D03*
X107259560Y-111513660D03*
D25*
X104759560Y-111513660D03*
D26*
X101689560Y-114223660D03*
X114829560Y-114223660D03*
D27*
X73050400Y-104528620D03*
D28*
X73050400Y-99528620D03*
D29*
X70091180Y-110263180D03*
X70091180Y-114903180D03*
D30*
X67861180Y-116158180D03*
X67861180Y-109008180D03*
D31*
X67861180Y-111458180D03*
D32*
X70511180Y-112583180D03*
X70511180Y-113233180D03*
X70511180Y-113883180D03*
X70511180Y-111283180D03*
X70511180Y-111933180D03*
D31*
X67861180Y-113708180D03*
D33*
X81489880Y-116539400D03*
X80689880Y-116539400D03*
X81489880Y-116539400D03*
X80689880Y-116539400D03*
X75089880Y-116539400D03*
X75089880Y-116539400D03*
X75889880Y-116539400D03*
X75889880Y-116539400D03*
D34*
X75399880Y-117599400D03*
X81179880Y-117599400D03*
D35*
X80039880Y-116539400D03*
X79039880Y-116539400D03*
X79539880Y-116539400D03*
X77039880Y-116539400D03*
X76539880Y-116539400D03*
X78539880Y-116539400D03*
X78039880Y-116539400D03*
X77539880Y-116539400D03*
D36*
X82609880Y-121289400D03*
X73969880Y-121289400D03*
D37*
X82609880Y-117119400D03*
X73969880Y-117119400D03*
G36*
G01*
X102609999Y-108355000D02*
X105510001Y-108355000D01*
G75*
G02*
X105760000Y-108604999I0J-249999D01*
G01*
X105760000Y-109405001D01*
G75*
G02*
X105510001Y-109655000I-249999J0D01*
G01*
X102609999Y-109655000D01*
G75*
G02*
X102360000Y-109405001I0J249999D01*
G01*
X102360000Y-108604999D01*
G75*
G02*
X102609999Y-108355000I249999J0D01*
G01*
G37*
G36*
G01*
X102609999Y-103905000D02*
X105510001Y-103905000D01*
G75*
G02*
X105760000Y-104154999I0J-249999D01*
G01*
X105760000Y-104955001D01*
G75*
G02*
X105510001Y-105205000I-249999J0D01*
G01*
X102609999Y-105205000D01*
G75*
G02*
X102360000Y-104955001I0J249999D01*
G01*
X102360000Y-104154999D01*
G75*
G02*
X102609999Y-103905000I249999J0D01*
G01*
G37*
G36*
G01*
X93325000Y-96849999D02*
X93325000Y-99750001D01*
G75*
G02*
X93075001Y-100000000I-249999J0D01*
G01*
X92274999Y-100000000D01*
G75*
G02*
X92025000Y-99750001I0J249999D01*
G01*
X92025000Y-96849999D01*
G75*
G02*
X92274999Y-96600000I249999J0D01*
G01*
X93075001Y-96600000D01*
G75*
G02*
X93325000Y-96849999I0J-249999D01*
G01*
G37*
G36*
G01*
X97775000Y-96849999D02*
X97775000Y-99750001D01*
G75*
G02*
X97525001Y-100000000I-249999J0D01*
G01*
X96724999Y-100000000D01*
G75*
G02*
X96475000Y-99750001I0J249999D01*
G01*
X96475000Y-96849999D01*
G75*
G02*
X96724999Y-96600000I249999J0D01*
G01*
X97525001Y-96600000D01*
G75*
G02*
X97775000Y-96849999I0J-249999D01*
G01*
G37*
G36*
G01*
X89687500Y-116256250D02*
X89687500Y-115343750D01*
G75*
G02*
X89931250Y-115100000I243750J0D01*
G01*
X90418750Y-115100000D01*
G75*
G02*
X90662500Y-115343750I0J-243750D01*
G01*
X90662500Y-116256250D01*
G75*
G02*
X90418750Y-116500000I-243750J0D01*
G01*
X89931250Y-116500000D01*
G75*
G02*
X89687500Y-116256250I0J243750D01*
G01*
G37*
G36*
G01*
X87812500Y-116256250D02*
X87812500Y-115343750D01*
G75*
G02*
X88056250Y-115100000I243750J0D01*
G01*
X88543750Y-115100000D01*
G75*
G02*
X88787500Y-115343750I0J-243750D01*
G01*
X88787500Y-116256250D01*
G75*
G02*
X88543750Y-116500000I-243750J0D01*
G01*
X88056250Y-116500000D01*
G75*
G02*
X87812500Y-116256250I0J243750D01*
G01*
G37*
G36*
G01*
X89687500Y-118256250D02*
X89687500Y-117343750D01*
G75*
G02*
X89931250Y-117100000I243750J0D01*
G01*
X90418750Y-117100000D01*
G75*
G02*
X90662500Y-117343750I0J-243750D01*
G01*
X90662500Y-118256250D01*
G75*
G02*
X90418750Y-118500000I-243750J0D01*
G01*
X89931250Y-118500000D01*
G75*
G02*
X89687500Y-118256250I0J243750D01*
G01*
G37*
G36*
G01*
X87812500Y-118256250D02*
X87812500Y-117343750D01*
G75*
G02*
X88056250Y-117100000I243750J0D01*
G01*
X88543750Y-117100000D01*
G75*
G02*
X88787500Y-117343750I0J-243750D01*
G01*
X88787500Y-118256250D01*
G75*
G02*
X88543750Y-118500000I-243750J0D01*
G01*
X88056250Y-118500000D01*
G75*
G02*
X87812500Y-118256250I0J243750D01*
G01*
G37*
G36*
G01*
X142062500Y-100375000D02*
X142062500Y-99425000D01*
G75*
G02*
X142312500Y-99175000I250000J0D01*
G01*
X142987500Y-99175000D01*
G75*
G02*
X143237500Y-99425000I0J-250000D01*
G01*
X143237500Y-100375000D01*
G75*
G02*
X142987500Y-100625000I-250000J0D01*
G01*
X142312500Y-100625000D01*
G75*
G02*
X142062500Y-100375000I0J250000D01*
G01*
G37*
G36*
G01*
X139987500Y-100375000D02*
X139987500Y-99425000D01*
G75*
G02*
X140237500Y-99175000I250000J0D01*
G01*
X140912500Y-99175000D01*
G75*
G02*
X141162500Y-99425000I0J-250000D01*
G01*
X141162500Y-100375000D01*
G75*
G02*
X140912500Y-100625000I-250000J0D01*
G01*
X140237500Y-100625000D01*
G75*
G02*
X139987500Y-100375000I0J250000D01*
G01*
G37*
G36*
G01*
X139150000Y-102312500D02*
X138200000Y-102312500D01*
G75*
G02*
X137950000Y-102062500I0J250000D01*
G01*
X137950000Y-101387500D01*
G75*
G02*
X138200000Y-101137500I250000J0D01*
G01*
X139150000Y-101137500D01*
G75*
G02*
X139400000Y-101387500I0J-250000D01*
G01*
X139400000Y-102062500D01*
G75*
G02*
X139150000Y-102312500I-250000J0D01*
G01*
G37*
G36*
G01*
X139150000Y-104387500D02*
X138200000Y-104387500D01*
G75*
G02*
X137950000Y-104137500I0J250000D01*
G01*
X137950000Y-103462500D01*
G75*
G02*
X138200000Y-103212500I250000J0D01*
G01*
X139150000Y-103212500D01*
G75*
G02*
X139400000Y-103462500I0J-250000D01*
G01*
X139400000Y-104137500D01*
G75*
G02*
X139150000Y-104387500I-250000J0D01*
G01*
G37*
G36*
G01*
X134062500Y-102150003D02*
X134062500Y-100849997D01*
G75*
G02*
X134312497Y-100600000I249997J0D01*
G01*
X135137503Y-100600000D01*
G75*
G02*
X135387500Y-100849997I0J-249997D01*
G01*
X135387500Y-102150003D01*
G75*
G02*
X135137503Y-102400000I-249997J0D01*
G01*
X134312497Y-102400000D01*
G75*
G02*
X134062500Y-102150003I0J249997D01*
G01*
G37*
G36*
G01*
X130937500Y-102150003D02*
X130937500Y-100849997D01*
G75*
G02*
X131187497Y-100600000I249997J0D01*
G01*
X132012503Y-100600000D01*
G75*
G02*
X132262500Y-100849997I0J-249997D01*
G01*
X132262500Y-102150003D01*
G75*
G02*
X132012503Y-102400000I-249997J0D01*
G01*
X131187497Y-102400000D01*
G75*
G02*
X130937500Y-102150003I0J249997D01*
G01*
G37*
G36*
G01*
X133722500Y-110255000D02*
X133722500Y-109305000D01*
G75*
G02*
X133972500Y-109055000I250000J0D01*
G01*
X134647500Y-109055000D01*
G75*
G02*
X134897500Y-109305000I0J-250000D01*
G01*
X134897500Y-110255000D01*
G75*
G02*
X134647500Y-110505000I-250000J0D01*
G01*
X133972500Y-110505000D01*
G75*
G02*
X133722500Y-110255000I0J250000D01*
G01*
G37*
G36*
G01*
X131647500Y-110255000D02*
X131647500Y-109305000D01*
G75*
G02*
X131897500Y-109055000I250000J0D01*
G01*
X132572500Y-109055000D01*
G75*
G02*
X132822500Y-109305000I0J-250000D01*
G01*
X132822500Y-110255000D01*
G75*
G02*
X132572500Y-110505000I-250000J0D01*
G01*
X131897500Y-110505000D01*
G75*
G02*
X131647500Y-110255000I0J250000D01*
G01*
G37*
G36*
G01*
X125875000Y-107337500D02*
X126825000Y-107337500D01*
G75*
G02*
X127075000Y-107587500I0J-250000D01*
G01*
X127075000Y-108262500D01*
G75*
G02*
X126825000Y-108512500I-250000J0D01*
G01*
X125875000Y-108512500D01*
G75*
G02*
X125625000Y-108262500I0J250000D01*
G01*
X125625000Y-107587500D01*
G75*
G02*
X125875000Y-107337500I250000J0D01*
G01*
G37*
G36*
G01*
X125875000Y-105262500D02*
X126825000Y-105262500D01*
G75*
G02*
X127075000Y-105512500I0J-250000D01*
G01*
X127075000Y-106187500D01*
G75*
G02*
X126825000Y-106437500I-250000J0D01*
G01*
X125875000Y-106437500D01*
G75*
G02*
X125625000Y-106187500I0J250000D01*
G01*
X125625000Y-105512500D01*
G75*
G02*
X125875000Y-105262500I250000J0D01*
G01*
G37*
G36*
G01*
X126649997Y-112212500D02*
X127950003Y-112212500D01*
G75*
G02*
X128200000Y-112462497I0J-249997D01*
G01*
X128200000Y-113287503D01*
G75*
G02*
X127950003Y-113537500I-249997J0D01*
G01*
X126649997Y-113537500D01*
G75*
G02*
X126400000Y-113287503I0J249997D01*
G01*
X126400000Y-112462497D01*
G75*
G02*
X126649997Y-112212500I249997J0D01*
G01*
G37*
G36*
G01*
X126649997Y-109087500D02*
X127950003Y-109087500D01*
G75*
G02*
X128200000Y-109337497I0J-249997D01*
G01*
X128200000Y-110162503D01*
G75*
G02*
X127950003Y-110412500I-249997J0D01*
G01*
X126649997Y-110412500D01*
G75*
G02*
X126400000Y-110162503I0J249997D01*
G01*
X126400000Y-109337497D01*
G75*
G02*
X126649997Y-109087500I249997J0D01*
G01*
G37*
G36*
G01*
X124625000Y-111162500D02*
X125575000Y-111162500D01*
G75*
G02*
X125825000Y-111412500I0J-250000D01*
G01*
X125825000Y-112087500D01*
G75*
G02*
X125575000Y-112337500I-250000J0D01*
G01*
X124625000Y-112337500D01*
G75*
G02*
X124375000Y-112087500I0J250000D01*
G01*
X124375000Y-111412500D01*
G75*
G02*
X124625000Y-111162500I250000J0D01*
G01*
G37*
G36*
G01*
X124625000Y-109087500D02*
X125575000Y-109087500D01*
G75*
G02*
X125825000Y-109337500I0J-250000D01*
G01*
X125825000Y-110012500D01*
G75*
G02*
X125575000Y-110262500I-250000J0D01*
G01*
X124625000Y-110262500D01*
G75*
G02*
X124375000Y-110012500I0J250000D01*
G01*
X124375000Y-109337500D01*
G75*
G02*
X124625000Y-109087500I250000J0D01*
G01*
G37*
G36*
G01*
X129049997Y-112212500D02*
X130350003Y-112212500D01*
G75*
G02*
X130600000Y-112462497I0J-249997D01*
G01*
X130600000Y-113287503D01*
G75*
G02*
X130350003Y-113537500I-249997J0D01*
G01*
X129049997Y-113537500D01*
G75*
G02*
X128800000Y-113287503I0J249997D01*
G01*
X128800000Y-112462497D01*
G75*
G02*
X129049997Y-112212500I249997J0D01*
G01*
G37*
G36*
G01*
X129049997Y-109087500D02*
X130350003Y-109087500D01*
G75*
G02*
X130600000Y-109337497I0J-249997D01*
G01*
X130600000Y-110162503D01*
G75*
G02*
X130350003Y-110412500I-249997J0D01*
G01*
X129049997Y-110412500D01*
G75*
G02*
X128800000Y-110162503I0J249997D01*
G01*
X128800000Y-109337497D01*
G75*
G02*
X129049997Y-109087500I249997J0D01*
G01*
G37*
G36*
G01*
X152800003Y-111312500D02*
X151499997Y-111312500D01*
G75*
G02*
X151250000Y-111062503I0J249997D01*
G01*
X151250000Y-110237497D01*
G75*
G02*
X151499997Y-109987500I249997J0D01*
G01*
X152800003Y-109987500D01*
G75*
G02*
X153050000Y-110237497I0J-249997D01*
G01*
X153050000Y-111062503D01*
G75*
G02*
X152800003Y-111312500I-249997J0D01*
G01*
G37*
G36*
G01*
X152800003Y-114437500D02*
X151499997Y-114437500D01*
G75*
G02*
X151250000Y-114187503I0J249997D01*
G01*
X151250000Y-113362497D01*
G75*
G02*
X151499997Y-113112500I249997J0D01*
G01*
X152800003Y-113112500D01*
G75*
G02*
X153050000Y-113362497I0J-249997D01*
G01*
X153050000Y-114187503D01*
G75*
G02*
X152800003Y-114437500I-249997J0D01*
G01*
G37*
G36*
G01*
X150375000Y-111162500D02*
X149425000Y-111162500D01*
G75*
G02*
X149175000Y-110912500I0J250000D01*
G01*
X149175000Y-110237500D01*
G75*
G02*
X149425000Y-109987500I250000J0D01*
G01*
X150375000Y-109987500D01*
G75*
G02*
X150625000Y-110237500I0J-250000D01*
G01*
X150625000Y-110912500D01*
G75*
G02*
X150375000Y-111162500I-250000J0D01*
G01*
G37*
G36*
G01*
X150375000Y-113237500D02*
X149425000Y-113237500D01*
G75*
G02*
X149175000Y-112987500I0J250000D01*
G01*
X149175000Y-112312500D01*
G75*
G02*
X149425000Y-112062500I250000J0D01*
G01*
X150375000Y-112062500D01*
G75*
G02*
X150625000Y-112312500I0J-250000D01*
G01*
X150625000Y-112987500D01*
G75*
G02*
X150375000Y-113237500I-250000J0D01*
G01*
G37*
G36*
G01*
X80099997Y-101537500D02*
X81400003Y-101537500D01*
G75*
G02*
X81650000Y-101787497I0J-249997D01*
G01*
X81650000Y-102612503D01*
G75*
G02*
X81400003Y-102862500I-249997J0D01*
G01*
X80099997Y-102862500D01*
G75*
G02*
X79850000Y-102612503I0J249997D01*
G01*
X79850000Y-101787497D01*
G75*
G02*
X80099997Y-101537500I249997J0D01*
G01*
G37*
G36*
G01*
X80099997Y-98412500D02*
X81400003Y-98412500D01*
G75*
G02*
X81650000Y-98662497I0J-249997D01*
G01*
X81650000Y-99487503D01*
G75*
G02*
X81400003Y-99737500I-249997J0D01*
G01*
X80099997Y-99737500D01*
G75*
G02*
X79850000Y-99487503I0J249997D01*
G01*
X79850000Y-98662497D01*
G75*
G02*
X80099997Y-98412500I249997J0D01*
G01*
G37*
G36*
G01*
X96050000Y-114349997D02*
X96050000Y-115650003D01*
G75*
G02*
X95800003Y-115900000I-249997J0D01*
G01*
X94974997Y-115900000D01*
G75*
G02*
X94725000Y-115650003I0J249997D01*
G01*
X94725000Y-114349997D01*
G75*
G02*
X94974997Y-114100000I249997J0D01*
G01*
X95800003Y-114100000D01*
G75*
G02*
X96050000Y-114349997I0J-249997D01*
G01*
G37*
G36*
G01*
X99175000Y-114349997D02*
X99175000Y-115650003D01*
G75*
G02*
X98925003Y-115900000I-249997J0D01*
G01*
X98099997Y-115900000D01*
G75*
G02*
X97850000Y-115650003I0J249997D01*
G01*
X97850000Y-114349997D01*
G75*
G02*
X98099997Y-114100000I249997J0D01*
G01*
X98925003Y-114100000D01*
G75*
G02*
X99175000Y-114349997I0J-249997D01*
G01*
G37*
G36*
G01*
X96037500Y-111949997D02*
X96037500Y-113250003D01*
G75*
G02*
X95787503Y-113500000I-249997J0D01*
G01*
X94962497Y-113500000D01*
G75*
G02*
X94712500Y-113250003I0J249997D01*
G01*
X94712500Y-111949997D01*
G75*
G02*
X94962497Y-111700000I249997J0D01*
G01*
X95787503Y-111700000D01*
G75*
G02*
X96037500Y-111949997I0J-249997D01*
G01*
G37*
G36*
G01*
X99162500Y-111949997D02*
X99162500Y-113250003D01*
G75*
G02*
X98912503Y-113500000I-249997J0D01*
G01*
X98087497Y-113500000D01*
G75*
G02*
X97837500Y-113250003I0J249997D01*
G01*
X97837500Y-111949997D01*
G75*
G02*
X98087497Y-111700000I249997J0D01*
G01*
X98912503Y-111700000D01*
G75*
G02*
X99162500Y-111949997I0J-249997D01*
G01*
G37*
G36*
G01*
X81187500Y-103724997D02*
X81187500Y-105025003D01*
G75*
G02*
X80937503Y-105275000I-249997J0D01*
G01*
X80112497Y-105275000D01*
G75*
G02*
X79862500Y-105025003I0J249997D01*
G01*
X79862500Y-103724997D01*
G75*
G02*
X80112497Y-103475000I249997J0D01*
G01*
X80937503Y-103475000D01*
G75*
G02*
X81187500Y-103724997I0J-249997D01*
G01*
G37*
G36*
G01*
X84312500Y-103724997D02*
X84312500Y-105025003D01*
G75*
G02*
X84062503Y-105275000I-249997J0D01*
G01*
X83237497Y-105275000D01*
G75*
G02*
X82987500Y-105025003I0J249997D01*
G01*
X82987500Y-103724997D01*
G75*
G02*
X83237497Y-103475000I249997J0D01*
G01*
X84062503Y-103475000D01*
G75*
G02*
X84312500Y-103724997I0J-249997D01*
G01*
G37*
G36*
G01*
X86412500Y-104625000D02*
X86412500Y-105575000D01*
G75*
G02*
X86162500Y-105825000I-250000J0D01*
G01*
X85487500Y-105825000D01*
G75*
G02*
X85237500Y-105575000I0J250000D01*
G01*
X85237500Y-104625000D01*
G75*
G02*
X85487500Y-104375000I250000J0D01*
G01*
X86162500Y-104375000D01*
G75*
G02*
X86412500Y-104625000I0J-250000D01*
G01*
G37*
G36*
G01*
X88487500Y-104625000D02*
X88487500Y-105575000D01*
G75*
G02*
X88237500Y-105825000I-250000J0D01*
G01*
X87562500Y-105825000D01*
G75*
G02*
X87312500Y-105575000I0J250000D01*
G01*
X87312500Y-104625000D01*
G75*
G02*
X87562500Y-104375000I250000J0D01*
G01*
X88237500Y-104375000D01*
G75*
G02*
X88487500Y-104625000I0J-250000D01*
G01*
G37*
G36*
G01*
X74362500Y-113549997D02*
X74362500Y-114850003D01*
G75*
G02*
X74112503Y-115100000I-249997J0D01*
G01*
X73287497Y-115100000D01*
G75*
G02*
X73037500Y-114850003I0J249997D01*
G01*
X73037500Y-113549997D01*
G75*
G02*
X73287497Y-113300000I249997J0D01*
G01*
X74112503Y-113300000D01*
G75*
G02*
X74362500Y-113549997I0J-249997D01*
G01*
G37*
G36*
G01*
X77487500Y-113549997D02*
X77487500Y-114850003D01*
G75*
G02*
X77237503Y-115100000I-249997J0D01*
G01*
X76412497Y-115100000D01*
G75*
G02*
X76162500Y-114850003I0J249997D01*
G01*
X76162500Y-113549997D01*
G75*
G02*
X76412497Y-113300000I249997J0D01*
G01*
X77237503Y-113300000D01*
G75*
G02*
X77487500Y-113549997I0J-249997D01*
G01*
G37*
G36*
G01*
X82987500Y-107400003D02*
X82987500Y-106099997D01*
G75*
G02*
X83237497Y-105850000I249997J0D01*
G01*
X84062503Y-105850000D01*
G75*
G02*
X84312500Y-106099997I0J-249997D01*
G01*
X84312500Y-107400003D01*
G75*
G02*
X84062503Y-107650000I-249997J0D01*
G01*
X83237497Y-107650000D01*
G75*
G02*
X82987500Y-107400003I0J249997D01*
G01*
G37*
G36*
G01*
X79862500Y-107400003D02*
X79862500Y-106099997D01*
G75*
G02*
X80112497Y-105850000I249997J0D01*
G01*
X80937503Y-105850000D01*
G75*
G02*
X81187500Y-106099997I0J-249997D01*
G01*
X81187500Y-107400003D01*
G75*
G02*
X80937503Y-107650000I-249997J0D01*
G01*
X80112497Y-107650000D01*
G75*
G02*
X79862500Y-107400003I0J249997D01*
G01*
G37*
D38*
X74170000Y-77400000D03*
D39*
X82500000Y-93400000D03*
X137700000Y-77400000D03*
D40*
X149430000Y-85400000D03*
X70770000Y-85400000D03*
M02*
