M48
; DRILL file {KiCad 6.0.4-6f826c9f35~116~ubuntu20.04.1} date Thu May  5 15:44:58 2022
; FORMAT={-:-/ absolute / metric / decimal}
; #@! TF.CreationDate,2022-05-05T15:44:58+02:00
; #@! TF.GenerationSoftware,Kicad,Pcbnew,6.0.4-6f826c9f35~116~ubuntu20.04.1
; #@! TF.FileFunction,Plated,1,2,PTH
FMAT,2
METRIC
; #@! TA.AperFunction,Plated,PTH,ComponentDrill
T1C0.200
; #@! TA.AperFunction,Plated,PTH,ViaDrill
T2C0.400
; #@! TA.AperFunction,Plated,PTH,ComponentDrill
T3C0.600
; #@! TA.AperFunction,Plated,PTH,ComponentDrill
T4C0.650
; #@! TA.AperFunction,Plated,PTH,ComponentDrill
T5C0.700
; #@! TA.AperFunction,Plated,PTH,ComponentDrill
T6C1.016
; #@! TA.AperFunction,Plated,PTH,ComponentDrill
T7C1.320
%
G90
G05
T1
X80.332Y-110.101
X80.332Y-111.201
X80.332Y-112.301
X81.432Y-110.101
X81.432Y-111.201
X81.432Y-112.301
X82.532Y-110.101
X82.532Y-111.201
X82.532Y-112.301
X115.226Y-109.296
X115.976Y-108.521
X115.976Y-109.296
X115.976Y-110.071
X117.026Y-108.521
X117.026Y-109.296
X117.026Y-110.071
X117.776Y-109.296
T2
X67.15Y-77.125
X67.15Y-92.005
X67.15Y-97.68
X67.15Y-103.83
X67.19Y-74.31
X67.19Y-94.865
X67.19Y-100.54
X67.19Y-106.69
X68.72Y-74.825
X68.72Y-75.765
X68.72Y-76.7
X68.72Y-77.64
X69.66Y-74.825
X69.66Y-75.765
X69.66Y-76.7
X69.66Y-77.64
X70.6Y-74.825
X70.6Y-75.765
X70.6Y-76.7
X70.6Y-77.64
X72.504Y-112.33
X73.244Y-111.658
X74.3Y-110.836
X74.3Y-111.786
X74.3Y-112.736
X75.25Y-110.85
X75.25Y-111.8
X75.25Y-112.75
X75.775Y-107.05
X76.175Y-74.835
X76.175Y-75.775
X76.175Y-76.71
X76.175Y-77.65
X76.25Y-110.85
X76.25Y-111.8
X76.25Y-112.75
X76.577Y-106.121
X76.75Y-119.9
X77.115Y-74.835
X77.115Y-75.775
X77.115Y-76.71
X77.115Y-77.65
X77.575Y-106.175
X77.742Y-112.26
X78.055Y-74.835
X78.055Y-75.775
X78.055Y-76.71
X78.055Y-77.65
X78.232Y-113.132
X78.5Y-107.2
X78.81Y-95.56
X78.994Y-113.843
X79.4Y-76.75
X79.749Y-73.664
X81.35Y-119.85
X81.703Y-118.915
X82.055Y-86.418
X82.63Y-73.6
X83.45Y-78.34
X84.04Y-104.123
X85.369Y-111.76
X85.369Y-112.7
X85.9Y-74.0
X86.06Y-102.325
X86.309Y-111.76
X86.309Y-112.7
X86.659Y-103.225
X86.725Y-79.275
X87.249Y-111.76
X87.249Y-112.7
X87.725Y-75.525
X87.8Y-88.25
X88.5Y-80.675
X88.508Y-103.212
X88.59Y-89.04
X89.04Y-110.16
X89.34Y-89.76
X89.473Y-121.073
X89.938Y-90.876
X90.2Y-103.45
X90.6Y-91.625
X90.776Y-111.733
X91.2Y-104.6
X91.579Y-91.828
X91.674Y-109.8
X91.925Y-108.55
X92.198Y-121.316
X92.375Y-94.162
X92.525Y-79.35
X92.685Y-115.164
X92.685Y-116.103
X92.685Y-117.043
X92.925Y-74.075
X93.113Y-77.462
X93.21Y-90.14
X93.21Y-91.08
X93.21Y-92.02
X93.25Y-105.1
X93.3Y-121.356
X93.624Y-115.164
X93.624Y-116.103
X93.624Y-117.043
X93.627Y-94.914
X94.15Y-90.14
X94.15Y-91.08
X94.15Y-92.02
X94.175Y-95.75
X95.124Y-116.71
X95.263Y-117.7
X95.267Y-114.974
X95.5Y-115.9
X96.275Y-75.125
X96.275Y-80.205
X96.275Y-82.745
X96.325Y-95.375
X96.34Y-92.74
X96.34Y-93.68
X96.768Y-109.908
X96.854Y-119.011
X97.28Y-92.74
X97.28Y-93.68
X97.3Y-103.225
X97.304Y-120.008
X97.5Y-114.25
X97.885Y-112.585
X98.22Y-92.74
X98.22Y-93.68
X98.815Y-75.125
X98.815Y-80.205
X98.815Y-82.745
X99.0Y-111.875
X99.9Y-106.775
X101.355Y-75.125
X101.355Y-80.205
X101.355Y-82.745
X101.4Y-108.05
X101.698Y-114.525
X102.475Y-95.375
X102.698Y-114.525
X103.075Y-107.29
X103.895Y-75.125
X103.895Y-80.205
X103.895Y-82.745
X103.975Y-120.395
X103.975Y-121.335
X103.975Y-122.275
X104.094Y-104.555
X104.225Y-113.764
X104.825Y-102.0
X104.915Y-120.395
X104.915Y-121.335
X104.915Y-122.275
X105.603Y-116.77
X105.85Y-120.395
X105.85Y-121.335
X105.85Y-122.275
X106.435Y-75.125
X106.435Y-80.205
X106.435Y-82.745
X106.79Y-120.395
X106.79Y-121.335
X106.79Y-122.275
X106.902Y-113.592
X106.91Y-111.74
X107.533Y-110.803
X107.97Y-109.86
X108.15Y-95.375
X108.64Y-113.56
X108.975Y-75.125
X108.975Y-80.205
X108.975Y-82.745
X109.311Y-116.962
X110.328Y-114.535
X110.403Y-112.072
X110.672Y-106.617
X110.863Y-105.635
X110.875Y-83.625
X111.35Y-114.15
X111.515Y-75.125
X111.515Y-87.825
X111.515Y-97.985
X111.524Y-120.138
X111.525Y-119.1
X111.6Y-116.88
X111.6Y-115.842
X112.837Y-111.424
X113.875Y-111.425
X114.055Y-87.825
X114.911Y-113.271
X115.24Y-106.83
X115.675Y-101.475
X116.595Y-77.665
X116.595Y-80.205
X116.595Y-82.745
X116.595Y-85.285
X116.595Y-87.825
X116.595Y-90.365
X117.275Y-119.925
X117.275Y-120.865
X117.275Y-121.805
X118.215Y-119.925
X118.215Y-120.865
X118.215Y-121.805
X119.033Y-113.808
X119.069Y-107.994
X119.135Y-77.665
X119.135Y-80.205
X119.135Y-82.745
X119.135Y-85.285
X119.135Y-87.825
X119.135Y-90.365
X119.15Y-119.925
X119.15Y-120.865
X119.15Y-121.805
X119.172Y-107.0
X119.22Y-118.6
X120.09Y-119.925
X120.09Y-120.865
X120.09Y-121.805
X120.16Y-118.6
X121.076Y-109.262
X121.675Y-75.125
X121.675Y-87.825
X121.675Y-90.365
X121.675Y-106.55
X122.654Y-106.751
X122.86Y-121.42
X122.86Y-122.36
X122.87Y-102.02
X123.601Y-105.649
X123.8Y-121.42
X123.8Y-122.36
X124.215Y-75.125
X124.215Y-87.825
X124.215Y-90.365
X124.215Y-92.905
X124.575Y-103.285
X125.54Y-108.63
X126.16Y-101.55
X126.16Y-102.49
X126.445Y-95.1
X126.445Y-96.04
X126.445Y-96.975
X126.445Y-97.915
X126.455Y-110.845
X126.755Y-75.125
X126.755Y-77.665
X126.755Y-80.205
X126.755Y-82.745
X126.755Y-85.285
X126.755Y-90.365
X126.755Y-92.905
X127.1Y-101.55
X127.1Y-102.49
X127.385Y-95.1
X127.385Y-96.04
X127.385Y-96.975
X127.385Y-97.915
X128.325Y-95.1
X128.325Y-96.04
X128.325Y-96.975
X128.325Y-97.915
X128.548Y-110.699
X128.918Y-102.208
X129.295Y-75.125
X129.295Y-77.665
X129.295Y-80.205
X129.295Y-82.745
X129.295Y-85.285
X129.295Y-87.825
X129.295Y-92.905
X130.0Y-103.34
X131.835Y-70.045
X131.835Y-72.585
X131.835Y-75.125
X131.835Y-77.665
X131.835Y-80.205
X131.835Y-82.745
X131.835Y-85.285
X131.835Y-87.825
X131.835Y-90.365
X131.835Y-95.445
X131.982Y-116.364
X131.988Y-114.915
X133.45Y-115.725
X133.475Y-118.55
X134.375Y-70.045
X134.375Y-72.585
X134.375Y-75.125
X134.375Y-77.665
X134.375Y-80.205
X134.375Y-82.745
X134.375Y-85.285
X134.375Y-87.825
X134.375Y-90.365
X134.375Y-92.905
X134.975Y-113.325
X135.65Y-98.535
X135.65Y-99.475
X136.59Y-98.535
X136.59Y-99.475
X136.915Y-70.045
X136.915Y-72.585
X136.915Y-80.205
X136.915Y-82.745
X136.915Y-85.285
X136.915Y-87.825
X136.915Y-90.365
X136.915Y-92.905
X136.915Y-95.445
X136.915Y-105.605
X136.96Y-115.76
X137.0Y-118.62
X137.53Y-98.535
X137.53Y-99.475
X139.455Y-70.045
X139.455Y-72.585
X139.455Y-80.205
X139.455Y-82.745
X139.455Y-85.285
X139.455Y-87.825
X139.455Y-90.365
X139.455Y-92.905
X139.455Y-95.445
X140.7Y-115.76
X140.74Y-118.62
X141.995Y-70.045
X141.995Y-72.585
X141.995Y-75.125
X141.995Y-77.665
X141.995Y-80.205
X141.995Y-82.745
X141.995Y-85.285
X141.995Y-87.825
X141.995Y-90.365
X141.995Y-92.905
X141.995Y-95.445
X144.17Y-115.76
X144.21Y-118.62
X144.535Y-70.045
X144.535Y-72.585
X144.535Y-75.125
X144.535Y-77.665
X144.535Y-80.205
X144.535Y-82.745
X144.535Y-85.285
X144.535Y-87.825
X144.535Y-90.365
X144.535Y-92.905
X144.535Y-95.445
X144.535Y-120.845
X146.77Y-110.099
X147.075Y-70.045
X147.075Y-72.585
X147.075Y-75.125
X147.075Y-77.665
X147.075Y-80.205
X147.075Y-90.365
X147.075Y-92.905
X147.075Y-95.445
X147.075Y-97.985
X149.615Y-70.045
X149.615Y-72.585
X149.615Y-75.125
X149.615Y-77.665
X149.615Y-80.205
X149.615Y-90.365
X149.615Y-92.905
X149.615Y-113.225
X149.83Y-122.35
X150.03Y-98.27
X150.55Y-103.09
X150.55Y-106.93
X151.809Y-106.635
X152.155Y-70.045
X152.155Y-72.585
X152.155Y-75.125
X152.155Y-77.665
X152.155Y-80.205
X152.155Y-90.365
X152.155Y-92.905
X152.155Y-110.685
X152.53Y-99.98
X152.89Y-98.23
T6
X74.802Y-69.5
X74.802Y-72.04
X77.342Y-69.5
X77.342Y-72.04
X79.882Y-69.5
X79.882Y-72.04
X82.422Y-69.5
X82.422Y-72.04
X84.962Y-69.5
X84.962Y-72.04
X87.502Y-69.5
X87.502Y-72.04
X90.042Y-69.5
X90.042Y-72.04
X92.582Y-69.5
X92.582Y-72.04
X95.122Y-69.5
X95.122Y-72.04
X97.662Y-69.5
X97.662Y-72.04
X100.202Y-69.5
X100.202Y-72.04
X102.742Y-69.5
X102.742Y-72.04
X105.282Y-69.5
X105.282Y-72.04
X107.822Y-69.5
X107.822Y-72.04
X110.362Y-69.5
X110.362Y-72.04
X112.902Y-69.5
X112.902Y-72.04
X115.442Y-69.5
X115.442Y-72.04
X117.982Y-69.5
X117.982Y-72.04
X120.522Y-69.5
X120.522Y-72.04
X123.062Y-69.5
X123.062Y-72.04
T7
X73.0Y-99.14
X73.0Y-104.14
X147.275Y-102.675
X147.275Y-107.675
T3
X74.471Y-117.695G85X74.471Y-116.595
G05
X74.471Y-121.715G85X74.471Y-120.915
G05
X83.111Y-117.695G85X83.111Y-116.595
G05
X83.111Y-121.715G85X83.111Y-120.915
G05
T4
X70.99Y-109.492G85X71.39Y-109.492
G05
X70.99Y-114.332G85X71.39Y-114.332
G05
T5
X67.94Y-109.182G85X68.44Y-109.182
G05
X67.94Y-114.642G85X68.44Y-114.642
G05
T0
M30
