G04 #@! TF.GenerationSoftware,KiCad,Pcbnew,5.1.10-88a1d61d58~90~ubuntu20.04.1*
G04 #@! TF.CreationDate,2021-09-24T13:56:54+03:00*
G04 #@! TF.ProjectId,PiUPS,50695550-532e-46b6-9963-61645f706362,rev?*
G04 #@! TF.SameCoordinates,Original*
G04 #@! TF.FileFunction,Legend,Top*
G04 #@! TF.FilePolarity,Positive*
%FSLAX46Y46*%
G04 Gerber Fmt 4.6, Leading zero omitted, Abs format (unit mm)*
G04 Created by KiCad (PCBNEW 5.1.10-88a1d61d58~90~ubuntu20.04.1) date 2021-09-24 13:56:54*
%MOMM*%
%LPD*%
G01*
G04 APERTURE LIST*
%ADD10C,0.300000*%
%ADD11C,0.100000*%
%ADD12C,0.120000*%
%ADD13C,0.150000*%
%ADD14C,0.200000*%
%ADD15C,0.127000*%
%ADD16C,0.010000*%
%ADD17C,0.300000*%
%ADD18R,2.050000X3.050000*%
%ADD19R,0.600000X0.240000*%
%ADD20R,0.240000X0.600000*%
%ADD21R,2.700000X2.700000*%
%ADD22C,0.900000*%
%ADD23R,1.400000X1.600000*%
%ADD24R,2.700000X3.600000*%
%ADD25C,1.750000*%
%ADD26R,1.750000X1.750000*%
%ADD27C,2.750000*%
%ADD28O,1.980000X3.960000*%
%ADD29R,1.980000X3.960000*%
%ADD30C,1.600000*%
%ADD31R,1.600000X1.600000*%
%ADD32C,3.000000*%
%ADD33O,3.960000X1.980000*%
%ADD34R,3.960000X1.980000*%
%ADD35R,1.450000X1.150000*%
%ADD36O,1.900000X1.050000*%
%ADD37R,1.900000X1.750000*%
%ADD38R,1.400000X0.400000*%
%ADD39R,0.600000X1.160000*%
%ADD40C,0.600000*%
%ADD41R,0.300000X1.160000*%
%ADD42O,0.900000X1.700000*%
%ADD43O,0.900000X2.000000*%
%ADD44C,2.390000*%
%ADD45C,3.450000*%
%ADD46R,7.340000X6.350000*%
G04 APERTURE END LIST*
D10*
X79688095Y-97467857D02*
X81211904Y-97467857D01*
X80450000Y-98229761D02*
X80450000Y-96705952D01*
X104638095Y-113717857D02*
X106161904Y-113717857D01*
X105400000Y-114479761D02*
X105400000Y-112955952D01*
D11*
X104496428Y-121617857D02*
X104582142Y-121646428D01*
X104725000Y-121646428D01*
X104782142Y-121617857D01*
X104810714Y-121589285D01*
X104839285Y-121532142D01*
X104839285Y-121475000D01*
X104810714Y-121417857D01*
X104782142Y-121389285D01*
X104725000Y-121360714D01*
X104610714Y-121332142D01*
X104553571Y-121303571D01*
X104525000Y-121275000D01*
X104496428Y-121217857D01*
X104496428Y-121160714D01*
X104525000Y-121103571D01*
X104553571Y-121075000D01*
X104610714Y-121046428D01*
X104753571Y-121046428D01*
X104839285Y-121075000D01*
X105325000Y-121617857D02*
X105267857Y-121646428D01*
X105153571Y-121646428D01*
X105096428Y-121617857D01*
X105067857Y-121560714D01*
X105067857Y-121332142D01*
X105096428Y-121275000D01*
X105153571Y-121246428D01*
X105267857Y-121246428D01*
X105325000Y-121275000D01*
X105353571Y-121332142D01*
X105353571Y-121389285D01*
X105067857Y-121446428D01*
X105696428Y-121646428D02*
X105639285Y-121617857D01*
X105610714Y-121560714D01*
X105610714Y-121046428D01*
X106153571Y-121617857D02*
X106096428Y-121646428D01*
X105982142Y-121646428D01*
X105925000Y-121617857D01*
X105896428Y-121560714D01*
X105896428Y-121332142D01*
X105925000Y-121275000D01*
X105982142Y-121246428D01*
X106096428Y-121246428D01*
X106153571Y-121275000D01*
X106182142Y-121332142D01*
X106182142Y-121389285D01*
X105896428Y-121446428D01*
X106696428Y-121617857D02*
X106639285Y-121646428D01*
X106525000Y-121646428D01*
X106467857Y-121617857D01*
X106439285Y-121589285D01*
X106410714Y-121532142D01*
X106410714Y-121360714D01*
X106439285Y-121303571D01*
X106467857Y-121275000D01*
X106525000Y-121246428D01*
X106639285Y-121246428D01*
X106696428Y-121275000D01*
X106867857Y-121246428D02*
X107096428Y-121246428D01*
X106953571Y-121046428D02*
X106953571Y-121560714D01*
X106982142Y-121617857D01*
X107039285Y-121646428D01*
X107096428Y-121646428D01*
X107753571Y-121046428D02*
X107753571Y-121532142D01*
X107782142Y-121589285D01*
X107810714Y-121617857D01*
X107867857Y-121646428D01*
X107982142Y-121646428D01*
X108039285Y-121617857D01*
X108067857Y-121589285D01*
X108096428Y-121532142D01*
X108096428Y-121046428D01*
X108353571Y-121617857D02*
X108439285Y-121646428D01*
X108582142Y-121646428D01*
X108639285Y-121617857D01*
X108667857Y-121589285D01*
X108696428Y-121532142D01*
X108696428Y-121475000D01*
X108667857Y-121417857D01*
X108639285Y-121389285D01*
X108582142Y-121360714D01*
X108467857Y-121332142D01*
X108410714Y-121303571D01*
X108382142Y-121275000D01*
X108353571Y-121217857D01*
X108353571Y-121160714D01*
X108382142Y-121103571D01*
X108410714Y-121075000D01*
X108467857Y-121046428D01*
X108610714Y-121046428D01*
X108696428Y-121075000D01*
X109153571Y-121332142D02*
X109239285Y-121360714D01*
X109267857Y-121389285D01*
X109296428Y-121446428D01*
X109296428Y-121532142D01*
X109267857Y-121589285D01*
X109239285Y-121617857D01*
X109182142Y-121646428D01*
X108953571Y-121646428D01*
X108953571Y-121046428D01*
X109153571Y-121046428D01*
X109210714Y-121075000D01*
X109239285Y-121103571D01*
X109267857Y-121160714D01*
X109267857Y-121217857D01*
X109239285Y-121275000D01*
X109210714Y-121303571D01*
X109153571Y-121332142D01*
X108953571Y-121332142D01*
X110010714Y-121246428D02*
X110010714Y-121846428D01*
X110010714Y-121275000D02*
X110067857Y-121246428D01*
X110182142Y-121246428D01*
X110239285Y-121275000D01*
X110267857Y-121303571D01*
X110296428Y-121360714D01*
X110296428Y-121532142D01*
X110267857Y-121589285D01*
X110239285Y-121617857D01*
X110182142Y-121646428D01*
X110067857Y-121646428D01*
X110010714Y-121617857D01*
X110639285Y-121646428D02*
X110582142Y-121617857D01*
X110553571Y-121589285D01*
X110525000Y-121532142D01*
X110525000Y-121360714D01*
X110553571Y-121303571D01*
X110582142Y-121275000D01*
X110639285Y-121246428D01*
X110725000Y-121246428D01*
X110782142Y-121275000D01*
X110810714Y-121303571D01*
X110839285Y-121360714D01*
X110839285Y-121532142D01*
X110810714Y-121589285D01*
X110782142Y-121617857D01*
X110725000Y-121646428D01*
X110639285Y-121646428D01*
X111096428Y-121646428D02*
X111096428Y-121246428D01*
X111096428Y-121360714D02*
X111125000Y-121303571D01*
X111153571Y-121275000D01*
X111210714Y-121246428D01*
X111267857Y-121246428D01*
X111382142Y-121246428D02*
X111610714Y-121246428D01*
X111467857Y-121046428D02*
X111467857Y-121560714D01*
X111496428Y-121617857D01*
X111553571Y-121646428D01*
X111610714Y-121646428D01*
X104225000Y-122646428D02*
X104167857Y-122617857D01*
X104139285Y-122589285D01*
X104110714Y-122532142D01*
X104110714Y-122360714D01*
X104139285Y-122303571D01*
X104167857Y-122275000D01*
X104225000Y-122246428D01*
X104310714Y-122246428D01*
X104367857Y-122275000D01*
X104396428Y-122303571D01*
X104425000Y-122360714D01*
X104425000Y-122532142D01*
X104396428Y-122589285D01*
X104367857Y-122617857D01*
X104310714Y-122646428D01*
X104225000Y-122646428D01*
X104682142Y-122646428D02*
X104682142Y-122246428D01*
X104682142Y-122360714D02*
X104710714Y-122303571D01*
X104739285Y-122275000D01*
X104796428Y-122246428D01*
X104853571Y-122246428D01*
X105482142Y-122617857D02*
X105539285Y-122646428D01*
X105653571Y-122646428D01*
X105710714Y-122617857D01*
X105739285Y-122560714D01*
X105739285Y-122532142D01*
X105710714Y-122475000D01*
X105653571Y-122446428D01*
X105567857Y-122446428D01*
X105510714Y-122417857D01*
X105482142Y-122360714D01*
X105482142Y-122332142D01*
X105510714Y-122275000D01*
X105567857Y-122246428D01*
X105653571Y-122246428D01*
X105710714Y-122275000D01*
X106253571Y-122617857D02*
X106196428Y-122646428D01*
X106082142Y-122646428D01*
X106025000Y-122617857D01*
X105996428Y-122589285D01*
X105967857Y-122532142D01*
X105967857Y-122360714D01*
X105996428Y-122303571D01*
X106025000Y-122275000D01*
X106082142Y-122246428D01*
X106196428Y-122246428D01*
X106253571Y-122275000D01*
X106510714Y-122646428D02*
X106510714Y-122246428D01*
X106510714Y-122360714D02*
X106539285Y-122303571D01*
X106567857Y-122275000D01*
X106625000Y-122246428D01*
X106682142Y-122246428D01*
X107110714Y-122617857D02*
X107053571Y-122646428D01*
X106939285Y-122646428D01*
X106882142Y-122617857D01*
X106853571Y-122560714D01*
X106853571Y-122332142D01*
X106882142Y-122275000D01*
X106939285Y-122246428D01*
X107053571Y-122246428D01*
X107110714Y-122275000D01*
X107139285Y-122332142D01*
X107139285Y-122389285D01*
X106853571Y-122446428D01*
X107339285Y-122246428D02*
X107453571Y-122646428D01*
X107567857Y-122360714D01*
X107682142Y-122646428D01*
X107796428Y-122246428D01*
X108396428Y-122246428D02*
X108625000Y-122246428D01*
X108482142Y-122046428D02*
X108482142Y-122560714D01*
X108510714Y-122617857D01*
X108567857Y-122646428D01*
X108625000Y-122646428D01*
X109053571Y-122617857D02*
X108996428Y-122646428D01*
X108882142Y-122646428D01*
X108825000Y-122617857D01*
X108796428Y-122560714D01*
X108796428Y-122332142D01*
X108825000Y-122275000D01*
X108882142Y-122246428D01*
X108996428Y-122246428D01*
X109053571Y-122275000D01*
X109082142Y-122332142D01*
X109082142Y-122389285D01*
X108796428Y-122446428D01*
X109339285Y-122646428D02*
X109339285Y-122246428D01*
X109339285Y-122360714D02*
X109367857Y-122303571D01*
X109396428Y-122275000D01*
X109453571Y-122246428D01*
X109510714Y-122246428D01*
X109710714Y-122646428D02*
X109710714Y-122246428D01*
X109710714Y-122303571D02*
X109739285Y-122275000D01*
X109796428Y-122246428D01*
X109882142Y-122246428D01*
X109939285Y-122275000D01*
X109967857Y-122332142D01*
X109967857Y-122646428D01*
X109967857Y-122332142D02*
X109996428Y-122275000D01*
X110053571Y-122246428D01*
X110139285Y-122246428D01*
X110196428Y-122275000D01*
X110225000Y-122332142D01*
X110225000Y-122646428D01*
X110510714Y-122646428D02*
X110510714Y-122246428D01*
X110510714Y-122046428D02*
X110482142Y-122075000D01*
X110510714Y-122103571D01*
X110539285Y-122075000D01*
X110510714Y-122046428D01*
X110510714Y-122103571D01*
X110796428Y-122246428D02*
X110796428Y-122646428D01*
X110796428Y-122303571D02*
X110825000Y-122275000D01*
X110882142Y-122246428D01*
X110967857Y-122246428D01*
X111025000Y-122275000D01*
X111053571Y-122332142D01*
X111053571Y-122646428D01*
X111596428Y-122646428D02*
X111596428Y-122332142D01*
X111567857Y-122275000D01*
X111510714Y-122246428D01*
X111396428Y-122246428D01*
X111339285Y-122275000D01*
X111596428Y-122617857D02*
X111539285Y-122646428D01*
X111396428Y-122646428D01*
X111339285Y-122617857D01*
X111310714Y-122560714D01*
X111310714Y-122503571D01*
X111339285Y-122446428D01*
X111396428Y-122417857D01*
X111539285Y-122417857D01*
X111596428Y-122389285D01*
X111967857Y-122646428D02*
X111910714Y-122617857D01*
X111882142Y-122560714D01*
X111882142Y-122046428D01*
D12*
X106100000Y-103225000D02*
X106100000Y-110125000D01*
X102825000Y-103225000D02*
X106100000Y-103225000D01*
X102825000Y-98550000D02*
X102825000Y-103225000D01*
X113500000Y-98550000D02*
X102825000Y-98550000D01*
X113500000Y-107080000D02*
X113500000Y-98550000D01*
X115830000Y-107080000D02*
X113500000Y-107080000D01*
X115825000Y-110125000D02*
X115825000Y-107090000D01*
X106100000Y-110125000D02*
X115825000Y-110125000D01*
D11*
X103559523Y-99498809D02*
X103673809Y-99536904D01*
X103864285Y-99536904D01*
X103940476Y-99498809D01*
X103978571Y-99460714D01*
X104016666Y-99384523D01*
X104016666Y-99308333D01*
X103978571Y-99232142D01*
X103940476Y-99194047D01*
X103864285Y-99155952D01*
X103711904Y-99117857D01*
X103635714Y-99079761D01*
X103597619Y-99041666D01*
X103559523Y-98965476D01*
X103559523Y-98889285D01*
X103597619Y-98813095D01*
X103635714Y-98775000D01*
X103711904Y-98736904D01*
X103902380Y-98736904D01*
X104016666Y-98775000D01*
X104664285Y-99498809D02*
X104588095Y-99536904D01*
X104435714Y-99536904D01*
X104359523Y-99498809D01*
X104321428Y-99422619D01*
X104321428Y-99117857D01*
X104359523Y-99041666D01*
X104435714Y-99003571D01*
X104588095Y-99003571D01*
X104664285Y-99041666D01*
X104702380Y-99117857D01*
X104702380Y-99194047D01*
X104321428Y-99270238D01*
X105159523Y-99536904D02*
X105083333Y-99498809D01*
X105045238Y-99422619D01*
X105045238Y-98736904D01*
X105769047Y-99498809D02*
X105692857Y-99536904D01*
X105540476Y-99536904D01*
X105464285Y-99498809D01*
X105426190Y-99422619D01*
X105426190Y-99117857D01*
X105464285Y-99041666D01*
X105540476Y-99003571D01*
X105692857Y-99003571D01*
X105769047Y-99041666D01*
X105807142Y-99117857D01*
X105807142Y-99194047D01*
X105426190Y-99270238D01*
X106492857Y-99498809D02*
X106416666Y-99536904D01*
X106264285Y-99536904D01*
X106188095Y-99498809D01*
X106150000Y-99460714D01*
X106111904Y-99384523D01*
X106111904Y-99155952D01*
X106150000Y-99079761D01*
X106188095Y-99041666D01*
X106264285Y-99003571D01*
X106416666Y-99003571D01*
X106492857Y-99041666D01*
X106721428Y-99003571D02*
X107026190Y-99003571D01*
X106835714Y-98736904D02*
X106835714Y-99422619D01*
X106873809Y-99498809D01*
X106950000Y-99536904D01*
X107026190Y-99536904D01*
X107902380Y-99536904D02*
X107902380Y-99003571D01*
X107902380Y-99155952D02*
X107940476Y-99079761D01*
X107978571Y-99041666D01*
X108054761Y-99003571D01*
X108130952Y-99003571D01*
X108702380Y-99498809D02*
X108626190Y-99536904D01*
X108473809Y-99536904D01*
X108397619Y-99498809D01*
X108359523Y-99422619D01*
X108359523Y-99117857D01*
X108397619Y-99041666D01*
X108473809Y-99003571D01*
X108626190Y-99003571D01*
X108702380Y-99041666D01*
X108740476Y-99117857D01*
X108740476Y-99194047D01*
X108359523Y-99270238D01*
X109045238Y-99498809D02*
X109121428Y-99536904D01*
X109273809Y-99536904D01*
X109350000Y-99498809D01*
X109388095Y-99422619D01*
X109388095Y-99384523D01*
X109350000Y-99308333D01*
X109273809Y-99270238D01*
X109159523Y-99270238D01*
X109083333Y-99232142D01*
X109045238Y-99155952D01*
X109045238Y-99117857D01*
X109083333Y-99041666D01*
X109159523Y-99003571D01*
X109273809Y-99003571D01*
X109350000Y-99041666D01*
X109730952Y-99536904D02*
X109730952Y-99003571D01*
X109730952Y-98736904D02*
X109692857Y-98775000D01*
X109730952Y-98813095D01*
X109769047Y-98775000D01*
X109730952Y-98736904D01*
X109730952Y-98813095D01*
X110073809Y-99498809D02*
X110150000Y-99536904D01*
X110302380Y-99536904D01*
X110378571Y-99498809D01*
X110416666Y-99422619D01*
X110416666Y-99384523D01*
X110378571Y-99308333D01*
X110302380Y-99270238D01*
X110188095Y-99270238D01*
X110111904Y-99232142D01*
X110073809Y-99155952D01*
X110073809Y-99117857D01*
X110111904Y-99041666D01*
X110188095Y-99003571D01*
X110302380Y-99003571D01*
X110378571Y-99041666D01*
X110645238Y-99003571D02*
X110950000Y-99003571D01*
X110759523Y-98736904D02*
X110759523Y-99422619D01*
X110797619Y-99498809D01*
X110873809Y-99536904D01*
X110950000Y-99536904D01*
X111330952Y-99536904D02*
X111254761Y-99498809D01*
X111216666Y-99460714D01*
X111178571Y-99384523D01*
X111178571Y-99155952D01*
X111216666Y-99079761D01*
X111254761Y-99041666D01*
X111330952Y-99003571D01*
X111445238Y-99003571D01*
X111521428Y-99041666D01*
X111559523Y-99079761D01*
X111597619Y-99155952D01*
X111597619Y-99384523D01*
X111559523Y-99460714D01*
X111521428Y-99498809D01*
X111445238Y-99536904D01*
X111330952Y-99536904D01*
X111940476Y-99536904D02*
X111940476Y-99003571D01*
X111940476Y-99155952D02*
X111978571Y-99079761D01*
X112016666Y-99041666D01*
X112092857Y-99003571D01*
X112169047Y-99003571D01*
X112397619Y-99498809D02*
X112473809Y-99536904D01*
X112626190Y-99536904D01*
X112702380Y-99498809D01*
X112740476Y-99422619D01*
X112740476Y-99384523D01*
X112702380Y-99308333D01*
X112626190Y-99270238D01*
X112511904Y-99270238D01*
X112435714Y-99232142D01*
X112397619Y-99155952D01*
X112397619Y-99117857D01*
X112435714Y-99041666D01*
X112511904Y-99003571D01*
X112626190Y-99003571D01*
X112702380Y-99041666D01*
X103045238Y-100303571D02*
X103350000Y-100303571D01*
X103159523Y-100036904D02*
X103159523Y-100722619D01*
X103197619Y-100798809D01*
X103273809Y-100836904D01*
X103350000Y-100836904D01*
X103730952Y-100836904D02*
X103654761Y-100798809D01*
X103616666Y-100760714D01*
X103578571Y-100684523D01*
X103578571Y-100455952D01*
X103616666Y-100379761D01*
X103654761Y-100341666D01*
X103730952Y-100303571D01*
X103845238Y-100303571D01*
X103921428Y-100341666D01*
X103959523Y-100379761D01*
X103997619Y-100455952D01*
X103997619Y-100684523D01*
X103959523Y-100760714D01*
X103921428Y-100798809D01*
X103845238Y-100836904D01*
X103730952Y-100836904D01*
X104911904Y-100798809D02*
X104988095Y-100836904D01*
X105140476Y-100836904D01*
X105216666Y-100798809D01*
X105254761Y-100722619D01*
X105254761Y-100684523D01*
X105216666Y-100608333D01*
X105140476Y-100570238D01*
X105026190Y-100570238D01*
X104950000Y-100532142D01*
X104911904Y-100455952D01*
X104911904Y-100417857D01*
X104950000Y-100341666D01*
X105026190Y-100303571D01*
X105140476Y-100303571D01*
X105216666Y-100341666D01*
X105940476Y-100303571D02*
X105940476Y-100836904D01*
X105597619Y-100303571D02*
X105597619Y-100722619D01*
X105635714Y-100798809D01*
X105711904Y-100836904D01*
X105826190Y-100836904D01*
X105902380Y-100798809D01*
X105940476Y-100760714D01*
X106321428Y-100836904D02*
X106321428Y-100303571D01*
X106321428Y-100036904D02*
X106283333Y-100075000D01*
X106321428Y-100113095D01*
X106359523Y-100075000D01*
X106321428Y-100036904D01*
X106321428Y-100113095D01*
X106588095Y-100303571D02*
X106892857Y-100303571D01*
X106702380Y-100036904D02*
X106702380Y-100722619D01*
X106740476Y-100798809D01*
X106816666Y-100836904D01*
X106892857Y-100836904D01*
X107692857Y-100303571D02*
X107883333Y-100836904D01*
X108073809Y-100303571D02*
X107883333Y-100836904D01*
X107807142Y-101027380D01*
X107769047Y-101065476D01*
X107692857Y-101103571D01*
X108492857Y-100836904D02*
X108416666Y-100798809D01*
X108378571Y-100760714D01*
X108340476Y-100684523D01*
X108340476Y-100455952D01*
X108378571Y-100379761D01*
X108416666Y-100341666D01*
X108492857Y-100303571D01*
X108607142Y-100303571D01*
X108683333Y-100341666D01*
X108721428Y-100379761D01*
X108759523Y-100455952D01*
X108759523Y-100684523D01*
X108721428Y-100760714D01*
X108683333Y-100798809D01*
X108607142Y-100836904D01*
X108492857Y-100836904D01*
X109445238Y-100303571D02*
X109445238Y-100836904D01*
X109102380Y-100303571D02*
X109102380Y-100722619D01*
X109140476Y-100798809D01*
X109216666Y-100836904D01*
X109330952Y-100836904D01*
X109407142Y-100798809D01*
X109445238Y-100760714D01*
X109826190Y-100836904D02*
X109826190Y-100303571D01*
X109826190Y-100455952D02*
X109864285Y-100379761D01*
X109902380Y-100341666D01*
X109978571Y-100303571D01*
X110054761Y-100303571D01*
X111045238Y-100836904D02*
X110969047Y-100798809D01*
X110930952Y-100722619D01*
X110930952Y-100036904D01*
X111464285Y-100836904D02*
X111388095Y-100798809D01*
X111350000Y-100760714D01*
X111311904Y-100684523D01*
X111311904Y-100455952D01*
X111350000Y-100379761D01*
X111388095Y-100341666D01*
X111464285Y-100303571D01*
X111578571Y-100303571D01*
X111654761Y-100341666D01*
X111692857Y-100379761D01*
X111730952Y-100455952D01*
X111730952Y-100684523D01*
X111692857Y-100760714D01*
X111654761Y-100798809D01*
X111578571Y-100836904D01*
X111464285Y-100836904D01*
X112416666Y-100836904D02*
X112416666Y-100417857D01*
X112378571Y-100341666D01*
X112302380Y-100303571D01*
X112150000Y-100303571D01*
X112073809Y-100341666D01*
X112416666Y-100798809D02*
X112340476Y-100836904D01*
X112150000Y-100836904D01*
X112073809Y-100798809D01*
X112035714Y-100722619D01*
X112035714Y-100646428D01*
X112073809Y-100570238D01*
X112150000Y-100532142D01*
X112340476Y-100532142D01*
X112416666Y-100494047D01*
X113140476Y-100836904D02*
X113140476Y-100036904D01*
X113140476Y-100798809D02*
X113064285Y-100836904D01*
X112911904Y-100836904D01*
X112835714Y-100798809D01*
X112797619Y-100760714D01*
X112759523Y-100684523D01*
X112759523Y-100455952D01*
X112797619Y-100379761D01*
X112835714Y-100341666D01*
X112911904Y-100303571D01*
X113064285Y-100303571D01*
X113140476Y-100341666D01*
X103597619Y-102441666D02*
X103559523Y-102403571D01*
X103483333Y-102289285D01*
X103445238Y-102213095D01*
X103407142Y-102098809D01*
X103369047Y-101908333D01*
X103369047Y-101755952D01*
X103407142Y-101565476D01*
X103445238Y-101451190D01*
X103483333Y-101375000D01*
X103559523Y-101260714D01*
X103597619Y-101222619D01*
X103864285Y-102098809D02*
X103940476Y-102136904D01*
X104092857Y-102136904D01*
X104169047Y-102098809D01*
X104207142Y-102022619D01*
X104207142Y-101984523D01*
X104169047Y-101908333D01*
X104092857Y-101870238D01*
X103978571Y-101870238D01*
X103902380Y-101832142D01*
X103864285Y-101755952D01*
X103864285Y-101717857D01*
X103902380Y-101641666D01*
X103978571Y-101603571D01*
X104092857Y-101603571D01*
X104169047Y-101641666D01*
X104854761Y-102098809D02*
X104778571Y-102136904D01*
X104626190Y-102136904D01*
X104550000Y-102098809D01*
X104511904Y-102022619D01*
X104511904Y-101717857D01*
X104550000Y-101641666D01*
X104626190Y-101603571D01*
X104778571Y-101603571D01*
X104854761Y-101641666D01*
X104892857Y-101717857D01*
X104892857Y-101794047D01*
X104511904Y-101870238D01*
X105540476Y-102098809D02*
X105464285Y-102136904D01*
X105311904Y-102136904D01*
X105235714Y-102098809D01*
X105197619Y-102022619D01*
X105197619Y-101717857D01*
X105235714Y-101641666D01*
X105311904Y-101603571D01*
X105464285Y-101603571D01*
X105540476Y-101641666D01*
X105578571Y-101717857D01*
X105578571Y-101794047D01*
X105197619Y-101870238D01*
X106530952Y-101336904D02*
X106530952Y-101984523D01*
X106569047Y-102060714D01*
X106607142Y-102098809D01*
X106683333Y-102136904D01*
X106835714Y-102136904D01*
X106911904Y-102098809D01*
X106950000Y-102060714D01*
X106988095Y-101984523D01*
X106988095Y-101336904D01*
X107330952Y-102098809D02*
X107445238Y-102136904D01*
X107635714Y-102136904D01*
X107711904Y-102098809D01*
X107750000Y-102060714D01*
X107788095Y-101984523D01*
X107788095Y-101908333D01*
X107750000Y-101832142D01*
X107711904Y-101794047D01*
X107635714Y-101755952D01*
X107483333Y-101717857D01*
X107407142Y-101679761D01*
X107369047Y-101641666D01*
X107330952Y-101565476D01*
X107330952Y-101489285D01*
X107369047Y-101413095D01*
X107407142Y-101375000D01*
X107483333Y-101336904D01*
X107673809Y-101336904D01*
X107788095Y-101375000D01*
X108397619Y-101717857D02*
X108511904Y-101755952D01*
X108550000Y-101794047D01*
X108588095Y-101870238D01*
X108588095Y-101984523D01*
X108550000Y-102060714D01*
X108511904Y-102098809D01*
X108435714Y-102136904D01*
X108130952Y-102136904D01*
X108130952Y-101336904D01*
X108397619Y-101336904D01*
X108473809Y-101375000D01*
X108511904Y-101413095D01*
X108550000Y-101489285D01*
X108550000Y-101565476D01*
X108511904Y-101641666D01*
X108473809Y-101679761D01*
X108397619Y-101717857D01*
X108130952Y-101717857D01*
X109540476Y-101603571D02*
X109540476Y-102136904D01*
X109540476Y-101679761D02*
X109578571Y-101641666D01*
X109654761Y-101603571D01*
X109769047Y-101603571D01*
X109845238Y-101641666D01*
X109883333Y-101717857D01*
X109883333Y-102136904D01*
X110378571Y-102136904D02*
X110302380Y-102098809D01*
X110264285Y-102060714D01*
X110226190Y-101984523D01*
X110226190Y-101755952D01*
X110264285Y-101679761D01*
X110302380Y-101641666D01*
X110378571Y-101603571D01*
X110492857Y-101603571D01*
X110569047Y-101641666D01*
X110607142Y-101679761D01*
X110645238Y-101755952D01*
X110645238Y-101984523D01*
X110607142Y-102060714D01*
X110569047Y-102098809D01*
X110492857Y-102136904D01*
X110378571Y-102136904D01*
X110873809Y-101603571D02*
X111178571Y-101603571D01*
X110988095Y-101336904D02*
X110988095Y-102022619D01*
X111026190Y-102098809D01*
X111102380Y-102136904D01*
X111178571Y-102136904D01*
X111750000Y-102098809D02*
X111673809Y-102136904D01*
X111521428Y-102136904D01*
X111445238Y-102098809D01*
X111407142Y-102022619D01*
X111407142Y-101717857D01*
X111445238Y-101641666D01*
X111521428Y-101603571D01*
X111673809Y-101603571D01*
X111750000Y-101641666D01*
X111788095Y-101717857D01*
X111788095Y-101794047D01*
X111407142Y-101870238D01*
X112092857Y-102098809D02*
X112169047Y-102136904D01*
X112321428Y-102136904D01*
X112397619Y-102098809D01*
X112435714Y-102022619D01*
X112435714Y-101984523D01*
X112397619Y-101908333D01*
X112321428Y-101870238D01*
X112207142Y-101870238D01*
X112130952Y-101832142D01*
X112092857Y-101755952D01*
X112092857Y-101717857D01*
X112130952Y-101641666D01*
X112207142Y-101603571D01*
X112321428Y-101603571D01*
X112397619Y-101641666D01*
X112702380Y-102441666D02*
X112740476Y-102403571D01*
X112816666Y-102289285D01*
X112854761Y-102213095D01*
X112892857Y-102098809D01*
X112930952Y-101908333D01*
X112930952Y-101755952D01*
X112892857Y-101565476D01*
X112854761Y-101451190D01*
X112816666Y-101375000D01*
X112740476Y-101260714D01*
X112702380Y-101222619D01*
D13*
X117588095Y-120452380D02*
X117588095Y-121261904D01*
X117635714Y-121357142D01*
X117683333Y-121404761D01*
X117778571Y-121452380D01*
X117969047Y-121452380D01*
X118064285Y-121404761D01*
X118111904Y-121357142D01*
X118159523Y-121261904D01*
X118159523Y-120452380D01*
X118635714Y-121452380D02*
X118635714Y-120452380D01*
X119016666Y-120452380D01*
X119111904Y-120500000D01*
X119159523Y-120547619D01*
X119207142Y-120642857D01*
X119207142Y-120785714D01*
X119159523Y-120880952D01*
X119111904Y-120928571D01*
X119016666Y-120976190D01*
X118635714Y-120976190D01*
X119588095Y-121404761D02*
X119730952Y-121452380D01*
X119969047Y-121452380D01*
X120064285Y-121404761D01*
X120111904Y-121357142D01*
X120159523Y-121261904D01*
X120159523Y-121166666D01*
X120111904Y-121071428D01*
X120064285Y-121023809D01*
X119969047Y-120976190D01*
X119778571Y-120928571D01*
X119683333Y-120880952D01*
X119635714Y-120833333D01*
X119588095Y-120738095D01*
X119588095Y-120642857D01*
X119635714Y-120547619D01*
X119683333Y-120500000D01*
X119778571Y-120452380D01*
X120016666Y-120452380D01*
X120159523Y-120500000D01*
X115326190Y-122102380D02*
X115516666Y-122102380D01*
X115611904Y-122150000D01*
X115707142Y-122245238D01*
X115754761Y-122435714D01*
X115754761Y-122769047D01*
X115707142Y-122959523D01*
X115611904Y-123054761D01*
X115516666Y-123102380D01*
X115326190Y-123102380D01*
X115230952Y-123054761D01*
X115135714Y-122959523D01*
X115088095Y-122769047D01*
X115088095Y-122435714D01*
X115135714Y-122245238D01*
X115230952Y-122150000D01*
X115326190Y-122102380D01*
X116516666Y-122578571D02*
X116183333Y-122578571D01*
X116183333Y-123102380D02*
X116183333Y-122102380D01*
X116659523Y-122102380D01*
X117373809Y-122578571D02*
X117040476Y-122578571D01*
X117040476Y-123102380D02*
X117040476Y-122102380D01*
X117516666Y-122102380D01*
X121135714Y-122102380D02*
X121326190Y-122102380D01*
X121421428Y-122150000D01*
X121516666Y-122245238D01*
X121564285Y-122435714D01*
X121564285Y-122769047D01*
X121516666Y-122959523D01*
X121421428Y-123054761D01*
X121326190Y-123102380D01*
X121135714Y-123102380D01*
X121040476Y-123054761D01*
X120945238Y-122959523D01*
X120897619Y-122769047D01*
X120897619Y-122435714D01*
X120945238Y-122245238D01*
X121040476Y-122150000D01*
X121135714Y-122102380D01*
X121992857Y-123102380D02*
X121992857Y-122102380D01*
X122564285Y-123102380D01*
X122564285Y-122102380D01*
X118354761Y-109478571D02*
X118497619Y-109526190D01*
X118545238Y-109573809D01*
X118592857Y-109669047D01*
X118592857Y-109811904D01*
X118545238Y-109907142D01*
X118497619Y-109954761D01*
X118402380Y-110002380D01*
X118021428Y-110002380D01*
X118021428Y-109002380D01*
X118354761Y-109002380D01*
X118450000Y-109050000D01*
X118497619Y-109097619D01*
X118545238Y-109192857D01*
X118545238Y-109288095D01*
X118497619Y-109383333D01*
X118450000Y-109430952D01*
X118354761Y-109478571D01*
X118021428Y-109478571D01*
X118973809Y-109716666D02*
X119450000Y-109716666D01*
X118878571Y-110002380D02*
X119211904Y-109002380D01*
X119545238Y-110002380D01*
X119735714Y-109002380D02*
X120307142Y-109002380D01*
X120021428Y-110002380D02*
X120021428Y-109002380D01*
X121402380Y-109478571D02*
X121735714Y-109478571D01*
X121878571Y-110002380D02*
X121402380Y-110002380D01*
X121402380Y-109002380D01*
X121878571Y-109002380D01*
X122307142Y-110002380D02*
X122307142Y-109002380D01*
X122878571Y-110002380D01*
X122878571Y-109002380D01*
X98713095Y-117252380D02*
X98713095Y-118061904D01*
X98760714Y-118157142D01*
X98808333Y-118204761D01*
X98903571Y-118252380D01*
X99094047Y-118252380D01*
X99189285Y-118204761D01*
X99236904Y-118157142D01*
X99284523Y-118061904D01*
X99284523Y-117252380D01*
X99760714Y-118252380D02*
X99760714Y-117252380D01*
X100141666Y-117252380D01*
X100236904Y-117300000D01*
X100284523Y-117347619D01*
X100332142Y-117442857D01*
X100332142Y-117585714D01*
X100284523Y-117680952D01*
X100236904Y-117728571D01*
X100141666Y-117776190D01*
X99760714Y-117776190D01*
X100713095Y-118204761D02*
X100855952Y-118252380D01*
X101094047Y-118252380D01*
X101189285Y-118204761D01*
X101236904Y-118157142D01*
X101284523Y-118061904D01*
X101284523Y-117966666D01*
X101236904Y-117871428D01*
X101189285Y-117823809D01*
X101094047Y-117776190D01*
X100903571Y-117728571D01*
X100808333Y-117680952D01*
X100760714Y-117633333D01*
X100713095Y-117538095D01*
X100713095Y-117442857D01*
X100760714Y-117347619D01*
X100808333Y-117300000D01*
X100903571Y-117252380D01*
X101141666Y-117252380D01*
X101284523Y-117300000D01*
X98213095Y-118902380D02*
X98546428Y-119902380D01*
X98879761Y-118902380D01*
X99403571Y-118902380D02*
X99594047Y-118902380D01*
X99689285Y-118950000D01*
X99784523Y-119045238D01*
X99832142Y-119235714D01*
X99832142Y-119569047D01*
X99784523Y-119759523D01*
X99689285Y-119854761D01*
X99594047Y-119902380D01*
X99403571Y-119902380D01*
X99308333Y-119854761D01*
X99213095Y-119759523D01*
X99165476Y-119569047D01*
X99165476Y-119235714D01*
X99213095Y-119045238D01*
X99308333Y-118950000D01*
X99403571Y-118902380D01*
X100260714Y-118902380D02*
X100260714Y-119711904D01*
X100308333Y-119807142D01*
X100355952Y-119854761D01*
X100451190Y-119902380D01*
X100641666Y-119902380D01*
X100736904Y-119854761D01*
X100784523Y-119807142D01*
X100832142Y-119711904D01*
X100832142Y-118902380D01*
X101165476Y-118902380D02*
X101736904Y-118902380D01*
X101451190Y-119902380D02*
X101451190Y-118902380D01*
X132084523Y-74027380D02*
X131513095Y-74027380D01*
X131798809Y-74027380D02*
X131798809Y-73027380D01*
X131703571Y-73170238D01*
X131608333Y-73265476D01*
X131513095Y-73313095D01*
X132655952Y-73455952D02*
X132560714Y-73408333D01*
X132513095Y-73360714D01*
X132465476Y-73265476D01*
X132465476Y-73217857D01*
X132513095Y-73122619D01*
X132560714Y-73075000D01*
X132655952Y-73027380D01*
X132846428Y-73027380D01*
X132941666Y-73075000D01*
X132989285Y-73122619D01*
X133036904Y-73217857D01*
X133036904Y-73265476D01*
X132989285Y-73360714D01*
X132941666Y-73408333D01*
X132846428Y-73455952D01*
X132655952Y-73455952D01*
X132560714Y-73503571D01*
X132513095Y-73551190D01*
X132465476Y-73646428D01*
X132465476Y-73836904D01*
X132513095Y-73932142D01*
X132560714Y-73979761D01*
X132655952Y-74027380D01*
X132846428Y-74027380D01*
X132941666Y-73979761D01*
X132989285Y-73932142D01*
X133036904Y-73836904D01*
X133036904Y-73646428D01*
X132989285Y-73551190D01*
X132941666Y-73503571D01*
X132846428Y-73455952D01*
X133894047Y-73027380D02*
X133703571Y-73027380D01*
X133608333Y-73075000D01*
X133560714Y-73122619D01*
X133465476Y-73265476D01*
X133417857Y-73455952D01*
X133417857Y-73836904D01*
X133465476Y-73932142D01*
X133513095Y-73979761D01*
X133608333Y-74027380D01*
X133798809Y-74027380D01*
X133894047Y-73979761D01*
X133941666Y-73932142D01*
X133989285Y-73836904D01*
X133989285Y-73598809D01*
X133941666Y-73503571D01*
X133894047Y-73455952D01*
X133798809Y-73408333D01*
X133608333Y-73408333D01*
X133513095Y-73455952D01*
X133465476Y-73503571D01*
X133417857Y-73598809D01*
X134894047Y-73027380D02*
X134417857Y-73027380D01*
X134370238Y-73503571D01*
X134417857Y-73455952D01*
X134513095Y-73408333D01*
X134751190Y-73408333D01*
X134846428Y-73455952D01*
X134894047Y-73503571D01*
X134941666Y-73598809D01*
X134941666Y-73836904D01*
X134894047Y-73932142D01*
X134846428Y-73979761D01*
X134751190Y-74027380D01*
X134513095Y-74027380D01*
X134417857Y-73979761D01*
X134370238Y-73932142D01*
X135560714Y-73027380D02*
X135655952Y-73027380D01*
X135751190Y-73075000D01*
X135798809Y-73122619D01*
X135846428Y-73217857D01*
X135894047Y-73408333D01*
X135894047Y-73646428D01*
X135846428Y-73836904D01*
X135798809Y-73932142D01*
X135751190Y-73979761D01*
X135655952Y-74027380D01*
X135560714Y-74027380D01*
X135465476Y-73979761D01*
X135417857Y-73932142D01*
X135370238Y-73836904D01*
X135322619Y-73646428D01*
X135322619Y-73408333D01*
X135370238Y-73217857D01*
X135417857Y-73122619D01*
X135465476Y-73075000D01*
X135560714Y-73027380D01*
X137417857Y-73503571D02*
X137560714Y-73551190D01*
X137608333Y-73598809D01*
X137655952Y-73694047D01*
X137655952Y-73836904D01*
X137608333Y-73932142D01*
X137560714Y-73979761D01*
X137465476Y-74027380D01*
X137084523Y-74027380D01*
X137084523Y-73027380D01*
X137417857Y-73027380D01*
X137513095Y-73075000D01*
X137560714Y-73122619D01*
X137608333Y-73217857D01*
X137608333Y-73313095D01*
X137560714Y-73408333D01*
X137513095Y-73455952D01*
X137417857Y-73503571D01*
X137084523Y-73503571D01*
X138036904Y-73741666D02*
X138513095Y-73741666D01*
X137941666Y-74027380D02*
X138275000Y-73027380D01*
X138608333Y-74027380D01*
X138798809Y-73027380D02*
X139370238Y-73027380D01*
X139084523Y-74027380D02*
X139084523Y-73027380D01*
X139560714Y-73027380D02*
X140132142Y-73027380D01*
X139846428Y-74027380D02*
X139846428Y-73027380D01*
X68528571Y-94453571D02*
X68861904Y-94453571D01*
X69004761Y-94977380D02*
X68528571Y-94977380D01*
X68528571Y-93977380D01*
X69004761Y-93977380D01*
X69338095Y-93977380D02*
X70004761Y-94977380D01*
X70004761Y-93977380D02*
X69338095Y-94977380D01*
X70242857Y-93977380D02*
X70814285Y-93977380D01*
X70528571Y-94977380D02*
X70528571Y-93977380D01*
X68480952Y-96103571D02*
X68623809Y-96151190D01*
X68671428Y-96198809D01*
X68719047Y-96294047D01*
X68719047Y-96436904D01*
X68671428Y-96532142D01*
X68623809Y-96579761D01*
X68528571Y-96627380D01*
X68147619Y-96627380D01*
X68147619Y-95627380D01*
X68480952Y-95627380D01*
X68576190Y-95675000D01*
X68623809Y-95722619D01*
X68671428Y-95817857D01*
X68671428Y-95913095D01*
X68623809Y-96008333D01*
X68576190Y-96055952D01*
X68480952Y-96103571D01*
X68147619Y-96103571D01*
X69100000Y-96341666D02*
X69576190Y-96341666D01*
X69004761Y-96627380D02*
X69338095Y-95627380D01*
X69671428Y-96627380D01*
X69861904Y-95627380D02*
X70433333Y-95627380D01*
X70147619Y-96627380D02*
X70147619Y-95627380D01*
X70623809Y-95627380D02*
X71195238Y-95627380D01*
X70909523Y-96627380D02*
X70909523Y-95627380D01*
X72147619Y-114922619D02*
X72147619Y-114446428D01*
X71671428Y-114398809D01*
X71719047Y-114446428D01*
X71766666Y-114541666D01*
X71766666Y-114779761D01*
X71719047Y-114875000D01*
X71671428Y-114922619D01*
X71576190Y-114970238D01*
X71338095Y-114970238D01*
X71242857Y-114922619D01*
X71195238Y-114875000D01*
X71147619Y-114779761D01*
X71147619Y-114541666D01*
X71195238Y-114446428D01*
X71242857Y-114398809D01*
X72147619Y-115255952D02*
X71147619Y-115589285D01*
X72147619Y-115922619D01*
X71147619Y-116255952D02*
X72147619Y-116255952D01*
X71147619Y-116732142D02*
X72147619Y-116732142D01*
X71147619Y-117303571D01*
X72147619Y-117303571D01*
X79597619Y-114377380D02*
X79121428Y-114377380D01*
X79073809Y-114853571D01*
X79121428Y-114805952D01*
X79216666Y-114758333D01*
X79454761Y-114758333D01*
X79550000Y-114805952D01*
X79597619Y-114853571D01*
X79645238Y-114948809D01*
X79645238Y-115186904D01*
X79597619Y-115282142D01*
X79550000Y-115329761D01*
X79454761Y-115377380D01*
X79216666Y-115377380D01*
X79121428Y-115329761D01*
X79073809Y-115282142D01*
X79930952Y-114377380D02*
X80264285Y-115377380D01*
X80597619Y-114377380D01*
X80930952Y-115377380D02*
X80930952Y-114377380D01*
X81407142Y-115377380D02*
X81407142Y-114377380D01*
X81978571Y-115377380D01*
X81978571Y-114377380D01*
X125651190Y-97227380D02*
X125651190Y-96227380D01*
X125651190Y-97179761D02*
X125555952Y-97227380D01*
X125365476Y-97227380D01*
X125270238Y-97179761D01*
X125222619Y-97132142D01*
X125175000Y-97036904D01*
X125175000Y-96751190D01*
X125222619Y-96655952D01*
X125270238Y-96608333D01*
X125365476Y-96560714D01*
X125555952Y-96560714D01*
X125651190Y-96608333D01*
X126127380Y-97227380D02*
X126127380Y-96560714D01*
X126127380Y-96655952D02*
X126175000Y-96608333D01*
X126270238Y-96560714D01*
X126413095Y-96560714D01*
X126508333Y-96608333D01*
X126555952Y-96703571D01*
X126555952Y-97227380D01*
X126555952Y-96703571D02*
X126603571Y-96608333D01*
X126698809Y-96560714D01*
X126841666Y-96560714D01*
X126936904Y-96608333D01*
X126984523Y-96703571D01*
X126984523Y-97227380D01*
X127365476Y-96560714D02*
X127603571Y-97227380D01*
X127841666Y-96560714D02*
X127603571Y-97227380D01*
X127508333Y-97465476D01*
X127460714Y-97513095D01*
X127365476Y-97560714D01*
X128079761Y-96560714D02*
X128460714Y-96560714D01*
X128222619Y-96227380D02*
X128222619Y-97084523D01*
X128270238Y-97179761D01*
X128365476Y-97227380D01*
X128460714Y-97227380D01*
X128794047Y-97227380D02*
X128794047Y-96560714D01*
X128794047Y-96751190D02*
X128841666Y-96655952D01*
X128889285Y-96608333D01*
X128984523Y-96560714D01*
X129079761Y-96560714D01*
X129555952Y-97227380D02*
X129460714Y-97179761D01*
X129413095Y-97132142D01*
X129365476Y-97036904D01*
X129365476Y-96751190D01*
X129413095Y-96655952D01*
X129460714Y-96608333D01*
X129555952Y-96560714D01*
X129698809Y-96560714D01*
X129794047Y-96608333D01*
X129841666Y-96655952D01*
X129889285Y-96751190D01*
X129889285Y-97036904D01*
X129841666Y-97132142D01*
X129794047Y-97179761D01*
X129698809Y-97227380D01*
X129555952Y-97227380D01*
X130698809Y-97179761D02*
X130603571Y-97227380D01*
X130413095Y-97227380D01*
X130317857Y-97179761D01*
X130270238Y-97084523D01*
X130270238Y-96703571D01*
X130317857Y-96608333D01*
X130413095Y-96560714D01*
X130603571Y-96560714D01*
X130698809Y-96608333D01*
X130746428Y-96703571D01*
X130746428Y-96798809D01*
X130270238Y-96894047D01*
X131175000Y-96560714D02*
X131175000Y-97227380D01*
X131175000Y-96655952D02*
X131222619Y-96608333D01*
X131317857Y-96560714D01*
X131460714Y-96560714D01*
X131555952Y-96608333D01*
X131603571Y-96703571D01*
X131603571Y-97227380D01*
X132508333Y-96560714D02*
X132508333Y-97370238D01*
X132460714Y-97465476D01*
X132413095Y-97513095D01*
X132317857Y-97560714D01*
X132175000Y-97560714D01*
X132079761Y-97513095D01*
X132508333Y-97179761D02*
X132413095Y-97227380D01*
X132222619Y-97227380D01*
X132127380Y-97179761D01*
X132079761Y-97132142D01*
X132032142Y-97036904D01*
X132032142Y-96751190D01*
X132079761Y-96655952D01*
X132127380Y-96608333D01*
X132222619Y-96560714D01*
X132413095Y-96560714D01*
X132508333Y-96608333D01*
X132984523Y-97227380D02*
X132984523Y-96560714D01*
X132984523Y-96227380D02*
X132936904Y-96275000D01*
X132984523Y-96322619D01*
X133032142Y-96275000D01*
X132984523Y-96227380D01*
X132984523Y-96322619D01*
X133460714Y-96560714D02*
X133460714Y-97227380D01*
X133460714Y-96655952D02*
X133508333Y-96608333D01*
X133603571Y-96560714D01*
X133746428Y-96560714D01*
X133841666Y-96608333D01*
X133889285Y-96703571D01*
X133889285Y-97227380D01*
X134746428Y-97179761D02*
X134651190Y-97227380D01*
X134460714Y-97227380D01*
X134365476Y-97179761D01*
X134317857Y-97084523D01*
X134317857Y-96703571D01*
X134365476Y-96608333D01*
X134460714Y-96560714D01*
X134651190Y-96560714D01*
X134746428Y-96608333D01*
X134794047Y-96703571D01*
X134794047Y-96798809D01*
X134317857Y-96894047D01*
X135603571Y-97179761D02*
X135508333Y-97227380D01*
X135317857Y-97227380D01*
X135222619Y-97179761D01*
X135175000Y-97084523D01*
X135175000Y-96703571D01*
X135222619Y-96608333D01*
X135317857Y-96560714D01*
X135508333Y-96560714D01*
X135603571Y-96608333D01*
X135651190Y-96703571D01*
X135651190Y-96798809D01*
X135175000Y-96894047D01*
X136079761Y-97227380D02*
X136079761Y-96560714D01*
X136079761Y-96751190D02*
X136127380Y-96655952D01*
X136175000Y-96608333D01*
X136270238Y-96560714D01*
X136365476Y-96560714D01*
X136698809Y-97227380D02*
X136698809Y-96560714D01*
X136698809Y-96227380D02*
X136651190Y-96275000D01*
X136698809Y-96322619D01*
X136746428Y-96275000D01*
X136698809Y-96227380D01*
X136698809Y-96322619D01*
X137175000Y-96560714D02*
X137175000Y-97227380D01*
X137175000Y-96655952D02*
X137222619Y-96608333D01*
X137317857Y-96560714D01*
X137460714Y-96560714D01*
X137555952Y-96608333D01*
X137603571Y-96703571D01*
X137603571Y-97227380D01*
X138508333Y-96560714D02*
X138508333Y-97370238D01*
X138460714Y-97465476D01*
X138413095Y-97513095D01*
X138317857Y-97560714D01*
X138175000Y-97560714D01*
X138079761Y-97513095D01*
X138508333Y-97179761D02*
X138413095Y-97227380D01*
X138222619Y-97227380D01*
X138127380Y-97179761D01*
X138079761Y-97132142D01*
X138032142Y-97036904D01*
X138032142Y-96751190D01*
X138079761Y-96655952D01*
X138127380Y-96608333D01*
X138222619Y-96560714D01*
X138413095Y-96560714D01*
X138508333Y-96608333D01*
X138984523Y-97132142D02*
X139032142Y-97179761D01*
X138984523Y-97227380D01*
X138936904Y-97179761D01*
X138984523Y-97132142D01*
X138984523Y-97227380D01*
X139889285Y-97179761D02*
X139794047Y-97227380D01*
X139603571Y-97227380D01*
X139508333Y-97179761D01*
X139460714Y-97132142D01*
X139413095Y-97036904D01*
X139413095Y-96751190D01*
X139460714Y-96655952D01*
X139508333Y-96608333D01*
X139603571Y-96560714D01*
X139794047Y-96560714D01*
X139889285Y-96608333D01*
X140460714Y-97227380D02*
X140365476Y-97179761D01*
X140317857Y-97132142D01*
X140270238Y-97036904D01*
X140270238Y-96751190D01*
X140317857Y-96655952D01*
X140365476Y-96608333D01*
X140460714Y-96560714D01*
X140603571Y-96560714D01*
X140698809Y-96608333D01*
X140746428Y-96655952D01*
X140794047Y-96751190D01*
X140794047Y-97036904D01*
X140746428Y-97132142D01*
X140698809Y-97179761D01*
X140603571Y-97227380D01*
X140460714Y-97227380D01*
X141222619Y-97227380D02*
X141222619Y-96560714D01*
X141222619Y-96655952D02*
X141270238Y-96608333D01*
X141365476Y-96560714D01*
X141508333Y-96560714D01*
X141603571Y-96608333D01*
X141651190Y-96703571D01*
X141651190Y-97227380D01*
X141651190Y-96703571D02*
X141698809Y-96608333D01*
X141794047Y-96560714D01*
X141936904Y-96560714D01*
X142032142Y-96608333D01*
X142079761Y-96703571D01*
X142079761Y-97227380D01*
X143270238Y-96179761D02*
X142413095Y-97465476D01*
X143603571Y-96560714D02*
X143603571Y-97560714D01*
X143603571Y-96608333D02*
X143698809Y-96560714D01*
X143889285Y-96560714D01*
X143984523Y-96608333D01*
X144032142Y-96655952D01*
X144079761Y-96751190D01*
X144079761Y-97036904D01*
X144032142Y-97132142D01*
X143984523Y-97179761D01*
X143889285Y-97227380D01*
X143698809Y-97227380D01*
X143603571Y-97179761D01*
X144508333Y-97227380D02*
X144508333Y-96560714D01*
X144508333Y-96227380D02*
X144460714Y-96275000D01*
X144508333Y-96322619D01*
X144555952Y-96275000D01*
X144508333Y-96227380D01*
X144508333Y-96322619D01*
X145413095Y-96560714D02*
X145413095Y-97227380D01*
X144984523Y-96560714D02*
X144984523Y-97084523D01*
X145032142Y-97179761D01*
X145127380Y-97227380D01*
X145270238Y-97227380D01*
X145365476Y-97179761D01*
X145413095Y-97132142D01*
X145889285Y-96560714D02*
X145889285Y-97560714D01*
X145889285Y-96608333D02*
X145984523Y-96560714D01*
X146175000Y-96560714D01*
X146270238Y-96608333D01*
X146317857Y-96655952D01*
X146365476Y-96751190D01*
X146365476Y-97036904D01*
X146317857Y-97132142D01*
X146270238Y-97179761D01*
X146175000Y-97227380D01*
X145984523Y-97227380D01*
X145889285Y-97179761D01*
X146746428Y-97179761D02*
X146841666Y-97227380D01*
X147032142Y-97227380D01*
X147127380Y-97179761D01*
X147175000Y-97084523D01*
X147175000Y-97036904D01*
X147127380Y-96941666D01*
X147032142Y-96894047D01*
X146889285Y-96894047D01*
X146794047Y-96846428D01*
X146746428Y-96751190D01*
X146746428Y-96703571D01*
X146794047Y-96608333D01*
X146889285Y-96560714D01*
X147032142Y-96560714D01*
X147127380Y-96608333D01*
X144308333Y-99602380D02*
X144308333Y-98602380D01*
X144546428Y-98602380D01*
X144689285Y-98650000D01*
X144784523Y-98745238D01*
X144832142Y-98840476D01*
X144879761Y-99030952D01*
X144879761Y-99173809D01*
X144832142Y-99364285D01*
X144784523Y-99459523D01*
X144689285Y-99554761D01*
X144546428Y-99602380D01*
X144308333Y-99602380D01*
X145308333Y-99602380D02*
X145308333Y-98602380D01*
X145546428Y-98602380D01*
X145689285Y-98650000D01*
X145784523Y-98745238D01*
X145832142Y-98840476D01*
X145879761Y-99030952D01*
X145879761Y-99173809D01*
X145832142Y-99364285D01*
X145784523Y-99459523D01*
X145689285Y-99554761D01*
X145546428Y-99602380D01*
X145308333Y-99602380D01*
X146784523Y-99602380D02*
X146308333Y-99602380D01*
X146308333Y-98602380D01*
X147879761Y-99602380D02*
X147879761Y-98602380D01*
X148260714Y-98602380D01*
X148355952Y-98650000D01*
X148403571Y-98697619D01*
X148451190Y-98792857D01*
X148451190Y-98935714D01*
X148403571Y-99030952D01*
X148355952Y-99078571D01*
X148260714Y-99126190D01*
X147879761Y-99126190D01*
X148879761Y-99602380D02*
X148879761Y-98602380D01*
X150117857Y-98602380D02*
X150117857Y-99411904D01*
X150165476Y-99507142D01*
X150213095Y-99554761D01*
X150308333Y-99602380D01*
X150498809Y-99602380D01*
X150594047Y-99554761D01*
X150641666Y-99507142D01*
X150689285Y-99411904D01*
X150689285Y-98602380D01*
X151165476Y-99602380D02*
X151165476Y-98602380D01*
X151546428Y-98602380D01*
X151641666Y-98650000D01*
X151689285Y-98697619D01*
X151736904Y-98792857D01*
X151736904Y-98935714D01*
X151689285Y-99030952D01*
X151641666Y-99078571D01*
X151546428Y-99126190D01*
X151165476Y-99126190D01*
X152117857Y-99554761D02*
X152260714Y-99602380D01*
X152498809Y-99602380D01*
X152594047Y-99554761D01*
X152641666Y-99507142D01*
X152689285Y-99411904D01*
X152689285Y-99316666D01*
X152641666Y-99221428D01*
X152594047Y-99173809D01*
X152498809Y-99126190D01*
X152308333Y-99078571D01*
X152213095Y-99030952D01*
X152165476Y-98983333D01*
X152117857Y-98888095D01*
X152117857Y-98792857D01*
X152165476Y-98697619D01*
X152213095Y-98650000D01*
X152308333Y-98602380D01*
X152546428Y-98602380D01*
X152689285Y-98650000D01*
X146022619Y-101252380D02*
X146022619Y-100585714D01*
X146022619Y-100776190D02*
X146070238Y-100680952D01*
X146117857Y-100633333D01*
X146213095Y-100585714D01*
X146308333Y-100585714D01*
X147022619Y-101204761D02*
X146927380Y-101252380D01*
X146736904Y-101252380D01*
X146641666Y-101204761D01*
X146594047Y-101109523D01*
X146594047Y-100728571D01*
X146641666Y-100633333D01*
X146736904Y-100585714D01*
X146927380Y-100585714D01*
X147022619Y-100633333D01*
X147070238Y-100728571D01*
X147070238Y-100823809D01*
X146594047Y-100919047D01*
X147403571Y-100585714D02*
X147641666Y-101252380D01*
X147879761Y-100585714D01*
X149213095Y-100252380D02*
X149308333Y-100252380D01*
X149403571Y-100300000D01*
X149451190Y-100347619D01*
X149498809Y-100442857D01*
X149546428Y-100633333D01*
X149546428Y-100871428D01*
X149498809Y-101061904D01*
X149451190Y-101157142D01*
X149403571Y-101204761D01*
X149308333Y-101252380D01*
X149213095Y-101252380D01*
X149117857Y-101204761D01*
X149070238Y-101157142D01*
X149022619Y-101061904D01*
X148975000Y-100871428D01*
X148975000Y-100633333D01*
X149022619Y-100442857D01*
X149070238Y-100347619D01*
X149117857Y-100300000D01*
X149213095Y-100252380D01*
X149975000Y-101157142D02*
X150022619Y-101204761D01*
X149975000Y-101252380D01*
X149927380Y-101204761D01*
X149975000Y-101157142D01*
X149975000Y-101252380D01*
X150403571Y-100347619D02*
X150451190Y-100300000D01*
X150546428Y-100252380D01*
X150784523Y-100252380D01*
X150879761Y-100300000D01*
X150927380Y-100347619D01*
X150975000Y-100442857D01*
X150975000Y-100538095D01*
X150927380Y-100680952D01*
X150355952Y-101252380D01*
X150975000Y-101252380D01*
D12*
X141456250Y-68758750D02*
X141456250Y-69546250D01*
X141062500Y-69152500D02*
X141850000Y-69152500D01*
X142090000Y-73345563D02*
X143154437Y-74410000D01*
X142090000Y-68654437D02*
X143154437Y-67590000D01*
X142090000Y-68654437D02*
X142090000Y-69940000D01*
X142090000Y-73345563D02*
X142090000Y-72060000D01*
X143154437Y-74410000D02*
X148910000Y-74410000D01*
X143154437Y-67590000D02*
X148910000Y-67590000D01*
X148910000Y-67590000D02*
X148910000Y-69940000D01*
X148910000Y-74410000D02*
X148910000Y-72060000D01*
X135115000Y-123125000D02*
X136365000Y-123125000D01*
X135740000Y-123750000D02*
X135740000Y-122500000D01*
X142695563Y-122260000D02*
X143760000Y-121195563D01*
X134304437Y-122260000D02*
X133240000Y-121195563D01*
X134304437Y-122260000D02*
X136990000Y-122260000D01*
X142695563Y-122260000D02*
X140010000Y-122260000D01*
X143760000Y-121195563D02*
X143760000Y-111740000D01*
X133240000Y-121195563D02*
X133240000Y-111740000D01*
X133240000Y-111740000D02*
X136990000Y-111740000D01*
X143760000Y-111740000D02*
X140010000Y-111740000D01*
X153110000Y-115000000D02*
X150760000Y-115000000D01*
X146290000Y-115000000D02*
X148640000Y-115000000D01*
X146290000Y-120755563D02*
X146290000Y-115000000D01*
X153110000Y-120755563D02*
X153110000Y-115000000D01*
X152045563Y-121820000D02*
X150760000Y-121820000D01*
X147354437Y-121820000D02*
X148640000Y-121820000D01*
X147354437Y-121820000D02*
X146290000Y-120755563D01*
X152045563Y-121820000D02*
X153110000Y-120755563D01*
X147852500Y-122847500D02*
X147852500Y-122060000D01*
X147458750Y-122453750D02*
X148246250Y-122453750D01*
X142290000Y-108648752D02*
X142290000Y-107226248D01*
X145010000Y-108648752D02*
X145010000Y-107226248D01*
X138990000Y-108648752D02*
X138990000Y-107226248D01*
X141710000Y-108648752D02*
X141710000Y-107226248D01*
X135705000Y-108648752D02*
X135705000Y-107226248D01*
X138425000Y-108648752D02*
X138425000Y-107226248D01*
D14*
X132525000Y-103025000D02*
G75*
G03*
X132525000Y-103025000I-100000J0D01*
G01*
D15*
X134925000Y-108275000D02*
X134925000Y-108125000D01*
X134275000Y-108275000D02*
X134925000Y-108275000D01*
X131425000Y-108275000D02*
X132075000Y-108275000D01*
X131425000Y-108125000D02*
X131425000Y-108275000D01*
X134925000Y-103775000D02*
X134925000Y-103925000D01*
X134275000Y-103775000D02*
X134925000Y-103775000D01*
X131425000Y-103775000D02*
X132075000Y-103775000D01*
X131425000Y-103925000D02*
X131425000Y-103775000D01*
D12*
X85040000Y-109590000D02*
X84565000Y-109590000D01*
X88785000Y-113810000D02*
X88785000Y-113335000D01*
X88310000Y-113810000D02*
X88785000Y-113810000D01*
X84565000Y-113810000D02*
X84565000Y-113335000D01*
X85040000Y-113810000D02*
X84565000Y-113810000D01*
X88785000Y-109590000D02*
X88785000Y-110065000D01*
X88310000Y-109590000D02*
X88785000Y-109590000D01*
X123825000Y-110225000D02*
X123825000Y-111225000D01*
X122825000Y-110225000D02*
X123825000Y-110225000D01*
X121825000Y-112225000D02*
X119225000Y-112225000D01*
X121825000Y-118425000D02*
X119225000Y-118425000D01*
X117275000Y-118325000D02*
X117275000Y-112325000D01*
X123775000Y-118225000D02*
X123775000Y-112425000D01*
X107785000Y-106277064D02*
X107785000Y-105822936D01*
X106315000Y-106277064D02*
X106315000Y-105822936D01*
X108315000Y-105822936D02*
X108315000Y-106277064D01*
X109785000Y-105822936D02*
X109785000Y-106277064D01*
X110315000Y-105822936D02*
X110315000Y-106277064D01*
X111785000Y-105822936D02*
X111785000Y-106277064D01*
X111622936Y-109685000D02*
X112077064Y-109685000D01*
X111622936Y-108215000D02*
X112077064Y-108215000D01*
X108277064Y-108215000D02*
X107822936Y-108215000D01*
X108277064Y-109685000D02*
X107822936Y-109685000D01*
X139940000Y-102572936D02*
X139940000Y-103027064D01*
X141410000Y-102572936D02*
X141410000Y-103027064D01*
X135940000Y-102572936D02*
X135940000Y-103027064D01*
X137410000Y-102572936D02*
X137410000Y-103027064D01*
X145752064Y-102965000D02*
X145297936Y-102965000D01*
X145752064Y-104435000D02*
X145297936Y-104435000D01*
X143385000Y-103027064D02*
X143385000Y-102572936D01*
X141915000Y-103027064D02*
X141915000Y-102572936D01*
X128835000Y-102052064D02*
X128835000Y-101597936D01*
X127365000Y-102052064D02*
X127365000Y-101597936D01*
X86827064Y-121065000D02*
X86372936Y-121065000D01*
X86827064Y-122535000D02*
X86372936Y-122535000D01*
X86827064Y-119065000D02*
X86372936Y-119065000D01*
X86827064Y-120535000D02*
X86372936Y-120535000D01*
X94085000Y-120377064D02*
X94085000Y-119922936D01*
X92615000Y-120377064D02*
X92615000Y-119922936D01*
X94085000Y-116577064D02*
X94085000Y-116122936D01*
X92615000Y-116577064D02*
X92615000Y-116122936D01*
X91535000Y-121127064D02*
X91535000Y-120672936D01*
X90065000Y-121127064D02*
X90065000Y-120672936D01*
X85765000Y-116572936D02*
X85765000Y-117027064D01*
X87235000Y-116572936D02*
X87235000Y-117027064D01*
X79472936Y-114135000D02*
X79927064Y-114135000D01*
X79472936Y-112665000D02*
X79927064Y-112665000D01*
X79472936Y-112135000D02*
X79927064Y-112135000D01*
X79472936Y-110665000D02*
X79927064Y-110665000D01*
X73927064Y-108265000D02*
X73472936Y-108265000D01*
X73927064Y-109735000D02*
X73472936Y-109735000D01*
X113975000Y-107075000D02*
X113975000Y-103875000D01*
X124575000Y-107075000D02*
X113975000Y-107075000D01*
X124575000Y-103875000D02*
X124575000Y-107075000D01*
X124575000Y-96475000D02*
X124575000Y-99675000D01*
X113975000Y-96475000D02*
X124575000Y-96475000D01*
X113975000Y-99675000D02*
X113975000Y-96475000D01*
X100450000Y-100600000D02*
X100450000Y-103800000D01*
X89850000Y-100600000D02*
X100450000Y-100600000D01*
X89850000Y-103800000D02*
X89850000Y-100600000D01*
X89850000Y-111200000D02*
X89850000Y-108000000D01*
X100450000Y-111200000D02*
X89850000Y-111200000D01*
X100450000Y-108000000D02*
X100450000Y-111200000D01*
X113700000Y-110600000D02*
X102850000Y-110600000D01*
X113700000Y-115700000D02*
X113700000Y-110600000D01*
X113200000Y-115400000D02*
X113700000Y-115700000D01*
X113200000Y-120800000D02*
X113200000Y-115400000D01*
X113700000Y-120550000D02*
X113200000Y-120800000D01*
X113700000Y-120600000D02*
X113700000Y-120550000D01*
X113700000Y-122500000D02*
X113700000Y-120600000D01*
X113200000Y-122250000D02*
X113700000Y-122500000D01*
X113200000Y-123200000D02*
X113200000Y-122250000D01*
X102850000Y-123200000D02*
X113200000Y-123200000D01*
X102850000Y-110600000D02*
X102850000Y-123200000D01*
X101009560Y-124503660D02*
X115509560Y-124503660D01*
X115509560Y-124503660D02*
X115509560Y-124003660D01*
X115509560Y-124003660D02*
X114509560Y-124003660D01*
X114509560Y-124003660D02*
X114509560Y-116003660D01*
X114509560Y-112503660D02*
X114509560Y-110503660D01*
X114509560Y-110503660D02*
X102009560Y-110503660D01*
X102009560Y-110503660D02*
X102009560Y-112503660D01*
X102009560Y-116003660D02*
X102009560Y-124003660D01*
X102009560Y-124003660D02*
X101009560Y-124003660D01*
X101009560Y-124003660D02*
X101009560Y-124503660D01*
X104259560Y-110253660D02*
X105259560Y-110253660D01*
X79350400Y-107728620D02*
X79350400Y-96878620D01*
X74250400Y-107728620D02*
X79350400Y-107728620D01*
X74550400Y-107228620D02*
X74250400Y-107728620D01*
X69150400Y-107228620D02*
X74550400Y-107228620D01*
X69400400Y-107728620D02*
X69150400Y-107228620D01*
X69350400Y-107728620D02*
X69400400Y-107728620D01*
X67450400Y-107728620D02*
X69350400Y-107728620D01*
X67700400Y-107228620D02*
X67450400Y-107728620D01*
X66750400Y-107228620D02*
X67700400Y-107228620D01*
X66750400Y-96878620D02*
X66750400Y-107228620D01*
X79350400Y-96878620D02*
X66750400Y-96878620D01*
X71471180Y-110823180D02*
X71081180Y-110823180D01*
X71471180Y-110823180D02*
X71471180Y-111273180D01*
X70771180Y-116393180D02*
X70771180Y-115743180D01*
X69041180Y-116393180D02*
X70771180Y-116393180D01*
X66471180Y-108773180D02*
X66681180Y-108773180D01*
X66471180Y-116393180D02*
X66681180Y-116393180D01*
X69041180Y-108773180D02*
X70771180Y-108773180D01*
X70771180Y-108773180D02*
X70771180Y-109433180D01*
X73819880Y-118379400D02*
X73819880Y-120179400D01*
X73819880Y-123889400D02*
X73819880Y-122429400D01*
X82759880Y-123889400D02*
X82759880Y-122429400D01*
X82759880Y-118379400D02*
X82759880Y-120179400D01*
X82759880Y-123889400D02*
X73819880Y-123889400D01*
X102350000Y-105393748D02*
X102350000Y-108166252D01*
X105770000Y-105393748D02*
X105770000Y-108166252D01*
X96286252Y-96590000D02*
X93513748Y-96590000D01*
X96286252Y-100010000D02*
X93513748Y-100010000D01*
X87552500Y-116760000D02*
X90237500Y-116760000D01*
X87552500Y-114840000D02*
X87552500Y-116760000D01*
X90237500Y-114840000D02*
X87552500Y-114840000D01*
X87552500Y-118760000D02*
X90237500Y-118760000D01*
X87552500Y-116840000D02*
X87552500Y-118760000D01*
X90237500Y-116840000D02*
X87552500Y-116840000D01*
X141351248Y-100635000D02*
X141873752Y-100635000D01*
X141351248Y-99165000D02*
X141873752Y-99165000D01*
X139410000Y-103023752D02*
X139410000Y-102501248D01*
X137940000Y-103023752D02*
X137940000Y-102501248D01*
X132451248Y-102410000D02*
X133873752Y-102410000D01*
X132451248Y-100590000D02*
X133873752Y-100590000D01*
X133011248Y-110515000D02*
X133533752Y-110515000D01*
X133011248Y-109045000D02*
X133533752Y-109045000D01*
X125615000Y-106626248D02*
X125615000Y-107148752D01*
X127085000Y-106626248D02*
X127085000Y-107148752D01*
X126390000Y-110601248D02*
X126390000Y-112023752D01*
X128210000Y-110601248D02*
X128210000Y-112023752D01*
X124365000Y-110451248D02*
X124365000Y-110973752D01*
X125835000Y-110451248D02*
X125835000Y-110973752D01*
X128790000Y-110601248D02*
X128790000Y-112023752D01*
X130610000Y-110601248D02*
X130610000Y-112023752D01*
X153060000Y-112923752D02*
X153060000Y-111501248D01*
X151240000Y-112923752D02*
X151240000Y-111501248D01*
X150635000Y-111873752D02*
X150635000Y-111351248D01*
X149165000Y-111873752D02*
X149165000Y-111351248D01*
X79840000Y-99926248D02*
X79840000Y-101348752D01*
X81660000Y-99926248D02*
X81660000Y-101348752D01*
X97661252Y-114090000D02*
X96238748Y-114090000D01*
X97661252Y-115910000D02*
X96238748Y-115910000D01*
X97648752Y-111690000D02*
X96226248Y-111690000D01*
X97648752Y-113510000D02*
X96226248Y-113510000D01*
X82798752Y-103465000D02*
X81376248Y-103465000D01*
X82798752Y-105285000D02*
X81376248Y-105285000D01*
X87123752Y-104365000D02*
X86601248Y-104365000D01*
X87123752Y-105835000D02*
X86601248Y-105835000D01*
X75973752Y-113290000D02*
X74551248Y-113290000D01*
X75973752Y-115110000D02*
X74551248Y-115110000D01*
X81376248Y-107660000D02*
X82798752Y-107660000D01*
X81376248Y-105840000D02*
X82798752Y-105840000D01*
X67600000Y-80650000D02*
X67600000Y-78150000D01*
X66350000Y-79400000D02*
X68850000Y-79400000D01*
X153850000Y-79400000D02*
X151350000Y-79400000D01*
X148740000Y-81960000D02*
X148740000Y-74980000D01*
X148740000Y-74960000D02*
X71460000Y-74960000D01*
X71460000Y-74960000D02*
X71460000Y-81960000D01*
X148740000Y-88840000D02*
X148740000Y-95840000D01*
X148740000Y-95840000D02*
X71460000Y-95840000D01*
X71460000Y-95840000D02*
X71460000Y-88840000D01*
X71460000Y-81960000D02*
X67100000Y-81960000D01*
D13*
X149857142Y-73057142D02*
X149809523Y-73104761D01*
X149666666Y-73152380D01*
X149571428Y-73152380D01*
X149428571Y-73104761D01*
X149333333Y-73009523D01*
X149285714Y-72914285D01*
X149238095Y-72723809D01*
X149238095Y-72580952D01*
X149285714Y-72390476D01*
X149333333Y-72295238D01*
X149428571Y-72200000D01*
X149571428Y-72152380D01*
X149666666Y-72152380D01*
X149809523Y-72200000D01*
X149857142Y-72247619D01*
X150238095Y-72247619D02*
X150285714Y-72200000D01*
X150380952Y-72152380D01*
X150619047Y-72152380D01*
X150714285Y-72200000D01*
X150761904Y-72247619D01*
X150809523Y-72342857D01*
X150809523Y-72438095D01*
X150761904Y-72580952D01*
X150190476Y-73152380D01*
X150809523Y-73152380D01*
X151190476Y-72247619D02*
X151238095Y-72200000D01*
X151333333Y-72152380D01*
X151571428Y-72152380D01*
X151666666Y-72200000D01*
X151714285Y-72247619D01*
X151761904Y-72342857D01*
X151761904Y-72438095D01*
X151714285Y-72580952D01*
X151142857Y-73152380D01*
X151761904Y-73152380D01*
X132057142Y-122957142D02*
X132009523Y-123004761D01*
X131866666Y-123052380D01*
X131771428Y-123052380D01*
X131628571Y-123004761D01*
X131533333Y-122909523D01*
X131485714Y-122814285D01*
X131438095Y-122623809D01*
X131438095Y-122480952D01*
X131485714Y-122290476D01*
X131533333Y-122195238D01*
X131628571Y-122100000D01*
X131771428Y-122052380D01*
X131866666Y-122052380D01*
X132009523Y-122100000D01*
X132057142Y-122147619D01*
X132438095Y-122147619D02*
X132485714Y-122100000D01*
X132580952Y-122052380D01*
X132819047Y-122052380D01*
X132914285Y-122100000D01*
X132961904Y-122147619D01*
X133009523Y-122242857D01*
X133009523Y-122338095D01*
X132961904Y-122480952D01*
X132390476Y-123052380D01*
X133009523Y-123052380D01*
X133961904Y-123052380D02*
X133390476Y-123052380D01*
X133676190Y-123052380D02*
X133676190Y-122052380D01*
X133580952Y-122195238D01*
X133485714Y-122290476D01*
X133390476Y-122338095D01*
D11*
X147414285Y-114664285D02*
X147385714Y-114692857D01*
X147300000Y-114721428D01*
X147242857Y-114721428D01*
X147157142Y-114692857D01*
X147100000Y-114635714D01*
X147071428Y-114578571D01*
X147042857Y-114464285D01*
X147042857Y-114378571D01*
X147071428Y-114264285D01*
X147100000Y-114207142D01*
X147157142Y-114150000D01*
X147242857Y-114121428D01*
X147300000Y-114121428D01*
X147385714Y-114150000D01*
X147414285Y-114178571D01*
X147642857Y-114178571D02*
X147671428Y-114150000D01*
X147728571Y-114121428D01*
X147871428Y-114121428D01*
X147928571Y-114150000D01*
X147957142Y-114178571D01*
X147985714Y-114235714D01*
X147985714Y-114292857D01*
X147957142Y-114378571D01*
X147614285Y-114721428D01*
X147985714Y-114721428D01*
X148185714Y-114121428D02*
X148557142Y-114121428D01*
X148357142Y-114350000D01*
X148442857Y-114350000D01*
X148500000Y-114378571D01*
X148528571Y-114407142D01*
X148557142Y-114464285D01*
X148557142Y-114607142D01*
X148528571Y-114664285D01*
X148500000Y-114692857D01*
X148442857Y-114721428D01*
X148271428Y-114721428D01*
X148214285Y-114692857D01*
X148185714Y-114664285D01*
X143824285Y-111145000D02*
X143852857Y-111173571D01*
X143881428Y-111259285D01*
X143881428Y-111316428D01*
X143852857Y-111402142D01*
X143795714Y-111459285D01*
X143738571Y-111487857D01*
X143624285Y-111516428D01*
X143538571Y-111516428D01*
X143424285Y-111487857D01*
X143367142Y-111459285D01*
X143310000Y-111402142D01*
X143281428Y-111316428D01*
X143281428Y-111259285D01*
X143310000Y-111173571D01*
X143338571Y-111145000D01*
X143281428Y-110945000D02*
X143281428Y-110545000D01*
X143881428Y-110802142D01*
X140714285Y-111095000D02*
X140742857Y-111123571D01*
X140771428Y-111209285D01*
X140771428Y-111266428D01*
X140742857Y-111352142D01*
X140685714Y-111409285D01*
X140628571Y-111437857D01*
X140514285Y-111466428D01*
X140428571Y-111466428D01*
X140314285Y-111437857D01*
X140257142Y-111409285D01*
X140200000Y-111352142D01*
X140171428Y-111266428D01*
X140171428Y-111209285D01*
X140200000Y-111123571D01*
X140228571Y-111095000D01*
X140171428Y-110580714D02*
X140171428Y-110695000D01*
X140200000Y-110752142D01*
X140228571Y-110780714D01*
X140314285Y-110837857D01*
X140428571Y-110866428D01*
X140657142Y-110866428D01*
X140714285Y-110837857D01*
X140742857Y-110809285D01*
X140771428Y-110752142D01*
X140771428Y-110637857D01*
X140742857Y-110580714D01*
X140714285Y-110552142D01*
X140657142Y-110523571D01*
X140514285Y-110523571D01*
X140457142Y-110552142D01*
X140428571Y-110580714D01*
X140400000Y-110637857D01*
X140400000Y-110752142D01*
X140428571Y-110809285D01*
X140457142Y-110837857D01*
X140514285Y-110866428D01*
X136814285Y-111100000D02*
X136842857Y-111128571D01*
X136871428Y-111214285D01*
X136871428Y-111271428D01*
X136842857Y-111357142D01*
X136785714Y-111414285D01*
X136728571Y-111442857D01*
X136614285Y-111471428D01*
X136528571Y-111471428D01*
X136414285Y-111442857D01*
X136357142Y-111414285D01*
X136300000Y-111357142D01*
X136271428Y-111271428D01*
X136271428Y-111214285D01*
X136300000Y-111128571D01*
X136328571Y-111100000D01*
X136271428Y-110557142D02*
X136271428Y-110842857D01*
X136557142Y-110871428D01*
X136528571Y-110842857D01*
X136500000Y-110785714D01*
X136500000Y-110642857D01*
X136528571Y-110585714D01*
X136557142Y-110557142D01*
X136614285Y-110528571D01*
X136757142Y-110528571D01*
X136814285Y-110557142D01*
X136842857Y-110585714D01*
X136871428Y-110642857D01*
X136871428Y-110785714D01*
X136842857Y-110842857D01*
X136814285Y-110871428D01*
X129942857Y-102971428D02*
X129942857Y-103457142D01*
X129971428Y-103514285D01*
X130000000Y-103542857D01*
X130057142Y-103571428D01*
X130171428Y-103571428D01*
X130228571Y-103542857D01*
X130257142Y-103514285D01*
X130285714Y-103457142D01*
X130285714Y-102971428D01*
X130514285Y-102971428D02*
X130885714Y-102971428D01*
X130685714Y-103200000D01*
X130771428Y-103200000D01*
X130828571Y-103228571D01*
X130857142Y-103257142D01*
X130885714Y-103314285D01*
X130885714Y-103457142D01*
X130857142Y-103514285D01*
X130828571Y-103542857D01*
X130771428Y-103571428D01*
X130600000Y-103571428D01*
X130542857Y-103542857D01*
X130514285Y-103514285D01*
X84242857Y-108321428D02*
X84242857Y-108807142D01*
X84271428Y-108864285D01*
X84300000Y-108892857D01*
X84357142Y-108921428D01*
X84471428Y-108921428D01*
X84528571Y-108892857D01*
X84557142Y-108864285D01*
X84585714Y-108807142D01*
X84585714Y-108321428D01*
X84842857Y-108378571D02*
X84871428Y-108350000D01*
X84928571Y-108321428D01*
X85071428Y-108321428D01*
X85128571Y-108350000D01*
X85157142Y-108378571D01*
X85185714Y-108435714D01*
X85185714Y-108492857D01*
X85157142Y-108578571D01*
X84814285Y-108921428D01*
X85185714Y-108921428D01*
X124692857Y-116150000D02*
X124721428Y-116064285D01*
X124721428Y-115921428D01*
X124692857Y-115864285D01*
X124664285Y-115835714D01*
X124607142Y-115807142D01*
X124550000Y-115807142D01*
X124492857Y-115835714D01*
X124464285Y-115864285D01*
X124435714Y-115921428D01*
X124407142Y-116035714D01*
X124378571Y-116092857D01*
X124350000Y-116121428D01*
X124292857Y-116150000D01*
X124235714Y-116150000D01*
X124178571Y-116121428D01*
X124150000Y-116092857D01*
X124121428Y-116035714D01*
X124121428Y-115892857D01*
X124150000Y-115807142D01*
X124121428Y-115607142D02*
X124721428Y-115464285D01*
X124292857Y-115350000D01*
X124721428Y-115235714D01*
X124121428Y-115092857D01*
X124178571Y-114892857D02*
X124150000Y-114864285D01*
X124121428Y-114807142D01*
X124121428Y-114664285D01*
X124150000Y-114607142D01*
X124178571Y-114578571D01*
X124235714Y-114550000D01*
X124292857Y-114550000D01*
X124378571Y-114578571D01*
X124721428Y-114921428D01*
X124721428Y-114550000D01*
X107321428Y-103685714D02*
X107035714Y-103885714D01*
X107321428Y-104028571D02*
X106721428Y-104028571D01*
X106721428Y-103800000D01*
X106750000Y-103742857D01*
X106778571Y-103714285D01*
X106835714Y-103685714D01*
X106921428Y-103685714D01*
X106978571Y-103714285D01*
X107007142Y-103742857D01*
X107035714Y-103800000D01*
X107035714Y-104028571D01*
X106778571Y-103457142D02*
X106750000Y-103428571D01*
X106721428Y-103371428D01*
X106721428Y-103228571D01*
X106750000Y-103171428D01*
X106778571Y-103142857D01*
X106835714Y-103114285D01*
X106892857Y-103114285D01*
X106978571Y-103142857D01*
X107321428Y-103485714D01*
X107321428Y-103114285D01*
X107321428Y-102542857D02*
X107321428Y-102885714D01*
X107321428Y-102714285D02*
X106721428Y-102714285D01*
X106807142Y-102771428D01*
X106864285Y-102828571D01*
X106892857Y-102885714D01*
X109321428Y-103685714D02*
X109035714Y-103885714D01*
X109321428Y-104028571D02*
X108721428Y-104028571D01*
X108721428Y-103800000D01*
X108750000Y-103742857D01*
X108778571Y-103714285D01*
X108835714Y-103685714D01*
X108921428Y-103685714D01*
X108978571Y-103714285D01*
X109007142Y-103742857D01*
X109035714Y-103800000D01*
X109035714Y-104028571D01*
X109321428Y-103114285D02*
X109321428Y-103457142D01*
X109321428Y-103285714D02*
X108721428Y-103285714D01*
X108807142Y-103342857D01*
X108864285Y-103400000D01*
X108892857Y-103457142D01*
X109321428Y-102828571D02*
X109321428Y-102714285D01*
X109292857Y-102657142D01*
X109264285Y-102628571D01*
X109178571Y-102571428D01*
X109064285Y-102542857D01*
X108835714Y-102542857D01*
X108778571Y-102571428D01*
X108750000Y-102600000D01*
X108721428Y-102657142D01*
X108721428Y-102771428D01*
X108750000Y-102828571D01*
X108778571Y-102857142D01*
X108835714Y-102885714D01*
X108978571Y-102885714D01*
X109035714Y-102857142D01*
X109064285Y-102828571D01*
X109092857Y-102771428D01*
X109092857Y-102657142D01*
X109064285Y-102600000D01*
X109035714Y-102571428D01*
X108978571Y-102542857D01*
X111321428Y-103685714D02*
X111035714Y-103885714D01*
X111321428Y-104028571D02*
X110721428Y-104028571D01*
X110721428Y-103800000D01*
X110750000Y-103742857D01*
X110778571Y-103714285D01*
X110835714Y-103685714D01*
X110921428Y-103685714D01*
X110978571Y-103714285D01*
X111007142Y-103742857D01*
X111035714Y-103800000D01*
X111035714Y-104028571D01*
X110778571Y-103457142D02*
X110750000Y-103428571D01*
X110721428Y-103371428D01*
X110721428Y-103228571D01*
X110750000Y-103171428D01*
X110778571Y-103142857D01*
X110835714Y-103114285D01*
X110892857Y-103114285D01*
X110978571Y-103142857D01*
X111321428Y-103485714D01*
X111321428Y-103114285D01*
X110721428Y-102600000D02*
X110721428Y-102714285D01*
X110750000Y-102771428D01*
X110778571Y-102800000D01*
X110864285Y-102857142D01*
X110978571Y-102885714D01*
X111207142Y-102885714D01*
X111264285Y-102857142D01*
X111292857Y-102828571D01*
X111321428Y-102771428D01*
X111321428Y-102657142D01*
X111292857Y-102600000D01*
X111264285Y-102571428D01*
X111207142Y-102542857D01*
X111064285Y-102542857D01*
X111007142Y-102571428D01*
X110978571Y-102600000D01*
X110950000Y-102657142D01*
X110950000Y-102771428D01*
X110978571Y-102828571D01*
X111007142Y-102857142D01*
X111064285Y-102885714D01*
X114214285Y-107871428D02*
X114014285Y-107585714D01*
X113871428Y-107871428D02*
X113871428Y-107271428D01*
X114100000Y-107271428D01*
X114157142Y-107300000D01*
X114185714Y-107328571D01*
X114214285Y-107385714D01*
X114214285Y-107471428D01*
X114185714Y-107528571D01*
X114157142Y-107557142D01*
X114100000Y-107585714D01*
X113871428Y-107585714D01*
X114785714Y-107871428D02*
X114442857Y-107871428D01*
X114614285Y-107871428D02*
X114614285Y-107271428D01*
X114557142Y-107357142D01*
X114500000Y-107414285D01*
X114442857Y-107442857D01*
X115300000Y-107271428D02*
X115185714Y-107271428D01*
X115128571Y-107300000D01*
X115100000Y-107328571D01*
X115042857Y-107414285D01*
X115014285Y-107528571D01*
X115014285Y-107757142D01*
X115042857Y-107814285D01*
X115071428Y-107842857D01*
X115128571Y-107871428D01*
X115242857Y-107871428D01*
X115300000Y-107842857D01*
X115328571Y-107814285D01*
X115357142Y-107757142D01*
X115357142Y-107614285D01*
X115328571Y-107557142D01*
X115300000Y-107528571D01*
X115242857Y-107500000D01*
X115128571Y-107500000D01*
X115071428Y-107528571D01*
X115042857Y-107557142D01*
X115014285Y-107614285D01*
X112464285Y-107871428D02*
X112264285Y-107585714D01*
X112121428Y-107871428D02*
X112121428Y-107271428D01*
X112350000Y-107271428D01*
X112407142Y-107300000D01*
X112435714Y-107328571D01*
X112464285Y-107385714D01*
X112464285Y-107471428D01*
X112435714Y-107528571D01*
X112407142Y-107557142D01*
X112350000Y-107585714D01*
X112121428Y-107585714D01*
X112692857Y-107328571D02*
X112721428Y-107300000D01*
X112778571Y-107271428D01*
X112921428Y-107271428D01*
X112978571Y-107300000D01*
X113007142Y-107328571D01*
X113035714Y-107385714D01*
X113035714Y-107442857D01*
X113007142Y-107528571D01*
X112664285Y-107871428D01*
X113035714Y-107871428D01*
X113407142Y-107271428D02*
X113464285Y-107271428D01*
X113521428Y-107300000D01*
X113550000Y-107328571D01*
X113578571Y-107385714D01*
X113607142Y-107500000D01*
X113607142Y-107642857D01*
X113578571Y-107757142D01*
X113550000Y-107814285D01*
X113521428Y-107842857D01*
X113464285Y-107871428D01*
X113407142Y-107871428D01*
X113350000Y-107842857D01*
X113321428Y-107814285D01*
X113292857Y-107757142D01*
X113264285Y-107642857D01*
X113264285Y-107500000D01*
X113292857Y-107385714D01*
X113321428Y-107328571D01*
X113350000Y-107300000D01*
X113407142Y-107271428D01*
X140264285Y-105371428D02*
X140064285Y-105085714D01*
X139921428Y-105371428D02*
X139921428Y-104771428D01*
X140150000Y-104771428D01*
X140207142Y-104800000D01*
X140235714Y-104828571D01*
X140264285Y-104885714D01*
X140264285Y-104971428D01*
X140235714Y-105028571D01*
X140207142Y-105057142D01*
X140150000Y-105085714D01*
X139921428Y-105085714D01*
X140492857Y-104828571D02*
X140521428Y-104800000D01*
X140578571Y-104771428D01*
X140721428Y-104771428D01*
X140778571Y-104800000D01*
X140807142Y-104828571D01*
X140835714Y-104885714D01*
X140835714Y-104942857D01*
X140807142Y-105028571D01*
X140464285Y-105371428D01*
X140835714Y-105371428D01*
X141350000Y-104971428D02*
X141350000Y-105371428D01*
X141207142Y-104742857D02*
X141064285Y-105171428D01*
X141435714Y-105171428D01*
X136264285Y-105371428D02*
X136064285Y-105085714D01*
X135921428Y-105371428D02*
X135921428Y-104771428D01*
X136150000Y-104771428D01*
X136207142Y-104800000D01*
X136235714Y-104828571D01*
X136264285Y-104885714D01*
X136264285Y-104971428D01*
X136235714Y-105028571D01*
X136207142Y-105057142D01*
X136150000Y-105085714D01*
X135921428Y-105085714D01*
X136492857Y-104828571D02*
X136521428Y-104800000D01*
X136578571Y-104771428D01*
X136721428Y-104771428D01*
X136778571Y-104800000D01*
X136807142Y-104828571D01*
X136835714Y-104885714D01*
X136835714Y-104942857D01*
X136807142Y-105028571D01*
X136464285Y-105371428D01*
X136835714Y-105371428D01*
X137035714Y-104771428D02*
X137435714Y-104771428D01*
X137178571Y-105371428D01*
X145425000Y-102621428D02*
X145225000Y-102335714D01*
X145082142Y-102621428D02*
X145082142Y-102021428D01*
X145310714Y-102021428D01*
X145367857Y-102050000D01*
X145396428Y-102078571D01*
X145425000Y-102135714D01*
X145425000Y-102221428D01*
X145396428Y-102278571D01*
X145367857Y-102307142D01*
X145310714Y-102335714D01*
X145082142Y-102335714D01*
X145967857Y-102021428D02*
X145682142Y-102021428D01*
X145653571Y-102307142D01*
X145682142Y-102278571D01*
X145739285Y-102250000D01*
X145882142Y-102250000D01*
X145939285Y-102278571D01*
X145967857Y-102307142D01*
X145996428Y-102364285D01*
X145996428Y-102507142D01*
X145967857Y-102564285D01*
X145939285Y-102592857D01*
X145882142Y-102621428D01*
X145739285Y-102621428D01*
X145682142Y-102592857D01*
X145653571Y-102564285D01*
X142550000Y-105371428D02*
X142350000Y-105085714D01*
X142207142Y-105371428D02*
X142207142Y-104771428D01*
X142435714Y-104771428D01*
X142492857Y-104800000D01*
X142521428Y-104828571D01*
X142550000Y-104885714D01*
X142550000Y-104971428D01*
X142521428Y-105028571D01*
X142492857Y-105057142D01*
X142435714Y-105085714D01*
X142207142Y-105085714D01*
X143121428Y-105371428D02*
X142778571Y-105371428D01*
X142950000Y-105371428D02*
X142950000Y-104771428D01*
X142892857Y-104857142D01*
X142835714Y-104914285D01*
X142778571Y-104942857D01*
X127021428Y-102210714D02*
X126735714Y-102410714D01*
X127021428Y-102553571D02*
X126421428Y-102553571D01*
X126421428Y-102325000D01*
X126450000Y-102267857D01*
X126478571Y-102239285D01*
X126535714Y-102210714D01*
X126621428Y-102210714D01*
X126678571Y-102239285D01*
X126707142Y-102267857D01*
X126735714Y-102325000D01*
X126735714Y-102553571D01*
X126478571Y-101982142D02*
X126450000Y-101953571D01*
X126421428Y-101896428D01*
X126421428Y-101753571D01*
X126450000Y-101696428D01*
X126478571Y-101667857D01*
X126535714Y-101639285D01*
X126592857Y-101639285D01*
X126678571Y-101667857D01*
X127021428Y-102010714D01*
X127021428Y-101639285D01*
X126421428Y-101096428D02*
X126421428Y-101382142D01*
X126707142Y-101410714D01*
X126678571Y-101382142D01*
X126650000Y-101325000D01*
X126650000Y-101182142D01*
X126678571Y-101125000D01*
X126707142Y-101096428D01*
X126764285Y-101067857D01*
X126907142Y-101067857D01*
X126964285Y-101096428D01*
X126992857Y-101125000D01*
X127021428Y-101182142D01*
X127021428Y-101325000D01*
X126992857Y-101382142D01*
X126964285Y-101410714D01*
X84521428Y-122185714D02*
X84235714Y-122385714D01*
X84521428Y-122528571D02*
X83921428Y-122528571D01*
X83921428Y-122300000D01*
X83950000Y-122242857D01*
X83978571Y-122214285D01*
X84035714Y-122185714D01*
X84121428Y-122185714D01*
X84178571Y-122214285D01*
X84207142Y-122242857D01*
X84235714Y-122300000D01*
X84235714Y-122528571D01*
X84521428Y-121614285D02*
X84521428Y-121957142D01*
X84521428Y-121785714D02*
X83921428Y-121785714D01*
X84007142Y-121842857D01*
X84064285Y-121900000D01*
X84092857Y-121957142D01*
X83921428Y-121071428D02*
X83921428Y-121357142D01*
X84207142Y-121385714D01*
X84178571Y-121357142D01*
X84150000Y-121300000D01*
X84150000Y-121157142D01*
X84178571Y-121100000D01*
X84207142Y-121071428D01*
X84264285Y-121042857D01*
X84407142Y-121042857D01*
X84464285Y-121071428D01*
X84492857Y-121100000D01*
X84521428Y-121157142D01*
X84521428Y-121300000D01*
X84492857Y-121357142D01*
X84464285Y-121385714D01*
X84471428Y-120185714D02*
X84185714Y-120385714D01*
X84471428Y-120528571D02*
X83871428Y-120528571D01*
X83871428Y-120300000D01*
X83900000Y-120242857D01*
X83928571Y-120214285D01*
X83985714Y-120185714D01*
X84071428Y-120185714D01*
X84128571Y-120214285D01*
X84157142Y-120242857D01*
X84185714Y-120300000D01*
X84185714Y-120528571D01*
X84471428Y-119614285D02*
X84471428Y-119957142D01*
X84471428Y-119785714D02*
X83871428Y-119785714D01*
X83957142Y-119842857D01*
X84014285Y-119900000D01*
X84042857Y-119957142D01*
X83871428Y-119414285D02*
X83871428Y-119042857D01*
X84100000Y-119242857D01*
X84100000Y-119157142D01*
X84128571Y-119100000D01*
X84157142Y-119071428D01*
X84214285Y-119042857D01*
X84357142Y-119042857D01*
X84414285Y-119071428D01*
X84442857Y-119100000D01*
X84471428Y-119157142D01*
X84471428Y-119328571D01*
X84442857Y-119385714D01*
X84414285Y-119414285D01*
X95021428Y-120535714D02*
X94735714Y-120735714D01*
X95021428Y-120878571D02*
X94421428Y-120878571D01*
X94421428Y-120650000D01*
X94450000Y-120592857D01*
X94478571Y-120564285D01*
X94535714Y-120535714D01*
X94621428Y-120535714D01*
X94678571Y-120564285D01*
X94707142Y-120592857D01*
X94735714Y-120650000D01*
X94735714Y-120878571D01*
X94421428Y-120335714D02*
X94421428Y-119964285D01*
X94650000Y-120164285D01*
X94650000Y-120078571D01*
X94678571Y-120021428D01*
X94707142Y-119992857D01*
X94764285Y-119964285D01*
X94907142Y-119964285D01*
X94964285Y-119992857D01*
X94992857Y-120021428D01*
X95021428Y-120078571D01*
X95021428Y-120250000D01*
X94992857Y-120307142D01*
X94964285Y-120335714D01*
X95021428Y-119392857D02*
X95021428Y-119735714D01*
X95021428Y-119564285D02*
X94421428Y-119564285D01*
X94507142Y-119621428D01*
X94564285Y-119678571D01*
X94592857Y-119735714D01*
X95021428Y-117385714D02*
X94735714Y-117585714D01*
X95021428Y-117728571D02*
X94421428Y-117728571D01*
X94421428Y-117500000D01*
X94450000Y-117442857D01*
X94478571Y-117414285D01*
X94535714Y-117385714D01*
X94621428Y-117385714D01*
X94678571Y-117414285D01*
X94707142Y-117442857D01*
X94735714Y-117500000D01*
X94735714Y-117728571D01*
X94478571Y-117157142D02*
X94450000Y-117128571D01*
X94421428Y-117071428D01*
X94421428Y-116928571D01*
X94450000Y-116871428D01*
X94478571Y-116842857D01*
X94535714Y-116814285D01*
X94592857Y-116814285D01*
X94678571Y-116842857D01*
X95021428Y-117185714D01*
X95021428Y-116814285D01*
X94678571Y-116471428D02*
X94650000Y-116528571D01*
X94621428Y-116557142D01*
X94564285Y-116585714D01*
X94535714Y-116585714D01*
X94478571Y-116557142D01*
X94450000Y-116528571D01*
X94421428Y-116471428D01*
X94421428Y-116357142D01*
X94450000Y-116300000D01*
X94478571Y-116271428D01*
X94535714Y-116242857D01*
X94564285Y-116242857D01*
X94621428Y-116271428D01*
X94650000Y-116300000D01*
X94678571Y-116357142D01*
X94678571Y-116471428D01*
X94707142Y-116528571D01*
X94735714Y-116557142D01*
X94792857Y-116585714D01*
X94907142Y-116585714D01*
X94964285Y-116557142D01*
X94992857Y-116528571D01*
X95021428Y-116471428D01*
X95021428Y-116357142D01*
X94992857Y-116300000D01*
X94964285Y-116271428D01*
X94907142Y-116242857D01*
X94792857Y-116242857D01*
X94735714Y-116271428D01*
X94707142Y-116300000D01*
X94678571Y-116357142D01*
X89721428Y-121285714D02*
X89435714Y-121485714D01*
X89721428Y-121628571D02*
X89121428Y-121628571D01*
X89121428Y-121400000D01*
X89150000Y-121342857D01*
X89178571Y-121314285D01*
X89235714Y-121285714D01*
X89321428Y-121285714D01*
X89378571Y-121314285D01*
X89407142Y-121342857D01*
X89435714Y-121400000D01*
X89435714Y-121628571D01*
X89121428Y-121085714D02*
X89121428Y-120714285D01*
X89350000Y-120914285D01*
X89350000Y-120828571D01*
X89378571Y-120771428D01*
X89407142Y-120742857D01*
X89464285Y-120714285D01*
X89607142Y-120714285D01*
X89664285Y-120742857D01*
X89692857Y-120771428D01*
X89721428Y-120828571D01*
X89721428Y-121000000D01*
X89692857Y-121057142D01*
X89664285Y-121085714D01*
X89121428Y-120514285D02*
X89121428Y-120142857D01*
X89350000Y-120342857D01*
X89350000Y-120257142D01*
X89378571Y-120200000D01*
X89407142Y-120171428D01*
X89464285Y-120142857D01*
X89607142Y-120142857D01*
X89664285Y-120171428D01*
X89692857Y-120200000D01*
X89721428Y-120257142D01*
X89721428Y-120428571D01*
X89692857Y-120485714D01*
X89664285Y-120514285D01*
X85421428Y-116035714D02*
X85135714Y-116235714D01*
X85421428Y-116378571D02*
X84821428Y-116378571D01*
X84821428Y-116150000D01*
X84850000Y-116092857D01*
X84878571Y-116064285D01*
X84935714Y-116035714D01*
X85021428Y-116035714D01*
X85078571Y-116064285D01*
X85107142Y-116092857D01*
X85135714Y-116150000D01*
X85135714Y-116378571D01*
X85421428Y-115464285D02*
X85421428Y-115807142D01*
X85421428Y-115635714D02*
X84821428Y-115635714D01*
X84907142Y-115692857D01*
X84964285Y-115750000D01*
X84992857Y-115807142D01*
X85078571Y-115121428D02*
X85050000Y-115178571D01*
X85021428Y-115207142D01*
X84964285Y-115235714D01*
X84935714Y-115235714D01*
X84878571Y-115207142D01*
X84850000Y-115178571D01*
X84821428Y-115121428D01*
X84821428Y-115007142D01*
X84850000Y-114950000D01*
X84878571Y-114921428D01*
X84935714Y-114892857D01*
X84964285Y-114892857D01*
X85021428Y-114921428D01*
X85050000Y-114950000D01*
X85078571Y-115007142D01*
X85078571Y-115121428D01*
X85107142Y-115178571D01*
X85135714Y-115207142D01*
X85192857Y-115235714D01*
X85307142Y-115235714D01*
X85364285Y-115207142D01*
X85392857Y-115178571D01*
X85421428Y-115121428D01*
X85421428Y-115007142D01*
X85392857Y-114950000D01*
X85364285Y-114921428D01*
X85307142Y-114892857D01*
X85192857Y-114892857D01*
X85135714Y-114921428D01*
X85107142Y-114950000D01*
X85078571Y-115007142D01*
X82000000Y-113671428D02*
X81800000Y-113385714D01*
X81657142Y-113671428D02*
X81657142Y-113071428D01*
X81885714Y-113071428D01*
X81942857Y-113100000D01*
X81971428Y-113128571D01*
X82000000Y-113185714D01*
X82000000Y-113271428D01*
X81971428Y-113328571D01*
X81942857Y-113357142D01*
X81885714Y-113385714D01*
X81657142Y-113385714D01*
X82285714Y-113671428D02*
X82400000Y-113671428D01*
X82457142Y-113642857D01*
X82485714Y-113614285D01*
X82542857Y-113528571D01*
X82571428Y-113414285D01*
X82571428Y-113185714D01*
X82542857Y-113128571D01*
X82514285Y-113100000D01*
X82457142Y-113071428D01*
X82342857Y-113071428D01*
X82285714Y-113100000D01*
X82257142Y-113128571D01*
X82228571Y-113185714D01*
X82228571Y-113328571D01*
X82257142Y-113385714D01*
X82285714Y-113414285D01*
X82342857Y-113442857D01*
X82457142Y-113442857D01*
X82514285Y-113414285D01*
X82542857Y-113385714D01*
X82571428Y-113328571D01*
X82014285Y-111621428D02*
X81814285Y-111335714D01*
X81671428Y-111621428D02*
X81671428Y-111021428D01*
X81900000Y-111021428D01*
X81957142Y-111050000D01*
X81985714Y-111078571D01*
X82014285Y-111135714D01*
X82014285Y-111221428D01*
X81985714Y-111278571D01*
X81957142Y-111307142D01*
X81900000Y-111335714D01*
X81671428Y-111335714D01*
X82585714Y-111621428D02*
X82242857Y-111621428D01*
X82414285Y-111621428D02*
X82414285Y-111021428D01*
X82357142Y-111107142D01*
X82300000Y-111164285D01*
X82242857Y-111192857D01*
X83157142Y-111621428D02*
X82814285Y-111621428D01*
X82985714Y-111621428D02*
X82985714Y-111021428D01*
X82928571Y-111107142D01*
X82871428Y-111164285D01*
X82814285Y-111192857D01*
X76014285Y-109271428D02*
X75814285Y-108985714D01*
X75671428Y-109271428D02*
X75671428Y-108671428D01*
X75900000Y-108671428D01*
X75957142Y-108700000D01*
X75985714Y-108728571D01*
X76014285Y-108785714D01*
X76014285Y-108871428D01*
X75985714Y-108928571D01*
X75957142Y-108957142D01*
X75900000Y-108985714D01*
X75671428Y-108985714D01*
X76214285Y-108671428D02*
X76585714Y-108671428D01*
X76385714Y-108900000D01*
X76471428Y-108900000D01*
X76528571Y-108928571D01*
X76557142Y-108957142D01*
X76585714Y-109014285D01*
X76585714Y-109157142D01*
X76557142Y-109214285D01*
X76528571Y-109242857D01*
X76471428Y-109271428D01*
X76300000Y-109271428D01*
X76242857Y-109242857D01*
X76214285Y-109214285D01*
X76814285Y-108728571D02*
X76842857Y-108700000D01*
X76900000Y-108671428D01*
X77042857Y-108671428D01*
X77100000Y-108700000D01*
X77128571Y-108728571D01*
X77157142Y-108785714D01*
X77157142Y-108842857D01*
X77128571Y-108928571D01*
X76785714Y-109271428D01*
X77157142Y-109271428D01*
X112800000Y-97071428D02*
X112514285Y-97071428D01*
X112514285Y-96471428D01*
X112971428Y-96528571D02*
X113000000Y-96500000D01*
X113057142Y-96471428D01*
X113200000Y-96471428D01*
X113257142Y-96500000D01*
X113285714Y-96528571D01*
X113314285Y-96585714D01*
X113314285Y-96642857D01*
X113285714Y-96728571D01*
X112942857Y-97071428D01*
X113314285Y-97071428D01*
X88750000Y-101571428D02*
X88464285Y-101571428D01*
X88464285Y-100971428D01*
X89264285Y-101571428D02*
X88921428Y-101571428D01*
X89092857Y-101571428D02*
X89092857Y-100971428D01*
X89035714Y-101057142D01*
X88978571Y-101114285D01*
X88921428Y-101142857D01*
X100550000Y-116221428D02*
X100550000Y-116650000D01*
X100521428Y-116735714D01*
X100464285Y-116792857D01*
X100378571Y-116821428D01*
X100321428Y-116821428D01*
X101121428Y-116221428D02*
X100835714Y-116221428D01*
X100807142Y-116507142D01*
X100835714Y-116478571D01*
X100892857Y-116450000D01*
X101035714Y-116450000D01*
X101092857Y-116478571D01*
X101121428Y-116507142D01*
X101150000Y-116564285D01*
X101150000Y-116707142D01*
X101121428Y-116764285D01*
X101092857Y-116792857D01*
X101035714Y-116821428D01*
X100892857Y-116821428D01*
X100835714Y-116792857D01*
X100807142Y-116764285D01*
X101400000Y-109271428D02*
X101400000Y-109700000D01*
X101371428Y-109785714D01*
X101314285Y-109842857D01*
X101228571Y-109871428D01*
X101171428Y-109871428D01*
X101628571Y-109271428D02*
X102000000Y-109271428D01*
X101800000Y-109500000D01*
X101885714Y-109500000D01*
X101942857Y-109528571D01*
X101971428Y-109557142D01*
X102000000Y-109614285D01*
X102000000Y-109757142D01*
X101971428Y-109814285D01*
X101942857Y-109842857D01*
X101885714Y-109871428D01*
X101714285Y-109871428D01*
X101657142Y-109842857D01*
X101628571Y-109814285D01*
X66871428Y-96250000D02*
X67300000Y-96250000D01*
X67385714Y-96278571D01*
X67442857Y-96335714D01*
X67471428Y-96421428D01*
X67471428Y-96478571D01*
X66871428Y-95707142D02*
X66871428Y-95821428D01*
X66900000Y-95878571D01*
X66928571Y-95907142D01*
X67014285Y-95964285D01*
X67128571Y-95992857D01*
X67357142Y-95992857D01*
X67414285Y-95964285D01*
X67442857Y-95935714D01*
X67471428Y-95878571D01*
X67471428Y-95764285D01*
X67442857Y-95707142D01*
X67414285Y-95678571D01*
X67357142Y-95650000D01*
X67214285Y-95650000D01*
X67157142Y-95678571D01*
X67128571Y-95707142D01*
X67100000Y-95764285D01*
X67100000Y-95878571D01*
X67128571Y-95935714D01*
X67157142Y-95964285D01*
X67214285Y-95992857D01*
X71921428Y-110900000D02*
X72350000Y-110900000D01*
X72435714Y-110928571D01*
X72492857Y-110985714D01*
X72521428Y-111071428D01*
X72521428Y-111128571D01*
X72121428Y-110357142D02*
X72521428Y-110357142D01*
X71892857Y-110500000D02*
X72321428Y-110642857D01*
X72321428Y-110271428D01*
X78100000Y-114721428D02*
X78100000Y-115150000D01*
X78071428Y-115235714D01*
X78014285Y-115292857D01*
X77928571Y-115321428D01*
X77871428Y-115321428D01*
X78700000Y-115321428D02*
X78357142Y-115321428D01*
X78528571Y-115321428D02*
X78528571Y-114721428D01*
X78471428Y-114807142D01*
X78414285Y-114864285D01*
X78357142Y-114892857D01*
X101657142Y-107000000D02*
X101657142Y-107200000D01*
X101971428Y-107200000D02*
X101371428Y-107200000D01*
X101371428Y-106914285D01*
X101371428Y-106742857D02*
X101371428Y-106371428D01*
X101600000Y-106571428D01*
X101600000Y-106485714D01*
X101628571Y-106428571D01*
X101657142Y-106400000D01*
X101714285Y-106371428D01*
X101857142Y-106371428D01*
X101914285Y-106400000D01*
X101942857Y-106428571D01*
X101971428Y-106485714D01*
X101971428Y-106657142D01*
X101942857Y-106714285D01*
X101914285Y-106742857D01*
X98350000Y-96257142D02*
X98150000Y-96257142D01*
X98150000Y-96571428D02*
X98150000Y-95971428D01*
X98435714Y-95971428D01*
X98635714Y-96028571D02*
X98664285Y-96000000D01*
X98721428Y-95971428D01*
X98864285Y-95971428D01*
X98921428Y-96000000D01*
X98950000Y-96028571D01*
X98978571Y-96085714D01*
X98978571Y-96142857D01*
X98950000Y-96228571D01*
X98607142Y-96571428D01*
X98978571Y-96571428D01*
X91157142Y-116071428D02*
X91157142Y-115471428D01*
X91300000Y-115471428D01*
X91385714Y-115500000D01*
X91442857Y-115557142D01*
X91471428Y-115614285D01*
X91500000Y-115728571D01*
X91500000Y-115814285D01*
X91471428Y-115928571D01*
X91442857Y-115985714D01*
X91385714Y-116042857D01*
X91300000Y-116071428D01*
X91157142Y-116071428D01*
X91700000Y-115471428D02*
X92071428Y-115471428D01*
X91871428Y-115700000D01*
X91957142Y-115700000D01*
X92014285Y-115728571D01*
X92042857Y-115757142D01*
X92071428Y-115814285D01*
X92071428Y-115957142D01*
X92042857Y-116014285D01*
X92014285Y-116042857D01*
X91957142Y-116071428D01*
X91785714Y-116071428D01*
X91728571Y-116042857D01*
X91700000Y-116014285D01*
X91157142Y-118071428D02*
X91157142Y-117471428D01*
X91300000Y-117471428D01*
X91385714Y-117500000D01*
X91442857Y-117557142D01*
X91471428Y-117614285D01*
X91500000Y-117728571D01*
X91500000Y-117814285D01*
X91471428Y-117928571D01*
X91442857Y-117985714D01*
X91385714Y-118042857D01*
X91300000Y-118071428D01*
X91157142Y-118071428D01*
X91728571Y-117528571D02*
X91757142Y-117500000D01*
X91814285Y-117471428D01*
X91957142Y-117471428D01*
X92014285Y-117500000D01*
X92042857Y-117528571D01*
X92071428Y-117585714D01*
X92071428Y-117642857D01*
X92042857Y-117728571D01*
X91700000Y-118071428D01*
X92071428Y-118071428D01*
X141226785Y-98764285D02*
X141198214Y-98792857D01*
X141112500Y-98821428D01*
X141055357Y-98821428D01*
X140969642Y-98792857D01*
X140912500Y-98735714D01*
X140883928Y-98678571D01*
X140855357Y-98564285D01*
X140855357Y-98478571D01*
X140883928Y-98364285D01*
X140912500Y-98307142D01*
X140969642Y-98250000D01*
X141055357Y-98221428D01*
X141112500Y-98221428D01*
X141198214Y-98250000D01*
X141226785Y-98278571D01*
X141798214Y-98821428D02*
X141455357Y-98821428D01*
X141626785Y-98821428D02*
X141626785Y-98221428D01*
X141569642Y-98307142D01*
X141512500Y-98364285D01*
X141455357Y-98392857D01*
X141998214Y-98221428D02*
X142398214Y-98221428D01*
X142141071Y-98821428D01*
X138264285Y-105314285D02*
X138235714Y-105342857D01*
X138150000Y-105371428D01*
X138092857Y-105371428D01*
X138007142Y-105342857D01*
X137950000Y-105285714D01*
X137921428Y-105228571D01*
X137892857Y-105114285D01*
X137892857Y-105028571D01*
X137921428Y-104914285D01*
X137950000Y-104857142D01*
X138007142Y-104800000D01*
X138092857Y-104771428D01*
X138150000Y-104771428D01*
X138235714Y-104800000D01*
X138264285Y-104828571D01*
X138835714Y-105371428D02*
X138492857Y-105371428D01*
X138664285Y-105371428D02*
X138664285Y-104771428D01*
X138607142Y-104857142D01*
X138550000Y-104914285D01*
X138492857Y-104942857D01*
X139350000Y-104971428D02*
X139350000Y-105371428D01*
X139207142Y-104742857D02*
X139064285Y-105171428D01*
X139435714Y-105171428D01*
X132776785Y-100164285D02*
X132748214Y-100192857D01*
X132662500Y-100221428D01*
X132605357Y-100221428D01*
X132519642Y-100192857D01*
X132462500Y-100135714D01*
X132433928Y-100078571D01*
X132405357Y-99964285D01*
X132405357Y-99878571D01*
X132433928Y-99764285D01*
X132462500Y-99707142D01*
X132519642Y-99650000D01*
X132605357Y-99621428D01*
X132662500Y-99621428D01*
X132748214Y-99650000D01*
X132776785Y-99678571D01*
X133348214Y-100221428D02*
X133005357Y-100221428D01*
X133176785Y-100221428D02*
X133176785Y-99621428D01*
X133119642Y-99707142D01*
X133062500Y-99764285D01*
X133005357Y-99792857D01*
X133576785Y-99678571D02*
X133605357Y-99650000D01*
X133662500Y-99621428D01*
X133805357Y-99621428D01*
X133862500Y-99650000D01*
X133891071Y-99678571D01*
X133919642Y-99735714D01*
X133919642Y-99792857D01*
X133891071Y-99878571D01*
X133548214Y-100221428D01*
X133919642Y-100221428D01*
X132886785Y-111464285D02*
X132858214Y-111492857D01*
X132772500Y-111521428D01*
X132715357Y-111521428D01*
X132629642Y-111492857D01*
X132572500Y-111435714D01*
X132543928Y-111378571D01*
X132515357Y-111264285D01*
X132515357Y-111178571D01*
X132543928Y-111064285D01*
X132572500Y-111007142D01*
X132629642Y-110950000D01*
X132715357Y-110921428D01*
X132772500Y-110921428D01*
X132858214Y-110950000D01*
X132886785Y-110978571D01*
X133458214Y-111521428D02*
X133115357Y-111521428D01*
X133286785Y-111521428D02*
X133286785Y-110921428D01*
X133229642Y-111007142D01*
X133172500Y-111064285D01*
X133115357Y-111092857D01*
X133972500Y-110921428D02*
X133858214Y-110921428D01*
X133801071Y-110950000D01*
X133772500Y-110978571D01*
X133715357Y-111064285D01*
X133686785Y-111178571D01*
X133686785Y-111407142D01*
X133715357Y-111464285D01*
X133743928Y-111492857D01*
X133801071Y-111521428D01*
X133915357Y-111521428D01*
X133972500Y-111492857D01*
X134001071Y-111464285D01*
X134029642Y-111407142D01*
X134029642Y-111264285D01*
X134001071Y-111207142D01*
X133972500Y-111178571D01*
X133915357Y-111150000D01*
X133801071Y-111150000D01*
X133743928Y-111178571D01*
X133715357Y-111207142D01*
X133686785Y-111264285D01*
X128064285Y-107273214D02*
X128092857Y-107301785D01*
X128121428Y-107387500D01*
X128121428Y-107444642D01*
X128092857Y-107530357D01*
X128035714Y-107587500D01*
X127978571Y-107616071D01*
X127864285Y-107644642D01*
X127778571Y-107644642D01*
X127664285Y-107616071D01*
X127607142Y-107587500D01*
X127550000Y-107530357D01*
X127521428Y-107444642D01*
X127521428Y-107387500D01*
X127550000Y-107301785D01*
X127578571Y-107273214D01*
X128121428Y-106701785D02*
X128121428Y-107044642D01*
X128121428Y-106873214D02*
X127521428Y-106873214D01*
X127607142Y-106930357D01*
X127664285Y-106987500D01*
X127692857Y-107044642D01*
X128121428Y-106416071D02*
X128121428Y-106301785D01*
X128092857Y-106244642D01*
X128064285Y-106216071D01*
X127978571Y-106158928D01*
X127864285Y-106130357D01*
X127635714Y-106130357D01*
X127578571Y-106158928D01*
X127550000Y-106187500D01*
X127521428Y-106244642D01*
X127521428Y-106358928D01*
X127550000Y-106416071D01*
X127578571Y-106444642D01*
X127635714Y-106473214D01*
X127778571Y-106473214D01*
X127835714Y-106444642D01*
X127864285Y-106416071D01*
X127892857Y-106358928D01*
X127892857Y-106244642D01*
X127864285Y-106187500D01*
X127835714Y-106158928D01*
X127778571Y-106130357D01*
X127514285Y-115085714D02*
X127542857Y-115114285D01*
X127571428Y-115200000D01*
X127571428Y-115257142D01*
X127542857Y-115342857D01*
X127485714Y-115400000D01*
X127428571Y-115428571D01*
X127314285Y-115457142D01*
X127228571Y-115457142D01*
X127114285Y-115428571D01*
X127057142Y-115400000D01*
X127000000Y-115342857D01*
X126971428Y-115257142D01*
X126971428Y-115200000D01*
X127000000Y-115114285D01*
X127028571Y-115085714D01*
X127571428Y-114514285D02*
X127571428Y-114857142D01*
X127571428Y-114685714D02*
X126971428Y-114685714D01*
X127057142Y-114742857D01*
X127114285Y-114800000D01*
X127142857Y-114857142D01*
X127571428Y-113942857D02*
X127571428Y-114285714D01*
X127571428Y-114114285D02*
X126971428Y-114114285D01*
X127057142Y-114171428D01*
X127114285Y-114228571D01*
X127142857Y-114285714D01*
X125314285Y-113885714D02*
X125342857Y-113914285D01*
X125371428Y-114000000D01*
X125371428Y-114057142D01*
X125342857Y-114142857D01*
X125285714Y-114200000D01*
X125228571Y-114228571D01*
X125114285Y-114257142D01*
X125028571Y-114257142D01*
X124914285Y-114228571D01*
X124857142Y-114200000D01*
X124800000Y-114142857D01*
X124771428Y-114057142D01*
X124771428Y-114000000D01*
X124800000Y-113914285D01*
X124828571Y-113885714D01*
X125371428Y-113314285D02*
X125371428Y-113657142D01*
X125371428Y-113485714D02*
X124771428Y-113485714D01*
X124857142Y-113542857D01*
X124914285Y-113600000D01*
X124942857Y-113657142D01*
X124771428Y-112942857D02*
X124771428Y-112885714D01*
X124800000Y-112828571D01*
X124828571Y-112800000D01*
X124885714Y-112771428D01*
X125000000Y-112742857D01*
X125142857Y-112742857D01*
X125257142Y-112771428D01*
X125314285Y-112800000D01*
X125342857Y-112828571D01*
X125371428Y-112885714D01*
X125371428Y-112942857D01*
X125342857Y-113000000D01*
X125314285Y-113028571D01*
X125257142Y-113057142D01*
X125142857Y-113085714D01*
X125000000Y-113085714D01*
X124885714Y-113057142D01*
X124828571Y-113028571D01*
X124800000Y-113000000D01*
X124771428Y-112942857D01*
X129914285Y-114550000D02*
X129942857Y-114578571D01*
X129971428Y-114664285D01*
X129971428Y-114721428D01*
X129942857Y-114807142D01*
X129885714Y-114864285D01*
X129828571Y-114892857D01*
X129714285Y-114921428D01*
X129628571Y-114921428D01*
X129514285Y-114892857D01*
X129457142Y-114864285D01*
X129400000Y-114807142D01*
X129371428Y-114721428D01*
X129371428Y-114664285D01*
X129400000Y-114578571D01*
X129428571Y-114550000D01*
X129971428Y-114264285D02*
X129971428Y-114150000D01*
X129942857Y-114092857D01*
X129914285Y-114064285D01*
X129828571Y-114007142D01*
X129714285Y-113978571D01*
X129485714Y-113978571D01*
X129428571Y-114007142D01*
X129400000Y-114035714D01*
X129371428Y-114092857D01*
X129371428Y-114207142D01*
X129400000Y-114264285D01*
X129428571Y-114292857D01*
X129485714Y-114321428D01*
X129628571Y-114321428D01*
X129685714Y-114292857D01*
X129714285Y-114264285D01*
X129742857Y-114207142D01*
X129742857Y-114092857D01*
X129714285Y-114035714D01*
X129685714Y-114007142D01*
X129628571Y-113978571D01*
X152364285Y-109235714D02*
X152392857Y-109264285D01*
X152421428Y-109350000D01*
X152421428Y-109407142D01*
X152392857Y-109492857D01*
X152335714Y-109550000D01*
X152278571Y-109578571D01*
X152164285Y-109607142D01*
X152078571Y-109607142D01*
X151964285Y-109578571D01*
X151907142Y-109550000D01*
X151850000Y-109492857D01*
X151821428Y-109407142D01*
X151821428Y-109350000D01*
X151850000Y-109264285D01*
X151878571Y-109235714D01*
X151878571Y-109007142D02*
X151850000Y-108978571D01*
X151821428Y-108921428D01*
X151821428Y-108778571D01*
X151850000Y-108721428D01*
X151878571Y-108692857D01*
X151935714Y-108664285D01*
X151992857Y-108664285D01*
X152078571Y-108692857D01*
X152421428Y-109035714D01*
X152421428Y-108664285D01*
X151821428Y-108121428D02*
X151821428Y-108407142D01*
X152107142Y-108435714D01*
X152078571Y-108407142D01*
X152050000Y-108350000D01*
X152050000Y-108207142D01*
X152078571Y-108150000D01*
X152107142Y-108121428D01*
X152164285Y-108092857D01*
X152307142Y-108092857D01*
X152364285Y-108121428D01*
X152392857Y-108150000D01*
X152421428Y-108207142D01*
X152421428Y-108350000D01*
X152392857Y-108407142D01*
X152364285Y-108435714D01*
X150114285Y-109235714D02*
X150142857Y-109264285D01*
X150171428Y-109350000D01*
X150171428Y-109407142D01*
X150142857Y-109492857D01*
X150085714Y-109550000D01*
X150028571Y-109578571D01*
X149914285Y-109607142D01*
X149828571Y-109607142D01*
X149714285Y-109578571D01*
X149657142Y-109550000D01*
X149600000Y-109492857D01*
X149571428Y-109407142D01*
X149571428Y-109350000D01*
X149600000Y-109264285D01*
X149628571Y-109235714D01*
X149628571Y-109007142D02*
X149600000Y-108978571D01*
X149571428Y-108921428D01*
X149571428Y-108778571D01*
X149600000Y-108721428D01*
X149628571Y-108692857D01*
X149685714Y-108664285D01*
X149742857Y-108664285D01*
X149828571Y-108692857D01*
X150171428Y-109035714D01*
X150171428Y-108664285D01*
X149771428Y-108150000D02*
X150171428Y-108150000D01*
X149542857Y-108292857D02*
X149971428Y-108435714D01*
X149971428Y-108064285D01*
X82614285Y-100985714D02*
X82642857Y-101014285D01*
X82671428Y-101100000D01*
X82671428Y-101157142D01*
X82642857Y-101242857D01*
X82585714Y-101300000D01*
X82528571Y-101328571D01*
X82414285Y-101357142D01*
X82328571Y-101357142D01*
X82214285Y-101328571D01*
X82157142Y-101300000D01*
X82100000Y-101242857D01*
X82071428Y-101157142D01*
X82071428Y-101100000D01*
X82100000Y-101014285D01*
X82128571Y-100985714D01*
X82671428Y-100414285D02*
X82671428Y-100757142D01*
X82671428Y-100585714D02*
X82071428Y-100585714D01*
X82157142Y-100642857D01*
X82214285Y-100700000D01*
X82242857Y-100757142D01*
X82071428Y-100214285D02*
X82071428Y-99842857D01*
X82300000Y-100042857D01*
X82300000Y-99957142D01*
X82328571Y-99900000D01*
X82357142Y-99871428D01*
X82414285Y-99842857D01*
X82557142Y-99842857D01*
X82614285Y-99871428D01*
X82642857Y-99900000D01*
X82671428Y-99957142D01*
X82671428Y-100128571D01*
X82642857Y-100185714D01*
X82614285Y-100214285D01*
X97550000Y-116814285D02*
X97521428Y-116842857D01*
X97435714Y-116871428D01*
X97378571Y-116871428D01*
X97292857Y-116842857D01*
X97235714Y-116785714D01*
X97207142Y-116728571D01*
X97178571Y-116614285D01*
X97178571Y-116528571D01*
X97207142Y-116414285D01*
X97235714Y-116357142D01*
X97292857Y-116300000D01*
X97378571Y-116271428D01*
X97435714Y-116271428D01*
X97521428Y-116300000D01*
X97550000Y-116328571D01*
X97750000Y-116271428D02*
X98121428Y-116271428D01*
X97921428Y-116500000D01*
X98007142Y-116500000D01*
X98064285Y-116528571D01*
X98092857Y-116557142D01*
X98121428Y-116614285D01*
X98121428Y-116757142D01*
X98092857Y-116814285D01*
X98064285Y-116842857D01*
X98007142Y-116871428D01*
X97835714Y-116871428D01*
X97778571Y-116842857D01*
X97750000Y-116814285D01*
X99900000Y-112014285D02*
X99871428Y-112042857D01*
X99785714Y-112071428D01*
X99728571Y-112071428D01*
X99642857Y-112042857D01*
X99585714Y-111985714D01*
X99557142Y-111928571D01*
X99528571Y-111814285D01*
X99528571Y-111728571D01*
X99557142Y-111614285D01*
X99585714Y-111557142D01*
X99642857Y-111500000D01*
X99728571Y-111471428D01*
X99785714Y-111471428D01*
X99871428Y-111500000D01*
X99900000Y-111528571D01*
X100128571Y-111528571D02*
X100157142Y-111500000D01*
X100214285Y-111471428D01*
X100357142Y-111471428D01*
X100414285Y-111500000D01*
X100442857Y-111528571D01*
X100471428Y-111585714D01*
X100471428Y-111642857D01*
X100442857Y-111728571D01*
X100100000Y-112071428D01*
X100471428Y-112071428D01*
X83364285Y-103014285D02*
X83335714Y-103042857D01*
X83250000Y-103071428D01*
X83192857Y-103071428D01*
X83107142Y-103042857D01*
X83050000Y-102985714D01*
X83021428Y-102928571D01*
X82992857Y-102814285D01*
X82992857Y-102728571D01*
X83021428Y-102614285D01*
X83050000Y-102557142D01*
X83107142Y-102500000D01*
X83192857Y-102471428D01*
X83250000Y-102471428D01*
X83335714Y-102500000D01*
X83364285Y-102528571D01*
X83935714Y-103071428D02*
X83592857Y-103071428D01*
X83764285Y-103071428D02*
X83764285Y-102471428D01*
X83707142Y-102557142D01*
X83650000Y-102614285D01*
X83592857Y-102642857D01*
X84478571Y-102471428D02*
X84192857Y-102471428D01*
X84164285Y-102757142D01*
X84192857Y-102728571D01*
X84250000Y-102700000D01*
X84392857Y-102700000D01*
X84450000Y-102728571D01*
X84478571Y-102757142D01*
X84507142Y-102814285D01*
X84507142Y-102957142D01*
X84478571Y-103014285D01*
X84450000Y-103042857D01*
X84392857Y-103071428D01*
X84250000Y-103071428D01*
X84192857Y-103042857D01*
X84164285Y-103014285D01*
X89000000Y-105314285D02*
X88971428Y-105342857D01*
X88885714Y-105371428D01*
X88828571Y-105371428D01*
X88742857Y-105342857D01*
X88685714Y-105285714D01*
X88657142Y-105228571D01*
X88628571Y-105114285D01*
X88628571Y-105028571D01*
X88657142Y-104914285D01*
X88685714Y-104857142D01*
X88742857Y-104800000D01*
X88828571Y-104771428D01*
X88885714Y-104771428D01*
X88971428Y-104800000D01*
X89000000Y-104828571D01*
X89571428Y-105371428D02*
X89228571Y-105371428D01*
X89400000Y-105371428D02*
X89400000Y-104771428D01*
X89342857Y-104857142D01*
X89285714Y-104914285D01*
X89228571Y-104942857D01*
X75100000Y-112814285D02*
X75071428Y-112842857D01*
X74985714Y-112871428D01*
X74928571Y-112871428D01*
X74842857Y-112842857D01*
X74785714Y-112785714D01*
X74757142Y-112728571D01*
X74728571Y-112614285D01*
X74728571Y-112528571D01*
X74757142Y-112414285D01*
X74785714Y-112357142D01*
X74842857Y-112300000D01*
X74928571Y-112271428D01*
X74985714Y-112271428D01*
X75071428Y-112300000D01*
X75100000Y-112328571D01*
X75614285Y-112471428D02*
X75614285Y-112871428D01*
X75471428Y-112242857D02*
X75328571Y-112671428D01*
X75700000Y-112671428D01*
X85064285Y-106964285D02*
X85035714Y-106992857D01*
X84950000Y-107021428D01*
X84892857Y-107021428D01*
X84807142Y-106992857D01*
X84750000Y-106935714D01*
X84721428Y-106878571D01*
X84692857Y-106764285D01*
X84692857Y-106678571D01*
X84721428Y-106564285D01*
X84750000Y-106507142D01*
X84807142Y-106450000D01*
X84892857Y-106421428D01*
X84950000Y-106421428D01*
X85035714Y-106450000D01*
X85064285Y-106478571D01*
X85635714Y-107021428D02*
X85292857Y-107021428D01*
X85464285Y-107021428D02*
X85464285Y-106421428D01*
X85407142Y-106507142D01*
X85350000Y-106564285D01*
X85292857Y-106592857D01*
X85978571Y-106678571D02*
X85921428Y-106650000D01*
X85892857Y-106621428D01*
X85864285Y-106564285D01*
X85864285Y-106535714D01*
X85892857Y-106478571D01*
X85921428Y-106450000D01*
X85978571Y-106421428D01*
X86092857Y-106421428D01*
X86150000Y-106450000D01*
X86178571Y-106478571D01*
X86207142Y-106535714D01*
X86207142Y-106564285D01*
X86178571Y-106621428D01*
X86150000Y-106650000D01*
X86092857Y-106678571D01*
X85978571Y-106678571D01*
X85921428Y-106707142D01*
X85892857Y-106735714D01*
X85864285Y-106792857D01*
X85864285Y-106907142D01*
X85892857Y-106964285D01*
X85921428Y-106992857D01*
X85978571Y-107021428D01*
X86092857Y-107021428D01*
X86150000Y-106992857D01*
X86178571Y-106964285D01*
X86207142Y-106907142D01*
X86207142Y-106792857D01*
X86178571Y-106735714D01*
X86150000Y-106707142D01*
X86092857Y-106678571D01*
X70927142Y-81532508D02*
X70955714Y-81446794D01*
X70984285Y-81418222D01*
X71041428Y-81389651D01*
X71127142Y-81389651D01*
X71184285Y-81418222D01*
X71212857Y-81446794D01*
X71241428Y-81503937D01*
X71241428Y-81732508D01*
X70641428Y-81732508D01*
X70641428Y-81532508D01*
X70670000Y-81475365D01*
X70698571Y-81446794D01*
X70755714Y-81418222D01*
X70812857Y-81418222D01*
X70870000Y-81446794D01*
X70898571Y-81475365D01*
X70927142Y-81532508D01*
X70927142Y-81732508D01*
X70641428Y-81218222D02*
X70641428Y-80875365D01*
X71241428Y-81046794D02*
X70641428Y-81046794D01*
X71241428Y-80361080D02*
X71241428Y-80703937D01*
X71241428Y-80532508D02*
X70641428Y-80532508D01*
X70727142Y-80589651D01*
X70784285Y-80646794D01*
X70812857Y-80703937D01*
%LPC*%
D16*
G36*
X132698000Y-104398000D02*
G01*
X132698000Y-103625000D01*
X132698208Y-103617045D01*
X132698833Y-103609112D01*
X132699871Y-103601222D01*
X132701322Y-103593397D01*
X132703179Y-103585660D01*
X132705439Y-103578029D01*
X132708096Y-103570528D01*
X132711141Y-103563176D01*
X132714567Y-103555993D01*
X132718364Y-103549000D01*
X132722522Y-103542215D01*
X132727029Y-103535657D01*
X132731874Y-103529343D01*
X132737042Y-103523292D01*
X132742520Y-103517520D01*
X132748292Y-103512042D01*
X132754343Y-103506874D01*
X132760657Y-103502029D01*
X132767215Y-103497522D01*
X132774000Y-103493364D01*
X132780993Y-103489567D01*
X132788176Y-103486141D01*
X132795528Y-103483096D01*
X132803029Y-103480439D01*
X132810660Y-103478179D01*
X132818397Y-103476322D01*
X132826222Y-103474871D01*
X132834112Y-103473833D01*
X132842045Y-103473208D01*
X132850000Y-103473000D01*
X132950000Y-103473000D01*
X132957955Y-103473208D01*
X132965888Y-103473833D01*
X132973778Y-103474871D01*
X132981603Y-103476322D01*
X132989340Y-103478179D01*
X132996971Y-103480439D01*
X133004472Y-103483096D01*
X133011824Y-103486141D01*
X133019007Y-103489567D01*
X133026000Y-103493364D01*
X133032785Y-103497522D01*
X133039343Y-103502029D01*
X133045657Y-103506874D01*
X133051708Y-103512042D01*
X133057480Y-103517520D01*
X133062958Y-103523292D01*
X133068126Y-103529343D01*
X133072971Y-103535657D01*
X133077478Y-103542215D01*
X133081636Y-103549000D01*
X133085433Y-103555993D01*
X133088859Y-103563176D01*
X133091904Y-103570528D01*
X133094561Y-103578029D01*
X133096821Y-103585660D01*
X133098678Y-103593397D01*
X133100129Y-103601222D01*
X133101167Y-103609112D01*
X133101792Y-103617045D01*
X133102000Y-103625000D01*
X133102000Y-103998000D01*
X133247000Y-103998000D01*
X133248000Y-103998000D01*
X133248000Y-103623000D01*
X133248206Y-103615150D01*
X133248822Y-103607321D01*
X133249847Y-103599535D01*
X133251278Y-103591813D01*
X133253111Y-103584177D01*
X133255342Y-103576647D01*
X133257963Y-103569245D01*
X133260968Y-103561990D01*
X133264349Y-103554901D01*
X133268096Y-103548000D01*
X133272199Y-103541304D01*
X133276647Y-103534832D01*
X133281428Y-103528602D01*
X133286528Y-103522630D01*
X133291934Y-103516934D01*
X133297630Y-103511528D01*
X133303602Y-103506428D01*
X133309832Y-103501647D01*
X133316304Y-103497199D01*
X133323000Y-103493096D01*
X133329901Y-103489349D01*
X133336990Y-103485968D01*
X133344245Y-103482963D01*
X133351647Y-103480342D01*
X133359177Y-103478111D01*
X133366813Y-103476278D01*
X133374535Y-103474847D01*
X133382321Y-103473822D01*
X133390150Y-103473206D01*
X133398000Y-103473000D01*
X133501000Y-103473000D01*
X133508903Y-103473207D01*
X133516784Y-103473827D01*
X133524622Y-103474859D01*
X133532395Y-103476300D01*
X133540082Y-103478145D01*
X133547662Y-103480390D01*
X133555114Y-103483029D01*
X133562417Y-103486055D01*
X133569553Y-103489458D01*
X133576500Y-103493230D01*
X133583240Y-103497361D01*
X133589756Y-103501838D01*
X133596027Y-103506651D01*
X133602039Y-103511785D01*
X133607773Y-103517227D01*
X133613215Y-103522961D01*
X133618349Y-103528973D01*
X133623162Y-103535244D01*
X133627639Y-103541760D01*
X133631770Y-103548500D01*
X133635542Y-103555447D01*
X133638945Y-103562583D01*
X133641971Y-103569886D01*
X133644610Y-103577338D01*
X133646855Y-103584918D01*
X133648700Y-103592605D01*
X133650141Y-103600378D01*
X133651173Y-103608216D01*
X133651793Y-103616097D01*
X133652000Y-103624000D01*
X133652000Y-104398000D01*
X134150000Y-104398000D01*
X134157955Y-104398208D01*
X134165888Y-104398833D01*
X134173778Y-104399871D01*
X134181603Y-104401322D01*
X134189340Y-104403179D01*
X134196971Y-104405439D01*
X134204472Y-104408096D01*
X134211824Y-104411141D01*
X134219007Y-104414567D01*
X134226000Y-104418364D01*
X134232785Y-104422522D01*
X134239343Y-104427029D01*
X134245657Y-104431874D01*
X134251708Y-104437042D01*
X134257480Y-104442520D01*
X134262958Y-104448292D01*
X134268126Y-104454343D01*
X134272971Y-104460657D01*
X134277478Y-104467215D01*
X134281636Y-104474000D01*
X134285433Y-104480993D01*
X134288859Y-104488176D01*
X134291904Y-104495528D01*
X134294561Y-104503029D01*
X134296821Y-104510660D01*
X134298678Y-104518397D01*
X134300129Y-104526222D01*
X134301167Y-104534112D01*
X134301792Y-104542045D01*
X134302000Y-104550000D01*
X134302000Y-107501000D01*
X134301794Y-107508850D01*
X134301178Y-107516679D01*
X134300153Y-107524465D01*
X134298722Y-107532187D01*
X134296889Y-107539823D01*
X134294658Y-107547353D01*
X134292037Y-107554755D01*
X134289032Y-107562010D01*
X134285651Y-107569099D01*
X134281904Y-107576000D01*
X134277801Y-107582696D01*
X134273353Y-107589168D01*
X134268572Y-107595398D01*
X134263472Y-107601370D01*
X134258066Y-107607066D01*
X134252370Y-107612472D01*
X134246398Y-107617572D01*
X134240168Y-107622353D01*
X134233696Y-107626801D01*
X134227000Y-107630904D01*
X134220099Y-107634651D01*
X134213010Y-107638032D01*
X134205755Y-107641037D01*
X134198353Y-107643658D01*
X134190823Y-107645889D01*
X134183187Y-107647722D01*
X134175465Y-107649153D01*
X134167679Y-107650178D01*
X134159850Y-107650794D01*
X134152000Y-107651000D01*
X133653000Y-107651000D01*
X133652948Y-107651001D01*
X133652895Y-107651005D01*
X133652844Y-107651012D01*
X133652792Y-107651022D01*
X133652741Y-107651034D01*
X133652691Y-107651049D01*
X133652642Y-107651066D01*
X133652593Y-107651086D01*
X133652546Y-107651109D01*
X133652500Y-107651134D01*
X133652455Y-107651161D01*
X133652412Y-107651191D01*
X133652371Y-107651223D01*
X133652331Y-107651257D01*
X133652293Y-107651293D01*
X133652257Y-107651331D01*
X133652223Y-107651371D01*
X133652191Y-107651412D01*
X133652161Y-107651455D01*
X133652134Y-107651500D01*
X133652109Y-107651546D01*
X133652086Y-107651593D01*
X133652066Y-107651642D01*
X133652049Y-107651691D01*
X133652034Y-107651741D01*
X133652022Y-107651792D01*
X133652012Y-107651844D01*
X133652005Y-107651895D01*
X133652001Y-107651948D01*
X133652000Y-107652000D01*
X133652000Y-108426000D01*
X133651794Y-108433850D01*
X133651178Y-108441679D01*
X133650153Y-108449465D01*
X133648722Y-108457187D01*
X133646889Y-108464823D01*
X133644658Y-108472353D01*
X133642037Y-108479755D01*
X133639032Y-108487010D01*
X133635651Y-108494099D01*
X133631904Y-108501000D01*
X133627801Y-108507696D01*
X133623353Y-108514168D01*
X133618572Y-108520398D01*
X133613472Y-108526370D01*
X133608066Y-108532066D01*
X133602370Y-108537472D01*
X133596398Y-108542572D01*
X133590168Y-108547353D01*
X133583696Y-108551801D01*
X133577000Y-108555904D01*
X133570099Y-108559651D01*
X133563010Y-108563032D01*
X133555755Y-108566037D01*
X133548353Y-108568658D01*
X133540823Y-108570889D01*
X133533187Y-108572722D01*
X133525465Y-108574153D01*
X133517679Y-108575178D01*
X133509850Y-108575794D01*
X133502000Y-108576000D01*
X133397000Y-108576000D01*
X133389202Y-108575796D01*
X133381425Y-108575184D01*
X133373691Y-108574166D01*
X133366021Y-108572744D01*
X133358436Y-108570923D01*
X133350956Y-108568707D01*
X133343603Y-108566103D01*
X133336396Y-108563118D01*
X133329355Y-108559760D01*
X133322500Y-108556038D01*
X133315849Y-108551962D01*
X133309420Y-108547544D01*
X133303231Y-108542795D01*
X133297300Y-108537729D01*
X133291641Y-108532359D01*
X133286271Y-108526700D01*
X133281205Y-108520769D01*
X133276456Y-108514580D01*
X133272038Y-108508151D01*
X133267962Y-108501500D01*
X133264240Y-108494645D01*
X133260882Y-108487604D01*
X133257897Y-108480397D01*
X133255293Y-108473044D01*
X133253077Y-108465564D01*
X133251256Y-108457979D01*
X133249834Y-108450309D01*
X133248816Y-108442575D01*
X133248204Y-108434798D01*
X133248000Y-108427000D01*
X133248000Y-108052000D01*
X133103000Y-108052000D01*
X133102948Y-108052001D01*
X133102895Y-108052005D01*
X133102844Y-108052012D01*
X133102792Y-108052022D01*
X133102741Y-108052034D01*
X133102691Y-108052049D01*
X133102642Y-108052066D01*
X133102593Y-108052086D01*
X133102546Y-108052109D01*
X133102500Y-108052134D01*
X133102455Y-108052161D01*
X133102412Y-108052191D01*
X133102371Y-108052223D01*
X133102331Y-108052257D01*
X133102293Y-108052293D01*
X133102257Y-108052331D01*
X133102223Y-108052371D01*
X133102191Y-108052412D01*
X133102161Y-108052455D01*
X133102134Y-108052500D01*
X133102109Y-108052546D01*
X133102086Y-108052593D01*
X133102066Y-108052642D01*
X133102049Y-108052691D01*
X133102034Y-108052741D01*
X133102022Y-108052792D01*
X133102012Y-108052844D01*
X133102005Y-108052895D01*
X133102001Y-108052948D01*
X133102000Y-108053000D01*
X133102000Y-108426000D01*
X133101794Y-108433850D01*
X133101178Y-108441679D01*
X133100153Y-108449465D01*
X133098722Y-108457187D01*
X133096889Y-108464823D01*
X133094658Y-108472353D01*
X133092037Y-108479755D01*
X133089032Y-108487010D01*
X133085651Y-108494099D01*
X133081904Y-108501000D01*
X133077801Y-108507696D01*
X133073353Y-108514168D01*
X133068572Y-108520398D01*
X133063472Y-108526370D01*
X133058066Y-108532066D01*
X133052370Y-108537472D01*
X133046398Y-108542572D01*
X133040168Y-108547353D01*
X133033696Y-108551801D01*
X133027000Y-108555904D01*
X133020099Y-108559651D01*
X133013010Y-108563032D01*
X133005755Y-108566037D01*
X132998353Y-108568658D01*
X132990823Y-108570889D01*
X132983187Y-108572722D01*
X132975465Y-108574153D01*
X132967679Y-108575178D01*
X132959850Y-108575794D01*
X132952000Y-108576000D01*
X132846000Y-108576000D01*
X132838254Y-108575797D01*
X132830530Y-108575189D01*
X132822848Y-108574178D01*
X132815229Y-108572766D01*
X132807695Y-108570957D01*
X132800265Y-108568756D01*
X132792962Y-108566170D01*
X132785803Y-108563205D01*
X132778809Y-108559869D01*
X132772000Y-108556172D01*
X132765393Y-108552123D01*
X132759008Y-108547735D01*
X132752861Y-108543018D01*
X132746969Y-108537985D01*
X132741348Y-108532652D01*
X132736015Y-108527031D01*
X132730982Y-108521139D01*
X132726265Y-108514992D01*
X132721877Y-108508607D01*
X132717828Y-108502000D01*
X132714131Y-108495191D01*
X132710795Y-108488197D01*
X132707830Y-108481038D01*
X132705244Y-108473735D01*
X132703043Y-108466305D01*
X132701234Y-108458771D01*
X132699822Y-108451152D01*
X132698811Y-108443470D01*
X132698203Y-108435746D01*
X132698000Y-108428000D01*
X132698000Y-107652000D01*
X132200000Y-107652000D01*
X132192045Y-107651792D01*
X132184112Y-107651167D01*
X132176222Y-107650129D01*
X132168397Y-107648678D01*
X132160660Y-107646821D01*
X132153029Y-107644561D01*
X132145528Y-107641904D01*
X132138176Y-107638859D01*
X132130993Y-107635433D01*
X132124000Y-107631636D01*
X132117215Y-107627478D01*
X132110657Y-107622971D01*
X132104343Y-107618126D01*
X132098292Y-107612958D01*
X132092520Y-107607480D01*
X132087042Y-107601708D01*
X132081874Y-107595657D01*
X132077029Y-107589343D01*
X132072522Y-107582785D01*
X132068364Y-107576000D01*
X132064567Y-107569007D01*
X132061141Y-107561824D01*
X132058096Y-107554472D01*
X132055439Y-107546971D01*
X132053179Y-107539340D01*
X132051322Y-107531603D01*
X132049871Y-107523778D01*
X132048833Y-107515888D01*
X132048208Y-107507955D01*
X132048000Y-107500000D01*
X132048000Y-104551000D01*
X132048208Y-104543045D01*
X132048833Y-104535112D01*
X132049871Y-104527222D01*
X132051322Y-104519397D01*
X132053179Y-104511660D01*
X132055439Y-104504029D01*
X132058096Y-104496528D01*
X132061141Y-104489176D01*
X132064567Y-104481993D01*
X132068364Y-104475000D01*
X132072522Y-104468215D01*
X132077029Y-104461657D01*
X132081874Y-104455343D01*
X132087042Y-104449292D01*
X132092520Y-104443520D01*
X132098292Y-104438042D01*
X132104343Y-104432874D01*
X132110657Y-104428029D01*
X132117215Y-104423522D01*
X132124000Y-104419364D01*
X132130993Y-104415567D01*
X132138176Y-104412141D01*
X132145528Y-104409096D01*
X132153029Y-104406439D01*
X132160660Y-104404179D01*
X132168397Y-104402322D01*
X132176222Y-104400871D01*
X132184112Y-104399833D01*
X132192045Y-104399208D01*
X132200000Y-104399000D01*
X132697000Y-104399000D01*
X132697052Y-104398999D01*
X132697105Y-104398995D01*
X132697156Y-104398988D01*
X132697208Y-104398978D01*
X132697259Y-104398966D01*
X132697309Y-104398951D01*
X132697358Y-104398934D01*
X132697407Y-104398914D01*
X132697454Y-104398891D01*
X132697500Y-104398866D01*
X132697545Y-104398839D01*
X132697588Y-104398809D01*
X132697629Y-104398777D01*
X132697669Y-104398743D01*
X132697707Y-104398707D01*
X132697743Y-104398669D01*
X132697777Y-104398629D01*
X132697809Y-104398588D01*
X132697839Y-104398545D01*
X132697866Y-104398500D01*
X132697891Y-104398454D01*
X132697914Y-104398407D01*
X132697934Y-104398358D01*
X132697951Y-104398309D01*
X132697966Y-104398259D01*
X132697978Y-104398208D01*
X132697988Y-104398156D01*
X132697995Y-104398105D01*
X132697999Y-104398052D01*
X132698000Y-104398000D01*
G37*
X132698000Y-104398000D02*
X132698000Y-103625000D01*
X132698208Y-103617045D01*
X132698833Y-103609112D01*
X132699871Y-103601222D01*
X132701322Y-103593397D01*
X132703179Y-103585660D01*
X132705439Y-103578029D01*
X132708096Y-103570528D01*
X132711141Y-103563176D01*
X132714567Y-103555993D01*
X132718364Y-103549000D01*
X132722522Y-103542215D01*
X132727029Y-103535657D01*
X132731874Y-103529343D01*
X132737042Y-103523292D01*
X132742520Y-103517520D01*
X132748292Y-103512042D01*
X132754343Y-103506874D01*
X132760657Y-103502029D01*
X132767215Y-103497522D01*
X132774000Y-103493364D01*
X132780993Y-103489567D01*
X132788176Y-103486141D01*
X132795528Y-103483096D01*
X132803029Y-103480439D01*
X132810660Y-103478179D01*
X132818397Y-103476322D01*
X132826222Y-103474871D01*
X132834112Y-103473833D01*
X132842045Y-103473208D01*
X132850000Y-103473000D01*
X132950000Y-103473000D01*
X132957955Y-103473208D01*
X132965888Y-103473833D01*
X132973778Y-103474871D01*
X132981603Y-103476322D01*
X132989340Y-103478179D01*
X132996971Y-103480439D01*
X133004472Y-103483096D01*
X133011824Y-103486141D01*
X133019007Y-103489567D01*
X133026000Y-103493364D01*
X133032785Y-103497522D01*
X133039343Y-103502029D01*
X133045657Y-103506874D01*
X133051708Y-103512042D01*
X133057480Y-103517520D01*
X133062958Y-103523292D01*
X133068126Y-103529343D01*
X133072971Y-103535657D01*
X133077478Y-103542215D01*
X133081636Y-103549000D01*
X133085433Y-103555993D01*
X133088859Y-103563176D01*
X133091904Y-103570528D01*
X133094561Y-103578029D01*
X133096821Y-103585660D01*
X133098678Y-103593397D01*
X133100129Y-103601222D01*
X133101167Y-103609112D01*
X133101792Y-103617045D01*
X133102000Y-103625000D01*
X133102000Y-103998000D01*
X133247000Y-103998000D01*
X133248000Y-103998000D01*
X133248000Y-103623000D01*
X133248206Y-103615150D01*
X133248822Y-103607321D01*
X133249847Y-103599535D01*
X133251278Y-103591813D01*
X133253111Y-103584177D01*
X133255342Y-103576647D01*
X133257963Y-103569245D01*
X133260968Y-103561990D01*
X133264349Y-103554901D01*
X133268096Y-103548000D01*
X133272199Y-103541304D01*
X133276647Y-103534832D01*
X133281428Y-103528602D01*
X133286528Y-103522630D01*
X133291934Y-103516934D01*
X133297630Y-103511528D01*
X133303602Y-103506428D01*
X133309832Y-103501647D01*
X133316304Y-103497199D01*
X133323000Y-103493096D01*
X133329901Y-103489349D01*
X133336990Y-103485968D01*
X133344245Y-103482963D01*
X133351647Y-103480342D01*
X133359177Y-103478111D01*
X133366813Y-103476278D01*
X133374535Y-103474847D01*
X133382321Y-103473822D01*
X133390150Y-103473206D01*
X133398000Y-103473000D01*
X133501000Y-103473000D01*
X133508903Y-103473207D01*
X133516784Y-103473827D01*
X133524622Y-103474859D01*
X133532395Y-103476300D01*
X133540082Y-103478145D01*
X133547662Y-103480390D01*
X133555114Y-103483029D01*
X133562417Y-103486055D01*
X133569553Y-103489458D01*
X133576500Y-103493230D01*
X133583240Y-103497361D01*
X133589756Y-103501838D01*
X133596027Y-103506651D01*
X133602039Y-103511785D01*
X133607773Y-103517227D01*
X133613215Y-103522961D01*
X133618349Y-103528973D01*
X133623162Y-103535244D01*
X133627639Y-103541760D01*
X133631770Y-103548500D01*
X133635542Y-103555447D01*
X133638945Y-103562583D01*
X133641971Y-103569886D01*
X133644610Y-103577338D01*
X133646855Y-103584918D01*
X133648700Y-103592605D01*
X133650141Y-103600378D01*
X133651173Y-103608216D01*
X133651793Y-103616097D01*
X133652000Y-103624000D01*
X133652000Y-104398000D01*
X134150000Y-104398000D01*
X134157955Y-104398208D01*
X134165888Y-104398833D01*
X134173778Y-104399871D01*
X134181603Y-104401322D01*
X134189340Y-104403179D01*
X134196971Y-104405439D01*
X134204472Y-104408096D01*
X134211824Y-104411141D01*
X134219007Y-104414567D01*
X134226000Y-104418364D01*
X134232785Y-104422522D01*
X134239343Y-104427029D01*
X134245657Y-104431874D01*
X134251708Y-104437042D01*
X134257480Y-104442520D01*
X134262958Y-104448292D01*
X134268126Y-104454343D01*
X134272971Y-104460657D01*
X134277478Y-104467215D01*
X134281636Y-104474000D01*
X134285433Y-104480993D01*
X134288859Y-104488176D01*
X134291904Y-104495528D01*
X134294561Y-104503029D01*
X134296821Y-104510660D01*
X134298678Y-104518397D01*
X134300129Y-104526222D01*
X134301167Y-104534112D01*
X134301792Y-104542045D01*
X134302000Y-104550000D01*
X134302000Y-107501000D01*
X134301794Y-107508850D01*
X134301178Y-107516679D01*
X134300153Y-107524465D01*
X134298722Y-107532187D01*
X134296889Y-107539823D01*
X134294658Y-107547353D01*
X134292037Y-107554755D01*
X134289032Y-107562010D01*
X134285651Y-107569099D01*
X134281904Y-107576000D01*
X134277801Y-107582696D01*
X134273353Y-107589168D01*
X134268572Y-107595398D01*
X134263472Y-107601370D01*
X134258066Y-107607066D01*
X134252370Y-107612472D01*
X134246398Y-107617572D01*
X134240168Y-107622353D01*
X134233696Y-107626801D01*
X134227000Y-107630904D01*
X134220099Y-107634651D01*
X134213010Y-107638032D01*
X134205755Y-107641037D01*
X134198353Y-107643658D01*
X134190823Y-107645889D01*
X134183187Y-107647722D01*
X134175465Y-107649153D01*
X134167679Y-107650178D01*
X134159850Y-107650794D01*
X134152000Y-107651000D01*
X133653000Y-107651000D01*
X133652948Y-107651001D01*
X133652895Y-107651005D01*
X133652844Y-107651012D01*
X133652792Y-107651022D01*
X133652741Y-107651034D01*
X133652691Y-107651049D01*
X133652642Y-107651066D01*
X133652593Y-107651086D01*
X133652546Y-107651109D01*
X133652500Y-107651134D01*
X133652455Y-107651161D01*
X133652412Y-107651191D01*
X133652371Y-107651223D01*
X133652331Y-107651257D01*
X133652293Y-107651293D01*
X133652257Y-107651331D01*
X133652223Y-107651371D01*
X133652191Y-107651412D01*
X133652161Y-107651455D01*
X133652134Y-107651500D01*
X133652109Y-107651546D01*
X133652086Y-107651593D01*
X133652066Y-107651642D01*
X133652049Y-107651691D01*
X133652034Y-107651741D01*
X133652022Y-107651792D01*
X133652012Y-107651844D01*
X133652005Y-107651895D01*
X133652001Y-107651948D01*
X133652000Y-107652000D01*
X133652000Y-108426000D01*
X133651794Y-108433850D01*
X133651178Y-108441679D01*
X133650153Y-108449465D01*
X133648722Y-108457187D01*
X133646889Y-108464823D01*
X133644658Y-108472353D01*
X133642037Y-108479755D01*
X133639032Y-108487010D01*
X133635651Y-108494099D01*
X133631904Y-108501000D01*
X133627801Y-108507696D01*
X133623353Y-108514168D01*
X133618572Y-108520398D01*
X133613472Y-108526370D01*
X133608066Y-108532066D01*
X133602370Y-108537472D01*
X133596398Y-108542572D01*
X133590168Y-108547353D01*
X133583696Y-108551801D01*
X133577000Y-108555904D01*
X133570099Y-108559651D01*
X133563010Y-108563032D01*
X133555755Y-108566037D01*
X133548353Y-108568658D01*
X133540823Y-108570889D01*
X133533187Y-108572722D01*
X133525465Y-108574153D01*
X133517679Y-108575178D01*
X133509850Y-108575794D01*
X133502000Y-108576000D01*
X133397000Y-108576000D01*
X133389202Y-108575796D01*
X133381425Y-108575184D01*
X133373691Y-108574166D01*
X133366021Y-108572744D01*
X133358436Y-108570923D01*
X133350956Y-108568707D01*
X133343603Y-108566103D01*
X133336396Y-108563118D01*
X133329355Y-108559760D01*
X133322500Y-108556038D01*
X133315849Y-108551962D01*
X133309420Y-108547544D01*
X133303231Y-108542795D01*
X133297300Y-108537729D01*
X133291641Y-108532359D01*
X133286271Y-108526700D01*
X133281205Y-108520769D01*
X133276456Y-108514580D01*
X133272038Y-108508151D01*
X133267962Y-108501500D01*
X133264240Y-108494645D01*
X133260882Y-108487604D01*
X133257897Y-108480397D01*
X133255293Y-108473044D01*
X133253077Y-108465564D01*
X133251256Y-108457979D01*
X133249834Y-108450309D01*
X133248816Y-108442575D01*
X133248204Y-108434798D01*
X133248000Y-108427000D01*
X133248000Y-108052000D01*
X133103000Y-108052000D01*
X133102948Y-108052001D01*
X133102895Y-108052005D01*
X133102844Y-108052012D01*
X133102792Y-108052022D01*
X133102741Y-108052034D01*
X133102691Y-108052049D01*
X133102642Y-108052066D01*
X133102593Y-108052086D01*
X133102546Y-108052109D01*
X133102500Y-108052134D01*
X133102455Y-108052161D01*
X133102412Y-108052191D01*
X133102371Y-108052223D01*
X133102331Y-108052257D01*
X133102293Y-108052293D01*
X133102257Y-108052331D01*
X133102223Y-108052371D01*
X133102191Y-108052412D01*
X133102161Y-108052455D01*
X133102134Y-108052500D01*
X133102109Y-108052546D01*
X133102086Y-108052593D01*
X133102066Y-108052642D01*
X133102049Y-108052691D01*
X133102034Y-108052741D01*
X133102022Y-108052792D01*
X133102012Y-108052844D01*
X133102005Y-108052895D01*
X133102001Y-108052948D01*
X133102000Y-108053000D01*
X133102000Y-108426000D01*
X133101794Y-108433850D01*
X133101178Y-108441679D01*
X133100153Y-108449465D01*
X133098722Y-108457187D01*
X133096889Y-108464823D01*
X133094658Y-108472353D01*
X133092037Y-108479755D01*
X133089032Y-108487010D01*
X133085651Y-108494099D01*
X133081904Y-108501000D01*
X133077801Y-108507696D01*
X133073353Y-108514168D01*
X133068572Y-108520398D01*
X133063472Y-108526370D01*
X133058066Y-108532066D01*
X133052370Y-108537472D01*
X133046398Y-108542572D01*
X133040168Y-108547353D01*
X133033696Y-108551801D01*
X133027000Y-108555904D01*
X133020099Y-108559651D01*
X133013010Y-108563032D01*
X133005755Y-108566037D01*
X132998353Y-108568658D01*
X132990823Y-108570889D01*
X132983187Y-108572722D01*
X132975465Y-108574153D01*
X132967679Y-108575178D01*
X132959850Y-108575794D01*
X132952000Y-108576000D01*
X132846000Y-108576000D01*
X132838254Y-108575797D01*
X132830530Y-108575189D01*
X132822848Y-108574178D01*
X132815229Y-108572766D01*
X132807695Y-108570957D01*
X132800265Y-108568756D01*
X132792962Y-108566170D01*
X132785803Y-108563205D01*
X132778809Y-108559869D01*
X132772000Y-108556172D01*
X132765393Y-108552123D01*
X132759008Y-108547735D01*
X132752861Y-108543018D01*
X132746969Y-108537985D01*
X132741348Y-108532652D01*
X132736015Y-108527031D01*
X132730982Y-108521139D01*
X132726265Y-108514992D01*
X132721877Y-108508607D01*
X132717828Y-108502000D01*
X132714131Y-108495191D01*
X132710795Y-108488197D01*
X132707830Y-108481038D01*
X132705244Y-108473735D01*
X132703043Y-108466305D01*
X132701234Y-108458771D01*
X132699822Y-108451152D01*
X132698811Y-108443470D01*
X132698203Y-108435746D01*
X132698000Y-108428000D01*
X132698000Y-107652000D01*
X132200000Y-107652000D01*
X132192045Y-107651792D01*
X132184112Y-107651167D01*
X132176222Y-107650129D01*
X132168397Y-107648678D01*
X132160660Y-107646821D01*
X132153029Y-107644561D01*
X132145528Y-107641904D01*
X132138176Y-107638859D01*
X132130993Y-107635433D01*
X132124000Y-107631636D01*
X132117215Y-107627478D01*
X132110657Y-107622971D01*
X132104343Y-107618126D01*
X132098292Y-107612958D01*
X132092520Y-107607480D01*
X132087042Y-107601708D01*
X132081874Y-107595657D01*
X132077029Y-107589343D01*
X132072522Y-107582785D01*
X132068364Y-107576000D01*
X132064567Y-107569007D01*
X132061141Y-107561824D01*
X132058096Y-107554472D01*
X132055439Y-107546971D01*
X132053179Y-107539340D01*
X132051322Y-107531603D01*
X132049871Y-107523778D01*
X132048833Y-107515888D01*
X132048208Y-107507955D01*
X132048000Y-107500000D01*
X132048000Y-104551000D01*
X132048208Y-104543045D01*
X132048833Y-104535112D01*
X132049871Y-104527222D01*
X132051322Y-104519397D01*
X132053179Y-104511660D01*
X132055439Y-104504029D01*
X132058096Y-104496528D01*
X132061141Y-104489176D01*
X132064567Y-104481993D01*
X132068364Y-104475000D01*
X132072522Y-104468215D01*
X132077029Y-104461657D01*
X132081874Y-104455343D01*
X132087042Y-104449292D01*
X132092520Y-104443520D01*
X132098292Y-104438042D01*
X132104343Y-104432874D01*
X132110657Y-104428029D01*
X132117215Y-104423522D01*
X132124000Y-104419364D01*
X132130993Y-104415567D01*
X132138176Y-104412141D01*
X132145528Y-104409096D01*
X132153029Y-104406439D01*
X132160660Y-104404179D01*
X132168397Y-104402322D01*
X132176222Y-104400871D01*
X132184112Y-104399833D01*
X132192045Y-104399208D01*
X132200000Y-104399000D01*
X132697000Y-104399000D01*
X132697052Y-104398999D01*
X132697105Y-104398995D01*
X132697156Y-104398988D01*
X132697208Y-104398978D01*
X132697259Y-104398966D01*
X132697309Y-104398951D01*
X132697358Y-104398934D01*
X132697407Y-104398914D01*
X132697454Y-104398891D01*
X132697500Y-104398866D01*
X132697545Y-104398839D01*
X132697588Y-104398809D01*
X132697629Y-104398777D01*
X132697669Y-104398743D01*
X132697707Y-104398707D01*
X132697743Y-104398669D01*
X132697777Y-104398629D01*
X132697809Y-104398588D01*
X132697839Y-104398545D01*
X132697866Y-104398500D01*
X132697891Y-104398454D01*
X132697914Y-104398407D01*
X132697934Y-104398358D01*
X132697951Y-104398309D01*
X132697966Y-104398259D01*
X132697978Y-104398208D01*
X132697988Y-104398156D01*
X132697995Y-104398105D01*
X132697999Y-104398052D01*
X132698000Y-104398000D01*
G36*
G01*
X146450000Y-71550000D02*
X146450000Y-70450000D01*
G75*
G02*
X146700000Y-70200000I250000J0D01*
G01*
X149700000Y-70200000D01*
G75*
G02*
X149950000Y-70450000I0J-250000D01*
G01*
X149950000Y-71550000D01*
G75*
G02*
X149700000Y-71800000I-250000J0D01*
G01*
X146700000Y-71800000D01*
G75*
G02*
X146450000Y-71550000I0J250000D01*
G01*
G37*
G36*
G01*
X141050000Y-71550000D02*
X141050000Y-70450000D01*
G75*
G02*
X141300000Y-70200000I250000J0D01*
G01*
X144300000Y-70200000D01*
G75*
G02*
X144550000Y-70450000I0J-250000D01*
G01*
X144550000Y-71550000D01*
G75*
G02*
X144300000Y-71800000I-250000J0D01*
G01*
X141300000Y-71800000D01*
G75*
G02*
X141050000Y-71550000I0J250000D01*
G01*
G37*
G36*
G01*
X139500000Y-115000000D02*
X137500000Y-115000000D01*
G75*
G02*
X137250000Y-114750000I0J250000D01*
G01*
X137250000Y-111250000D01*
G75*
G02*
X137500000Y-111000000I250000J0D01*
G01*
X139500000Y-111000000D01*
G75*
G02*
X139750000Y-111250000I0J-250000D01*
G01*
X139750000Y-114750000D01*
G75*
G02*
X139500000Y-115000000I-250000J0D01*
G01*
G37*
G36*
G01*
X139500000Y-123000000D02*
X137500000Y-123000000D01*
G75*
G02*
X137250000Y-122750000I0J250000D01*
G01*
X137250000Y-119250000D01*
G75*
G02*
X137500000Y-119000000I250000J0D01*
G01*
X139500000Y-119000000D01*
G75*
G02*
X139750000Y-119250000I0J-250000D01*
G01*
X139750000Y-122750000D01*
G75*
G02*
X139500000Y-123000000I-250000J0D01*
G01*
G37*
G36*
G01*
X150250000Y-117460000D02*
X149150000Y-117460000D01*
G75*
G02*
X148900000Y-117210000I0J250000D01*
G01*
X148900000Y-114210000D01*
G75*
G02*
X149150000Y-113960000I250000J0D01*
G01*
X150250000Y-113960000D01*
G75*
G02*
X150500000Y-114210000I0J-250000D01*
G01*
X150500000Y-117210000D01*
G75*
G02*
X150250000Y-117460000I-250000J0D01*
G01*
G37*
G36*
G01*
X150250000Y-122860000D02*
X149150000Y-122860000D01*
G75*
G02*
X148900000Y-122610000I0J250000D01*
G01*
X148900000Y-119610000D01*
G75*
G02*
X149150000Y-119360000I250000J0D01*
G01*
X150250000Y-119360000D01*
G75*
G02*
X150500000Y-119610000I0J-250000D01*
G01*
X150500000Y-122610000D01*
G75*
G02*
X150250000Y-122860000I-250000J0D01*
G01*
G37*
G36*
G01*
X144750003Y-107037500D02*
X142549997Y-107037500D01*
G75*
G02*
X142300000Y-106787503I0J249997D01*
G01*
X142300000Y-105962497D01*
G75*
G02*
X142549997Y-105712500I249997J0D01*
G01*
X144750003Y-105712500D01*
G75*
G02*
X145000000Y-105962497I0J-249997D01*
G01*
X145000000Y-106787503D01*
G75*
G02*
X144750003Y-107037500I-249997J0D01*
G01*
G37*
G36*
G01*
X144750003Y-110162500D02*
X142549997Y-110162500D01*
G75*
G02*
X142300000Y-109912503I0J249997D01*
G01*
X142300000Y-109087497D01*
G75*
G02*
X142549997Y-108837500I249997J0D01*
G01*
X144750003Y-108837500D01*
G75*
G02*
X145000000Y-109087497I0J-249997D01*
G01*
X145000000Y-109912503D01*
G75*
G02*
X144750003Y-110162500I-249997J0D01*
G01*
G37*
G36*
G01*
X141450003Y-107037500D02*
X139249997Y-107037500D01*
G75*
G02*
X139000000Y-106787503I0J249997D01*
G01*
X139000000Y-105962497D01*
G75*
G02*
X139249997Y-105712500I249997J0D01*
G01*
X141450003Y-105712500D01*
G75*
G02*
X141700000Y-105962497I0J-249997D01*
G01*
X141700000Y-106787503D01*
G75*
G02*
X141450003Y-107037500I-249997J0D01*
G01*
G37*
G36*
G01*
X141450003Y-110162500D02*
X139249997Y-110162500D01*
G75*
G02*
X139000000Y-109912503I0J249997D01*
G01*
X139000000Y-109087497D01*
G75*
G02*
X139249997Y-108837500I249997J0D01*
G01*
X141450003Y-108837500D01*
G75*
G02*
X141700000Y-109087497I0J-249997D01*
G01*
X141700000Y-109912503D01*
G75*
G02*
X141450003Y-110162500I-249997J0D01*
G01*
G37*
G36*
G01*
X138165003Y-107037500D02*
X135964997Y-107037500D01*
G75*
G02*
X135715000Y-106787503I0J249997D01*
G01*
X135715000Y-105962497D01*
G75*
G02*
X135964997Y-105712500I249997J0D01*
G01*
X138165003Y-105712500D01*
G75*
G02*
X138415000Y-105962497I0J-249997D01*
G01*
X138415000Y-106787503D01*
G75*
G02*
X138165003Y-107037500I-249997J0D01*
G01*
G37*
G36*
G01*
X138165003Y-110162500D02*
X135964997Y-110162500D01*
G75*
G02*
X135715000Y-109912503I0J249997D01*
G01*
X135715000Y-109087497D01*
G75*
G02*
X135964997Y-108837500I249997J0D01*
G01*
X138165003Y-108837500D01*
G75*
G02*
X138415000Y-109087497I0J-249997D01*
G01*
X138415000Y-109912503D01*
G75*
G02*
X138165003Y-110162500I-249997J0D01*
G01*
G37*
D17*
X133175000Y-104750000D03*
X133175000Y-107300000D03*
X133950000Y-105500000D03*
X132400000Y-105500000D03*
X133175000Y-105500000D03*
X133950000Y-106550000D03*
X132400000Y-106550000D03*
X133175000Y-106550000D03*
D18*
X133175000Y-106025000D03*
D19*
X134825000Y-104275000D03*
X134825000Y-104775000D03*
X134825000Y-105275000D03*
X134825000Y-107775000D03*
X134825000Y-107275000D03*
X134825000Y-106775000D03*
X134825000Y-106275000D03*
X134825000Y-105775000D03*
X131525000Y-104275000D03*
X131525000Y-104775000D03*
X131525000Y-105275000D03*
X131525000Y-107775000D03*
X131525000Y-107275000D03*
X131525000Y-106775000D03*
X131525000Y-106275000D03*
X131525000Y-105775000D03*
D20*
X133925000Y-108175000D03*
X132425000Y-108175000D03*
X133925000Y-103875000D03*
X132425000Y-103875000D03*
D21*
X86675000Y-111700000D03*
G36*
G01*
X85300000Y-110087500D02*
X85300000Y-109387500D01*
G75*
G02*
X85362500Y-109325000I62500J0D01*
G01*
X85487500Y-109325000D01*
G75*
G02*
X85550000Y-109387500I0J-62500D01*
G01*
X85550000Y-110087500D01*
G75*
G02*
X85487500Y-110150000I-62500J0D01*
G01*
X85362500Y-110150000D01*
G75*
G02*
X85300000Y-110087500I0J62500D01*
G01*
G37*
G36*
G01*
X85800000Y-110087500D02*
X85800000Y-109387500D01*
G75*
G02*
X85862500Y-109325000I62500J0D01*
G01*
X85987500Y-109325000D01*
G75*
G02*
X86050000Y-109387500I0J-62500D01*
G01*
X86050000Y-110087500D01*
G75*
G02*
X85987500Y-110150000I-62500J0D01*
G01*
X85862500Y-110150000D01*
G75*
G02*
X85800000Y-110087500I0J62500D01*
G01*
G37*
G36*
G01*
X86300000Y-110087500D02*
X86300000Y-109387500D01*
G75*
G02*
X86362500Y-109325000I62500J0D01*
G01*
X86487500Y-109325000D01*
G75*
G02*
X86550000Y-109387500I0J-62500D01*
G01*
X86550000Y-110087500D01*
G75*
G02*
X86487500Y-110150000I-62500J0D01*
G01*
X86362500Y-110150000D01*
G75*
G02*
X86300000Y-110087500I0J62500D01*
G01*
G37*
G36*
G01*
X86800000Y-110087500D02*
X86800000Y-109387500D01*
G75*
G02*
X86862500Y-109325000I62500J0D01*
G01*
X86987500Y-109325000D01*
G75*
G02*
X87050000Y-109387500I0J-62500D01*
G01*
X87050000Y-110087500D01*
G75*
G02*
X86987500Y-110150000I-62500J0D01*
G01*
X86862500Y-110150000D01*
G75*
G02*
X86800000Y-110087500I0J62500D01*
G01*
G37*
G36*
G01*
X87300000Y-110087500D02*
X87300000Y-109387500D01*
G75*
G02*
X87362500Y-109325000I62500J0D01*
G01*
X87487500Y-109325000D01*
G75*
G02*
X87550000Y-109387500I0J-62500D01*
G01*
X87550000Y-110087500D01*
G75*
G02*
X87487500Y-110150000I-62500J0D01*
G01*
X87362500Y-110150000D01*
G75*
G02*
X87300000Y-110087500I0J62500D01*
G01*
G37*
G36*
G01*
X87800000Y-110087500D02*
X87800000Y-109387500D01*
G75*
G02*
X87862500Y-109325000I62500J0D01*
G01*
X87987500Y-109325000D01*
G75*
G02*
X88050000Y-109387500I0J-62500D01*
G01*
X88050000Y-110087500D01*
G75*
G02*
X87987500Y-110150000I-62500J0D01*
G01*
X87862500Y-110150000D01*
G75*
G02*
X87800000Y-110087500I0J62500D01*
G01*
G37*
G36*
G01*
X88225000Y-110512500D02*
X88225000Y-110387500D01*
G75*
G02*
X88287500Y-110325000I62500J0D01*
G01*
X88987500Y-110325000D01*
G75*
G02*
X89050000Y-110387500I0J-62500D01*
G01*
X89050000Y-110512500D01*
G75*
G02*
X88987500Y-110575000I-62500J0D01*
G01*
X88287500Y-110575000D01*
G75*
G02*
X88225000Y-110512500I0J62500D01*
G01*
G37*
G36*
G01*
X88225000Y-111012500D02*
X88225000Y-110887500D01*
G75*
G02*
X88287500Y-110825000I62500J0D01*
G01*
X88987500Y-110825000D01*
G75*
G02*
X89050000Y-110887500I0J-62500D01*
G01*
X89050000Y-111012500D01*
G75*
G02*
X88987500Y-111075000I-62500J0D01*
G01*
X88287500Y-111075000D01*
G75*
G02*
X88225000Y-111012500I0J62500D01*
G01*
G37*
G36*
G01*
X88225000Y-111512500D02*
X88225000Y-111387500D01*
G75*
G02*
X88287500Y-111325000I62500J0D01*
G01*
X88987500Y-111325000D01*
G75*
G02*
X89050000Y-111387500I0J-62500D01*
G01*
X89050000Y-111512500D01*
G75*
G02*
X88987500Y-111575000I-62500J0D01*
G01*
X88287500Y-111575000D01*
G75*
G02*
X88225000Y-111512500I0J62500D01*
G01*
G37*
G36*
G01*
X88225000Y-112012500D02*
X88225000Y-111887500D01*
G75*
G02*
X88287500Y-111825000I62500J0D01*
G01*
X88987500Y-111825000D01*
G75*
G02*
X89050000Y-111887500I0J-62500D01*
G01*
X89050000Y-112012500D01*
G75*
G02*
X88987500Y-112075000I-62500J0D01*
G01*
X88287500Y-112075000D01*
G75*
G02*
X88225000Y-112012500I0J62500D01*
G01*
G37*
G36*
G01*
X88225000Y-112512500D02*
X88225000Y-112387500D01*
G75*
G02*
X88287500Y-112325000I62500J0D01*
G01*
X88987500Y-112325000D01*
G75*
G02*
X89050000Y-112387500I0J-62500D01*
G01*
X89050000Y-112512500D01*
G75*
G02*
X88987500Y-112575000I-62500J0D01*
G01*
X88287500Y-112575000D01*
G75*
G02*
X88225000Y-112512500I0J62500D01*
G01*
G37*
G36*
G01*
X88225000Y-113012500D02*
X88225000Y-112887500D01*
G75*
G02*
X88287500Y-112825000I62500J0D01*
G01*
X88987500Y-112825000D01*
G75*
G02*
X89050000Y-112887500I0J-62500D01*
G01*
X89050000Y-113012500D01*
G75*
G02*
X88987500Y-113075000I-62500J0D01*
G01*
X88287500Y-113075000D01*
G75*
G02*
X88225000Y-113012500I0J62500D01*
G01*
G37*
G36*
G01*
X87800000Y-114012500D02*
X87800000Y-113312500D01*
G75*
G02*
X87862500Y-113250000I62500J0D01*
G01*
X87987500Y-113250000D01*
G75*
G02*
X88050000Y-113312500I0J-62500D01*
G01*
X88050000Y-114012500D01*
G75*
G02*
X87987500Y-114075000I-62500J0D01*
G01*
X87862500Y-114075000D01*
G75*
G02*
X87800000Y-114012500I0J62500D01*
G01*
G37*
G36*
G01*
X87300000Y-114012500D02*
X87300000Y-113312500D01*
G75*
G02*
X87362500Y-113250000I62500J0D01*
G01*
X87487500Y-113250000D01*
G75*
G02*
X87550000Y-113312500I0J-62500D01*
G01*
X87550000Y-114012500D01*
G75*
G02*
X87487500Y-114075000I-62500J0D01*
G01*
X87362500Y-114075000D01*
G75*
G02*
X87300000Y-114012500I0J62500D01*
G01*
G37*
G36*
G01*
X86800000Y-114012500D02*
X86800000Y-113312500D01*
G75*
G02*
X86862500Y-113250000I62500J0D01*
G01*
X86987500Y-113250000D01*
G75*
G02*
X87050000Y-113312500I0J-62500D01*
G01*
X87050000Y-114012500D01*
G75*
G02*
X86987500Y-114075000I-62500J0D01*
G01*
X86862500Y-114075000D01*
G75*
G02*
X86800000Y-114012500I0J62500D01*
G01*
G37*
G36*
G01*
X86300000Y-114012500D02*
X86300000Y-113312500D01*
G75*
G02*
X86362500Y-113250000I62500J0D01*
G01*
X86487500Y-113250000D01*
G75*
G02*
X86550000Y-113312500I0J-62500D01*
G01*
X86550000Y-114012500D01*
G75*
G02*
X86487500Y-114075000I-62500J0D01*
G01*
X86362500Y-114075000D01*
G75*
G02*
X86300000Y-114012500I0J62500D01*
G01*
G37*
G36*
G01*
X85800000Y-114012500D02*
X85800000Y-113312500D01*
G75*
G02*
X85862500Y-113250000I62500J0D01*
G01*
X85987500Y-113250000D01*
G75*
G02*
X86050000Y-113312500I0J-62500D01*
G01*
X86050000Y-114012500D01*
G75*
G02*
X85987500Y-114075000I-62500J0D01*
G01*
X85862500Y-114075000D01*
G75*
G02*
X85800000Y-114012500I0J62500D01*
G01*
G37*
G36*
G01*
X85300000Y-114012500D02*
X85300000Y-113312500D01*
G75*
G02*
X85362500Y-113250000I62500J0D01*
G01*
X85487500Y-113250000D01*
G75*
G02*
X85550000Y-113312500I0J-62500D01*
G01*
X85550000Y-114012500D01*
G75*
G02*
X85487500Y-114075000I-62500J0D01*
G01*
X85362500Y-114075000D01*
G75*
G02*
X85300000Y-114012500I0J62500D01*
G01*
G37*
G36*
G01*
X84300000Y-113012500D02*
X84300000Y-112887500D01*
G75*
G02*
X84362500Y-112825000I62500J0D01*
G01*
X85062500Y-112825000D01*
G75*
G02*
X85125000Y-112887500I0J-62500D01*
G01*
X85125000Y-113012500D01*
G75*
G02*
X85062500Y-113075000I-62500J0D01*
G01*
X84362500Y-113075000D01*
G75*
G02*
X84300000Y-113012500I0J62500D01*
G01*
G37*
G36*
G01*
X84300000Y-112512500D02*
X84300000Y-112387500D01*
G75*
G02*
X84362500Y-112325000I62500J0D01*
G01*
X85062500Y-112325000D01*
G75*
G02*
X85125000Y-112387500I0J-62500D01*
G01*
X85125000Y-112512500D01*
G75*
G02*
X85062500Y-112575000I-62500J0D01*
G01*
X84362500Y-112575000D01*
G75*
G02*
X84300000Y-112512500I0J62500D01*
G01*
G37*
G36*
G01*
X84300000Y-112012500D02*
X84300000Y-111887500D01*
G75*
G02*
X84362500Y-111825000I62500J0D01*
G01*
X85062500Y-111825000D01*
G75*
G02*
X85125000Y-111887500I0J-62500D01*
G01*
X85125000Y-112012500D01*
G75*
G02*
X85062500Y-112075000I-62500J0D01*
G01*
X84362500Y-112075000D01*
G75*
G02*
X84300000Y-112012500I0J62500D01*
G01*
G37*
G36*
G01*
X84300000Y-111512500D02*
X84300000Y-111387500D01*
G75*
G02*
X84362500Y-111325000I62500J0D01*
G01*
X85062500Y-111325000D01*
G75*
G02*
X85125000Y-111387500I0J-62500D01*
G01*
X85125000Y-111512500D01*
G75*
G02*
X85062500Y-111575000I-62500J0D01*
G01*
X84362500Y-111575000D01*
G75*
G02*
X84300000Y-111512500I0J62500D01*
G01*
G37*
G36*
G01*
X84300000Y-111012500D02*
X84300000Y-110887500D01*
G75*
G02*
X84362500Y-110825000I62500J0D01*
G01*
X85062500Y-110825000D01*
G75*
G02*
X85125000Y-110887500I0J-62500D01*
G01*
X85125000Y-111012500D01*
G75*
G02*
X85062500Y-111075000I-62500J0D01*
G01*
X84362500Y-111075000D01*
G75*
G02*
X84300000Y-111012500I0J62500D01*
G01*
G37*
G36*
G01*
X84300000Y-110512500D02*
X84300000Y-110387500D01*
G75*
G02*
X84362500Y-110325000I62500J0D01*
G01*
X85062500Y-110325000D01*
G75*
G02*
X85125000Y-110387500I0J-62500D01*
G01*
X85125000Y-110512500D01*
G75*
G02*
X85062500Y-110575000I-62500J0D01*
G01*
X84362500Y-110575000D01*
G75*
G02*
X84300000Y-110512500I0J62500D01*
G01*
G37*
D22*
X115325000Y-121080000D03*
X122125000Y-121080000D03*
D23*
X118275000Y-111325000D03*
X118275000Y-119325000D03*
X122775000Y-111325000D03*
X122775000Y-119325000D03*
G36*
G01*
X107500001Y-105650000D02*
X106599999Y-105650000D01*
G75*
G02*
X106350000Y-105400001I0J249999D01*
G01*
X106350000Y-104699999D01*
G75*
G02*
X106599999Y-104450000I249999J0D01*
G01*
X107500001Y-104450000D01*
G75*
G02*
X107750000Y-104699999I0J-249999D01*
G01*
X107750000Y-105400001D01*
G75*
G02*
X107500001Y-105650000I-249999J0D01*
G01*
G37*
G36*
G01*
X107500001Y-107650000D02*
X106599999Y-107650000D01*
G75*
G02*
X106350000Y-107400001I0J249999D01*
G01*
X106350000Y-106699999D01*
G75*
G02*
X106599999Y-106450000I249999J0D01*
G01*
X107500001Y-106450000D01*
G75*
G02*
X107750000Y-106699999I0J-249999D01*
G01*
X107750000Y-107400001D01*
G75*
G02*
X107500001Y-107650000I-249999J0D01*
G01*
G37*
G36*
G01*
X108599999Y-106450000D02*
X109500001Y-106450000D01*
G75*
G02*
X109750000Y-106699999I0J-249999D01*
G01*
X109750000Y-107400001D01*
G75*
G02*
X109500001Y-107650000I-249999J0D01*
G01*
X108599999Y-107650000D01*
G75*
G02*
X108350000Y-107400001I0J249999D01*
G01*
X108350000Y-106699999D01*
G75*
G02*
X108599999Y-106450000I249999J0D01*
G01*
G37*
G36*
G01*
X108599999Y-104450000D02*
X109500001Y-104450000D01*
G75*
G02*
X109750000Y-104699999I0J-249999D01*
G01*
X109750000Y-105400001D01*
G75*
G02*
X109500001Y-105650000I-249999J0D01*
G01*
X108599999Y-105650000D01*
G75*
G02*
X108350000Y-105400001I0J249999D01*
G01*
X108350000Y-104699999D01*
G75*
G02*
X108599999Y-104450000I249999J0D01*
G01*
G37*
G36*
G01*
X110599999Y-106450000D02*
X111500001Y-106450000D01*
G75*
G02*
X111750000Y-106699999I0J-249999D01*
G01*
X111750000Y-107400001D01*
G75*
G02*
X111500001Y-107650000I-249999J0D01*
G01*
X110599999Y-107650000D01*
G75*
G02*
X110350000Y-107400001I0J249999D01*
G01*
X110350000Y-106699999D01*
G75*
G02*
X110599999Y-106450000I249999J0D01*
G01*
G37*
G36*
G01*
X110599999Y-104450000D02*
X111500001Y-104450000D01*
G75*
G02*
X111750000Y-104699999I0J-249999D01*
G01*
X111750000Y-105400001D01*
G75*
G02*
X111500001Y-105650000I-249999J0D01*
G01*
X110599999Y-105650000D01*
G75*
G02*
X110350000Y-105400001I0J249999D01*
G01*
X110350000Y-104699999D01*
G75*
G02*
X110599999Y-104450000I249999J0D01*
G01*
G37*
G36*
G01*
X112250000Y-109400001D02*
X112250000Y-108499999D01*
G75*
G02*
X112499999Y-108250000I249999J0D01*
G01*
X113200001Y-108250000D01*
G75*
G02*
X113450000Y-108499999I0J-249999D01*
G01*
X113450000Y-109400001D01*
G75*
G02*
X113200001Y-109650000I-249999J0D01*
G01*
X112499999Y-109650000D01*
G75*
G02*
X112250000Y-109400001I0J249999D01*
G01*
G37*
G36*
G01*
X110250000Y-109400001D02*
X110250000Y-108499999D01*
G75*
G02*
X110499999Y-108250000I249999J0D01*
G01*
X111200001Y-108250000D01*
G75*
G02*
X111450000Y-108499999I0J-249999D01*
G01*
X111450000Y-109400001D01*
G75*
G02*
X111200001Y-109650000I-249999J0D01*
G01*
X110499999Y-109650000D01*
G75*
G02*
X110250000Y-109400001I0J249999D01*
G01*
G37*
G36*
G01*
X107650000Y-108499999D02*
X107650000Y-109400001D01*
G75*
G02*
X107400001Y-109650000I-249999J0D01*
G01*
X106699999Y-109650000D01*
G75*
G02*
X106450000Y-109400001I0J249999D01*
G01*
X106450000Y-108499999D01*
G75*
G02*
X106699999Y-108250000I249999J0D01*
G01*
X107400001Y-108250000D01*
G75*
G02*
X107650000Y-108499999I0J-249999D01*
G01*
G37*
G36*
G01*
X109650000Y-108499999D02*
X109650000Y-109400001D01*
G75*
G02*
X109400001Y-109650000I-249999J0D01*
G01*
X108699999Y-109650000D01*
G75*
G02*
X108450000Y-109400001I0J249999D01*
G01*
X108450000Y-108499999D01*
G75*
G02*
X108699999Y-108250000I249999J0D01*
G01*
X109400001Y-108250000D01*
G75*
G02*
X109650000Y-108499999I0J-249999D01*
G01*
G37*
G36*
G01*
X140224999Y-103200000D02*
X141125001Y-103200000D01*
G75*
G02*
X141375000Y-103449999I0J-249999D01*
G01*
X141375000Y-104150001D01*
G75*
G02*
X141125001Y-104400000I-249999J0D01*
G01*
X140224999Y-104400000D01*
G75*
G02*
X139975000Y-104150001I0J249999D01*
G01*
X139975000Y-103449999D01*
G75*
G02*
X140224999Y-103200000I249999J0D01*
G01*
G37*
G36*
G01*
X140224999Y-101200000D02*
X141125001Y-101200000D01*
G75*
G02*
X141375000Y-101449999I0J-249999D01*
G01*
X141375000Y-102150001D01*
G75*
G02*
X141125001Y-102400000I-249999J0D01*
G01*
X140224999Y-102400000D01*
G75*
G02*
X139975000Y-102150001I0J249999D01*
G01*
X139975000Y-101449999D01*
G75*
G02*
X140224999Y-101200000I249999J0D01*
G01*
G37*
G36*
G01*
X136224999Y-103200000D02*
X137125001Y-103200000D01*
G75*
G02*
X137375000Y-103449999I0J-249999D01*
G01*
X137375000Y-104150001D01*
G75*
G02*
X137125001Y-104400000I-249999J0D01*
G01*
X136224999Y-104400000D01*
G75*
G02*
X135975000Y-104150001I0J249999D01*
G01*
X135975000Y-103449999D01*
G75*
G02*
X136224999Y-103200000I249999J0D01*
G01*
G37*
G36*
G01*
X136224999Y-101200000D02*
X137125001Y-101200000D01*
G75*
G02*
X137375000Y-101449999I0J-249999D01*
G01*
X137375000Y-102150001D01*
G75*
G02*
X137125001Y-102400000I-249999J0D01*
G01*
X136224999Y-102400000D01*
G75*
G02*
X135975000Y-102150001I0J249999D01*
G01*
X135975000Y-101449999D01*
G75*
G02*
X136224999Y-101200000I249999J0D01*
G01*
G37*
G36*
G01*
X145125000Y-103249999D02*
X145125000Y-104150001D01*
G75*
G02*
X144875001Y-104400000I-249999J0D01*
G01*
X144174999Y-104400000D01*
G75*
G02*
X143925000Y-104150001I0J249999D01*
G01*
X143925000Y-103249999D01*
G75*
G02*
X144174999Y-103000000I249999J0D01*
G01*
X144875001Y-103000000D01*
G75*
G02*
X145125000Y-103249999I0J-249999D01*
G01*
G37*
G36*
G01*
X147125000Y-103249999D02*
X147125000Y-104150001D01*
G75*
G02*
X146875001Y-104400000I-249999J0D01*
G01*
X146174999Y-104400000D01*
G75*
G02*
X145925000Y-104150001I0J249999D01*
G01*
X145925000Y-103249999D01*
G75*
G02*
X146174999Y-103000000I249999J0D01*
G01*
X146875001Y-103000000D01*
G75*
G02*
X147125000Y-103249999I0J-249999D01*
G01*
G37*
G36*
G01*
X143100001Y-102400000D02*
X142199999Y-102400000D01*
G75*
G02*
X141950000Y-102150001I0J249999D01*
G01*
X141950000Y-101449999D01*
G75*
G02*
X142199999Y-101200000I249999J0D01*
G01*
X143100001Y-101200000D01*
G75*
G02*
X143350000Y-101449999I0J-249999D01*
G01*
X143350000Y-102150001D01*
G75*
G02*
X143100001Y-102400000I-249999J0D01*
G01*
G37*
G36*
G01*
X143100001Y-104400000D02*
X142199999Y-104400000D01*
G75*
G02*
X141950000Y-104150001I0J249999D01*
G01*
X141950000Y-103449999D01*
G75*
G02*
X142199999Y-103200000I249999J0D01*
G01*
X143100001Y-103200000D01*
G75*
G02*
X143350000Y-103449999I0J-249999D01*
G01*
X143350000Y-104150001D01*
G75*
G02*
X143100001Y-104400000I-249999J0D01*
G01*
G37*
G36*
G01*
X128550001Y-101425000D02*
X127649999Y-101425000D01*
G75*
G02*
X127400000Y-101175001I0J249999D01*
G01*
X127400000Y-100474999D01*
G75*
G02*
X127649999Y-100225000I249999J0D01*
G01*
X128550001Y-100225000D01*
G75*
G02*
X128800000Y-100474999I0J-249999D01*
G01*
X128800000Y-101175001D01*
G75*
G02*
X128550001Y-101425000I-249999J0D01*
G01*
G37*
G36*
G01*
X128550001Y-103425000D02*
X127649999Y-103425000D01*
G75*
G02*
X127400000Y-103175001I0J249999D01*
G01*
X127400000Y-102474999D01*
G75*
G02*
X127649999Y-102225000I249999J0D01*
G01*
X128550001Y-102225000D01*
G75*
G02*
X128800000Y-102474999I0J-249999D01*
G01*
X128800000Y-103175001D01*
G75*
G02*
X128550001Y-103425000I-249999J0D01*
G01*
G37*
G36*
G01*
X86200000Y-121349999D02*
X86200000Y-122250001D01*
G75*
G02*
X85950001Y-122500000I-249999J0D01*
G01*
X85249999Y-122500000D01*
G75*
G02*
X85000000Y-122250001I0J249999D01*
G01*
X85000000Y-121349999D01*
G75*
G02*
X85249999Y-121100000I249999J0D01*
G01*
X85950001Y-121100000D01*
G75*
G02*
X86200000Y-121349999I0J-249999D01*
G01*
G37*
G36*
G01*
X88200000Y-121349999D02*
X88200000Y-122250001D01*
G75*
G02*
X87950001Y-122500000I-249999J0D01*
G01*
X87249999Y-122500000D01*
G75*
G02*
X87000000Y-122250001I0J249999D01*
G01*
X87000000Y-121349999D01*
G75*
G02*
X87249999Y-121100000I249999J0D01*
G01*
X87950001Y-121100000D01*
G75*
G02*
X88200000Y-121349999I0J-249999D01*
G01*
G37*
G36*
G01*
X86200000Y-119349999D02*
X86200000Y-120250001D01*
G75*
G02*
X85950001Y-120500000I-249999J0D01*
G01*
X85249999Y-120500000D01*
G75*
G02*
X85000000Y-120250001I0J249999D01*
G01*
X85000000Y-119349999D01*
G75*
G02*
X85249999Y-119100000I249999J0D01*
G01*
X85950001Y-119100000D01*
G75*
G02*
X86200000Y-119349999I0J-249999D01*
G01*
G37*
G36*
G01*
X88200000Y-119349999D02*
X88200000Y-120250001D01*
G75*
G02*
X87950001Y-120500000I-249999J0D01*
G01*
X87249999Y-120500000D01*
G75*
G02*
X87000000Y-120250001I0J249999D01*
G01*
X87000000Y-119349999D01*
G75*
G02*
X87249999Y-119100000I249999J0D01*
G01*
X87950001Y-119100000D01*
G75*
G02*
X88200000Y-119349999I0J-249999D01*
G01*
G37*
G36*
G01*
X93800001Y-119750000D02*
X92899999Y-119750000D01*
G75*
G02*
X92650000Y-119500001I0J249999D01*
G01*
X92650000Y-118799999D01*
G75*
G02*
X92899999Y-118550000I249999J0D01*
G01*
X93800001Y-118550000D01*
G75*
G02*
X94050000Y-118799999I0J-249999D01*
G01*
X94050000Y-119500001D01*
G75*
G02*
X93800001Y-119750000I-249999J0D01*
G01*
G37*
G36*
G01*
X93800001Y-121750000D02*
X92899999Y-121750000D01*
G75*
G02*
X92650000Y-121500001I0J249999D01*
G01*
X92650000Y-120799999D01*
G75*
G02*
X92899999Y-120550000I249999J0D01*
G01*
X93800001Y-120550000D01*
G75*
G02*
X94050000Y-120799999I0J-249999D01*
G01*
X94050000Y-121500001D01*
G75*
G02*
X93800001Y-121750000I-249999J0D01*
G01*
G37*
G36*
G01*
X93800001Y-115950000D02*
X92899999Y-115950000D01*
G75*
G02*
X92650000Y-115700001I0J249999D01*
G01*
X92650000Y-114999999D01*
G75*
G02*
X92899999Y-114750000I249999J0D01*
G01*
X93800001Y-114750000D01*
G75*
G02*
X94050000Y-114999999I0J-249999D01*
G01*
X94050000Y-115700001D01*
G75*
G02*
X93800001Y-115950000I-249999J0D01*
G01*
G37*
G36*
G01*
X93800001Y-117950000D02*
X92899999Y-117950000D01*
G75*
G02*
X92650000Y-117700001I0J249999D01*
G01*
X92650000Y-116999999D01*
G75*
G02*
X92899999Y-116750000I249999J0D01*
G01*
X93800001Y-116750000D01*
G75*
G02*
X94050000Y-116999999I0J-249999D01*
G01*
X94050000Y-117700001D01*
G75*
G02*
X93800001Y-117950000I-249999J0D01*
G01*
G37*
G36*
G01*
X91250001Y-120500000D02*
X90349999Y-120500000D01*
G75*
G02*
X90100000Y-120250001I0J249999D01*
G01*
X90100000Y-119549999D01*
G75*
G02*
X90349999Y-119300000I249999J0D01*
G01*
X91250001Y-119300000D01*
G75*
G02*
X91500000Y-119549999I0J-249999D01*
G01*
X91500000Y-120250001D01*
G75*
G02*
X91250001Y-120500000I-249999J0D01*
G01*
G37*
G36*
G01*
X91250001Y-122500000D02*
X90349999Y-122500000D01*
G75*
G02*
X90100000Y-122250001I0J249999D01*
G01*
X90100000Y-121549999D01*
G75*
G02*
X90349999Y-121300000I249999J0D01*
G01*
X91250001Y-121300000D01*
G75*
G02*
X91500000Y-121549999I0J-249999D01*
G01*
X91500000Y-122250001D01*
G75*
G02*
X91250001Y-122500000I-249999J0D01*
G01*
G37*
G36*
G01*
X86049999Y-117200000D02*
X86950001Y-117200000D01*
G75*
G02*
X87200000Y-117449999I0J-249999D01*
G01*
X87200000Y-118150001D01*
G75*
G02*
X86950001Y-118400000I-249999J0D01*
G01*
X86049999Y-118400000D01*
G75*
G02*
X85800000Y-118150001I0J249999D01*
G01*
X85800000Y-117449999D01*
G75*
G02*
X86049999Y-117200000I249999J0D01*
G01*
G37*
G36*
G01*
X86049999Y-115200000D02*
X86950001Y-115200000D01*
G75*
G02*
X87200000Y-115449999I0J-249999D01*
G01*
X87200000Y-116150001D01*
G75*
G02*
X86950001Y-116400000I-249999J0D01*
G01*
X86049999Y-116400000D01*
G75*
G02*
X85800000Y-116150001I0J249999D01*
G01*
X85800000Y-115449999D01*
G75*
G02*
X86049999Y-115200000I249999J0D01*
G01*
G37*
G36*
G01*
X80100000Y-113850001D02*
X80100000Y-112949999D01*
G75*
G02*
X80349999Y-112700000I249999J0D01*
G01*
X81050001Y-112700000D01*
G75*
G02*
X81300000Y-112949999I0J-249999D01*
G01*
X81300000Y-113850001D01*
G75*
G02*
X81050001Y-114100000I-249999J0D01*
G01*
X80349999Y-114100000D01*
G75*
G02*
X80100000Y-113850001I0J249999D01*
G01*
G37*
G36*
G01*
X78100000Y-113850001D02*
X78100000Y-112949999D01*
G75*
G02*
X78349999Y-112700000I249999J0D01*
G01*
X79050001Y-112700000D01*
G75*
G02*
X79300000Y-112949999I0J-249999D01*
G01*
X79300000Y-113850001D01*
G75*
G02*
X79050001Y-114100000I-249999J0D01*
G01*
X78349999Y-114100000D01*
G75*
G02*
X78100000Y-113850001I0J249999D01*
G01*
G37*
G36*
G01*
X80100000Y-111850001D02*
X80100000Y-110949999D01*
G75*
G02*
X80349999Y-110700000I249999J0D01*
G01*
X81050001Y-110700000D01*
G75*
G02*
X81300000Y-110949999I0J-249999D01*
G01*
X81300000Y-111850001D01*
G75*
G02*
X81050001Y-112100000I-249999J0D01*
G01*
X80349999Y-112100000D01*
G75*
G02*
X80100000Y-111850001I0J249999D01*
G01*
G37*
G36*
G01*
X78100000Y-111850001D02*
X78100000Y-110949999D01*
G75*
G02*
X78349999Y-110700000I249999J0D01*
G01*
X79050001Y-110700000D01*
G75*
G02*
X79300000Y-110949999I0J-249999D01*
G01*
X79300000Y-111850001D01*
G75*
G02*
X79050001Y-112100000I-249999J0D01*
G01*
X78349999Y-112100000D01*
G75*
G02*
X78100000Y-111850001I0J249999D01*
G01*
G37*
G36*
G01*
X73300000Y-108549999D02*
X73300000Y-109450001D01*
G75*
G02*
X73050001Y-109700000I-249999J0D01*
G01*
X72349999Y-109700000D01*
G75*
G02*
X72100000Y-109450001I0J249999D01*
G01*
X72100000Y-108549999D01*
G75*
G02*
X72349999Y-108300000I249999J0D01*
G01*
X73050001Y-108300000D01*
G75*
G02*
X73300000Y-108549999I0J-249999D01*
G01*
G37*
G36*
G01*
X75300000Y-108549999D02*
X75300000Y-109450001D01*
G75*
G02*
X75050001Y-109700000I-249999J0D01*
G01*
X74349999Y-109700000D01*
G75*
G02*
X74100000Y-109450001I0J249999D01*
G01*
X74100000Y-108549999D01*
G75*
G02*
X74349999Y-108300000I249999J0D01*
G01*
X75050001Y-108300000D01*
G75*
G02*
X75300000Y-108549999I0J-249999D01*
G01*
G37*
D24*
X115125000Y-101775000D03*
X123425000Y-101775000D03*
X99300000Y-105900000D03*
X91000000Y-105900000D03*
D25*
X107797020Y-72181220D03*
X107797020Y-69641220D03*
X110337020Y-72181220D03*
X110337020Y-69641220D03*
X102717020Y-69641220D03*
X102717020Y-72181220D03*
D26*
X74777020Y-72181220D03*
D25*
X74777020Y-69641220D03*
X77317020Y-72181220D03*
X77317020Y-69641220D03*
X79857020Y-72181220D03*
X79857020Y-69641220D03*
X82397020Y-72181220D03*
X82397020Y-69641220D03*
X84937020Y-72181220D03*
X84937020Y-69641220D03*
X87477020Y-72181220D03*
X87477020Y-69641220D03*
X90017020Y-72181220D03*
X90017020Y-69641220D03*
X92557020Y-72181220D03*
X92557020Y-69641220D03*
X95097020Y-72181220D03*
X95097020Y-69641220D03*
X97637020Y-72181220D03*
X97637020Y-69641220D03*
X100177020Y-72181220D03*
X100177020Y-69641220D03*
X105257020Y-72181220D03*
X105257020Y-69641220D03*
X112877020Y-69641220D03*
X112877020Y-72181220D03*
X115417020Y-69641220D03*
X115417020Y-72181220D03*
X117957020Y-69641220D03*
X117957020Y-72181220D03*
X120497020Y-69641220D03*
X120497020Y-72181220D03*
X123037020Y-69641220D03*
X123037020Y-72181220D03*
D27*
X69907020Y-70911220D03*
X127907020Y-70911220D03*
X69907020Y-119911220D03*
X127907020Y-119911220D03*
D28*
X110500000Y-116900000D03*
D29*
X105500000Y-116900000D03*
D30*
X111759560Y-111513660D03*
X109259560Y-111513660D03*
X107259560Y-111513660D03*
D31*
X104759560Y-111513660D03*
D32*
X101689560Y-114223660D03*
X114829560Y-114223660D03*
D33*
X73050400Y-104528620D03*
D34*
X73050400Y-99528620D03*
D35*
X70091180Y-110263180D03*
X70091180Y-114903180D03*
D36*
X67861180Y-116158180D03*
X67861180Y-109008180D03*
D37*
X67861180Y-111458180D03*
D38*
X70511180Y-112583180D03*
X70511180Y-113233180D03*
X70511180Y-113883180D03*
X70511180Y-111283180D03*
X70511180Y-111933180D03*
D37*
X67861180Y-113708180D03*
D39*
X81489880Y-116539400D03*
X80689880Y-116539400D03*
X81489880Y-116539400D03*
X80689880Y-116539400D03*
X75089880Y-116539400D03*
X75089880Y-116539400D03*
X75889880Y-116539400D03*
X75889880Y-116539400D03*
D40*
X75399880Y-117599400D03*
X81179880Y-117599400D03*
D41*
X80039880Y-116539400D03*
X79039880Y-116539400D03*
X79539880Y-116539400D03*
X77039880Y-116539400D03*
X76539880Y-116539400D03*
X78539880Y-116539400D03*
X78039880Y-116539400D03*
X77539880Y-116539400D03*
D42*
X82609880Y-121289400D03*
X73969880Y-121289400D03*
D43*
X82609880Y-117119400D03*
X73969880Y-117119400D03*
G36*
G01*
X102609999Y-108355000D02*
X105510001Y-108355000D01*
G75*
G02*
X105760000Y-108604999I0J-249999D01*
G01*
X105760000Y-109405001D01*
G75*
G02*
X105510001Y-109655000I-249999J0D01*
G01*
X102609999Y-109655000D01*
G75*
G02*
X102360000Y-109405001I0J249999D01*
G01*
X102360000Y-108604999D01*
G75*
G02*
X102609999Y-108355000I249999J0D01*
G01*
G37*
G36*
G01*
X102609999Y-103905000D02*
X105510001Y-103905000D01*
G75*
G02*
X105760000Y-104154999I0J-249999D01*
G01*
X105760000Y-104955001D01*
G75*
G02*
X105510001Y-105205000I-249999J0D01*
G01*
X102609999Y-105205000D01*
G75*
G02*
X102360000Y-104955001I0J249999D01*
G01*
X102360000Y-104154999D01*
G75*
G02*
X102609999Y-103905000I249999J0D01*
G01*
G37*
G36*
G01*
X93325000Y-96849999D02*
X93325000Y-99750001D01*
G75*
G02*
X93075001Y-100000000I-249999J0D01*
G01*
X92274999Y-100000000D01*
G75*
G02*
X92025000Y-99750001I0J249999D01*
G01*
X92025000Y-96849999D01*
G75*
G02*
X92274999Y-96600000I249999J0D01*
G01*
X93075001Y-96600000D01*
G75*
G02*
X93325000Y-96849999I0J-249999D01*
G01*
G37*
G36*
G01*
X97775000Y-96849999D02*
X97775000Y-99750001D01*
G75*
G02*
X97525001Y-100000000I-249999J0D01*
G01*
X96724999Y-100000000D01*
G75*
G02*
X96475000Y-99750001I0J249999D01*
G01*
X96475000Y-96849999D01*
G75*
G02*
X96724999Y-96600000I249999J0D01*
G01*
X97525001Y-96600000D01*
G75*
G02*
X97775000Y-96849999I0J-249999D01*
G01*
G37*
G36*
G01*
X89687500Y-116256250D02*
X89687500Y-115343750D01*
G75*
G02*
X89931250Y-115100000I243750J0D01*
G01*
X90418750Y-115100000D01*
G75*
G02*
X90662500Y-115343750I0J-243750D01*
G01*
X90662500Y-116256250D01*
G75*
G02*
X90418750Y-116500000I-243750J0D01*
G01*
X89931250Y-116500000D01*
G75*
G02*
X89687500Y-116256250I0J243750D01*
G01*
G37*
G36*
G01*
X87812500Y-116256250D02*
X87812500Y-115343750D01*
G75*
G02*
X88056250Y-115100000I243750J0D01*
G01*
X88543750Y-115100000D01*
G75*
G02*
X88787500Y-115343750I0J-243750D01*
G01*
X88787500Y-116256250D01*
G75*
G02*
X88543750Y-116500000I-243750J0D01*
G01*
X88056250Y-116500000D01*
G75*
G02*
X87812500Y-116256250I0J243750D01*
G01*
G37*
G36*
G01*
X89687500Y-118256250D02*
X89687500Y-117343750D01*
G75*
G02*
X89931250Y-117100000I243750J0D01*
G01*
X90418750Y-117100000D01*
G75*
G02*
X90662500Y-117343750I0J-243750D01*
G01*
X90662500Y-118256250D01*
G75*
G02*
X90418750Y-118500000I-243750J0D01*
G01*
X89931250Y-118500000D01*
G75*
G02*
X89687500Y-118256250I0J243750D01*
G01*
G37*
G36*
G01*
X87812500Y-118256250D02*
X87812500Y-117343750D01*
G75*
G02*
X88056250Y-117100000I243750J0D01*
G01*
X88543750Y-117100000D01*
G75*
G02*
X88787500Y-117343750I0J-243750D01*
G01*
X88787500Y-118256250D01*
G75*
G02*
X88543750Y-118500000I-243750J0D01*
G01*
X88056250Y-118500000D01*
G75*
G02*
X87812500Y-118256250I0J243750D01*
G01*
G37*
G36*
G01*
X142062500Y-100375000D02*
X142062500Y-99425000D01*
G75*
G02*
X142312500Y-99175000I250000J0D01*
G01*
X142987500Y-99175000D01*
G75*
G02*
X143237500Y-99425000I0J-250000D01*
G01*
X143237500Y-100375000D01*
G75*
G02*
X142987500Y-100625000I-250000J0D01*
G01*
X142312500Y-100625000D01*
G75*
G02*
X142062500Y-100375000I0J250000D01*
G01*
G37*
G36*
G01*
X139987500Y-100375000D02*
X139987500Y-99425000D01*
G75*
G02*
X140237500Y-99175000I250000J0D01*
G01*
X140912500Y-99175000D01*
G75*
G02*
X141162500Y-99425000I0J-250000D01*
G01*
X141162500Y-100375000D01*
G75*
G02*
X140912500Y-100625000I-250000J0D01*
G01*
X140237500Y-100625000D01*
G75*
G02*
X139987500Y-100375000I0J250000D01*
G01*
G37*
G36*
G01*
X139150000Y-102312500D02*
X138200000Y-102312500D01*
G75*
G02*
X137950000Y-102062500I0J250000D01*
G01*
X137950000Y-101387500D01*
G75*
G02*
X138200000Y-101137500I250000J0D01*
G01*
X139150000Y-101137500D01*
G75*
G02*
X139400000Y-101387500I0J-250000D01*
G01*
X139400000Y-102062500D01*
G75*
G02*
X139150000Y-102312500I-250000J0D01*
G01*
G37*
G36*
G01*
X139150000Y-104387500D02*
X138200000Y-104387500D01*
G75*
G02*
X137950000Y-104137500I0J250000D01*
G01*
X137950000Y-103462500D01*
G75*
G02*
X138200000Y-103212500I250000J0D01*
G01*
X139150000Y-103212500D01*
G75*
G02*
X139400000Y-103462500I0J-250000D01*
G01*
X139400000Y-104137500D01*
G75*
G02*
X139150000Y-104387500I-250000J0D01*
G01*
G37*
G36*
G01*
X134062500Y-102150003D02*
X134062500Y-100849997D01*
G75*
G02*
X134312497Y-100600000I249997J0D01*
G01*
X135137503Y-100600000D01*
G75*
G02*
X135387500Y-100849997I0J-249997D01*
G01*
X135387500Y-102150003D01*
G75*
G02*
X135137503Y-102400000I-249997J0D01*
G01*
X134312497Y-102400000D01*
G75*
G02*
X134062500Y-102150003I0J249997D01*
G01*
G37*
G36*
G01*
X130937500Y-102150003D02*
X130937500Y-100849997D01*
G75*
G02*
X131187497Y-100600000I249997J0D01*
G01*
X132012503Y-100600000D01*
G75*
G02*
X132262500Y-100849997I0J-249997D01*
G01*
X132262500Y-102150003D01*
G75*
G02*
X132012503Y-102400000I-249997J0D01*
G01*
X131187497Y-102400000D01*
G75*
G02*
X130937500Y-102150003I0J249997D01*
G01*
G37*
G36*
G01*
X133722500Y-110255000D02*
X133722500Y-109305000D01*
G75*
G02*
X133972500Y-109055000I250000J0D01*
G01*
X134647500Y-109055000D01*
G75*
G02*
X134897500Y-109305000I0J-250000D01*
G01*
X134897500Y-110255000D01*
G75*
G02*
X134647500Y-110505000I-250000J0D01*
G01*
X133972500Y-110505000D01*
G75*
G02*
X133722500Y-110255000I0J250000D01*
G01*
G37*
G36*
G01*
X131647500Y-110255000D02*
X131647500Y-109305000D01*
G75*
G02*
X131897500Y-109055000I250000J0D01*
G01*
X132572500Y-109055000D01*
G75*
G02*
X132822500Y-109305000I0J-250000D01*
G01*
X132822500Y-110255000D01*
G75*
G02*
X132572500Y-110505000I-250000J0D01*
G01*
X131897500Y-110505000D01*
G75*
G02*
X131647500Y-110255000I0J250000D01*
G01*
G37*
G36*
G01*
X125875000Y-107337500D02*
X126825000Y-107337500D01*
G75*
G02*
X127075000Y-107587500I0J-250000D01*
G01*
X127075000Y-108262500D01*
G75*
G02*
X126825000Y-108512500I-250000J0D01*
G01*
X125875000Y-108512500D01*
G75*
G02*
X125625000Y-108262500I0J250000D01*
G01*
X125625000Y-107587500D01*
G75*
G02*
X125875000Y-107337500I250000J0D01*
G01*
G37*
G36*
G01*
X125875000Y-105262500D02*
X126825000Y-105262500D01*
G75*
G02*
X127075000Y-105512500I0J-250000D01*
G01*
X127075000Y-106187500D01*
G75*
G02*
X126825000Y-106437500I-250000J0D01*
G01*
X125875000Y-106437500D01*
G75*
G02*
X125625000Y-106187500I0J250000D01*
G01*
X125625000Y-105512500D01*
G75*
G02*
X125875000Y-105262500I250000J0D01*
G01*
G37*
G36*
G01*
X126649997Y-112212500D02*
X127950003Y-112212500D01*
G75*
G02*
X128200000Y-112462497I0J-249997D01*
G01*
X128200000Y-113287503D01*
G75*
G02*
X127950003Y-113537500I-249997J0D01*
G01*
X126649997Y-113537500D01*
G75*
G02*
X126400000Y-113287503I0J249997D01*
G01*
X126400000Y-112462497D01*
G75*
G02*
X126649997Y-112212500I249997J0D01*
G01*
G37*
G36*
G01*
X126649997Y-109087500D02*
X127950003Y-109087500D01*
G75*
G02*
X128200000Y-109337497I0J-249997D01*
G01*
X128200000Y-110162503D01*
G75*
G02*
X127950003Y-110412500I-249997J0D01*
G01*
X126649997Y-110412500D01*
G75*
G02*
X126400000Y-110162503I0J249997D01*
G01*
X126400000Y-109337497D01*
G75*
G02*
X126649997Y-109087500I249997J0D01*
G01*
G37*
G36*
G01*
X124625000Y-111162500D02*
X125575000Y-111162500D01*
G75*
G02*
X125825000Y-111412500I0J-250000D01*
G01*
X125825000Y-112087500D01*
G75*
G02*
X125575000Y-112337500I-250000J0D01*
G01*
X124625000Y-112337500D01*
G75*
G02*
X124375000Y-112087500I0J250000D01*
G01*
X124375000Y-111412500D01*
G75*
G02*
X124625000Y-111162500I250000J0D01*
G01*
G37*
G36*
G01*
X124625000Y-109087500D02*
X125575000Y-109087500D01*
G75*
G02*
X125825000Y-109337500I0J-250000D01*
G01*
X125825000Y-110012500D01*
G75*
G02*
X125575000Y-110262500I-250000J0D01*
G01*
X124625000Y-110262500D01*
G75*
G02*
X124375000Y-110012500I0J250000D01*
G01*
X124375000Y-109337500D01*
G75*
G02*
X124625000Y-109087500I250000J0D01*
G01*
G37*
G36*
G01*
X129049997Y-112212500D02*
X130350003Y-112212500D01*
G75*
G02*
X130600000Y-112462497I0J-249997D01*
G01*
X130600000Y-113287503D01*
G75*
G02*
X130350003Y-113537500I-249997J0D01*
G01*
X129049997Y-113537500D01*
G75*
G02*
X128800000Y-113287503I0J249997D01*
G01*
X128800000Y-112462497D01*
G75*
G02*
X129049997Y-112212500I249997J0D01*
G01*
G37*
G36*
G01*
X129049997Y-109087500D02*
X130350003Y-109087500D01*
G75*
G02*
X130600000Y-109337497I0J-249997D01*
G01*
X130600000Y-110162503D01*
G75*
G02*
X130350003Y-110412500I-249997J0D01*
G01*
X129049997Y-110412500D01*
G75*
G02*
X128800000Y-110162503I0J249997D01*
G01*
X128800000Y-109337497D01*
G75*
G02*
X129049997Y-109087500I249997J0D01*
G01*
G37*
G36*
G01*
X152800003Y-111312500D02*
X151499997Y-111312500D01*
G75*
G02*
X151250000Y-111062503I0J249997D01*
G01*
X151250000Y-110237497D01*
G75*
G02*
X151499997Y-109987500I249997J0D01*
G01*
X152800003Y-109987500D01*
G75*
G02*
X153050000Y-110237497I0J-249997D01*
G01*
X153050000Y-111062503D01*
G75*
G02*
X152800003Y-111312500I-249997J0D01*
G01*
G37*
G36*
G01*
X152800003Y-114437500D02*
X151499997Y-114437500D01*
G75*
G02*
X151250000Y-114187503I0J249997D01*
G01*
X151250000Y-113362497D01*
G75*
G02*
X151499997Y-113112500I249997J0D01*
G01*
X152800003Y-113112500D01*
G75*
G02*
X153050000Y-113362497I0J-249997D01*
G01*
X153050000Y-114187503D01*
G75*
G02*
X152800003Y-114437500I-249997J0D01*
G01*
G37*
G36*
G01*
X150375000Y-111162500D02*
X149425000Y-111162500D01*
G75*
G02*
X149175000Y-110912500I0J250000D01*
G01*
X149175000Y-110237500D01*
G75*
G02*
X149425000Y-109987500I250000J0D01*
G01*
X150375000Y-109987500D01*
G75*
G02*
X150625000Y-110237500I0J-250000D01*
G01*
X150625000Y-110912500D01*
G75*
G02*
X150375000Y-111162500I-250000J0D01*
G01*
G37*
G36*
G01*
X150375000Y-113237500D02*
X149425000Y-113237500D01*
G75*
G02*
X149175000Y-112987500I0J250000D01*
G01*
X149175000Y-112312500D01*
G75*
G02*
X149425000Y-112062500I250000J0D01*
G01*
X150375000Y-112062500D01*
G75*
G02*
X150625000Y-112312500I0J-250000D01*
G01*
X150625000Y-112987500D01*
G75*
G02*
X150375000Y-113237500I-250000J0D01*
G01*
G37*
G36*
G01*
X80099997Y-101537500D02*
X81400003Y-101537500D01*
G75*
G02*
X81650000Y-101787497I0J-249997D01*
G01*
X81650000Y-102612503D01*
G75*
G02*
X81400003Y-102862500I-249997J0D01*
G01*
X80099997Y-102862500D01*
G75*
G02*
X79850000Y-102612503I0J249997D01*
G01*
X79850000Y-101787497D01*
G75*
G02*
X80099997Y-101537500I249997J0D01*
G01*
G37*
G36*
G01*
X80099997Y-98412500D02*
X81400003Y-98412500D01*
G75*
G02*
X81650000Y-98662497I0J-249997D01*
G01*
X81650000Y-99487503D01*
G75*
G02*
X81400003Y-99737500I-249997J0D01*
G01*
X80099997Y-99737500D01*
G75*
G02*
X79850000Y-99487503I0J249997D01*
G01*
X79850000Y-98662497D01*
G75*
G02*
X80099997Y-98412500I249997J0D01*
G01*
G37*
G36*
G01*
X96050000Y-114349997D02*
X96050000Y-115650003D01*
G75*
G02*
X95800003Y-115900000I-249997J0D01*
G01*
X94974997Y-115900000D01*
G75*
G02*
X94725000Y-115650003I0J249997D01*
G01*
X94725000Y-114349997D01*
G75*
G02*
X94974997Y-114100000I249997J0D01*
G01*
X95800003Y-114100000D01*
G75*
G02*
X96050000Y-114349997I0J-249997D01*
G01*
G37*
G36*
G01*
X99175000Y-114349997D02*
X99175000Y-115650003D01*
G75*
G02*
X98925003Y-115900000I-249997J0D01*
G01*
X98099997Y-115900000D01*
G75*
G02*
X97850000Y-115650003I0J249997D01*
G01*
X97850000Y-114349997D01*
G75*
G02*
X98099997Y-114100000I249997J0D01*
G01*
X98925003Y-114100000D01*
G75*
G02*
X99175000Y-114349997I0J-249997D01*
G01*
G37*
G36*
G01*
X96037500Y-111949997D02*
X96037500Y-113250003D01*
G75*
G02*
X95787503Y-113500000I-249997J0D01*
G01*
X94962497Y-113500000D01*
G75*
G02*
X94712500Y-113250003I0J249997D01*
G01*
X94712500Y-111949997D01*
G75*
G02*
X94962497Y-111700000I249997J0D01*
G01*
X95787503Y-111700000D01*
G75*
G02*
X96037500Y-111949997I0J-249997D01*
G01*
G37*
G36*
G01*
X99162500Y-111949997D02*
X99162500Y-113250003D01*
G75*
G02*
X98912503Y-113500000I-249997J0D01*
G01*
X98087497Y-113500000D01*
G75*
G02*
X97837500Y-113250003I0J249997D01*
G01*
X97837500Y-111949997D01*
G75*
G02*
X98087497Y-111700000I249997J0D01*
G01*
X98912503Y-111700000D01*
G75*
G02*
X99162500Y-111949997I0J-249997D01*
G01*
G37*
G36*
G01*
X81187500Y-103724997D02*
X81187500Y-105025003D01*
G75*
G02*
X80937503Y-105275000I-249997J0D01*
G01*
X80112497Y-105275000D01*
G75*
G02*
X79862500Y-105025003I0J249997D01*
G01*
X79862500Y-103724997D01*
G75*
G02*
X80112497Y-103475000I249997J0D01*
G01*
X80937503Y-103475000D01*
G75*
G02*
X81187500Y-103724997I0J-249997D01*
G01*
G37*
G36*
G01*
X84312500Y-103724997D02*
X84312500Y-105025003D01*
G75*
G02*
X84062503Y-105275000I-249997J0D01*
G01*
X83237497Y-105275000D01*
G75*
G02*
X82987500Y-105025003I0J249997D01*
G01*
X82987500Y-103724997D01*
G75*
G02*
X83237497Y-103475000I249997J0D01*
G01*
X84062503Y-103475000D01*
G75*
G02*
X84312500Y-103724997I0J-249997D01*
G01*
G37*
G36*
G01*
X86412500Y-104625000D02*
X86412500Y-105575000D01*
G75*
G02*
X86162500Y-105825000I-250000J0D01*
G01*
X85487500Y-105825000D01*
G75*
G02*
X85237500Y-105575000I0J250000D01*
G01*
X85237500Y-104625000D01*
G75*
G02*
X85487500Y-104375000I250000J0D01*
G01*
X86162500Y-104375000D01*
G75*
G02*
X86412500Y-104625000I0J-250000D01*
G01*
G37*
G36*
G01*
X88487500Y-104625000D02*
X88487500Y-105575000D01*
G75*
G02*
X88237500Y-105825000I-250000J0D01*
G01*
X87562500Y-105825000D01*
G75*
G02*
X87312500Y-105575000I0J250000D01*
G01*
X87312500Y-104625000D01*
G75*
G02*
X87562500Y-104375000I250000J0D01*
G01*
X88237500Y-104375000D01*
G75*
G02*
X88487500Y-104625000I0J-250000D01*
G01*
G37*
G36*
G01*
X74362500Y-113549997D02*
X74362500Y-114850003D01*
G75*
G02*
X74112503Y-115100000I-249997J0D01*
G01*
X73287497Y-115100000D01*
G75*
G02*
X73037500Y-114850003I0J249997D01*
G01*
X73037500Y-113549997D01*
G75*
G02*
X73287497Y-113300000I249997J0D01*
G01*
X74112503Y-113300000D01*
G75*
G02*
X74362500Y-113549997I0J-249997D01*
G01*
G37*
G36*
G01*
X77487500Y-113549997D02*
X77487500Y-114850003D01*
G75*
G02*
X77237503Y-115100000I-249997J0D01*
G01*
X76412497Y-115100000D01*
G75*
G02*
X76162500Y-114850003I0J249997D01*
G01*
X76162500Y-113549997D01*
G75*
G02*
X76412497Y-113300000I249997J0D01*
G01*
X77237503Y-113300000D01*
G75*
G02*
X77487500Y-113549997I0J-249997D01*
G01*
G37*
G36*
G01*
X82987500Y-107400003D02*
X82987500Y-106099997D01*
G75*
G02*
X83237497Y-105850000I249997J0D01*
G01*
X84062503Y-105850000D01*
G75*
G02*
X84312500Y-106099997I0J-249997D01*
G01*
X84312500Y-107400003D01*
G75*
G02*
X84062503Y-107650000I-249997J0D01*
G01*
X83237497Y-107650000D01*
G75*
G02*
X82987500Y-107400003I0J249997D01*
G01*
G37*
G36*
G01*
X79862500Y-107400003D02*
X79862500Y-106099997D01*
G75*
G02*
X80112497Y-105850000I249997J0D01*
G01*
X80937503Y-105850000D01*
G75*
G02*
X81187500Y-106099997I0J-249997D01*
G01*
X81187500Y-107400003D01*
G75*
G02*
X80937503Y-107650000I-249997J0D01*
G01*
X80112497Y-107650000D01*
G75*
G02*
X79862500Y-107400003I0J249997D01*
G01*
G37*
D44*
X74170000Y-77400000D03*
D45*
X82500000Y-93400000D03*
X137700000Y-77400000D03*
D46*
X149430000Y-85400000D03*
X70770000Y-85400000D03*
M02*
