M48
; DRILL file {KiCad 5.1.10-88a1d61d58~90~ubuntu20.04.1} date Thu Aug  5 17:17:58 2021
; FORMAT={-:-/ absolute / inch / decimal}
; #@! TF.CreationDate,2021-08-05T17:17:58+03:00
; #@! TF.GenerationSoftware,Kicad,Pcbnew,5.1.10-88a1d61d58~90~ubuntu20.04.1
FMAT,2
INCH
T1C0.0079
T2C0.0118
T3C0.0157
T4C0.0177
T5C0.0236
T6C0.0362
T7C0.0400
T8C0.0520
T9C0.0906
T10C0.0236
T11C0.0354
T12C0.0941
T13C0.1083
T14C0.1358
%
G90
G05
T1
X5.2126Y-4.1535
X5.2126Y-4.1949
X5.2431Y-4.124
X5.2431Y-4.1535
X5.2431Y-4.1949
X5.2431Y-4.2244
X5.2736Y-4.1535
X5.2736Y-4.1949
T2
X3.3691Y-4.3543
X3.3691Y-4.3976
X3.3691Y-4.4409
X3.4124Y-4.3543
X3.4124Y-4.3976
X3.4124Y-4.4409
X3.4557Y-4.3543
X3.4557Y-4.3976
X3.4557Y-4.4409
T3
X2.6496Y-2.9272
X2.6496Y-2.9695
X2.6516Y-3.6791
X2.685Y-3.6398
X2.689Y-2.9272
X2.689Y-2.9695
X2.7283Y-2.9272
X2.7283Y-2.9695
X2.752Y-3.9409
X2.7677Y-2.9272
X2.7677Y-2.9695
X2.8031Y-4.2874
X2.8071Y-2.9272
X2.8071Y-2.9695
X2.8425Y-4.4606
X2.8465Y-2.9272
X2.8465Y-2.9695
X2.8583Y-4.4173
X2.9173Y-4.3484
X3.0167Y-3.9852
X3.0384Y-4.6535
X3.0394Y-4.378
X3.0945Y-4.3228
X3.126Y-4.6693
X3.1457Y-4.2835
X3.1457Y-4.3228
X3.185Y-4.2835
X3.185Y-4.3228
X3.2244Y-4.2835
X3.2244Y-4.3228
X3.2894Y-4.439
X3.313Y-3.9961
X3.315Y-4.4744
X3.3206Y-4.5239
X3.3533Y-4.6024
X3.3563Y-3.9961
X3.3563Y-4.0335
X3.3563Y-4.0728
X3.3957Y-3.9961
X3.3957Y-4.0335
X3.3957Y-4.0728
X3.435Y-3.9961
X3.435Y-4.0335
X3.435Y-4.0728
X3.5354Y-3.1929
X3.5433Y-3.6211
X3.5433Y-3.6604
X3.5433Y-3.6998
X3.5669Y-4.4232
X3.5669Y-4.4626
X3.5827Y-3.6211
X3.5827Y-3.6604
X3.5827Y-3.6998
X3.6063Y-4.4232
X3.6063Y-4.4626
X3.6083Y-3.0453
X3.622Y-3.6211
X3.622Y-3.6604
X3.622Y-3.6998
X3.6368Y-4.7402
X3.6457Y-4.4075
X3.6457Y-4.4469
X3.6457Y-4.4862
X3.6614Y-3.6211
X3.6614Y-3.6604
X3.6614Y-3.6998
X3.685Y-3.5256
X3.6949Y-4.1929
X3.6969Y-4.4075
X3.6969Y-4.4469
X3.6969Y-4.4862
X3.7343Y-3.4508
X3.748Y-4.6289
X3.7569Y-4.7402
X3.7677Y-4.126
X3.7963Y-4.7402
X3.811Y-4.4094
X3.811Y-4.4488
X3.811Y-4.4882
X3.811Y-4.5276
X3.811Y-4.5669
X3.8356Y-4.7402
X3.8602Y-4.624
X3.875Y-4.7402
X3.8799Y-3.811
X3.8799Y-3.8504
X3.8799Y-3.8898
X3.8799Y-3.9291
X3.9193Y-3.811
X3.9193Y-3.8504
X3.9193Y-3.8898
X3.9193Y-3.9291
X3.935Y-3.9921
X3.935Y-4.0295
X3.935Y-4.0689
X3.94Y-4.7874
X3.9409Y-3.7657
X3.9587Y-3.561
X3.9587Y-3.811
X3.9587Y-3.8504
X3.9587Y-3.8898
X3.9587Y-3.9291
X3.9713Y-4.8159
X3.9724Y-3.6476
X3.9744Y-3.9921
X3.9744Y-4.0295
X3.9744Y-4.0689
X4.0082Y-4.8304
X4.0138Y-3.9921
X4.0138Y-4.0295
X4.0138Y-4.0689
X4.0925Y-3.4803
X4.439Y-4.2244
X4.6565Y-4.4781
X4.7362Y-4.2402
X4.9528Y-3.3898
X5.3652Y-3.9429
X5.4213Y-4.7382
X5.4213Y-4.7756
X5.4213Y-4.815
X5.4606Y-4.7382
X5.4606Y-4.7756
X5.4606Y-4.815
X5.5Y-4.7382
X5.5Y-4.7756
X5.5Y-4.815
X5.6811Y-4.0108
X5.7067Y-4.7382
X5.7067Y-4.7756
X5.7067Y-4.815
X5.7421Y-4.1831
X5.7421Y-4.2205
X5.7421Y-4.2598
X5.7461Y-4.7382
X5.7461Y-4.7756
X5.7461Y-4.815
X5.7815Y-4.1831
X5.7815Y-4.2205
X5.7815Y-4.2598
X5.7854Y-4.7382
X5.7854Y-4.7756
X5.7854Y-4.815
X5.8209Y-4.1831
X5.8209Y-4.2205
X5.8209Y-4.2598
T6
X4.1244Y-4.3903
X4.2228Y-4.3903
X4.3016Y-4.3903
X4.4Y-4.3903
T7
X2.944Y-2.7418
X2.944Y-2.8418
X3.044Y-2.7418
X3.044Y-2.8418
X3.144Y-2.7418
X3.144Y-2.8418
X3.244Y-2.7418
X3.244Y-2.8418
X3.344Y-2.7418
X3.344Y-2.8418
X3.444Y-2.7418
X3.444Y-2.8418
X3.544Y-2.7418
X3.544Y-2.8418
X3.644Y-2.7418
X3.644Y-2.8418
X3.744Y-2.7418
X3.744Y-2.8418
X3.844Y-2.7418
X3.844Y-2.8418
X3.944Y-2.7418
X3.944Y-2.8418
X4.044Y-2.7418
X4.044Y-2.8418
X4.144Y-2.7418
X4.144Y-2.8418
X4.244Y-2.7418
X4.244Y-2.8418
X4.344Y-2.7418
X4.344Y-2.8418
X4.444Y-2.7418
X4.444Y-2.8418
X4.544Y-2.7418
X4.544Y-2.8418
X4.644Y-2.7418
X4.644Y-2.8418
X4.744Y-2.7418
X4.744Y-2.8418
X4.844Y-2.7418
X4.844Y-2.8418
T8
X2.876Y-3.9184
X2.876Y-4.1153
X4.1535Y-4.6024
X4.3504Y-4.6024
T9
X4.0035Y-4.497
X4.5208Y-4.497
T10
X2.9685Y-4.6299
X3.1961Y-4.6299
T11
X4.5404Y-4.7669
X4.8081Y-4.7669
T12
X2.9228Y-3.0448
T13
X2.7522Y-2.7918
X2.7522Y-4.7209
X5.0357Y-2.7918
X5.0357Y-4.7209
T14
X3.2508Y-3.6748
X5.424Y-3.0448
T4
G00X2.656Y-4.2917
M15
G01X2.6874Y-4.2917
M16
G05
G00X2.6874Y-4.5732
M15
G01X2.656Y-4.5732
M16
G05
T5
G00X2.9122Y-4.6327
M15
G01X2.9122Y-4.5893
M16
G05
G00X2.9122Y-4.7909
M15
G01X2.9122Y-4.7594
M16
G05
G00X3.2524Y-4.6327
M15
G01X3.2524Y-4.5893
M16
G05
G00X3.2524Y-4.7909
M15
G01X3.2524Y-4.7594
M16
G05
T0
M30
