G04 #@! TF.GenerationSoftware,KiCad,Pcbnew,6.0.4-6f826c9f35~116~ubuntu20.04.1*
G04 #@! TF.CreationDate,2022-05-05T15:44:48+02:00*
G04 #@! TF.ProjectId,PiUPS,50695550-532e-46b6-9963-61645f706362,rev?*
G04 #@! TF.SameCoordinates,Original*
G04 #@! TF.FileFunction,Paste,Top*
G04 #@! TF.FilePolarity,Positive*
%FSLAX46Y46*%
G04 Gerber Fmt 4.6, Leading zero omitted, Abs format (unit mm)*
G04 Created by KiCad (PCBNEW 6.0.4-6f826c9f35~116~ubuntu20.04.1) date 2022-05-05 15:44:48*
%MOMM*%
%LPD*%
G01*
G04 APERTURE LIST*
G04 Aperture macros list*
%AMRoundRect*
0 Rectangle with rounded corners*
0 $1 Rounding radius*
0 $2 $3 $4 $5 $6 $7 $8 $9 X,Y pos of 4 corners*
0 Add a 4 corners polygon primitive as box body*
4,1,4,$2,$3,$4,$5,$6,$7,$8,$9,$2,$3,0*
0 Add four circle primitives for the rounded corners*
1,1,$1+$1,$2,$3*
1,1,$1+$1,$4,$5*
1,1,$1+$1,$6,$7*
1,1,$1+$1,$8,$9*
0 Add four rect primitives between the rounded corners*
20,1,$1+$1,$2,$3,$4,$5,0*
20,1,$1+$1,$4,$5,$6,$7,0*
20,1,$1+$1,$6,$7,$8,$9,0*
20,1,$1+$1,$8,$9,$2,$3,0*%
G04 Aperture macros list end*
%ADD10C,0.010000*%
%ADD11RoundRect,0.250000X-0.412500X-1.100000X0.412500X-1.100000X0.412500X1.100000X-0.412500X1.100000X0*%
%ADD12R,2.700000X3.600000*%
%ADD13RoundRect,0.250000X0.650000X-0.412500X0.650000X0.412500X-0.650000X0.412500X-0.650000X-0.412500X0*%
%ADD14RoundRect,0.250000X0.412500X0.650000X-0.412500X0.650000X-0.412500X-0.650000X0.412500X-0.650000X0*%
%ADD15RoundRect,0.250000X0.450000X-0.350000X0.450000X0.350000X-0.450000X0.350000X-0.450000X-0.350000X0*%
%ADD16RoundRect,0.250000X0.400000X1.450000X-0.400000X1.450000X-0.400000X-1.450000X0.400000X-1.450000X0*%
%ADD17RoundRect,0.250000X-0.475000X0.337500X-0.475000X-0.337500X0.475000X-0.337500X0.475000X0.337500X0*%
%ADD18RoundRect,0.250000X-0.337500X-0.475000X0.337500X-0.475000X0.337500X0.475000X-0.337500X0.475000X0*%
%ADD19RoundRect,0.250000X0.350000X0.450000X-0.350000X0.450000X-0.350000X-0.450000X0.350000X-0.450000X0*%
%ADD20RoundRect,0.250000X-0.315000X-0.315000X0.315000X-0.315000X0.315000X0.315000X-0.315000X0.315000X0*%
%ADD21RoundRect,0.062500X-0.350000X-0.062500X0.350000X-0.062500X0.350000X0.062500X-0.350000X0.062500X0*%
%ADD22RoundRect,0.062500X-0.062500X-0.350000X0.062500X-0.350000X0.062500X0.350000X-0.062500X0.350000X0*%
%ADD23RoundRect,0.250000X0.337500X0.475000X-0.337500X0.475000X-0.337500X-0.475000X0.337500X-0.475000X0*%
%ADD24RoundRect,0.054000X1.346000X-0.396000X1.346000X0.396000X-1.346000X0.396000X-1.346000X-0.396000X0*%
%ADD25R,5.000000X2.500000*%
%ADD26RoundRect,0.250000X-0.450000X0.350000X-0.450000X-0.350000X0.450000X-0.350000X0.450000X0.350000X0*%
%ADD27RoundRect,0.250000X-0.650000X0.412500X-0.650000X-0.412500X0.650000X-0.412500X0.650000X0.412500X0*%
%ADD28RoundRect,0.250000X-1.000000X1.750000X-1.000000X-1.750000X1.000000X-1.750000X1.000000X1.750000X0*%
%ADD29R,7.340000X6.350000*%
%ADD30R,1.650000X0.400000*%
%ADD31R,2.000000X1.350000*%
%ADD32R,2.500000X1.430000*%
%ADD33R,0.700000X1.825000*%
%ADD34R,1.500000X2.000000*%
%ADD35RoundRect,0.250000X-0.350000X-0.450000X0.350000X-0.450000X0.350000X0.450000X-0.350000X0.450000X0*%
%ADD36RoundRect,0.250000X0.475000X-0.337500X0.475000X0.337500X-0.475000X0.337500X-0.475000X-0.337500X0*%
%ADD37RoundRect,0.250001X-0.624999X0.462499X-0.624999X-0.462499X0.624999X-0.462499X0.624999X0.462499X0*%
%ADD38RoundRect,0.250000X1.450000X-0.400000X1.450000X0.400000X-1.450000X0.400000X-1.450000X-0.400000X0*%
%ADD39RoundRect,0.200000X-0.200000X-0.275000X0.200000X-0.275000X0.200000X0.275000X-0.200000X0.275000X0*%
%ADD40R,1.250000X2.500000*%
%ADD41RoundRect,0.150000X-0.825000X-0.150000X0.825000X-0.150000X0.825000X0.150000X-0.825000X0.150000X0*%
%ADD42R,0.600000X1.160000*%
%ADD43R,0.300000X1.160000*%
%ADD44RoundRect,0.100000X0.637500X0.100000X-0.637500X0.100000X-0.637500X-0.100000X0.637500X-0.100000X0*%
%ADD45R,0.600000X0.240000*%
%ADD46R,0.240000X0.600000*%
%ADD47R,1.000000X1.000000*%
%ADD48RoundRect,0.250000X0.550000X-1.500000X0.550000X1.500000X-0.550000X1.500000X-0.550000X-1.500000X0*%
%ADD49R,0.600000X1.300000*%
%ADD50R,1.400000X1.600000*%
%ADD51R,1.500000X2.400000*%
%ADD52RoundRect,0.150000X0.512500X0.150000X-0.512500X0.150000X-0.512500X-0.150000X0.512500X-0.150000X0*%
G04 APERTURE END LIST*
G36*
X116925900Y-110316200D02*
G01*
X116075900Y-110316200D01*
X116075900Y-109396200D01*
X116925900Y-109396200D01*
X116925900Y-110316200D01*
G37*
D10*
X116925900Y-110316200D02*
X116075900Y-110316200D01*
X116075900Y-109396200D01*
X116925900Y-109396200D01*
X116925900Y-110316200D01*
G36*
X117975900Y-109196200D02*
G01*
X117125900Y-109196200D01*
X117125900Y-108276200D01*
X117975900Y-108276200D01*
X117975900Y-109196200D01*
G37*
X117975900Y-109196200D02*
X117125900Y-109196200D01*
X117125900Y-108276200D01*
X117975900Y-108276200D01*
X117975900Y-109196200D01*
G36*
X117975900Y-110316200D02*
G01*
X117125900Y-110316200D01*
X117125900Y-109396200D01*
X117975900Y-109396200D01*
X117975900Y-110316200D01*
G37*
X117975900Y-110316200D02*
X117125900Y-110316200D01*
X117125900Y-109396200D01*
X117975900Y-109396200D01*
X117975900Y-110316200D01*
G36*
X114825900Y-109671200D02*
G01*
X114100900Y-109671200D01*
X114098283Y-109671131D01*
X114095674Y-109670926D01*
X114093078Y-109670584D01*
X114090504Y-109670107D01*
X114087959Y-109669496D01*
X114085449Y-109668753D01*
X114082982Y-109667879D01*
X114080563Y-109666877D01*
X114078200Y-109665750D01*
X114075900Y-109664501D01*
X114073668Y-109663134D01*
X114071511Y-109661651D01*
X114069434Y-109660057D01*
X114067443Y-109658357D01*
X114065545Y-109656555D01*
X114063743Y-109654657D01*
X114062043Y-109652666D01*
X114060449Y-109650589D01*
X114058966Y-109648432D01*
X114057599Y-109646200D01*
X114056350Y-109643900D01*
X114055223Y-109641537D01*
X114054221Y-109639118D01*
X114053347Y-109636651D01*
X114052604Y-109634141D01*
X114051993Y-109631596D01*
X114051516Y-109629022D01*
X114051174Y-109626426D01*
X114050969Y-109623817D01*
X114050900Y-109621200D01*
X114050900Y-109521200D01*
X114050969Y-109518583D01*
X114051174Y-109515974D01*
X114051516Y-109513378D01*
X114051993Y-109510804D01*
X114052604Y-109508259D01*
X114053347Y-109505749D01*
X114054221Y-109503282D01*
X114055223Y-109500863D01*
X114056350Y-109498500D01*
X114057599Y-109496200D01*
X114058966Y-109493968D01*
X114060449Y-109491811D01*
X114062043Y-109489734D01*
X114063743Y-109487743D01*
X114065545Y-109485845D01*
X114067443Y-109484043D01*
X114069434Y-109482343D01*
X114071511Y-109480749D01*
X114073668Y-109479266D01*
X114075900Y-109477899D01*
X114078200Y-109476650D01*
X114080563Y-109475523D01*
X114082982Y-109474521D01*
X114085449Y-109473647D01*
X114087959Y-109472904D01*
X114090504Y-109472293D01*
X114093078Y-109471816D01*
X114095674Y-109471474D01*
X114098283Y-109471269D01*
X114100900Y-109471200D01*
X114575900Y-109471200D01*
X114575900Y-109121200D01*
X114100900Y-109121200D01*
X114098283Y-109121131D01*
X114095674Y-109120926D01*
X114093078Y-109120584D01*
X114090504Y-109120107D01*
X114087959Y-109119496D01*
X114085449Y-109118753D01*
X114082982Y-109117879D01*
X114080563Y-109116877D01*
X114078200Y-109115750D01*
X114075900Y-109114501D01*
X114073668Y-109113134D01*
X114071511Y-109111651D01*
X114069434Y-109110057D01*
X114067443Y-109108357D01*
X114065545Y-109106555D01*
X114063743Y-109104657D01*
X114062043Y-109102666D01*
X114060449Y-109100589D01*
X114058966Y-109098432D01*
X114057599Y-109096200D01*
X114056350Y-109093900D01*
X114055223Y-109091537D01*
X114054221Y-109089118D01*
X114053347Y-109086651D01*
X114052604Y-109084141D01*
X114051993Y-109081596D01*
X114051516Y-109079022D01*
X114051174Y-109076426D01*
X114050969Y-109073817D01*
X114050900Y-109071200D01*
X114050900Y-108971200D01*
X114050969Y-108968583D01*
X114051174Y-108965974D01*
X114051516Y-108963378D01*
X114051993Y-108960804D01*
X114052604Y-108958259D01*
X114053347Y-108955749D01*
X114054221Y-108953282D01*
X114055223Y-108950863D01*
X114056350Y-108948500D01*
X114057599Y-108946200D01*
X114058966Y-108943968D01*
X114060449Y-108941811D01*
X114062043Y-108939734D01*
X114063743Y-108937743D01*
X114065545Y-108935845D01*
X114067443Y-108934043D01*
X114069434Y-108932343D01*
X114071511Y-108930749D01*
X114073668Y-108929266D01*
X114075900Y-108927899D01*
X114078200Y-108926650D01*
X114080563Y-108925523D01*
X114082982Y-108924521D01*
X114085449Y-108923647D01*
X114087959Y-108922904D01*
X114090504Y-108922293D01*
X114093078Y-108921816D01*
X114095674Y-108921474D01*
X114098283Y-108921269D01*
X114100900Y-108921200D01*
X114825900Y-108921200D01*
X114825900Y-109671200D01*
G37*
X114825900Y-109671200D02*
X114100900Y-109671200D01*
X114098283Y-109671131D01*
X114095674Y-109670926D01*
X114093078Y-109670584D01*
X114090504Y-109670107D01*
X114087959Y-109669496D01*
X114085449Y-109668753D01*
X114082982Y-109667879D01*
X114080563Y-109666877D01*
X114078200Y-109665750D01*
X114075900Y-109664501D01*
X114073668Y-109663134D01*
X114071511Y-109661651D01*
X114069434Y-109660057D01*
X114067443Y-109658357D01*
X114065545Y-109656555D01*
X114063743Y-109654657D01*
X114062043Y-109652666D01*
X114060449Y-109650589D01*
X114058966Y-109648432D01*
X114057599Y-109646200D01*
X114056350Y-109643900D01*
X114055223Y-109641537D01*
X114054221Y-109639118D01*
X114053347Y-109636651D01*
X114052604Y-109634141D01*
X114051993Y-109631596D01*
X114051516Y-109629022D01*
X114051174Y-109626426D01*
X114050969Y-109623817D01*
X114050900Y-109621200D01*
X114050900Y-109521200D01*
X114050969Y-109518583D01*
X114051174Y-109515974D01*
X114051516Y-109513378D01*
X114051993Y-109510804D01*
X114052604Y-109508259D01*
X114053347Y-109505749D01*
X114054221Y-109503282D01*
X114055223Y-109500863D01*
X114056350Y-109498500D01*
X114057599Y-109496200D01*
X114058966Y-109493968D01*
X114060449Y-109491811D01*
X114062043Y-109489734D01*
X114063743Y-109487743D01*
X114065545Y-109485845D01*
X114067443Y-109484043D01*
X114069434Y-109482343D01*
X114071511Y-109480749D01*
X114073668Y-109479266D01*
X114075900Y-109477899D01*
X114078200Y-109476650D01*
X114080563Y-109475523D01*
X114082982Y-109474521D01*
X114085449Y-109473647D01*
X114087959Y-109472904D01*
X114090504Y-109472293D01*
X114093078Y-109471816D01*
X114095674Y-109471474D01*
X114098283Y-109471269D01*
X114100900Y-109471200D01*
X114575900Y-109471200D01*
X114575900Y-109121200D01*
X114100900Y-109121200D01*
X114098283Y-109121131D01*
X114095674Y-109120926D01*
X114093078Y-109120584D01*
X114090504Y-109120107D01*
X114087959Y-109119496D01*
X114085449Y-109118753D01*
X114082982Y-109117879D01*
X114080563Y-109116877D01*
X114078200Y-109115750D01*
X114075900Y-109114501D01*
X114073668Y-109113134D01*
X114071511Y-109111651D01*
X114069434Y-109110057D01*
X114067443Y-109108357D01*
X114065545Y-109106555D01*
X114063743Y-109104657D01*
X114062043Y-109102666D01*
X114060449Y-109100589D01*
X114058966Y-109098432D01*
X114057599Y-109096200D01*
X114056350Y-109093900D01*
X114055223Y-109091537D01*
X114054221Y-109089118D01*
X114053347Y-109086651D01*
X114052604Y-109084141D01*
X114051993Y-109081596D01*
X114051516Y-109079022D01*
X114051174Y-109076426D01*
X114050969Y-109073817D01*
X114050900Y-109071200D01*
X114050900Y-108971200D01*
X114050969Y-108968583D01*
X114051174Y-108965974D01*
X114051516Y-108963378D01*
X114051993Y-108960804D01*
X114052604Y-108958259D01*
X114053347Y-108955749D01*
X114054221Y-108953282D01*
X114055223Y-108950863D01*
X114056350Y-108948500D01*
X114057599Y-108946200D01*
X114058966Y-108943968D01*
X114060449Y-108941811D01*
X114062043Y-108939734D01*
X114063743Y-108937743D01*
X114065545Y-108935845D01*
X114067443Y-108934043D01*
X114069434Y-108932343D01*
X114071511Y-108930749D01*
X114073668Y-108929266D01*
X114075900Y-108927899D01*
X114078200Y-108926650D01*
X114080563Y-108925523D01*
X114082982Y-108924521D01*
X114085449Y-108923647D01*
X114087959Y-108922904D01*
X114090504Y-108922293D01*
X114093078Y-108921816D01*
X114095674Y-108921474D01*
X114098283Y-108921269D01*
X114100900Y-108921200D01*
X114825900Y-108921200D01*
X114825900Y-109671200D01*
G36*
X115875900Y-109196200D02*
G01*
X115025900Y-109196200D01*
X115025900Y-108276200D01*
X115875900Y-108276200D01*
X115875900Y-109196200D01*
G37*
X115875900Y-109196200D02*
X115025900Y-109196200D01*
X115025900Y-108276200D01*
X115875900Y-108276200D01*
X115875900Y-109196200D01*
G36*
X115875900Y-110316200D02*
G01*
X115025900Y-110316200D01*
X115025900Y-109396200D01*
X115875900Y-109396200D01*
X115875900Y-110316200D01*
G37*
X115875900Y-110316200D02*
X115025900Y-110316200D01*
X115025900Y-109396200D01*
X115875900Y-109396200D01*
X115875900Y-110316200D01*
G36*
X116925900Y-109196200D02*
G01*
X116075900Y-109196200D01*
X116075900Y-108276200D01*
X116925900Y-108276200D01*
X116925900Y-109196200D01*
G37*
X116925900Y-109196200D02*
X116075900Y-109196200D01*
X116075900Y-108276200D01*
X116925900Y-108276200D01*
X116925900Y-109196200D01*
G36*
X118903517Y-108921269D02*
G01*
X118906126Y-108921474D01*
X118908722Y-108921816D01*
X118911296Y-108922293D01*
X118913841Y-108922904D01*
X118916351Y-108923647D01*
X118918818Y-108924521D01*
X118921237Y-108925523D01*
X118923600Y-108926650D01*
X118925900Y-108927899D01*
X118928132Y-108929266D01*
X118930289Y-108930749D01*
X118932366Y-108932343D01*
X118934357Y-108934043D01*
X118936255Y-108935845D01*
X118938057Y-108937743D01*
X118939757Y-108939734D01*
X118941351Y-108941811D01*
X118942834Y-108943968D01*
X118944201Y-108946200D01*
X118945450Y-108948500D01*
X118946577Y-108950863D01*
X118947579Y-108953282D01*
X118948453Y-108955749D01*
X118949196Y-108958259D01*
X118949807Y-108960804D01*
X118950284Y-108963378D01*
X118950626Y-108965974D01*
X118950831Y-108968583D01*
X118950900Y-108971200D01*
X118950900Y-109071200D01*
X118950831Y-109073817D01*
X118950626Y-109076426D01*
X118950284Y-109079022D01*
X118949807Y-109081596D01*
X118949196Y-109084141D01*
X118948453Y-109086651D01*
X118947579Y-109089118D01*
X118946577Y-109091537D01*
X118945450Y-109093900D01*
X118944201Y-109096200D01*
X118942834Y-109098432D01*
X118941351Y-109100589D01*
X118939757Y-109102666D01*
X118938057Y-109104657D01*
X118936255Y-109106555D01*
X118934357Y-109108357D01*
X118932366Y-109110057D01*
X118930289Y-109111651D01*
X118928132Y-109113134D01*
X118925900Y-109114501D01*
X118923600Y-109115750D01*
X118921237Y-109116877D01*
X118918818Y-109117879D01*
X118916351Y-109118753D01*
X118913841Y-109119496D01*
X118911296Y-109120107D01*
X118908722Y-109120584D01*
X118906126Y-109120926D01*
X118903517Y-109121131D01*
X118900900Y-109121200D01*
X118425900Y-109121200D01*
X118425900Y-109471200D01*
X118900900Y-109471200D01*
X118903517Y-109471269D01*
X118906126Y-109471474D01*
X118908722Y-109471816D01*
X118911296Y-109472293D01*
X118913841Y-109472904D01*
X118916351Y-109473647D01*
X118918818Y-109474521D01*
X118921237Y-109475523D01*
X118923600Y-109476650D01*
X118925900Y-109477899D01*
X118928132Y-109479266D01*
X118930289Y-109480749D01*
X118932366Y-109482343D01*
X118934357Y-109484043D01*
X118936255Y-109485845D01*
X118938057Y-109487743D01*
X118939757Y-109489734D01*
X118941351Y-109491811D01*
X118942834Y-109493968D01*
X118944201Y-109496200D01*
X118945450Y-109498500D01*
X118946577Y-109500863D01*
X118947579Y-109503282D01*
X118948453Y-109505749D01*
X118949196Y-109508259D01*
X118949807Y-109510804D01*
X118950284Y-109513378D01*
X118950626Y-109515974D01*
X118950831Y-109518583D01*
X118950900Y-109521200D01*
X118950900Y-109621200D01*
X118950831Y-109623817D01*
X118950626Y-109626426D01*
X118950284Y-109629022D01*
X118949807Y-109631596D01*
X118949196Y-109634141D01*
X118948453Y-109636651D01*
X118947579Y-109639118D01*
X118946577Y-109641537D01*
X118945450Y-109643900D01*
X118944201Y-109646200D01*
X118942834Y-109648432D01*
X118941351Y-109650589D01*
X118939757Y-109652666D01*
X118938057Y-109654657D01*
X118936255Y-109656555D01*
X118934357Y-109658357D01*
X118932366Y-109660057D01*
X118930289Y-109661651D01*
X118928132Y-109663134D01*
X118925900Y-109664501D01*
X118923600Y-109665750D01*
X118921237Y-109666877D01*
X118918818Y-109667879D01*
X118916351Y-109668753D01*
X118913841Y-109669496D01*
X118911296Y-109670107D01*
X118908722Y-109670584D01*
X118906126Y-109670926D01*
X118903517Y-109671131D01*
X118900900Y-109671200D01*
X118175900Y-109671200D01*
X118175900Y-108921200D01*
X118900900Y-108921200D01*
X118903517Y-108921269D01*
G37*
X118903517Y-108921269D02*
X118906126Y-108921474D01*
X118908722Y-108921816D01*
X118911296Y-108922293D01*
X118913841Y-108922904D01*
X118916351Y-108923647D01*
X118918818Y-108924521D01*
X118921237Y-108925523D01*
X118923600Y-108926650D01*
X118925900Y-108927899D01*
X118928132Y-108929266D01*
X118930289Y-108930749D01*
X118932366Y-108932343D01*
X118934357Y-108934043D01*
X118936255Y-108935845D01*
X118938057Y-108937743D01*
X118939757Y-108939734D01*
X118941351Y-108941811D01*
X118942834Y-108943968D01*
X118944201Y-108946200D01*
X118945450Y-108948500D01*
X118946577Y-108950863D01*
X118947579Y-108953282D01*
X118948453Y-108955749D01*
X118949196Y-108958259D01*
X118949807Y-108960804D01*
X118950284Y-108963378D01*
X118950626Y-108965974D01*
X118950831Y-108968583D01*
X118950900Y-108971200D01*
X118950900Y-109071200D01*
X118950831Y-109073817D01*
X118950626Y-109076426D01*
X118950284Y-109079022D01*
X118949807Y-109081596D01*
X118949196Y-109084141D01*
X118948453Y-109086651D01*
X118947579Y-109089118D01*
X118946577Y-109091537D01*
X118945450Y-109093900D01*
X118944201Y-109096200D01*
X118942834Y-109098432D01*
X118941351Y-109100589D01*
X118939757Y-109102666D01*
X118938057Y-109104657D01*
X118936255Y-109106555D01*
X118934357Y-109108357D01*
X118932366Y-109110057D01*
X118930289Y-109111651D01*
X118928132Y-109113134D01*
X118925900Y-109114501D01*
X118923600Y-109115750D01*
X118921237Y-109116877D01*
X118918818Y-109117879D01*
X118916351Y-109118753D01*
X118913841Y-109119496D01*
X118911296Y-109120107D01*
X118908722Y-109120584D01*
X118906126Y-109120926D01*
X118903517Y-109121131D01*
X118900900Y-109121200D01*
X118425900Y-109121200D01*
X118425900Y-109471200D01*
X118900900Y-109471200D01*
X118903517Y-109471269D01*
X118906126Y-109471474D01*
X118908722Y-109471816D01*
X118911296Y-109472293D01*
X118913841Y-109472904D01*
X118916351Y-109473647D01*
X118918818Y-109474521D01*
X118921237Y-109475523D01*
X118923600Y-109476650D01*
X118925900Y-109477899D01*
X118928132Y-109479266D01*
X118930289Y-109480749D01*
X118932366Y-109482343D01*
X118934357Y-109484043D01*
X118936255Y-109485845D01*
X118938057Y-109487743D01*
X118939757Y-109489734D01*
X118941351Y-109491811D01*
X118942834Y-109493968D01*
X118944201Y-109496200D01*
X118945450Y-109498500D01*
X118946577Y-109500863D01*
X118947579Y-109503282D01*
X118948453Y-109505749D01*
X118949196Y-109508259D01*
X118949807Y-109510804D01*
X118950284Y-109513378D01*
X118950626Y-109515974D01*
X118950831Y-109518583D01*
X118950900Y-109521200D01*
X118950900Y-109621200D01*
X118950831Y-109623817D01*
X118950626Y-109626426D01*
X118950284Y-109629022D01*
X118949807Y-109631596D01*
X118949196Y-109634141D01*
X118948453Y-109636651D01*
X118947579Y-109639118D01*
X118946577Y-109641537D01*
X118945450Y-109643900D01*
X118944201Y-109646200D01*
X118942834Y-109648432D01*
X118941351Y-109650589D01*
X118939757Y-109652666D01*
X118938057Y-109654657D01*
X118936255Y-109656555D01*
X118934357Y-109658357D01*
X118932366Y-109660057D01*
X118930289Y-109661651D01*
X118928132Y-109663134D01*
X118925900Y-109664501D01*
X118923600Y-109665750D01*
X118921237Y-109666877D01*
X118918818Y-109667879D01*
X118916351Y-109668753D01*
X118913841Y-109669496D01*
X118911296Y-109670107D01*
X118908722Y-109670584D01*
X118906126Y-109670926D01*
X118903517Y-109671131D01*
X118900900Y-109671200D01*
X118175900Y-109671200D01*
X118175900Y-108921200D01*
X118900900Y-108921200D01*
X118903517Y-108921269D01*
D11*
X112812100Y-119725000D03*
X115937100Y-119725000D03*
D12*
X120339400Y-101574600D03*
X112039400Y-101574600D03*
D13*
X92913200Y-106960200D03*
X92913200Y-103835200D03*
D14*
X77987500Y-108725000D03*
X74862500Y-108725000D03*
D15*
X120142000Y-117200000D03*
X120142000Y-115200000D03*
D16*
X99615000Y-98050000D03*
X95165000Y-98050000D03*
D17*
X122170000Y-114502500D03*
X122170000Y-116577500D03*
D18*
X105050000Y-97100000D03*
X107125000Y-97100000D03*
D19*
X87140800Y-116941600D03*
X85140800Y-116941600D03*
D20*
X80757400Y-110526200D03*
X82107400Y-110526200D03*
X80757400Y-111876200D03*
X82107400Y-111876200D03*
D21*
X79469900Y-109951200D03*
X79469900Y-110451200D03*
X79469900Y-110951200D03*
X79469900Y-111451200D03*
X79469900Y-111951200D03*
X79469900Y-112451200D03*
D22*
X80182400Y-113163700D03*
X80682400Y-113163700D03*
X81182400Y-113163700D03*
X81682400Y-113163700D03*
X82182400Y-113163700D03*
X82682400Y-113163700D03*
D21*
X83394900Y-112451200D03*
X83394900Y-111951200D03*
X83394900Y-111451200D03*
X83394900Y-110951200D03*
X83394900Y-110451200D03*
X83394900Y-109951200D03*
D22*
X82682400Y-109238700D03*
X82182400Y-109238700D03*
X81682400Y-109238700D03*
X81182400Y-109238700D03*
X80682400Y-109238700D03*
X80182400Y-109238700D03*
D23*
X112927500Y-108180000D03*
X110852500Y-108180000D03*
D24*
X140375000Y-108400000D03*
X140375000Y-105900000D03*
X140375000Y-103900000D03*
X140375000Y-101400000D03*
D25*
X142625000Y-112150000D03*
X142625000Y-97650000D03*
D26*
X89027000Y-115017800D03*
X89027000Y-117017800D03*
D19*
X107125000Y-104571800D03*
X105125000Y-104571800D03*
D27*
X109194600Y-102069500D03*
X109194600Y-105194500D03*
D28*
X132375000Y-104275000D03*
X132375000Y-112275000D03*
D29*
X70793600Y-85191600D03*
X149453600Y-85191600D03*
D30*
X71069600Y-110612400D03*
X71069600Y-111262400D03*
X71069600Y-111912400D03*
X71069600Y-112562400D03*
X71069600Y-113212400D03*
D31*
X69119600Y-114662400D03*
D32*
X67919600Y-110952400D03*
D33*
X69869600Y-108962400D03*
X69869600Y-114912400D03*
D34*
X71189600Y-114812400D03*
D32*
X67919600Y-112872400D03*
D31*
X69119600Y-109182400D03*
D34*
X71169600Y-109062400D03*
D19*
X124875000Y-97100000D03*
X122875000Y-97100000D03*
D14*
X129825000Y-114925000D03*
X126700000Y-114925000D03*
X76340100Y-114249200D03*
X73215100Y-114249200D03*
D35*
X85140800Y-114960400D03*
X87140800Y-114960400D03*
X122875000Y-99075000D03*
X124875000Y-99075000D03*
D19*
X93262200Y-122224800D03*
X91262200Y-122224800D03*
D36*
X83058000Y-107442000D03*
X83058000Y-105367000D03*
D37*
X85344000Y-119213300D03*
X85344000Y-122188300D03*
D38*
X136650000Y-101875000D03*
X136650000Y-97425000D03*
D35*
X93675000Y-109025000D03*
X95675000Y-109025000D03*
D19*
X104700000Y-115650000D03*
X102700000Y-115650000D03*
D27*
X80721200Y-102780700D03*
X80721200Y-105905700D03*
D36*
X98770000Y-117037500D03*
X98770000Y-114962500D03*
D39*
X82029800Y-85344000D03*
X83679800Y-85344000D03*
D11*
X112837500Y-113171800D03*
X115962500Y-113171800D03*
D16*
X99610000Y-102050000D03*
X95160000Y-102050000D03*
D15*
X99300000Y-121775000D03*
X99300000Y-119775000D03*
D40*
X102850000Y-118425000D03*
X105350000Y-118425000D03*
X107850000Y-118425000D03*
D19*
X122275000Y-108050000D03*
X120275000Y-108050000D03*
D35*
X100900000Y-105100000D03*
X102900000Y-105100000D03*
D26*
X95554800Y-118675400D03*
X95554800Y-120675400D03*
D35*
X87477600Y-118948200D03*
X89477600Y-118948200D03*
D18*
X150225000Y-96750000D03*
X152300000Y-96750000D03*
D27*
X124350000Y-107000000D03*
X124350000Y-110125000D03*
D19*
X112850000Y-110125000D03*
X110850000Y-110125000D03*
D23*
X122199400Y-110058200D03*
X120124400Y-110058200D03*
D26*
X118050000Y-116600000D03*
X118050000Y-118600000D03*
D41*
X97925000Y-106920000D03*
X97925000Y-108190000D03*
X97925000Y-109460000D03*
X97925000Y-110730000D03*
X102875000Y-110730000D03*
X102875000Y-109460000D03*
X102875000Y-108190000D03*
X102875000Y-106920000D03*
D42*
X75590800Y-116565200D03*
X76390800Y-116565200D03*
D43*
X77540800Y-116565200D03*
X78540800Y-116565200D03*
X79040800Y-116565200D03*
X80040800Y-116565200D03*
D42*
X81190800Y-116565200D03*
X81990800Y-116565200D03*
X81990800Y-116565200D03*
X81190800Y-116565200D03*
D43*
X80540800Y-116565200D03*
X79540800Y-116565200D03*
X78040800Y-116565200D03*
X77040800Y-116565200D03*
D42*
X76390800Y-116565200D03*
X75590800Y-116565200D03*
D15*
X89020000Y-113240000D03*
X89020000Y-111240000D03*
D37*
X105400000Y-109062500D03*
X105400000Y-112037500D03*
D35*
X105100000Y-106550000D03*
X107100000Y-106550000D03*
D15*
X95675000Y-113300000D03*
X95675000Y-111300000D03*
D26*
X73175000Y-108425000D03*
X73175000Y-110425000D03*
D44*
X96784000Y-116951400D03*
X96784000Y-116301400D03*
X96784000Y-115651400D03*
X96784000Y-115001400D03*
X91059000Y-115001400D03*
X91059000Y-115651400D03*
X91059000Y-116301400D03*
X91059000Y-116951400D03*
D19*
X89477600Y-122224800D03*
X87477600Y-122224800D03*
D45*
X118650900Y-108546200D03*
D46*
X118250900Y-107646200D03*
X117750900Y-107646200D03*
X117250900Y-107646200D03*
X116750900Y-107646200D03*
X116250900Y-107646200D03*
X115750900Y-107646200D03*
X115250900Y-107646200D03*
X114750900Y-107646200D03*
D45*
X114350900Y-108546200D03*
X114350900Y-110046200D03*
D46*
X114750900Y-110946200D03*
X115250900Y-110946200D03*
X115750900Y-110946200D03*
X116250900Y-110946200D03*
X116750900Y-110946200D03*
X117250900Y-110946200D03*
X117750900Y-110946200D03*
X118250900Y-110946200D03*
D45*
X118650900Y-110046200D03*
D47*
X91775000Y-113400000D03*
X91775000Y-110900000D03*
X93725000Y-113400000D03*
X93725000Y-110900000D03*
D48*
X135000000Y-121150000D03*
X135000000Y-115750000D03*
D35*
X106475000Y-115650000D03*
X108475000Y-115650000D03*
D19*
X99125000Y-105100000D03*
X97125000Y-105100000D03*
D15*
X108920000Y-108990000D03*
X108920000Y-106990000D03*
D49*
X107600000Y-113600000D03*
X109500000Y-113600000D03*
X108550000Y-111500000D03*
D13*
X109200000Y-100150000D03*
X109200000Y-97025000D03*
D50*
X147075000Y-121200000D03*
X147075000Y-113200000D03*
X151575000Y-121200000D03*
X151575000Y-113200000D03*
D47*
X103125000Y-113425000D03*
X100625000Y-113425000D03*
D18*
X119921200Y-112547400D03*
X121996200Y-112547400D03*
D15*
X124150000Y-113963200D03*
X124150000Y-111963200D03*
D26*
X100850000Y-116040000D03*
X100850000Y-118040000D03*
D48*
X142175000Y-121150000D03*
X142175000Y-115750000D03*
D51*
X85178000Y-106324400D03*
X90678000Y-106324400D03*
D15*
X95225000Y-106975000D03*
X95225000Y-104975000D03*
D26*
X110350000Y-116000000D03*
X110350000Y-118000000D03*
D41*
X101800000Y-98960000D03*
X101800000Y-100230000D03*
X101800000Y-101500000D03*
X101800000Y-102770000D03*
X106750000Y-102770000D03*
X106750000Y-101500000D03*
X106750000Y-100230000D03*
X106750000Y-98960000D03*
D11*
X112825200Y-116448400D03*
X115950200Y-116448400D03*
D52*
X93613400Y-120457000D03*
X93613400Y-119507000D03*
X93613400Y-118557000D03*
X91338400Y-118557000D03*
X91338400Y-119507000D03*
X91338400Y-120457000D03*
D26*
X118059200Y-112826800D03*
X118059200Y-114826800D03*
M02*
