G04 #@! TF.GenerationSoftware,KiCad,Pcbnew,5.1.10-88a1d61d58~90~ubuntu20.04.1*
G04 #@! TF.CreationDate,2021-09-24T13:56:54+03:00*
G04 #@! TF.ProjectId,PiUPS,50695550-532e-46b6-9963-61645f706362,rev?*
G04 #@! TF.SameCoordinates,Original*
G04 #@! TF.FileFunction,Legend,Bot*
G04 #@! TF.FilePolarity,Positive*
%FSLAX46Y46*%
G04 Gerber Fmt 4.6, Leading zero omitted, Abs format (unit mm)*
G04 Created by KiCad (PCBNEW 5.1.10-88a1d61d58~90~ubuntu20.04.1) date 2021-09-24 13:56:54*
%MOMM*%
%LPD*%
G01*
G04 APERTURE LIST*
%ADD10C,0.300000*%
%ADD11C,0.120000*%
%ADD12C,0.100000*%
%ADD13C,0.200000*%
%ADD14R,0.600000X1.300000*%
%ADD15R,1.300000X0.600000*%
%ADD16C,0.300000*%
%ADD17C,0.900000*%
%ADD18R,1.250000X2.500000*%
%ADD19C,1.750000*%
%ADD20R,1.750000X1.750000*%
%ADD21C,2.750000*%
%ADD22O,1.980000X3.960000*%
%ADD23R,1.980000X3.960000*%
%ADD24C,1.600000*%
%ADD25R,1.600000X1.600000*%
%ADD26C,3.000000*%
%ADD27O,3.960000X1.980000*%
%ADD28R,3.960000X1.980000*%
%ADD29O,1.900000X1.050000*%
%ADD30C,0.600000*%
%ADD31O,0.900000X1.700000*%
%ADD32O,0.900000X2.000000*%
%ADD33C,2.390000*%
%ADD34C,3.450000*%
G04 APERTURE END LIST*
D10*
X75613095Y-99507142D02*
X77136904Y-99507142D01*
X76375000Y-98745238D02*
X76375000Y-100269047D01*
X104638095Y-113657142D02*
X106161904Y-113657142D01*
X105400000Y-112895238D02*
X105400000Y-114419047D01*
D11*
X113200000Y-73375000D02*
X113200000Y-73950000D01*
X84425000Y-73375000D02*
X113200000Y-73375000D01*
X84425000Y-76400000D02*
X84425000Y-73375000D01*
X88900000Y-76400000D02*
X84425000Y-76400000D01*
X88900000Y-74525000D02*
X88900000Y-76400000D01*
X91775000Y-74525000D02*
X88900000Y-74525000D01*
X91775000Y-76650000D02*
X91775000Y-74525000D01*
X113200000Y-76650000D02*
X91775000Y-76650000D01*
X113200000Y-73950000D02*
X113200000Y-76650000D01*
D12*
X112733333Y-74861904D02*
X112733333Y-74061904D01*
X112428571Y-74061904D01*
X112352380Y-74100000D01*
X112314285Y-74138095D01*
X112276190Y-74214285D01*
X112276190Y-74328571D01*
X112314285Y-74404761D01*
X112352380Y-74442857D01*
X112428571Y-74480952D01*
X112733333Y-74480952D01*
X111819047Y-74861904D02*
X111895238Y-74823809D01*
X111933333Y-74747619D01*
X111933333Y-74061904D01*
X111171428Y-74861904D02*
X111171428Y-74442857D01*
X111209523Y-74366666D01*
X111285714Y-74328571D01*
X111438095Y-74328571D01*
X111514285Y-74366666D01*
X111171428Y-74823809D02*
X111247619Y-74861904D01*
X111438095Y-74861904D01*
X111514285Y-74823809D01*
X111552380Y-74747619D01*
X111552380Y-74671428D01*
X111514285Y-74595238D01*
X111438095Y-74557142D01*
X111247619Y-74557142D01*
X111171428Y-74519047D01*
X110447619Y-74823809D02*
X110523809Y-74861904D01*
X110676190Y-74861904D01*
X110752380Y-74823809D01*
X110790476Y-74785714D01*
X110828571Y-74709523D01*
X110828571Y-74480952D01*
X110790476Y-74404761D01*
X110752380Y-74366666D01*
X110676190Y-74328571D01*
X110523809Y-74328571D01*
X110447619Y-74366666D01*
X109800000Y-74823809D02*
X109876190Y-74861904D01*
X110028571Y-74861904D01*
X110104761Y-74823809D01*
X110142857Y-74747619D01*
X110142857Y-74442857D01*
X110104761Y-74366666D01*
X110028571Y-74328571D01*
X109876190Y-74328571D01*
X109800000Y-74366666D01*
X109761904Y-74442857D01*
X109761904Y-74519047D01*
X110142857Y-74595238D01*
X108466666Y-74861904D02*
X108466666Y-74442857D01*
X108504761Y-74366666D01*
X108580952Y-74328571D01*
X108733333Y-74328571D01*
X108809523Y-74366666D01*
X108466666Y-74823809D02*
X108542857Y-74861904D01*
X108733333Y-74861904D01*
X108809523Y-74823809D01*
X108847619Y-74747619D01*
X108847619Y-74671428D01*
X108809523Y-74595238D01*
X108733333Y-74557142D01*
X108542857Y-74557142D01*
X108466666Y-74519047D01*
X107514285Y-74823809D02*
X107438095Y-74861904D01*
X107285714Y-74861904D01*
X107209523Y-74823809D01*
X107171428Y-74747619D01*
X107171428Y-74709523D01*
X107209523Y-74633333D01*
X107285714Y-74595238D01*
X107400000Y-74595238D01*
X107476190Y-74557142D01*
X107514285Y-74480952D01*
X107514285Y-74442857D01*
X107476190Y-74366666D01*
X107400000Y-74328571D01*
X107285714Y-74328571D01*
X107209523Y-74366666D01*
X106828571Y-74861904D02*
X106828571Y-74061904D01*
X106485714Y-74861904D02*
X106485714Y-74442857D01*
X106523809Y-74366666D01*
X106600000Y-74328571D01*
X106714285Y-74328571D01*
X106790476Y-74366666D01*
X106828571Y-74404761D01*
X105761904Y-74328571D02*
X105761904Y-74861904D01*
X106104761Y-74328571D02*
X106104761Y-74747619D01*
X106066666Y-74823809D01*
X105990476Y-74861904D01*
X105876190Y-74861904D01*
X105800000Y-74823809D01*
X105761904Y-74785714D01*
X105380952Y-74328571D02*
X105380952Y-74861904D01*
X105380952Y-74404761D02*
X105342857Y-74366666D01*
X105266666Y-74328571D01*
X105152380Y-74328571D01*
X105076190Y-74366666D01*
X105038095Y-74442857D01*
X105038095Y-74861904D01*
X104771428Y-74328571D02*
X104466666Y-74328571D01*
X104657142Y-74061904D02*
X104657142Y-74747619D01*
X104619047Y-74823809D01*
X104542857Y-74861904D01*
X104466666Y-74861904D01*
X103704761Y-74328571D02*
X103400000Y-74328571D01*
X103590476Y-74061904D02*
X103590476Y-74747619D01*
X103552380Y-74823809D01*
X103476190Y-74861904D01*
X103400000Y-74861904D01*
X103019047Y-74861904D02*
X103095238Y-74823809D01*
X103133333Y-74785714D01*
X103171428Y-74709523D01*
X103171428Y-74480952D01*
X103133333Y-74404761D01*
X103095238Y-74366666D01*
X103019047Y-74328571D01*
X102904761Y-74328571D01*
X102828571Y-74366666D01*
X102790476Y-74404761D01*
X102752380Y-74480952D01*
X102752380Y-74709523D01*
X102790476Y-74785714D01*
X102828571Y-74823809D01*
X102904761Y-74861904D01*
X103019047Y-74861904D01*
X101495238Y-74823809D02*
X101571428Y-74861904D01*
X101723809Y-74861904D01*
X101800000Y-74823809D01*
X101838095Y-74747619D01*
X101838095Y-74442857D01*
X101800000Y-74366666D01*
X101723809Y-74328571D01*
X101571428Y-74328571D01*
X101495238Y-74366666D01*
X101457142Y-74442857D01*
X101457142Y-74519047D01*
X101838095Y-74595238D01*
X101114285Y-74328571D02*
X101114285Y-74861904D01*
X101114285Y-74404761D02*
X101076190Y-74366666D01*
X101000000Y-74328571D01*
X100885714Y-74328571D01*
X100809523Y-74366666D01*
X100771428Y-74442857D01*
X100771428Y-74861904D01*
X100047619Y-74861904D02*
X100047619Y-74442857D01*
X100085714Y-74366666D01*
X100161904Y-74328571D01*
X100314285Y-74328571D01*
X100390476Y-74366666D01*
X100047619Y-74823809D02*
X100123809Y-74861904D01*
X100314285Y-74861904D01*
X100390476Y-74823809D01*
X100428571Y-74747619D01*
X100428571Y-74671428D01*
X100390476Y-74595238D01*
X100314285Y-74557142D01*
X100123809Y-74557142D01*
X100047619Y-74519047D01*
X99666666Y-74861904D02*
X99666666Y-74061904D01*
X99666666Y-74366666D02*
X99590476Y-74328571D01*
X99438095Y-74328571D01*
X99361904Y-74366666D01*
X99323809Y-74404761D01*
X99285714Y-74480952D01*
X99285714Y-74709523D01*
X99323809Y-74785714D01*
X99361904Y-74823809D01*
X99438095Y-74861904D01*
X99590476Y-74861904D01*
X99666666Y-74823809D01*
X98828571Y-74861904D02*
X98904761Y-74823809D01*
X98942857Y-74747619D01*
X98942857Y-74061904D01*
X98219047Y-74823809D02*
X98295238Y-74861904D01*
X98447619Y-74861904D01*
X98523809Y-74823809D01*
X98561904Y-74747619D01*
X98561904Y-74442857D01*
X98523809Y-74366666D01*
X98447619Y-74328571D01*
X98295238Y-74328571D01*
X98219047Y-74366666D01*
X98180952Y-74442857D01*
X98180952Y-74519047D01*
X98561904Y-74595238D01*
X97228571Y-74861904D02*
X97228571Y-74328571D01*
X97228571Y-74061904D02*
X97266666Y-74100000D01*
X97228571Y-74138095D01*
X97190476Y-74100000D01*
X97228571Y-74061904D01*
X97228571Y-74138095D01*
X96847619Y-74328571D02*
X96847619Y-74861904D01*
X96847619Y-74404761D02*
X96809523Y-74366666D01*
X96733333Y-74328571D01*
X96619047Y-74328571D01*
X96542857Y-74366666D01*
X96504761Y-74442857D01*
X96504761Y-74861904D01*
X96238095Y-74328571D02*
X95933333Y-74328571D01*
X96123809Y-74061904D02*
X96123809Y-74747619D01*
X96085714Y-74823809D01*
X96009523Y-74861904D01*
X95933333Y-74861904D01*
X95361904Y-74823809D02*
X95438095Y-74861904D01*
X95590476Y-74861904D01*
X95666666Y-74823809D01*
X95704761Y-74747619D01*
X95704761Y-74442857D01*
X95666666Y-74366666D01*
X95590476Y-74328571D01*
X95438095Y-74328571D01*
X95361904Y-74366666D01*
X95323809Y-74442857D01*
X95323809Y-74519047D01*
X95704761Y-74595238D01*
X94980952Y-74861904D02*
X94980952Y-74328571D01*
X94980952Y-74480952D02*
X94942857Y-74404761D01*
X94904761Y-74366666D01*
X94828571Y-74328571D01*
X94752380Y-74328571D01*
X94485714Y-74861904D02*
X94485714Y-74328571D01*
X94485714Y-74480952D02*
X94447619Y-74404761D01*
X94409523Y-74366666D01*
X94333333Y-74328571D01*
X94257142Y-74328571D01*
X93647619Y-74328571D02*
X93647619Y-74861904D01*
X93990476Y-74328571D02*
X93990476Y-74747619D01*
X93952380Y-74823809D01*
X93876190Y-74861904D01*
X93761904Y-74861904D01*
X93685714Y-74823809D01*
X93647619Y-74785714D01*
X93266666Y-74328571D02*
X93266666Y-75128571D01*
X93266666Y-74366666D02*
X93190476Y-74328571D01*
X93038095Y-74328571D01*
X92961904Y-74366666D01*
X92923809Y-74404761D01*
X92885714Y-74480952D01*
X92885714Y-74709523D01*
X92923809Y-74785714D01*
X92961904Y-74823809D01*
X93038095Y-74861904D01*
X93190476Y-74861904D01*
X93266666Y-74823809D01*
X92657142Y-74328571D02*
X92352380Y-74328571D01*
X92542857Y-74061904D02*
X92542857Y-74747619D01*
X92504761Y-74823809D01*
X92428571Y-74861904D01*
X92352380Y-74861904D01*
X111933333Y-75628571D02*
X111628571Y-75628571D01*
X111819047Y-76161904D02*
X111819047Y-75476190D01*
X111780952Y-75400000D01*
X111704761Y-75361904D01*
X111628571Y-75361904D01*
X111361904Y-76161904D02*
X111361904Y-75628571D01*
X111361904Y-75780952D02*
X111323809Y-75704761D01*
X111285714Y-75666666D01*
X111209523Y-75628571D01*
X111133333Y-75628571D01*
X110752380Y-76161904D02*
X110828571Y-76123809D01*
X110866666Y-76085714D01*
X110904761Y-76009523D01*
X110904761Y-75780952D01*
X110866666Y-75704761D01*
X110828571Y-75666666D01*
X110752380Y-75628571D01*
X110638095Y-75628571D01*
X110561904Y-75666666D01*
X110523809Y-75704761D01*
X110485714Y-75780952D01*
X110485714Y-76009523D01*
X110523809Y-76085714D01*
X110561904Y-76123809D01*
X110638095Y-76161904D01*
X110752380Y-76161904D01*
X110142857Y-76161904D02*
X110142857Y-75628571D01*
X110142857Y-75704761D02*
X110104761Y-75666666D01*
X110028571Y-75628571D01*
X109914285Y-75628571D01*
X109838095Y-75666666D01*
X109800000Y-75742857D01*
X109800000Y-76161904D01*
X109800000Y-75742857D02*
X109761904Y-75666666D01*
X109685714Y-75628571D01*
X109571428Y-75628571D01*
X109495238Y-75666666D01*
X109457142Y-75742857D01*
X109457142Y-76161904D01*
X108466666Y-76161904D02*
X108466666Y-75361904D01*
X108466666Y-75666666D02*
X108390476Y-75628571D01*
X108238095Y-75628571D01*
X108161904Y-75666666D01*
X108123809Y-75704761D01*
X108085714Y-75780952D01*
X108085714Y-76009523D01*
X108123809Y-76085714D01*
X108161904Y-76123809D01*
X108238095Y-76161904D01*
X108390476Y-76161904D01*
X108466666Y-76123809D01*
X107400000Y-76161904D02*
X107400000Y-75742857D01*
X107438095Y-75666666D01*
X107514285Y-75628571D01*
X107666666Y-75628571D01*
X107742857Y-75666666D01*
X107400000Y-76123809D02*
X107476190Y-76161904D01*
X107666666Y-76161904D01*
X107742857Y-76123809D01*
X107780952Y-76047619D01*
X107780952Y-75971428D01*
X107742857Y-75895238D01*
X107666666Y-75857142D01*
X107476190Y-75857142D01*
X107400000Y-75819047D01*
X107133333Y-75628571D02*
X106828571Y-75628571D01*
X107019047Y-75361904D02*
X107019047Y-76047619D01*
X106980952Y-76123809D01*
X106904761Y-76161904D01*
X106828571Y-76161904D01*
X106676190Y-75628571D02*
X106371428Y-75628571D01*
X106561904Y-75361904D02*
X106561904Y-76047619D01*
X106523809Y-76123809D01*
X106447619Y-76161904D01*
X106371428Y-76161904D01*
X105800000Y-76123809D02*
X105876190Y-76161904D01*
X106028571Y-76161904D01*
X106104761Y-76123809D01*
X106142857Y-76047619D01*
X106142857Y-75742857D01*
X106104761Y-75666666D01*
X106028571Y-75628571D01*
X105876190Y-75628571D01*
X105800000Y-75666666D01*
X105761904Y-75742857D01*
X105761904Y-75819047D01*
X106142857Y-75895238D01*
X105419047Y-76161904D02*
X105419047Y-75628571D01*
X105419047Y-75780952D02*
X105380952Y-75704761D01*
X105342857Y-75666666D01*
X105266666Y-75628571D01*
X105190476Y-75628571D01*
X105000000Y-75628571D02*
X104809523Y-76161904D01*
X104619047Y-75628571D02*
X104809523Y-76161904D01*
X104885714Y-76352380D01*
X104923809Y-76390476D01*
X105000000Y-76428571D01*
X103704761Y-76161904D02*
X103704761Y-75628571D01*
X103704761Y-75704761D02*
X103666666Y-75666666D01*
X103590476Y-75628571D01*
X103476190Y-75628571D01*
X103400000Y-75666666D01*
X103361904Y-75742857D01*
X103361904Y-76161904D01*
X103361904Y-75742857D02*
X103323809Y-75666666D01*
X103247619Y-75628571D01*
X103133333Y-75628571D01*
X103057142Y-75666666D01*
X103019047Y-75742857D01*
X103019047Y-76161904D01*
X102295238Y-76161904D02*
X102295238Y-75742857D01*
X102333333Y-75666666D01*
X102409523Y-75628571D01*
X102561904Y-75628571D01*
X102638095Y-75666666D01*
X102295238Y-76123809D02*
X102371428Y-76161904D01*
X102561904Y-76161904D01*
X102638095Y-76123809D01*
X102676190Y-76047619D01*
X102676190Y-75971428D01*
X102638095Y-75895238D01*
X102561904Y-75857142D01*
X102371428Y-75857142D01*
X102295238Y-75819047D01*
X101914285Y-75628571D02*
X101914285Y-76161904D01*
X101914285Y-75704761D02*
X101876190Y-75666666D01*
X101800000Y-75628571D01*
X101685714Y-75628571D01*
X101609523Y-75666666D01*
X101571428Y-75742857D01*
X101571428Y-76161904D01*
X100847619Y-76161904D02*
X100847619Y-75742857D01*
X100885714Y-75666666D01*
X100961904Y-75628571D01*
X101114285Y-75628571D01*
X101190476Y-75666666D01*
X100847619Y-76123809D02*
X100923809Y-76161904D01*
X101114285Y-76161904D01*
X101190476Y-76123809D01*
X101228571Y-76047619D01*
X101228571Y-75971428D01*
X101190476Y-75895238D01*
X101114285Y-75857142D01*
X100923809Y-75857142D01*
X100847619Y-75819047D01*
X100123809Y-75628571D02*
X100123809Y-76276190D01*
X100161904Y-76352380D01*
X100200000Y-76390476D01*
X100276190Y-76428571D01*
X100390476Y-76428571D01*
X100466666Y-76390476D01*
X100123809Y-76123809D02*
X100200000Y-76161904D01*
X100352380Y-76161904D01*
X100428571Y-76123809D01*
X100466666Y-76085714D01*
X100504761Y-76009523D01*
X100504761Y-75780952D01*
X100466666Y-75704761D01*
X100428571Y-75666666D01*
X100352380Y-75628571D01*
X100200000Y-75628571D01*
X100123809Y-75666666D01*
X99438095Y-76123809D02*
X99514285Y-76161904D01*
X99666666Y-76161904D01*
X99742857Y-76123809D01*
X99780952Y-76047619D01*
X99780952Y-75742857D01*
X99742857Y-75666666D01*
X99666666Y-75628571D01*
X99514285Y-75628571D01*
X99438095Y-75666666D01*
X99400000Y-75742857D01*
X99400000Y-75819047D01*
X99780952Y-75895238D01*
X99057142Y-76161904D02*
X99057142Y-75628571D01*
X99057142Y-75704761D02*
X99019047Y-75666666D01*
X98942857Y-75628571D01*
X98828571Y-75628571D01*
X98752380Y-75666666D01*
X98714285Y-75742857D01*
X98714285Y-76161904D01*
X98714285Y-75742857D02*
X98676190Y-75666666D01*
X98600000Y-75628571D01*
X98485714Y-75628571D01*
X98409523Y-75666666D01*
X98371428Y-75742857D01*
X98371428Y-76161904D01*
X97685714Y-76123809D02*
X97761904Y-76161904D01*
X97914285Y-76161904D01*
X97990476Y-76123809D01*
X98028571Y-76047619D01*
X98028571Y-75742857D01*
X97990476Y-75666666D01*
X97914285Y-75628571D01*
X97761904Y-75628571D01*
X97685714Y-75666666D01*
X97647619Y-75742857D01*
X97647619Y-75819047D01*
X98028571Y-75895238D01*
X97304761Y-75628571D02*
X97304761Y-76161904D01*
X97304761Y-75704761D02*
X97266666Y-75666666D01*
X97190476Y-75628571D01*
X97076190Y-75628571D01*
X97000000Y-75666666D01*
X96961904Y-75742857D01*
X96961904Y-76161904D01*
X96695238Y-75628571D02*
X96390476Y-75628571D01*
X96580952Y-75361904D02*
X96580952Y-76047619D01*
X96542857Y-76123809D01*
X96466666Y-76161904D01*
X96390476Y-76161904D01*
X95171428Y-76123809D02*
X95247619Y-76161904D01*
X95400000Y-76161904D01*
X95476190Y-76123809D01*
X95514285Y-76085714D01*
X95552380Y-76009523D01*
X95552380Y-75780952D01*
X95514285Y-75704761D01*
X95476190Y-75666666D01*
X95400000Y-75628571D01*
X95247619Y-75628571D01*
X95171428Y-75666666D01*
X94828571Y-76161904D02*
X94828571Y-75361904D01*
X94485714Y-76161904D02*
X94485714Y-75742857D01*
X94523809Y-75666666D01*
X94600000Y-75628571D01*
X94714285Y-75628571D01*
X94790476Y-75666666D01*
X94828571Y-75704761D01*
X94104761Y-76161904D02*
X94104761Y-75628571D01*
X94104761Y-75361904D02*
X94142857Y-75400000D01*
X94104761Y-75438095D01*
X94066666Y-75400000D01*
X94104761Y-75361904D01*
X94104761Y-75438095D01*
X93723809Y-75628571D02*
X93723809Y-76428571D01*
X93723809Y-75666666D02*
X93647619Y-75628571D01*
X93495238Y-75628571D01*
X93419047Y-75666666D01*
X93380952Y-75704761D01*
X93342857Y-75780952D01*
X93342857Y-76009523D01*
X93380952Y-76085714D01*
X93419047Y-76123809D01*
X93495238Y-76161904D01*
X93647619Y-76161904D01*
X93723809Y-76123809D01*
D11*
X102775000Y-89975000D02*
X102775000Y-90250000D01*
X109700000Y-89975000D02*
X102775000Y-89975000D01*
X109700000Y-94725000D02*
X109700000Y-89975000D01*
X119875000Y-94725000D02*
X109700000Y-94725000D01*
X119875000Y-99350000D02*
X119875000Y-94725000D01*
X102775000Y-99350000D02*
X119875000Y-99350000D01*
X102775000Y-90250000D02*
X102775000Y-99350000D01*
D12*
X115076190Y-95786904D02*
X115076190Y-94986904D01*
X114771428Y-94986904D01*
X114695238Y-95025000D01*
X114657142Y-95063095D01*
X114619047Y-95139285D01*
X114619047Y-95253571D01*
X114657142Y-95329761D01*
X114695238Y-95367857D01*
X114771428Y-95405952D01*
X115076190Y-95405952D01*
X114161904Y-95786904D02*
X114238095Y-95748809D01*
X114276190Y-95672619D01*
X114276190Y-94986904D01*
X113514285Y-95786904D02*
X113514285Y-95367857D01*
X113552380Y-95291666D01*
X113628571Y-95253571D01*
X113780952Y-95253571D01*
X113857142Y-95291666D01*
X113514285Y-95748809D02*
X113590476Y-95786904D01*
X113780952Y-95786904D01*
X113857142Y-95748809D01*
X113895238Y-95672619D01*
X113895238Y-95596428D01*
X113857142Y-95520238D01*
X113780952Y-95482142D01*
X113590476Y-95482142D01*
X113514285Y-95444047D01*
X112790476Y-95748809D02*
X112866666Y-95786904D01*
X113019047Y-95786904D01*
X113095238Y-95748809D01*
X113133333Y-95710714D01*
X113171428Y-95634523D01*
X113171428Y-95405952D01*
X113133333Y-95329761D01*
X113095238Y-95291666D01*
X113019047Y-95253571D01*
X112866666Y-95253571D01*
X112790476Y-95291666D01*
X112142857Y-95748809D02*
X112219047Y-95786904D01*
X112371428Y-95786904D01*
X112447619Y-95748809D01*
X112485714Y-95672619D01*
X112485714Y-95367857D01*
X112447619Y-95291666D01*
X112371428Y-95253571D01*
X112219047Y-95253571D01*
X112142857Y-95291666D01*
X112104761Y-95367857D01*
X112104761Y-95444047D01*
X112485714Y-95520238D01*
X110809523Y-95786904D02*
X110809523Y-95367857D01*
X110847619Y-95291666D01*
X110923809Y-95253571D01*
X111076190Y-95253571D01*
X111152380Y-95291666D01*
X110809523Y-95748809D02*
X110885714Y-95786904D01*
X111076190Y-95786904D01*
X111152380Y-95748809D01*
X111190476Y-95672619D01*
X111190476Y-95596428D01*
X111152380Y-95520238D01*
X111076190Y-95482142D01*
X110885714Y-95482142D01*
X110809523Y-95444047D01*
X109857142Y-95748809D02*
X109780952Y-95786904D01*
X109628571Y-95786904D01*
X109552380Y-95748809D01*
X109514285Y-95672619D01*
X109514285Y-95634523D01*
X109552380Y-95558333D01*
X109628571Y-95520238D01*
X109742857Y-95520238D01*
X109819047Y-95482142D01*
X109857142Y-95405952D01*
X109857142Y-95367857D01*
X109819047Y-95291666D01*
X109742857Y-95253571D01*
X109628571Y-95253571D01*
X109552380Y-95291666D01*
X109171428Y-95786904D02*
X109171428Y-94986904D01*
X108828571Y-95786904D02*
X108828571Y-95367857D01*
X108866666Y-95291666D01*
X108942857Y-95253571D01*
X109057142Y-95253571D01*
X109133333Y-95291666D01*
X109171428Y-95329761D01*
X108104761Y-95253571D02*
X108104761Y-95786904D01*
X108447619Y-95253571D02*
X108447619Y-95672619D01*
X108409523Y-95748809D01*
X108333333Y-95786904D01*
X108219047Y-95786904D01*
X108142857Y-95748809D01*
X108104761Y-95710714D01*
X107723809Y-95253571D02*
X107723809Y-95786904D01*
X107723809Y-95329761D02*
X107685714Y-95291666D01*
X107609523Y-95253571D01*
X107495238Y-95253571D01*
X107419047Y-95291666D01*
X107380952Y-95367857D01*
X107380952Y-95786904D01*
X107114285Y-95253571D02*
X106809523Y-95253571D01*
X107000000Y-94986904D02*
X107000000Y-95672619D01*
X106961904Y-95748809D01*
X106885714Y-95786904D01*
X106809523Y-95786904D01*
X118485714Y-97086904D02*
X118561904Y-97048809D01*
X118600000Y-97010714D01*
X118638095Y-96934523D01*
X118638095Y-96705952D01*
X118600000Y-96629761D01*
X118561904Y-96591666D01*
X118485714Y-96553571D01*
X118371428Y-96553571D01*
X118295238Y-96591666D01*
X118257142Y-96629761D01*
X118219047Y-96705952D01*
X118219047Y-96934523D01*
X118257142Y-97010714D01*
X118295238Y-97048809D01*
X118371428Y-97086904D01*
X118485714Y-97086904D01*
X117876190Y-97086904D02*
X117876190Y-96553571D01*
X117876190Y-96705952D02*
X117838095Y-96629761D01*
X117800000Y-96591666D01*
X117723809Y-96553571D01*
X117647619Y-96553571D01*
X116428571Y-97086904D02*
X116428571Y-96667857D01*
X116466666Y-96591666D01*
X116542857Y-96553571D01*
X116695238Y-96553571D01*
X116771428Y-96591666D01*
X116428571Y-97048809D02*
X116504761Y-97086904D01*
X116695238Y-97086904D01*
X116771428Y-97048809D01*
X116809523Y-96972619D01*
X116809523Y-96896428D01*
X116771428Y-96820238D01*
X116695238Y-96782142D01*
X116504761Y-96782142D01*
X116428571Y-96744047D01*
X115095238Y-97086904D02*
X115095238Y-96286904D01*
X115095238Y-97048809D02*
X115171428Y-97086904D01*
X115323809Y-97086904D01*
X115400000Y-97048809D01*
X115438095Y-97010714D01*
X115476190Y-96934523D01*
X115476190Y-96705952D01*
X115438095Y-96629761D01*
X115400000Y-96591666D01*
X115323809Y-96553571D01*
X115171428Y-96553571D01*
X115095238Y-96591666D01*
X114714285Y-97086904D02*
X114714285Y-96553571D01*
X114714285Y-96286904D02*
X114752380Y-96325000D01*
X114714285Y-96363095D01*
X114676190Y-96325000D01*
X114714285Y-96286904D01*
X114714285Y-96363095D01*
X114219047Y-97086904D02*
X114295238Y-97048809D01*
X114333333Y-97010714D01*
X114371428Y-96934523D01*
X114371428Y-96705952D01*
X114333333Y-96629761D01*
X114295238Y-96591666D01*
X114219047Y-96553571D01*
X114104761Y-96553571D01*
X114028571Y-96591666D01*
X113990476Y-96629761D01*
X113952380Y-96705952D01*
X113952380Y-96934523D01*
X113990476Y-97010714D01*
X114028571Y-97048809D01*
X114104761Y-97086904D01*
X114219047Y-97086904D01*
X113266666Y-97086904D02*
X113266666Y-96286904D01*
X113266666Y-97048809D02*
X113342857Y-97086904D01*
X113495238Y-97086904D01*
X113571428Y-97048809D01*
X113609523Y-97010714D01*
X113647619Y-96934523D01*
X113647619Y-96705952D01*
X113609523Y-96629761D01*
X113571428Y-96591666D01*
X113495238Y-96553571D01*
X113342857Y-96553571D01*
X113266666Y-96591666D01*
X112580952Y-97048809D02*
X112657142Y-97086904D01*
X112809523Y-97086904D01*
X112885714Y-97048809D01*
X112923809Y-96972619D01*
X112923809Y-96667857D01*
X112885714Y-96591666D01*
X112809523Y-96553571D01*
X112657142Y-96553571D01*
X112580952Y-96591666D01*
X112542857Y-96667857D01*
X112542857Y-96744047D01*
X112923809Y-96820238D01*
X111704761Y-96553571D02*
X111400000Y-96553571D01*
X111590476Y-96286904D02*
X111590476Y-96972619D01*
X111552380Y-97048809D01*
X111476190Y-97086904D01*
X111400000Y-97086904D01*
X111019047Y-97086904D02*
X111095238Y-97048809D01*
X111133333Y-97010714D01*
X111171428Y-96934523D01*
X111171428Y-96705952D01*
X111133333Y-96629761D01*
X111095238Y-96591666D01*
X111019047Y-96553571D01*
X110904761Y-96553571D01*
X110828571Y-96591666D01*
X110790476Y-96629761D01*
X110752380Y-96705952D01*
X110752380Y-96934523D01*
X110790476Y-97010714D01*
X110828571Y-97048809D01*
X110904761Y-97086904D01*
X111019047Y-97086904D01*
X109495238Y-97048809D02*
X109571428Y-97086904D01*
X109723809Y-97086904D01*
X109800000Y-97048809D01*
X109838095Y-96972619D01*
X109838095Y-96667857D01*
X109800000Y-96591666D01*
X109723809Y-96553571D01*
X109571428Y-96553571D01*
X109495238Y-96591666D01*
X109457142Y-96667857D01*
X109457142Y-96744047D01*
X109838095Y-96820238D01*
X109114285Y-96553571D02*
X109114285Y-97086904D01*
X109114285Y-96629761D02*
X109076190Y-96591666D01*
X109000000Y-96553571D01*
X108885714Y-96553571D01*
X108809523Y-96591666D01*
X108771428Y-96667857D01*
X108771428Y-97086904D01*
X108047619Y-97086904D02*
X108047619Y-96667857D01*
X108085714Y-96591666D01*
X108161904Y-96553571D01*
X108314285Y-96553571D01*
X108390476Y-96591666D01*
X108047619Y-97048809D02*
X108123809Y-97086904D01*
X108314285Y-97086904D01*
X108390476Y-97048809D01*
X108428571Y-96972619D01*
X108428571Y-96896428D01*
X108390476Y-96820238D01*
X108314285Y-96782142D01*
X108123809Y-96782142D01*
X108047619Y-96744047D01*
X107666666Y-97086904D02*
X107666666Y-96286904D01*
X107666666Y-96591666D02*
X107590476Y-96553571D01*
X107438095Y-96553571D01*
X107361904Y-96591666D01*
X107323809Y-96629761D01*
X107285714Y-96705952D01*
X107285714Y-96934523D01*
X107323809Y-97010714D01*
X107361904Y-97048809D01*
X107438095Y-97086904D01*
X107590476Y-97086904D01*
X107666666Y-97048809D01*
X106828571Y-97086904D02*
X106904761Y-97048809D01*
X106942857Y-96972619D01*
X106942857Y-96286904D01*
X106219047Y-97048809D02*
X106295238Y-97086904D01*
X106447619Y-97086904D01*
X106523809Y-97048809D01*
X106561904Y-96972619D01*
X106561904Y-96667857D01*
X106523809Y-96591666D01*
X106447619Y-96553571D01*
X106295238Y-96553571D01*
X106219047Y-96591666D01*
X106180952Y-96667857D01*
X106180952Y-96744047D01*
X106561904Y-96820238D01*
X104771428Y-97086904D02*
X105038095Y-96705952D01*
X105228571Y-97086904D02*
X105228571Y-96286904D01*
X104923809Y-96286904D01*
X104847619Y-96325000D01*
X104809523Y-96363095D01*
X104771428Y-96439285D01*
X104771428Y-96553571D01*
X104809523Y-96629761D01*
X104847619Y-96667857D01*
X104923809Y-96705952D01*
X105228571Y-96705952D01*
X104542857Y-96286904D02*
X104085714Y-96286904D01*
X104314285Y-97086904D02*
X104314285Y-96286904D01*
X103361904Y-97010714D02*
X103400000Y-97048809D01*
X103514285Y-97086904D01*
X103590476Y-97086904D01*
X103704761Y-97048809D01*
X103780952Y-96972619D01*
X103819047Y-96896428D01*
X103857142Y-96744047D01*
X103857142Y-96629761D01*
X103819047Y-96477380D01*
X103780952Y-96401190D01*
X103704761Y-96325000D01*
X103590476Y-96286904D01*
X103514285Y-96286904D01*
X103400000Y-96325000D01*
X103361904Y-96363095D01*
X115457142Y-98691666D02*
X115495238Y-98653571D01*
X115571428Y-98539285D01*
X115609523Y-98463095D01*
X115647619Y-98348809D01*
X115685714Y-98158333D01*
X115685714Y-98005952D01*
X115647619Y-97815476D01*
X115609523Y-97701190D01*
X115571428Y-97625000D01*
X115495238Y-97510714D01*
X115457142Y-97472619D01*
X115190476Y-98348809D02*
X115114285Y-98386904D01*
X114961904Y-98386904D01*
X114885714Y-98348809D01*
X114847619Y-98272619D01*
X114847619Y-98234523D01*
X114885714Y-98158333D01*
X114961904Y-98120238D01*
X115076190Y-98120238D01*
X115152380Y-98082142D01*
X115190476Y-98005952D01*
X115190476Y-97967857D01*
X115152380Y-97891666D01*
X115076190Y-97853571D01*
X114961904Y-97853571D01*
X114885714Y-97891666D01*
X114200000Y-98348809D02*
X114276190Y-98386904D01*
X114428571Y-98386904D01*
X114504761Y-98348809D01*
X114542857Y-98272619D01*
X114542857Y-97967857D01*
X114504761Y-97891666D01*
X114428571Y-97853571D01*
X114276190Y-97853571D01*
X114200000Y-97891666D01*
X114161904Y-97967857D01*
X114161904Y-98044047D01*
X114542857Y-98120238D01*
X113514285Y-98348809D02*
X113590476Y-98386904D01*
X113742857Y-98386904D01*
X113819047Y-98348809D01*
X113857142Y-98272619D01*
X113857142Y-97967857D01*
X113819047Y-97891666D01*
X113742857Y-97853571D01*
X113590476Y-97853571D01*
X113514285Y-97891666D01*
X113476190Y-97967857D01*
X113476190Y-98044047D01*
X113857142Y-98120238D01*
X112066666Y-98386904D02*
X112333333Y-98005952D01*
X112523809Y-98386904D02*
X112523809Y-97586904D01*
X112219047Y-97586904D01*
X112142857Y-97625000D01*
X112104761Y-97663095D01*
X112066666Y-97739285D01*
X112066666Y-97853571D01*
X112104761Y-97929761D01*
X112142857Y-97967857D01*
X112219047Y-98005952D01*
X112523809Y-98005952D01*
X111838095Y-97586904D02*
X111380952Y-97586904D01*
X111609523Y-98386904D02*
X111609523Y-97586904D01*
X110657142Y-98310714D02*
X110695238Y-98348809D01*
X110809523Y-98386904D01*
X110885714Y-98386904D01*
X111000000Y-98348809D01*
X111076190Y-98272619D01*
X111114285Y-98196428D01*
X111152380Y-98044047D01*
X111152380Y-97929761D01*
X111114285Y-97777380D01*
X111076190Y-97701190D01*
X111000000Y-97625000D01*
X110885714Y-97586904D01*
X110809523Y-97586904D01*
X110695238Y-97625000D01*
X110657142Y-97663095D01*
X109704761Y-97853571D02*
X109704761Y-98386904D01*
X109704761Y-97929761D02*
X109666666Y-97891666D01*
X109590476Y-97853571D01*
X109476190Y-97853571D01*
X109400000Y-97891666D01*
X109361904Y-97967857D01*
X109361904Y-98386904D01*
X108866666Y-98386904D02*
X108942857Y-98348809D01*
X108980952Y-98310714D01*
X109019047Y-98234523D01*
X109019047Y-98005952D01*
X108980952Y-97929761D01*
X108942857Y-97891666D01*
X108866666Y-97853571D01*
X108752380Y-97853571D01*
X108676190Y-97891666D01*
X108638095Y-97929761D01*
X108600000Y-98005952D01*
X108600000Y-98234523D01*
X108638095Y-98310714D01*
X108676190Y-98348809D01*
X108752380Y-98386904D01*
X108866666Y-98386904D01*
X108371428Y-97853571D02*
X108066666Y-97853571D01*
X108257142Y-97586904D02*
X108257142Y-98272619D01*
X108219047Y-98348809D01*
X108142857Y-98386904D01*
X108066666Y-98386904D01*
X107495238Y-98348809D02*
X107571428Y-98386904D01*
X107723809Y-98386904D01*
X107800000Y-98348809D01*
X107838095Y-98272619D01*
X107838095Y-97967857D01*
X107800000Y-97891666D01*
X107723809Y-97853571D01*
X107571428Y-97853571D01*
X107495238Y-97891666D01*
X107457142Y-97967857D01*
X107457142Y-98044047D01*
X107838095Y-98120238D01*
X107152380Y-98348809D02*
X107076190Y-98386904D01*
X106923809Y-98386904D01*
X106847619Y-98348809D01*
X106809523Y-98272619D01*
X106809523Y-98234523D01*
X106847619Y-98158333D01*
X106923809Y-98120238D01*
X107038095Y-98120238D01*
X107114285Y-98082142D01*
X107152380Y-98005952D01*
X107152380Y-97967857D01*
X107114285Y-97891666D01*
X107038095Y-97853571D01*
X106923809Y-97853571D01*
X106847619Y-97891666D01*
X106542857Y-98691666D02*
X106504761Y-98653571D01*
X106428571Y-98539285D01*
X106390476Y-98463095D01*
X106352380Y-98348809D01*
X106314285Y-98158333D01*
X106314285Y-98005952D01*
X106352380Y-97815476D01*
X106390476Y-97701190D01*
X106428571Y-97625000D01*
X106504761Y-97510714D01*
X106542857Y-97472619D01*
D13*
X99180000Y-90650000D02*
X99180000Y-89350000D01*
X96220000Y-89000000D02*
X99140000Y-89000000D01*
X96220000Y-88900000D02*
X96220000Y-89000000D01*
X99140000Y-88900000D02*
X96220000Y-88900000D01*
X99140000Y-89000000D02*
X99140000Y-88900000D01*
X104680000Y-83330000D02*
X103380000Y-83330000D01*
X103030000Y-86290000D02*
X103030000Y-83370000D01*
X102930000Y-86290000D02*
X103030000Y-86290000D01*
X102930000Y-83370000D02*
X102930000Y-86290000D01*
X103030000Y-83370000D02*
X102930000Y-83370000D01*
X71860000Y-81620000D02*
X71860000Y-80320000D01*
X68900000Y-79970000D02*
X71820000Y-79970000D01*
X68900000Y-79870000D02*
X68900000Y-79970000D01*
X71820000Y-79870000D02*
X68900000Y-79870000D01*
X71820000Y-79970000D02*
X71820000Y-79870000D01*
D11*
X86722936Y-74565000D02*
X87177064Y-74565000D01*
X86722936Y-76035000D02*
X87177064Y-76035000D01*
X122510000Y-84250000D02*
X124325000Y-84250000D01*
X122510000Y-83995000D02*
X122510000Y-84250000D01*
X118650000Y-83995000D02*
X122510000Y-83995000D01*
X114790000Y-83995000D02*
X114790000Y-84250000D01*
X118650000Y-83995000D02*
X114790000Y-83995000D01*
X122510000Y-94515000D02*
X122510000Y-94260000D01*
X118650000Y-94515000D02*
X122510000Y-94515000D01*
X114790000Y-94515000D02*
X114790000Y-94260000D01*
X118650000Y-94515000D02*
X114790000Y-94515000D01*
X71855000Y-92825000D02*
X71855000Y-96275000D01*
X71855000Y-92825000D02*
X71855000Y-90875000D01*
X66735000Y-92825000D02*
X66735000Y-94775000D01*
X66735000Y-92825000D02*
X66735000Y-90875000D01*
X119125000Y-124880000D02*
X119125000Y-124880000D01*
X118325000Y-124880000D02*
X119125000Y-124880000D01*
X118025000Y-124880000D02*
X118025000Y-124880000D01*
X117525000Y-124880000D02*
X118025000Y-124880000D01*
X119425000Y-124880000D02*
X119425000Y-124880000D01*
X119925000Y-124880000D02*
X119425000Y-124880000D01*
X120725000Y-123580000D02*
X120725000Y-123580000D01*
X120725000Y-124080000D02*
X120725000Y-123580000D01*
X116725000Y-123580000D02*
X116725000Y-123580000D01*
X116725000Y-124080000D02*
X116725000Y-123580000D01*
X116725000Y-124380000D02*
X116725000Y-124380000D01*
X116725000Y-124880000D02*
X116725000Y-124380000D01*
X117225000Y-124880000D02*
X117225000Y-124880000D01*
X116725000Y-124880000D02*
X117225000Y-124880000D01*
X120225000Y-124880000D02*
X120225000Y-124880000D01*
X120725000Y-124880000D02*
X120225000Y-124880000D01*
X120725000Y-124380000D02*
X120725000Y-124380000D01*
X120725000Y-124880000D02*
X120725000Y-124380000D01*
X123325000Y-122980000D02*
X123325000Y-122980000D01*
X121625000Y-122980000D02*
X123325000Y-122980000D01*
X121625000Y-123280000D02*
X121625000Y-122980000D01*
X120825000Y-123280000D02*
X121625000Y-123280000D01*
X120825000Y-122980000D02*
X120825000Y-123280000D01*
X119125000Y-122980000D02*
X120825000Y-122980000D01*
X119125000Y-123280000D02*
X119125000Y-122980000D01*
X118325000Y-123280000D02*
X119125000Y-123280000D01*
X118325000Y-122980000D02*
X118325000Y-123280000D01*
X116625000Y-122980000D02*
X118325000Y-122980000D01*
X116625000Y-123280000D02*
X116625000Y-122980000D01*
X115825000Y-123280000D02*
X116625000Y-123280000D01*
X115825000Y-122980000D02*
X115825000Y-123280000D01*
X114125000Y-122980000D02*
X115825000Y-122980000D01*
X120525000Y-119180000D02*
X120525000Y-119180000D01*
X119425000Y-119180000D02*
X120525000Y-119180000D01*
X118025000Y-119180000D02*
X118025000Y-119180000D01*
X116925000Y-119180000D02*
X118025000Y-119180000D01*
X123325000Y-119180000D02*
X121925000Y-119180000D01*
X123325000Y-122980000D02*
X123325000Y-119180000D01*
X114125000Y-119180000D02*
X114125000Y-122980000D01*
X115525000Y-119180000D02*
X114125000Y-119180000D01*
X108495000Y-92752936D02*
X108495000Y-93207064D01*
X107025000Y-92752936D02*
X107025000Y-93207064D01*
X90585000Y-76072936D02*
X90585000Y-76527064D01*
X89115000Y-76072936D02*
X89115000Y-76527064D01*
X114772936Y-81765000D02*
X115227064Y-81765000D01*
X114772936Y-83235000D02*
X115227064Y-83235000D01*
X119172936Y-81765000D02*
X119627064Y-81765000D01*
X119172936Y-83235000D02*
X119627064Y-83235000D01*
X91577064Y-86385000D02*
X91122936Y-86385000D01*
X91577064Y-84915000D02*
X91122936Y-84915000D01*
X80172936Y-82715000D02*
X80627064Y-82715000D01*
X80172936Y-84185000D02*
X80627064Y-84185000D01*
X99277064Y-86385000D02*
X98822936Y-86385000D01*
X99277064Y-84915000D02*
X98822936Y-84915000D01*
X73872936Y-79465000D02*
X74327064Y-79465000D01*
X73872936Y-80935000D02*
X74327064Y-80935000D01*
X70627064Y-83935000D02*
X70172936Y-83935000D01*
X70627064Y-82465000D02*
X70172936Y-82465000D01*
X101172936Y-87715000D02*
X101627064Y-87715000D01*
X101172936Y-89185000D02*
X101627064Y-89185000D01*
X72477064Y-86785000D02*
X72022936Y-86785000D01*
X72477064Y-85315000D02*
X72022936Y-85315000D01*
X99015000Y-81227064D02*
X99015000Y-80772936D01*
X100485000Y-81227064D02*
X100485000Y-80772936D01*
X97472936Y-91215000D02*
X97927064Y-91215000D01*
X97472936Y-92685000D02*
X97927064Y-92685000D01*
X97522936Y-93215000D02*
X97977064Y-93215000D01*
X97522936Y-94685000D02*
X97977064Y-94685000D01*
X70222936Y-96865000D02*
X70677064Y-96865000D01*
X70222936Y-98335000D02*
X70677064Y-98335000D01*
X68285000Y-98322936D02*
X68285000Y-98777064D01*
X66815000Y-98322936D02*
X66815000Y-98777064D01*
X68677064Y-86785000D02*
X68222936Y-86785000D01*
X68677064Y-85315000D02*
X68222936Y-85315000D01*
X68222936Y-87315000D02*
X68677064Y-87315000D01*
X68222936Y-88785000D02*
X68677064Y-88785000D01*
X72315000Y-91227064D02*
X72315000Y-90772936D01*
X73785000Y-91227064D02*
X73785000Y-90772936D01*
X89200000Y-78910000D02*
X92650000Y-78910000D01*
X89200000Y-78910000D02*
X87250000Y-78910000D01*
X89200000Y-84030000D02*
X91150000Y-84030000D01*
X89200000Y-84030000D02*
X87250000Y-84030000D01*
X84225000Y-90245000D02*
X80775000Y-90245000D01*
X84225000Y-90245000D02*
X86175000Y-90245000D01*
X84225000Y-85125000D02*
X82275000Y-85125000D01*
X84225000Y-85125000D02*
X86175000Y-85125000D01*
X98545000Y-80465000D02*
X98545000Y-83915000D01*
X98545000Y-80465000D02*
X98545000Y-78515000D01*
X93425000Y-80465000D02*
X93425000Y-82415000D01*
X93425000Y-80465000D02*
X93425000Y-78515000D01*
X74955000Y-88675000D02*
X74955000Y-85225000D01*
X74955000Y-88675000D02*
X74955000Y-90625000D01*
X80075000Y-88675000D02*
X80075000Y-86725000D01*
X80075000Y-88675000D02*
X80075000Y-90625000D01*
X96286252Y-100010000D02*
X93513748Y-100010000D01*
X96286252Y-96590000D02*
X93513748Y-96590000D01*
X106675000Y-90367500D02*
X106675000Y-94427500D01*
X104405000Y-90367500D02*
X106675000Y-90367500D01*
X104405000Y-94427500D02*
X104405000Y-90367500D01*
X74635000Y-92977500D02*
X74635000Y-97037500D01*
X72365000Y-92977500D02*
X74635000Y-92977500D01*
X72365000Y-97037500D02*
X72365000Y-92977500D01*
X95448752Y-86385000D02*
X94926248Y-86385000D01*
X95448752Y-84915000D02*
X94926248Y-84915000D01*
D12*
X96637142Y-88168571D02*
X96694285Y-88140000D01*
X96751428Y-88082857D01*
X96837142Y-87997142D01*
X96894285Y-87968571D01*
X96951428Y-87968571D01*
X96922857Y-88111428D02*
X96980000Y-88082857D01*
X97037142Y-88025714D01*
X97065714Y-87911428D01*
X97065714Y-87711428D01*
X97037142Y-87597142D01*
X96980000Y-87540000D01*
X96922857Y-87511428D01*
X96808571Y-87511428D01*
X96751428Y-87540000D01*
X96694285Y-87597142D01*
X96665714Y-87711428D01*
X96665714Y-87911428D01*
X96694285Y-88025714D01*
X96751428Y-88082857D01*
X96808571Y-88111428D01*
X96922857Y-88111428D01*
X96465714Y-87511428D02*
X96065714Y-87511428D01*
X96322857Y-88111428D01*
X101677142Y-86258571D02*
X101734285Y-86230000D01*
X101791428Y-86172857D01*
X101877142Y-86087142D01*
X101934285Y-86058571D01*
X101991428Y-86058571D01*
X101962857Y-86201428D02*
X102020000Y-86172857D01*
X102077142Y-86115714D01*
X102105714Y-86001428D01*
X102105714Y-85801428D01*
X102077142Y-85687142D01*
X102020000Y-85630000D01*
X101962857Y-85601428D01*
X101848571Y-85601428D01*
X101791428Y-85630000D01*
X101734285Y-85687142D01*
X101705714Y-85801428D01*
X101705714Y-86001428D01*
X101734285Y-86115714D01*
X101791428Y-86172857D01*
X101848571Y-86201428D01*
X101962857Y-86201428D01*
X101191428Y-85601428D02*
X101305714Y-85601428D01*
X101362857Y-85630000D01*
X101391428Y-85658571D01*
X101448571Y-85744285D01*
X101477142Y-85858571D01*
X101477142Y-86087142D01*
X101448571Y-86144285D01*
X101420000Y-86172857D01*
X101362857Y-86201428D01*
X101248571Y-86201428D01*
X101191428Y-86172857D01*
X101162857Y-86144285D01*
X101134285Y-86087142D01*
X101134285Y-85944285D01*
X101162857Y-85887142D01*
X101191428Y-85858571D01*
X101248571Y-85830000D01*
X101362857Y-85830000D01*
X101420000Y-85858571D01*
X101448571Y-85887142D01*
X101477142Y-85944285D01*
X69287142Y-79208571D02*
X69344285Y-79180000D01*
X69401428Y-79122857D01*
X69487142Y-79037142D01*
X69544285Y-79008571D01*
X69601428Y-79008571D01*
X69572857Y-79151428D02*
X69630000Y-79122857D01*
X69687142Y-79065714D01*
X69715714Y-78951428D01*
X69715714Y-78751428D01*
X69687142Y-78637142D01*
X69630000Y-78580000D01*
X69572857Y-78551428D01*
X69458571Y-78551428D01*
X69401428Y-78580000D01*
X69344285Y-78637142D01*
X69315714Y-78751428D01*
X69315714Y-78951428D01*
X69344285Y-79065714D01*
X69401428Y-79122857D01*
X69458571Y-79151428D01*
X69572857Y-79151428D01*
X69115714Y-78551428D02*
X68744285Y-78551428D01*
X68944285Y-78780000D01*
X68858571Y-78780000D01*
X68801428Y-78808571D01*
X68772857Y-78837142D01*
X68744285Y-78894285D01*
X68744285Y-79037142D01*
X68772857Y-79094285D01*
X68801428Y-79122857D01*
X68858571Y-79151428D01*
X69030000Y-79151428D01*
X69087142Y-79122857D01*
X69115714Y-79094285D01*
X87335714Y-74246428D02*
X87535714Y-73960714D01*
X87678571Y-74246428D02*
X87678571Y-73646428D01*
X87450000Y-73646428D01*
X87392857Y-73675000D01*
X87364285Y-73703571D01*
X87335714Y-73760714D01*
X87335714Y-73846428D01*
X87364285Y-73903571D01*
X87392857Y-73932142D01*
X87450000Y-73960714D01*
X87678571Y-73960714D01*
X86764285Y-74246428D02*
X87107142Y-74246428D01*
X86935714Y-74246428D02*
X86935714Y-73646428D01*
X86992857Y-73732142D01*
X87050000Y-73789285D01*
X87107142Y-73817857D01*
X86535714Y-73703571D02*
X86507142Y-73675000D01*
X86450000Y-73646428D01*
X86307142Y-73646428D01*
X86250000Y-73675000D01*
X86221428Y-73703571D01*
X86192857Y-73760714D01*
X86192857Y-73817857D01*
X86221428Y-73903571D01*
X86564285Y-74246428D01*
X86192857Y-74246428D01*
X123932142Y-83171428D02*
X123932142Y-83657142D01*
X123903571Y-83714285D01*
X123875000Y-83742857D01*
X123817857Y-83771428D01*
X123703571Y-83771428D01*
X123646428Y-83742857D01*
X123617857Y-83714285D01*
X123589285Y-83657142D01*
X123589285Y-83171428D01*
X123046428Y-83371428D02*
X123046428Y-83771428D01*
X123189285Y-83142857D02*
X123332142Y-83571428D01*
X122960714Y-83571428D01*
X71982142Y-88421428D02*
X71982142Y-88907142D01*
X71953571Y-88964285D01*
X71925000Y-88992857D01*
X71867857Y-89021428D01*
X71753571Y-89021428D01*
X71696428Y-88992857D01*
X71667857Y-88964285D01*
X71639285Y-88907142D01*
X71639285Y-88421428D01*
X71039285Y-89021428D02*
X71382142Y-89021428D01*
X71210714Y-89021428D02*
X71210714Y-88421428D01*
X71267857Y-88507142D01*
X71325000Y-88564285D01*
X71382142Y-88592857D01*
X119525000Y-116522857D02*
X119439285Y-116551428D01*
X119296428Y-116551428D01*
X119239285Y-116522857D01*
X119210714Y-116494285D01*
X119182142Y-116437142D01*
X119182142Y-116380000D01*
X119210714Y-116322857D01*
X119239285Y-116294285D01*
X119296428Y-116265714D01*
X119410714Y-116237142D01*
X119467857Y-116208571D01*
X119496428Y-116180000D01*
X119525000Y-116122857D01*
X119525000Y-116065714D01*
X119496428Y-116008571D01*
X119467857Y-115980000D01*
X119410714Y-115951428D01*
X119267857Y-115951428D01*
X119182142Y-115980000D01*
X118982142Y-115951428D02*
X118839285Y-116551428D01*
X118725000Y-116122857D01*
X118610714Y-116551428D01*
X118467857Y-115951428D01*
X117925000Y-116551428D02*
X118267857Y-116551428D01*
X118096428Y-116551428D02*
X118096428Y-115951428D01*
X118153571Y-116037142D01*
X118210714Y-116094285D01*
X118267857Y-116122857D01*
X109421428Y-92589285D02*
X109135714Y-92389285D01*
X109421428Y-92246428D02*
X108821428Y-92246428D01*
X108821428Y-92475000D01*
X108850000Y-92532142D01*
X108878571Y-92560714D01*
X108935714Y-92589285D01*
X109021428Y-92589285D01*
X109078571Y-92560714D01*
X109107142Y-92532142D01*
X109135714Y-92475000D01*
X109135714Y-92246428D01*
X109421428Y-93160714D02*
X109421428Y-92817857D01*
X109421428Y-92989285D02*
X108821428Y-92989285D01*
X108907142Y-92932142D01*
X108964285Y-92875000D01*
X108992857Y-92817857D01*
X108821428Y-93360714D02*
X108821428Y-93760714D01*
X109421428Y-93503571D01*
X91546428Y-75914285D02*
X91260714Y-75714285D01*
X91546428Y-75571428D02*
X90946428Y-75571428D01*
X90946428Y-75800000D01*
X90975000Y-75857142D01*
X91003571Y-75885714D01*
X91060714Y-75914285D01*
X91146428Y-75914285D01*
X91203571Y-75885714D01*
X91232142Y-75857142D01*
X91260714Y-75800000D01*
X91260714Y-75571428D01*
X91546428Y-76485714D02*
X91546428Y-76142857D01*
X91546428Y-76314285D02*
X90946428Y-76314285D01*
X91032142Y-76257142D01*
X91089285Y-76200000D01*
X91117857Y-76142857D01*
X90946428Y-76857142D02*
X90946428Y-76914285D01*
X90975000Y-76971428D01*
X91003571Y-77000000D01*
X91060714Y-77028571D01*
X91175000Y-77057142D01*
X91317857Y-77057142D01*
X91432142Y-77028571D01*
X91489285Y-77000000D01*
X91517857Y-76971428D01*
X91546428Y-76914285D01*
X91546428Y-76857142D01*
X91517857Y-76800000D01*
X91489285Y-76771428D01*
X91432142Y-76742857D01*
X91317857Y-76714285D01*
X91175000Y-76714285D01*
X91060714Y-76742857D01*
X91003571Y-76771428D01*
X90975000Y-76800000D01*
X90946428Y-76857142D01*
X115100000Y-81421428D02*
X115300000Y-81135714D01*
X115442857Y-81421428D02*
X115442857Y-80821428D01*
X115214285Y-80821428D01*
X115157142Y-80850000D01*
X115128571Y-80878571D01*
X115100000Y-80935714D01*
X115100000Y-81021428D01*
X115128571Y-81078571D01*
X115157142Y-81107142D01*
X115214285Y-81135714D01*
X115442857Y-81135714D01*
X114585714Y-80821428D02*
X114700000Y-80821428D01*
X114757142Y-80850000D01*
X114785714Y-80878571D01*
X114842857Y-80964285D01*
X114871428Y-81078571D01*
X114871428Y-81307142D01*
X114842857Y-81364285D01*
X114814285Y-81392857D01*
X114757142Y-81421428D01*
X114642857Y-81421428D01*
X114585714Y-81392857D01*
X114557142Y-81364285D01*
X114528571Y-81307142D01*
X114528571Y-81164285D01*
X114557142Y-81107142D01*
X114585714Y-81078571D01*
X114642857Y-81050000D01*
X114757142Y-81050000D01*
X114814285Y-81078571D01*
X114842857Y-81107142D01*
X114871428Y-81164285D01*
X119500000Y-81446428D02*
X119700000Y-81160714D01*
X119842857Y-81446428D02*
X119842857Y-80846428D01*
X119614285Y-80846428D01*
X119557142Y-80875000D01*
X119528571Y-80903571D01*
X119500000Y-80960714D01*
X119500000Y-81046428D01*
X119528571Y-81103571D01*
X119557142Y-81132142D01*
X119614285Y-81160714D01*
X119842857Y-81160714D01*
X118985714Y-81046428D02*
X118985714Y-81446428D01*
X119128571Y-80817857D02*
X119271428Y-81246428D01*
X118900000Y-81246428D01*
X91735714Y-87296428D02*
X91935714Y-87010714D01*
X92078571Y-87296428D02*
X92078571Y-86696428D01*
X91850000Y-86696428D01*
X91792857Y-86725000D01*
X91764285Y-86753571D01*
X91735714Y-86810714D01*
X91735714Y-86896428D01*
X91764285Y-86953571D01*
X91792857Y-86982142D01*
X91850000Y-87010714D01*
X92078571Y-87010714D01*
X91535714Y-86696428D02*
X91164285Y-86696428D01*
X91364285Y-86925000D01*
X91278571Y-86925000D01*
X91221428Y-86953571D01*
X91192857Y-86982142D01*
X91164285Y-87039285D01*
X91164285Y-87182142D01*
X91192857Y-87239285D01*
X91221428Y-87267857D01*
X91278571Y-87296428D01*
X91450000Y-87296428D01*
X91507142Y-87267857D01*
X91535714Y-87239285D01*
X90650000Y-86896428D02*
X90650000Y-87296428D01*
X90792857Y-86667857D02*
X90935714Y-87096428D01*
X90564285Y-87096428D01*
X80500000Y-82421428D02*
X80700000Y-82135714D01*
X80842857Y-82421428D02*
X80842857Y-81821428D01*
X80614285Y-81821428D01*
X80557142Y-81850000D01*
X80528571Y-81878571D01*
X80500000Y-81935714D01*
X80500000Y-82021428D01*
X80528571Y-82078571D01*
X80557142Y-82107142D01*
X80614285Y-82135714D01*
X80842857Y-82135714D01*
X80157142Y-82078571D02*
X80214285Y-82050000D01*
X80242857Y-82021428D01*
X80271428Y-81964285D01*
X80271428Y-81935714D01*
X80242857Y-81878571D01*
X80214285Y-81850000D01*
X80157142Y-81821428D01*
X80042857Y-81821428D01*
X79985714Y-81850000D01*
X79957142Y-81878571D01*
X79928571Y-81935714D01*
X79928571Y-81964285D01*
X79957142Y-82021428D01*
X79985714Y-82050000D01*
X80042857Y-82078571D01*
X80157142Y-82078571D01*
X80214285Y-82107142D01*
X80242857Y-82135714D01*
X80271428Y-82192857D01*
X80271428Y-82307142D01*
X80242857Y-82364285D01*
X80214285Y-82392857D01*
X80157142Y-82421428D01*
X80042857Y-82421428D01*
X79985714Y-82392857D01*
X79957142Y-82364285D01*
X79928571Y-82307142D01*
X79928571Y-82192857D01*
X79957142Y-82135714D01*
X79985714Y-82107142D01*
X80042857Y-82078571D01*
X99435714Y-87371428D02*
X99635714Y-87085714D01*
X99778571Y-87371428D02*
X99778571Y-86771428D01*
X99550000Y-86771428D01*
X99492857Y-86800000D01*
X99464285Y-86828571D01*
X99435714Y-86885714D01*
X99435714Y-86971428D01*
X99464285Y-87028571D01*
X99492857Y-87057142D01*
X99550000Y-87085714D01*
X99778571Y-87085714D01*
X99235714Y-86771428D02*
X98864285Y-86771428D01*
X99064285Y-87000000D01*
X98978571Y-87000000D01*
X98921428Y-87028571D01*
X98892857Y-87057142D01*
X98864285Y-87114285D01*
X98864285Y-87257142D01*
X98892857Y-87314285D01*
X98921428Y-87342857D01*
X98978571Y-87371428D01*
X99150000Y-87371428D01*
X99207142Y-87342857D01*
X99235714Y-87314285D01*
X98321428Y-86771428D02*
X98607142Y-86771428D01*
X98635714Y-87057142D01*
X98607142Y-87028571D01*
X98550000Y-87000000D01*
X98407142Y-87000000D01*
X98350000Y-87028571D01*
X98321428Y-87057142D01*
X98292857Y-87114285D01*
X98292857Y-87257142D01*
X98321428Y-87314285D01*
X98350000Y-87342857D01*
X98407142Y-87371428D01*
X98550000Y-87371428D01*
X98607142Y-87342857D01*
X98635714Y-87314285D01*
X74485714Y-81871428D02*
X74685714Y-81585714D01*
X74828571Y-81871428D02*
X74828571Y-81271428D01*
X74600000Y-81271428D01*
X74542857Y-81300000D01*
X74514285Y-81328571D01*
X74485714Y-81385714D01*
X74485714Y-81471428D01*
X74514285Y-81528571D01*
X74542857Y-81557142D01*
X74600000Y-81585714D01*
X74828571Y-81585714D01*
X73914285Y-81871428D02*
X74257142Y-81871428D01*
X74085714Y-81871428D02*
X74085714Y-81271428D01*
X74142857Y-81357142D01*
X74200000Y-81414285D01*
X74257142Y-81442857D01*
X73400000Y-81471428D02*
X73400000Y-81871428D01*
X73542857Y-81242857D02*
X73685714Y-81671428D01*
X73314285Y-81671428D01*
X68085714Y-83471428D02*
X68285714Y-83185714D01*
X68428571Y-83471428D02*
X68428571Y-82871428D01*
X68200000Y-82871428D01*
X68142857Y-82900000D01*
X68114285Y-82928571D01*
X68085714Y-82985714D01*
X68085714Y-83071428D01*
X68114285Y-83128571D01*
X68142857Y-83157142D01*
X68200000Y-83185714D01*
X68428571Y-83185714D01*
X67885714Y-82871428D02*
X67514285Y-82871428D01*
X67714285Y-83100000D01*
X67628571Y-83100000D01*
X67571428Y-83128571D01*
X67542857Y-83157142D01*
X67514285Y-83214285D01*
X67514285Y-83357142D01*
X67542857Y-83414285D01*
X67571428Y-83442857D01*
X67628571Y-83471428D01*
X67800000Y-83471428D01*
X67857142Y-83442857D01*
X67885714Y-83414285D01*
X67142857Y-82871428D02*
X67085714Y-82871428D01*
X67028571Y-82900000D01*
X67000000Y-82928571D01*
X66971428Y-82985714D01*
X66942857Y-83100000D01*
X66942857Y-83242857D01*
X66971428Y-83357142D01*
X67000000Y-83414285D01*
X67028571Y-83442857D01*
X67085714Y-83471428D01*
X67142857Y-83471428D01*
X67200000Y-83442857D01*
X67228571Y-83414285D01*
X67257142Y-83357142D01*
X67285714Y-83242857D01*
X67285714Y-83100000D01*
X67257142Y-82985714D01*
X67228571Y-82928571D01*
X67200000Y-82900000D01*
X67142857Y-82871428D01*
X101785714Y-90096428D02*
X101985714Y-89810714D01*
X102128571Y-90096428D02*
X102128571Y-89496428D01*
X101900000Y-89496428D01*
X101842857Y-89525000D01*
X101814285Y-89553571D01*
X101785714Y-89610714D01*
X101785714Y-89696428D01*
X101814285Y-89753571D01*
X101842857Y-89782142D01*
X101900000Y-89810714D01*
X102128571Y-89810714D01*
X101585714Y-89496428D02*
X101214285Y-89496428D01*
X101414285Y-89725000D01*
X101328571Y-89725000D01*
X101271428Y-89753571D01*
X101242857Y-89782142D01*
X101214285Y-89839285D01*
X101214285Y-89982142D01*
X101242857Y-90039285D01*
X101271428Y-90067857D01*
X101328571Y-90096428D01*
X101500000Y-90096428D01*
X101557142Y-90067857D01*
X101585714Y-90039285D01*
X101014285Y-89496428D02*
X100614285Y-89496428D01*
X100871428Y-90096428D01*
X72635714Y-84996428D02*
X72835714Y-84710714D01*
X72978571Y-84996428D02*
X72978571Y-84396428D01*
X72750000Y-84396428D01*
X72692857Y-84425000D01*
X72664285Y-84453571D01*
X72635714Y-84510714D01*
X72635714Y-84596428D01*
X72664285Y-84653571D01*
X72692857Y-84682142D01*
X72750000Y-84710714D01*
X72978571Y-84710714D01*
X72407142Y-84453571D02*
X72378571Y-84425000D01*
X72321428Y-84396428D01*
X72178571Y-84396428D01*
X72121428Y-84425000D01*
X72092857Y-84453571D01*
X72064285Y-84510714D01*
X72064285Y-84567857D01*
X72092857Y-84653571D01*
X72435714Y-84996428D01*
X72064285Y-84996428D01*
X71864285Y-84396428D02*
X71492857Y-84396428D01*
X71692857Y-84625000D01*
X71607142Y-84625000D01*
X71550000Y-84653571D01*
X71521428Y-84682142D01*
X71492857Y-84739285D01*
X71492857Y-84882142D01*
X71521428Y-84939285D01*
X71550000Y-84967857D01*
X71607142Y-84996428D01*
X71778571Y-84996428D01*
X71835714Y-84967857D01*
X71864285Y-84939285D01*
X101396428Y-80614285D02*
X101110714Y-80414285D01*
X101396428Y-80271428D02*
X100796428Y-80271428D01*
X100796428Y-80500000D01*
X100825000Y-80557142D01*
X100853571Y-80585714D01*
X100910714Y-80614285D01*
X100996428Y-80614285D01*
X101053571Y-80585714D01*
X101082142Y-80557142D01*
X101110714Y-80500000D01*
X101110714Y-80271428D01*
X100796428Y-80814285D02*
X100796428Y-81185714D01*
X101025000Y-80985714D01*
X101025000Y-81071428D01*
X101053571Y-81128571D01*
X101082142Y-81157142D01*
X101139285Y-81185714D01*
X101282142Y-81185714D01*
X101339285Y-81157142D01*
X101367857Y-81128571D01*
X101396428Y-81071428D01*
X101396428Y-80900000D01*
X101367857Y-80842857D01*
X101339285Y-80814285D01*
X100796428Y-81700000D02*
X100796428Y-81585714D01*
X100825000Y-81528571D01*
X100853571Y-81500000D01*
X100939285Y-81442857D01*
X101053571Y-81414285D01*
X101282142Y-81414285D01*
X101339285Y-81442857D01*
X101367857Y-81471428D01*
X101396428Y-81528571D01*
X101396428Y-81642857D01*
X101367857Y-81700000D01*
X101339285Y-81728571D01*
X101282142Y-81757142D01*
X101139285Y-81757142D01*
X101082142Y-81728571D01*
X101053571Y-81700000D01*
X101025000Y-81642857D01*
X101025000Y-81528571D01*
X101053571Y-81471428D01*
X101082142Y-81442857D01*
X101139285Y-81414285D01*
X100785714Y-92221428D02*
X100985714Y-91935714D01*
X101128571Y-92221428D02*
X101128571Y-91621428D01*
X100900000Y-91621428D01*
X100842857Y-91650000D01*
X100814285Y-91678571D01*
X100785714Y-91735714D01*
X100785714Y-91821428D01*
X100814285Y-91878571D01*
X100842857Y-91907142D01*
X100900000Y-91935714D01*
X101128571Y-91935714D01*
X100585714Y-91621428D02*
X100214285Y-91621428D01*
X100414285Y-91850000D01*
X100328571Y-91850000D01*
X100271428Y-91878571D01*
X100242857Y-91907142D01*
X100214285Y-91964285D01*
X100214285Y-92107142D01*
X100242857Y-92164285D01*
X100271428Y-92192857D01*
X100328571Y-92221428D01*
X100500000Y-92221428D01*
X100557142Y-92192857D01*
X100585714Y-92164285D01*
X99928571Y-92221428D02*
X99814285Y-92221428D01*
X99757142Y-92192857D01*
X99728571Y-92164285D01*
X99671428Y-92078571D01*
X99642857Y-91964285D01*
X99642857Y-91735714D01*
X99671428Y-91678571D01*
X99700000Y-91650000D01*
X99757142Y-91621428D01*
X99871428Y-91621428D01*
X99928571Y-91650000D01*
X99957142Y-91678571D01*
X99985714Y-91735714D01*
X99985714Y-91878571D01*
X99957142Y-91935714D01*
X99928571Y-91964285D01*
X99871428Y-91992857D01*
X99757142Y-91992857D01*
X99700000Y-91964285D01*
X99671428Y-91935714D01*
X99642857Y-91878571D01*
X100860714Y-94246428D02*
X101060714Y-93960714D01*
X101203571Y-94246428D02*
X101203571Y-93646428D01*
X100975000Y-93646428D01*
X100917857Y-93675000D01*
X100889285Y-93703571D01*
X100860714Y-93760714D01*
X100860714Y-93846428D01*
X100889285Y-93903571D01*
X100917857Y-93932142D01*
X100975000Y-93960714D01*
X101203571Y-93960714D01*
X100660714Y-93646428D02*
X100289285Y-93646428D01*
X100489285Y-93875000D01*
X100403571Y-93875000D01*
X100346428Y-93903571D01*
X100317857Y-93932142D01*
X100289285Y-93989285D01*
X100289285Y-94132142D01*
X100317857Y-94189285D01*
X100346428Y-94217857D01*
X100403571Y-94246428D01*
X100575000Y-94246428D01*
X100632142Y-94217857D01*
X100660714Y-94189285D01*
X99946428Y-93903571D02*
X100003571Y-93875000D01*
X100032142Y-93846428D01*
X100060714Y-93789285D01*
X100060714Y-93760714D01*
X100032142Y-93703571D01*
X100003571Y-93675000D01*
X99946428Y-93646428D01*
X99832142Y-93646428D01*
X99775000Y-93675000D01*
X99746428Y-93703571D01*
X99717857Y-93760714D01*
X99717857Y-93789285D01*
X99746428Y-93846428D01*
X99775000Y-93875000D01*
X99832142Y-93903571D01*
X99946428Y-93903571D01*
X100003571Y-93932142D01*
X100032142Y-93960714D01*
X100060714Y-94017857D01*
X100060714Y-94132142D01*
X100032142Y-94189285D01*
X100003571Y-94217857D01*
X99946428Y-94246428D01*
X99832142Y-94246428D01*
X99775000Y-94217857D01*
X99746428Y-94189285D01*
X99717857Y-94132142D01*
X99717857Y-94017857D01*
X99746428Y-93960714D01*
X99775000Y-93932142D01*
X99832142Y-93903571D01*
X70450000Y-99271428D02*
X70650000Y-98985714D01*
X70792857Y-99271428D02*
X70792857Y-98671428D01*
X70564285Y-98671428D01*
X70507142Y-98700000D01*
X70478571Y-98728571D01*
X70450000Y-98785714D01*
X70450000Y-98871428D01*
X70478571Y-98928571D01*
X70507142Y-98957142D01*
X70564285Y-98985714D01*
X70792857Y-98985714D01*
X70221428Y-98728571D02*
X70192857Y-98700000D01*
X70135714Y-98671428D01*
X69992857Y-98671428D01*
X69935714Y-98700000D01*
X69907142Y-98728571D01*
X69878571Y-98785714D01*
X69878571Y-98842857D01*
X69907142Y-98928571D01*
X70250000Y-99271428D01*
X69878571Y-99271428D01*
X69221428Y-99000000D02*
X68935714Y-98800000D01*
X69221428Y-98657142D02*
X68621428Y-98657142D01*
X68621428Y-98885714D01*
X68650000Y-98942857D01*
X68678571Y-98971428D01*
X68735714Y-99000000D01*
X68821428Y-99000000D01*
X68878571Y-98971428D01*
X68907142Y-98942857D01*
X68935714Y-98885714D01*
X68935714Y-98657142D01*
X68621428Y-99200000D02*
X68621428Y-99571428D01*
X68850000Y-99371428D01*
X68850000Y-99457142D01*
X68878571Y-99514285D01*
X68907142Y-99542857D01*
X68964285Y-99571428D01*
X69107142Y-99571428D01*
X69164285Y-99542857D01*
X69192857Y-99514285D01*
X69221428Y-99457142D01*
X69221428Y-99285714D01*
X69192857Y-99228571D01*
X69164285Y-99200000D01*
X68835714Y-84971428D02*
X69035714Y-84685714D01*
X69178571Y-84971428D02*
X69178571Y-84371428D01*
X68950000Y-84371428D01*
X68892857Y-84400000D01*
X68864285Y-84428571D01*
X68835714Y-84485714D01*
X68835714Y-84571428D01*
X68864285Y-84628571D01*
X68892857Y-84657142D01*
X68950000Y-84685714D01*
X69178571Y-84685714D01*
X68607142Y-84428571D02*
X68578571Y-84400000D01*
X68521428Y-84371428D01*
X68378571Y-84371428D01*
X68321428Y-84400000D01*
X68292857Y-84428571D01*
X68264285Y-84485714D01*
X68264285Y-84542857D01*
X68292857Y-84628571D01*
X68635714Y-84971428D01*
X68264285Y-84971428D01*
X67978571Y-84971428D02*
X67864285Y-84971428D01*
X67807142Y-84942857D01*
X67778571Y-84914285D01*
X67721428Y-84828571D01*
X67692857Y-84714285D01*
X67692857Y-84485714D01*
X67721428Y-84428571D01*
X67750000Y-84400000D01*
X67807142Y-84371428D01*
X67921428Y-84371428D01*
X67978571Y-84400000D01*
X68007142Y-84428571D01*
X68035714Y-84485714D01*
X68035714Y-84628571D01*
X68007142Y-84685714D01*
X67978571Y-84714285D01*
X67921428Y-84742857D01*
X67807142Y-84742857D01*
X67750000Y-84714285D01*
X67721428Y-84685714D01*
X67692857Y-84628571D01*
X71535714Y-88071428D02*
X71735714Y-87785714D01*
X71878571Y-88071428D02*
X71878571Y-87471428D01*
X71650000Y-87471428D01*
X71592857Y-87500000D01*
X71564285Y-87528571D01*
X71535714Y-87585714D01*
X71535714Y-87671428D01*
X71564285Y-87728571D01*
X71592857Y-87757142D01*
X71650000Y-87785714D01*
X71878571Y-87785714D01*
X71307142Y-87528571D02*
X71278571Y-87500000D01*
X71221428Y-87471428D01*
X71078571Y-87471428D01*
X71021428Y-87500000D01*
X70992857Y-87528571D01*
X70964285Y-87585714D01*
X70964285Y-87642857D01*
X70992857Y-87728571D01*
X71335714Y-88071428D01*
X70964285Y-88071428D01*
X70735714Y-87528571D02*
X70707142Y-87500000D01*
X70650000Y-87471428D01*
X70507142Y-87471428D01*
X70450000Y-87500000D01*
X70421428Y-87528571D01*
X70392857Y-87585714D01*
X70392857Y-87642857D01*
X70421428Y-87728571D01*
X70764285Y-88071428D01*
X70392857Y-88071428D01*
X74771428Y-90900000D02*
X74485714Y-90700000D01*
X74771428Y-90557142D02*
X74171428Y-90557142D01*
X74171428Y-90785714D01*
X74200000Y-90842857D01*
X74228571Y-90871428D01*
X74285714Y-90900000D01*
X74371428Y-90900000D01*
X74428571Y-90871428D01*
X74457142Y-90842857D01*
X74485714Y-90785714D01*
X74485714Y-90557142D01*
X74171428Y-91100000D02*
X74171428Y-91500000D01*
X74771428Y-91242857D01*
X91807142Y-78678571D02*
X91864285Y-78650000D01*
X91921428Y-78592857D01*
X92007142Y-78507142D01*
X92064285Y-78478571D01*
X92121428Y-78478571D01*
X92092857Y-78621428D02*
X92150000Y-78592857D01*
X92207142Y-78535714D01*
X92235714Y-78421428D01*
X92235714Y-78221428D01*
X92207142Y-78107142D01*
X92150000Y-78050000D01*
X92092857Y-78021428D01*
X91978571Y-78021428D01*
X91921428Y-78050000D01*
X91864285Y-78107142D01*
X91835714Y-78221428D01*
X91835714Y-78421428D01*
X91864285Y-78535714D01*
X91921428Y-78592857D01*
X91978571Y-78621428D01*
X92092857Y-78621428D01*
X91292857Y-78021428D02*
X91578571Y-78021428D01*
X91607142Y-78307142D01*
X91578571Y-78278571D01*
X91521428Y-78250000D01*
X91378571Y-78250000D01*
X91321428Y-78278571D01*
X91292857Y-78307142D01*
X91264285Y-78364285D01*
X91264285Y-78507142D01*
X91292857Y-78564285D01*
X91321428Y-78592857D01*
X91378571Y-78621428D01*
X91521428Y-78621428D01*
X91578571Y-78592857D01*
X91607142Y-78564285D01*
X81107142Y-91153571D02*
X81164285Y-91125000D01*
X81221428Y-91067857D01*
X81307142Y-90982142D01*
X81364285Y-90953571D01*
X81421428Y-90953571D01*
X81392857Y-91096428D02*
X81450000Y-91067857D01*
X81507142Y-91010714D01*
X81535714Y-90896428D01*
X81535714Y-90696428D01*
X81507142Y-90582142D01*
X81450000Y-90525000D01*
X81392857Y-90496428D01*
X81278571Y-90496428D01*
X81221428Y-90525000D01*
X81164285Y-90582142D01*
X81135714Y-90696428D01*
X81135714Y-90896428D01*
X81164285Y-91010714D01*
X81221428Y-91067857D01*
X81278571Y-91096428D01*
X81392857Y-91096428D01*
X80907142Y-90553571D02*
X80878571Y-90525000D01*
X80821428Y-90496428D01*
X80678571Y-90496428D01*
X80621428Y-90525000D01*
X80592857Y-90553571D01*
X80564285Y-90610714D01*
X80564285Y-90667857D01*
X80592857Y-90753571D01*
X80935714Y-91096428D01*
X80564285Y-91096428D01*
X99503571Y-83492857D02*
X99475000Y-83435714D01*
X99417857Y-83378571D01*
X99332142Y-83292857D01*
X99303571Y-83235714D01*
X99303571Y-83178571D01*
X99446428Y-83207142D02*
X99417857Y-83150000D01*
X99360714Y-83092857D01*
X99246428Y-83064285D01*
X99046428Y-83064285D01*
X98932142Y-83092857D01*
X98875000Y-83150000D01*
X98846428Y-83207142D01*
X98846428Y-83321428D01*
X98875000Y-83378571D01*
X98932142Y-83435714D01*
X99046428Y-83464285D01*
X99246428Y-83464285D01*
X99360714Y-83435714D01*
X99417857Y-83378571D01*
X99446428Y-83321428D01*
X99446428Y-83207142D01*
X99046428Y-83978571D02*
X99446428Y-83978571D01*
X98817857Y-83835714D02*
X99246428Y-83692857D01*
X99246428Y-84064285D01*
X74828571Y-86042857D02*
X74800000Y-85985714D01*
X74742857Y-85928571D01*
X74657142Y-85842857D01*
X74628571Y-85785714D01*
X74628571Y-85728571D01*
X74771428Y-85757142D02*
X74742857Y-85700000D01*
X74685714Y-85642857D01*
X74571428Y-85614285D01*
X74371428Y-85614285D01*
X74257142Y-85642857D01*
X74200000Y-85700000D01*
X74171428Y-85757142D01*
X74171428Y-85871428D01*
X74200000Y-85928571D01*
X74257142Y-85985714D01*
X74371428Y-86014285D01*
X74571428Y-86014285D01*
X74685714Y-85985714D01*
X74742857Y-85928571D01*
X74771428Y-85871428D01*
X74771428Y-85757142D01*
X74771428Y-86585714D02*
X74771428Y-86242857D01*
X74771428Y-86414285D02*
X74171428Y-86414285D01*
X74257142Y-86357142D01*
X74314285Y-86300000D01*
X74342857Y-86242857D01*
X95100000Y-95957142D02*
X95300000Y-95957142D01*
X95300000Y-96271428D02*
X95300000Y-95671428D01*
X95014285Y-95671428D01*
X94471428Y-96271428D02*
X94814285Y-96271428D01*
X94642857Y-96271428D02*
X94642857Y-95671428D01*
X94700000Y-95757142D01*
X94757142Y-95814285D01*
X94814285Y-95842857D01*
X104246428Y-92382142D02*
X103646428Y-92382142D01*
X103646428Y-92525000D01*
X103675000Y-92610714D01*
X103732142Y-92667857D01*
X103789285Y-92696428D01*
X103903571Y-92725000D01*
X103989285Y-92725000D01*
X104103571Y-92696428D01*
X104160714Y-92667857D01*
X104217857Y-92610714D01*
X104246428Y-92525000D01*
X104246428Y-92382142D01*
X103846428Y-93239285D02*
X104246428Y-93239285D01*
X103617857Y-93096428D02*
X104046428Y-92953571D01*
X104046428Y-93325000D01*
X75471428Y-95007142D02*
X74871428Y-95007142D01*
X74871428Y-95150000D01*
X74900000Y-95235714D01*
X74957142Y-95292857D01*
X75014285Y-95321428D01*
X75128571Y-95350000D01*
X75214285Y-95350000D01*
X75328571Y-95321428D01*
X75385714Y-95292857D01*
X75442857Y-95235714D01*
X75471428Y-95150000D01*
X75471428Y-95007142D01*
X75471428Y-95921428D02*
X75471428Y-95578571D01*
X75471428Y-95750000D02*
X74871428Y-95750000D01*
X74957142Y-95692857D01*
X75014285Y-95635714D01*
X75042857Y-95578571D01*
X94510714Y-87264285D02*
X94539285Y-87292857D01*
X94625000Y-87321428D01*
X94682142Y-87321428D01*
X94767857Y-87292857D01*
X94825000Y-87235714D01*
X94853571Y-87178571D01*
X94882142Y-87064285D01*
X94882142Y-86978571D01*
X94853571Y-86864285D01*
X94825000Y-86807142D01*
X94767857Y-86750000D01*
X94682142Y-86721428D01*
X94625000Y-86721428D01*
X94539285Y-86750000D01*
X94510714Y-86778571D01*
X94282142Y-86778571D02*
X94253571Y-86750000D01*
X94196428Y-86721428D01*
X94053571Y-86721428D01*
X93996428Y-86750000D01*
X93967857Y-86778571D01*
X93939285Y-86835714D01*
X93939285Y-86892857D01*
X93967857Y-86978571D01*
X94310714Y-87321428D01*
X93939285Y-87321428D01*
X93567857Y-86721428D02*
X93510714Y-86721428D01*
X93453571Y-86750000D01*
X93425000Y-86778571D01*
X93396428Y-86835714D01*
X93367857Y-86950000D01*
X93367857Y-87092857D01*
X93396428Y-87207142D01*
X93425000Y-87264285D01*
X93453571Y-87292857D01*
X93510714Y-87321428D01*
X93567857Y-87321428D01*
X93625000Y-87292857D01*
X93653571Y-87264285D01*
X93682142Y-87207142D01*
X93710714Y-87092857D01*
X93710714Y-86950000D01*
X93682142Y-86835714D01*
X93653571Y-86778571D01*
X93625000Y-86750000D01*
X93567857Y-86721428D01*
%LPC*%
D14*
X97680000Y-87900000D03*
X96730000Y-90000000D03*
X98630000Y-90000000D03*
D15*
X101930000Y-84830000D03*
X104030000Y-85780000D03*
X104030000Y-83880000D03*
D14*
X70360000Y-78870000D03*
X69410000Y-80970000D03*
X71310000Y-80970000D03*
G36*
G01*
X87350000Y-75750001D02*
X87350000Y-74849999D01*
G75*
G02*
X87599999Y-74600000I249999J0D01*
G01*
X88300001Y-74600000D01*
G75*
G02*
X88550000Y-74849999I0J-249999D01*
G01*
X88550000Y-75750001D01*
G75*
G02*
X88300001Y-76000000I-249999J0D01*
G01*
X87599999Y-76000000D01*
G75*
G02*
X87350000Y-75750001I0J249999D01*
G01*
G37*
G36*
G01*
X85350000Y-75750001D02*
X85350000Y-74849999D01*
G75*
G02*
X85599999Y-74600000I249999J0D01*
G01*
X86300001Y-74600000D01*
G75*
G02*
X86550000Y-74849999I0J-249999D01*
G01*
X86550000Y-75750001D01*
G75*
G02*
X86300001Y-76000000I-249999J0D01*
G01*
X85599999Y-76000000D01*
G75*
G02*
X85350000Y-75750001I0J249999D01*
G01*
G37*
G36*
G01*
X115025000Y-84660000D02*
X115025000Y-84960000D01*
G75*
G02*
X114875000Y-85110000I-150000J0D01*
G01*
X113125000Y-85110000D01*
G75*
G02*
X112975000Y-84960000I0J150000D01*
G01*
X112975000Y-84660000D01*
G75*
G02*
X113125000Y-84510000I150000J0D01*
G01*
X114875000Y-84510000D01*
G75*
G02*
X115025000Y-84660000I0J-150000D01*
G01*
G37*
G36*
G01*
X115025000Y-85930000D02*
X115025000Y-86230000D01*
G75*
G02*
X114875000Y-86380000I-150000J0D01*
G01*
X113125000Y-86380000D01*
G75*
G02*
X112975000Y-86230000I0J150000D01*
G01*
X112975000Y-85930000D01*
G75*
G02*
X113125000Y-85780000I150000J0D01*
G01*
X114875000Y-85780000D01*
G75*
G02*
X115025000Y-85930000I0J-150000D01*
G01*
G37*
G36*
G01*
X115025000Y-87200000D02*
X115025000Y-87500000D01*
G75*
G02*
X114875000Y-87650000I-150000J0D01*
G01*
X113125000Y-87650000D01*
G75*
G02*
X112975000Y-87500000I0J150000D01*
G01*
X112975000Y-87200000D01*
G75*
G02*
X113125000Y-87050000I150000J0D01*
G01*
X114875000Y-87050000D01*
G75*
G02*
X115025000Y-87200000I0J-150000D01*
G01*
G37*
G36*
G01*
X115025000Y-88470000D02*
X115025000Y-88770000D01*
G75*
G02*
X114875000Y-88920000I-150000J0D01*
G01*
X113125000Y-88920000D01*
G75*
G02*
X112975000Y-88770000I0J150000D01*
G01*
X112975000Y-88470000D01*
G75*
G02*
X113125000Y-88320000I150000J0D01*
G01*
X114875000Y-88320000D01*
G75*
G02*
X115025000Y-88470000I0J-150000D01*
G01*
G37*
G36*
G01*
X115025000Y-89740000D02*
X115025000Y-90040000D01*
G75*
G02*
X114875000Y-90190000I-150000J0D01*
G01*
X113125000Y-90190000D01*
G75*
G02*
X112975000Y-90040000I0J150000D01*
G01*
X112975000Y-89740000D01*
G75*
G02*
X113125000Y-89590000I150000J0D01*
G01*
X114875000Y-89590000D01*
G75*
G02*
X115025000Y-89740000I0J-150000D01*
G01*
G37*
G36*
G01*
X115025000Y-91010000D02*
X115025000Y-91310000D01*
G75*
G02*
X114875000Y-91460000I-150000J0D01*
G01*
X113125000Y-91460000D01*
G75*
G02*
X112975000Y-91310000I0J150000D01*
G01*
X112975000Y-91010000D01*
G75*
G02*
X113125000Y-90860000I150000J0D01*
G01*
X114875000Y-90860000D01*
G75*
G02*
X115025000Y-91010000I0J-150000D01*
G01*
G37*
G36*
G01*
X115025000Y-92280000D02*
X115025000Y-92580000D01*
G75*
G02*
X114875000Y-92730000I-150000J0D01*
G01*
X113125000Y-92730000D01*
G75*
G02*
X112975000Y-92580000I0J150000D01*
G01*
X112975000Y-92280000D01*
G75*
G02*
X113125000Y-92130000I150000J0D01*
G01*
X114875000Y-92130000D01*
G75*
G02*
X115025000Y-92280000I0J-150000D01*
G01*
G37*
G36*
G01*
X115025000Y-93550000D02*
X115025000Y-93850000D01*
G75*
G02*
X114875000Y-94000000I-150000J0D01*
G01*
X113125000Y-94000000D01*
G75*
G02*
X112975000Y-93850000I0J150000D01*
G01*
X112975000Y-93550000D01*
G75*
G02*
X113125000Y-93400000I150000J0D01*
G01*
X114875000Y-93400000D01*
G75*
G02*
X115025000Y-93550000I0J-150000D01*
G01*
G37*
G36*
G01*
X124325000Y-93550000D02*
X124325000Y-93850000D01*
G75*
G02*
X124175000Y-94000000I-150000J0D01*
G01*
X122425000Y-94000000D01*
G75*
G02*
X122275000Y-93850000I0J150000D01*
G01*
X122275000Y-93550000D01*
G75*
G02*
X122425000Y-93400000I150000J0D01*
G01*
X124175000Y-93400000D01*
G75*
G02*
X124325000Y-93550000I0J-150000D01*
G01*
G37*
G36*
G01*
X124325000Y-92280000D02*
X124325000Y-92580000D01*
G75*
G02*
X124175000Y-92730000I-150000J0D01*
G01*
X122425000Y-92730000D01*
G75*
G02*
X122275000Y-92580000I0J150000D01*
G01*
X122275000Y-92280000D01*
G75*
G02*
X122425000Y-92130000I150000J0D01*
G01*
X124175000Y-92130000D01*
G75*
G02*
X124325000Y-92280000I0J-150000D01*
G01*
G37*
G36*
G01*
X124325000Y-91010000D02*
X124325000Y-91310000D01*
G75*
G02*
X124175000Y-91460000I-150000J0D01*
G01*
X122425000Y-91460000D01*
G75*
G02*
X122275000Y-91310000I0J150000D01*
G01*
X122275000Y-91010000D01*
G75*
G02*
X122425000Y-90860000I150000J0D01*
G01*
X124175000Y-90860000D01*
G75*
G02*
X124325000Y-91010000I0J-150000D01*
G01*
G37*
G36*
G01*
X124325000Y-89740000D02*
X124325000Y-90040000D01*
G75*
G02*
X124175000Y-90190000I-150000J0D01*
G01*
X122425000Y-90190000D01*
G75*
G02*
X122275000Y-90040000I0J150000D01*
G01*
X122275000Y-89740000D01*
G75*
G02*
X122425000Y-89590000I150000J0D01*
G01*
X124175000Y-89590000D01*
G75*
G02*
X124325000Y-89740000I0J-150000D01*
G01*
G37*
G36*
G01*
X124325000Y-88470000D02*
X124325000Y-88770000D01*
G75*
G02*
X124175000Y-88920000I-150000J0D01*
G01*
X122425000Y-88920000D01*
G75*
G02*
X122275000Y-88770000I0J150000D01*
G01*
X122275000Y-88470000D01*
G75*
G02*
X122425000Y-88320000I150000J0D01*
G01*
X124175000Y-88320000D01*
G75*
G02*
X124325000Y-88470000I0J-150000D01*
G01*
G37*
G36*
G01*
X124325000Y-87200000D02*
X124325000Y-87500000D01*
G75*
G02*
X124175000Y-87650000I-150000J0D01*
G01*
X122425000Y-87650000D01*
G75*
G02*
X122275000Y-87500000I0J150000D01*
G01*
X122275000Y-87200000D01*
G75*
G02*
X122425000Y-87050000I150000J0D01*
G01*
X124175000Y-87050000D01*
G75*
G02*
X124325000Y-87200000I0J-150000D01*
G01*
G37*
G36*
G01*
X124325000Y-85930000D02*
X124325000Y-86230000D01*
G75*
G02*
X124175000Y-86380000I-150000J0D01*
G01*
X122425000Y-86380000D01*
G75*
G02*
X122275000Y-86230000I0J150000D01*
G01*
X122275000Y-85930000D01*
G75*
G02*
X122425000Y-85780000I150000J0D01*
G01*
X124175000Y-85780000D01*
G75*
G02*
X124325000Y-85930000I0J-150000D01*
G01*
G37*
G36*
G01*
X124325000Y-84660000D02*
X124325000Y-84960000D01*
G75*
G02*
X124175000Y-85110000I-150000J0D01*
G01*
X122425000Y-85110000D01*
G75*
G02*
X122275000Y-84960000I0J150000D01*
G01*
X122275000Y-84660000D01*
G75*
G02*
X122425000Y-84510000I150000J0D01*
G01*
X124175000Y-84510000D01*
G75*
G02*
X124325000Y-84660000I0J-150000D01*
G01*
G37*
D16*
X133175000Y-104750000D03*
X133175000Y-107300000D03*
X133950000Y-105500000D03*
X132400000Y-105500000D03*
X133175000Y-105500000D03*
X133950000Y-106550000D03*
X132400000Y-106550000D03*
X133175000Y-106550000D03*
G36*
G01*
X71350000Y-91325000D02*
X71050000Y-91325000D01*
G75*
G02*
X70900000Y-91175000I0J150000D01*
G01*
X70900000Y-89525000D01*
G75*
G02*
X71050000Y-89375000I150000J0D01*
G01*
X71350000Y-89375000D01*
G75*
G02*
X71500000Y-89525000I0J-150000D01*
G01*
X71500000Y-91175000D01*
G75*
G02*
X71350000Y-91325000I-150000J0D01*
G01*
G37*
G36*
G01*
X70080000Y-91325000D02*
X69780000Y-91325000D01*
G75*
G02*
X69630000Y-91175000I0J150000D01*
G01*
X69630000Y-89525000D01*
G75*
G02*
X69780000Y-89375000I150000J0D01*
G01*
X70080000Y-89375000D01*
G75*
G02*
X70230000Y-89525000I0J-150000D01*
G01*
X70230000Y-91175000D01*
G75*
G02*
X70080000Y-91325000I-150000J0D01*
G01*
G37*
G36*
G01*
X68810000Y-91325000D02*
X68510000Y-91325000D01*
G75*
G02*
X68360000Y-91175000I0J150000D01*
G01*
X68360000Y-89525000D01*
G75*
G02*
X68510000Y-89375000I150000J0D01*
G01*
X68810000Y-89375000D01*
G75*
G02*
X68960000Y-89525000I0J-150000D01*
G01*
X68960000Y-91175000D01*
G75*
G02*
X68810000Y-91325000I-150000J0D01*
G01*
G37*
G36*
G01*
X67540000Y-91325000D02*
X67240000Y-91325000D01*
G75*
G02*
X67090000Y-91175000I0J150000D01*
G01*
X67090000Y-89525000D01*
G75*
G02*
X67240000Y-89375000I150000J0D01*
G01*
X67540000Y-89375000D01*
G75*
G02*
X67690000Y-89525000I0J-150000D01*
G01*
X67690000Y-91175000D01*
G75*
G02*
X67540000Y-91325000I-150000J0D01*
G01*
G37*
G36*
G01*
X67540000Y-96275000D02*
X67240000Y-96275000D01*
G75*
G02*
X67090000Y-96125000I0J150000D01*
G01*
X67090000Y-94475000D01*
G75*
G02*
X67240000Y-94325000I150000J0D01*
G01*
X67540000Y-94325000D01*
G75*
G02*
X67690000Y-94475000I0J-150000D01*
G01*
X67690000Y-96125000D01*
G75*
G02*
X67540000Y-96275000I-150000J0D01*
G01*
G37*
G36*
G01*
X68810000Y-96275000D02*
X68510000Y-96275000D01*
G75*
G02*
X68360000Y-96125000I0J150000D01*
G01*
X68360000Y-94475000D01*
G75*
G02*
X68510000Y-94325000I150000J0D01*
G01*
X68810000Y-94325000D01*
G75*
G02*
X68960000Y-94475000I0J-150000D01*
G01*
X68960000Y-96125000D01*
G75*
G02*
X68810000Y-96275000I-150000J0D01*
G01*
G37*
G36*
G01*
X70080000Y-96275000D02*
X69780000Y-96275000D01*
G75*
G02*
X69630000Y-96125000I0J150000D01*
G01*
X69630000Y-94475000D01*
G75*
G02*
X69780000Y-94325000I150000J0D01*
G01*
X70080000Y-94325000D01*
G75*
G02*
X70230000Y-94475000I0J-150000D01*
G01*
X70230000Y-96125000D01*
G75*
G02*
X70080000Y-96275000I-150000J0D01*
G01*
G37*
G36*
G01*
X71350000Y-96275000D02*
X71050000Y-96275000D01*
G75*
G02*
X70900000Y-96125000I0J150000D01*
G01*
X70900000Y-94475000D01*
G75*
G02*
X71050000Y-94325000I150000J0D01*
G01*
X71350000Y-94325000D01*
G75*
G02*
X71500000Y-94475000I0J-150000D01*
G01*
X71500000Y-96125000D01*
G75*
G02*
X71350000Y-96275000I-150000J0D01*
G01*
G37*
D17*
X115325000Y-121080000D03*
X122125000Y-121080000D03*
D18*
X116225000Y-118330000D03*
X118725000Y-118330000D03*
X121225000Y-118330000D03*
G36*
G01*
X107309999Y-93380000D02*
X108210001Y-93380000D01*
G75*
G02*
X108460000Y-93629999I0J-249999D01*
G01*
X108460000Y-94330001D01*
G75*
G02*
X108210001Y-94580000I-249999J0D01*
G01*
X107309999Y-94580000D01*
G75*
G02*
X107060000Y-94330001I0J249999D01*
G01*
X107060000Y-93629999D01*
G75*
G02*
X107309999Y-93380000I249999J0D01*
G01*
G37*
G36*
G01*
X107309999Y-91380000D02*
X108210001Y-91380000D01*
G75*
G02*
X108460000Y-91629999I0J-249999D01*
G01*
X108460000Y-92330001D01*
G75*
G02*
X108210001Y-92580000I-249999J0D01*
G01*
X107309999Y-92580000D01*
G75*
G02*
X107060000Y-92330001I0J249999D01*
G01*
X107060000Y-91629999D01*
G75*
G02*
X107309999Y-91380000I249999J0D01*
G01*
G37*
G36*
G01*
X89399999Y-76700000D02*
X90300001Y-76700000D01*
G75*
G02*
X90550000Y-76949999I0J-249999D01*
G01*
X90550000Y-77650001D01*
G75*
G02*
X90300001Y-77900000I-249999J0D01*
G01*
X89399999Y-77900000D01*
G75*
G02*
X89150000Y-77650001I0J249999D01*
G01*
X89150000Y-76949999D01*
G75*
G02*
X89399999Y-76700000I249999J0D01*
G01*
G37*
G36*
G01*
X89399999Y-74700000D02*
X90300001Y-74700000D01*
G75*
G02*
X90550000Y-74949999I0J-249999D01*
G01*
X90550000Y-75650001D01*
G75*
G02*
X90300001Y-75900000I-249999J0D01*
G01*
X89399999Y-75900000D01*
G75*
G02*
X89150000Y-75650001I0J249999D01*
G01*
X89150000Y-74949999D01*
G75*
G02*
X89399999Y-74700000I249999J0D01*
G01*
G37*
G36*
G01*
X115400000Y-82950001D02*
X115400000Y-82049999D01*
G75*
G02*
X115649999Y-81800000I249999J0D01*
G01*
X116350001Y-81800000D01*
G75*
G02*
X116600000Y-82049999I0J-249999D01*
G01*
X116600000Y-82950001D01*
G75*
G02*
X116350001Y-83200000I-249999J0D01*
G01*
X115649999Y-83200000D01*
G75*
G02*
X115400000Y-82950001I0J249999D01*
G01*
G37*
G36*
G01*
X113400000Y-82950001D02*
X113400000Y-82049999D01*
G75*
G02*
X113649999Y-81800000I249999J0D01*
G01*
X114350001Y-81800000D01*
G75*
G02*
X114600000Y-82049999I0J-249999D01*
G01*
X114600000Y-82950001D01*
G75*
G02*
X114350001Y-83200000I-249999J0D01*
G01*
X113649999Y-83200000D01*
G75*
G02*
X113400000Y-82950001I0J249999D01*
G01*
G37*
G36*
G01*
X119800000Y-82950001D02*
X119800000Y-82049999D01*
G75*
G02*
X120049999Y-81800000I249999J0D01*
G01*
X120750001Y-81800000D01*
G75*
G02*
X121000000Y-82049999I0J-249999D01*
G01*
X121000000Y-82950001D01*
G75*
G02*
X120750001Y-83200000I-249999J0D01*
G01*
X120049999Y-83200000D01*
G75*
G02*
X119800000Y-82950001I0J249999D01*
G01*
G37*
G36*
G01*
X117800000Y-82950001D02*
X117800000Y-82049999D01*
G75*
G02*
X118049999Y-81800000I249999J0D01*
G01*
X118750001Y-81800000D01*
G75*
G02*
X119000000Y-82049999I0J-249999D01*
G01*
X119000000Y-82950001D01*
G75*
G02*
X118750001Y-83200000I-249999J0D01*
G01*
X118049999Y-83200000D01*
G75*
G02*
X117800000Y-82950001I0J249999D01*
G01*
G37*
G36*
G01*
X90950000Y-85199999D02*
X90950000Y-86100001D01*
G75*
G02*
X90700001Y-86350000I-249999J0D01*
G01*
X89999999Y-86350000D01*
G75*
G02*
X89750000Y-86100001I0J249999D01*
G01*
X89750000Y-85199999D01*
G75*
G02*
X89999999Y-84950000I249999J0D01*
G01*
X90700001Y-84950000D01*
G75*
G02*
X90950000Y-85199999I0J-249999D01*
G01*
G37*
G36*
G01*
X92950000Y-85199999D02*
X92950000Y-86100001D01*
G75*
G02*
X92700001Y-86350000I-249999J0D01*
G01*
X91999999Y-86350000D01*
G75*
G02*
X91750000Y-86100001I0J249999D01*
G01*
X91750000Y-85199999D01*
G75*
G02*
X91999999Y-84950000I249999J0D01*
G01*
X92700001Y-84950000D01*
G75*
G02*
X92950000Y-85199999I0J-249999D01*
G01*
G37*
G36*
G01*
X80800000Y-83900001D02*
X80800000Y-82999999D01*
G75*
G02*
X81049999Y-82750000I249999J0D01*
G01*
X81750001Y-82750000D01*
G75*
G02*
X82000000Y-82999999I0J-249999D01*
G01*
X82000000Y-83900001D01*
G75*
G02*
X81750001Y-84150000I-249999J0D01*
G01*
X81049999Y-84150000D01*
G75*
G02*
X80800000Y-83900001I0J249999D01*
G01*
G37*
G36*
G01*
X78800000Y-83900001D02*
X78800000Y-82999999D01*
G75*
G02*
X79049999Y-82750000I249999J0D01*
G01*
X79750001Y-82750000D01*
G75*
G02*
X80000000Y-82999999I0J-249999D01*
G01*
X80000000Y-83900001D01*
G75*
G02*
X79750001Y-84150000I-249999J0D01*
G01*
X79049999Y-84150000D01*
G75*
G02*
X78800000Y-83900001I0J249999D01*
G01*
G37*
G36*
G01*
X98650000Y-85199999D02*
X98650000Y-86100001D01*
G75*
G02*
X98400001Y-86350000I-249999J0D01*
G01*
X97699999Y-86350000D01*
G75*
G02*
X97450000Y-86100001I0J249999D01*
G01*
X97450000Y-85199999D01*
G75*
G02*
X97699999Y-84950000I249999J0D01*
G01*
X98400001Y-84950000D01*
G75*
G02*
X98650000Y-85199999I0J-249999D01*
G01*
G37*
G36*
G01*
X100650000Y-85199999D02*
X100650000Y-86100001D01*
G75*
G02*
X100400001Y-86350000I-249999J0D01*
G01*
X99699999Y-86350000D01*
G75*
G02*
X99450000Y-86100001I0J249999D01*
G01*
X99450000Y-85199999D01*
G75*
G02*
X99699999Y-84950000I249999J0D01*
G01*
X100400001Y-84950000D01*
G75*
G02*
X100650000Y-85199999I0J-249999D01*
G01*
G37*
G36*
G01*
X74500000Y-80650001D02*
X74500000Y-79749999D01*
G75*
G02*
X74749999Y-79500000I249999J0D01*
G01*
X75450001Y-79500000D01*
G75*
G02*
X75700000Y-79749999I0J-249999D01*
G01*
X75700000Y-80650001D01*
G75*
G02*
X75450001Y-80900000I-249999J0D01*
G01*
X74749999Y-80900000D01*
G75*
G02*
X74500000Y-80650001I0J249999D01*
G01*
G37*
G36*
G01*
X72500000Y-80650001D02*
X72500000Y-79749999D01*
G75*
G02*
X72749999Y-79500000I249999J0D01*
G01*
X73450001Y-79500000D01*
G75*
G02*
X73700000Y-79749999I0J-249999D01*
G01*
X73700000Y-80650001D01*
G75*
G02*
X73450001Y-80900000I-249999J0D01*
G01*
X72749999Y-80900000D01*
G75*
G02*
X72500000Y-80650001I0J249999D01*
G01*
G37*
G36*
G01*
X70000000Y-82749999D02*
X70000000Y-83650001D01*
G75*
G02*
X69750001Y-83900000I-249999J0D01*
G01*
X69049999Y-83900000D01*
G75*
G02*
X68800000Y-83650001I0J249999D01*
G01*
X68800000Y-82749999D01*
G75*
G02*
X69049999Y-82500000I249999J0D01*
G01*
X69750001Y-82500000D01*
G75*
G02*
X70000000Y-82749999I0J-249999D01*
G01*
G37*
G36*
G01*
X72000000Y-82749999D02*
X72000000Y-83650001D01*
G75*
G02*
X71750001Y-83900000I-249999J0D01*
G01*
X71049999Y-83900000D01*
G75*
G02*
X70800000Y-83650001I0J249999D01*
G01*
X70800000Y-82749999D01*
G75*
G02*
X71049999Y-82500000I249999J0D01*
G01*
X71750001Y-82500000D01*
G75*
G02*
X72000000Y-82749999I0J-249999D01*
G01*
G37*
G36*
G01*
X101800000Y-88900001D02*
X101800000Y-87999999D01*
G75*
G02*
X102049999Y-87750000I249999J0D01*
G01*
X102750001Y-87750000D01*
G75*
G02*
X103000000Y-87999999I0J-249999D01*
G01*
X103000000Y-88900001D01*
G75*
G02*
X102750001Y-89150000I-249999J0D01*
G01*
X102049999Y-89150000D01*
G75*
G02*
X101800000Y-88900001I0J249999D01*
G01*
G37*
G36*
G01*
X99800000Y-88900001D02*
X99800000Y-87999999D01*
G75*
G02*
X100049999Y-87750000I249999J0D01*
G01*
X100750001Y-87750000D01*
G75*
G02*
X101000000Y-87999999I0J-249999D01*
G01*
X101000000Y-88900001D01*
G75*
G02*
X100750001Y-89150000I-249999J0D01*
G01*
X100049999Y-89150000D01*
G75*
G02*
X99800000Y-88900001I0J249999D01*
G01*
G37*
G36*
G01*
X71850000Y-85599999D02*
X71850000Y-86500001D01*
G75*
G02*
X71600001Y-86750000I-249999J0D01*
G01*
X70899999Y-86750000D01*
G75*
G02*
X70650000Y-86500001I0J249999D01*
G01*
X70650000Y-85599999D01*
G75*
G02*
X70899999Y-85350000I249999J0D01*
G01*
X71600001Y-85350000D01*
G75*
G02*
X71850000Y-85599999I0J-249999D01*
G01*
G37*
G36*
G01*
X73850000Y-85599999D02*
X73850000Y-86500001D01*
G75*
G02*
X73600001Y-86750000I-249999J0D01*
G01*
X72899999Y-86750000D01*
G75*
G02*
X72650000Y-86500001I0J249999D01*
G01*
X72650000Y-85599999D01*
G75*
G02*
X72899999Y-85350000I249999J0D01*
G01*
X73600001Y-85350000D01*
G75*
G02*
X73850000Y-85599999I0J-249999D01*
G01*
G37*
G36*
G01*
X100200001Y-80600000D02*
X99299999Y-80600000D01*
G75*
G02*
X99050000Y-80350001I0J249999D01*
G01*
X99050000Y-79649999D01*
G75*
G02*
X99299999Y-79400000I249999J0D01*
G01*
X100200001Y-79400000D01*
G75*
G02*
X100450000Y-79649999I0J-249999D01*
G01*
X100450000Y-80350001D01*
G75*
G02*
X100200001Y-80600000I-249999J0D01*
G01*
G37*
G36*
G01*
X100200001Y-82600000D02*
X99299999Y-82600000D01*
G75*
G02*
X99050000Y-82350001I0J249999D01*
G01*
X99050000Y-81649999D01*
G75*
G02*
X99299999Y-81400000I249999J0D01*
G01*
X100200001Y-81400000D01*
G75*
G02*
X100450000Y-81649999I0J-249999D01*
G01*
X100450000Y-82350001D01*
G75*
G02*
X100200001Y-82600000I-249999J0D01*
G01*
G37*
G36*
G01*
X98100000Y-92400001D02*
X98100000Y-91499999D01*
G75*
G02*
X98349999Y-91250000I249999J0D01*
G01*
X99050001Y-91250000D01*
G75*
G02*
X99300000Y-91499999I0J-249999D01*
G01*
X99300000Y-92400001D01*
G75*
G02*
X99050001Y-92650000I-249999J0D01*
G01*
X98349999Y-92650000D01*
G75*
G02*
X98100000Y-92400001I0J249999D01*
G01*
G37*
G36*
G01*
X96100000Y-92400001D02*
X96100000Y-91499999D01*
G75*
G02*
X96349999Y-91250000I249999J0D01*
G01*
X97050001Y-91250000D01*
G75*
G02*
X97300000Y-91499999I0J-249999D01*
G01*
X97300000Y-92400001D01*
G75*
G02*
X97050001Y-92650000I-249999J0D01*
G01*
X96349999Y-92650000D01*
G75*
G02*
X96100000Y-92400001I0J249999D01*
G01*
G37*
G36*
G01*
X98150000Y-94400001D02*
X98150000Y-93499999D01*
G75*
G02*
X98399999Y-93250000I249999J0D01*
G01*
X99100001Y-93250000D01*
G75*
G02*
X99350000Y-93499999I0J-249999D01*
G01*
X99350000Y-94400001D01*
G75*
G02*
X99100001Y-94650000I-249999J0D01*
G01*
X98399999Y-94650000D01*
G75*
G02*
X98150000Y-94400001I0J249999D01*
G01*
G37*
G36*
G01*
X96150000Y-94400001D02*
X96150000Y-93499999D01*
G75*
G02*
X96399999Y-93250000I249999J0D01*
G01*
X97100001Y-93250000D01*
G75*
G02*
X97350000Y-93499999I0J-249999D01*
G01*
X97350000Y-94400001D01*
G75*
G02*
X97100001Y-94650000I-249999J0D01*
G01*
X96399999Y-94650000D01*
G75*
G02*
X96150000Y-94400001I0J249999D01*
G01*
G37*
G36*
G01*
X70850000Y-98050001D02*
X70850000Y-97149999D01*
G75*
G02*
X71099999Y-96900000I249999J0D01*
G01*
X71800001Y-96900000D01*
G75*
G02*
X72050000Y-97149999I0J-249999D01*
G01*
X72050000Y-98050001D01*
G75*
G02*
X71800001Y-98300000I-249999J0D01*
G01*
X71099999Y-98300000D01*
G75*
G02*
X70850000Y-98050001I0J249999D01*
G01*
G37*
G36*
G01*
X68850000Y-98050001D02*
X68850000Y-97149999D01*
G75*
G02*
X69099999Y-96900000I249999J0D01*
G01*
X69800001Y-96900000D01*
G75*
G02*
X70050000Y-97149999I0J-249999D01*
G01*
X70050000Y-98050001D01*
G75*
G02*
X69800001Y-98300000I-249999J0D01*
G01*
X69099999Y-98300000D01*
G75*
G02*
X68850000Y-98050001I0J249999D01*
G01*
G37*
G36*
G01*
X67099999Y-98950000D02*
X68000001Y-98950000D01*
G75*
G02*
X68250000Y-99199999I0J-249999D01*
G01*
X68250000Y-99900001D01*
G75*
G02*
X68000001Y-100150000I-249999J0D01*
G01*
X67099999Y-100150000D01*
G75*
G02*
X66850000Y-99900001I0J249999D01*
G01*
X66850000Y-99199999D01*
G75*
G02*
X67099999Y-98950000I249999J0D01*
G01*
G37*
G36*
G01*
X67099999Y-96950000D02*
X68000001Y-96950000D01*
G75*
G02*
X68250000Y-97199999I0J-249999D01*
G01*
X68250000Y-97900001D01*
G75*
G02*
X68000001Y-98150000I-249999J0D01*
G01*
X67099999Y-98150000D01*
G75*
G02*
X66850000Y-97900001I0J249999D01*
G01*
X66850000Y-97199999D01*
G75*
G02*
X67099999Y-96950000I249999J0D01*
G01*
G37*
G36*
G01*
X68050000Y-85599999D02*
X68050000Y-86500001D01*
G75*
G02*
X67800001Y-86750000I-249999J0D01*
G01*
X67099999Y-86750000D01*
G75*
G02*
X66850000Y-86500001I0J249999D01*
G01*
X66850000Y-85599999D01*
G75*
G02*
X67099999Y-85350000I249999J0D01*
G01*
X67800001Y-85350000D01*
G75*
G02*
X68050000Y-85599999I0J-249999D01*
G01*
G37*
G36*
G01*
X70050000Y-85599999D02*
X70050000Y-86500001D01*
G75*
G02*
X69800001Y-86750000I-249999J0D01*
G01*
X69099999Y-86750000D01*
G75*
G02*
X68850000Y-86500001I0J249999D01*
G01*
X68850000Y-85599999D01*
G75*
G02*
X69099999Y-85350000I249999J0D01*
G01*
X69800001Y-85350000D01*
G75*
G02*
X70050000Y-85599999I0J-249999D01*
G01*
G37*
G36*
G01*
X68850000Y-88500001D02*
X68850000Y-87599999D01*
G75*
G02*
X69099999Y-87350000I249999J0D01*
G01*
X69800001Y-87350000D01*
G75*
G02*
X70050000Y-87599999I0J-249999D01*
G01*
X70050000Y-88500001D01*
G75*
G02*
X69800001Y-88750000I-249999J0D01*
G01*
X69099999Y-88750000D01*
G75*
G02*
X68850000Y-88500001I0J249999D01*
G01*
G37*
G36*
G01*
X66850000Y-88500001D02*
X66850000Y-87599999D01*
G75*
G02*
X67099999Y-87350000I249999J0D01*
G01*
X67800001Y-87350000D01*
G75*
G02*
X68050000Y-87599999I0J-249999D01*
G01*
X68050000Y-88500001D01*
G75*
G02*
X67800001Y-88750000I-249999J0D01*
G01*
X67099999Y-88750000D01*
G75*
G02*
X66850000Y-88500001I0J249999D01*
G01*
G37*
G36*
G01*
X73500001Y-90600000D02*
X72599999Y-90600000D01*
G75*
G02*
X72350000Y-90350001I0J249999D01*
G01*
X72350000Y-89649999D01*
G75*
G02*
X72599999Y-89400000I249999J0D01*
G01*
X73500001Y-89400000D01*
G75*
G02*
X73750000Y-89649999I0J-249999D01*
G01*
X73750000Y-90350001D01*
G75*
G02*
X73500001Y-90600000I-249999J0D01*
G01*
G37*
G36*
G01*
X73500001Y-92600000D02*
X72599999Y-92600000D01*
G75*
G02*
X72350000Y-92350001I0J249999D01*
G01*
X72350000Y-91649999D01*
G75*
G02*
X72599999Y-91400000I249999J0D01*
G01*
X73500001Y-91400000D01*
G75*
G02*
X73750000Y-91649999I0J-249999D01*
G01*
X73750000Y-92350001D01*
G75*
G02*
X73500001Y-92600000I-249999J0D01*
G01*
G37*
G36*
G01*
X87700000Y-79415000D02*
X87700000Y-79715000D01*
G75*
G02*
X87550000Y-79865000I-150000J0D01*
G01*
X85900000Y-79865000D01*
G75*
G02*
X85750000Y-79715000I0J150000D01*
G01*
X85750000Y-79415000D01*
G75*
G02*
X85900000Y-79265000I150000J0D01*
G01*
X87550000Y-79265000D01*
G75*
G02*
X87700000Y-79415000I0J-150000D01*
G01*
G37*
G36*
G01*
X87700000Y-80685000D02*
X87700000Y-80985000D01*
G75*
G02*
X87550000Y-81135000I-150000J0D01*
G01*
X85900000Y-81135000D01*
G75*
G02*
X85750000Y-80985000I0J150000D01*
G01*
X85750000Y-80685000D01*
G75*
G02*
X85900000Y-80535000I150000J0D01*
G01*
X87550000Y-80535000D01*
G75*
G02*
X87700000Y-80685000I0J-150000D01*
G01*
G37*
G36*
G01*
X87700000Y-81955000D02*
X87700000Y-82255000D01*
G75*
G02*
X87550000Y-82405000I-150000J0D01*
G01*
X85900000Y-82405000D01*
G75*
G02*
X85750000Y-82255000I0J150000D01*
G01*
X85750000Y-81955000D01*
G75*
G02*
X85900000Y-81805000I150000J0D01*
G01*
X87550000Y-81805000D01*
G75*
G02*
X87700000Y-81955000I0J-150000D01*
G01*
G37*
G36*
G01*
X87700000Y-83225000D02*
X87700000Y-83525000D01*
G75*
G02*
X87550000Y-83675000I-150000J0D01*
G01*
X85900000Y-83675000D01*
G75*
G02*
X85750000Y-83525000I0J150000D01*
G01*
X85750000Y-83225000D01*
G75*
G02*
X85900000Y-83075000I150000J0D01*
G01*
X87550000Y-83075000D01*
G75*
G02*
X87700000Y-83225000I0J-150000D01*
G01*
G37*
G36*
G01*
X92650000Y-83225000D02*
X92650000Y-83525000D01*
G75*
G02*
X92500000Y-83675000I-150000J0D01*
G01*
X90850000Y-83675000D01*
G75*
G02*
X90700000Y-83525000I0J150000D01*
G01*
X90700000Y-83225000D01*
G75*
G02*
X90850000Y-83075000I150000J0D01*
G01*
X92500000Y-83075000D01*
G75*
G02*
X92650000Y-83225000I0J-150000D01*
G01*
G37*
G36*
G01*
X92650000Y-81955000D02*
X92650000Y-82255000D01*
G75*
G02*
X92500000Y-82405000I-150000J0D01*
G01*
X90850000Y-82405000D01*
G75*
G02*
X90700000Y-82255000I0J150000D01*
G01*
X90700000Y-81955000D01*
G75*
G02*
X90850000Y-81805000I150000J0D01*
G01*
X92500000Y-81805000D01*
G75*
G02*
X92650000Y-81955000I0J-150000D01*
G01*
G37*
G36*
G01*
X92650000Y-80685000D02*
X92650000Y-80985000D01*
G75*
G02*
X92500000Y-81135000I-150000J0D01*
G01*
X90850000Y-81135000D01*
G75*
G02*
X90700000Y-80985000I0J150000D01*
G01*
X90700000Y-80685000D01*
G75*
G02*
X90850000Y-80535000I150000J0D01*
G01*
X92500000Y-80535000D01*
G75*
G02*
X92650000Y-80685000I0J-150000D01*
G01*
G37*
G36*
G01*
X92650000Y-79415000D02*
X92650000Y-79715000D01*
G75*
G02*
X92500000Y-79865000I-150000J0D01*
G01*
X90850000Y-79865000D01*
G75*
G02*
X90700000Y-79715000I0J150000D01*
G01*
X90700000Y-79415000D01*
G75*
G02*
X90850000Y-79265000I150000J0D01*
G01*
X92500000Y-79265000D01*
G75*
G02*
X92650000Y-79415000I0J-150000D01*
G01*
G37*
G36*
G01*
X85725000Y-89740000D02*
X85725000Y-89440000D01*
G75*
G02*
X85875000Y-89290000I150000J0D01*
G01*
X87525000Y-89290000D01*
G75*
G02*
X87675000Y-89440000I0J-150000D01*
G01*
X87675000Y-89740000D01*
G75*
G02*
X87525000Y-89890000I-150000J0D01*
G01*
X85875000Y-89890000D01*
G75*
G02*
X85725000Y-89740000I0J150000D01*
G01*
G37*
G36*
G01*
X85725000Y-88470000D02*
X85725000Y-88170000D01*
G75*
G02*
X85875000Y-88020000I150000J0D01*
G01*
X87525000Y-88020000D01*
G75*
G02*
X87675000Y-88170000I0J-150000D01*
G01*
X87675000Y-88470000D01*
G75*
G02*
X87525000Y-88620000I-150000J0D01*
G01*
X85875000Y-88620000D01*
G75*
G02*
X85725000Y-88470000I0J150000D01*
G01*
G37*
G36*
G01*
X85725000Y-87200000D02*
X85725000Y-86900000D01*
G75*
G02*
X85875000Y-86750000I150000J0D01*
G01*
X87525000Y-86750000D01*
G75*
G02*
X87675000Y-86900000I0J-150000D01*
G01*
X87675000Y-87200000D01*
G75*
G02*
X87525000Y-87350000I-150000J0D01*
G01*
X85875000Y-87350000D01*
G75*
G02*
X85725000Y-87200000I0J150000D01*
G01*
G37*
G36*
G01*
X85725000Y-85930000D02*
X85725000Y-85630000D01*
G75*
G02*
X85875000Y-85480000I150000J0D01*
G01*
X87525000Y-85480000D01*
G75*
G02*
X87675000Y-85630000I0J-150000D01*
G01*
X87675000Y-85930000D01*
G75*
G02*
X87525000Y-86080000I-150000J0D01*
G01*
X85875000Y-86080000D01*
G75*
G02*
X85725000Y-85930000I0J150000D01*
G01*
G37*
G36*
G01*
X80775000Y-85930000D02*
X80775000Y-85630000D01*
G75*
G02*
X80925000Y-85480000I150000J0D01*
G01*
X82575000Y-85480000D01*
G75*
G02*
X82725000Y-85630000I0J-150000D01*
G01*
X82725000Y-85930000D01*
G75*
G02*
X82575000Y-86080000I-150000J0D01*
G01*
X80925000Y-86080000D01*
G75*
G02*
X80775000Y-85930000I0J150000D01*
G01*
G37*
G36*
G01*
X80775000Y-87200000D02*
X80775000Y-86900000D01*
G75*
G02*
X80925000Y-86750000I150000J0D01*
G01*
X82575000Y-86750000D01*
G75*
G02*
X82725000Y-86900000I0J-150000D01*
G01*
X82725000Y-87200000D01*
G75*
G02*
X82575000Y-87350000I-150000J0D01*
G01*
X80925000Y-87350000D01*
G75*
G02*
X80775000Y-87200000I0J150000D01*
G01*
G37*
G36*
G01*
X80775000Y-88470000D02*
X80775000Y-88170000D01*
G75*
G02*
X80925000Y-88020000I150000J0D01*
G01*
X82575000Y-88020000D01*
G75*
G02*
X82725000Y-88170000I0J-150000D01*
G01*
X82725000Y-88470000D01*
G75*
G02*
X82575000Y-88620000I-150000J0D01*
G01*
X80925000Y-88620000D01*
G75*
G02*
X80775000Y-88470000I0J150000D01*
G01*
G37*
G36*
G01*
X80775000Y-89740000D02*
X80775000Y-89440000D01*
G75*
G02*
X80925000Y-89290000I150000J0D01*
G01*
X82575000Y-89290000D01*
G75*
G02*
X82725000Y-89440000I0J-150000D01*
G01*
X82725000Y-89740000D01*
G75*
G02*
X82575000Y-89890000I-150000J0D01*
G01*
X80925000Y-89890000D01*
G75*
G02*
X80775000Y-89740000I0J150000D01*
G01*
G37*
G36*
G01*
X98040000Y-78965000D02*
X97740000Y-78965000D01*
G75*
G02*
X97590000Y-78815000I0J150000D01*
G01*
X97590000Y-77165000D01*
G75*
G02*
X97740000Y-77015000I150000J0D01*
G01*
X98040000Y-77015000D01*
G75*
G02*
X98190000Y-77165000I0J-150000D01*
G01*
X98190000Y-78815000D01*
G75*
G02*
X98040000Y-78965000I-150000J0D01*
G01*
G37*
G36*
G01*
X96770000Y-78965000D02*
X96470000Y-78965000D01*
G75*
G02*
X96320000Y-78815000I0J150000D01*
G01*
X96320000Y-77165000D01*
G75*
G02*
X96470000Y-77015000I150000J0D01*
G01*
X96770000Y-77015000D01*
G75*
G02*
X96920000Y-77165000I0J-150000D01*
G01*
X96920000Y-78815000D01*
G75*
G02*
X96770000Y-78965000I-150000J0D01*
G01*
G37*
G36*
G01*
X95500000Y-78965000D02*
X95200000Y-78965000D01*
G75*
G02*
X95050000Y-78815000I0J150000D01*
G01*
X95050000Y-77165000D01*
G75*
G02*
X95200000Y-77015000I150000J0D01*
G01*
X95500000Y-77015000D01*
G75*
G02*
X95650000Y-77165000I0J-150000D01*
G01*
X95650000Y-78815000D01*
G75*
G02*
X95500000Y-78965000I-150000J0D01*
G01*
G37*
G36*
G01*
X94230000Y-78965000D02*
X93930000Y-78965000D01*
G75*
G02*
X93780000Y-78815000I0J150000D01*
G01*
X93780000Y-77165000D01*
G75*
G02*
X93930000Y-77015000I150000J0D01*
G01*
X94230000Y-77015000D01*
G75*
G02*
X94380000Y-77165000I0J-150000D01*
G01*
X94380000Y-78815000D01*
G75*
G02*
X94230000Y-78965000I-150000J0D01*
G01*
G37*
G36*
G01*
X94230000Y-83915000D02*
X93930000Y-83915000D01*
G75*
G02*
X93780000Y-83765000I0J150000D01*
G01*
X93780000Y-82115000D01*
G75*
G02*
X93930000Y-81965000I150000J0D01*
G01*
X94230000Y-81965000D01*
G75*
G02*
X94380000Y-82115000I0J-150000D01*
G01*
X94380000Y-83765000D01*
G75*
G02*
X94230000Y-83915000I-150000J0D01*
G01*
G37*
G36*
G01*
X95500000Y-83915000D02*
X95200000Y-83915000D01*
G75*
G02*
X95050000Y-83765000I0J150000D01*
G01*
X95050000Y-82115000D01*
G75*
G02*
X95200000Y-81965000I150000J0D01*
G01*
X95500000Y-81965000D01*
G75*
G02*
X95650000Y-82115000I0J-150000D01*
G01*
X95650000Y-83765000D01*
G75*
G02*
X95500000Y-83915000I-150000J0D01*
G01*
G37*
G36*
G01*
X96770000Y-83915000D02*
X96470000Y-83915000D01*
G75*
G02*
X96320000Y-83765000I0J150000D01*
G01*
X96320000Y-82115000D01*
G75*
G02*
X96470000Y-81965000I150000J0D01*
G01*
X96770000Y-81965000D01*
G75*
G02*
X96920000Y-82115000I0J-150000D01*
G01*
X96920000Y-83765000D01*
G75*
G02*
X96770000Y-83915000I-150000J0D01*
G01*
G37*
G36*
G01*
X98040000Y-83915000D02*
X97740000Y-83915000D01*
G75*
G02*
X97590000Y-83765000I0J150000D01*
G01*
X97590000Y-82115000D01*
G75*
G02*
X97740000Y-81965000I150000J0D01*
G01*
X98040000Y-81965000D01*
G75*
G02*
X98190000Y-82115000I0J-150000D01*
G01*
X98190000Y-83765000D01*
G75*
G02*
X98040000Y-83915000I-150000J0D01*
G01*
G37*
G36*
G01*
X75460000Y-90175000D02*
X75760000Y-90175000D01*
G75*
G02*
X75910000Y-90325000I0J-150000D01*
G01*
X75910000Y-91975000D01*
G75*
G02*
X75760000Y-92125000I-150000J0D01*
G01*
X75460000Y-92125000D01*
G75*
G02*
X75310000Y-91975000I0J150000D01*
G01*
X75310000Y-90325000D01*
G75*
G02*
X75460000Y-90175000I150000J0D01*
G01*
G37*
G36*
G01*
X76730000Y-90175000D02*
X77030000Y-90175000D01*
G75*
G02*
X77180000Y-90325000I0J-150000D01*
G01*
X77180000Y-91975000D01*
G75*
G02*
X77030000Y-92125000I-150000J0D01*
G01*
X76730000Y-92125000D01*
G75*
G02*
X76580000Y-91975000I0J150000D01*
G01*
X76580000Y-90325000D01*
G75*
G02*
X76730000Y-90175000I150000J0D01*
G01*
G37*
G36*
G01*
X78000000Y-90175000D02*
X78300000Y-90175000D01*
G75*
G02*
X78450000Y-90325000I0J-150000D01*
G01*
X78450000Y-91975000D01*
G75*
G02*
X78300000Y-92125000I-150000J0D01*
G01*
X78000000Y-92125000D01*
G75*
G02*
X77850000Y-91975000I0J150000D01*
G01*
X77850000Y-90325000D01*
G75*
G02*
X78000000Y-90175000I150000J0D01*
G01*
G37*
G36*
G01*
X79270000Y-90175000D02*
X79570000Y-90175000D01*
G75*
G02*
X79720000Y-90325000I0J-150000D01*
G01*
X79720000Y-91975000D01*
G75*
G02*
X79570000Y-92125000I-150000J0D01*
G01*
X79270000Y-92125000D01*
G75*
G02*
X79120000Y-91975000I0J150000D01*
G01*
X79120000Y-90325000D01*
G75*
G02*
X79270000Y-90175000I150000J0D01*
G01*
G37*
G36*
G01*
X79270000Y-85225000D02*
X79570000Y-85225000D01*
G75*
G02*
X79720000Y-85375000I0J-150000D01*
G01*
X79720000Y-87025000D01*
G75*
G02*
X79570000Y-87175000I-150000J0D01*
G01*
X79270000Y-87175000D01*
G75*
G02*
X79120000Y-87025000I0J150000D01*
G01*
X79120000Y-85375000D01*
G75*
G02*
X79270000Y-85225000I150000J0D01*
G01*
G37*
G36*
G01*
X78000000Y-85225000D02*
X78300000Y-85225000D01*
G75*
G02*
X78450000Y-85375000I0J-150000D01*
G01*
X78450000Y-87025000D01*
G75*
G02*
X78300000Y-87175000I-150000J0D01*
G01*
X78000000Y-87175000D01*
G75*
G02*
X77850000Y-87025000I0J150000D01*
G01*
X77850000Y-85375000D01*
G75*
G02*
X78000000Y-85225000I150000J0D01*
G01*
G37*
G36*
G01*
X76730000Y-85225000D02*
X77030000Y-85225000D01*
G75*
G02*
X77180000Y-85375000I0J-150000D01*
G01*
X77180000Y-87025000D01*
G75*
G02*
X77030000Y-87175000I-150000J0D01*
G01*
X76730000Y-87175000D01*
G75*
G02*
X76580000Y-87025000I0J150000D01*
G01*
X76580000Y-85375000D01*
G75*
G02*
X76730000Y-85225000I150000J0D01*
G01*
G37*
G36*
G01*
X75460000Y-85225000D02*
X75760000Y-85225000D01*
G75*
G02*
X75910000Y-85375000I0J-150000D01*
G01*
X75910000Y-87025000D01*
G75*
G02*
X75760000Y-87175000I-150000J0D01*
G01*
X75460000Y-87175000D01*
G75*
G02*
X75310000Y-87025000I0J150000D01*
G01*
X75310000Y-85375000D01*
G75*
G02*
X75460000Y-85225000I150000J0D01*
G01*
G37*
D19*
X107797020Y-72181220D03*
X107797020Y-69641220D03*
X110337020Y-72181220D03*
X110337020Y-69641220D03*
X102717020Y-69641220D03*
X102717020Y-72181220D03*
D20*
X74777020Y-72181220D03*
D19*
X74777020Y-69641220D03*
X77317020Y-72181220D03*
X77317020Y-69641220D03*
X79857020Y-72181220D03*
X79857020Y-69641220D03*
X82397020Y-72181220D03*
X82397020Y-69641220D03*
X84937020Y-72181220D03*
X84937020Y-69641220D03*
X87477020Y-72181220D03*
X87477020Y-69641220D03*
X90017020Y-72181220D03*
X90017020Y-69641220D03*
X92557020Y-72181220D03*
X92557020Y-69641220D03*
X95097020Y-72181220D03*
X95097020Y-69641220D03*
X97637020Y-72181220D03*
X97637020Y-69641220D03*
X100177020Y-72181220D03*
X100177020Y-69641220D03*
X105257020Y-72181220D03*
X105257020Y-69641220D03*
X112877020Y-69641220D03*
X112877020Y-72181220D03*
X115417020Y-69641220D03*
X115417020Y-72181220D03*
X117957020Y-69641220D03*
X117957020Y-72181220D03*
X120497020Y-69641220D03*
X120497020Y-72181220D03*
X123037020Y-69641220D03*
X123037020Y-72181220D03*
D21*
X69907020Y-70911220D03*
X127907020Y-70911220D03*
X69907020Y-119911220D03*
X127907020Y-119911220D03*
D22*
X110500000Y-116900000D03*
D23*
X105500000Y-116900000D03*
D24*
X111759560Y-111513660D03*
X109259560Y-111513660D03*
X107259560Y-111513660D03*
D25*
X104759560Y-111513660D03*
D26*
X101689560Y-114223660D03*
X114829560Y-114223660D03*
D27*
X73050400Y-104528620D03*
D28*
X73050400Y-99528620D03*
D29*
X67861180Y-116158180D03*
X67861180Y-109008180D03*
D30*
X75399880Y-117599400D03*
X81179880Y-117599400D03*
D31*
X82609880Y-121289400D03*
X73969880Y-121289400D03*
D32*
X82609880Y-117119400D03*
X73969880Y-117119400D03*
G36*
G01*
X93325000Y-96849999D02*
X93325000Y-99750001D01*
G75*
G02*
X93075001Y-100000000I-249999J0D01*
G01*
X92274999Y-100000000D01*
G75*
G02*
X92025000Y-99750001I0J249999D01*
G01*
X92025000Y-96849999D01*
G75*
G02*
X92274999Y-96600000I249999J0D01*
G01*
X93075001Y-96600000D01*
G75*
G02*
X93325000Y-96849999I0J-249999D01*
G01*
G37*
G36*
G01*
X97775000Y-96849999D02*
X97775000Y-99750001D01*
G75*
G02*
X97525001Y-100000000I-249999J0D01*
G01*
X96724999Y-100000000D01*
G75*
G02*
X96475000Y-99750001I0J249999D01*
G01*
X96475000Y-96849999D01*
G75*
G02*
X96724999Y-96600000I249999J0D01*
G01*
X97525001Y-96600000D01*
G75*
G02*
X97775000Y-96849999I0J-249999D01*
G01*
G37*
G36*
G01*
X104915000Y-93602500D02*
X106165000Y-93602500D01*
G75*
G02*
X106415000Y-93852500I0J-250000D01*
G01*
X106415000Y-94777500D01*
G75*
G02*
X106165000Y-95027500I-250000J0D01*
G01*
X104915000Y-95027500D01*
G75*
G02*
X104665000Y-94777500I0J250000D01*
G01*
X104665000Y-93852500D01*
G75*
G02*
X104915000Y-93602500I250000J0D01*
G01*
G37*
G36*
G01*
X104915000Y-90627500D02*
X106165000Y-90627500D01*
G75*
G02*
X106415000Y-90877500I0J-250000D01*
G01*
X106415000Y-91802500D01*
G75*
G02*
X106165000Y-92052500I-250000J0D01*
G01*
X104915000Y-92052500D01*
G75*
G02*
X104665000Y-91802500I0J250000D01*
G01*
X104665000Y-90877500D01*
G75*
G02*
X104915000Y-90627500I250000J0D01*
G01*
G37*
G36*
G01*
X72875000Y-96212500D02*
X74125000Y-96212500D01*
G75*
G02*
X74375000Y-96462500I0J-250000D01*
G01*
X74375000Y-97387500D01*
G75*
G02*
X74125000Y-97637500I-250000J0D01*
G01*
X72875000Y-97637500D01*
G75*
G02*
X72625000Y-97387500I0J250000D01*
G01*
X72625000Y-96462500D01*
G75*
G02*
X72875000Y-96212500I250000J0D01*
G01*
G37*
G36*
G01*
X72875000Y-93237500D02*
X74125000Y-93237500D01*
G75*
G02*
X74375000Y-93487500I0J-250000D01*
G01*
X74375000Y-94412500D01*
G75*
G02*
X74125000Y-94662500I-250000J0D01*
G01*
X72875000Y-94662500D01*
G75*
G02*
X72625000Y-94412500I0J250000D01*
G01*
X72625000Y-93487500D01*
G75*
G02*
X72875000Y-93237500I250000J0D01*
G01*
G37*
G36*
G01*
X94737500Y-85175000D02*
X94737500Y-86125000D01*
G75*
G02*
X94487500Y-86375000I-250000J0D01*
G01*
X93812500Y-86375000D01*
G75*
G02*
X93562500Y-86125000I0J250000D01*
G01*
X93562500Y-85175000D01*
G75*
G02*
X93812500Y-84925000I250000J0D01*
G01*
X94487500Y-84925000D01*
G75*
G02*
X94737500Y-85175000I0J-250000D01*
G01*
G37*
G36*
G01*
X96812500Y-85175000D02*
X96812500Y-86125000D01*
G75*
G02*
X96562500Y-86375000I-250000J0D01*
G01*
X95887500Y-86375000D01*
G75*
G02*
X95637500Y-86125000I0J250000D01*
G01*
X95637500Y-85175000D01*
G75*
G02*
X95887500Y-84925000I250000J0D01*
G01*
X96562500Y-84925000D01*
G75*
G02*
X96812500Y-85175000I0J-250000D01*
G01*
G37*
D33*
X74170000Y-77400000D03*
D34*
X82500000Y-93400000D03*
X137700000Y-77400000D03*
M02*
