%TF.GenerationSoftware,KiCad,Pcbnew,5.1.10-88a1d61d58~90~ubuntu20.04.1*%
%TF.CreationDate,2021-08-05T17:18:09+03:00*%
%TF.ProjectId,PiUPS,50695550-532e-46b6-9963-61645f706362,rev?*%
%TF.SameCoordinates,Original*%
%TF.FileFunction,Legend,Top*%
%TF.FilePolarity,Positive*%
%FSLAX46Y46*%
G04 Gerber Fmt 4.6, Leading zero omitted, Abs format (unit mm)*
G04 Created by KiCad (PCBNEW 5.1.10-88a1d61d58~90~ubuntu20.04.1) date 2021-08-05 17:18:09*
%MOMM*%
%LPD*%
G01*
G04 APERTURE LIST*
%ADD10C,0.120000*%
%ADD11C,0.127000*%
%ADD12C,0.200000*%
%ADD13C,0.100000*%
G04 APERTURE END LIST*
D10*
%TO.C,C23*%
X147458750Y-122453750D02*
X148246250Y-122453750D01*
X147852500Y-122847500D02*
X147852500Y-122060000D01*
X152045563Y-121820000D02*
X153110000Y-120755563D01*
X147354437Y-121820000D02*
X146290000Y-120755563D01*
X147354437Y-121820000D02*
X148640000Y-121820000D01*
X152045563Y-121820000D02*
X150760000Y-121820000D01*
X153110000Y-120755563D02*
X153110000Y-115000000D01*
X146290000Y-120755563D02*
X146290000Y-115000000D01*
X146290000Y-115000000D02*
X148640000Y-115000000D01*
X153110000Y-115000000D02*
X150760000Y-115000000D01*
%TO.C,C22*%
X132728750Y-122453750D02*
X133516250Y-122453750D01*
X133122500Y-122847500D02*
X133122500Y-122060000D01*
X137315563Y-121820000D02*
X138380000Y-120755563D01*
X132624437Y-121820000D02*
X131560000Y-120755563D01*
X132624437Y-121820000D02*
X133910000Y-121820000D01*
X137315563Y-121820000D02*
X136030000Y-121820000D01*
X138380000Y-120755563D02*
X138380000Y-115000000D01*
X131560000Y-120755563D02*
X131560000Y-115000000D01*
X131560000Y-115000000D02*
X133910000Y-115000000D01*
X138380000Y-115000000D02*
X136030000Y-115000000D01*
%TO.C,C21*%
X140078750Y-122453750D02*
X140866250Y-122453750D01*
X140472500Y-122847500D02*
X140472500Y-122060000D01*
X144665563Y-121820000D02*
X145730000Y-120755563D01*
X139974437Y-121820000D02*
X138910000Y-120755563D01*
X139974437Y-121820000D02*
X141260000Y-121820000D01*
X144665563Y-121820000D02*
X143380000Y-121820000D01*
X145730000Y-120755563D02*
X145730000Y-115000000D01*
X138910000Y-120755563D02*
X138910000Y-115000000D01*
X138910000Y-115000000D02*
X141260000Y-115000000D01*
X145730000Y-115000000D02*
X143380000Y-115000000D01*
%TO.C,C7*%
X145010000Y-108648752D02*
X145010000Y-107226248D01*
X142290000Y-108648752D02*
X142290000Y-107226248D01*
%TO.C,C6*%
X141710000Y-108648752D02*
X141710000Y-107226248D01*
X138990000Y-108648752D02*
X138990000Y-107226248D01*
%TO.C,C5*%
X138425000Y-108648752D02*
X138425000Y-107226248D01*
X135705000Y-108648752D02*
X135705000Y-107226248D01*
D11*
%TO.C,U3*%
X131425000Y-103925000D02*
X131425000Y-103775000D01*
X131425000Y-103775000D02*
X132075000Y-103775000D01*
X134275000Y-103775000D02*
X134925000Y-103775000D01*
X134925000Y-103775000D02*
X134925000Y-103925000D01*
X131425000Y-108125000D02*
X131425000Y-108275000D01*
X131425000Y-108275000D02*
X132075000Y-108275000D01*
X134275000Y-108275000D02*
X134925000Y-108275000D01*
X134925000Y-108275000D02*
X134925000Y-108125000D01*
D12*
X132525000Y-103025000D02*
G75*
G03*
X132525000Y-103025000I-100000J0D01*
G01*
D10*
%TO.C,U2*%
X88310000Y-109590000D02*
X88785000Y-109590000D01*
X88785000Y-109590000D02*
X88785000Y-110065000D01*
X85040000Y-113810000D02*
X84565000Y-113810000D01*
X84565000Y-113810000D02*
X84565000Y-113335000D01*
X88310000Y-113810000D02*
X88785000Y-113810000D01*
X88785000Y-113810000D02*
X88785000Y-113335000D01*
X85040000Y-109590000D02*
X84565000Y-109590000D01*
%TO.C,SW2*%
X123775000Y-118225000D02*
X123775000Y-112425000D01*
X117275000Y-118325000D02*
X117275000Y-112325000D01*
X121825000Y-118425000D02*
X119225000Y-118425000D01*
X121825000Y-112225000D02*
X119225000Y-112225000D01*
X122825000Y-110225000D02*
X123825000Y-110225000D01*
X123825000Y-110225000D02*
X123825000Y-111225000D01*
%TO.C,R21*%
X106315000Y-106277064D02*
X106315000Y-105822936D01*
X107785000Y-106277064D02*
X107785000Y-105822936D01*
%TO.C,R19*%
X109785000Y-105822936D02*
X109785000Y-106277064D01*
X108315000Y-105822936D02*
X108315000Y-106277064D01*
%TO.C,R26*%
X111785000Y-105822936D02*
X111785000Y-106277064D01*
X110315000Y-105822936D02*
X110315000Y-106277064D01*
%TO.C,R16*%
X111622936Y-108215000D02*
X112077064Y-108215000D01*
X111622936Y-109685000D02*
X112077064Y-109685000D01*
%TO.C,R20*%
X108277064Y-109685000D02*
X107822936Y-109685000D01*
X108277064Y-108215000D02*
X107822936Y-108215000D01*
%TO.C,R24*%
X141410000Y-102572936D02*
X141410000Y-103027064D01*
X139940000Y-102572936D02*
X139940000Y-103027064D01*
%TO.C,R27*%
X137410000Y-102572936D02*
X137410000Y-103027064D01*
X135940000Y-102572936D02*
X135940000Y-103027064D01*
%TO.C,R5*%
X145752064Y-104435000D02*
X145297936Y-104435000D01*
X145752064Y-102965000D02*
X145297936Y-102965000D01*
%TO.C,R1*%
X141915000Y-103027064D02*
X141915000Y-102572936D01*
X143385000Y-103027064D02*
X143385000Y-102572936D01*
%TO.C,R25*%
X127365000Y-102052064D02*
X127365000Y-101597936D01*
X128835000Y-102052064D02*
X128835000Y-101597936D01*
%TO.C,R15*%
X86827064Y-122535000D02*
X86372936Y-122535000D01*
X86827064Y-121065000D02*
X86372936Y-121065000D01*
%TO.C,R13*%
X86827064Y-120535000D02*
X86372936Y-120535000D01*
X86827064Y-119065000D02*
X86372936Y-119065000D01*
%TO.C,R31*%
X92615000Y-120377064D02*
X92615000Y-119922936D01*
X94085000Y-120377064D02*
X94085000Y-119922936D01*
%TO.C,R28*%
X92615000Y-116577064D02*
X92615000Y-116122936D01*
X94085000Y-116577064D02*
X94085000Y-116122936D01*
%TO.C,R33*%
X90065000Y-121127064D02*
X90065000Y-120672936D01*
X91535000Y-121127064D02*
X91535000Y-120672936D01*
%TO.C,R18*%
X87235000Y-116572936D02*
X87235000Y-117027064D01*
X85765000Y-116572936D02*
X85765000Y-117027064D01*
%TO.C,R9*%
X79472936Y-112665000D02*
X79927064Y-112665000D01*
X79472936Y-114135000D02*
X79927064Y-114135000D01*
%TO.C,R11*%
X79472936Y-110665000D02*
X79927064Y-110665000D01*
X79472936Y-112135000D02*
X79927064Y-112135000D01*
%TO.C,R32*%
X73927064Y-109735000D02*
X73472936Y-109735000D01*
X73927064Y-108265000D02*
X73472936Y-108265000D01*
%TO.C,L2*%
X113975000Y-99675000D02*
X113975000Y-96475000D01*
X113975000Y-96475000D02*
X124575000Y-96475000D01*
X124575000Y-96475000D02*
X124575000Y-99675000D01*
X124575000Y-103875000D02*
X124575000Y-107075000D01*
X124575000Y-107075000D02*
X113975000Y-107075000D01*
X113975000Y-107075000D02*
X113975000Y-103875000D01*
%TO.C,L1*%
X100450000Y-108000000D02*
X100450000Y-111200000D01*
X100450000Y-111200000D02*
X89850000Y-111200000D01*
X89850000Y-111200000D02*
X89850000Y-108000000D01*
X89850000Y-103800000D02*
X89850000Y-100600000D01*
X89850000Y-100600000D02*
X100450000Y-100600000D01*
X100450000Y-100600000D02*
X100450000Y-103800000D01*
%TO.C,J5*%
X102850000Y-110600000D02*
X102850000Y-123200000D01*
X102850000Y-123200000D02*
X113200000Y-123200000D01*
X113200000Y-123200000D02*
X113200000Y-122250000D01*
X113200000Y-122250000D02*
X113700000Y-122500000D01*
X113700000Y-122500000D02*
X113700000Y-120600000D01*
X113700000Y-120600000D02*
X113700000Y-120550000D01*
X113700000Y-120550000D02*
X113200000Y-120800000D01*
X113200000Y-120800000D02*
X113200000Y-115400000D01*
X113200000Y-115400000D02*
X113700000Y-115700000D01*
X113700000Y-115700000D02*
X113700000Y-110600000D01*
X113700000Y-110600000D02*
X102850000Y-110600000D01*
%TO.C,J3*%
X104259560Y-110253660D02*
X105259560Y-110253660D01*
X101009560Y-124003660D02*
X101009560Y-124503660D01*
X102009560Y-124003660D02*
X101009560Y-124003660D01*
X102009560Y-116003660D02*
X102009560Y-124003660D01*
X102009560Y-110503660D02*
X102009560Y-112503660D01*
X114509560Y-110503660D02*
X102009560Y-110503660D01*
X114509560Y-112503660D02*
X114509560Y-110503660D01*
X114509560Y-124003660D02*
X114509560Y-116003660D01*
X115509560Y-124003660D02*
X114509560Y-124003660D01*
X115509560Y-124503660D02*
X115509560Y-124003660D01*
X101009560Y-124503660D02*
X115509560Y-124503660D01*
%TO.C,J6*%
X79350400Y-96878620D02*
X66750400Y-96878620D01*
X66750400Y-96878620D02*
X66750400Y-107228620D01*
X66750400Y-107228620D02*
X67700400Y-107228620D01*
X67700400Y-107228620D02*
X67450400Y-107728620D01*
X67450400Y-107728620D02*
X69350400Y-107728620D01*
X69350400Y-107728620D02*
X69400400Y-107728620D01*
X69400400Y-107728620D02*
X69150400Y-107228620D01*
X69150400Y-107228620D02*
X74550400Y-107228620D01*
X74550400Y-107228620D02*
X74250400Y-107728620D01*
X74250400Y-107728620D02*
X79350400Y-107728620D01*
X79350400Y-107728620D02*
X79350400Y-96878620D01*
%TO.C,J4*%
X70771180Y-108773180D02*
X70771180Y-109433180D01*
X69041180Y-108773180D02*
X70771180Y-108773180D01*
X66471180Y-116393180D02*
X66681180Y-116393180D01*
X66471180Y-108773180D02*
X66681180Y-108773180D01*
X69041180Y-116393180D02*
X70771180Y-116393180D01*
X70771180Y-116393180D02*
X70771180Y-115743180D01*
X71471180Y-110823180D02*
X71471180Y-111273180D01*
X71471180Y-110823180D02*
X71081180Y-110823180D01*
%TO.C,J1*%
X82759880Y-123889400D02*
X73819880Y-123889400D01*
X82759880Y-118379400D02*
X82759880Y-120179400D01*
X82759880Y-123889400D02*
X82759880Y-122429400D01*
X73819880Y-123889400D02*
X73819880Y-122429400D01*
X73819880Y-118379400D02*
X73819880Y-120179400D01*
%TO.C,F3*%
X105770000Y-105393748D02*
X105770000Y-108166252D01*
X102350000Y-105393748D02*
X102350000Y-108166252D01*
%TO.C,F2*%
X96286252Y-100010000D02*
X93513748Y-100010000D01*
X96286252Y-96590000D02*
X93513748Y-96590000D01*
%TO.C,D3*%
X90237500Y-114840000D02*
X87552500Y-114840000D01*
X87552500Y-114840000D02*
X87552500Y-116760000D01*
X87552500Y-116760000D02*
X90237500Y-116760000D01*
%TO.C,D2*%
X90237500Y-116840000D02*
X87552500Y-116840000D01*
X87552500Y-116840000D02*
X87552500Y-118760000D01*
X87552500Y-118760000D02*
X90237500Y-118760000D01*
%TO.C,C17*%
X141351248Y-99165000D02*
X141873752Y-99165000D01*
X141351248Y-100635000D02*
X141873752Y-100635000D01*
%TO.C,C14*%
X137940000Y-103023752D02*
X137940000Y-102501248D01*
X139410000Y-103023752D02*
X139410000Y-102501248D01*
%TO.C,C12*%
X132451248Y-100590000D02*
X133873752Y-100590000D01*
X132451248Y-102410000D02*
X133873752Y-102410000D01*
%TO.C,C16*%
X133011248Y-109045000D02*
X133533752Y-109045000D01*
X133011248Y-110515000D02*
X133533752Y-110515000D01*
%TO.C,C19*%
X127085000Y-106626248D02*
X127085000Y-107148752D01*
X125615000Y-106626248D02*
X125615000Y-107148752D01*
%TO.C,C11*%
X128210000Y-110601248D02*
X128210000Y-112023752D01*
X126390000Y-110601248D02*
X126390000Y-112023752D01*
%TO.C,C10*%
X125835000Y-110451248D02*
X125835000Y-110973752D01*
X124365000Y-110451248D02*
X124365000Y-110973752D01*
%TO.C,C9*%
X130610000Y-110601248D02*
X130610000Y-112023752D01*
X128790000Y-110601248D02*
X128790000Y-112023752D01*
%TO.C,C25*%
X151240000Y-112923752D02*
X151240000Y-111501248D01*
X153060000Y-112923752D02*
X153060000Y-111501248D01*
%TO.C,C24*%
X149165000Y-111873752D02*
X149165000Y-111351248D01*
X150635000Y-111873752D02*
X150635000Y-111351248D01*
%TO.C,C13*%
X81660000Y-99926248D02*
X81660000Y-101348752D01*
X79840000Y-99926248D02*
X79840000Y-101348752D01*
%TO.C,C3*%
X97661252Y-115910000D02*
X96238748Y-115910000D01*
X97661252Y-114090000D02*
X96238748Y-114090000D01*
%TO.C,C2*%
X97648752Y-113510000D02*
X96226248Y-113510000D01*
X97648752Y-111690000D02*
X96226248Y-111690000D01*
%TO.C,C15*%
X82798752Y-105285000D02*
X81376248Y-105285000D01*
X82798752Y-103465000D02*
X81376248Y-103465000D01*
%TO.C,C1*%
X87123752Y-105835000D02*
X86601248Y-105835000D01*
X87123752Y-104365000D02*
X86601248Y-104365000D01*
%TO.C,C4*%
X75973752Y-115110000D02*
X74551248Y-115110000D01*
X75973752Y-113290000D02*
X74551248Y-113290000D01*
%TO.C,C18*%
X81376248Y-105840000D02*
X82798752Y-105840000D01*
X81376248Y-107660000D02*
X82798752Y-107660000D01*
%TO.C,BT1*%
X71530000Y-81898920D02*
X67170000Y-81898920D01*
X71530000Y-95778920D02*
X71530000Y-88778920D01*
X148810000Y-95778920D02*
X71530000Y-95778920D01*
X148810000Y-88778920D02*
X148810000Y-95778920D01*
X71530000Y-74898920D02*
X71530000Y-81898920D01*
X148810000Y-74898920D02*
X71530000Y-74898920D01*
X148810000Y-81898920D02*
X148810000Y-74918920D01*
X153920000Y-79338920D02*
X151420000Y-79338920D01*
X66420000Y-79338920D02*
X68920000Y-79338920D01*
X67670000Y-80588920D02*
X67670000Y-78088920D01*
%TO.C,C23*%
D13*
X147414285Y-114664285D02*
X147385714Y-114692857D01*
X147300000Y-114721428D01*
X147242857Y-114721428D01*
X147157142Y-114692857D01*
X147100000Y-114635714D01*
X147071428Y-114578571D01*
X147042857Y-114464285D01*
X147042857Y-114378571D01*
X147071428Y-114264285D01*
X147100000Y-114207142D01*
X147157142Y-114150000D01*
X147242857Y-114121428D01*
X147300000Y-114121428D01*
X147385714Y-114150000D01*
X147414285Y-114178571D01*
X147642857Y-114178571D02*
X147671428Y-114150000D01*
X147728571Y-114121428D01*
X147871428Y-114121428D01*
X147928571Y-114150000D01*
X147957142Y-114178571D01*
X147985714Y-114235714D01*
X147985714Y-114292857D01*
X147957142Y-114378571D01*
X147614285Y-114721428D01*
X147985714Y-114721428D01*
X148185714Y-114121428D02*
X148557142Y-114121428D01*
X148357142Y-114350000D01*
X148442857Y-114350000D01*
X148500000Y-114378571D01*
X148528571Y-114407142D01*
X148557142Y-114464285D01*
X148557142Y-114607142D01*
X148528571Y-114664285D01*
X148500000Y-114692857D01*
X148442857Y-114721428D01*
X148271428Y-114721428D01*
X148214285Y-114692857D01*
X148185714Y-114664285D01*
%TO.C,C22*%
X132664285Y-114664285D02*
X132635714Y-114692857D01*
X132550000Y-114721428D01*
X132492857Y-114721428D01*
X132407142Y-114692857D01*
X132350000Y-114635714D01*
X132321428Y-114578571D01*
X132292857Y-114464285D01*
X132292857Y-114378571D01*
X132321428Y-114264285D01*
X132350000Y-114207142D01*
X132407142Y-114150000D01*
X132492857Y-114121428D01*
X132550000Y-114121428D01*
X132635714Y-114150000D01*
X132664285Y-114178571D01*
X132892857Y-114178571D02*
X132921428Y-114150000D01*
X132978571Y-114121428D01*
X133121428Y-114121428D01*
X133178571Y-114150000D01*
X133207142Y-114178571D01*
X133235714Y-114235714D01*
X133235714Y-114292857D01*
X133207142Y-114378571D01*
X132864285Y-114721428D01*
X133235714Y-114721428D01*
X133464285Y-114178571D02*
X133492857Y-114150000D01*
X133550000Y-114121428D01*
X133692857Y-114121428D01*
X133750000Y-114150000D01*
X133778571Y-114178571D01*
X133807142Y-114235714D01*
X133807142Y-114292857D01*
X133778571Y-114378571D01*
X133435714Y-114721428D01*
X133807142Y-114721428D01*
%TO.C,C21*%
X140014285Y-114664285D02*
X139985714Y-114692857D01*
X139900000Y-114721428D01*
X139842857Y-114721428D01*
X139757142Y-114692857D01*
X139700000Y-114635714D01*
X139671428Y-114578571D01*
X139642857Y-114464285D01*
X139642857Y-114378571D01*
X139671428Y-114264285D01*
X139700000Y-114207142D01*
X139757142Y-114150000D01*
X139842857Y-114121428D01*
X139900000Y-114121428D01*
X139985714Y-114150000D01*
X140014285Y-114178571D01*
X140242857Y-114178571D02*
X140271428Y-114150000D01*
X140328571Y-114121428D01*
X140471428Y-114121428D01*
X140528571Y-114150000D01*
X140557142Y-114178571D01*
X140585714Y-114235714D01*
X140585714Y-114292857D01*
X140557142Y-114378571D01*
X140214285Y-114721428D01*
X140585714Y-114721428D01*
X141157142Y-114721428D02*
X140814285Y-114721428D01*
X140985714Y-114721428D02*
X140985714Y-114121428D01*
X140928571Y-114207142D01*
X140871428Y-114264285D01*
X140814285Y-114292857D01*
%TO.C,C7*%
X143824285Y-111145000D02*
X143852857Y-111173571D01*
X143881428Y-111259285D01*
X143881428Y-111316428D01*
X143852857Y-111402142D01*
X143795714Y-111459285D01*
X143738571Y-111487857D01*
X143624285Y-111516428D01*
X143538571Y-111516428D01*
X143424285Y-111487857D01*
X143367142Y-111459285D01*
X143310000Y-111402142D01*
X143281428Y-111316428D01*
X143281428Y-111259285D01*
X143310000Y-111173571D01*
X143338571Y-111145000D01*
X143281428Y-110945000D02*
X143281428Y-110545000D01*
X143881428Y-110802142D01*
%TO.C,C6*%
X140564285Y-111095000D02*
X140592857Y-111123571D01*
X140621428Y-111209285D01*
X140621428Y-111266428D01*
X140592857Y-111352142D01*
X140535714Y-111409285D01*
X140478571Y-111437857D01*
X140364285Y-111466428D01*
X140278571Y-111466428D01*
X140164285Y-111437857D01*
X140107142Y-111409285D01*
X140050000Y-111352142D01*
X140021428Y-111266428D01*
X140021428Y-111209285D01*
X140050000Y-111123571D01*
X140078571Y-111095000D01*
X140021428Y-110580714D02*
X140021428Y-110695000D01*
X140050000Y-110752142D01*
X140078571Y-110780714D01*
X140164285Y-110837857D01*
X140278571Y-110866428D01*
X140507142Y-110866428D01*
X140564285Y-110837857D01*
X140592857Y-110809285D01*
X140621428Y-110752142D01*
X140621428Y-110637857D01*
X140592857Y-110580714D01*
X140564285Y-110552142D01*
X140507142Y-110523571D01*
X140364285Y-110523571D01*
X140307142Y-110552142D01*
X140278571Y-110580714D01*
X140250000Y-110637857D01*
X140250000Y-110752142D01*
X140278571Y-110809285D01*
X140307142Y-110837857D01*
X140364285Y-110866428D01*
%TO.C,C5*%
X137264285Y-111100000D02*
X137292857Y-111128571D01*
X137321428Y-111214285D01*
X137321428Y-111271428D01*
X137292857Y-111357142D01*
X137235714Y-111414285D01*
X137178571Y-111442857D01*
X137064285Y-111471428D01*
X136978571Y-111471428D01*
X136864285Y-111442857D01*
X136807142Y-111414285D01*
X136750000Y-111357142D01*
X136721428Y-111271428D01*
X136721428Y-111214285D01*
X136750000Y-111128571D01*
X136778571Y-111100000D01*
X136721428Y-110557142D02*
X136721428Y-110842857D01*
X137007142Y-110871428D01*
X136978571Y-110842857D01*
X136950000Y-110785714D01*
X136950000Y-110642857D01*
X136978571Y-110585714D01*
X137007142Y-110557142D01*
X137064285Y-110528571D01*
X137207142Y-110528571D01*
X137264285Y-110557142D01*
X137292857Y-110585714D01*
X137321428Y-110642857D01*
X137321428Y-110785714D01*
X137292857Y-110842857D01*
X137264285Y-110871428D01*
%TO.C,U3*%
X129942857Y-102971428D02*
X129942857Y-103457142D01*
X129971428Y-103514285D01*
X130000000Y-103542857D01*
X130057142Y-103571428D01*
X130171428Y-103571428D01*
X130228571Y-103542857D01*
X130257142Y-103514285D01*
X130285714Y-103457142D01*
X130285714Y-102971428D01*
X130514285Y-102971428D02*
X130885714Y-102971428D01*
X130685714Y-103200000D01*
X130771428Y-103200000D01*
X130828571Y-103228571D01*
X130857142Y-103257142D01*
X130885714Y-103314285D01*
X130885714Y-103457142D01*
X130857142Y-103514285D01*
X130828571Y-103542857D01*
X130771428Y-103571428D01*
X130600000Y-103571428D01*
X130542857Y-103542857D01*
X130514285Y-103514285D01*
%TO.C,U2*%
X84242857Y-108321428D02*
X84242857Y-108807142D01*
X84271428Y-108864285D01*
X84300000Y-108892857D01*
X84357142Y-108921428D01*
X84471428Y-108921428D01*
X84528571Y-108892857D01*
X84557142Y-108864285D01*
X84585714Y-108807142D01*
X84585714Y-108321428D01*
X84842857Y-108378571D02*
X84871428Y-108350000D01*
X84928571Y-108321428D01*
X85071428Y-108321428D01*
X85128571Y-108350000D01*
X85157142Y-108378571D01*
X85185714Y-108435714D01*
X85185714Y-108492857D01*
X85157142Y-108578571D01*
X84814285Y-108921428D01*
X85185714Y-108921428D01*
%TO.C,SW2*%
X124692857Y-116150000D02*
X124721428Y-116064285D01*
X124721428Y-115921428D01*
X124692857Y-115864285D01*
X124664285Y-115835714D01*
X124607142Y-115807142D01*
X124550000Y-115807142D01*
X124492857Y-115835714D01*
X124464285Y-115864285D01*
X124435714Y-115921428D01*
X124407142Y-116035714D01*
X124378571Y-116092857D01*
X124350000Y-116121428D01*
X124292857Y-116150000D01*
X124235714Y-116150000D01*
X124178571Y-116121428D01*
X124150000Y-116092857D01*
X124121428Y-116035714D01*
X124121428Y-115892857D01*
X124150000Y-115807142D01*
X124121428Y-115607142D02*
X124721428Y-115464285D01*
X124292857Y-115350000D01*
X124721428Y-115235714D01*
X124121428Y-115092857D01*
X124178571Y-114892857D02*
X124150000Y-114864285D01*
X124121428Y-114807142D01*
X124121428Y-114664285D01*
X124150000Y-114607142D01*
X124178571Y-114578571D01*
X124235714Y-114550000D01*
X124292857Y-114550000D01*
X124378571Y-114578571D01*
X124721428Y-114921428D01*
X124721428Y-114550000D01*
%TO.C,R21*%
X107321428Y-103685714D02*
X107035714Y-103885714D01*
X107321428Y-104028571D02*
X106721428Y-104028571D01*
X106721428Y-103800000D01*
X106750000Y-103742857D01*
X106778571Y-103714285D01*
X106835714Y-103685714D01*
X106921428Y-103685714D01*
X106978571Y-103714285D01*
X107007142Y-103742857D01*
X107035714Y-103800000D01*
X107035714Y-104028571D01*
X106778571Y-103457142D02*
X106750000Y-103428571D01*
X106721428Y-103371428D01*
X106721428Y-103228571D01*
X106750000Y-103171428D01*
X106778571Y-103142857D01*
X106835714Y-103114285D01*
X106892857Y-103114285D01*
X106978571Y-103142857D01*
X107321428Y-103485714D01*
X107321428Y-103114285D01*
X107321428Y-102542857D02*
X107321428Y-102885714D01*
X107321428Y-102714285D02*
X106721428Y-102714285D01*
X106807142Y-102771428D01*
X106864285Y-102828571D01*
X106892857Y-102885714D01*
%TO.C,R19*%
X109321428Y-103685714D02*
X109035714Y-103885714D01*
X109321428Y-104028571D02*
X108721428Y-104028571D01*
X108721428Y-103800000D01*
X108750000Y-103742857D01*
X108778571Y-103714285D01*
X108835714Y-103685714D01*
X108921428Y-103685714D01*
X108978571Y-103714285D01*
X109007142Y-103742857D01*
X109035714Y-103800000D01*
X109035714Y-104028571D01*
X109321428Y-103114285D02*
X109321428Y-103457142D01*
X109321428Y-103285714D02*
X108721428Y-103285714D01*
X108807142Y-103342857D01*
X108864285Y-103400000D01*
X108892857Y-103457142D01*
X109321428Y-102828571D02*
X109321428Y-102714285D01*
X109292857Y-102657142D01*
X109264285Y-102628571D01*
X109178571Y-102571428D01*
X109064285Y-102542857D01*
X108835714Y-102542857D01*
X108778571Y-102571428D01*
X108750000Y-102600000D01*
X108721428Y-102657142D01*
X108721428Y-102771428D01*
X108750000Y-102828571D01*
X108778571Y-102857142D01*
X108835714Y-102885714D01*
X108978571Y-102885714D01*
X109035714Y-102857142D01*
X109064285Y-102828571D01*
X109092857Y-102771428D01*
X109092857Y-102657142D01*
X109064285Y-102600000D01*
X109035714Y-102571428D01*
X108978571Y-102542857D01*
%TO.C,R26*%
X111321428Y-103685714D02*
X111035714Y-103885714D01*
X111321428Y-104028571D02*
X110721428Y-104028571D01*
X110721428Y-103800000D01*
X110750000Y-103742857D01*
X110778571Y-103714285D01*
X110835714Y-103685714D01*
X110921428Y-103685714D01*
X110978571Y-103714285D01*
X111007142Y-103742857D01*
X111035714Y-103800000D01*
X111035714Y-104028571D01*
X110778571Y-103457142D02*
X110750000Y-103428571D01*
X110721428Y-103371428D01*
X110721428Y-103228571D01*
X110750000Y-103171428D01*
X110778571Y-103142857D01*
X110835714Y-103114285D01*
X110892857Y-103114285D01*
X110978571Y-103142857D01*
X111321428Y-103485714D01*
X111321428Y-103114285D01*
X110721428Y-102600000D02*
X110721428Y-102714285D01*
X110750000Y-102771428D01*
X110778571Y-102800000D01*
X110864285Y-102857142D01*
X110978571Y-102885714D01*
X111207142Y-102885714D01*
X111264285Y-102857142D01*
X111292857Y-102828571D01*
X111321428Y-102771428D01*
X111321428Y-102657142D01*
X111292857Y-102600000D01*
X111264285Y-102571428D01*
X111207142Y-102542857D01*
X111064285Y-102542857D01*
X111007142Y-102571428D01*
X110978571Y-102600000D01*
X110950000Y-102657142D01*
X110950000Y-102771428D01*
X110978571Y-102828571D01*
X111007142Y-102857142D01*
X111064285Y-102885714D01*
%TO.C,R16*%
X114214285Y-107871428D02*
X114014285Y-107585714D01*
X113871428Y-107871428D02*
X113871428Y-107271428D01*
X114100000Y-107271428D01*
X114157142Y-107300000D01*
X114185714Y-107328571D01*
X114214285Y-107385714D01*
X114214285Y-107471428D01*
X114185714Y-107528571D01*
X114157142Y-107557142D01*
X114100000Y-107585714D01*
X113871428Y-107585714D01*
X114785714Y-107871428D02*
X114442857Y-107871428D01*
X114614285Y-107871428D02*
X114614285Y-107271428D01*
X114557142Y-107357142D01*
X114500000Y-107414285D01*
X114442857Y-107442857D01*
X115300000Y-107271428D02*
X115185714Y-107271428D01*
X115128571Y-107300000D01*
X115100000Y-107328571D01*
X115042857Y-107414285D01*
X115014285Y-107528571D01*
X115014285Y-107757142D01*
X115042857Y-107814285D01*
X115071428Y-107842857D01*
X115128571Y-107871428D01*
X115242857Y-107871428D01*
X115300000Y-107842857D01*
X115328571Y-107814285D01*
X115357142Y-107757142D01*
X115357142Y-107614285D01*
X115328571Y-107557142D01*
X115300000Y-107528571D01*
X115242857Y-107500000D01*
X115128571Y-107500000D01*
X115071428Y-107528571D01*
X115042857Y-107557142D01*
X115014285Y-107614285D01*
%TO.C,R20*%
X112464285Y-107871428D02*
X112264285Y-107585714D01*
X112121428Y-107871428D02*
X112121428Y-107271428D01*
X112350000Y-107271428D01*
X112407142Y-107300000D01*
X112435714Y-107328571D01*
X112464285Y-107385714D01*
X112464285Y-107471428D01*
X112435714Y-107528571D01*
X112407142Y-107557142D01*
X112350000Y-107585714D01*
X112121428Y-107585714D01*
X112692857Y-107328571D02*
X112721428Y-107300000D01*
X112778571Y-107271428D01*
X112921428Y-107271428D01*
X112978571Y-107300000D01*
X113007142Y-107328571D01*
X113035714Y-107385714D01*
X113035714Y-107442857D01*
X113007142Y-107528571D01*
X112664285Y-107871428D01*
X113035714Y-107871428D01*
X113407142Y-107271428D02*
X113464285Y-107271428D01*
X113521428Y-107300000D01*
X113550000Y-107328571D01*
X113578571Y-107385714D01*
X113607142Y-107500000D01*
X113607142Y-107642857D01*
X113578571Y-107757142D01*
X113550000Y-107814285D01*
X113521428Y-107842857D01*
X113464285Y-107871428D01*
X113407142Y-107871428D01*
X113350000Y-107842857D01*
X113321428Y-107814285D01*
X113292857Y-107757142D01*
X113264285Y-107642857D01*
X113264285Y-107500000D01*
X113292857Y-107385714D01*
X113321428Y-107328571D01*
X113350000Y-107300000D01*
X113407142Y-107271428D01*
%TO.C,R24*%
X140264285Y-105371428D02*
X140064285Y-105085714D01*
X139921428Y-105371428D02*
X139921428Y-104771428D01*
X140150000Y-104771428D01*
X140207142Y-104800000D01*
X140235714Y-104828571D01*
X140264285Y-104885714D01*
X140264285Y-104971428D01*
X140235714Y-105028571D01*
X140207142Y-105057142D01*
X140150000Y-105085714D01*
X139921428Y-105085714D01*
X140492857Y-104828571D02*
X140521428Y-104800000D01*
X140578571Y-104771428D01*
X140721428Y-104771428D01*
X140778571Y-104800000D01*
X140807142Y-104828571D01*
X140835714Y-104885714D01*
X140835714Y-104942857D01*
X140807142Y-105028571D01*
X140464285Y-105371428D01*
X140835714Y-105371428D01*
X141350000Y-104971428D02*
X141350000Y-105371428D01*
X141207142Y-104742857D02*
X141064285Y-105171428D01*
X141435714Y-105171428D01*
%TO.C,R27*%
X136264285Y-105371428D02*
X136064285Y-105085714D01*
X135921428Y-105371428D02*
X135921428Y-104771428D01*
X136150000Y-104771428D01*
X136207142Y-104800000D01*
X136235714Y-104828571D01*
X136264285Y-104885714D01*
X136264285Y-104971428D01*
X136235714Y-105028571D01*
X136207142Y-105057142D01*
X136150000Y-105085714D01*
X135921428Y-105085714D01*
X136492857Y-104828571D02*
X136521428Y-104800000D01*
X136578571Y-104771428D01*
X136721428Y-104771428D01*
X136778571Y-104800000D01*
X136807142Y-104828571D01*
X136835714Y-104885714D01*
X136835714Y-104942857D01*
X136807142Y-105028571D01*
X136464285Y-105371428D01*
X136835714Y-105371428D01*
X137035714Y-104771428D02*
X137435714Y-104771428D01*
X137178571Y-105371428D01*
%TO.C,R5*%
X145425000Y-102621428D02*
X145225000Y-102335714D01*
X145082142Y-102621428D02*
X145082142Y-102021428D01*
X145310714Y-102021428D01*
X145367857Y-102050000D01*
X145396428Y-102078571D01*
X145425000Y-102135714D01*
X145425000Y-102221428D01*
X145396428Y-102278571D01*
X145367857Y-102307142D01*
X145310714Y-102335714D01*
X145082142Y-102335714D01*
X145967857Y-102021428D02*
X145682142Y-102021428D01*
X145653571Y-102307142D01*
X145682142Y-102278571D01*
X145739285Y-102250000D01*
X145882142Y-102250000D01*
X145939285Y-102278571D01*
X145967857Y-102307142D01*
X145996428Y-102364285D01*
X145996428Y-102507142D01*
X145967857Y-102564285D01*
X145939285Y-102592857D01*
X145882142Y-102621428D01*
X145739285Y-102621428D01*
X145682142Y-102592857D01*
X145653571Y-102564285D01*
%TO.C,R1*%
X142550000Y-105371428D02*
X142350000Y-105085714D01*
X142207142Y-105371428D02*
X142207142Y-104771428D01*
X142435714Y-104771428D01*
X142492857Y-104800000D01*
X142521428Y-104828571D01*
X142550000Y-104885714D01*
X142550000Y-104971428D01*
X142521428Y-105028571D01*
X142492857Y-105057142D01*
X142435714Y-105085714D01*
X142207142Y-105085714D01*
X143121428Y-105371428D02*
X142778571Y-105371428D01*
X142950000Y-105371428D02*
X142950000Y-104771428D01*
X142892857Y-104857142D01*
X142835714Y-104914285D01*
X142778571Y-104942857D01*
%TO.C,R25*%
X127021428Y-102210714D02*
X126735714Y-102410714D01*
X127021428Y-102553571D02*
X126421428Y-102553571D01*
X126421428Y-102325000D01*
X126450000Y-102267857D01*
X126478571Y-102239285D01*
X126535714Y-102210714D01*
X126621428Y-102210714D01*
X126678571Y-102239285D01*
X126707142Y-102267857D01*
X126735714Y-102325000D01*
X126735714Y-102553571D01*
X126478571Y-101982142D02*
X126450000Y-101953571D01*
X126421428Y-101896428D01*
X126421428Y-101753571D01*
X126450000Y-101696428D01*
X126478571Y-101667857D01*
X126535714Y-101639285D01*
X126592857Y-101639285D01*
X126678571Y-101667857D01*
X127021428Y-102010714D01*
X127021428Y-101639285D01*
X126421428Y-101096428D02*
X126421428Y-101382142D01*
X126707142Y-101410714D01*
X126678571Y-101382142D01*
X126650000Y-101325000D01*
X126650000Y-101182142D01*
X126678571Y-101125000D01*
X126707142Y-101096428D01*
X126764285Y-101067857D01*
X126907142Y-101067857D01*
X126964285Y-101096428D01*
X126992857Y-101125000D01*
X127021428Y-101182142D01*
X127021428Y-101325000D01*
X126992857Y-101382142D01*
X126964285Y-101410714D01*
%TO.C,R15*%
X84521428Y-122185714D02*
X84235714Y-122385714D01*
X84521428Y-122528571D02*
X83921428Y-122528571D01*
X83921428Y-122300000D01*
X83950000Y-122242857D01*
X83978571Y-122214285D01*
X84035714Y-122185714D01*
X84121428Y-122185714D01*
X84178571Y-122214285D01*
X84207142Y-122242857D01*
X84235714Y-122300000D01*
X84235714Y-122528571D01*
X84521428Y-121614285D02*
X84521428Y-121957142D01*
X84521428Y-121785714D02*
X83921428Y-121785714D01*
X84007142Y-121842857D01*
X84064285Y-121900000D01*
X84092857Y-121957142D01*
X83921428Y-121071428D02*
X83921428Y-121357142D01*
X84207142Y-121385714D01*
X84178571Y-121357142D01*
X84150000Y-121300000D01*
X84150000Y-121157142D01*
X84178571Y-121100000D01*
X84207142Y-121071428D01*
X84264285Y-121042857D01*
X84407142Y-121042857D01*
X84464285Y-121071428D01*
X84492857Y-121100000D01*
X84521428Y-121157142D01*
X84521428Y-121300000D01*
X84492857Y-121357142D01*
X84464285Y-121385714D01*
%TO.C,R13*%
X84471428Y-120185714D02*
X84185714Y-120385714D01*
X84471428Y-120528571D02*
X83871428Y-120528571D01*
X83871428Y-120300000D01*
X83900000Y-120242857D01*
X83928571Y-120214285D01*
X83985714Y-120185714D01*
X84071428Y-120185714D01*
X84128571Y-120214285D01*
X84157142Y-120242857D01*
X84185714Y-120300000D01*
X84185714Y-120528571D01*
X84471428Y-119614285D02*
X84471428Y-119957142D01*
X84471428Y-119785714D02*
X83871428Y-119785714D01*
X83957142Y-119842857D01*
X84014285Y-119900000D01*
X84042857Y-119957142D01*
X83871428Y-119414285D02*
X83871428Y-119042857D01*
X84100000Y-119242857D01*
X84100000Y-119157142D01*
X84128571Y-119100000D01*
X84157142Y-119071428D01*
X84214285Y-119042857D01*
X84357142Y-119042857D01*
X84414285Y-119071428D01*
X84442857Y-119100000D01*
X84471428Y-119157142D01*
X84471428Y-119328571D01*
X84442857Y-119385714D01*
X84414285Y-119414285D01*
%TO.C,R31*%
X95021428Y-120535714D02*
X94735714Y-120735714D01*
X95021428Y-120878571D02*
X94421428Y-120878571D01*
X94421428Y-120650000D01*
X94450000Y-120592857D01*
X94478571Y-120564285D01*
X94535714Y-120535714D01*
X94621428Y-120535714D01*
X94678571Y-120564285D01*
X94707142Y-120592857D01*
X94735714Y-120650000D01*
X94735714Y-120878571D01*
X94421428Y-120335714D02*
X94421428Y-119964285D01*
X94650000Y-120164285D01*
X94650000Y-120078571D01*
X94678571Y-120021428D01*
X94707142Y-119992857D01*
X94764285Y-119964285D01*
X94907142Y-119964285D01*
X94964285Y-119992857D01*
X94992857Y-120021428D01*
X95021428Y-120078571D01*
X95021428Y-120250000D01*
X94992857Y-120307142D01*
X94964285Y-120335714D01*
X95021428Y-119392857D02*
X95021428Y-119735714D01*
X95021428Y-119564285D02*
X94421428Y-119564285D01*
X94507142Y-119621428D01*
X94564285Y-119678571D01*
X94592857Y-119735714D01*
%TO.C,R28*%
X95021428Y-117385714D02*
X94735714Y-117585714D01*
X95021428Y-117728571D02*
X94421428Y-117728571D01*
X94421428Y-117500000D01*
X94450000Y-117442857D01*
X94478571Y-117414285D01*
X94535714Y-117385714D01*
X94621428Y-117385714D01*
X94678571Y-117414285D01*
X94707142Y-117442857D01*
X94735714Y-117500000D01*
X94735714Y-117728571D01*
X94478571Y-117157142D02*
X94450000Y-117128571D01*
X94421428Y-117071428D01*
X94421428Y-116928571D01*
X94450000Y-116871428D01*
X94478571Y-116842857D01*
X94535714Y-116814285D01*
X94592857Y-116814285D01*
X94678571Y-116842857D01*
X95021428Y-117185714D01*
X95021428Y-116814285D01*
X94678571Y-116471428D02*
X94650000Y-116528571D01*
X94621428Y-116557142D01*
X94564285Y-116585714D01*
X94535714Y-116585714D01*
X94478571Y-116557142D01*
X94450000Y-116528571D01*
X94421428Y-116471428D01*
X94421428Y-116357142D01*
X94450000Y-116300000D01*
X94478571Y-116271428D01*
X94535714Y-116242857D01*
X94564285Y-116242857D01*
X94621428Y-116271428D01*
X94650000Y-116300000D01*
X94678571Y-116357142D01*
X94678571Y-116471428D01*
X94707142Y-116528571D01*
X94735714Y-116557142D01*
X94792857Y-116585714D01*
X94907142Y-116585714D01*
X94964285Y-116557142D01*
X94992857Y-116528571D01*
X95021428Y-116471428D01*
X95021428Y-116357142D01*
X94992857Y-116300000D01*
X94964285Y-116271428D01*
X94907142Y-116242857D01*
X94792857Y-116242857D01*
X94735714Y-116271428D01*
X94707142Y-116300000D01*
X94678571Y-116357142D01*
%TO.C,R33*%
X89721428Y-121285714D02*
X89435714Y-121485714D01*
X89721428Y-121628571D02*
X89121428Y-121628571D01*
X89121428Y-121400000D01*
X89150000Y-121342857D01*
X89178571Y-121314285D01*
X89235714Y-121285714D01*
X89321428Y-121285714D01*
X89378571Y-121314285D01*
X89407142Y-121342857D01*
X89435714Y-121400000D01*
X89435714Y-121628571D01*
X89121428Y-121085714D02*
X89121428Y-120714285D01*
X89350000Y-120914285D01*
X89350000Y-120828571D01*
X89378571Y-120771428D01*
X89407142Y-120742857D01*
X89464285Y-120714285D01*
X89607142Y-120714285D01*
X89664285Y-120742857D01*
X89692857Y-120771428D01*
X89721428Y-120828571D01*
X89721428Y-121000000D01*
X89692857Y-121057142D01*
X89664285Y-121085714D01*
X89121428Y-120514285D02*
X89121428Y-120142857D01*
X89350000Y-120342857D01*
X89350000Y-120257142D01*
X89378571Y-120200000D01*
X89407142Y-120171428D01*
X89464285Y-120142857D01*
X89607142Y-120142857D01*
X89664285Y-120171428D01*
X89692857Y-120200000D01*
X89721428Y-120257142D01*
X89721428Y-120428571D01*
X89692857Y-120485714D01*
X89664285Y-120514285D01*
%TO.C,R18*%
X85421428Y-116035714D02*
X85135714Y-116235714D01*
X85421428Y-116378571D02*
X84821428Y-116378571D01*
X84821428Y-116150000D01*
X84850000Y-116092857D01*
X84878571Y-116064285D01*
X84935714Y-116035714D01*
X85021428Y-116035714D01*
X85078571Y-116064285D01*
X85107142Y-116092857D01*
X85135714Y-116150000D01*
X85135714Y-116378571D01*
X85421428Y-115464285D02*
X85421428Y-115807142D01*
X85421428Y-115635714D02*
X84821428Y-115635714D01*
X84907142Y-115692857D01*
X84964285Y-115750000D01*
X84992857Y-115807142D01*
X85078571Y-115121428D02*
X85050000Y-115178571D01*
X85021428Y-115207142D01*
X84964285Y-115235714D01*
X84935714Y-115235714D01*
X84878571Y-115207142D01*
X84850000Y-115178571D01*
X84821428Y-115121428D01*
X84821428Y-115007142D01*
X84850000Y-114950000D01*
X84878571Y-114921428D01*
X84935714Y-114892857D01*
X84964285Y-114892857D01*
X85021428Y-114921428D01*
X85050000Y-114950000D01*
X85078571Y-115007142D01*
X85078571Y-115121428D01*
X85107142Y-115178571D01*
X85135714Y-115207142D01*
X85192857Y-115235714D01*
X85307142Y-115235714D01*
X85364285Y-115207142D01*
X85392857Y-115178571D01*
X85421428Y-115121428D01*
X85421428Y-115007142D01*
X85392857Y-114950000D01*
X85364285Y-114921428D01*
X85307142Y-114892857D01*
X85192857Y-114892857D01*
X85135714Y-114921428D01*
X85107142Y-114950000D01*
X85078571Y-115007142D01*
%TO.C,R9*%
X82000000Y-113671428D02*
X81800000Y-113385714D01*
X81657142Y-113671428D02*
X81657142Y-113071428D01*
X81885714Y-113071428D01*
X81942857Y-113100000D01*
X81971428Y-113128571D01*
X82000000Y-113185714D01*
X82000000Y-113271428D01*
X81971428Y-113328571D01*
X81942857Y-113357142D01*
X81885714Y-113385714D01*
X81657142Y-113385714D01*
X82285714Y-113671428D02*
X82400000Y-113671428D01*
X82457142Y-113642857D01*
X82485714Y-113614285D01*
X82542857Y-113528571D01*
X82571428Y-113414285D01*
X82571428Y-113185714D01*
X82542857Y-113128571D01*
X82514285Y-113100000D01*
X82457142Y-113071428D01*
X82342857Y-113071428D01*
X82285714Y-113100000D01*
X82257142Y-113128571D01*
X82228571Y-113185714D01*
X82228571Y-113328571D01*
X82257142Y-113385714D01*
X82285714Y-113414285D01*
X82342857Y-113442857D01*
X82457142Y-113442857D01*
X82514285Y-113414285D01*
X82542857Y-113385714D01*
X82571428Y-113328571D01*
%TO.C,R11*%
X82014285Y-111621428D02*
X81814285Y-111335714D01*
X81671428Y-111621428D02*
X81671428Y-111021428D01*
X81900000Y-111021428D01*
X81957142Y-111050000D01*
X81985714Y-111078571D01*
X82014285Y-111135714D01*
X82014285Y-111221428D01*
X81985714Y-111278571D01*
X81957142Y-111307142D01*
X81900000Y-111335714D01*
X81671428Y-111335714D01*
X82585714Y-111621428D02*
X82242857Y-111621428D01*
X82414285Y-111621428D02*
X82414285Y-111021428D01*
X82357142Y-111107142D01*
X82300000Y-111164285D01*
X82242857Y-111192857D01*
X83157142Y-111621428D02*
X82814285Y-111621428D01*
X82985714Y-111621428D02*
X82985714Y-111021428D01*
X82928571Y-111107142D01*
X82871428Y-111164285D01*
X82814285Y-111192857D01*
%TO.C,R32*%
X76014285Y-109271428D02*
X75814285Y-108985714D01*
X75671428Y-109271428D02*
X75671428Y-108671428D01*
X75900000Y-108671428D01*
X75957142Y-108700000D01*
X75985714Y-108728571D01*
X76014285Y-108785714D01*
X76014285Y-108871428D01*
X75985714Y-108928571D01*
X75957142Y-108957142D01*
X75900000Y-108985714D01*
X75671428Y-108985714D01*
X76214285Y-108671428D02*
X76585714Y-108671428D01*
X76385714Y-108900000D01*
X76471428Y-108900000D01*
X76528571Y-108928571D01*
X76557142Y-108957142D01*
X76585714Y-109014285D01*
X76585714Y-109157142D01*
X76557142Y-109214285D01*
X76528571Y-109242857D01*
X76471428Y-109271428D01*
X76300000Y-109271428D01*
X76242857Y-109242857D01*
X76214285Y-109214285D01*
X76814285Y-108728571D02*
X76842857Y-108700000D01*
X76900000Y-108671428D01*
X77042857Y-108671428D01*
X77100000Y-108700000D01*
X77128571Y-108728571D01*
X77157142Y-108785714D01*
X77157142Y-108842857D01*
X77128571Y-108928571D01*
X76785714Y-109271428D01*
X77157142Y-109271428D01*
%TO.C,L2*%
X112800000Y-97071428D02*
X112514285Y-97071428D01*
X112514285Y-96471428D01*
X112971428Y-96528571D02*
X113000000Y-96500000D01*
X113057142Y-96471428D01*
X113200000Y-96471428D01*
X113257142Y-96500000D01*
X113285714Y-96528571D01*
X113314285Y-96585714D01*
X113314285Y-96642857D01*
X113285714Y-96728571D01*
X112942857Y-97071428D01*
X113314285Y-97071428D01*
%TO.C,L1*%
X88750000Y-101571428D02*
X88464285Y-101571428D01*
X88464285Y-100971428D01*
X89264285Y-101571428D02*
X88921428Y-101571428D01*
X89092857Y-101571428D02*
X89092857Y-100971428D01*
X89035714Y-101057142D01*
X88978571Y-101114285D01*
X88921428Y-101142857D01*
%TO.C,J5*%
X100750000Y-116571428D02*
X100750000Y-117000000D01*
X100721428Y-117085714D01*
X100664285Y-117142857D01*
X100578571Y-117171428D01*
X100521428Y-117171428D01*
X101321428Y-116571428D02*
X101035714Y-116571428D01*
X101007142Y-116857142D01*
X101035714Y-116828571D01*
X101092857Y-116800000D01*
X101235714Y-116800000D01*
X101292857Y-116828571D01*
X101321428Y-116857142D01*
X101350000Y-116914285D01*
X101350000Y-117057142D01*
X101321428Y-117114285D01*
X101292857Y-117142857D01*
X101235714Y-117171428D01*
X101092857Y-117171428D01*
X101035714Y-117142857D01*
X101007142Y-117114285D01*
%TO.C,J3*%
X101400000Y-109271428D02*
X101400000Y-109700000D01*
X101371428Y-109785714D01*
X101314285Y-109842857D01*
X101228571Y-109871428D01*
X101171428Y-109871428D01*
X101628571Y-109271428D02*
X102000000Y-109271428D01*
X101800000Y-109500000D01*
X101885714Y-109500000D01*
X101942857Y-109528571D01*
X101971428Y-109557142D01*
X102000000Y-109614285D01*
X102000000Y-109757142D01*
X101971428Y-109814285D01*
X101942857Y-109842857D01*
X101885714Y-109871428D01*
X101714285Y-109871428D01*
X101657142Y-109842857D01*
X101628571Y-109814285D01*
%TO.C,J6*%
X66871428Y-96250000D02*
X67300000Y-96250000D01*
X67385714Y-96278571D01*
X67442857Y-96335714D01*
X67471428Y-96421428D01*
X67471428Y-96478571D01*
X66871428Y-95707142D02*
X66871428Y-95821428D01*
X66900000Y-95878571D01*
X66928571Y-95907142D01*
X67014285Y-95964285D01*
X67128571Y-95992857D01*
X67357142Y-95992857D01*
X67414285Y-95964285D01*
X67442857Y-95935714D01*
X67471428Y-95878571D01*
X67471428Y-95764285D01*
X67442857Y-95707142D01*
X67414285Y-95678571D01*
X67357142Y-95650000D01*
X67214285Y-95650000D01*
X67157142Y-95678571D01*
X67128571Y-95707142D01*
X67100000Y-95764285D01*
X67100000Y-95878571D01*
X67128571Y-95935714D01*
X67157142Y-95964285D01*
X67214285Y-95992857D01*
%TO.C,J4*%
X71921428Y-110900000D02*
X72350000Y-110900000D01*
X72435714Y-110928571D01*
X72492857Y-110985714D01*
X72521428Y-111071428D01*
X72521428Y-111128571D01*
X72121428Y-110357142D02*
X72521428Y-110357142D01*
X71892857Y-110500000D02*
X72321428Y-110642857D01*
X72321428Y-110271428D01*
%TO.C,J1*%
X78100000Y-114721428D02*
X78100000Y-115150000D01*
X78071428Y-115235714D01*
X78014285Y-115292857D01*
X77928571Y-115321428D01*
X77871428Y-115321428D01*
X78700000Y-115321428D02*
X78357142Y-115321428D01*
X78528571Y-115321428D02*
X78528571Y-114721428D01*
X78471428Y-114807142D01*
X78414285Y-114864285D01*
X78357142Y-114892857D01*
%TO.C,F3*%
X101657142Y-107000000D02*
X101657142Y-107200000D01*
X101971428Y-107200000D02*
X101371428Y-107200000D01*
X101371428Y-106914285D01*
X101371428Y-106742857D02*
X101371428Y-106371428D01*
X101600000Y-106571428D01*
X101600000Y-106485714D01*
X101628571Y-106428571D01*
X101657142Y-106400000D01*
X101714285Y-106371428D01*
X101857142Y-106371428D01*
X101914285Y-106400000D01*
X101942857Y-106428571D01*
X101971428Y-106485714D01*
X101971428Y-106657142D01*
X101942857Y-106714285D01*
X101914285Y-106742857D01*
%TO.C,F2*%
X98350000Y-96257142D02*
X98150000Y-96257142D01*
X98150000Y-96571428D02*
X98150000Y-95971428D01*
X98435714Y-95971428D01*
X98635714Y-96028571D02*
X98664285Y-96000000D01*
X98721428Y-95971428D01*
X98864285Y-95971428D01*
X98921428Y-96000000D01*
X98950000Y-96028571D01*
X98978571Y-96085714D01*
X98978571Y-96142857D01*
X98950000Y-96228571D01*
X98607142Y-96571428D01*
X98978571Y-96571428D01*
%TO.C,D3*%
X91157142Y-116071428D02*
X91157142Y-115471428D01*
X91300000Y-115471428D01*
X91385714Y-115500000D01*
X91442857Y-115557142D01*
X91471428Y-115614285D01*
X91500000Y-115728571D01*
X91500000Y-115814285D01*
X91471428Y-115928571D01*
X91442857Y-115985714D01*
X91385714Y-116042857D01*
X91300000Y-116071428D01*
X91157142Y-116071428D01*
X91700000Y-115471428D02*
X92071428Y-115471428D01*
X91871428Y-115700000D01*
X91957142Y-115700000D01*
X92014285Y-115728571D01*
X92042857Y-115757142D01*
X92071428Y-115814285D01*
X92071428Y-115957142D01*
X92042857Y-116014285D01*
X92014285Y-116042857D01*
X91957142Y-116071428D01*
X91785714Y-116071428D01*
X91728571Y-116042857D01*
X91700000Y-116014285D01*
%TO.C,D2*%
X91157142Y-118071428D02*
X91157142Y-117471428D01*
X91300000Y-117471428D01*
X91385714Y-117500000D01*
X91442857Y-117557142D01*
X91471428Y-117614285D01*
X91500000Y-117728571D01*
X91500000Y-117814285D01*
X91471428Y-117928571D01*
X91442857Y-117985714D01*
X91385714Y-118042857D01*
X91300000Y-118071428D01*
X91157142Y-118071428D01*
X91728571Y-117528571D02*
X91757142Y-117500000D01*
X91814285Y-117471428D01*
X91957142Y-117471428D01*
X92014285Y-117500000D01*
X92042857Y-117528571D01*
X92071428Y-117585714D01*
X92071428Y-117642857D01*
X92042857Y-117728571D01*
X91700000Y-118071428D01*
X92071428Y-118071428D01*
%TO.C,C17*%
X141226785Y-98764285D02*
X141198214Y-98792857D01*
X141112500Y-98821428D01*
X141055357Y-98821428D01*
X140969642Y-98792857D01*
X140912500Y-98735714D01*
X140883928Y-98678571D01*
X140855357Y-98564285D01*
X140855357Y-98478571D01*
X140883928Y-98364285D01*
X140912500Y-98307142D01*
X140969642Y-98250000D01*
X141055357Y-98221428D01*
X141112500Y-98221428D01*
X141198214Y-98250000D01*
X141226785Y-98278571D01*
X141798214Y-98821428D02*
X141455357Y-98821428D01*
X141626785Y-98821428D02*
X141626785Y-98221428D01*
X141569642Y-98307142D01*
X141512500Y-98364285D01*
X141455357Y-98392857D01*
X141998214Y-98221428D02*
X142398214Y-98221428D01*
X142141071Y-98821428D01*
%TO.C,C14*%
X138264285Y-105314285D02*
X138235714Y-105342857D01*
X138150000Y-105371428D01*
X138092857Y-105371428D01*
X138007142Y-105342857D01*
X137950000Y-105285714D01*
X137921428Y-105228571D01*
X137892857Y-105114285D01*
X137892857Y-105028571D01*
X137921428Y-104914285D01*
X137950000Y-104857142D01*
X138007142Y-104800000D01*
X138092857Y-104771428D01*
X138150000Y-104771428D01*
X138235714Y-104800000D01*
X138264285Y-104828571D01*
X138835714Y-105371428D02*
X138492857Y-105371428D01*
X138664285Y-105371428D02*
X138664285Y-104771428D01*
X138607142Y-104857142D01*
X138550000Y-104914285D01*
X138492857Y-104942857D01*
X139350000Y-104971428D02*
X139350000Y-105371428D01*
X139207142Y-104742857D02*
X139064285Y-105171428D01*
X139435714Y-105171428D01*
%TO.C,C12*%
X132776785Y-100164285D02*
X132748214Y-100192857D01*
X132662500Y-100221428D01*
X132605357Y-100221428D01*
X132519642Y-100192857D01*
X132462500Y-100135714D01*
X132433928Y-100078571D01*
X132405357Y-99964285D01*
X132405357Y-99878571D01*
X132433928Y-99764285D01*
X132462500Y-99707142D01*
X132519642Y-99650000D01*
X132605357Y-99621428D01*
X132662500Y-99621428D01*
X132748214Y-99650000D01*
X132776785Y-99678571D01*
X133348214Y-100221428D02*
X133005357Y-100221428D01*
X133176785Y-100221428D02*
X133176785Y-99621428D01*
X133119642Y-99707142D01*
X133062500Y-99764285D01*
X133005357Y-99792857D01*
X133576785Y-99678571D02*
X133605357Y-99650000D01*
X133662500Y-99621428D01*
X133805357Y-99621428D01*
X133862500Y-99650000D01*
X133891071Y-99678571D01*
X133919642Y-99735714D01*
X133919642Y-99792857D01*
X133891071Y-99878571D01*
X133548214Y-100221428D01*
X133919642Y-100221428D01*
%TO.C,C16*%
X132886785Y-111464285D02*
X132858214Y-111492857D01*
X132772500Y-111521428D01*
X132715357Y-111521428D01*
X132629642Y-111492857D01*
X132572500Y-111435714D01*
X132543928Y-111378571D01*
X132515357Y-111264285D01*
X132515357Y-111178571D01*
X132543928Y-111064285D01*
X132572500Y-111007142D01*
X132629642Y-110950000D01*
X132715357Y-110921428D01*
X132772500Y-110921428D01*
X132858214Y-110950000D01*
X132886785Y-110978571D01*
X133458214Y-111521428D02*
X133115357Y-111521428D01*
X133286785Y-111521428D02*
X133286785Y-110921428D01*
X133229642Y-111007142D01*
X133172500Y-111064285D01*
X133115357Y-111092857D01*
X133972500Y-110921428D02*
X133858214Y-110921428D01*
X133801071Y-110950000D01*
X133772500Y-110978571D01*
X133715357Y-111064285D01*
X133686785Y-111178571D01*
X133686785Y-111407142D01*
X133715357Y-111464285D01*
X133743928Y-111492857D01*
X133801071Y-111521428D01*
X133915357Y-111521428D01*
X133972500Y-111492857D01*
X134001071Y-111464285D01*
X134029642Y-111407142D01*
X134029642Y-111264285D01*
X134001071Y-111207142D01*
X133972500Y-111178571D01*
X133915357Y-111150000D01*
X133801071Y-111150000D01*
X133743928Y-111178571D01*
X133715357Y-111207142D01*
X133686785Y-111264285D01*
%TO.C,C19*%
X128064285Y-107273214D02*
X128092857Y-107301785D01*
X128121428Y-107387500D01*
X128121428Y-107444642D01*
X128092857Y-107530357D01*
X128035714Y-107587500D01*
X127978571Y-107616071D01*
X127864285Y-107644642D01*
X127778571Y-107644642D01*
X127664285Y-107616071D01*
X127607142Y-107587500D01*
X127550000Y-107530357D01*
X127521428Y-107444642D01*
X127521428Y-107387500D01*
X127550000Y-107301785D01*
X127578571Y-107273214D01*
X128121428Y-106701785D02*
X128121428Y-107044642D01*
X128121428Y-106873214D02*
X127521428Y-106873214D01*
X127607142Y-106930357D01*
X127664285Y-106987500D01*
X127692857Y-107044642D01*
X128121428Y-106416071D02*
X128121428Y-106301785D01*
X128092857Y-106244642D01*
X128064285Y-106216071D01*
X127978571Y-106158928D01*
X127864285Y-106130357D01*
X127635714Y-106130357D01*
X127578571Y-106158928D01*
X127550000Y-106187500D01*
X127521428Y-106244642D01*
X127521428Y-106358928D01*
X127550000Y-106416071D01*
X127578571Y-106444642D01*
X127635714Y-106473214D01*
X127778571Y-106473214D01*
X127835714Y-106444642D01*
X127864285Y-106416071D01*
X127892857Y-106358928D01*
X127892857Y-106244642D01*
X127864285Y-106187500D01*
X127835714Y-106158928D01*
X127778571Y-106130357D01*
%TO.C,C11*%
X127514285Y-115085714D02*
X127542857Y-115114285D01*
X127571428Y-115200000D01*
X127571428Y-115257142D01*
X127542857Y-115342857D01*
X127485714Y-115400000D01*
X127428571Y-115428571D01*
X127314285Y-115457142D01*
X127228571Y-115457142D01*
X127114285Y-115428571D01*
X127057142Y-115400000D01*
X127000000Y-115342857D01*
X126971428Y-115257142D01*
X126971428Y-115200000D01*
X127000000Y-115114285D01*
X127028571Y-115085714D01*
X127571428Y-114514285D02*
X127571428Y-114857142D01*
X127571428Y-114685714D02*
X126971428Y-114685714D01*
X127057142Y-114742857D01*
X127114285Y-114800000D01*
X127142857Y-114857142D01*
X127571428Y-113942857D02*
X127571428Y-114285714D01*
X127571428Y-114114285D02*
X126971428Y-114114285D01*
X127057142Y-114171428D01*
X127114285Y-114228571D01*
X127142857Y-114285714D01*
%TO.C,C10*%
X125314285Y-113885714D02*
X125342857Y-113914285D01*
X125371428Y-114000000D01*
X125371428Y-114057142D01*
X125342857Y-114142857D01*
X125285714Y-114200000D01*
X125228571Y-114228571D01*
X125114285Y-114257142D01*
X125028571Y-114257142D01*
X124914285Y-114228571D01*
X124857142Y-114200000D01*
X124800000Y-114142857D01*
X124771428Y-114057142D01*
X124771428Y-114000000D01*
X124800000Y-113914285D01*
X124828571Y-113885714D01*
X125371428Y-113314285D02*
X125371428Y-113657142D01*
X125371428Y-113485714D02*
X124771428Y-113485714D01*
X124857142Y-113542857D01*
X124914285Y-113600000D01*
X124942857Y-113657142D01*
X124771428Y-112942857D02*
X124771428Y-112885714D01*
X124800000Y-112828571D01*
X124828571Y-112800000D01*
X124885714Y-112771428D01*
X125000000Y-112742857D01*
X125142857Y-112742857D01*
X125257142Y-112771428D01*
X125314285Y-112800000D01*
X125342857Y-112828571D01*
X125371428Y-112885714D01*
X125371428Y-112942857D01*
X125342857Y-113000000D01*
X125314285Y-113028571D01*
X125257142Y-113057142D01*
X125142857Y-113085714D01*
X125000000Y-113085714D01*
X124885714Y-113057142D01*
X124828571Y-113028571D01*
X124800000Y-113000000D01*
X124771428Y-112942857D01*
%TO.C,C9*%
X129914285Y-114550000D02*
X129942857Y-114578571D01*
X129971428Y-114664285D01*
X129971428Y-114721428D01*
X129942857Y-114807142D01*
X129885714Y-114864285D01*
X129828571Y-114892857D01*
X129714285Y-114921428D01*
X129628571Y-114921428D01*
X129514285Y-114892857D01*
X129457142Y-114864285D01*
X129400000Y-114807142D01*
X129371428Y-114721428D01*
X129371428Y-114664285D01*
X129400000Y-114578571D01*
X129428571Y-114550000D01*
X129971428Y-114264285D02*
X129971428Y-114150000D01*
X129942857Y-114092857D01*
X129914285Y-114064285D01*
X129828571Y-114007142D01*
X129714285Y-113978571D01*
X129485714Y-113978571D01*
X129428571Y-114007142D01*
X129400000Y-114035714D01*
X129371428Y-114092857D01*
X129371428Y-114207142D01*
X129400000Y-114264285D01*
X129428571Y-114292857D01*
X129485714Y-114321428D01*
X129628571Y-114321428D01*
X129685714Y-114292857D01*
X129714285Y-114264285D01*
X129742857Y-114207142D01*
X129742857Y-114092857D01*
X129714285Y-114035714D01*
X129685714Y-114007142D01*
X129628571Y-113978571D01*
%TO.C,C25*%
X152364285Y-109235714D02*
X152392857Y-109264285D01*
X152421428Y-109350000D01*
X152421428Y-109407142D01*
X152392857Y-109492857D01*
X152335714Y-109550000D01*
X152278571Y-109578571D01*
X152164285Y-109607142D01*
X152078571Y-109607142D01*
X151964285Y-109578571D01*
X151907142Y-109550000D01*
X151850000Y-109492857D01*
X151821428Y-109407142D01*
X151821428Y-109350000D01*
X151850000Y-109264285D01*
X151878571Y-109235714D01*
X151878571Y-109007142D02*
X151850000Y-108978571D01*
X151821428Y-108921428D01*
X151821428Y-108778571D01*
X151850000Y-108721428D01*
X151878571Y-108692857D01*
X151935714Y-108664285D01*
X151992857Y-108664285D01*
X152078571Y-108692857D01*
X152421428Y-109035714D01*
X152421428Y-108664285D01*
X151821428Y-108121428D02*
X151821428Y-108407142D01*
X152107142Y-108435714D01*
X152078571Y-108407142D01*
X152050000Y-108350000D01*
X152050000Y-108207142D01*
X152078571Y-108150000D01*
X152107142Y-108121428D01*
X152164285Y-108092857D01*
X152307142Y-108092857D01*
X152364285Y-108121428D01*
X152392857Y-108150000D01*
X152421428Y-108207142D01*
X152421428Y-108350000D01*
X152392857Y-108407142D01*
X152364285Y-108435714D01*
%TO.C,C24*%
X150114285Y-109235714D02*
X150142857Y-109264285D01*
X150171428Y-109350000D01*
X150171428Y-109407142D01*
X150142857Y-109492857D01*
X150085714Y-109550000D01*
X150028571Y-109578571D01*
X149914285Y-109607142D01*
X149828571Y-109607142D01*
X149714285Y-109578571D01*
X149657142Y-109550000D01*
X149600000Y-109492857D01*
X149571428Y-109407142D01*
X149571428Y-109350000D01*
X149600000Y-109264285D01*
X149628571Y-109235714D01*
X149628571Y-109007142D02*
X149600000Y-108978571D01*
X149571428Y-108921428D01*
X149571428Y-108778571D01*
X149600000Y-108721428D01*
X149628571Y-108692857D01*
X149685714Y-108664285D01*
X149742857Y-108664285D01*
X149828571Y-108692857D01*
X150171428Y-109035714D01*
X150171428Y-108664285D01*
X149771428Y-108150000D02*
X150171428Y-108150000D01*
X149542857Y-108292857D02*
X149971428Y-108435714D01*
X149971428Y-108064285D01*
%TO.C,C13*%
X82614285Y-100985714D02*
X82642857Y-101014285D01*
X82671428Y-101100000D01*
X82671428Y-101157142D01*
X82642857Y-101242857D01*
X82585714Y-101300000D01*
X82528571Y-101328571D01*
X82414285Y-101357142D01*
X82328571Y-101357142D01*
X82214285Y-101328571D01*
X82157142Y-101300000D01*
X82100000Y-101242857D01*
X82071428Y-101157142D01*
X82071428Y-101100000D01*
X82100000Y-101014285D01*
X82128571Y-100985714D01*
X82671428Y-100414285D02*
X82671428Y-100757142D01*
X82671428Y-100585714D02*
X82071428Y-100585714D01*
X82157142Y-100642857D01*
X82214285Y-100700000D01*
X82242857Y-100757142D01*
X82071428Y-100214285D02*
X82071428Y-99842857D01*
X82300000Y-100042857D01*
X82300000Y-99957142D01*
X82328571Y-99900000D01*
X82357142Y-99871428D01*
X82414285Y-99842857D01*
X82557142Y-99842857D01*
X82614285Y-99871428D01*
X82642857Y-99900000D01*
X82671428Y-99957142D01*
X82671428Y-100128571D01*
X82642857Y-100185714D01*
X82614285Y-100214285D01*
%TO.C,C3*%
X97550000Y-116814285D02*
X97521428Y-116842857D01*
X97435714Y-116871428D01*
X97378571Y-116871428D01*
X97292857Y-116842857D01*
X97235714Y-116785714D01*
X97207142Y-116728571D01*
X97178571Y-116614285D01*
X97178571Y-116528571D01*
X97207142Y-116414285D01*
X97235714Y-116357142D01*
X97292857Y-116300000D01*
X97378571Y-116271428D01*
X97435714Y-116271428D01*
X97521428Y-116300000D01*
X97550000Y-116328571D01*
X97750000Y-116271428D02*
X98121428Y-116271428D01*
X97921428Y-116500000D01*
X98007142Y-116500000D01*
X98064285Y-116528571D01*
X98092857Y-116557142D01*
X98121428Y-116614285D01*
X98121428Y-116757142D01*
X98092857Y-116814285D01*
X98064285Y-116842857D01*
X98007142Y-116871428D01*
X97835714Y-116871428D01*
X97778571Y-116842857D01*
X97750000Y-116814285D01*
%TO.C,C2*%
X99900000Y-112014285D02*
X99871428Y-112042857D01*
X99785714Y-112071428D01*
X99728571Y-112071428D01*
X99642857Y-112042857D01*
X99585714Y-111985714D01*
X99557142Y-111928571D01*
X99528571Y-111814285D01*
X99528571Y-111728571D01*
X99557142Y-111614285D01*
X99585714Y-111557142D01*
X99642857Y-111500000D01*
X99728571Y-111471428D01*
X99785714Y-111471428D01*
X99871428Y-111500000D01*
X99900000Y-111528571D01*
X100128571Y-111528571D02*
X100157142Y-111500000D01*
X100214285Y-111471428D01*
X100357142Y-111471428D01*
X100414285Y-111500000D01*
X100442857Y-111528571D01*
X100471428Y-111585714D01*
X100471428Y-111642857D01*
X100442857Y-111728571D01*
X100100000Y-112071428D01*
X100471428Y-112071428D01*
%TO.C,C15*%
X83364285Y-103014285D02*
X83335714Y-103042857D01*
X83250000Y-103071428D01*
X83192857Y-103071428D01*
X83107142Y-103042857D01*
X83050000Y-102985714D01*
X83021428Y-102928571D01*
X82992857Y-102814285D01*
X82992857Y-102728571D01*
X83021428Y-102614285D01*
X83050000Y-102557142D01*
X83107142Y-102500000D01*
X83192857Y-102471428D01*
X83250000Y-102471428D01*
X83335714Y-102500000D01*
X83364285Y-102528571D01*
X83935714Y-103071428D02*
X83592857Y-103071428D01*
X83764285Y-103071428D02*
X83764285Y-102471428D01*
X83707142Y-102557142D01*
X83650000Y-102614285D01*
X83592857Y-102642857D01*
X84478571Y-102471428D02*
X84192857Y-102471428D01*
X84164285Y-102757142D01*
X84192857Y-102728571D01*
X84250000Y-102700000D01*
X84392857Y-102700000D01*
X84450000Y-102728571D01*
X84478571Y-102757142D01*
X84507142Y-102814285D01*
X84507142Y-102957142D01*
X84478571Y-103014285D01*
X84450000Y-103042857D01*
X84392857Y-103071428D01*
X84250000Y-103071428D01*
X84192857Y-103042857D01*
X84164285Y-103014285D01*
%TO.C,C1*%
X89000000Y-105314285D02*
X88971428Y-105342857D01*
X88885714Y-105371428D01*
X88828571Y-105371428D01*
X88742857Y-105342857D01*
X88685714Y-105285714D01*
X88657142Y-105228571D01*
X88628571Y-105114285D01*
X88628571Y-105028571D01*
X88657142Y-104914285D01*
X88685714Y-104857142D01*
X88742857Y-104800000D01*
X88828571Y-104771428D01*
X88885714Y-104771428D01*
X88971428Y-104800000D01*
X89000000Y-104828571D01*
X89571428Y-105371428D02*
X89228571Y-105371428D01*
X89400000Y-105371428D02*
X89400000Y-104771428D01*
X89342857Y-104857142D01*
X89285714Y-104914285D01*
X89228571Y-104942857D01*
%TO.C,C4*%
X75100000Y-112814285D02*
X75071428Y-112842857D01*
X74985714Y-112871428D01*
X74928571Y-112871428D01*
X74842857Y-112842857D01*
X74785714Y-112785714D01*
X74757142Y-112728571D01*
X74728571Y-112614285D01*
X74728571Y-112528571D01*
X74757142Y-112414285D01*
X74785714Y-112357142D01*
X74842857Y-112300000D01*
X74928571Y-112271428D01*
X74985714Y-112271428D01*
X75071428Y-112300000D01*
X75100000Y-112328571D01*
X75614285Y-112471428D02*
X75614285Y-112871428D01*
X75471428Y-112242857D02*
X75328571Y-112671428D01*
X75700000Y-112671428D01*
%TO.C,C18*%
X85064285Y-106964285D02*
X85035714Y-106992857D01*
X84950000Y-107021428D01*
X84892857Y-107021428D01*
X84807142Y-106992857D01*
X84750000Y-106935714D01*
X84721428Y-106878571D01*
X84692857Y-106764285D01*
X84692857Y-106678571D01*
X84721428Y-106564285D01*
X84750000Y-106507142D01*
X84807142Y-106450000D01*
X84892857Y-106421428D01*
X84950000Y-106421428D01*
X85035714Y-106450000D01*
X85064285Y-106478571D01*
X85635714Y-107021428D02*
X85292857Y-107021428D01*
X85464285Y-107021428D02*
X85464285Y-106421428D01*
X85407142Y-106507142D01*
X85350000Y-106564285D01*
X85292857Y-106592857D01*
X85978571Y-106678571D02*
X85921428Y-106650000D01*
X85892857Y-106621428D01*
X85864285Y-106564285D01*
X85864285Y-106535714D01*
X85892857Y-106478571D01*
X85921428Y-106450000D01*
X85978571Y-106421428D01*
X86092857Y-106421428D01*
X86150000Y-106450000D01*
X86178571Y-106478571D01*
X86207142Y-106535714D01*
X86207142Y-106564285D01*
X86178571Y-106621428D01*
X86150000Y-106650000D01*
X86092857Y-106678571D01*
X85978571Y-106678571D01*
X85921428Y-106707142D01*
X85892857Y-106735714D01*
X85864285Y-106792857D01*
X85864285Y-106907142D01*
X85892857Y-106964285D01*
X85921428Y-106992857D01*
X85978571Y-107021428D01*
X86092857Y-107021428D01*
X86150000Y-106992857D01*
X86178571Y-106964285D01*
X86207142Y-106907142D01*
X86207142Y-106792857D01*
X86178571Y-106735714D01*
X86150000Y-106707142D01*
X86092857Y-106678571D01*
%TO.C,BT1*%
X70997142Y-81471428D02*
X71025714Y-81385714D01*
X71054285Y-81357142D01*
X71111428Y-81328571D01*
X71197142Y-81328571D01*
X71254285Y-81357142D01*
X71282857Y-81385714D01*
X71311428Y-81442857D01*
X71311428Y-81671428D01*
X70711428Y-81671428D01*
X70711428Y-81471428D01*
X70740000Y-81414285D01*
X70768571Y-81385714D01*
X70825714Y-81357142D01*
X70882857Y-81357142D01*
X70940000Y-81385714D01*
X70968571Y-81414285D01*
X70997142Y-81471428D01*
X70997142Y-81671428D01*
X70711428Y-81157142D02*
X70711428Y-80814285D01*
X71311428Y-80985714D02*
X70711428Y-80985714D01*
X71311428Y-80300000D02*
X71311428Y-80642857D01*
X71311428Y-80471428D02*
X70711428Y-80471428D01*
X70797142Y-80528571D01*
X70854285Y-80585714D01*
X70882857Y-80642857D01*
%TD*%
M02*
