M48
; DRILL file {KiCad 5.1.10-88a1d61d58~90~ubuntu20.04.1} date Fri Sep 24 13:57:02 2021
; FORMAT={-:-/ absolute / metric / decimal}
; #@! TF.CreationDate,2021-09-24T13:57:02+03:00
; #@! TF.GenerationSoftware,Kicad,Pcbnew,5.1.10-88a1d61d58~90~ubuntu20.04.1
; #@! TF.FileFunction,Plated,1,2,PTH
FMAT,2
METRIC
T1C0.200
T2C0.300
T3C0.400
T4C0.450
T5C0.600
T6C0.920
T7C1.016
T8C1.320
T9C2.300
%
G90
G05
T1
X132.4Y-105.5
X132.4Y-106.55
X133.175Y-104.75
X133.175Y-105.5
X133.175Y-106.55
X133.175Y-107.3
X133.95Y-105.5
X133.95Y-106.55
T2
X85.575Y-110.6
X85.575Y-111.7
X85.575Y-112.8
X86.675Y-110.6
X86.675Y-111.7
X86.675Y-112.8
X87.775Y-110.6
X87.775Y-111.7
X87.775Y-112.8
T3
X67.3Y-74.35
X67.3Y-75.425
X67.35Y-93.45
X68.2Y-92.45
X68.3Y-74.35
X68.3Y-75.425
X69.3Y-74.35
X69.3Y-75.425
X69.9Y-100.1
X70.3Y-74.35
X70.3Y-75.425
X71.2Y-108.9
X71.3Y-74.35
X71.3Y-75.425
X72.2Y-113.3
X72.3Y-74.35
X72.3Y-75.425
X72.6Y-112.2
X74.1Y-110.45
X76.625Y-101.225
X77.175Y-118.2
X77.2Y-111.2
X78.6Y-109.8
X79.4Y-118.6
X79.9Y-108.8
X79.9Y-109.8
X80.9Y-108.8
X80.9Y-109.8
X81.9Y-108.8
X81.9Y-109.8
X83.55Y-112.75
X84.15Y-101.5
X84.2Y-113.65
X84.342Y-114.908
X85.175Y-116.9
X85.25Y-101.5
X85.25Y-102.45
X85.25Y-103.45
X86.25Y-101.5
X86.25Y-102.45
X86.25Y-103.45
X87.25Y-101.5
X87.25Y-102.45
X87.25Y-103.45
X89.8Y-81.1
X90.0Y-91.975
X90.0Y-92.975
X90.0Y-93.975
X90.6Y-112.35
X90.6Y-113.35
X91.0Y-91.975
X91.0Y-92.975
X91.0Y-93.975
X91.6Y-112.35
X91.6Y-113.35
X91.65Y-77.35
X92.0Y-91.975
X92.0Y-92.975
X92.0Y-93.975
X92.375Y-120.4
X92.6Y-111.95
X92.6Y-112.95
X92.6Y-113.95
X93.0Y-91.975
X93.0Y-92.975
X93.0Y-93.975
X93.6Y-89.55
X93.85Y-106.5
X93.9Y-111.95
X93.9Y-112.95
X93.9Y-113.95
X94.85Y-87.65
X95.2Y-117.575
X95.425Y-120.4
X95.7Y-104.8
X96.425Y-120.4
X96.8Y-112.0
X96.8Y-113.0
X96.8Y-114.0
X96.8Y-115.0
X96.8Y-116.0
X97.425Y-120.4
X98.049Y-117.449
X98.425Y-120.4
X98.55Y-96.8
X98.55Y-97.8
X98.55Y-98.8
X98.55Y-99.8
X99.55Y-96.8
X99.55Y-97.8
X99.55Y-98.8
X99.55Y-99.8
X99.95Y-101.4
X99.95Y-102.35
X99.95Y-103.35
X100.075Y-121.6
X100.1Y-95.65
X100.55Y-90.45
X100.55Y-96.8
X100.55Y-97.8
X100.55Y-98.8
X100.55Y-99.8
X100.872Y-122.325
X100.9Y-92.65
X100.95Y-101.4
X100.95Y-102.35
X100.95Y-103.35
X101.808Y-122.692
X101.95Y-101.4
X101.95Y-102.35
X101.95Y-103.35
X103.95Y-88.4
X112.75Y-107.3
X118.275Y-113.745
X120.3Y-107.7
X125.8Y-86.1
X136.275Y-100.15
X137.7Y-120.35
X137.7Y-121.3
X137.7Y-122.3
X138.7Y-120.35
X138.7Y-121.3
X138.7Y-122.3
X139.7Y-120.35
X139.7Y-121.3
X139.7Y-122.3
X144.3Y-101.875
X144.95Y-120.35
X144.95Y-121.3
X144.95Y-122.3
X145.85Y-106.25
X145.85Y-107.2
X145.85Y-108.2
X145.95Y-120.35
X145.95Y-121.3
X145.95Y-122.3
X146.85Y-106.25
X146.85Y-107.2
X146.85Y-108.2
X146.95Y-120.35
X146.95Y-121.3
X146.95Y-122.3
X147.85Y-106.25
X147.85Y-107.2
X147.85Y-108.2
T6
X104.76Y-111.514
X107.26Y-111.514
X109.26Y-111.514
X111.76Y-111.514
T7
X74.777Y-69.641
X74.777Y-72.181
X77.317Y-69.641
X77.317Y-72.181
X79.857Y-69.641
X79.857Y-72.181
X82.397Y-69.641
X82.397Y-72.181
X84.937Y-69.641
X84.937Y-72.181
X87.477Y-69.641
X87.477Y-72.181
X90.017Y-69.641
X90.017Y-72.181
X92.557Y-69.641
X92.557Y-72.181
X95.097Y-69.641
X95.097Y-72.181
X97.637Y-69.641
X97.637Y-72.181
X100.177Y-69.641
X100.177Y-72.181
X102.717Y-69.641
X102.717Y-72.181
X105.257Y-69.641
X105.257Y-72.181
X107.797Y-69.641
X107.797Y-72.181
X110.337Y-69.641
X110.337Y-72.181
X112.877Y-69.641
X112.877Y-72.181
X115.417Y-69.641
X115.417Y-72.181
X117.957Y-69.641
X117.957Y-72.181
X120.497Y-69.641
X120.497Y-72.181
X123.037Y-69.641
X123.037Y-72.181
T8
X73.05Y-99.529
X73.05Y-104.529
X105.5Y-116.9
X110.5Y-116.9
T9
X101.69Y-114.224
X114.83Y-114.224
T4
X67.461Y-109.008G85X68.261Y-109.008
G05
X68.261Y-116.158G85X67.461Y-116.158
G05
T5
X73.97Y-117.669G85X73.97Y-116.569
G05
X73.97Y-121.689G85X73.97Y-120.889
G05
X82.61Y-117.669G85X82.61Y-116.569
G05
X82.61Y-121.689G85X82.61Y-120.889
G05
T0
M30
