%FSLAX45Y45*%
G04 Gerber Fmt 4.5, Leading zero omitted, Abs format (unit mm)*
G04 Created by KiCad (PCBNEW 6.0.4-6f826c9f35~116~ubuntu20.04.1) date 2022-05-05 15:44:58*
%MOMM*%
%LPD*%
G01*
G04 APERTURE LIST*
%TA.AperFunction,Profile*%
%ADD10C,0.050000*%
%TD*%
%ADD11C,0.200000*%
%ADD12C,0.020000*%
%ADD13C,0.040000*%
%ADD14C,0.060000*%
%ADD15C,0.065000*%
%ADD16C,0.070000*%
%ADD17C,0.101600*%
%ADD18C,0.132000*%
G04 APERTURE END LIST*
D10*
X15075000Y-12340002D02*
G75*
G03*
X15375042Y-12039958I0J300042D01*
G01*
X15375042Y-12039958D02*
X15375083Y-7042500D01*
X15375082Y-7042500D02*
G75*
G03*
X15075042Y-6742458I-300042J0D01*
G01*
X15075042Y-6742458D02*
X6940042Y-6742458D01*
X6940042Y-6742460D02*
G75*
G03*
X6640000Y-7042500I-2J-300040D01*
G01*
X6639958Y-12039958D02*
X6640000Y-7042500D01*
X6639960Y-12039958D02*
G75*
G03*
X6940000Y-12340000I300040J-2D01*
G01*
X15075000Y-12340000D02*
X6940000Y-12340000D01*
D11*
D12*
X8023240Y-11000120D02*
X8043240Y-11020120D01*
X8043240Y-11000120D02*
X8023240Y-11020120D01*
X8023240Y-11110120D02*
X8043240Y-11130120D01*
X8043240Y-11110120D02*
X8023240Y-11130120D01*
X8023240Y-11220120D02*
X8043240Y-11240120D01*
X8043240Y-11220120D02*
X8023240Y-11240120D01*
X8133240Y-11000120D02*
X8153240Y-11020120D01*
X8153240Y-11000120D02*
X8133240Y-11020120D01*
X8133240Y-11110120D02*
X8153240Y-11130120D01*
X8153240Y-11110120D02*
X8133240Y-11130120D01*
X8133240Y-11220120D02*
X8153240Y-11240120D01*
X8153240Y-11220120D02*
X8133240Y-11240120D01*
X8243240Y-11000120D02*
X8263240Y-11020120D01*
X8263240Y-11000120D02*
X8243240Y-11020120D01*
X8243240Y-11110120D02*
X8263240Y-11130120D01*
X8263240Y-11110120D02*
X8243240Y-11130120D01*
X8243240Y-11220120D02*
X8263240Y-11240120D01*
X8263240Y-11220120D02*
X8243240Y-11240120D01*
X11512590Y-10919620D02*
X11532590Y-10939620D01*
X11532590Y-10919620D02*
X11512590Y-10939620D01*
X11587590Y-10842120D02*
X11607590Y-10862120D01*
X11607590Y-10842120D02*
X11587590Y-10862120D01*
X11587590Y-10919620D02*
X11607590Y-10939620D01*
X11607590Y-10919620D02*
X11587590Y-10939620D01*
X11587590Y-10997120D02*
X11607590Y-11017120D01*
X11607590Y-10997120D02*
X11587590Y-11017120D01*
X11692590Y-10842120D02*
X11712590Y-10862120D01*
X11712590Y-10842120D02*
X11692590Y-10862120D01*
X11692590Y-10919620D02*
X11712590Y-10939620D01*
X11712590Y-10919620D02*
X11692590Y-10939620D01*
X11692590Y-10997120D02*
X11712590Y-11017120D01*
X11712590Y-10997120D02*
X11692590Y-11017120D01*
X11767590Y-10919620D02*
X11787590Y-10939620D01*
X11787590Y-10919620D02*
X11767590Y-10939620D01*
D13*
X6735000Y-7712500D02*
G75*
G03*
X6735000Y-7712500I-20000J0D01*
G01*
X6735000Y-9200500D02*
G75*
G03*
X6735000Y-9200500I-20000J0D01*
G01*
X6735000Y-9768000D02*
G75*
G03*
X6735000Y-9768000I-20000J0D01*
G01*
X6735000Y-10383000D02*
G75*
G03*
X6735000Y-10383000I-20000J0D01*
G01*
X6739000Y-7431000D02*
G75*
G03*
X6739000Y-7431000I-20000J0D01*
G01*
X6739000Y-9486500D02*
G75*
G03*
X6739000Y-9486500I-20000J0D01*
G01*
X6739000Y-10054000D02*
G75*
G03*
X6739000Y-10054000I-20000J0D01*
G01*
X6739000Y-10669000D02*
G75*
G03*
X6739000Y-10669000I-20000J0D01*
G01*
X6892040Y-7482500D02*
G75*
G03*
X6892040Y-7482500I-20000J0D01*
G01*
X6892040Y-7576480D02*
G75*
G03*
X6892040Y-7576480I-20000J0D01*
G01*
X6892040Y-7670000D02*
G75*
G03*
X6892040Y-7670000I-20000J0D01*
G01*
X6892040Y-7763980D02*
G75*
G03*
X6892040Y-7763980I-20000J0D01*
G01*
X6986020Y-7482500D02*
G75*
G03*
X6986020Y-7482500I-20000J0D01*
G01*
X6986020Y-7576480D02*
G75*
G03*
X6986020Y-7576480I-20000J0D01*
G01*
X6986020Y-7670000D02*
G75*
G03*
X6986020Y-7670000I-20000J0D01*
G01*
X6986020Y-7763980D02*
G75*
G03*
X6986020Y-7763980I-20000J0D01*
G01*
X7080000Y-7482500D02*
G75*
G03*
X7080000Y-7482500I-20000J0D01*
G01*
X7080000Y-7576480D02*
G75*
G03*
X7080000Y-7576480I-20000J0D01*
G01*
X7080000Y-7670000D02*
G75*
G03*
X7080000Y-7670000I-20000J0D01*
G01*
X7080000Y-7763980D02*
G75*
G03*
X7080000Y-7763980I-20000J0D01*
G01*
X7270439Y-11232987D02*
G75*
G03*
X7270439Y-11232987I-20000J0D01*
G01*
X7344408Y-11165766D02*
G75*
G03*
X7344408Y-11165766I-20000J0D01*
G01*
X7450000Y-11083642D02*
G75*
G03*
X7450000Y-11083642I-20000J0D01*
G01*
X7450000Y-11178642D02*
G75*
G03*
X7450000Y-11178642I-20000J0D01*
G01*
X7450000Y-11273642D02*
G75*
G03*
X7450000Y-11273642I-20000J0D01*
G01*
X7545000Y-11085000D02*
G75*
G03*
X7545000Y-11085000I-20000J0D01*
G01*
X7545000Y-11180000D02*
G75*
G03*
X7545000Y-11180000I-20000J0D01*
G01*
X7545000Y-11275000D02*
G75*
G03*
X7545000Y-11275000I-20000J0D01*
G01*
X7597500Y-10705000D02*
G75*
G03*
X7597500Y-10705000I-20000J0D01*
G01*
X7637500Y-7483520D02*
G75*
G03*
X7637500Y-7483520I-20000J0D01*
G01*
X7637500Y-7577500D02*
G75*
G03*
X7637500Y-7577500I-20000J0D01*
G01*
X7637500Y-7671020D02*
G75*
G03*
X7637500Y-7671020I-20000J0D01*
G01*
X7637500Y-7765000D02*
G75*
G03*
X7637500Y-7765000I-20000J0D01*
G01*
X7645000Y-11085000D02*
G75*
G03*
X7645000Y-11085000I-20000J0D01*
G01*
X7645000Y-11180000D02*
G75*
G03*
X7645000Y-11180000I-20000J0D01*
G01*
X7645000Y-11275000D02*
G75*
G03*
X7645000Y-11275000I-20000J0D01*
G01*
X7677695Y-10612105D02*
G75*
G03*
X7677695Y-10612105I-20000J0D01*
G01*
X7695000Y-11990000D02*
G75*
G03*
X7695000Y-11990000I-20000J0D01*
G01*
X7731480Y-7483520D02*
G75*
G03*
X7731480Y-7483520I-20000J0D01*
G01*
X7731480Y-7577500D02*
G75*
G03*
X7731480Y-7577500I-20000J0D01*
G01*
X7731480Y-7671020D02*
G75*
G03*
X7731480Y-7671020I-20000J0D01*
G01*
X7731480Y-7765000D02*
G75*
G03*
X7731480Y-7765000I-20000J0D01*
G01*
X7777500Y-10617500D02*
G75*
G03*
X7777500Y-10617500I-20000J0D01*
G01*
X7794198Y-11226046D02*
G75*
G03*
X7794198Y-11226046I-20000J0D01*
G01*
X7825460Y-7483520D02*
G75*
G03*
X7825460Y-7483520I-20000J0D01*
G01*
X7825460Y-7577500D02*
G75*
G03*
X7825460Y-7577500I-20000J0D01*
G01*
X7825460Y-7671020D02*
G75*
G03*
X7825460Y-7671020I-20000J0D01*
G01*
X7825460Y-7765000D02*
G75*
G03*
X7825460Y-7765000I-20000J0D01*
G01*
X7843200Y-11313160D02*
G75*
G03*
X7843200Y-11313160I-20000J0D01*
G01*
X7870000Y-10720000D02*
G75*
G03*
X7870000Y-10720000I-20000J0D01*
G01*
X7901000Y-9556000D02*
G75*
G03*
X7901000Y-9556000I-20000J0D01*
G01*
X7919400Y-11384280D02*
G75*
G03*
X7919400Y-11384280I-20000J0D01*
G01*
X7960000Y-7675000D02*
G75*
G03*
X7960000Y-7675000I-20000J0D01*
G01*
X7994950Y-7366368D02*
G75*
G03*
X7994950Y-7366368I-20000J0D01*
G01*
X8155000Y-11985000D02*
G75*
G03*
X8155000Y-11985000I-20000J0D01*
G01*
X8190322Y-11891499D02*
G75*
G03*
X8190322Y-11891499I-20000J0D01*
G01*
X8225462Y-8641850D02*
G75*
G03*
X8225462Y-8641850I-20000J0D01*
G01*
X8283000Y-7360000D02*
G75*
G03*
X8283000Y-7360000I-20000J0D01*
G01*
X8365000Y-7834000D02*
G75*
G03*
X8365000Y-7834000I-20000J0D01*
G01*
X8424000Y-10412258D02*
G75*
G03*
X8424000Y-10412258I-20000J0D01*
G01*
X8556940Y-11176000D02*
G75*
G03*
X8556940Y-11176000I-20000J0D01*
G01*
X8556940Y-11269980D02*
G75*
G03*
X8556940Y-11269980I-20000J0D01*
G01*
X8610000Y-7400000D02*
G75*
G03*
X8610000Y-7400000I-20000J0D01*
G01*
X8626000Y-10232450D02*
G75*
G03*
X8626000Y-10232450I-20000J0D01*
G01*
X8650920Y-11176000D02*
G75*
G03*
X8650920Y-11176000I-20000J0D01*
G01*
X8650920Y-11269980D02*
G75*
G03*
X8650920Y-11269980I-20000J0D01*
G01*
X8685895Y-10322500D02*
G75*
G03*
X8685895Y-10322500I-20000J0D01*
G01*
X8692500Y-7927500D02*
G75*
G03*
X8692500Y-7927500I-20000J0D01*
G01*
X8744900Y-11176000D02*
G75*
G03*
X8744900Y-11176000I-20000J0D01*
G01*
X8744900Y-11269980D02*
G75*
G03*
X8744900Y-11269980I-20000J0D01*
G01*
X8792500Y-7552450D02*
G75*
G03*
X8792500Y-7552450I-20000J0D01*
G01*
X8800000Y-8825000D02*
G75*
G03*
X8800000Y-8825000I-20000J0D01*
G01*
X8870000Y-8067500D02*
G75*
G03*
X8870000Y-8067500I-20000J0D01*
G01*
X8870786Y-10321246D02*
G75*
G03*
X8870786Y-10321246I-20000J0D01*
G01*
X8879000Y-8904000D02*
G75*
G03*
X8879000Y-8904000I-20000J0D01*
G01*
X8924000Y-11016000D02*
G75*
G03*
X8924000Y-11016000I-20000J0D01*
G01*
X8954000Y-8976000D02*
G75*
G03*
X8954000Y-8976000I-20000J0D01*
G01*
X8967318Y-12107318D02*
G75*
G03*
X8967318Y-12107318I-20000J0D01*
G01*
X9013776Y-9087638D02*
G75*
G03*
X9013776Y-9087638I-20000J0D01*
G01*
X9040000Y-10344950D02*
G75*
G03*
X9040000Y-10344950I-20000J0D01*
G01*
X9080000Y-9162500D02*
G75*
G03*
X9080000Y-9162500I-20000J0D01*
G01*
X9097619Y-11173254D02*
G75*
G03*
X9097619Y-11173254I-20000J0D01*
G01*
X9139950Y-10460000D02*
G75*
G03*
X9139950Y-10460000I-20000J0D01*
G01*
X9177877Y-9182751D02*
G75*
G03*
X9177877Y-9182751I-20000J0D01*
G01*
X9187450Y-10980050D02*
G75*
G03*
X9187450Y-10980050I-20000J0D01*
G01*
X9212500Y-10855000D02*
G75*
G03*
X9212500Y-10855000I-20000J0D01*
G01*
X9239754Y-12131555D02*
G75*
G03*
X9239754Y-12131555I-20000J0D01*
G01*
X9257500Y-9416229D02*
G75*
G03*
X9257500Y-9416229I-20000J0D01*
G01*
X9272500Y-7935000D02*
G75*
G03*
X9272500Y-7935000I-20000J0D01*
G01*
X9288460Y-11516360D02*
G75*
G03*
X9288460Y-11516360I-20000J0D01*
G01*
X9288460Y-11610340D02*
G75*
G03*
X9288460Y-11610340I-20000J0D01*
G01*
X9288460Y-11704320D02*
G75*
G03*
X9288460Y-11704320I-20000J0D01*
G01*
X9312500Y-7407500D02*
G75*
G03*
X9312500Y-7407500I-20000J0D01*
G01*
X9331270Y-7746230D02*
G75*
G03*
X9331270Y-7746230I-20000J0D01*
G01*
X9341020Y-9014000D02*
G75*
G03*
X9341020Y-9014000I-20000J0D01*
G01*
X9341020Y-9107980D02*
G75*
G03*
X9341020Y-9107980I-20000J0D01*
G01*
X9341020Y-9201960D02*
G75*
G03*
X9341020Y-9201960I-20000J0D01*
G01*
X9345000Y-10510000D02*
G75*
G03*
X9345000Y-10510000I-20000J0D01*
G01*
X9350000Y-12135650D02*
G75*
G03*
X9350000Y-12135650I-20000J0D01*
G01*
X9382440Y-11516360D02*
G75*
G03*
X9382440Y-11516360I-20000J0D01*
G01*
X9382440Y-11610340D02*
G75*
G03*
X9382440Y-11610340I-20000J0D01*
G01*
X9382440Y-11704320D02*
G75*
G03*
X9382440Y-11704320I-20000J0D01*
G01*
X9382708Y-9491439D02*
G75*
G03*
X9382708Y-9491439I-20000J0D01*
G01*
X9435000Y-9014000D02*
G75*
G03*
X9435000Y-9014000I-20000J0D01*
G01*
X9435000Y-9107980D02*
G75*
G03*
X9435000Y-9107980I-20000J0D01*
G01*
X9435000Y-9201960D02*
G75*
G03*
X9435000Y-9201960I-20000J0D01*
G01*
X9437550Y-9575000D02*
G75*
G03*
X9437550Y-9575000I-20000J0D01*
G01*
X9532450Y-11671018D02*
G75*
G03*
X9532450Y-11671018I-20000J0D01*
G01*
X9546330Y-11770000D02*
G75*
G03*
X9546330Y-11770000I-20000J0D01*
G01*
X9546708Y-11497450D02*
G75*
G03*
X9546708Y-11497450I-20000J0D01*
G01*
X9570000Y-11590000D02*
G75*
G03*
X9570000Y-11590000I-20000J0D01*
G01*
X9647500Y-7512500D02*
G75*
G03*
X9647500Y-7512500I-20000J0D01*
G01*
X9647500Y-8020500D02*
G75*
G03*
X9647500Y-8020500I-20000J0D01*
G01*
X9647500Y-8274500D02*
G75*
G03*
X9647500Y-8274500I-20000J0D01*
G01*
X9652500Y-9537500D02*
G75*
G03*
X9652500Y-9537500I-20000J0D01*
G01*
X9654000Y-9274020D02*
G75*
G03*
X9654000Y-9274020I-20000J0D01*
G01*
X9654000Y-9368000D02*
G75*
G03*
X9654000Y-9368000I-20000J0D01*
G01*
X9696777Y-10990816D02*
G75*
G03*
X9696777Y-10990816I-20000J0D01*
G01*
X9705430Y-11901144D02*
G75*
G03*
X9705430Y-11901144I-20000J0D01*
G01*
X9747980Y-9274020D02*
G75*
G03*
X9747980Y-9274020I-20000J0D01*
G01*
X9747980Y-9368000D02*
G75*
G03*
X9747980Y-9368000I-20000J0D01*
G01*
X9750000Y-10322500D02*
G75*
G03*
X9750000Y-10322500I-20000J0D01*
G01*
X9750382Y-12000779D02*
G75*
G03*
X9750382Y-12000779I-20000J0D01*
G01*
X9770000Y-11425000D02*
G75*
G03*
X9770000Y-11425000I-20000J0D01*
G01*
X9808480Y-11258520D02*
G75*
G03*
X9808480Y-11258520I-20000J0D01*
G01*
X9841960Y-9274020D02*
G75*
G03*
X9841960Y-9274020I-20000J0D01*
G01*
X9841960Y-9368000D02*
G75*
G03*
X9841960Y-9368000I-20000J0D01*
G01*
X9901500Y-7512500D02*
G75*
G03*
X9901500Y-7512500I-20000J0D01*
G01*
X9901500Y-8020500D02*
G75*
G03*
X9901500Y-8020500I-20000J0D01*
G01*
X9901500Y-8274500D02*
G75*
G03*
X9901500Y-8274500I-20000J0D01*
G01*
X9920000Y-11187500D02*
G75*
G03*
X9920000Y-11187500I-20000J0D01*
G01*
X10010050Y-10677500D02*
G75*
G03*
X10010050Y-10677500I-20000J0D01*
G01*
X10155500Y-7512500D02*
G75*
G03*
X10155500Y-7512500I-20000J0D01*
G01*
X10155500Y-8020500D02*
G75*
G03*
X10155500Y-8020500I-20000J0D01*
G01*
X10155500Y-8274500D02*
G75*
G03*
X10155500Y-8274500I-20000J0D01*
G01*
X10159955Y-10804995D02*
G75*
G03*
X10159955Y-10804995I-20000J0D01*
G01*
X10189850Y-11452500D02*
G75*
G03*
X10189850Y-11452500I-20000J0D01*
G01*
X10267500Y-9537500D02*
G75*
G03*
X10267500Y-9537500I-20000J0D01*
G01*
X10289800Y-11452450D02*
G75*
G03*
X10289800Y-11452450I-20000J0D01*
G01*
X10327450Y-10729050D02*
G75*
G03*
X10327450Y-10729050I-20000J0D01*
G01*
X10409500Y-7512500D02*
G75*
G03*
X10409500Y-7512500I-20000J0D01*
G01*
X10409500Y-8020500D02*
G75*
G03*
X10409500Y-8020500I-20000J0D01*
G01*
X10409500Y-8274500D02*
G75*
G03*
X10409500Y-8274500I-20000J0D01*
G01*
X10417500Y-12039540D02*
G75*
G03*
X10417500Y-12039540I-20000J0D01*
G01*
X10417500Y-12133520D02*
G75*
G03*
X10417500Y-12133520I-20000J0D01*
G01*
X10417500Y-12227500D02*
G75*
G03*
X10417500Y-12227500I-20000J0D01*
G01*
X10429414Y-10455469D02*
G75*
G03*
X10429414Y-10455469I-20000J0D01*
G01*
X10442450Y-11376351D02*
G75*
G03*
X10442450Y-11376351I-20000J0D01*
G01*
X10502500Y-10200000D02*
G75*
G03*
X10502500Y-10200000I-20000J0D01*
G01*
X10511480Y-12039540D02*
G75*
G03*
X10511480Y-12039540I-20000J0D01*
G01*
X10511480Y-12133520D02*
G75*
G03*
X10511480Y-12133520I-20000J0D01*
G01*
X10511480Y-12227500D02*
G75*
G03*
X10511480Y-12227500I-20000J0D01*
G01*
X10580259Y-11676988D02*
G75*
G03*
X10580259Y-11676988I-20000J0D01*
G01*
X10605000Y-12039540D02*
G75*
G03*
X10605000Y-12039540I-20000J0D01*
G01*
X10605000Y-12133520D02*
G75*
G03*
X10605000Y-12133520I-20000J0D01*
G01*
X10605000Y-12227500D02*
G75*
G03*
X10605000Y-12227500I-20000J0D01*
G01*
X10663500Y-7512500D02*
G75*
G03*
X10663500Y-7512500I-20000J0D01*
G01*
X10663500Y-8020500D02*
G75*
G03*
X10663500Y-8020500I-20000J0D01*
G01*
X10663500Y-8274500D02*
G75*
G03*
X10663500Y-8274500I-20000J0D01*
G01*
X10698980Y-12039540D02*
G75*
G03*
X10698980Y-12039540I-20000J0D01*
G01*
X10698980Y-12133520D02*
G75*
G03*
X10698980Y-12133520I-20000J0D01*
G01*
X10698980Y-12227500D02*
G75*
G03*
X10698980Y-12227500I-20000J0D01*
G01*
X10710225Y-11359230D02*
G75*
G03*
X10710225Y-11359230I-20000J0D01*
G01*
X10711000Y-11174000D02*
G75*
G03*
X10711000Y-11174000I-20000J0D01*
G01*
X10773285Y-11080285D02*
G75*
G03*
X10773285Y-11080285I-20000J0D01*
G01*
X10817000Y-10986000D02*
G75*
G03*
X10817000Y-10986000I-20000J0D01*
G01*
X10835000Y-9537500D02*
G75*
G03*
X10835000Y-9537500I-20000J0D01*
G01*
X10884000Y-11356000D02*
G75*
G03*
X10884000Y-11356000I-20000J0D01*
G01*
X10917500Y-7512500D02*
G75*
G03*
X10917500Y-7512500I-20000J0D01*
G01*
X10917500Y-8020500D02*
G75*
G03*
X10917500Y-8020500I-20000J0D01*
G01*
X10917500Y-8274500D02*
G75*
G03*
X10917500Y-8274500I-20000J0D01*
G01*
X10951097Y-11696213D02*
G75*
G03*
X10951097Y-11696213I-20000J0D01*
G01*
X11052751Y-11453485D02*
G75*
G03*
X11052751Y-11453485I-20000J0D01*
G01*
X11060337Y-11207232D02*
G75*
G03*
X11060337Y-11207232I-20000J0D01*
G01*
X11087208Y-10661661D02*
G75*
G03*
X11087208Y-10661661I-20000J0D01*
G01*
X11106282Y-10563548D02*
G75*
G03*
X11106282Y-10563548I-20000J0D01*
G01*
X11107500Y-8362500D02*
G75*
G03*
X11107500Y-8362500I-20000J0D01*
G01*
X11155000Y-11415000D02*
G75*
G03*
X11155000Y-11415000I-20000J0D01*
G01*
X11171500Y-7512500D02*
G75*
G03*
X11171500Y-7512500I-20000J0D01*
G01*
X11171500Y-8782500D02*
G75*
G03*
X11171500Y-8782500I-20000J0D01*
G01*
X11171500Y-9798500D02*
G75*
G03*
X11171500Y-9798500I-20000J0D01*
G01*
X11172450Y-12013770D02*
G75*
G03*
X11172450Y-12013770I-20000J0D01*
G01*
X11172500Y-11910000D02*
G75*
G03*
X11172500Y-11910000I-20000J0D01*
G01*
X11180000Y-11688000D02*
G75*
G03*
X11180000Y-11688000I-20000J0D01*
G01*
X11180050Y-11584230D02*
G75*
G03*
X11180050Y-11584230I-20000J0D01*
G01*
X11303730Y-11142450D02*
G75*
G03*
X11303730Y-11142450I-20000J0D01*
G01*
X11407500Y-11142500D02*
G75*
G03*
X11407500Y-11142500I-20000J0D01*
G01*
X11425500Y-8782500D02*
G75*
G03*
X11425500Y-8782500I-20000J0D01*
G01*
X11511102Y-11327135D02*
G75*
G03*
X11511102Y-11327135I-20000J0D01*
G01*
X11544000Y-10683000D02*
G75*
G03*
X11544000Y-10683000I-20000J0D01*
G01*
X11587500Y-10147500D02*
G75*
G03*
X11587500Y-10147500I-20000J0D01*
G01*
X11679500Y-7766500D02*
G75*
G03*
X11679500Y-7766500I-20000J0D01*
G01*
X11679500Y-8020500D02*
G75*
G03*
X11679500Y-8020500I-20000J0D01*
G01*
X11679500Y-8274500D02*
G75*
G03*
X11679500Y-8274500I-20000J0D01*
G01*
X11679500Y-8528500D02*
G75*
G03*
X11679500Y-8528500I-20000J0D01*
G01*
X11679500Y-8782500D02*
G75*
G03*
X11679500Y-8782500I-20000J0D01*
G01*
X11679500Y-9036500D02*
G75*
G03*
X11679500Y-9036500I-20000J0D01*
G01*
X11747500Y-11992500D02*
G75*
G03*
X11747500Y-11992500I-20000J0D01*
G01*
X11747500Y-12086480D02*
G75*
G03*
X11747500Y-12086480I-20000J0D01*
G01*
X11747500Y-12180460D02*
G75*
G03*
X11747500Y-12180460I-20000J0D01*
G01*
X11841480Y-11992500D02*
G75*
G03*
X11841480Y-11992500I-20000J0D01*
G01*
X11841480Y-12086480D02*
G75*
G03*
X11841480Y-12086480I-20000J0D01*
G01*
X11841480Y-12180460D02*
G75*
G03*
X11841480Y-12180460I-20000J0D01*
G01*
X11923293Y-11380795D02*
G75*
G03*
X11923293Y-11380795I-20000J0D01*
G01*
X11926891Y-10799391D02*
G75*
G03*
X11926891Y-10799391I-20000J0D01*
G01*
X11933500Y-7766500D02*
G75*
G03*
X11933500Y-7766500I-20000J0D01*
G01*
X11933500Y-8020500D02*
G75*
G03*
X11933500Y-8020500I-20000J0D01*
G01*
X11933500Y-8274500D02*
G75*
G03*
X11933500Y-8274500I-20000J0D01*
G01*
X11933500Y-8528500D02*
G75*
G03*
X11933500Y-8528500I-20000J0D01*
G01*
X11933500Y-8782500D02*
G75*
G03*
X11933500Y-8782500I-20000J0D01*
G01*
X11933500Y-9036500D02*
G75*
G03*
X11933500Y-9036500I-20000J0D01*
G01*
X11935000Y-11992500D02*
G75*
G03*
X11935000Y-11992500I-20000J0D01*
G01*
X11935000Y-12086480D02*
G75*
G03*
X11935000Y-12086480I-20000J0D01*
G01*
X11935000Y-12180460D02*
G75*
G03*
X11935000Y-12180460I-20000J0D01*
G01*
X11937164Y-10699970D02*
G75*
G03*
X11937164Y-10699970I-20000J0D01*
G01*
X11942020Y-11860000D02*
G75*
G03*
X11942020Y-11860000I-20000J0D01*
G01*
X12028980Y-11992500D02*
G75*
G03*
X12028980Y-11992500I-20000J0D01*
G01*
X12028980Y-12086480D02*
G75*
G03*
X12028980Y-12086480I-20000J0D01*
G01*
X12028980Y-12180460D02*
G75*
G03*
X12028980Y-12180460I-20000J0D01*
G01*
X12036000Y-11860000D02*
G75*
G03*
X12036000Y-11860000I-20000J0D01*
G01*
X12127553Y-10926183D02*
G75*
G03*
X12127553Y-10926183I-20000J0D01*
G01*
X12187500Y-7512500D02*
G75*
G03*
X12187500Y-7512500I-20000J0D01*
G01*
X12187500Y-8782500D02*
G75*
G03*
X12187500Y-8782500I-20000J0D01*
G01*
X12187500Y-9036500D02*
G75*
G03*
X12187500Y-9036500I-20000J0D01*
G01*
X12187500Y-10654999D02*
G75*
G03*
X12187500Y-10654999I-20000J0D01*
G01*
X12285408Y-10675100D02*
G75*
G03*
X12285408Y-10675100I-20000J0D01*
G01*
X12306020Y-12142020D02*
G75*
G03*
X12306020Y-12142020I-20000J0D01*
G01*
X12306020Y-12236000D02*
G75*
G03*
X12306020Y-12236000I-20000J0D01*
G01*
X12307000Y-10202000D02*
G75*
G03*
X12307000Y-10202000I-20000J0D01*
G01*
X12380094Y-10564865D02*
G75*
G03*
X12380094Y-10564865I-20000J0D01*
G01*
X12400000Y-12142020D02*
G75*
G03*
X12400000Y-12142020I-20000J0D01*
G01*
X12400000Y-12236000D02*
G75*
G03*
X12400000Y-12236000I-20000J0D01*
G01*
X12441500Y-7512500D02*
G75*
G03*
X12441500Y-7512500I-20000J0D01*
G01*
X12441500Y-8782500D02*
G75*
G03*
X12441500Y-8782500I-20000J0D01*
G01*
X12441500Y-9036500D02*
G75*
G03*
X12441500Y-9036500I-20000J0D01*
G01*
X12441500Y-9290500D02*
G75*
G03*
X12441500Y-9290500I-20000J0D01*
G01*
X12477450Y-10328488D02*
G75*
G03*
X12477450Y-10328488I-20000J0D01*
G01*
X12574000Y-10863000D02*
G75*
G03*
X12574000Y-10863000I-20000J0D01*
G01*
X12636020Y-10155020D02*
G75*
G03*
X12636020Y-10155020I-20000J0D01*
G01*
X12636020Y-10249000D02*
G75*
G03*
X12636020Y-10249000I-20000J0D01*
G01*
X12664540Y-9510000D02*
G75*
G03*
X12664540Y-9510000I-20000J0D01*
G01*
X12664540Y-9603980D02*
G75*
G03*
X12664540Y-9603980I-20000J0D01*
G01*
X12664540Y-9697500D02*
G75*
G03*
X12664540Y-9697500I-20000J0D01*
G01*
X12664540Y-9791480D02*
G75*
G03*
X12664540Y-9791480I-20000J0D01*
G01*
X12665480Y-11084480D02*
G75*
G03*
X12665480Y-11084480I-20000J0D01*
G01*
X12695500Y-7512500D02*
G75*
G03*
X12695500Y-7512500I-20000J0D01*
G01*
X12695500Y-7766500D02*
G75*
G03*
X12695500Y-7766500I-20000J0D01*
G01*
X12695500Y-8020500D02*
G75*
G03*
X12695500Y-8020500I-20000J0D01*
G01*
X12695500Y-8274500D02*
G75*
G03*
X12695500Y-8274500I-20000J0D01*
G01*
X12695500Y-8528500D02*
G75*
G03*
X12695500Y-8528500I-20000J0D01*
G01*
X12695500Y-9036500D02*
G75*
G03*
X12695500Y-9036500I-20000J0D01*
G01*
X12695500Y-9290500D02*
G75*
G03*
X12695500Y-9290500I-20000J0D01*
G01*
X12730000Y-10155020D02*
G75*
G03*
X12730000Y-10155020I-20000J0D01*
G01*
X12730000Y-10249000D02*
G75*
G03*
X12730000Y-10249000I-20000J0D01*
G01*
X12758520Y-9510000D02*
G75*
G03*
X12758520Y-9510000I-20000J0D01*
G01*
X12758520Y-9603980D02*
G75*
G03*
X12758520Y-9603980I-20000J0D01*
G01*
X12758520Y-9697500D02*
G75*
G03*
X12758520Y-9697500I-20000J0D01*
G01*
X12758520Y-9791480D02*
G75*
G03*
X12758520Y-9791480I-20000J0D01*
G01*
X12852500Y-9510000D02*
G75*
G03*
X12852500Y-9510000I-20000J0D01*
G01*
X12852500Y-9603980D02*
G75*
G03*
X12852500Y-9603980I-20000J0D01*
G01*
X12852500Y-9697500D02*
G75*
G03*
X12852500Y-9697500I-20000J0D01*
G01*
X12852500Y-9791480D02*
G75*
G03*
X12852500Y-9791480I-20000J0D01*
G01*
X12874834Y-11069911D02*
G75*
G03*
X12874834Y-11069911I-20000J0D01*
G01*
X12911770Y-10220770D02*
G75*
G03*
X12911770Y-10220770I-20000J0D01*
G01*
X12949500Y-7512500D02*
G75*
G03*
X12949500Y-7512500I-20000J0D01*
G01*
X12949500Y-7766500D02*
G75*
G03*
X12949500Y-7766500I-20000J0D01*
G01*
X12949500Y-8020500D02*
G75*
G03*
X12949500Y-8020500I-20000J0D01*
G01*
X12949500Y-8274500D02*
G75*
G03*
X12949500Y-8274500I-20000J0D01*
G01*
X12949500Y-8528500D02*
G75*
G03*
X12949500Y-8528500I-20000J0D01*
G01*
X12949500Y-8782500D02*
G75*
G03*
X12949500Y-8782500I-20000J0D01*
G01*
X12949500Y-9290500D02*
G75*
G03*
X12949500Y-9290500I-20000J0D01*
G01*
X13020000Y-10334000D02*
G75*
G03*
X13020000Y-10334000I-20000J0D01*
G01*
X13203500Y-7004500D02*
G75*
G03*
X13203500Y-7004500I-20000J0D01*
G01*
X13203500Y-7258500D02*
G75*
G03*
X13203500Y-7258500I-20000J0D01*
G01*
X13203500Y-7512500D02*
G75*
G03*
X13203500Y-7512500I-20000J0D01*
G01*
X13203500Y-7766500D02*
G75*
G03*
X13203500Y-7766500I-20000J0D01*
G01*
X13203500Y-8020500D02*
G75*
G03*
X13203500Y-8020500I-20000J0D01*
G01*
X13203500Y-8274500D02*
G75*
G03*
X13203500Y-8274500I-20000J0D01*
G01*
X13203500Y-8528500D02*
G75*
G03*
X13203500Y-8528500I-20000J0D01*
G01*
X13203500Y-8782500D02*
G75*
G03*
X13203500Y-8782500I-20000J0D01*
G01*
X13203500Y-9036500D02*
G75*
G03*
X13203500Y-9036500I-20000J0D01*
G01*
X13203500Y-9544500D02*
G75*
G03*
X13203500Y-9544500I-20000J0D01*
G01*
X13218230Y-11636450D02*
G75*
G03*
X13218230Y-11636450I-20000J0D01*
G01*
X13218755Y-11491550D02*
G75*
G03*
X13218755Y-11491550I-20000J0D01*
G01*
X13365000Y-11572500D02*
G75*
G03*
X13365000Y-11572500I-20000J0D01*
G01*
X13367500Y-11855000D02*
G75*
G03*
X13367500Y-11855000I-20000J0D01*
G01*
X13457500Y-7004500D02*
G75*
G03*
X13457500Y-7004500I-20000J0D01*
G01*
X13457500Y-7258500D02*
G75*
G03*
X13457500Y-7258500I-20000J0D01*
G01*
X13457500Y-7512500D02*
G75*
G03*
X13457500Y-7512500I-20000J0D01*
G01*
X13457500Y-7766500D02*
G75*
G03*
X13457500Y-7766500I-20000J0D01*
G01*
X13457500Y-8020500D02*
G75*
G03*
X13457500Y-8020500I-20000J0D01*
G01*
X13457500Y-8274500D02*
G75*
G03*
X13457500Y-8274500I-20000J0D01*
G01*
X13457500Y-8528500D02*
G75*
G03*
X13457500Y-8528500I-20000J0D01*
G01*
X13457500Y-8782500D02*
G75*
G03*
X13457500Y-8782500I-20000J0D01*
G01*
X13457500Y-9036500D02*
G75*
G03*
X13457500Y-9036500I-20000J0D01*
G01*
X13457500Y-9290500D02*
G75*
G03*
X13457500Y-9290500I-20000J0D01*
G01*
X13517500Y-11332500D02*
G75*
G03*
X13517500Y-11332500I-20000J0D01*
G01*
X13585000Y-9853520D02*
G75*
G03*
X13585000Y-9853520I-20000J0D01*
G01*
X13585000Y-9947500D02*
G75*
G03*
X13585000Y-9947500I-20000J0D01*
G01*
X13678980Y-9853520D02*
G75*
G03*
X13678980Y-9853520I-20000J0D01*
G01*
X13678980Y-9947500D02*
G75*
G03*
X13678980Y-9947500I-20000J0D01*
G01*
X13711500Y-7004500D02*
G75*
G03*
X13711500Y-7004500I-20000J0D01*
G01*
X13711500Y-7258500D02*
G75*
G03*
X13711500Y-7258500I-20000J0D01*
G01*
X13711500Y-8020500D02*
G75*
G03*
X13711500Y-8020500I-20000J0D01*
G01*
X13711500Y-8274500D02*
G75*
G03*
X13711500Y-8274500I-20000J0D01*
G01*
X13711500Y-8528500D02*
G75*
G03*
X13711500Y-8528500I-20000J0D01*
G01*
X13711500Y-8782500D02*
G75*
G03*
X13711500Y-8782500I-20000J0D01*
G01*
X13711500Y-9036500D02*
G75*
G03*
X13711500Y-9036500I-20000J0D01*
G01*
X13711500Y-9290500D02*
G75*
G03*
X13711500Y-9290500I-20000J0D01*
G01*
X13711500Y-9544500D02*
G75*
G03*
X13711500Y-9544500I-20000J0D01*
G01*
X13711500Y-10560500D02*
G75*
G03*
X13711500Y-10560500I-20000J0D01*
G01*
X13716000Y-11576000D02*
G75*
G03*
X13716000Y-11576000I-20000J0D01*
G01*
X13720000Y-11862000D02*
G75*
G03*
X13720000Y-11862000I-20000J0D01*
G01*
X13772960Y-9853520D02*
G75*
G03*
X13772960Y-9853520I-20000J0D01*
G01*
X13772960Y-9947500D02*
G75*
G03*
X13772960Y-9947500I-20000J0D01*
G01*
X13965500Y-7004500D02*
G75*
G03*
X13965500Y-7004500I-20000J0D01*
G01*
X13965500Y-7258500D02*
G75*
G03*
X13965500Y-7258500I-20000J0D01*
G01*
X13965500Y-8020500D02*
G75*
G03*
X13965500Y-8020500I-20000J0D01*
G01*
X13965500Y-8274500D02*
G75*
G03*
X13965500Y-8274500I-20000J0D01*
G01*
X13965500Y-8528500D02*
G75*
G03*
X13965500Y-8528500I-20000J0D01*
G01*
X13965500Y-8782500D02*
G75*
G03*
X13965500Y-8782500I-20000J0D01*
G01*
X13965500Y-9036500D02*
G75*
G03*
X13965500Y-9036500I-20000J0D01*
G01*
X13965500Y-9290500D02*
G75*
G03*
X13965500Y-9290500I-20000J0D01*
G01*
X13965500Y-9544500D02*
G75*
G03*
X13965500Y-9544500I-20000J0D01*
G01*
X14090000Y-11576000D02*
G75*
G03*
X14090000Y-11576000I-20000J0D01*
G01*
X14094000Y-11862000D02*
G75*
G03*
X14094000Y-11862000I-20000J0D01*
G01*
X14219500Y-7004500D02*
G75*
G03*
X14219500Y-7004500I-20000J0D01*
G01*
X14219500Y-7258500D02*
G75*
G03*
X14219500Y-7258500I-20000J0D01*
G01*
X14219500Y-7512500D02*
G75*
G03*
X14219500Y-7512500I-20000J0D01*
G01*
X14219500Y-7766500D02*
G75*
G03*
X14219500Y-7766500I-20000J0D01*
G01*
X14219500Y-8020500D02*
G75*
G03*
X14219500Y-8020500I-20000J0D01*
G01*
X14219500Y-8274500D02*
G75*
G03*
X14219500Y-8274500I-20000J0D01*
G01*
X14219500Y-8528500D02*
G75*
G03*
X14219500Y-8528500I-20000J0D01*
G01*
X14219500Y-8782500D02*
G75*
G03*
X14219500Y-8782500I-20000J0D01*
G01*
X14219500Y-9036500D02*
G75*
G03*
X14219500Y-9036500I-20000J0D01*
G01*
X14219500Y-9290500D02*
G75*
G03*
X14219500Y-9290500I-20000J0D01*
G01*
X14219500Y-9544500D02*
G75*
G03*
X14219500Y-9544500I-20000J0D01*
G01*
X14437000Y-11576000D02*
G75*
G03*
X14437000Y-11576000I-20000J0D01*
G01*
X14441000Y-11862000D02*
G75*
G03*
X14441000Y-11862000I-20000J0D01*
G01*
X14473500Y-7004500D02*
G75*
G03*
X14473500Y-7004500I-20000J0D01*
G01*
X14473500Y-7258500D02*
G75*
G03*
X14473500Y-7258500I-20000J0D01*
G01*
X14473500Y-7512500D02*
G75*
G03*
X14473500Y-7512500I-20000J0D01*
G01*
X14473500Y-7766500D02*
G75*
G03*
X14473500Y-7766500I-20000J0D01*
G01*
X14473500Y-8020500D02*
G75*
G03*
X14473500Y-8020500I-20000J0D01*
G01*
X14473500Y-8274500D02*
G75*
G03*
X14473500Y-8274500I-20000J0D01*
G01*
X14473500Y-8528500D02*
G75*
G03*
X14473500Y-8528500I-20000J0D01*
G01*
X14473500Y-8782500D02*
G75*
G03*
X14473500Y-8782500I-20000J0D01*
G01*
X14473500Y-9036500D02*
G75*
G03*
X14473500Y-9036500I-20000J0D01*
G01*
X14473500Y-9290500D02*
G75*
G03*
X14473500Y-9290500I-20000J0D01*
G01*
X14473500Y-9544500D02*
G75*
G03*
X14473500Y-9544500I-20000J0D01*
G01*
X14473500Y-12084500D02*
G75*
G03*
X14473500Y-12084500I-20000J0D01*
G01*
X14697000Y-11009950D02*
G75*
G03*
X14697000Y-11009950I-20000J0D01*
G01*
X14727500Y-7004500D02*
G75*
G03*
X14727500Y-7004500I-20000J0D01*
G01*
X14727500Y-7258500D02*
G75*
G03*
X14727500Y-7258500I-20000J0D01*
G01*
X14727500Y-7512500D02*
G75*
G03*
X14727500Y-7512500I-20000J0D01*
G01*
X14727500Y-7766500D02*
G75*
G03*
X14727500Y-7766500I-20000J0D01*
G01*
X14727500Y-8020500D02*
G75*
G03*
X14727500Y-8020500I-20000J0D01*
G01*
X14727500Y-9036500D02*
G75*
G03*
X14727500Y-9036500I-20000J0D01*
G01*
X14727500Y-9290500D02*
G75*
G03*
X14727500Y-9290500I-20000J0D01*
G01*
X14727500Y-9544500D02*
G75*
G03*
X14727500Y-9544500I-20000J0D01*
G01*
X14727500Y-9798500D02*
G75*
G03*
X14727500Y-9798500I-20000J0D01*
G01*
X14981500Y-7004500D02*
G75*
G03*
X14981500Y-7004500I-20000J0D01*
G01*
X14981500Y-7258500D02*
G75*
G03*
X14981500Y-7258500I-20000J0D01*
G01*
X14981500Y-7512500D02*
G75*
G03*
X14981500Y-7512500I-20000J0D01*
G01*
X14981500Y-7766500D02*
G75*
G03*
X14981500Y-7766500I-20000J0D01*
G01*
X14981500Y-8020500D02*
G75*
G03*
X14981500Y-8020500I-20000J0D01*
G01*
X14981500Y-9036500D02*
G75*
G03*
X14981500Y-9036500I-20000J0D01*
G01*
X14981500Y-9290500D02*
G75*
G03*
X14981500Y-9290500I-20000J0D01*
G01*
X14981500Y-11322500D02*
G75*
G03*
X14981500Y-11322500I-20000J0D01*
G01*
X15003000Y-12235000D02*
G75*
G03*
X15003000Y-12235000I-20000J0D01*
G01*
X15023000Y-9827000D02*
G75*
G03*
X15023000Y-9827000I-20000J0D01*
G01*
X15075000Y-10309000D02*
G75*
G03*
X15075000Y-10309000I-20000J0D01*
G01*
X15075000Y-10693000D02*
G75*
G03*
X15075000Y-10693000I-20000J0D01*
G01*
X15200875Y-10663496D02*
G75*
G03*
X15200875Y-10663496I-20000J0D01*
G01*
X15235500Y-7004500D02*
G75*
G03*
X15235500Y-7004500I-20000J0D01*
G01*
X15235500Y-7258500D02*
G75*
G03*
X15235500Y-7258500I-20000J0D01*
G01*
X15235500Y-7512500D02*
G75*
G03*
X15235500Y-7512500I-20000J0D01*
G01*
X15235500Y-7766500D02*
G75*
G03*
X15235500Y-7766500I-20000J0D01*
G01*
X15235500Y-8020500D02*
G75*
G03*
X15235500Y-8020500I-20000J0D01*
G01*
X15235500Y-9036500D02*
G75*
G03*
X15235500Y-9036500I-20000J0D01*
G01*
X15235500Y-9290500D02*
G75*
G03*
X15235500Y-9290500I-20000J0D01*
G01*
X15235500Y-11068500D02*
G75*
G03*
X15235500Y-11068500I-20000J0D01*
G01*
X15273000Y-9998000D02*
G75*
G03*
X15273000Y-9998000I-20000J0D01*
G01*
X15309000Y-9823000D02*
G75*
G03*
X15309000Y-9823000I-20000J0D01*
G01*
D14*
X7447080Y-11684520D02*
X7447080Y-11744520D01*
X7417080Y-11714520D02*
X7477080Y-11714520D01*
D11*
X7467080Y-11769520D02*
X7467080Y-11659520D01*
X7427080Y-11769520D02*
X7427080Y-11659520D01*
X7467080Y-11659520D02*
G75*
G03*
X7427080Y-11659520I-20000J0D01*
G01*
X7427080Y-11769520D02*
G75*
G03*
X7467080Y-11769520I20000J0D01*
G01*
D14*
X7447080Y-12101520D02*
X7447080Y-12161520D01*
X7417080Y-12131520D02*
X7477080Y-12131520D01*
D11*
X7467080Y-12171520D02*
X7467080Y-12091520D01*
X7427080Y-12171520D02*
X7427080Y-12091520D01*
X7467080Y-12091520D02*
G75*
G03*
X7427080Y-12091520I-20000J0D01*
G01*
X7427080Y-12171520D02*
G75*
G03*
X7467080Y-12171520I20000J0D01*
G01*
D14*
X8311080Y-11684520D02*
X8311080Y-11744520D01*
X8281080Y-11714520D02*
X8341080Y-11714520D01*
D11*
X8331080Y-11769520D02*
X8331080Y-11659520D01*
X8291080Y-11769520D02*
X8291080Y-11659520D01*
X8331080Y-11659520D02*
G75*
G03*
X8291080Y-11659520I-20000J0D01*
G01*
X8291080Y-11769520D02*
G75*
G03*
X8331080Y-11769520I20000J0D01*
G01*
D14*
X8311080Y-12101520D02*
X8311080Y-12161520D01*
X8281080Y-12131520D02*
X8341080Y-12131520D01*
D11*
X8331080Y-12171520D02*
X8331080Y-12091520D01*
X8291080Y-12171520D02*
X8291080Y-12091520D01*
X8331080Y-12091520D02*
G75*
G03*
X8291080Y-12091520I-20000J0D01*
G01*
X8291080Y-12171520D02*
G75*
G03*
X8331080Y-12171520I20000J0D01*
G01*
D15*
X7141941Y-10972221D02*
X7141941Y-10926259D01*
X7095979Y-10926259D01*
X7095979Y-10972221D01*
X7141941Y-10972221D01*
D11*
X7098960Y-10971740D02*
X7138960Y-10971740D01*
X7098960Y-10926740D02*
X7138960Y-10926740D01*
X7138960Y-10971740D02*
G75*
G03*
X7138960Y-10926740I0J22500D01*
G01*
X7098960Y-10926740D02*
G75*
G03*
X7098960Y-10971740I0J-22500D01*
G01*
D15*
X7141941Y-11456221D02*
X7141941Y-11410259D01*
X7095979Y-11410259D01*
X7095979Y-11456221D01*
X7141941Y-11456221D01*
D11*
X7098960Y-11455740D02*
X7138960Y-11455740D01*
X7098960Y-11410740D02*
X7138960Y-11410740D01*
X7138960Y-11455740D02*
G75*
G03*
X7138960Y-11410740I0J22500D01*
G01*
X7098960Y-11410740D02*
G75*
G03*
X7098960Y-11455740I0J-22500D01*
G01*
D16*
X6818960Y-10953240D02*
X6853960Y-10918240D01*
X6818960Y-10883240D01*
X6783960Y-10918240D01*
X6818960Y-10953240D01*
D11*
X6793960Y-10943240D02*
X6843960Y-10943240D01*
X6793960Y-10893240D02*
X6843960Y-10893240D01*
X6843960Y-10943240D02*
G75*
G03*
X6843960Y-10893240I0J25000D01*
G01*
X6793960Y-10893240D02*
G75*
G03*
X6793960Y-10943240I0J-25000D01*
G01*
D16*
X6818960Y-11499240D02*
X6853960Y-11464240D01*
X6818960Y-11429240D01*
X6783960Y-11464240D01*
X6818960Y-11499240D01*
D11*
X6793960Y-11489240D02*
X6843960Y-11489240D01*
X6793960Y-11439240D02*
X6843960Y-11439240D01*
X6843960Y-11489240D02*
G75*
G03*
X6843960Y-11439240I0J25000D01*
G01*
X6793960Y-11439240D02*
G75*
G03*
X6793960Y-11489240I0J-25000D01*
G01*
D17*
X7429400Y-6899200D02*
X7531000Y-7000800D01*
X7531000Y-6899200D02*
X7429400Y-7000800D01*
X7531000Y-6950000D02*
G75*
G03*
X7531000Y-6950000I-50800J0D01*
G01*
X7429400Y-7153200D02*
X7531000Y-7254800D01*
X7531000Y-7153200D02*
X7429400Y-7254800D01*
X7531000Y-7204000D02*
G75*
G03*
X7531000Y-7204000I-50800J0D01*
G01*
X7683400Y-6899200D02*
X7785000Y-7000800D01*
X7785000Y-6899200D02*
X7683400Y-7000800D01*
X7785000Y-6950000D02*
G75*
G03*
X7785000Y-6950000I-50800J0D01*
G01*
X7683400Y-7153200D02*
X7785000Y-7254800D01*
X7785000Y-7153200D02*
X7683400Y-7254800D01*
X7785000Y-7204000D02*
G75*
G03*
X7785000Y-7204000I-50800J0D01*
G01*
X7937400Y-6899200D02*
X8039000Y-7000800D01*
X8039000Y-6899200D02*
X7937400Y-7000800D01*
X8039000Y-6950000D02*
G75*
G03*
X8039000Y-6950000I-50800J0D01*
G01*
X7937400Y-7153200D02*
X8039000Y-7254800D01*
X8039000Y-7153200D02*
X7937400Y-7254800D01*
X8039000Y-7204000D02*
G75*
G03*
X8039000Y-7204000I-50800J0D01*
G01*
X8191400Y-6899200D02*
X8293000Y-7000800D01*
X8293000Y-6899200D02*
X8191400Y-7000800D01*
X8293000Y-6950000D02*
G75*
G03*
X8293000Y-6950000I-50800J0D01*
G01*
X8191400Y-7153200D02*
X8293000Y-7254800D01*
X8293000Y-7153200D02*
X8191400Y-7254800D01*
X8293000Y-7204000D02*
G75*
G03*
X8293000Y-7204000I-50800J0D01*
G01*
X8445400Y-6899200D02*
X8547000Y-7000800D01*
X8547000Y-6899200D02*
X8445400Y-7000800D01*
X8547000Y-6950000D02*
G75*
G03*
X8547000Y-6950000I-50800J0D01*
G01*
X8445400Y-7153200D02*
X8547000Y-7254800D01*
X8547000Y-7153200D02*
X8445400Y-7254800D01*
X8547000Y-7204000D02*
G75*
G03*
X8547000Y-7204000I-50800J0D01*
G01*
X8699400Y-6899200D02*
X8801000Y-7000800D01*
X8801000Y-6899200D02*
X8699400Y-7000800D01*
X8801000Y-6950000D02*
G75*
G03*
X8801000Y-6950000I-50800J0D01*
G01*
X8699400Y-7153200D02*
X8801000Y-7254800D01*
X8801000Y-7153200D02*
X8699400Y-7254800D01*
X8801000Y-7204000D02*
G75*
G03*
X8801000Y-7204000I-50800J0D01*
G01*
X8953400Y-6899200D02*
X9055000Y-7000800D01*
X9055000Y-6899200D02*
X8953400Y-7000800D01*
X9055000Y-6950000D02*
G75*
G03*
X9055000Y-6950000I-50800J0D01*
G01*
X8953400Y-7153200D02*
X9055000Y-7254800D01*
X9055000Y-7153200D02*
X8953400Y-7254800D01*
X9055000Y-7204000D02*
G75*
G03*
X9055000Y-7204000I-50800J0D01*
G01*
X9207400Y-6899200D02*
X9309000Y-7000800D01*
X9309000Y-6899200D02*
X9207400Y-7000800D01*
X9309000Y-6950000D02*
G75*
G03*
X9309000Y-6950000I-50800J0D01*
G01*
X9207400Y-7153200D02*
X9309000Y-7254800D01*
X9309000Y-7153200D02*
X9207400Y-7254800D01*
X9309000Y-7204000D02*
G75*
G03*
X9309000Y-7204000I-50800J0D01*
G01*
X9461400Y-6899200D02*
X9563000Y-7000800D01*
X9563000Y-6899200D02*
X9461400Y-7000800D01*
X9563000Y-6950000D02*
G75*
G03*
X9563000Y-6950000I-50800J0D01*
G01*
X9461400Y-7153200D02*
X9563000Y-7254800D01*
X9563000Y-7153200D02*
X9461400Y-7254800D01*
X9563000Y-7204000D02*
G75*
G03*
X9563000Y-7204000I-50800J0D01*
G01*
X9715400Y-6899200D02*
X9817000Y-7000800D01*
X9817000Y-6899200D02*
X9715400Y-7000800D01*
X9817000Y-6950000D02*
G75*
G03*
X9817000Y-6950000I-50800J0D01*
G01*
X9715400Y-7153200D02*
X9817000Y-7254800D01*
X9817000Y-7153200D02*
X9715400Y-7254800D01*
X9817000Y-7204000D02*
G75*
G03*
X9817000Y-7204000I-50800J0D01*
G01*
X9969400Y-6899200D02*
X10071000Y-7000800D01*
X10071000Y-6899200D02*
X9969400Y-7000800D01*
X10071000Y-6950000D02*
G75*
G03*
X10071000Y-6950000I-50800J0D01*
G01*
X9969400Y-7153200D02*
X10071000Y-7254800D01*
X10071000Y-7153200D02*
X9969400Y-7254800D01*
X10071000Y-7204000D02*
G75*
G03*
X10071000Y-7204000I-50800J0D01*
G01*
X10223400Y-6899200D02*
X10325000Y-7000800D01*
X10325000Y-6899200D02*
X10223400Y-7000800D01*
X10325000Y-6950000D02*
G75*
G03*
X10325000Y-6950000I-50800J0D01*
G01*
X10223400Y-7153200D02*
X10325000Y-7254800D01*
X10325000Y-7153200D02*
X10223400Y-7254800D01*
X10325000Y-7204000D02*
G75*
G03*
X10325000Y-7204000I-50800J0D01*
G01*
X10477400Y-6899200D02*
X10579000Y-7000800D01*
X10579000Y-6899200D02*
X10477400Y-7000800D01*
X10579000Y-6950000D02*
G75*
G03*
X10579000Y-6950000I-50800J0D01*
G01*
X10477400Y-7153200D02*
X10579000Y-7254800D01*
X10579000Y-7153200D02*
X10477400Y-7254800D01*
X10579000Y-7204000D02*
G75*
G03*
X10579000Y-7204000I-50800J0D01*
G01*
X10731400Y-6899200D02*
X10833000Y-7000800D01*
X10833000Y-6899200D02*
X10731400Y-7000800D01*
X10833000Y-6950000D02*
G75*
G03*
X10833000Y-6950000I-50800J0D01*
G01*
X10731400Y-7153200D02*
X10833000Y-7254800D01*
X10833000Y-7153200D02*
X10731400Y-7254800D01*
X10833000Y-7204000D02*
G75*
G03*
X10833000Y-7204000I-50800J0D01*
G01*
X10985400Y-6899200D02*
X11087000Y-7000800D01*
X11087000Y-6899200D02*
X10985400Y-7000800D01*
X11087000Y-6950000D02*
G75*
G03*
X11087000Y-6950000I-50800J0D01*
G01*
X10985400Y-7153200D02*
X11087000Y-7254800D01*
X11087000Y-7153200D02*
X10985400Y-7254800D01*
X11087000Y-7204000D02*
G75*
G03*
X11087000Y-7204000I-50800J0D01*
G01*
X11239400Y-6899200D02*
X11341000Y-7000800D01*
X11341000Y-6899200D02*
X11239400Y-7000800D01*
X11341000Y-6950000D02*
G75*
G03*
X11341000Y-6950000I-50800J0D01*
G01*
X11239400Y-7153200D02*
X11341000Y-7254800D01*
X11341000Y-7153200D02*
X11239400Y-7254800D01*
X11341000Y-7204000D02*
G75*
G03*
X11341000Y-7204000I-50800J0D01*
G01*
X11493400Y-6899200D02*
X11595000Y-7000800D01*
X11595000Y-6899200D02*
X11493400Y-7000800D01*
X11595000Y-6950000D02*
G75*
G03*
X11595000Y-6950000I-50800J0D01*
G01*
X11493400Y-7153200D02*
X11595000Y-7254800D01*
X11595000Y-7153200D02*
X11493400Y-7254800D01*
X11595000Y-7204000D02*
G75*
G03*
X11595000Y-7204000I-50800J0D01*
G01*
X11747400Y-6899200D02*
X11849000Y-7000800D01*
X11849000Y-6899200D02*
X11747400Y-7000800D01*
X11849000Y-6950000D02*
G75*
G03*
X11849000Y-6950000I-50800J0D01*
G01*
X11747400Y-7153200D02*
X11849000Y-7254800D01*
X11849000Y-7153200D02*
X11747400Y-7254800D01*
X11849000Y-7204000D02*
G75*
G03*
X11849000Y-7204000I-50800J0D01*
G01*
X12001400Y-6899200D02*
X12103000Y-7000800D01*
X12103000Y-6899200D02*
X12001400Y-7000800D01*
X12103000Y-6950000D02*
G75*
G03*
X12103000Y-6950000I-50800J0D01*
G01*
X12001400Y-7153200D02*
X12103000Y-7254800D01*
X12103000Y-7153200D02*
X12001400Y-7254800D01*
X12103000Y-7204000D02*
G75*
G03*
X12103000Y-7204000I-50800J0D01*
G01*
X12255400Y-6899200D02*
X12357000Y-7000800D01*
X12357000Y-6899200D02*
X12255400Y-7000800D01*
X12357000Y-6950000D02*
G75*
G03*
X12357000Y-6950000I-50800J0D01*
G01*
X12255400Y-7153200D02*
X12357000Y-7254800D01*
X12357000Y-7153200D02*
X12255400Y-7254800D01*
X12357000Y-7204000D02*
G75*
G03*
X12357000Y-7204000I-50800J0D01*
G01*
D18*
X7233960Y-9848000D02*
X7365960Y-9980000D01*
X7365960Y-9848000D02*
X7233960Y-9980000D01*
X7299960Y-9848000D02*
X7299960Y-9980000D01*
X7233960Y-9914000D02*
X7365960Y-9914000D01*
X7233960Y-10348000D02*
X7365960Y-10480000D01*
X7365960Y-10348000D02*
X7233960Y-10480000D01*
X7299960Y-10348000D02*
X7299960Y-10480000D01*
X7233960Y-10414000D02*
X7365960Y-10414000D01*
X14661500Y-10201500D02*
X14793500Y-10333500D01*
X14793500Y-10201500D02*
X14661500Y-10333500D01*
X14727500Y-10201500D02*
X14727500Y-10333500D01*
X14661500Y-10267500D02*
X14793500Y-10267500D01*
X14661500Y-10701500D02*
X14793500Y-10833500D01*
X14793500Y-10701500D02*
X14661500Y-10833500D01*
X14727500Y-10701500D02*
X14727500Y-10833500D01*
X14661500Y-10767500D02*
X14793500Y-10767500D01*
D11*
X6895077Y-12652976D02*
X6895077Y-12452976D01*
X6942696Y-12452976D01*
X6971268Y-12462500D01*
X6990315Y-12481548D01*
X6999839Y-12500595D01*
X7009363Y-12538690D01*
X7009363Y-12567262D01*
X6999839Y-12605357D01*
X6990315Y-12624405D01*
X6971268Y-12643452D01*
X6942696Y-12652976D01*
X6895077Y-12652976D01*
X7095077Y-12652976D02*
X7095077Y-12519643D01*
X7095077Y-12557738D02*
X7104601Y-12538690D01*
X7114125Y-12529167D01*
X7133173Y-12519643D01*
X7152220Y-12519643D01*
X7218887Y-12652976D02*
X7218887Y-12519643D01*
X7218887Y-12452976D02*
X7209363Y-12462500D01*
X7218887Y-12472024D01*
X7228411Y-12462500D01*
X7218887Y-12452976D01*
X7218887Y-12472024D01*
X7342696Y-12652976D02*
X7323649Y-12643452D01*
X7314125Y-12624405D01*
X7314125Y-12452976D01*
X7447458Y-12652976D02*
X7428411Y-12643452D01*
X7418887Y-12624405D01*
X7418887Y-12452976D01*
X7676030Y-12652976D02*
X7676030Y-12452976D01*
X7742696Y-12595833D01*
X7809363Y-12452976D01*
X7809363Y-12652976D01*
X7990315Y-12652976D02*
X7990315Y-12548214D01*
X7980792Y-12529167D01*
X7961744Y-12519643D01*
X7923649Y-12519643D01*
X7904601Y-12529167D01*
X7990315Y-12643452D02*
X7971268Y-12652976D01*
X7923649Y-12652976D01*
X7904601Y-12643452D01*
X7895077Y-12624405D01*
X7895077Y-12605357D01*
X7904601Y-12586309D01*
X7923649Y-12576786D01*
X7971268Y-12576786D01*
X7990315Y-12567262D01*
X8085554Y-12519643D02*
X8085554Y-12719643D01*
X8085554Y-12529167D02*
X8104601Y-12519643D01*
X8142696Y-12519643D01*
X8161744Y-12529167D01*
X8171268Y-12538690D01*
X8180792Y-12557738D01*
X8180792Y-12614881D01*
X8171268Y-12633928D01*
X8161744Y-12643452D01*
X8142696Y-12652976D01*
X8104601Y-12652976D01*
X8085554Y-12643452D01*
X8266506Y-12633928D02*
X8276030Y-12643452D01*
X8266506Y-12652976D01*
X8256982Y-12643452D01*
X8266506Y-12633928D01*
X8266506Y-12652976D01*
X8266506Y-12529167D02*
X8276030Y-12538690D01*
X8266506Y-12548214D01*
X8256982Y-12538690D01*
X8266506Y-12529167D01*
X8266506Y-12548214D01*
D12*
X6617458Y-12972500D02*
X6637458Y-12992500D01*
X6637458Y-12972500D02*
X6617458Y-12992500D01*
D11*
X6933173Y-12872976D02*
X6952220Y-12872976D01*
X6971268Y-12882500D01*
X6980792Y-12892024D01*
X6990315Y-12911071D01*
X6999839Y-12949167D01*
X6999839Y-12996786D01*
X6990315Y-13034881D01*
X6980792Y-13053928D01*
X6971268Y-13063452D01*
X6952220Y-13072976D01*
X6933173Y-13072976D01*
X6914125Y-13063452D01*
X6904601Y-13053928D01*
X6895077Y-13034881D01*
X6885554Y-12996786D01*
X6885554Y-12949167D01*
X6895077Y-12911071D01*
X6904601Y-12892024D01*
X6914125Y-12882500D01*
X6933173Y-12872976D01*
X7085554Y-13053928D02*
X7095077Y-13063452D01*
X7085554Y-13072976D01*
X7076030Y-13063452D01*
X7085554Y-13053928D01*
X7085554Y-13072976D01*
X7171268Y-12892024D02*
X7180792Y-12882500D01*
X7199839Y-12872976D01*
X7247458Y-12872976D01*
X7266506Y-12882500D01*
X7276030Y-12892024D01*
X7285554Y-12911071D01*
X7285554Y-12930119D01*
X7276030Y-12958690D01*
X7161744Y-13072976D01*
X7285554Y-13072976D01*
X7409363Y-12872976D02*
X7428411Y-12872976D01*
X7447458Y-12882500D01*
X7456982Y-12892024D01*
X7466506Y-12911071D01*
X7476030Y-12949167D01*
X7476030Y-12996786D01*
X7466506Y-13034881D01*
X7456982Y-13053928D01*
X7447458Y-13063452D01*
X7428411Y-13072976D01*
X7409363Y-13072976D01*
X7390315Y-13063452D01*
X7380792Y-13053928D01*
X7371268Y-13034881D01*
X7361744Y-12996786D01*
X7361744Y-12949167D01*
X7371268Y-12911071D01*
X7380792Y-12892024D01*
X7390315Y-12882500D01*
X7409363Y-12872976D01*
X7599839Y-12872976D02*
X7618887Y-12872976D01*
X7637934Y-12882500D01*
X7647458Y-12892024D01*
X7656982Y-12911071D01*
X7666506Y-12949167D01*
X7666506Y-12996786D01*
X7656982Y-13034881D01*
X7647458Y-13053928D01*
X7637934Y-13063452D01*
X7618887Y-13072976D01*
X7599839Y-13072976D01*
X7580792Y-13063452D01*
X7571268Y-13053928D01*
X7561744Y-13034881D01*
X7552220Y-12996786D01*
X7552220Y-12949167D01*
X7561744Y-12911071D01*
X7571268Y-12892024D01*
X7580792Y-12882500D01*
X7599839Y-12872976D01*
X7752220Y-13072976D02*
X7752220Y-12939643D01*
X7752220Y-12958690D02*
X7761744Y-12949167D01*
X7780792Y-12939643D01*
X7809363Y-12939643D01*
X7828411Y-12949167D01*
X7837934Y-12968214D01*
X7837934Y-13072976D01*
X7837934Y-12968214D02*
X7847458Y-12949167D01*
X7866506Y-12939643D01*
X7895077Y-12939643D01*
X7914125Y-12949167D01*
X7923649Y-12968214D01*
X7923649Y-13072976D01*
X8018887Y-13072976D02*
X8018887Y-12939643D01*
X8018887Y-12958690D02*
X8028411Y-12949167D01*
X8047458Y-12939643D01*
X8076030Y-12939643D01*
X8095077Y-12949167D01*
X8104601Y-12968214D01*
X8104601Y-13072976D01*
X8104601Y-12968214D02*
X8114125Y-12949167D01*
X8133173Y-12939643D01*
X8161744Y-12939643D01*
X8180792Y-12949167D01*
X8190315Y-12968214D01*
X8190315Y-13072976D01*
X8580792Y-12863452D02*
X8409363Y-13120595D01*
X8837935Y-12872976D02*
X8856982Y-12872976D01*
X8876030Y-12882500D01*
X8885554Y-12892024D01*
X8895077Y-12911071D01*
X8904601Y-12949167D01*
X8904601Y-12996786D01*
X8895077Y-13034881D01*
X8885554Y-13053928D01*
X8876030Y-13063452D01*
X8856982Y-13072976D01*
X8837935Y-13072976D01*
X8818887Y-13063452D01*
X8809363Y-13053928D01*
X8799839Y-13034881D01*
X8790316Y-12996786D01*
X8790316Y-12949167D01*
X8799839Y-12911071D01*
X8809363Y-12892024D01*
X8818887Y-12882500D01*
X8837935Y-12872976D01*
X8990316Y-13053928D02*
X8999839Y-13063452D01*
X8990316Y-13072976D01*
X8980792Y-13063452D01*
X8990316Y-13053928D01*
X8990316Y-13072976D01*
X9123649Y-12872976D02*
X9142696Y-12872976D01*
X9161744Y-12882500D01*
X9171268Y-12892024D01*
X9180792Y-12911071D01*
X9190316Y-12949167D01*
X9190316Y-12996786D01*
X9180792Y-13034881D01*
X9171268Y-13053928D01*
X9161744Y-13063452D01*
X9142696Y-13072976D01*
X9123649Y-13072976D01*
X9104601Y-13063452D01*
X9095077Y-13053928D01*
X9085554Y-13034881D01*
X9076030Y-12996786D01*
X9076030Y-12949167D01*
X9085554Y-12911071D01*
X9095077Y-12892024D01*
X9104601Y-12882500D01*
X9123649Y-12872976D01*
X9314125Y-12872976D02*
X9333173Y-12872976D01*
X9352220Y-12882500D01*
X9361744Y-12892024D01*
X9371268Y-12911071D01*
X9380792Y-12949167D01*
X9380792Y-12996786D01*
X9371268Y-13034881D01*
X9361744Y-13053928D01*
X9352220Y-13063452D01*
X9333173Y-13072976D01*
X9314125Y-13072976D01*
X9295077Y-13063452D01*
X9285554Y-13053928D01*
X9276030Y-13034881D01*
X9266506Y-12996786D01*
X9266506Y-12949167D01*
X9276030Y-12911071D01*
X9285554Y-12892024D01*
X9295077Y-12882500D01*
X9314125Y-12872976D01*
X9447458Y-12872976D02*
X9580792Y-12872976D01*
X9495077Y-13072976D01*
X9666506Y-13072976D02*
X9704601Y-13072976D01*
X9723649Y-13063452D01*
X9733173Y-13053928D01*
X9752220Y-13025357D01*
X9761744Y-12987262D01*
X9761744Y-12911071D01*
X9752220Y-12892024D01*
X9742696Y-12882500D01*
X9723649Y-12872976D01*
X9685554Y-12872976D01*
X9666506Y-12882500D01*
X9656982Y-12892024D01*
X9647458Y-12911071D01*
X9647458Y-12958690D01*
X9656982Y-12977738D01*
X9666506Y-12987262D01*
X9685554Y-12996786D01*
X9723649Y-12996786D01*
X9742696Y-12987262D01*
X9752220Y-12977738D01*
X9761744Y-12958690D01*
X9837935Y-12872976D02*
X9837935Y-12911071D01*
X9914125Y-12872976D02*
X9914125Y-12911071D01*
X10209363Y-13149167D02*
X10199839Y-13139643D01*
X10180792Y-13111071D01*
X10171268Y-13092024D01*
X10161744Y-13063452D01*
X10152220Y-13015833D01*
X10152220Y-12977738D01*
X10161744Y-12930119D01*
X10171268Y-12901548D01*
X10180792Y-12882500D01*
X10199839Y-12853928D01*
X10209363Y-12844405D01*
X10390316Y-13072976D02*
X10276030Y-13072976D01*
X10333173Y-13072976D02*
X10333173Y-12872976D01*
X10314125Y-12901548D01*
X10295077Y-12920595D01*
X10276030Y-12930119D01*
X10456982Y-12872976D02*
X10590316Y-12872976D01*
X10504601Y-13072976D01*
X10818887Y-13072976D02*
X10818887Y-12872976D01*
X10904601Y-13072976D02*
X10904601Y-12968214D01*
X10895077Y-12949167D01*
X10876030Y-12939643D01*
X10847458Y-12939643D01*
X10828411Y-12949167D01*
X10818887Y-12958690D01*
X11028411Y-13072976D02*
X11009363Y-13063452D01*
X10999839Y-13053928D01*
X10990316Y-13034881D01*
X10990316Y-12977738D01*
X10999839Y-12958690D01*
X11009363Y-12949167D01*
X11028411Y-12939643D01*
X11056982Y-12939643D01*
X11076030Y-12949167D01*
X11085554Y-12958690D01*
X11095077Y-12977738D01*
X11095077Y-13034881D01*
X11085554Y-13053928D01*
X11076030Y-13063452D01*
X11056982Y-13072976D01*
X11028411Y-13072976D01*
X11209363Y-13072976D02*
X11190315Y-13063452D01*
X11180792Y-13044405D01*
X11180792Y-12872976D01*
X11361744Y-13063452D02*
X11342696Y-13072976D01*
X11304601Y-13072976D01*
X11285554Y-13063452D01*
X11276030Y-13044405D01*
X11276030Y-12968214D01*
X11285554Y-12949167D01*
X11304601Y-12939643D01*
X11342696Y-12939643D01*
X11361744Y-12949167D01*
X11371268Y-12968214D01*
X11371268Y-12987262D01*
X11276030Y-13006309D01*
X11447458Y-13063452D02*
X11466506Y-13072976D01*
X11504601Y-13072976D01*
X11523649Y-13063452D01*
X11533173Y-13044405D01*
X11533173Y-13034881D01*
X11523649Y-13015833D01*
X11504601Y-13006309D01*
X11476030Y-13006309D01*
X11456982Y-12996786D01*
X11447458Y-12977738D01*
X11447458Y-12968214D01*
X11456982Y-12949167D01*
X11476030Y-12939643D01*
X11504601Y-12939643D01*
X11523649Y-12949167D01*
X11599839Y-13149167D02*
X11609363Y-13139643D01*
X11628411Y-13111071D01*
X11637934Y-13092024D01*
X11647458Y-13063452D01*
X11656982Y-13015833D01*
X11656982Y-12977738D01*
X11647458Y-12930119D01*
X11637934Y-12901548D01*
X11628411Y-12882500D01*
X11609363Y-12853928D01*
X11599839Y-12844405D01*
D13*
X6637458Y-13246500D02*
G75*
G03*
X6637458Y-13246500I-20000J0D01*
G01*
D11*
X6933173Y-13136976D02*
X6952220Y-13136976D01*
X6971268Y-13146500D01*
X6980792Y-13156024D01*
X6990315Y-13175071D01*
X6999839Y-13213167D01*
X6999839Y-13260786D01*
X6990315Y-13298881D01*
X6980792Y-13317928D01*
X6971268Y-13327452D01*
X6952220Y-13336976D01*
X6933173Y-13336976D01*
X6914125Y-13327452D01*
X6904601Y-13317928D01*
X6895077Y-13298881D01*
X6885554Y-13260786D01*
X6885554Y-13213167D01*
X6895077Y-13175071D01*
X6904601Y-13156024D01*
X6914125Y-13146500D01*
X6933173Y-13136976D01*
X7085554Y-13317928D02*
X7095077Y-13327452D01*
X7085554Y-13336976D01*
X7076030Y-13327452D01*
X7085554Y-13317928D01*
X7085554Y-13336976D01*
X7266506Y-13203643D02*
X7266506Y-13336976D01*
X7218887Y-13127452D02*
X7171268Y-13270309D01*
X7295077Y-13270309D01*
X7409363Y-13136976D02*
X7428411Y-13136976D01*
X7447458Y-13146500D01*
X7456982Y-13156024D01*
X7466506Y-13175071D01*
X7476030Y-13213167D01*
X7476030Y-13260786D01*
X7466506Y-13298881D01*
X7456982Y-13317928D01*
X7447458Y-13327452D01*
X7428411Y-13336976D01*
X7409363Y-13336976D01*
X7390315Y-13327452D01*
X7380792Y-13317928D01*
X7371268Y-13298881D01*
X7361744Y-13260786D01*
X7361744Y-13213167D01*
X7371268Y-13175071D01*
X7380792Y-13156024D01*
X7390315Y-13146500D01*
X7409363Y-13136976D01*
X7599839Y-13136976D02*
X7618887Y-13136976D01*
X7637934Y-13146500D01*
X7647458Y-13156024D01*
X7656982Y-13175071D01*
X7666506Y-13213167D01*
X7666506Y-13260786D01*
X7656982Y-13298881D01*
X7647458Y-13317928D01*
X7637934Y-13327452D01*
X7618887Y-13336976D01*
X7599839Y-13336976D01*
X7580792Y-13327452D01*
X7571268Y-13317928D01*
X7561744Y-13298881D01*
X7552220Y-13260786D01*
X7552220Y-13213167D01*
X7561744Y-13175071D01*
X7571268Y-13156024D01*
X7580792Y-13146500D01*
X7599839Y-13136976D01*
X7752220Y-13336976D02*
X7752220Y-13203643D01*
X7752220Y-13222690D02*
X7761744Y-13213167D01*
X7780792Y-13203643D01*
X7809363Y-13203643D01*
X7828411Y-13213167D01*
X7837934Y-13232214D01*
X7837934Y-13336976D01*
X7837934Y-13232214D02*
X7847458Y-13213167D01*
X7866506Y-13203643D01*
X7895077Y-13203643D01*
X7914125Y-13213167D01*
X7923649Y-13232214D01*
X7923649Y-13336976D01*
X8018887Y-13336976D02*
X8018887Y-13203643D01*
X8018887Y-13222690D02*
X8028411Y-13213167D01*
X8047458Y-13203643D01*
X8076030Y-13203643D01*
X8095077Y-13213167D01*
X8104601Y-13232214D01*
X8104601Y-13336976D01*
X8104601Y-13232214D02*
X8114125Y-13213167D01*
X8133173Y-13203643D01*
X8161744Y-13203643D01*
X8180792Y-13213167D01*
X8190315Y-13232214D01*
X8190315Y-13336976D01*
X8580792Y-13127452D02*
X8409363Y-13384595D01*
X8837935Y-13136976D02*
X8856982Y-13136976D01*
X8876030Y-13146500D01*
X8885554Y-13156024D01*
X8895077Y-13175071D01*
X8904601Y-13213167D01*
X8904601Y-13260786D01*
X8895077Y-13298881D01*
X8885554Y-13317928D01*
X8876030Y-13327452D01*
X8856982Y-13336976D01*
X8837935Y-13336976D01*
X8818887Y-13327452D01*
X8809363Y-13317928D01*
X8799839Y-13298881D01*
X8790316Y-13260786D01*
X8790316Y-13213167D01*
X8799839Y-13175071D01*
X8809363Y-13156024D01*
X8818887Y-13146500D01*
X8837935Y-13136976D01*
X8990316Y-13317928D02*
X8999839Y-13327452D01*
X8990316Y-13336976D01*
X8980792Y-13327452D01*
X8990316Y-13317928D01*
X8990316Y-13336976D01*
X9123649Y-13136976D02*
X9142696Y-13136976D01*
X9161744Y-13146500D01*
X9171268Y-13156024D01*
X9180792Y-13175071D01*
X9190316Y-13213167D01*
X9190316Y-13260786D01*
X9180792Y-13298881D01*
X9171268Y-13317928D01*
X9161744Y-13327452D01*
X9142696Y-13336976D01*
X9123649Y-13336976D01*
X9104601Y-13327452D01*
X9095077Y-13317928D01*
X9085554Y-13298881D01*
X9076030Y-13260786D01*
X9076030Y-13213167D01*
X9085554Y-13175071D01*
X9095077Y-13156024D01*
X9104601Y-13146500D01*
X9123649Y-13136976D01*
X9380792Y-13336976D02*
X9266506Y-13336976D01*
X9323649Y-13336976D02*
X9323649Y-13136976D01*
X9304601Y-13165548D01*
X9285554Y-13184595D01*
X9266506Y-13194119D01*
X9561744Y-13136976D02*
X9466506Y-13136976D01*
X9456982Y-13232214D01*
X9466506Y-13222690D01*
X9485554Y-13213167D01*
X9533173Y-13213167D01*
X9552220Y-13222690D01*
X9561744Y-13232214D01*
X9571268Y-13251262D01*
X9571268Y-13298881D01*
X9561744Y-13317928D01*
X9552220Y-13327452D01*
X9533173Y-13336976D01*
X9485554Y-13336976D01*
X9466506Y-13327452D01*
X9456982Y-13317928D01*
X9637935Y-13136976D02*
X9771268Y-13136976D01*
X9685554Y-13336976D01*
X9837935Y-13136976D02*
X9837935Y-13175071D01*
X9914125Y-13136976D02*
X9914125Y-13175071D01*
X10209363Y-13413167D02*
X10199839Y-13403643D01*
X10180792Y-13375071D01*
X10171268Y-13356024D01*
X10161744Y-13327452D01*
X10152220Y-13279833D01*
X10152220Y-13241738D01*
X10161744Y-13194119D01*
X10171268Y-13165548D01*
X10180792Y-13146500D01*
X10199839Y-13117928D01*
X10209363Y-13108405D01*
X10266506Y-13136976D02*
X10390316Y-13136976D01*
X10323649Y-13213167D01*
X10352220Y-13213167D01*
X10371268Y-13222690D01*
X10380792Y-13232214D01*
X10390316Y-13251262D01*
X10390316Y-13298881D01*
X10380792Y-13317928D01*
X10371268Y-13327452D01*
X10352220Y-13336976D01*
X10295077Y-13336976D01*
X10276030Y-13327452D01*
X10266506Y-13317928D01*
X10504601Y-13222690D02*
X10485554Y-13213167D01*
X10476030Y-13203643D01*
X10466506Y-13184595D01*
X10466506Y-13175071D01*
X10476030Y-13156024D01*
X10485554Y-13146500D01*
X10504601Y-13136976D01*
X10542696Y-13136976D01*
X10561744Y-13146500D01*
X10571268Y-13156024D01*
X10580792Y-13175071D01*
X10580792Y-13184595D01*
X10571268Y-13203643D01*
X10561744Y-13213167D01*
X10542696Y-13222690D01*
X10504601Y-13222690D01*
X10485554Y-13232214D01*
X10476030Y-13241738D01*
X10466506Y-13260786D01*
X10466506Y-13298881D01*
X10476030Y-13317928D01*
X10485554Y-13327452D01*
X10504601Y-13336976D01*
X10542696Y-13336976D01*
X10561744Y-13327452D01*
X10571268Y-13317928D01*
X10580792Y-13298881D01*
X10580792Y-13260786D01*
X10571268Y-13241738D01*
X10561744Y-13232214D01*
X10542696Y-13222690D01*
X10752220Y-13203643D02*
X10752220Y-13336976D01*
X10704601Y-13127452D02*
X10656982Y-13270309D01*
X10780792Y-13270309D01*
X11009363Y-13336976D02*
X11009363Y-13136976D01*
X11095077Y-13336976D02*
X11095077Y-13232214D01*
X11085554Y-13213167D01*
X11066506Y-13203643D01*
X11037935Y-13203643D01*
X11018887Y-13213167D01*
X11009363Y-13222690D01*
X11218887Y-13336976D02*
X11199839Y-13327452D01*
X11190315Y-13317928D01*
X11180792Y-13298881D01*
X11180792Y-13241738D01*
X11190315Y-13222690D01*
X11199839Y-13213167D01*
X11218887Y-13203643D01*
X11247458Y-13203643D01*
X11266506Y-13213167D01*
X11276030Y-13222690D01*
X11285554Y-13241738D01*
X11285554Y-13298881D01*
X11276030Y-13317928D01*
X11266506Y-13327452D01*
X11247458Y-13336976D01*
X11218887Y-13336976D01*
X11399839Y-13336976D02*
X11380792Y-13327452D01*
X11371268Y-13308405D01*
X11371268Y-13136976D01*
X11552220Y-13327452D02*
X11533173Y-13336976D01*
X11495077Y-13336976D01*
X11476030Y-13327452D01*
X11466506Y-13308405D01*
X11466506Y-13232214D01*
X11476030Y-13213167D01*
X11495077Y-13203643D01*
X11533173Y-13203643D01*
X11552220Y-13213167D01*
X11561744Y-13232214D01*
X11561744Y-13251262D01*
X11466506Y-13270309D01*
X11637934Y-13327452D02*
X11656982Y-13336976D01*
X11695077Y-13336976D01*
X11714125Y-13327452D01*
X11723649Y-13308405D01*
X11723649Y-13298881D01*
X11714125Y-13279833D01*
X11695077Y-13270309D01*
X11666506Y-13270309D01*
X11647458Y-13260786D01*
X11637934Y-13241738D01*
X11637934Y-13232214D01*
X11647458Y-13213167D01*
X11666506Y-13203643D01*
X11695077Y-13203643D01*
X11714125Y-13213167D01*
X11790315Y-13413167D02*
X11799839Y-13403643D01*
X11818887Y-13375071D01*
X11828411Y-13356024D01*
X11837934Y-13327452D01*
X11847458Y-13279833D01*
X11847458Y-13241738D01*
X11837934Y-13194119D01*
X11828411Y-13165548D01*
X11818887Y-13146500D01*
X11799839Y-13117928D01*
X11790315Y-13108405D01*
D14*
X6607458Y-13480500D02*
X6607458Y-13540500D01*
X6577458Y-13510500D02*
X6637458Y-13510500D01*
D11*
X6933173Y-13400976D02*
X6952220Y-13400976D01*
X6971268Y-13410500D01*
X6980792Y-13420024D01*
X6990315Y-13439071D01*
X6999839Y-13477167D01*
X6999839Y-13524786D01*
X6990315Y-13562881D01*
X6980792Y-13581928D01*
X6971268Y-13591452D01*
X6952220Y-13600976D01*
X6933173Y-13600976D01*
X6914125Y-13591452D01*
X6904601Y-13581928D01*
X6895077Y-13562881D01*
X6885554Y-13524786D01*
X6885554Y-13477167D01*
X6895077Y-13439071D01*
X6904601Y-13420024D01*
X6914125Y-13410500D01*
X6933173Y-13400976D01*
X7085554Y-13581928D02*
X7095077Y-13591452D01*
X7085554Y-13600976D01*
X7076030Y-13591452D01*
X7085554Y-13581928D01*
X7085554Y-13600976D01*
X7266506Y-13400976D02*
X7228411Y-13400976D01*
X7209363Y-13410500D01*
X7199839Y-13420024D01*
X7180792Y-13448595D01*
X7171268Y-13486690D01*
X7171268Y-13562881D01*
X7180792Y-13581928D01*
X7190315Y-13591452D01*
X7209363Y-13600976D01*
X7247458Y-13600976D01*
X7266506Y-13591452D01*
X7276030Y-13581928D01*
X7285554Y-13562881D01*
X7285554Y-13515262D01*
X7276030Y-13496214D01*
X7266506Y-13486690D01*
X7247458Y-13477167D01*
X7209363Y-13477167D01*
X7190315Y-13486690D01*
X7180792Y-13496214D01*
X7171268Y-13515262D01*
X7409363Y-13400976D02*
X7428411Y-13400976D01*
X7447458Y-13410500D01*
X7456982Y-13420024D01*
X7466506Y-13439071D01*
X7476030Y-13477167D01*
X7476030Y-13524786D01*
X7466506Y-13562881D01*
X7456982Y-13581928D01*
X7447458Y-13591452D01*
X7428411Y-13600976D01*
X7409363Y-13600976D01*
X7390315Y-13591452D01*
X7380792Y-13581928D01*
X7371268Y-13562881D01*
X7361744Y-13524786D01*
X7361744Y-13477167D01*
X7371268Y-13439071D01*
X7380792Y-13420024D01*
X7390315Y-13410500D01*
X7409363Y-13400976D01*
X7599839Y-13400976D02*
X7618887Y-13400976D01*
X7637934Y-13410500D01*
X7647458Y-13420024D01*
X7656982Y-13439071D01*
X7666506Y-13477167D01*
X7666506Y-13524786D01*
X7656982Y-13562881D01*
X7647458Y-13581928D01*
X7637934Y-13591452D01*
X7618887Y-13600976D01*
X7599839Y-13600976D01*
X7580792Y-13591452D01*
X7571268Y-13581928D01*
X7561744Y-13562881D01*
X7552220Y-13524786D01*
X7552220Y-13477167D01*
X7561744Y-13439071D01*
X7571268Y-13420024D01*
X7580792Y-13410500D01*
X7599839Y-13400976D01*
X7752220Y-13600976D02*
X7752220Y-13467643D01*
X7752220Y-13486690D02*
X7761744Y-13477167D01*
X7780792Y-13467643D01*
X7809363Y-13467643D01*
X7828411Y-13477167D01*
X7837934Y-13496214D01*
X7837934Y-13600976D01*
X7837934Y-13496214D02*
X7847458Y-13477167D01*
X7866506Y-13467643D01*
X7895077Y-13467643D01*
X7914125Y-13477167D01*
X7923649Y-13496214D01*
X7923649Y-13600976D01*
X8018887Y-13600976D02*
X8018887Y-13467643D01*
X8018887Y-13486690D02*
X8028411Y-13477167D01*
X8047458Y-13467643D01*
X8076030Y-13467643D01*
X8095077Y-13477167D01*
X8104601Y-13496214D01*
X8104601Y-13600976D01*
X8104601Y-13496214D02*
X8114125Y-13477167D01*
X8133173Y-13467643D01*
X8161744Y-13467643D01*
X8180792Y-13477167D01*
X8190315Y-13496214D01*
X8190315Y-13600976D01*
X8580792Y-13391452D02*
X8409363Y-13648595D01*
X8837935Y-13400976D02*
X8856982Y-13400976D01*
X8876030Y-13410500D01*
X8885554Y-13420024D01*
X8895077Y-13439071D01*
X8904601Y-13477167D01*
X8904601Y-13524786D01*
X8895077Y-13562881D01*
X8885554Y-13581928D01*
X8876030Y-13591452D01*
X8856982Y-13600976D01*
X8837935Y-13600976D01*
X8818887Y-13591452D01*
X8809363Y-13581928D01*
X8799839Y-13562881D01*
X8790316Y-13524786D01*
X8790316Y-13477167D01*
X8799839Y-13439071D01*
X8809363Y-13420024D01*
X8818887Y-13410500D01*
X8837935Y-13400976D01*
X8990316Y-13581928D02*
X8999839Y-13591452D01*
X8990316Y-13600976D01*
X8980792Y-13591452D01*
X8990316Y-13581928D01*
X8990316Y-13600976D01*
X9123649Y-13400976D02*
X9142696Y-13400976D01*
X9161744Y-13410500D01*
X9171268Y-13420024D01*
X9180792Y-13439071D01*
X9190316Y-13477167D01*
X9190316Y-13524786D01*
X9180792Y-13562881D01*
X9171268Y-13581928D01*
X9161744Y-13591452D01*
X9142696Y-13600976D01*
X9123649Y-13600976D01*
X9104601Y-13591452D01*
X9095077Y-13581928D01*
X9085554Y-13562881D01*
X9076030Y-13524786D01*
X9076030Y-13477167D01*
X9085554Y-13439071D01*
X9095077Y-13420024D01*
X9104601Y-13410500D01*
X9123649Y-13400976D01*
X9266506Y-13420024D02*
X9276030Y-13410500D01*
X9295077Y-13400976D01*
X9342696Y-13400976D01*
X9361744Y-13410500D01*
X9371268Y-13420024D01*
X9380792Y-13439071D01*
X9380792Y-13458119D01*
X9371268Y-13486690D01*
X9256982Y-13600976D01*
X9380792Y-13600976D01*
X9447458Y-13400976D02*
X9571268Y-13400976D01*
X9504601Y-13477167D01*
X9533173Y-13477167D01*
X9552220Y-13486690D01*
X9561744Y-13496214D01*
X9571268Y-13515262D01*
X9571268Y-13562881D01*
X9561744Y-13581928D01*
X9552220Y-13591452D01*
X9533173Y-13600976D01*
X9476030Y-13600976D01*
X9456982Y-13591452D01*
X9447458Y-13581928D01*
X9742696Y-13400976D02*
X9704601Y-13400976D01*
X9685554Y-13410500D01*
X9676030Y-13420024D01*
X9656982Y-13448595D01*
X9647458Y-13486690D01*
X9647458Y-13562881D01*
X9656982Y-13581928D01*
X9666506Y-13591452D01*
X9685554Y-13600976D01*
X9723649Y-13600976D01*
X9742696Y-13591452D01*
X9752220Y-13581928D01*
X9761744Y-13562881D01*
X9761744Y-13515262D01*
X9752220Y-13496214D01*
X9742696Y-13486690D01*
X9723649Y-13477167D01*
X9685554Y-13477167D01*
X9666506Y-13486690D01*
X9656982Y-13496214D01*
X9647458Y-13515262D01*
X9837935Y-13400976D02*
X9837935Y-13439071D01*
X9914125Y-13400976D02*
X9914125Y-13439071D01*
X10209363Y-13677167D02*
X10199839Y-13667643D01*
X10180792Y-13639071D01*
X10171268Y-13620024D01*
X10161744Y-13591452D01*
X10152220Y-13543833D01*
X10152220Y-13505738D01*
X10161744Y-13458119D01*
X10171268Y-13429548D01*
X10180792Y-13410500D01*
X10199839Y-13381928D01*
X10209363Y-13372405D01*
X10323649Y-13400976D02*
X10342696Y-13400976D01*
X10361744Y-13410500D01*
X10371268Y-13420024D01*
X10380792Y-13439071D01*
X10390316Y-13477167D01*
X10390316Y-13524786D01*
X10380792Y-13562881D01*
X10371268Y-13581928D01*
X10361744Y-13591452D01*
X10342696Y-13600976D01*
X10323649Y-13600976D01*
X10304601Y-13591452D01*
X10295077Y-13581928D01*
X10285554Y-13562881D01*
X10276030Y-13524786D01*
X10276030Y-13477167D01*
X10285554Y-13439071D01*
X10295077Y-13420024D01*
X10304601Y-13410500D01*
X10323649Y-13400976D01*
X10628411Y-13600976D02*
X10628411Y-13400976D01*
X10714125Y-13600976D02*
X10714125Y-13496214D01*
X10704601Y-13477167D01*
X10685554Y-13467643D01*
X10656982Y-13467643D01*
X10637935Y-13477167D01*
X10628411Y-13486690D01*
X10837935Y-13600976D02*
X10818887Y-13591452D01*
X10809363Y-13581928D01*
X10799839Y-13562881D01*
X10799839Y-13505738D01*
X10809363Y-13486690D01*
X10818887Y-13477167D01*
X10837935Y-13467643D01*
X10866506Y-13467643D01*
X10885554Y-13477167D01*
X10895077Y-13486690D01*
X10904601Y-13505738D01*
X10904601Y-13562881D01*
X10895077Y-13581928D01*
X10885554Y-13591452D01*
X10866506Y-13600976D01*
X10837935Y-13600976D01*
X11018887Y-13600976D02*
X10999839Y-13591452D01*
X10990316Y-13572405D01*
X10990316Y-13400976D01*
X11171268Y-13591452D02*
X11152220Y-13600976D01*
X11114125Y-13600976D01*
X11095077Y-13591452D01*
X11085554Y-13572405D01*
X11085554Y-13496214D01*
X11095077Y-13477167D01*
X11114125Y-13467643D01*
X11152220Y-13467643D01*
X11171268Y-13477167D01*
X11180792Y-13496214D01*
X11180792Y-13515262D01*
X11085554Y-13534309D01*
X11256982Y-13591452D02*
X11276030Y-13600976D01*
X11314125Y-13600976D01*
X11333173Y-13591452D01*
X11342696Y-13572405D01*
X11342696Y-13562881D01*
X11333173Y-13543833D01*
X11314125Y-13534309D01*
X11285554Y-13534309D01*
X11266506Y-13524786D01*
X11256982Y-13505738D01*
X11256982Y-13496214D01*
X11266506Y-13477167D01*
X11285554Y-13467643D01*
X11314125Y-13467643D01*
X11333173Y-13477167D01*
X11580792Y-13524786D02*
X11733173Y-13524786D01*
X11656982Y-13600976D02*
X11656982Y-13448595D01*
X12066506Y-13467643D02*
X12066506Y-13600976D01*
X12018887Y-13391452D02*
X11971268Y-13534309D01*
X12095077Y-13534309D01*
X12314125Y-13591452D02*
X12333173Y-13600976D01*
X12371268Y-13600976D01*
X12390315Y-13591452D01*
X12399839Y-13572405D01*
X12399839Y-13562881D01*
X12390315Y-13543833D01*
X12371268Y-13534309D01*
X12342696Y-13534309D01*
X12323649Y-13524786D01*
X12314125Y-13505738D01*
X12314125Y-13496214D01*
X12323649Y-13477167D01*
X12342696Y-13467643D01*
X12371268Y-13467643D01*
X12390315Y-13477167D01*
X12514125Y-13600976D02*
X12495077Y-13591452D01*
X12485554Y-13572405D01*
X12485554Y-13400976D01*
X12618887Y-13600976D02*
X12599839Y-13591452D01*
X12590315Y-13581928D01*
X12580792Y-13562881D01*
X12580792Y-13505738D01*
X12590315Y-13486690D01*
X12599839Y-13477167D01*
X12618887Y-13467643D01*
X12647458Y-13467643D01*
X12666506Y-13477167D01*
X12676030Y-13486690D01*
X12685554Y-13505738D01*
X12685554Y-13562881D01*
X12676030Y-13581928D01*
X12666506Y-13591452D01*
X12647458Y-13600976D01*
X12618887Y-13600976D01*
X12742696Y-13467643D02*
X12818887Y-13467643D01*
X12771268Y-13400976D02*
X12771268Y-13572405D01*
X12780792Y-13591452D01*
X12799839Y-13600976D01*
X12818887Y-13600976D01*
X12876030Y-13591452D02*
X12895077Y-13600976D01*
X12933173Y-13600976D01*
X12952220Y-13591452D01*
X12961744Y-13572405D01*
X12961744Y-13562881D01*
X12952220Y-13543833D01*
X12933173Y-13534309D01*
X12904601Y-13534309D01*
X12885554Y-13524786D01*
X12876030Y-13505738D01*
X12876030Y-13496214D01*
X12885554Y-13477167D01*
X12904601Y-13467643D01*
X12933173Y-13467643D01*
X12952220Y-13477167D01*
X13028411Y-13677167D02*
X13037934Y-13667643D01*
X13056982Y-13639071D01*
X13066506Y-13620024D01*
X13076030Y-13591452D01*
X13085554Y-13543833D01*
X13085554Y-13505738D01*
X13076030Y-13458119D01*
X13066506Y-13429548D01*
X13056982Y-13410500D01*
X13037934Y-13381928D01*
X13028411Y-13372405D01*
D15*
X6627940Y-13797481D02*
X6627940Y-13751519D01*
X6581977Y-13751519D01*
X6581977Y-13797481D01*
X6627940Y-13797481D01*
D11*
X6933173Y-13664976D02*
X6952220Y-13664976D01*
X6971268Y-13674500D01*
X6980792Y-13684024D01*
X6990315Y-13703071D01*
X6999839Y-13741167D01*
X6999839Y-13788786D01*
X6990315Y-13826881D01*
X6980792Y-13845928D01*
X6971268Y-13855452D01*
X6952220Y-13864976D01*
X6933173Y-13864976D01*
X6914125Y-13855452D01*
X6904601Y-13845928D01*
X6895077Y-13826881D01*
X6885554Y-13788786D01*
X6885554Y-13741167D01*
X6895077Y-13703071D01*
X6904601Y-13684024D01*
X6914125Y-13674500D01*
X6933173Y-13664976D01*
X7085554Y-13845928D02*
X7095077Y-13855452D01*
X7085554Y-13864976D01*
X7076030Y-13855452D01*
X7085554Y-13845928D01*
X7085554Y-13864976D01*
X7266506Y-13664976D02*
X7228411Y-13664976D01*
X7209363Y-13674500D01*
X7199839Y-13684024D01*
X7180792Y-13712595D01*
X7171268Y-13750690D01*
X7171268Y-13826881D01*
X7180792Y-13845928D01*
X7190315Y-13855452D01*
X7209363Y-13864976D01*
X7247458Y-13864976D01*
X7266506Y-13855452D01*
X7276030Y-13845928D01*
X7285554Y-13826881D01*
X7285554Y-13779262D01*
X7276030Y-13760214D01*
X7266506Y-13750690D01*
X7247458Y-13741167D01*
X7209363Y-13741167D01*
X7190315Y-13750690D01*
X7180792Y-13760214D01*
X7171268Y-13779262D01*
X7466506Y-13664976D02*
X7371268Y-13664976D01*
X7361744Y-13760214D01*
X7371268Y-13750690D01*
X7390315Y-13741167D01*
X7437934Y-13741167D01*
X7456982Y-13750690D01*
X7466506Y-13760214D01*
X7476030Y-13779262D01*
X7476030Y-13826881D01*
X7466506Y-13845928D01*
X7456982Y-13855452D01*
X7437934Y-13864976D01*
X7390315Y-13864976D01*
X7371268Y-13855452D01*
X7361744Y-13845928D01*
X7599839Y-13664976D02*
X7618887Y-13664976D01*
X7637934Y-13674500D01*
X7647458Y-13684024D01*
X7656982Y-13703071D01*
X7666506Y-13741167D01*
X7666506Y-13788786D01*
X7656982Y-13826881D01*
X7647458Y-13845928D01*
X7637934Y-13855452D01*
X7618887Y-13864976D01*
X7599839Y-13864976D01*
X7580792Y-13855452D01*
X7571268Y-13845928D01*
X7561744Y-13826881D01*
X7552220Y-13788786D01*
X7552220Y-13741167D01*
X7561744Y-13703071D01*
X7571268Y-13684024D01*
X7580792Y-13674500D01*
X7599839Y-13664976D01*
X7752220Y-13864976D02*
X7752220Y-13731643D01*
X7752220Y-13750690D02*
X7761744Y-13741167D01*
X7780792Y-13731643D01*
X7809363Y-13731643D01*
X7828411Y-13741167D01*
X7837934Y-13760214D01*
X7837934Y-13864976D01*
X7837934Y-13760214D02*
X7847458Y-13741167D01*
X7866506Y-13731643D01*
X7895077Y-13731643D01*
X7914125Y-13741167D01*
X7923649Y-13760214D01*
X7923649Y-13864976D01*
X8018887Y-13864976D02*
X8018887Y-13731643D01*
X8018887Y-13750690D02*
X8028411Y-13741167D01*
X8047458Y-13731643D01*
X8076030Y-13731643D01*
X8095077Y-13741167D01*
X8104601Y-13760214D01*
X8104601Y-13864976D01*
X8104601Y-13760214D02*
X8114125Y-13741167D01*
X8133173Y-13731643D01*
X8161744Y-13731643D01*
X8180792Y-13741167D01*
X8190315Y-13760214D01*
X8190315Y-13864976D01*
X8580792Y-13655452D02*
X8409363Y-13912595D01*
X8837935Y-13664976D02*
X8856982Y-13664976D01*
X8876030Y-13674500D01*
X8885554Y-13684024D01*
X8895077Y-13703071D01*
X8904601Y-13741167D01*
X8904601Y-13788786D01*
X8895077Y-13826881D01*
X8885554Y-13845928D01*
X8876030Y-13855452D01*
X8856982Y-13864976D01*
X8837935Y-13864976D01*
X8818887Y-13855452D01*
X8809363Y-13845928D01*
X8799839Y-13826881D01*
X8790316Y-13788786D01*
X8790316Y-13741167D01*
X8799839Y-13703071D01*
X8809363Y-13684024D01*
X8818887Y-13674500D01*
X8837935Y-13664976D01*
X8990316Y-13845928D02*
X8999839Y-13855452D01*
X8990316Y-13864976D01*
X8980792Y-13855452D01*
X8990316Y-13845928D01*
X8990316Y-13864976D01*
X9123649Y-13664976D02*
X9142696Y-13664976D01*
X9161744Y-13674500D01*
X9171268Y-13684024D01*
X9180792Y-13703071D01*
X9190316Y-13741167D01*
X9190316Y-13788786D01*
X9180792Y-13826881D01*
X9171268Y-13845928D01*
X9161744Y-13855452D01*
X9142696Y-13864976D01*
X9123649Y-13864976D01*
X9104601Y-13855452D01*
X9095077Y-13845928D01*
X9085554Y-13826881D01*
X9076030Y-13788786D01*
X9076030Y-13741167D01*
X9085554Y-13703071D01*
X9095077Y-13684024D01*
X9104601Y-13674500D01*
X9123649Y-13664976D01*
X9266506Y-13684024D02*
X9276030Y-13674500D01*
X9295077Y-13664976D01*
X9342696Y-13664976D01*
X9361744Y-13674500D01*
X9371268Y-13684024D01*
X9380792Y-13703071D01*
X9380792Y-13722119D01*
X9371268Y-13750690D01*
X9256982Y-13864976D01*
X9380792Y-13864976D01*
X9561744Y-13664976D02*
X9466506Y-13664976D01*
X9456982Y-13760214D01*
X9466506Y-13750690D01*
X9485554Y-13741167D01*
X9533173Y-13741167D01*
X9552220Y-13750690D01*
X9561744Y-13760214D01*
X9571268Y-13779262D01*
X9571268Y-13826881D01*
X9561744Y-13845928D01*
X9552220Y-13855452D01*
X9533173Y-13864976D01*
X9485554Y-13864976D01*
X9466506Y-13855452D01*
X9456982Y-13845928D01*
X9742696Y-13664976D02*
X9704601Y-13664976D01*
X9685554Y-13674500D01*
X9676030Y-13684024D01*
X9656982Y-13712595D01*
X9647458Y-13750690D01*
X9647458Y-13826881D01*
X9656982Y-13845928D01*
X9666506Y-13855452D01*
X9685554Y-13864976D01*
X9723649Y-13864976D01*
X9742696Y-13855452D01*
X9752220Y-13845928D01*
X9761744Y-13826881D01*
X9761744Y-13779262D01*
X9752220Y-13760214D01*
X9742696Y-13750690D01*
X9723649Y-13741167D01*
X9685554Y-13741167D01*
X9666506Y-13750690D01*
X9656982Y-13760214D01*
X9647458Y-13779262D01*
X9837935Y-13664976D02*
X9837935Y-13703071D01*
X9914125Y-13664976D02*
X9914125Y-13703071D01*
X10209363Y-13941167D02*
X10199839Y-13931643D01*
X10180792Y-13903071D01*
X10171268Y-13884024D01*
X10161744Y-13855452D01*
X10152220Y-13807833D01*
X10152220Y-13769738D01*
X10161744Y-13722119D01*
X10171268Y-13693548D01*
X10180792Y-13674500D01*
X10199839Y-13645928D01*
X10209363Y-13636405D01*
X10323649Y-13664976D02*
X10342696Y-13664976D01*
X10361744Y-13674500D01*
X10371268Y-13684024D01*
X10380792Y-13703071D01*
X10390316Y-13741167D01*
X10390316Y-13788786D01*
X10380792Y-13826881D01*
X10371268Y-13845928D01*
X10361744Y-13855452D01*
X10342696Y-13864976D01*
X10323649Y-13864976D01*
X10304601Y-13855452D01*
X10295077Y-13845928D01*
X10285554Y-13826881D01*
X10276030Y-13788786D01*
X10276030Y-13741167D01*
X10285554Y-13703071D01*
X10295077Y-13684024D01*
X10304601Y-13674500D01*
X10323649Y-13664976D01*
X10628411Y-13864976D02*
X10628411Y-13664976D01*
X10714125Y-13864976D02*
X10714125Y-13760214D01*
X10704601Y-13741167D01*
X10685554Y-13731643D01*
X10656982Y-13731643D01*
X10637935Y-13741167D01*
X10628411Y-13750690D01*
X10837935Y-13864976D02*
X10818887Y-13855452D01*
X10809363Y-13845928D01*
X10799839Y-13826881D01*
X10799839Y-13769738D01*
X10809363Y-13750690D01*
X10818887Y-13741167D01*
X10837935Y-13731643D01*
X10866506Y-13731643D01*
X10885554Y-13741167D01*
X10895077Y-13750690D01*
X10904601Y-13769738D01*
X10904601Y-13826881D01*
X10895077Y-13845928D01*
X10885554Y-13855452D01*
X10866506Y-13864976D01*
X10837935Y-13864976D01*
X11018887Y-13864976D02*
X10999839Y-13855452D01*
X10990316Y-13836405D01*
X10990316Y-13664976D01*
X11171268Y-13855452D02*
X11152220Y-13864976D01*
X11114125Y-13864976D01*
X11095077Y-13855452D01*
X11085554Y-13836405D01*
X11085554Y-13760214D01*
X11095077Y-13741167D01*
X11114125Y-13731643D01*
X11152220Y-13731643D01*
X11171268Y-13741167D01*
X11180792Y-13760214D01*
X11180792Y-13779262D01*
X11085554Y-13798309D01*
X11256982Y-13855452D02*
X11276030Y-13864976D01*
X11314125Y-13864976D01*
X11333173Y-13855452D01*
X11342696Y-13836405D01*
X11342696Y-13826881D01*
X11333173Y-13807833D01*
X11314125Y-13798309D01*
X11285554Y-13798309D01*
X11266506Y-13788786D01*
X11256982Y-13769738D01*
X11256982Y-13760214D01*
X11266506Y-13741167D01*
X11285554Y-13731643D01*
X11314125Y-13731643D01*
X11333173Y-13741167D01*
X11580792Y-13788786D02*
X11733173Y-13788786D01*
X11656982Y-13864976D02*
X11656982Y-13712595D01*
X11971268Y-13684024D02*
X11980792Y-13674500D01*
X11999839Y-13664976D01*
X12047458Y-13664976D01*
X12066506Y-13674500D01*
X12076030Y-13684024D01*
X12085554Y-13703071D01*
X12085554Y-13722119D01*
X12076030Y-13750690D01*
X11961744Y-13864976D01*
X12085554Y-13864976D01*
X12314125Y-13855452D02*
X12333173Y-13864976D01*
X12371268Y-13864976D01*
X12390315Y-13855452D01*
X12399839Y-13836405D01*
X12399839Y-13826881D01*
X12390315Y-13807833D01*
X12371268Y-13798309D01*
X12342696Y-13798309D01*
X12323649Y-13788786D01*
X12314125Y-13769738D01*
X12314125Y-13760214D01*
X12323649Y-13741167D01*
X12342696Y-13731643D01*
X12371268Y-13731643D01*
X12390315Y-13741167D01*
X12514125Y-13864976D02*
X12495077Y-13855452D01*
X12485554Y-13836405D01*
X12485554Y-13664976D01*
X12618887Y-13864976D02*
X12599839Y-13855452D01*
X12590315Y-13845928D01*
X12580792Y-13826881D01*
X12580792Y-13769738D01*
X12590315Y-13750690D01*
X12599839Y-13741167D01*
X12618887Y-13731643D01*
X12647458Y-13731643D01*
X12666506Y-13741167D01*
X12676030Y-13750690D01*
X12685554Y-13769738D01*
X12685554Y-13826881D01*
X12676030Y-13845928D01*
X12666506Y-13855452D01*
X12647458Y-13864976D01*
X12618887Y-13864976D01*
X12742696Y-13731643D02*
X12818887Y-13731643D01*
X12771268Y-13664976D02*
X12771268Y-13836405D01*
X12780792Y-13855452D01*
X12799839Y-13864976D01*
X12818887Y-13864976D01*
X12876030Y-13855452D02*
X12895077Y-13864976D01*
X12933173Y-13864976D01*
X12952220Y-13855452D01*
X12961744Y-13836405D01*
X12961744Y-13826881D01*
X12952220Y-13807833D01*
X12933173Y-13798309D01*
X12904601Y-13798309D01*
X12885554Y-13788786D01*
X12876030Y-13769738D01*
X12876030Y-13760214D01*
X12885554Y-13741167D01*
X12904601Y-13731643D01*
X12933173Y-13731643D01*
X12952220Y-13741167D01*
X13028411Y-13941167D02*
X13037934Y-13931643D01*
X13056982Y-13903071D01*
X13066506Y-13884024D01*
X13076030Y-13855452D01*
X13085554Y-13807833D01*
X13085554Y-13769738D01*
X13076030Y-13722119D01*
X13066506Y-13693548D01*
X13056982Y-13674500D01*
X13037934Y-13645928D01*
X13028411Y-13636405D01*
D16*
X6602458Y-14073500D02*
X6637458Y-14038500D01*
X6602458Y-14003500D01*
X6567458Y-14038500D01*
X6602458Y-14073500D01*
D11*
X6933173Y-13928976D02*
X6952220Y-13928976D01*
X6971268Y-13938500D01*
X6980792Y-13948024D01*
X6990315Y-13967071D01*
X6999839Y-14005167D01*
X6999839Y-14052786D01*
X6990315Y-14090881D01*
X6980792Y-14109928D01*
X6971268Y-14119452D01*
X6952220Y-14128976D01*
X6933173Y-14128976D01*
X6914125Y-14119452D01*
X6904601Y-14109928D01*
X6895077Y-14090881D01*
X6885554Y-14052786D01*
X6885554Y-14005167D01*
X6895077Y-13967071D01*
X6904601Y-13948024D01*
X6914125Y-13938500D01*
X6933173Y-13928976D01*
X7085554Y-14109928D02*
X7095077Y-14119452D01*
X7085554Y-14128976D01*
X7076030Y-14119452D01*
X7085554Y-14109928D01*
X7085554Y-14128976D01*
X7161744Y-13928976D02*
X7295077Y-13928976D01*
X7209363Y-14128976D01*
X7409363Y-13928976D02*
X7428411Y-13928976D01*
X7447458Y-13938500D01*
X7456982Y-13948024D01*
X7466506Y-13967071D01*
X7476030Y-14005167D01*
X7476030Y-14052786D01*
X7466506Y-14090881D01*
X7456982Y-14109928D01*
X7447458Y-14119452D01*
X7428411Y-14128976D01*
X7409363Y-14128976D01*
X7390315Y-14119452D01*
X7380792Y-14109928D01*
X7371268Y-14090881D01*
X7361744Y-14052786D01*
X7361744Y-14005167D01*
X7371268Y-13967071D01*
X7380792Y-13948024D01*
X7390315Y-13938500D01*
X7409363Y-13928976D01*
X7599839Y-13928976D02*
X7618887Y-13928976D01*
X7637934Y-13938500D01*
X7647458Y-13948024D01*
X7656982Y-13967071D01*
X7666506Y-14005167D01*
X7666506Y-14052786D01*
X7656982Y-14090881D01*
X7647458Y-14109928D01*
X7637934Y-14119452D01*
X7618887Y-14128976D01*
X7599839Y-14128976D01*
X7580792Y-14119452D01*
X7571268Y-14109928D01*
X7561744Y-14090881D01*
X7552220Y-14052786D01*
X7552220Y-14005167D01*
X7561744Y-13967071D01*
X7571268Y-13948024D01*
X7580792Y-13938500D01*
X7599839Y-13928976D01*
X7752220Y-14128976D02*
X7752220Y-13995643D01*
X7752220Y-14014690D02*
X7761744Y-14005167D01*
X7780792Y-13995643D01*
X7809363Y-13995643D01*
X7828411Y-14005167D01*
X7837934Y-14024214D01*
X7837934Y-14128976D01*
X7837934Y-14024214D02*
X7847458Y-14005167D01*
X7866506Y-13995643D01*
X7895077Y-13995643D01*
X7914125Y-14005167D01*
X7923649Y-14024214D01*
X7923649Y-14128976D01*
X8018887Y-14128976D02*
X8018887Y-13995643D01*
X8018887Y-14014690D02*
X8028411Y-14005167D01*
X8047458Y-13995643D01*
X8076030Y-13995643D01*
X8095077Y-14005167D01*
X8104601Y-14024214D01*
X8104601Y-14128976D01*
X8104601Y-14024214D02*
X8114125Y-14005167D01*
X8133173Y-13995643D01*
X8161744Y-13995643D01*
X8180792Y-14005167D01*
X8190315Y-14024214D01*
X8190315Y-14128976D01*
X8580792Y-13919452D02*
X8409363Y-14176595D01*
X8837935Y-13928976D02*
X8856982Y-13928976D01*
X8876030Y-13938500D01*
X8885554Y-13948024D01*
X8895077Y-13967071D01*
X8904601Y-14005167D01*
X8904601Y-14052786D01*
X8895077Y-14090881D01*
X8885554Y-14109928D01*
X8876030Y-14119452D01*
X8856982Y-14128976D01*
X8837935Y-14128976D01*
X8818887Y-14119452D01*
X8809363Y-14109928D01*
X8799839Y-14090881D01*
X8790316Y-14052786D01*
X8790316Y-14005167D01*
X8799839Y-13967071D01*
X8809363Y-13948024D01*
X8818887Y-13938500D01*
X8837935Y-13928976D01*
X8990316Y-14109928D02*
X8999839Y-14119452D01*
X8990316Y-14128976D01*
X8980792Y-14119452D01*
X8990316Y-14109928D01*
X8990316Y-14128976D01*
X9123649Y-13928976D02*
X9142696Y-13928976D01*
X9161744Y-13938500D01*
X9171268Y-13948024D01*
X9180792Y-13967071D01*
X9190316Y-14005167D01*
X9190316Y-14052786D01*
X9180792Y-14090881D01*
X9171268Y-14109928D01*
X9161744Y-14119452D01*
X9142696Y-14128976D01*
X9123649Y-14128976D01*
X9104601Y-14119452D01*
X9095077Y-14109928D01*
X9085554Y-14090881D01*
X9076030Y-14052786D01*
X9076030Y-14005167D01*
X9085554Y-13967071D01*
X9095077Y-13948024D01*
X9104601Y-13938500D01*
X9123649Y-13928976D01*
X9266506Y-13948024D02*
X9276030Y-13938500D01*
X9295077Y-13928976D01*
X9342696Y-13928976D01*
X9361744Y-13938500D01*
X9371268Y-13948024D01*
X9380792Y-13967071D01*
X9380792Y-13986119D01*
X9371268Y-14014690D01*
X9256982Y-14128976D01*
X9380792Y-14128976D01*
X9447458Y-13928976D02*
X9580792Y-13928976D01*
X9495077Y-14128976D01*
X9742696Y-13928976D02*
X9704601Y-13928976D01*
X9685554Y-13938500D01*
X9676030Y-13948024D01*
X9656982Y-13976595D01*
X9647458Y-14014690D01*
X9647458Y-14090881D01*
X9656982Y-14109928D01*
X9666506Y-14119452D01*
X9685554Y-14128976D01*
X9723649Y-14128976D01*
X9742696Y-14119452D01*
X9752220Y-14109928D01*
X9761744Y-14090881D01*
X9761744Y-14043262D01*
X9752220Y-14024214D01*
X9742696Y-14014690D01*
X9723649Y-14005167D01*
X9685554Y-14005167D01*
X9666506Y-14014690D01*
X9656982Y-14024214D01*
X9647458Y-14043262D01*
X9837935Y-13928976D02*
X9837935Y-13967071D01*
X9914125Y-13928976D02*
X9914125Y-13967071D01*
X10209363Y-14205167D02*
X10199839Y-14195643D01*
X10180792Y-14167071D01*
X10171268Y-14148024D01*
X10161744Y-14119452D01*
X10152220Y-14071833D01*
X10152220Y-14033738D01*
X10161744Y-13986119D01*
X10171268Y-13957548D01*
X10180792Y-13938500D01*
X10199839Y-13909928D01*
X10209363Y-13900405D01*
X10323649Y-13928976D02*
X10342696Y-13928976D01*
X10361744Y-13938500D01*
X10371268Y-13948024D01*
X10380792Y-13967071D01*
X10390316Y-14005167D01*
X10390316Y-14052786D01*
X10380792Y-14090881D01*
X10371268Y-14109928D01*
X10361744Y-14119452D01*
X10342696Y-14128976D01*
X10323649Y-14128976D01*
X10304601Y-14119452D01*
X10295077Y-14109928D01*
X10285554Y-14090881D01*
X10276030Y-14052786D01*
X10276030Y-14005167D01*
X10285554Y-13967071D01*
X10295077Y-13948024D01*
X10304601Y-13938500D01*
X10323649Y-13928976D01*
X10628411Y-14128976D02*
X10628411Y-13928976D01*
X10714125Y-14128976D02*
X10714125Y-14024214D01*
X10704601Y-14005167D01*
X10685554Y-13995643D01*
X10656982Y-13995643D01*
X10637935Y-14005167D01*
X10628411Y-14014690D01*
X10837935Y-14128976D02*
X10818887Y-14119452D01*
X10809363Y-14109928D01*
X10799839Y-14090881D01*
X10799839Y-14033738D01*
X10809363Y-14014690D01*
X10818887Y-14005167D01*
X10837935Y-13995643D01*
X10866506Y-13995643D01*
X10885554Y-14005167D01*
X10895077Y-14014690D01*
X10904601Y-14033738D01*
X10904601Y-14090881D01*
X10895077Y-14109928D01*
X10885554Y-14119452D01*
X10866506Y-14128976D01*
X10837935Y-14128976D01*
X11018887Y-14128976D02*
X10999839Y-14119452D01*
X10990316Y-14100405D01*
X10990316Y-13928976D01*
X11171268Y-14119452D02*
X11152220Y-14128976D01*
X11114125Y-14128976D01*
X11095077Y-14119452D01*
X11085554Y-14100405D01*
X11085554Y-14024214D01*
X11095077Y-14005167D01*
X11114125Y-13995643D01*
X11152220Y-13995643D01*
X11171268Y-14005167D01*
X11180792Y-14024214D01*
X11180792Y-14043262D01*
X11085554Y-14062309D01*
X11256982Y-14119452D02*
X11276030Y-14128976D01*
X11314125Y-14128976D01*
X11333173Y-14119452D01*
X11342696Y-14100405D01*
X11342696Y-14090881D01*
X11333173Y-14071833D01*
X11314125Y-14062309D01*
X11285554Y-14062309D01*
X11266506Y-14052786D01*
X11256982Y-14033738D01*
X11256982Y-14024214D01*
X11266506Y-14005167D01*
X11285554Y-13995643D01*
X11314125Y-13995643D01*
X11333173Y-14005167D01*
X11580792Y-14052786D02*
X11733173Y-14052786D01*
X11656982Y-14128976D02*
X11656982Y-13976595D01*
X11971268Y-13948024D02*
X11980792Y-13938500D01*
X11999839Y-13928976D01*
X12047458Y-13928976D01*
X12066506Y-13938500D01*
X12076030Y-13948024D01*
X12085554Y-13967071D01*
X12085554Y-13986119D01*
X12076030Y-14014690D01*
X11961744Y-14128976D01*
X12085554Y-14128976D01*
X12314125Y-14119452D02*
X12333173Y-14128976D01*
X12371268Y-14128976D01*
X12390315Y-14119452D01*
X12399839Y-14100405D01*
X12399839Y-14090881D01*
X12390315Y-14071833D01*
X12371268Y-14062309D01*
X12342696Y-14062309D01*
X12323649Y-14052786D01*
X12314125Y-14033738D01*
X12314125Y-14024214D01*
X12323649Y-14005167D01*
X12342696Y-13995643D01*
X12371268Y-13995643D01*
X12390315Y-14005167D01*
X12514125Y-14128976D02*
X12495077Y-14119452D01*
X12485554Y-14100405D01*
X12485554Y-13928976D01*
X12618887Y-14128976D02*
X12599839Y-14119452D01*
X12590315Y-14109928D01*
X12580792Y-14090881D01*
X12580792Y-14033738D01*
X12590315Y-14014690D01*
X12599839Y-14005167D01*
X12618887Y-13995643D01*
X12647458Y-13995643D01*
X12666506Y-14005167D01*
X12676030Y-14014690D01*
X12685554Y-14033738D01*
X12685554Y-14090881D01*
X12676030Y-14109928D01*
X12666506Y-14119452D01*
X12647458Y-14128976D01*
X12618887Y-14128976D01*
X12742696Y-13995643D02*
X12818887Y-13995643D01*
X12771268Y-13928976D02*
X12771268Y-14100405D01*
X12780792Y-14119452D01*
X12799839Y-14128976D01*
X12818887Y-14128976D01*
X12876030Y-14119452D02*
X12895077Y-14128976D01*
X12933173Y-14128976D01*
X12952220Y-14119452D01*
X12961744Y-14100405D01*
X12961744Y-14090881D01*
X12952220Y-14071833D01*
X12933173Y-14062309D01*
X12904601Y-14062309D01*
X12885554Y-14052786D01*
X12876030Y-14033738D01*
X12876030Y-14024214D01*
X12885554Y-14005167D01*
X12904601Y-13995643D01*
X12933173Y-13995643D01*
X12952220Y-14005167D01*
X13028411Y-14205167D02*
X13037934Y-14195643D01*
X13056982Y-14167071D01*
X13066506Y-14148024D01*
X13076030Y-14119452D01*
X13085554Y-14071833D01*
X13085554Y-14033738D01*
X13076030Y-13986119D01*
X13066506Y-13957548D01*
X13056982Y-13938500D01*
X13037934Y-13909928D01*
X13028411Y-13900405D01*
D17*
X6535858Y-14251700D02*
X6637458Y-14353300D01*
X6637458Y-14251700D02*
X6535858Y-14353300D01*
X6637458Y-14302500D02*
G75*
G03*
X6637458Y-14302500I-50800J0D01*
G01*
D11*
X6999839Y-14392976D02*
X6885554Y-14392976D01*
X6942696Y-14392976D02*
X6942696Y-14192976D01*
X6923649Y-14221548D01*
X6904601Y-14240595D01*
X6885554Y-14250119D01*
X7085554Y-14373928D02*
X7095077Y-14383452D01*
X7085554Y-14392976D01*
X7076030Y-14383452D01*
X7085554Y-14373928D01*
X7085554Y-14392976D01*
X7218887Y-14192976D02*
X7237934Y-14192976D01*
X7256982Y-14202500D01*
X7266506Y-14212024D01*
X7276030Y-14231071D01*
X7285554Y-14269167D01*
X7285554Y-14316786D01*
X7276030Y-14354881D01*
X7266506Y-14373928D01*
X7256982Y-14383452D01*
X7237934Y-14392976D01*
X7218887Y-14392976D01*
X7199839Y-14383452D01*
X7190315Y-14373928D01*
X7180792Y-14354881D01*
X7171268Y-14316786D01*
X7171268Y-14269167D01*
X7180792Y-14231071D01*
X7190315Y-14212024D01*
X7199839Y-14202500D01*
X7218887Y-14192976D01*
X7476030Y-14392976D02*
X7361744Y-14392976D01*
X7418887Y-14392976D02*
X7418887Y-14192976D01*
X7399839Y-14221548D01*
X7380792Y-14240595D01*
X7361744Y-14250119D01*
X7647458Y-14192976D02*
X7609363Y-14192976D01*
X7590315Y-14202500D01*
X7580792Y-14212024D01*
X7561744Y-14240595D01*
X7552220Y-14278690D01*
X7552220Y-14354881D01*
X7561744Y-14373928D01*
X7571268Y-14383452D01*
X7590315Y-14392976D01*
X7628411Y-14392976D01*
X7647458Y-14383452D01*
X7656982Y-14373928D01*
X7666506Y-14354881D01*
X7666506Y-14307262D01*
X7656982Y-14288214D01*
X7647458Y-14278690D01*
X7628411Y-14269167D01*
X7590315Y-14269167D01*
X7571268Y-14278690D01*
X7561744Y-14288214D01*
X7552220Y-14307262D01*
X7752220Y-14392976D02*
X7752220Y-14259643D01*
X7752220Y-14278690D02*
X7761744Y-14269167D01*
X7780792Y-14259643D01*
X7809363Y-14259643D01*
X7828411Y-14269167D01*
X7837934Y-14288214D01*
X7837934Y-14392976D01*
X7837934Y-14288214D02*
X7847458Y-14269167D01*
X7866506Y-14259643D01*
X7895077Y-14259643D01*
X7914125Y-14269167D01*
X7923649Y-14288214D01*
X7923649Y-14392976D01*
X8018887Y-14392976D02*
X8018887Y-14259643D01*
X8018887Y-14278690D02*
X8028411Y-14269167D01*
X8047458Y-14259643D01*
X8076030Y-14259643D01*
X8095077Y-14269167D01*
X8104601Y-14288214D01*
X8104601Y-14392976D01*
X8104601Y-14288214D02*
X8114125Y-14269167D01*
X8133173Y-14259643D01*
X8161744Y-14259643D01*
X8180792Y-14269167D01*
X8190315Y-14288214D01*
X8190315Y-14392976D01*
X8580792Y-14183452D02*
X8409363Y-14440595D01*
X8837935Y-14192976D02*
X8856982Y-14192976D01*
X8876030Y-14202500D01*
X8885554Y-14212024D01*
X8895077Y-14231071D01*
X8904601Y-14269167D01*
X8904601Y-14316786D01*
X8895077Y-14354881D01*
X8885554Y-14373928D01*
X8876030Y-14383452D01*
X8856982Y-14392976D01*
X8837935Y-14392976D01*
X8818887Y-14383452D01*
X8809363Y-14373928D01*
X8799839Y-14354881D01*
X8790316Y-14316786D01*
X8790316Y-14269167D01*
X8799839Y-14231071D01*
X8809363Y-14212024D01*
X8818887Y-14202500D01*
X8837935Y-14192976D01*
X8990316Y-14373928D02*
X8999839Y-14383452D01*
X8990316Y-14392976D01*
X8980792Y-14383452D01*
X8990316Y-14373928D01*
X8990316Y-14392976D01*
X9123649Y-14192976D02*
X9142696Y-14192976D01*
X9161744Y-14202500D01*
X9171268Y-14212024D01*
X9180792Y-14231071D01*
X9190316Y-14269167D01*
X9190316Y-14316786D01*
X9180792Y-14354881D01*
X9171268Y-14373928D01*
X9161744Y-14383452D01*
X9142696Y-14392976D01*
X9123649Y-14392976D01*
X9104601Y-14383452D01*
X9095077Y-14373928D01*
X9085554Y-14354881D01*
X9076030Y-14316786D01*
X9076030Y-14269167D01*
X9085554Y-14231071D01*
X9095077Y-14212024D01*
X9104601Y-14202500D01*
X9123649Y-14192976D01*
X9361744Y-14259643D02*
X9361744Y-14392976D01*
X9314125Y-14183452D02*
X9266506Y-14326309D01*
X9390316Y-14326309D01*
X9504601Y-14192976D02*
X9523649Y-14192976D01*
X9542696Y-14202500D01*
X9552220Y-14212024D01*
X9561744Y-14231071D01*
X9571268Y-14269167D01*
X9571268Y-14316786D01*
X9561744Y-14354881D01*
X9552220Y-14373928D01*
X9542696Y-14383452D01*
X9523649Y-14392976D01*
X9504601Y-14392976D01*
X9485554Y-14383452D01*
X9476030Y-14373928D01*
X9466506Y-14354881D01*
X9456982Y-14316786D01*
X9456982Y-14269167D01*
X9466506Y-14231071D01*
X9476030Y-14212024D01*
X9485554Y-14202500D01*
X9504601Y-14192976D01*
X9695077Y-14192976D02*
X9714125Y-14192976D01*
X9733173Y-14202500D01*
X9742696Y-14212024D01*
X9752220Y-14231071D01*
X9761744Y-14269167D01*
X9761744Y-14316786D01*
X9752220Y-14354881D01*
X9742696Y-14373928D01*
X9733173Y-14383452D01*
X9714125Y-14392976D01*
X9695077Y-14392976D01*
X9676030Y-14383452D01*
X9666506Y-14373928D01*
X9656982Y-14354881D01*
X9647458Y-14316786D01*
X9647458Y-14269167D01*
X9656982Y-14231071D01*
X9666506Y-14212024D01*
X9676030Y-14202500D01*
X9695077Y-14192976D01*
X9837935Y-14192976D02*
X9837935Y-14231071D01*
X9914125Y-14192976D02*
X9914125Y-14231071D01*
X10209363Y-14469167D02*
X10199839Y-14459643D01*
X10180792Y-14431071D01*
X10171268Y-14412024D01*
X10161744Y-14383452D01*
X10152220Y-14335833D01*
X10152220Y-14297738D01*
X10161744Y-14250119D01*
X10171268Y-14221548D01*
X10180792Y-14202500D01*
X10199839Y-14173928D01*
X10209363Y-14164405D01*
X10371268Y-14259643D02*
X10371268Y-14392976D01*
X10323649Y-14183452D02*
X10276030Y-14326309D01*
X10399839Y-14326309D01*
X10514125Y-14192976D02*
X10533173Y-14192976D01*
X10552220Y-14202500D01*
X10561744Y-14212024D01*
X10571268Y-14231071D01*
X10580792Y-14269167D01*
X10580792Y-14316786D01*
X10571268Y-14354881D01*
X10561744Y-14373928D01*
X10552220Y-14383452D01*
X10533173Y-14392976D01*
X10514125Y-14392976D01*
X10495077Y-14383452D01*
X10485554Y-14373928D01*
X10476030Y-14354881D01*
X10466506Y-14316786D01*
X10466506Y-14269167D01*
X10476030Y-14231071D01*
X10485554Y-14212024D01*
X10495077Y-14202500D01*
X10514125Y-14192976D01*
X10818887Y-14392976D02*
X10818887Y-14192976D01*
X10904601Y-14392976D02*
X10904601Y-14288214D01*
X10895077Y-14269167D01*
X10876030Y-14259643D01*
X10847458Y-14259643D01*
X10828411Y-14269167D01*
X10818887Y-14278690D01*
X11028411Y-14392976D02*
X11009363Y-14383452D01*
X10999839Y-14373928D01*
X10990316Y-14354881D01*
X10990316Y-14297738D01*
X10999839Y-14278690D01*
X11009363Y-14269167D01*
X11028411Y-14259643D01*
X11056982Y-14259643D01*
X11076030Y-14269167D01*
X11085554Y-14278690D01*
X11095077Y-14297738D01*
X11095077Y-14354881D01*
X11085554Y-14373928D01*
X11076030Y-14383452D01*
X11056982Y-14392976D01*
X11028411Y-14392976D01*
X11209363Y-14392976D02*
X11190315Y-14383452D01*
X11180792Y-14364405D01*
X11180792Y-14192976D01*
X11361744Y-14383452D02*
X11342696Y-14392976D01*
X11304601Y-14392976D01*
X11285554Y-14383452D01*
X11276030Y-14364405D01*
X11276030Y-14288214D01*
X11285554Y-14269167D01*
X11304601Y-14259643D01*
X11342696Y-14259643D01*
X11361744Y-14269167D01*
X11371268Y-14288214D01*
X11371268Y-14307262D01*
X11276030Y-14326309D01*
X11447458Y-14383452D02*
X11466506Y-14392976D01*
X11504601Y-14392976D01*
X11523649Y-14383452D01*
X11533173Y-14364405D01*
X11533173Y-14354881D01*
X11523649Y-14335833D01*
X11504601Y-14326309D01*
X11476030Y-14326309D01*
X11456982Y-14316786D01*
X11447458Y-14297738D01*
X11447458Y-14288214D01*
X11456982Y-14269167D01*
X11476030Y-14259643D01*
X11504601Y-14259643D01*
X11523649Y-14269167D01*
X11599839Y-14469167D02*
X11609363Y-14459643D01*
X11628411Y-14431071D01*
X11637934Y-14412024D01*
X11647458Y-14383452D01*
X11656982Y-14335833D01*
X11656982Y-14297738D01*
X11647458Y-14250119D01*
X11637934Y-14221548D01*
X11628411Y-14202500D01*
X11609363Y-14173928D01*
X11599839Y-14164405D01*
D18*
X6505458Y-14500500D02*
X6637458Y-14632500D01*
X6637458Y-14500500D02*
X6505458Y-14632500D01*
X6571458Y-14500500D02*
X6571458Y-14632500D01*
X6505458Y-14566500D02*
X6637458Y-14566500D01*
D11*
X6999839Y-14656976D02*
X6885554Y-14656976D01*
X6942696Y-14656976D02*
X6942696Y-14456976D01*
X6923649Y-14485548D01*
X6904601Y-14504595D01*
X6885554Y-14514119D01*
X7085554Y-14637928D02*
X7095077Y-14647452D01*
X7085554Y-14656976D01*
X7076030Y-14647452D01*
X7085554Y-14637928D01*
X7085554Y-14656976D01*
X7161744Y-14456976D02*
X7285554Y-14456976D01*
X7218887Y-14533167D01*
X7247458Y-14533167D01*
X7266506Y-14542690D01*
X7276030Y-14552214D01*
X7285554Y-14571262D01*
X7285554Y-14618881D01*
X7276030Y-14637928D01*
X7266506Y-14647452D01*
X7247458Y-14656976D01*
X7190315Y-14656976D01*
X7171268Y-14647452D01*
X7161744Y-14637928D01*
X7361744Y-14476024D02*
X7371268Y-14466500D01*
X7390315Y-14456976D01*
X7437934Y-14456976D01*
X7456982Y-14466500D01*
X7466506Y-14476024D01*
X7476030Y-14495071D01*
X7476030Y-14514119D01*
X7466506Y-14542690D01*
X7352220Y-14656976D01*
X7476030Y-14656976D01*
X7599839Y-14456976D02*
X7618887Y-14456976D01*
X7637934Y-14466500D01*
X7647458Y-14476024D01*
X7656982Y-14495071D01*
X7666506Y-14533167D01*
X7666506Y-14580786D01*
X7656982Y-14618881D01*
X7647458Y-14637928D01*
X7637934Y-14647452D01*
X7618887Y-14656976D01*
X7599839Y-14656976D01*
X7580792Y-14647452D01*
X7571268Y-14637928D01*
X7561744Y-14618881D01*
X7552220Y-14580786D01*
X7552220Y-14533167D01*
X7561744Y-14495071D01*
X7571268Y-14476024D01*
X7580792Y-14466500D01*
X7599839Y-14456976D01*
X7752220Y-14656976D02*
X7752220Y-14523643D01*
X7752220Y-14542690D02*
X7761744Y-14533167D01*
X7780792Y-14523643D01*
X7809363Y-14523643D01*
X7828411Y-14533167D01*
X7837934Y-14552214D01*
X7837934Y-14656976D01*
X7837934Y-14552214D02*
X7847458Y-14533167D01*
X7866506Y-14523643D01*
X7895077Y-14523643D01*
X7914125Y-14533167D01*
X7923649Y-14552214D01*
X7923649Y-14656976D01*
X8018887Y-14656976D02*
X8018887Y-14523643D01*
X8018887Y-14542690D02*
X8028411Y-14533167D01*
X8047458Y-14523643D01*
X8076030Y-14523643D01*
X8095077Y-14533167D01*
X8104601Y-14552214D01*
X8104601Y-14656976D01*
X8104601Y-14552214D02*
X8114125Y-14533167D01*
X8133173Y-14523643D01*
X8161744Y-14523643D01*
X8180792Y-14533167D01*
X8190315Y-14552214D01*
X8190315Y-14656976D01*
X8580792Y-14447452D02*
X8409363Y-14704595D01*
X8837935Y-14456976D02*
X8856982Y-14456976D01*
X8876030Y-14466500D01*
X8885554Y-14476024D01*
X8895077Y-14495071D01*
X8904601Y-14533167D01*
X8904601Y-14580786D01*
X8895077Y-14618881D01*
X8885554Y-14637928D01*
X8876030Y-14647452D01*
X8856982Y-14656976D01*
X8837935Y-14656976D01*
X8818887Y-14647452D01*
X8809363Y-14637928D01*
X8799839Y-14618881D01*
X8790316Y-14580786D01*
X8790316Y-14533167D01*
X8799839Y-14495071D01*
X8809363Y-14476024D01*
X8818887Y-14466500D01*
X8837935Y-14456976D01*
X8990316Y-14637928D02*
X8999839Y-14647452D01*
X8990316Y-14656976D01*
X8980792Y-14647452D01*
X8990316Y-14637928D01*
X8990316Y-14656976D01*
X9123649Y-14456976D02*
X9142696Y-14456976D01*
X9161744Y-14466500D01*
X9171268Y-14476024D01*
X9180792Y-14495071D01*
X9190316Y-14533167D01*
X9190316Y-14580786D01*
X9180792Y-14618881D01*
X9171268Y-14637928D01*
X9161744Y-14647452D01*
X9142696Y-14656976D01*
X9123649Y-14656976D01*
X9104601Y-14647452D01*
X9095077Y-14637928D01*
X9085554Y-14618881D01*
X9076030Y-14580786D01*
X9076030Y-14533167D01*
X9085554Y-14495071D01*
X9095077Y-14476024D01*
X9104601Y-14466500D01*
X9123649Y-14456976D01*
X9371268Y-14456976D02*
X9276030Y-14456976D01*
X9266506Y-14552214D01*
X9276030Y-14542690D01*
X9295077Y-14533167D01*
X9342696Y-14533167D01*
X9361744Y-14542690D01*
X9371268Y-14552214D01*
X9380792Y-14571262D01*
X9380792Y-14618881D01*
X9371268Y-14637928D01*
X9361744Y-14647452D01*
X9342696Y-14656976D01*
X9295077Y-14656976D01*
X9276030Y-14647452D01*
X9266506Y-14637928D01*
X9456982Y-14476024D02*
X9466506Y-14466500D01*
X9485554Y-14456976D01*
X9533173Y-14456976D01*
X9552220Y-14466500D01*
X9561744Y-14476024D01*
X9571268Y-14495071D01*
X9571268Y-14514119D01*
X9561744Y-14542690D01*
X9447458Y-14656976D01*
X9571268Y-14656976D01*
X9695077Y-14456976D02*
X9714125Y-14456976D01*
X9733173Y-14466500D01*
X9742696Y-14476024D01*
X9752220Y-14495071D01*
X9761744Y-14533167D01*
X9761744Y-14580786D01*
X9752220Y-14618881D01*
X9742696Y-14637928D01*
X9733173Y-14647452D01*
X9714125Y-14656976D01*
X9695077Y-14656976D01*
X9676030Y-14647452D01*
X9666506Y-14637928D01*
X9656982Y-14618881D01*
X9647458Y-14580786D01*
X9647458Y-14533167D01*
X9656982Y-14495071D01*
X9666506Y-14476024D01*
X9676030Y-14466500D01*
X9695077Y-14456976D01*
X9837935Y-14456976D02*
X9837935Y-14495071D01*
X9914125Y-14456976D02*
X9914125Y-14495071D01*
X10209363Y-14733167D02*
X10199839Y-14723643D01*
X10180792Y-14695071D01*
X10171268Y-14676024D01*
X10161744Y-14647452D01*
X10152220Y-14599833D01*
X10152220Y-14561738D01*
X10161744Y-14514119D01*
X10171268Y-14485548D01*
X10180792Y-14466500D01*
X10199839Y-14437928D01*
X10209363Y-14428405D01*
X10371268Y-14523643D02*
X10371268Y-14656976D01*
X10323649Y-14447452D02*
X10276030Y-14590309D01*
X10399839Y-14590309D01*
X10628411Y-14656976D02*
X10628411Y-14456976D01*
X10714125Y-14656976D02*
X10714125Y-14552214D01*
X10704601Y-14533167D01*
X10685554Y-14523643D01*
X10656982Y-14523643D01*
X10637935Y-14533167D01*
X10628411Y-14542690D01*
X10837935Y-14656976D02*
X10818887Y-14647452D01*
X10809363Y-14637928D01*
X10799839Y-14618881D01*
X10799839Y-14561738D01*
X10809363Y-14542690D01*
X10818887Y-14533167D01*
X10837935Y-14523643D01*
X10866506Y-14523643D01*
X10885554Y-14533167D01*
X10895077Y-14542690D01*
X10904601Y-14561738D01*
X10904601Y-14618881D01*
X10895077Y-14637928D01*
X10885554Y-14647452D01*
X10866506Y-14656976D01*
X10837935Y-14656976D01*
X11018887Y-14656976D02*
X10999839Y-14647452D01*
X10990316Y-14628405D01*
X10990316Y-14456976D01*
X11171268Y-14647452D02*
X11152220Y-14656976D01*
X11114125Y-14656976D01*
X11095077Y-14647452D01*
X11085554Y-14628405D01*
X11085554Y-14552214D01*
X11095077Y-14533167D01*
X11114125Y-14523643D01*
X11152220Y-14523643D01*
X11171268Y-14533167D01*
X11180792Y-14552214D01*
X11180792Y-14571262D01*
X11085554Y-14590309D01*
X11256982Y-14647452D02*
X11276030Y-14656976D01*
X11314125Y-14656976D01*
X11333173Y-14647452D01*
X11342696Y-14628405D01*
X11342696Y-14618881D01*
X11333173Y-14599833D01*
X11314125Y-14590309D01*
X11285554Y-14590309D01*
X11266506Y-14580786D01*
X11256982Y-14561738D01*
X11256982Y-14552214D01*
X11266506Y-14533167D01*
X11285554Y-14523643D01*
X11314125Y-14523643D01*
X11333173Y-14533167D01*
X11409363Y-14733167D02*
X11418887Y-14723643D01*
X11437934Y-14695071D01*
X11447458Y-14676024D01*
X11456982Y-14647452D01*
X11466506Y-14599833D01*
X11466506Y-14561738D01*
X11456982Y-14514119D01*
X11447458Y-14485548D01*
X11437934Y-14466500D01*
X11418887Y-14437928D01*
X11409363Y-14428405D01*
M02*
