G04 #@! TF.GenerationSoftware,KiCad,Pcbnew,6.0.4-6f826c9f35~116~ubuntu20.04.1*
G04 #@! TF.CreationDate,2022-05-05T15:44:48+02:00*
G04 #@! TF.ProjectId,PiUPS,50695550-532e-46b6-9963-61645f706362,rev?*
G04 #@! TF.SameCoordinates,Original*
G04 #@! TF.FileFunction,Soldermask,Top*
G04 #@! TF.FilePolarity,Negative*
%FSLAX46Y46*%
G04 Gerber Fmt 4.6, Leading zero omitted, Abs format (unit mm)*
G04 Created by KiCad (PCBNEW 6.0.4-6f826c9f35~116~ubuntu20.04.1) date 2022-05-05 15:44:48*
%MOMM*%
%LPD*%
G01*
G04 APERTURE LIST*
G04 Aperture macros list*
%AMRoundRect*
0 Rectangle with rounded corners*
0 $1 Rounding radius*
0 $2 $3 $4 $5 $6 $7 $8 $9 X,Y pos of 4 corners*
0 Add a 4 corners polygon primitive as box body*
4,1,4,$2,$3,$4,$5,$6,$7,$8,$9,$2,$3,0*
0 Add four circle primitives for the rounded corners*
1,1,$1+$1,$2,$3*
1,1,$1+$1,$4,$5*
1,1,$1+$1,$6,$7*
1,1,$1+$1,$8,$9*
0 Add four rect primitives between the rounded corners*
20,1,$1+$1,$2,$3,$4,$5,0*
20,1,$1+$1,$4,$5,$6,$7,0*
20,1,$1+$1,$6,$7,$8,$9,0*
20,1,$1+$1,$8,$9,$2,$3,0*%
G04 Aperture macros list end*
%ADD10C,0.010000*%
%ADD11RoundRect,0.250000X-0.412500X-1.100000X0.412500X-1.100000X0.412500X1.100000X-0.412500X1.100000X0*%
%ADD12R,2.700000X3.600000*%
%ADD13RoundRect,0.250000X0.650000X-0.412500X0.650000X0.412500X-0.650000X0.412500X-0.650000X-0.412500X0*%
%ADD14RoundRect,0.250000X0.412500X0.650000X-0.412500X0.650000X-0.412500X-0.650000X0.412500X-0.650000X0*%
%ADD15RoundRect,0.250000X0.450000X-0.350000X0.450000X0.350000X-0.450000X0.350000X-0.450000X-0.350000X0*%
%ADD16RoundRect,0.250000X0.400000X1.450000X-0.400000X1.450000X-0.400000X-1.450000X0.400000X-1.450000X0*%
%ADD17RoundRect,0.250000X-0.475000X0.337500X-0.475000X-0.337500X0.475000X-0.337500X0.475000X0.337500X0*%
%ADD18RoundRect,0.250000X-0.337500X-0.475000X0.337500X-0.475000X0.337500X0.475000X-0.337500X0.475000X0*%
%ADD19RoundRect,0.250000X0.350000X0.450000X-0.350000X0.450000X-0.350000X-0.450000X0.350000X-0.450000X0*%
%ADD20RoundRect,0.062500X-0.350000X-0.062500X0.350000X-0.062500X0.350000X0.062500X-0.350000X0.062500X0*%
%ADD21RoundRect,0.062500X-0.062500X-0.350000X0.062500X-0.350000X0.062500X0.350000X-0.062500X0.350000X0*%
%ADD22R,2.700000X2.700000*%
%ADD23RoundRect,0.250000X0.337500X0.475000X-0.337500X0.475000X-0.337500X-0.475000X0.337500X-0.475000X0*%
%ADD24C,1.300000*%
%ADD25RoundRect,0.054000X1.346000X-0.396000X1.346000X0.396000X-1.346000X0.396000X-1.346000X-0.396000X0*%
%ADD26R,5.000000X2.500000*%
%ADD27RoundRect,0.250000X-0.450000X0.350000X-0.450000X-0.350000X0.450000X-0.350000X0.450000X0.350000X0*%
%ADD28RoundRect,0.250000X-0.650000X0.412500X-0.650000X-0.412500X0.650000X-0.412500X0.650000X0.412500X0*%
%ADD29RoundRect,0.250000X-1.000000X1.750000X-1.000000X-1.750000X1.000000X-1.750000X1.000000X1.750000X0*%
%ADD30C,3.450000*%
%ADD31C,2.390000*%
%ADD32R,7.340000X6.350000*%
%ADD33R,1.650000X0.400000*%
%ADD34O,1.700000X1.350000*%
%ADD35R,2.000000X1.350000*%
%ADD36R,2.500000X1.430000*%
%ADD37R,0.700000X1.825000*%
%ADD38R,1.500000X2.000000*%
%ADD39O,1.500000X1.100000*%
%ADD40RoundRect,0.250000X-0.350000X-0.450000X0.350000X-0.450000X0.350000X0.450000X-0.350000X0.450000X0*%
%ADD41RoundRect,0.250000X0.475000X-0.337500X0.475000X0.337500X-0.475000X0.337500X-0.475000X-0.337500X0*%
%ADD42RoundRect,0.250001X-0.624999X0.462499X-0.624999X-0.462499X0.624999X-0.462499X0.624999X0.462499X0*%
%ADD43RoundRect,0.250000X1.450000X-0.400000X1.450000X0.400000X-1.450000X0.400000X-1.450000X-0.400000X0*%
%ADD44RoundRect,0.200000X-0.200000X-0.275000X0.200000X-0.275000X0.200000X0.275000X-0.200000X0.275000X0*%
%ADD45C,0.900000*%
%ADD46R,1.250000X2.500000*%
%ADD47RoundRect,0.150000X-0.825000X-0.150000X0.825000X-0.150000X0.825000X0.150000X-0.825000X0.150000X0*%
%ADD48C,0.600000*%
%ADD49R,0.600000X1.160000*%
%ADD50R,0.300000X1.160000*%
%ADD51O,0.900000X1.700000*%
%ADD52O,0.900000X2.000000*%
%ADD53R,3.960000X1.980000*%
%ADD54O,3.960000X1.980000*%
%ADD55RoundRect,0.100000X0.637500X0.100000X-0.637500X0.100000X-0.637500X-0.100000X0.637500X-0.100000X0*%
%ADD56R,0.600000X0.240000*%
%ADD57R,0.240000X0.600000*%
%ADD58R,3.050000X2.050000*%
%ADD59C,0.300000*%
%ADD60C,6.750000*%
%ADD61R,1.750000X1.750000*%
%ADD62C,1.750000*%
%ADD63R,1.000000X1.000000*%
%ADD64RoundRect,0.250000X0.550000X-1.500000X0.550000X1.500000X-0.550000X1.500000X-0.550000X-1.500000X0*%
%ADD65R,0.600000X1.300000*%
%ADD66R,1.400000X1.600000*%
%ADD67R,1.500000X2.400000*%
%ADD68RoundRect,0.150000X0.512500X0.150000X-0.512500X0.150000X-0.512500X-0.150000X0.512500X-0.150000X0*%
G04 APERTURE END LIST*
G36*
X117982855Y-108169408D02*
G01*
X117990788Y-108170033D01*
X117998678Y-108171071D01*
X118006503Y-108172522D01*
X118014240Y-108174379D01*
X118021871Y-108176639D01*
X118029372Y-108179296D01*
X118036724Y-108182341D01*
X118043907Y-108185767D01*
X118050900Y-108189564D01*
X118057685Y-108193722D01*
X118064243Y-108198229D01*
X118070557Y-108203074D01*
X118076608Y-108208242D01*
X118082380Y-108213720D01*
X118087858Y-108219492D01*
X118093026Y-108225543D01*
X118097871Y-108231857D01*
X118102378Y-108238415D01*
X118106536Y-108245200D01*
X118110333Y-108252193D01*
X118113759Y-108259376D01*
X118116804Y-108266728D01*
X118119461Y-108274229D01*
X118121721Y-108281860D01*
X118123578Y-108289597D01*
X118125029Y-108297422D01*
X118126067Y-108305312D01*
X118126692Y-108313245D01*
X118126900Y-108321200D01*
X118126900Y-108818200D01*
X118126901Y-108818252D01*
X118126905Y-108818305D01*
X118126912Y-108818356D01*
X118126922Y-108818408D01*
X118126934Y-108818459D01*
X118126949Y-108818509D01*
X118126966Y-108818558D01*
X118126986Y-108818607D01*
X118127009Y-108818654D01*
X118127034Y-108818700D01*
X118127061Y-108818745D01*
X118127091Y-108818788D01*
X118127123Y-108818829D01*
X118127157Y-108818869D01*
X118127193Y-108818907D01*
X118127231Y-108818943D01*
X118127271Y-108818977D01*
X118127312Y-108819009D01*
X118127355Y-108819039D01*
X118127400Y-108819066D01*
X118127446Y-108819091D01*
X118127493Y-108819114D01*
X118127542Y-108819134D01*
X118127591Y-108819151D01*
X118127641Y-108819166D01*
X118127692Y-108819178D01*
X118127744Y-108819188D01*
X118127795Y-108819195D01*
X118127848Y-108819199D01*
X118127900Y-108819200D01*
X118900900Y-108819200D01*
X118908855Y-108819408D01*
X118916788Y-108820033D01*
X118924678Y-108821071D01*
X118932503Y-108822522D01*
X118940240Y-108824379D01*
X118947871Y-108826639D01*
X118955372Y-108829296D01*
X118962724Y-108832341D01*
X118969907Y-108835767D01*
X118976900Y-108839564D01*
X118983685Y-108843722D01*
X118990243Y-108848229D01*
X118996557Y-108853074D01*
X119002608Y-108858242D01*
X119008380Y-108863720D01*
X119013858Y-108869492D01*
X119019026Y-108875543D01*
X119023871Y-108881857D01*
X119028378Y-108888415D01*
X119032536Y-108895200D01*
X119036333Y-108902193D01*
X119039759Y-108909376D01*
X119042804Y-108916728D01*
X119045461Y-108924229D01*
X119047721Y-108931860D01*
X119049578Y-108939597D01*
X119051029Y-108947422D01*
X119052067Y-108955312D01*
X119052692Y-108963245D01*
X119052900Y-108971200D01*
X119052900Y-109071200D01*
X119052692Y-109079155D01*
X119052067Y-109087088D01*
X119051029Y-109094978D01*
X119049578Y-109102803D01*
X119047721Y-109110540D01*
X119045461Y-109118171D01*
X119042804Y-109125672D01*
X119039759Y-109133024D01*
X119036333Y-109140207D01*
X119032536Y-109147200D01*
X119028378Y-109153985D01*
X119023871Y-109160543D01*
X119019026Y-109166857D01*
X119013858Y-109172908D01*
X119008380Y-109178680D01*
X119002608Y-109184158D01*
X118996557Y-109189326D01*
X118990243Y-109194171D01*
X118983685Y-109198678D01*
X118976900Y-109202836D01*
X118969907Y-109206633D01*
X118962724Y-109210059D01*
X118955372Y-109213104D01*
X118947871Y-109215761D01*
X118940240Y-109218021D01*
X118932503Y-109219878D01*
X118924678Y-109221329D01*
X118916788Y-109222367D01*
X118908855Y-109222992D01*
X118900900Y-109223200D01*
X118527900Y-109223200D01*
X118527900Y-109369200D01*
X118902900Y-109369200D01*
X118910750Y-109369406D01*
X118918579Y-109370022D01*
X118926365Y-109371047D01*
X118934087Y-109372478D01*
X118941723Y-109374311D01*
X118949253Y-109376542D01*
X118956655Y-109379163D01*
X118963910Y-109382168D01*
X118970999Y-109385549D01*
X118977900Y-109389296D01*
X118984596Y-109393399D01*
X118991068Y-109397847D01*
X118997298Y-109402628D01*
X119003270Y-109407728D01*
X119008966Y-109413134D01*
X119014372Y-109418830D01*
X119019472Y-109424802D01*
X119024253Y-109431032D01*
X119028701Y-109437504D01*
X119032804Y-109444200D01*
X119036551Y-109451101D01*
X119039932Y-109458190D01*
X119042937Y-109465445D01*
X119045558Y-109472847D01*
X119047789Y-109480377D01*
X119049622Y-109488013D01*
X119051053Y-109495735D01*
X119052078Y-109503521D01*
X119052694Y-109511350D01*
X119052900Y-109519200D01*
X119052900Y-109622200D01*
X119052693Y-109630103D01*
X119052073Y-109637984D01*
X119051041Y-109645822D01*
X119049600Y-109653595D01*
X119047755Y-109661282D01*
X119045510Y-109668862D01*
X119042871Y-109676314D01*
X119039845Y-109683617D01*
X119036442Y-109690753D01*
X119032670Y-109697700D01*
X119028539Y-109704440D01*
X119024062Y-109710956D01*
X119019249Y-109717227D01*
X119014115Y-109723239D01*
X119008673Y-109728973D01*
X119002939Y-109734415D01*
X118996927Y-109739549D01*
X118990656Y-109744362D01*
X118984140Y-109748839D01*
X118977400Y-109752970D01*
X118970453Y-109756742D01*
X118963317Y-109760145D01*
X118956014Y-109763171D01*
X118948562Y-109765810D01*
X118940982Y-109768055D01*
X118933295Y-109769900D01*
X118925522Y-109771341D01*
X118917684Y-109772373D01*
X118909803Y-109772993D01*
X118901900Y-109773200D01*
X118127900Y-109773200D01*
X118127900Y-110271200D01*
X118127692Y-110279155D01*
X118127067Y-110287088D01*
X118126029Y-110294978D01*
X118124578Y-110302803D01*
X118122721Y-110310540D01*
X118120461Y-110318171D01*
X118117804Y-110325672D01*
X118114759Y-110333024D01*
X118111333Y-110340207D01*
X118107536Y-110347200D01*
X118103378Y-110353985D01*
X118098871Y-110360543D01*
X118094026Y-110366857D01*
X118088858Y-110372908D01*
X118083380Y-110378680D01*
X118077608Y-110384158D01*
X118071557Y-110389326D01*
X118065243Y-110394171D01*
X118058685Y-110398678D01*
X118051900Y-110402836D01*
X118044907Y-110406633D01*
X118037724Y-110410059D01*
X118030372Y-110413104D01*
X118022871Y-110415761D01*
X118015240Y-110418021D01*
X118007503Y-110419878D01*
X117999678Y-110421329D01*
X117991788Y-110422367D01*
X117983855Y-110422992D01*
X117975900Y-110423200D01*
X115024900Y-110423200D01*
X115017050Y-110422994D01*
X115009221Y-110422378D01*
X115001435Y-110421353D01*
X114993713Y-110419922D01*
X114986077Y-110418089D01*
X114978547Y-110415858D01*
X114971145Y-110413237D01*
X114963890Y-110410232D01*
X114956801Y-110406851D01*
X114949900Y-110403104D01*
X114943204Y-110399001D01*
X114936732Y-110394553D01*
X114930502Y-110389772D01*
X114924530Y-110384672D01*
X114918834Y-110379266D01*
X114913428Y-110373570D01*
X114908328Y-110367598D01*
X114903547Y-110361368D01*
X114899099Y-110354896D01*
X114894996Y-110348200D01*
X114891249Y-110341299D01*
X114887868Y-110334210D01*
X114884863Y-110326955D01*
X114882242Y-110319553D01*
X114880011Y-110312023D01*
X114878178Y-110304387D01*
X114876747Y-110296665D01*
X114875722Y-110288879D01*
X114875106Y-110281050D01*
X114874900Y-110273200D01*
X114874900Y-109774200D01*
X114874899Y-109774148D01*
X114874895Y-109774095D01*
X114874888Y-109774044D01*
X114874878Y-109773992D01*
X114874866Y-109773941D01*
X114874851Y-109773891D01*
X114874834Y-109773842D01*
X114874814Y-109773793D01*
X114874791Y-109773746D01*
X114874766Y-109773700D01*
X114874739Y-109773655D01*
X114874709Y-109773612D01*
X114874677Y-109773571D01*
X114874643Y-109773531D01*
X114874607Y-109773493D01*
X114874569Y-109773457D01*
X114874529Y-109773423D01*
X114874488Y-109773391D01*
X114874445Y-109773361D01*
X114874400Y-109773334D01*
X114874354Y-109773309D01*
X114874307Y-109773286D01*
X114874258Y-109773266D01*
X114874209Y-109773249D01*
X114874159Y-109773234D01*
X114874108Y-109773222D01*
X114874056Y-109773212D01*
X114874005Y-109773205D01*
X114873952Y-109773201D01*
X114873900Y-109773200D01*
X114099900Y-109773200D01*
X114092050Y-109772994D01*
X114084221Y-109772378D01*
X114076435Y-109771353D01*
X114068713Y-109769922D01*
X114061077Y-109768089D01*
X114053547Y-109765858D01*
X114046145Y-109763237D01*
X114038890Y-109760232D01*
X114031801Y-109756851D01*
X114024900Y-109753104D01*
X114018204Y-109749001D01*
X114011732Y-109744553D01*
X114005502Y-109739772D01*
X113999530Y-109734672D01*
X113993834Y-109729266D01*
X113988428Y-109723570D01*
X113983328Y-109717598D01*
X113978547Y-109711368D01*
X113974099Y-109704896D01*
X113969996Y-109698200D01*
X113966249Y-109691299D01*
X113962868Y-109684210D01*
X113959863Y-109676955D01*
X113957242Y-109669553D01*
X113955011Y-109662023D01*
X113953178Y-109654387D01*
X113951747Y-109646665D01*
X113950722Y-109638879D01*
X113950106Y-109631050D01*
X113949900Y-109623200D01*
X113949900Y-109518200D01*
X113950104Y-109510402D01*
X113950716Y-109502625D01*
X113951734Y-109494891D01*
X113953156Y-109487221D01*
X113954977Y-109479636D01*
X113957193Y-109472156D01*
X113959797Y-109464803D01*
X113962782Y-109457596D01*
X113966140Y-109450555D01*
X113969862Y-109443700D01*
X113973938Y-109437049D01*
X113978356Y-109430620D01*
X113983105Y-109424431D01*
X113988171Y-109418500D01*
X113993541Y-109412841D01*
X113999200Y-109407471D01*
X114005131Y-109402405D01*
X114011320Y-109397656D01*
X114017749Y-109393238D01*
X114024400Y-109389162D01*
X114031255Y-109385440D01*
X114038296Y-109382082D01*
X114045503Y-109379097D01*
X114052856Y-109376493D01*
X114060336Y-109374277D01*
X114067921Y-109372456D01*
X114075591Y-109371034D01*
X114083325Y-109370016D01*
X114091102Y-109369404D01*
X114098900Y-109369200D01*
X114473900Y-109369200D01*
X114473900Y-109224200D01*
X114473899Y-109224148D01*
X114473895Y-109224095D01*
X114473888Y-109224044D01*
X114473878Y-109223992D01*
X114473866Y-109223941D01*
X114473851Y-109223891D01*
X114473834Y-109223842D01*
X114473814Y-109223793D01*
X114473791Y-109223746D01*
X114473766Y-109223700D01*
X114473739Y-109223655D01*
X114473709Y-109223612D01*
X114473677Y-109223571D01*
X114473643Y-109223531D01*
X114473607Y-109223493D01*
X114473569Y-109223457D01*
X114473529Y-109223423D01*
X114473488Y-109223391D01*
X114473445Y-109223361D01*
X114473400Y-109223334D01*
X114473354Y-109223309D01*
X114473307Y-109223286D01*
X114473258Y-109223266D01*
X114473209Y-109223249D01*
X114473159Y-109223234D01*
X114473108Y-109223222D01*
X114473056Y-109223212D01*
X114473005Y-109223205D01*
X114472952Y-109223201D01*
X114472900Y-109223200D01*
X114099900Y-109223200D01*
X114092050Y-109222994D01*
X114084221Y-109222378D01*
X114076435Y-109221353D01*
X114068713Y-109219922D01*
X114061077Y-109218089D01*
X114053547Y-109215858D01*
X114046145Y-109213237D01*
X114038890Y-109210232D01*
X114031801Y-109206851D01*
X114024900Y-109203104D01*
X114018204Y-109199001D01*
X114011732Y-109194553D01*
X114005502Y-109189772D01*
X113999530Y-109184672D01*
X113993834Y-109179266D01*
X113988428Y-109173570D01*
X113983328Y-109167598D01*
X113978547Y-109161368D01*
X113974099Y-109154896D01*
X113969996Y-109148200D01*
X113966249Y-109141299D01*
X113962868Y-109134210D01*
X113959863Y-109126955D01*
X113957242Y-109119553D01*
X113955011Y-109112023D01*
X113953178Y-109104387D01*
X113951747Y-109096665D01*
X113950722Y-109088879D01*
X113950106Y-109081050D01*
X113949900Y-109073200D01*
X113949900Y-108967200D01*
X113950103Y-108959454D01*
X113950711Y-108951730D01*
X113951722Y-108944048D01*
X113953134Y-108936429D01*
X113954943Y-108928895D01*
X113957144Y-108921465D01*
X113959730Y-108914162D01*
X113962695Y-108907003D01*
X113966031Y-108900009D01*
X113969728Y-108893200D01*
X113973777Y-108886593D01*
X113978165Y-108880208D01*
X113982882Y-108874061D01*
X113987915Y-108868169D01*
X113993248Y-108862548D01*
X113998869Y-108857215D01*
X114004761Y-108852182D01*
X114010908Y-108847465D01*
X114017293Y-108843077D01*
X114023900Y-108839028D01*
X114030709Y-108835331D01*
X114037703Y-108831995D01*
X114044862Y-108829030D01*
X114052165Y-108826444D01*
X114059595Y-108824243D01*
X114067129Y-108822434D01*
X114074748Y-108821022D01*
X114082430Y-108820011D01*
X114090154Y-108819403D01*
X114097900Y-108819200D01*
X114873900Y-108819200D01*
X114873900Y-108321200D01*
X114874108Y-108313245D01*
X114874733Y-108305312D01*
X114875771Y-108297422D01*
X114877222Y-108289597D01*
X114879079Y-108281860D01*
X114881339Y-108274229D01*
X114883996Y-108266728D01*
X114887041Y-108259376D01*
X114890467Y-108252193D01*
X114894264Y-108245200D01*
X114898422Y-108238415D01*
X114902929Y-108231857D01*
X114907774Y-108225543D01*
X114912942Y-108219492D01*
X114918420Y-108213720D01*
X114924192Y-108208242D01*
X114930243Y-108203074D01*
X114936557Y-108198229D01*
X114943115Y-108193722D01*
X114949900Y-108189564D01*
X114956893Y-108185767D01*
X114964076Y-108182341D01*
X114971428Y-108179296D01*
X114978929Y-108176639D01*
X114986560Y-108174379D01*
X114994297Y-108172522D01*
X115002122Y-108171071D01*
X115010012Y-108170033D01*
X115017945Y-108169408D01*
X115025900Y-108169200D01*
X117974900Y-108169200D01*
X117982855Y-108169408D01*
G37*
D10*
X117982855Y-108169408D02*
X117990788Y-108170033D01*
X117998678Y-108171071D01*
X118006503Y-108172522D01*
X118014240Y-108174379D01*
X118021871Y-108176639D01*
X118029372Y-108179296D01*
X118036724Y-108182341D01*
X118043907Y-108185767D01*
X118050900Y-108189564D01*
X118057685Y-108193722D01*
X118064243Y-108198229D01*
X118070557Y-108203074D01*
X118076608Y-108208242D01*
X118082380Y-108213720D01*
X118087858Y-108219492D01*
X118093026Y-108225543D01*
X118097871Y-108231857D01*
X118102378Y-108238415D01*
X118106536Y-108245200D01*
X118110333Y-108252193D01*
X118113759Y-108259376D01*
X118116804Y-108266728D01*
X118119461Y-108274229D01*
X118121721Y-108281860D01*
X118123578Y-108289597D01*
X118125029Y-108297422D01*
X118126067Y-108305312D01*
X118126692Y-108313245D01*
X118126900Y-108321200D01*
X118126900Y-108818200D01*
X118126901Y-108818252D01*
X118126905Y-108818305D01*
X118126912Y-108818356D01*
X118126922Y-108818408D01*
X118126934Y-108818459D01*
X118126949Y-108818509D01*
X118126966Y-108818558D01*
X118126986Y-108818607D01*
X118127009Y-108818654D01*
X118127034Y-108818700D01*
X118127061Y-108818745D01*
X118127091Y-108818788D01*
X118127123Y-108818829D01*
X118127157Y-108818869D01*
X118127193Y-108818907D01*
X118127231Y-108818943D01*
X118127271Y-108818977D01*
X118127312Y-108819009D01*
X118127355Y-108819039D01*
X118127400Y-108819066D01*
X118127446Y-108819091D01*
X118127493Y-108819114D01*
X118127542Y-108819134D01*
X118127591Y-108819151D01*
X118127641Y-108819166D01*
X118127692Y-108819178D01*
X118127744Y-108819188D01*
X118127795Y-108819195D01*
X118127848Y-108819199D01*
X118127900Y-108819200D01*
X118900900Y-108819200D01*
X118908855Y-108819408D01*
X118916788Y-108820033D01*
X118924678Y-108821071D01*
X118932503Y-108822522D01*
X118940240Y-108824379D01*
X118947871Y-108826639D01*
X118955372Y-108829296D01*
X118962724Y-108832341D01*
X118969907Y-108835767D01*
X118976900Y-108839564D01*
X118983685Y-108843722D01*
X118990243Y-108848229D01*
X118996557Y-108853074D01*
X119002608Y-108858242D01*
X119008380Y-108863720D01*
X119013858Y-108869492D01*
X119019026Y-108875543D01*
X119023871Y-108881857D01*
X119028378Y-108888415D01*
X119032536Y-108895200D01*
X119036333Y-108902193D01*
X119039759Y-108909376D01*
X119042804Y-108916728D01*
X119045461Y-108924229D01*
X119047721Y-108931860D01*
X119049578Y-108939597D01*
X119051029Y-108947422D01*
X119052067Y-108955312D01*
X119052692Y-108963245D01*
X119052900Y-108971200D01*
X119052900Y-109071200D01*
X119052692Y-109079155D01*
X119052067Y-109087088D01*
X119051029Y-109094978D01*
X119049578Y-109102803D01*
X119047721Y-109110540D01*
X119045461Y-109118171D01*
X119042804Y-109125672D01*
X119039759Y-109133024D01*
X119036333Y-109140207D01*
X119032536Y-109147200D01*
X119028378Y-109153985D01*
X119023871Y-109160543D01*
X119019026Y-109166857D01*
X119013858Y-109172908D01*
X119008380Y-109178680D01*
X119002608Y-109184158D01*
X118996557Y-109189326D01*
X118990243Y-109194171D01*
X118983685Y-109198678D01*
X118976900Y-109202836D01*
X118969907Y-109206633D01*
X118962724Y-109210059D01*
X118955372Y-109213104D01*
X118947871Y-109215761D01*
X118940240Y-109218021D01*
X118932503Y-109219878D01*
X118924678Y-109221329D01*
X118916788Y-109222367D01*
X118908855Y-109222992D01*
X118900900Y-109223200D01*
X118527900Y-109223200D01*
X118527900Y-109369200D01*
X118902900Y-109369200D01*
X118910750Y-109369406D01*
X118918579Y-109370022D01*
X118926365Y-109371047D01*
X118934087Y-109372478D01*
X118941723Y-109374311D01*
X118949253Y-109376542D01*
X118956655Y-109379163D01*
X118963910Y-109382168D01*
X118970999Y-109385549D01*
X118977900Y-109389296D01*
X118984596Y-109393399D01*
X118991068Y-109397847D01*
X118997298Y-109402628D01*
X119003270Y-109407728D01*
X119008966Y-109413134D01*
X119014372Y-109418830D01*
X119019472Y-109424802D01*
X119024253Y-109431032D01*
X119028701Y-109437504D01*
X119032804Y-109444200D01*
X119036551Y-109451101D01*
X119039932Y-109458190D01*
X119042937Y-109465445D01*
X119045558Y-109472847D01*
X119047789Y-109480377D01*
X119049622Y-109488013D01*
X119051053Y-109495735D01*
X119052078Y-109503521D01*
X119052694Y-109511350D01*
X119052900Y-109519200D01*
X119052900Y-109622200D01*
X119052693Y-109630103D01*
X119052073Y-109637984D01*
X119051041Y-109645822D01*
X119049600Y-109653595D01*
X119047755Y-109661282D01*
X119045510Y-109668862D01*
X119042871Y-109676314D01*
X119039845Y-109683617D01*
X119036442Y-109690753D01*
X119032670Y-109697700D01*
X119028539Y-109704440D01*
X119024062Y-109710956D01*
X119019249Y-109717227D01*
X119014115Y-109723239D01*
X119008673Y-109728973D01*
X119002939Y-109734415D01*
X118996927Y-109739549D01*
X118990656Y-109744362D01*
X118984140Y-109748839D01*
X118977400Y-109752970D01*
X118970453Y-109756742D01*
X118963317Y-109760145D01*
X118956014Y-109763171D01*
X118948562Y-109765810D01*
X118940982Y-109768055D01*
X118933295Y-109769900D01*
X118925522Y-109771341D01*
X118917684Y-109772373D01*
X118909803Y-109772993D01*
X118901900Y-109773200D01*
X118127900Y-109773200D01*
X118127900Y-110271200D01*
X118127692Y-110279155D01*
X118127067Y-110287088D01*
X118126029Y-110294978D01*
X118124578Y-110302803D01*
X118122721Y-110310540D01*
X118120461Y-110318171D01*
X118117804Y-110325672D01*
X118114759Y-110333024D01*
X118111333Y-110340207D01*
X118107536Y-110347200D01*
X118103378Y-110353985D01*
X118098871Y-110360543D01*
X118094026Y-110366857D01*
X118088858Y-110372908D01*
X118083380Y-110378680D01*
X118077608Y-110384158D01*
X118071557Y-110389326D01*
X118065243Y-110394171D01*
X118058685Y-110398678D01*
X118051900Y-110402836D01*
X118044907Y-110406633D01*
X118037724Y-110410059D01*
X118030372Y-110413104D01*
X118022871Y-110415761D01*
X118015240Y-110418021D01*
X118007503Y-110419878D01*
X117999678Y-110421329D01*
X117991788Y-110422367D01*
X117983855Y-110422992D01*
X117975900Y-110423200D01*
X115024900Y-110423200D01*
X115017050Y-110422994D01*
X115009221Y-110422378D01*
X115001435Y-110421353D01*
X114993713Y-110419922D01*
X114986077Y-110418089D01*
X114978547Y-110415858D01*
X114971145Y-110413237D01*
X114963890Y-110410232D01*
X114956801Y-110406851D01*
X114949900Y-110403104D01*
X114943204Y-110399001D01*
X114936732Y-110394553D01*
X114930502Y-110389772D01*
X114924530Y-110384672D01*
X114918834Y-110379266D01*
X114913428Y-110373570D01*
X114908328Y-110367598D01*
X114903547Y-110361368D01*
X114899099Y-110354896D01*
X114894996Y-110348200D01*
X114891249Y-110341299D01*
X114887868Y-110334210D01*
X114884863Y-110326955D01*
X114882242Y-110319553D01*
X114880011Y-110312023D01*
X114878178Y-110304387D01*
X114876747Y-110296665D01*
X114875722Y-110288879D01*
X114875106Y-110281050D01*
X114874900Y-110273200D01*
X114874900Y-109774200D01*
X114874899Y-109774148D01*
X114874895Y-109774095D01*
X114874888Y-109774044D01*
X114874878Y-109773992D01*
X114874866Y-109773941D01*
X114874851Y-109773891D01*
X114874834Y-109773842D01*
X114874814Y-109773793D01*
X114874791Y-109773746D01*
X114874766Y-109773700D01*
X114874739Y-109773655D01*
X114874709Y-109773612D01*
X114874677Y-109773571D01*
X114874643Y-109773531D01*
X114874607Y-109773493D01*
X114874569Y-109773457D01*
X114874529Y-109773423D01*
X114874488Y-109773391D01*
X114874445Y-109773361D01*
X114874400Y-109773334D01*
X114874354Y-109773309D01*
X114874307Y-109773286D01*
X114874258Y-109773266D01*
X114874209Y-109773249D01*
X114874159Y-109773234D01*
X114874108Y-109773222D01*
X114874056Y-109773212D01*
X114874005Y-109773205D01*
X114873952Y-109773201D01*
X114873900Y-109773200D01*
X114099900Y-109773200D01*
X114092050Y-109772994D01*
X114084221Y-109772378D01*
X114076435Y-109771353D01*
X114068713Y-109769922D01*
X114061077Y-109768089D01*
X114053547Y-109765858D01*
X114046145Y-109763237D01*
X114038890Y-109760232D01*
X114031801Y-109756851D01*
X114024900Y-109753104D01*
X114018204Y-109749001D01*
X114011732Y-109744553D01*
X114005502Y-109739772D01*
X113999530Y-109734672D01*
X113993834Y-109729266D01*
X113988428Y-109723570D01*
X113983328Y-109717598D01*
X113978547Y-109711368D01*
X113974099Y-109704896D01*
X113969996Y-109698200D01*
X113966249Y-109691299D01*
X113962868Y-109684210D01*
X113959863Y-109676955D01*
X113957242Y-109669553D01*
X113955011Y-109662023D01*
X113953178Y-109654387D01*
X113951747Y-109646665D01*
X113950722Y-109638879D01*
X113950106Y-109631050D01*
X113949900Y-109623200D01*
X113949900Y-109518200D01*
X113950104Y-109510402D01*
X113950716Y-109502625D01*
X113951734Y-109494891D01*
X113953156Y-109487221D01*
X113954977Y-109479636D01*
X113957193Y-109472156D01*
X113959797Y-109464803D01*
X113962782Y-109457596D01*
X113966140Y-109450555D01*
X113969862Y-109443700D01*
X113973938Y-109437049D01*
X113978356Y-109430620D01*
X113983105Y-109424431D01*
X113988171Y-109418500D01*
X113993541Y-109412841D01*
X113999200Y-109407471D01*
X114005131Y-109402405D01*
X114011320Y-109397656D01*
X114017749Y-109393238D01*
X114024400Y-109389162D01*
X114031255Y-109385440D01*
X114038296Y-109382082D01*
X114045503Y-109379097D01*
X114052856Y-109376493D01*
X114060336Y-109374277D01*
X114067921Y-109372456D01*
X114075591Y-109371034D01*
X114083325Y-109370016D01*
X114091102Y-109369404D01*
X114098900Y-109369200D01*
X114473900Y-109369200D01*
X114473900Y-109224200D01*
X114473899Y-109224148D01*
X114473895Y-109224095D01*
X114473888Y-109224044D01*
X114473878Y-109223992D01*
X114473866Y-109223941D01*
X114473851Y-109223891D01*
X114473834Y-109223842D01*
X114473814Y-109223793D01*
X114473791Y-109223746D01*
X114473766Y-109223700D01*
X114473739Y-109223655D01*
X114473709Y-109223612D01*
X114473677Y-109223571D01*
X114473643Y-109223531D01*
X114473607Y-109223493D01*
X114473569Y-109223457D01*
X114473529Y-109223423D01*
X114473488Y-109223391D01*
X114473445Y-109223361D01*
X114473400Y-109223334D01*
X114473354Y-109223309D01*
X114473307Y-109223286D01*
X114473258Y-109223266D01*
X114473209Y-109223249D01*
X114473159Y-109223234D01*
X114473108Y-109223222D01*
X114473056Y-109223212D01*
X114473005Y-109223205D01*
X114472952Y-109223201D01*
X114472900Y-109223200D01*
X114099900Y-109223200D01*
X114092050Y-109222994D01*
X114084221Y-109222378D01*
X114076435Y-109221353D01*
X114068713Y-109219922D01*
X114061077Y-109218089D01*
X114053547Y-109215858D01*
X114046145Y-109213237D01*
X114038890Y-109210232D01*
X114031801Y-109206851D01*
X114024900Y-109203104D01*
X114018204Y-109199001D01*
X114011732Y-109194553D01*
X114005502Y-109189772D01*
X113999530Y-109184672D01*
X113993834Y-109179266D01*
X113988428Y-109173570D01*
X113983328Y-109167598D01*
X113978547Y-109161368D01*
X113974099Y-109154896D01*
X113969996Y-109148200D01*
X113966249Y-109141299D01*
X113962868Y-109134210D01*
X113959863Y-109126955D01*
X113957242Y-109119553D01*
X113955011Y-109112023D01*
X113953178Y-109104387D01*
X113951747Y-109096665D01*
X113950722Y-109088879D01*
X113950106Y-109081050D01*
X113949900Y-109073200D01*
X113949900Y-108967200D01*
X113950103Y-108959454D01*
X113950711Y-108951730D01*
X113951722Y-108944048D01*
X113953134Y-108936429D01*
X113954943Y-108928895D01*
X113957144Y-108921465D01*
X113959730Y-108914162D01*
X113962695Y-108907003D01*
X113966031Y-108900009D01*
X113969728Y-108893200D01*
X113973777Y-108886593D01*
X113978165Y-108880208D01*
X113982882Y-108874061D01*
X113987915Y-108868169D01*
X113993248Y-108862548D01*
X113998869Y-108857215D01*
X114004761Y-108852182D01*
X114010908Y-108847465D01*
X114017293Y-108843077D01*
X114023900Y-108839028D01*
X114030709Y-108835331D01*
X114037703Y-108831995D01*
X114044862Y-108829030D01*
X114052165Y-108826444D01*
X114059595Y-108824243D01*
X114067129Y-108822434D01*
X114074748Y-108821022D01*
X114082430Y-108820011D01*
X114090154Y-108819403D01*
X114097900Y-108819200D01*
X114873900Y-108819200D01*
X114873900Y-108321200D01*
X114874108Y-108313245D01*
X114874733Y-108305312D01*
X114875771Y-108297422D01*
X114877222Y-108289597D01*
X114879079Y-108281860D01*
X114881339Y-108274229D01*
X114883996Y-108266728D01*
X114887041Y-108259376D01*
X114890467Y-108252193D01*
X114894264Y-108245200D01*
X114898422Y-108238415D01*
X114902929Y-108231857D01*
X114907774Y-108225543D01*
X114912942Y-108219492D01*
X114918420Y-108213720D01*
X114924192Y-108208242D01*
X114930243Y-108203074D01*
X114936557Y-108198229D01*
X114943115Y-108193722D01*
X114949900Y-108189564D01*
X114956893Y-108185767D01*
X114964076Y-108182341D01*
X114971428Y-108179296D01*
X114978929Y-108176639D01*
X114986560Y-108174379D01*
X114994297Y-108172522D01*
X115002122Y-108171071D01*
X115010012Y-108170033D01*
X115017945Y-108169408D01*
X115025900Y-108169200D01*
X117974900Y-108169200D01*
X117982855Y-108169408D01*
D11*
X112812100Y-119725000D03*
X115937100Y-119725000D03*
D12*
X120339400Y-101574600D03*
X112039400Y-101574600D03*
D13*
X92913200Y-106960200D03*
X92913200Y-103835200D03*
D14*
X77987500Y-108725000D03*
X74862500Y-108725000D03*
D15*
X120142000Y-117200000D03*
X120142000Y-115200000D03*
D16*
X99615000Y-98050000D03*
X95165000Y-98050000D03*
D17*
X122170000Y-114502500D03*
X122170000Y-116577500D03*
D18*
X105050000Y-97100000D03*
X107125000Y-97100000D03*
D19*
X87140800Y-116941600D03*
X85140800Y-116941600D03*
D20*
X79469900Y-109951200D03*
X79469900Y-110451200D03*
X79469900Y-110951200D03*
X79469900Y-111451200D03*
X79469900Y-111951200D03*
X79469900Y-112451200D03*
D21*
X80182400Y-113163700D03*
X80682400Y-113163700D03*
X81182400Y-113163700D03*
X81682400Y-113163700D03*
X82182400Y-113163700D03*
X82682400Y-113163700D03*
D20*
X83394900Y-112451200D03*
X83394900Y-111951200D03*
X83394900Y-111451200D03*
X83394900Y-110951200D03*
X83394900Y-110451200D03*
X83394900Y-109951200D03*
D21*
X82682400Y-109238700D03*
X82182400Y-109238700D03*
X81682400Y-109238700D03*
X81182400Y-109238700D03*
X80682400Y-109238700D03*
X80182400Y-109238700D03*
D22*
X81432400Y-111201200D03*
D23*
X112927500Y-108180000D03*
X110852500Y-108180000D03*
D24*
X144225000Y-107400000D03*
X144225000Y-102400000D03*
D25*
X140375000Y-108400000D03*
X140375000Y-105900000D03*
X140375000Y-103900000D03*
X140375000Y-101400000D03*
D26*
X142625000Y-112150000D03*
X142625000Y-97650000D03*
D27*
X89027000Y-115017800D03*
X89027000Y-117017800D03*
D19*
X107125000Y-104571800D03*
X105125000Y-104571800D03*
D28*
X109194600Y-102069500D03*
X109194600Y-105194500D03*
D29*
X132375000Y-104275000D03*
X132375000Y-112275000D03*
D30*
X137723600Y-77191600D03*
X82523600Y-93191600D03*
D31*
X74193600Y-77191600D03*
D32*
X70793600Y-85191600D03*
X149453600Y-85191600D03*
D33*
X71069600Y-110612400D03*
X71069600Y-111262400D03*
X71069600Y-111912400D03*
X71069600Y-112562400D03*
X71069600Y-113212400D03*
D34*
X68189600Y-109182400D03*
D35*
X69119600Y-114662400D03*
D36*
X67919600Y-110952400D03*
D37*
X69869600Y-108962400D03*
X69869600Y-114912400D03*
D38*
X71189600Y-114812400D03*
D39*
X71189600Y-114332400D03*
D36*
X67919600Y-112872400D03*
D39*
X71189600Y-109492400D03*
D34*
X68189600Y-114642400D03*
D35*
X69119600Y-109182400D03*
D38*
X71169600Y-109062400D03*
D19*
X124875000Y-97100000D03*
X122875000Y-97100000D03*
D14*
X129825000Y-114925000D03*
X126700000Y-114925000D03*
X76340100Y-114249200D03*
X73215100Y-114249200D03*
D40*
X85140800Y-114960400D03*
X87140800Y-114960400D03*
X122875000Y-99075000D03*
X124875000Y-99075000D03*
D19*
X93262200Y-122224800D03*
X91262200Y-122224800D03*
D41*
X83058000Y-107442000D03*
X83058000Y-105367000D03*
D42*
X85344000Y-119213300D03*
X85344000Y-122188300D03*
D43*
X136650000Y-101875000D03*
X136650000Y-97425000D03*
D40*
X93675000Y-109025000D03*
X95675000Y-109025000D03*
D19*
X104700000Y-115650000D03*
X102700000Y-115650000D03*
D28*
X80721200Y-102780700D03*
X80721200Y-105905700D03*
D41*
X98770000Y-117037500D03*
X98770000Y-114962500D03*
D44*
X82029800Y-85344000D03*
X83679800Y-85344000D03*
D11*
X112837500Y-113171800D03*
X115962500Y-113171800D03*
D16*
X99610000Y-102050000D03*
X95160000Y-102050000D03*
D15*
X99300000Y-121775000D03*
X99300000Y-119775000D03*
D45*
X101950000Y-121175000D03*
X108750000Y-121175000D03*
D46*
X102850000Y-118425000D03*
X105350000Y-118425000D03*
X107850000Y-118425000D03*
D19*
X122275000Y-108050000D03*
X120275000Y-108050000D03*
D40*
X100900000Y-105100000D03*
X102900000Y-105100000D03*
D27*
X95554800Y-118675400D03*
X95554800Y-120675400D03*
D40*
X87477600Y-118948200D03*
X89477600Y-118948200D03*
D18*
X150225000Y-96750000D03*
X152300000Y-96750000D03*
D28*
X124350000Y-107000000D03*
X124350000Y-110125000D03*
D19*
X112850000Y-110125000D03*
X110850000Y-110125000D03*
D23*
X122199400Y-110058200D03*
X120124400Y-110058200D03*
D27*
X118050000Y-116600000D03*
X118050000Y-118600000D03*
D47*
X97925000Y-106920000D03*
X97925000Y-108190000D03*
X97925000Y-109460000D03*
X97925000Y-110730000D03*
X102875000Y-110730000D03*
X102875000Y-109460000D03*
X102875000Y-108190000D03*
X102875000Y-106920000D03*
D48*
X81680800Y-117625200D03*
X75900800Y-117625200D03*
D49*
X75590800Y-116565200D03*
X76390800Y-116565200D03*
D50*
X77540800Y-116565200D03*
X78540800Y-116565200D03*
X79040800Y-116565200D03*
X80040800Y-116565200D03*
D49*
X81190800Y-116565200D03*
X81990800Y-116565200D03*
X81990800Y-116565200D03*
X81190800Y-116565200D03*
D50*
X80540800Y-116565200D03*
X79540800Y-116565200D03*
X78040800Y-116565200D03*
X77040800Y-116565200D03*
D49*
X76390800Y-116565200D03*
X75590800Y-116565200D03*
D51*
X74470800Y-121315200D03*
X83110800Y-121315200D03*
D52*
X83110800Y-117145200D03*
X74470800Y-117145200D03*
D53*
X72999600Y-99140000D03*
D54*
X72999600Y-104140000D03*
D15*
X89020000Y-113240000D03*
X89020000Y-111240000D03*
D42*
X105400000Y-109062500D03*
X105400000Y-112037500D03*
D40*
X105100000Y-106550000D03*
X107100000Y-106550000D03*
D15*
X95675000Y-113300000D03*
X95675000Y-111300000D03*
D27*
X73175000Y-108425000D03*
X73175000Y-110425000D03*
D55*
X96784000Y-116951400D03*
X96784000Y-116301400D03*
X96784000Y-115651400D03*
X96784000Y-115001400D03*
X91059000Y-115001400D03*
X91059000Y-115651400D03*
X91059000Y-116301400D03*
X91059000Y-116951400D03*
D19*
X89477600Y-122224800D03*
X87477600Y-122224800D03*
D56*
X118650900Y-108546200D03*
D57*
X118250900Y-107646200D03*
X117750900Y-107646200D03*
X117250900Y-107646200D03*
X116750900Y-107646200D03*
X116250900Y-107646200D03*
X115750900Y-107646200D03*
X115250900Y-107646200D03*
X114750900Y-107646200D03*
D56*
X114350900Y-108546200D03*
X114350900Y-110046200D03*
D57*
X114750900Y-110946200D03*
X115250900Y-110946200D03*
X115750900Y-110946200D03*
X116250900Y-110946200D03*
X116750900Y-110946200D03*
X117250900Y-110946200D03*
X117750900Y-110946200D03*
X118250900Y-110946200D03*
D56*
X118650900Y-110046200D03*
D58*
X116500900Y-109296200D03*
D59*
X117775900Y-109296200D03*
X117025900Y-108521200D03*
X117025900Y-109296200D03*
X117025900Y-110071200D03*
X115975900Y-108521200D03*
X115975900Y-109296200D03*
X115975900Y-110071200D03*
X115225900Y-109296200D03*
D60*
X69932000Y-119770000D03*
X127932000Y-70770000D03*
X69932000Y-70770000D03*
X127932000Y-119770000D03*
D61*
X74802000Y-72040000D03*
D62*
X74802000Y-69500000D03*
X77342000Y-72040000D03*
X77342000Y-69500000D03*
X79882000Y-72040000D03*
X79882000Y-69500000D03*
X82422000Y-72040000D03*
X82422000Y-69500000D03*
X84962000Y-72040000D03*
X84962000Y-69500000D03*
X87502000Y-72040000D03*
X87502000Y-69500000D03*
X90042000Y-72040000D03*
X90042000Y-69500000D03*
X92582000Y-72040000D03*
X92582000Y-69500000D03*
X95122000Y-72040000D03*
X95122000Y-69500000D03*
X97662000Y-72040000D03*
X97662000Y-69500000D03*
X100202000Y-72040000D03*
X100202000Y-69500000D03*
X102742000Y-72040000D03*
X102742000Y-69500000D03*
X105282000Y-72040000D03*
X105282000Y-69500000D03*
X107822000Y-72040000D03*
X107822000Y-69500000D03*
X110362000Y-72040000D03*
X110362000Y-69500000D03*
X112902000Y-72040000D03*
X112902000Y-69500000D03*
X115442000Y-72040000D03*
X115442000Y-69500000D03*
X117982000Y-72040000D03*
X117982000Y-69500000D03*
X120522000Y-72040000D03*
X120522000Y-69500000D03*
X123062000Y-72040000D03*
X123062000Y-69500000D03*
D63*
X91775000Y-113400000D03*
X91775000Y-110900000D03*
X93725000Y-113400000D03*
X93725000Y-110900000D03*
D64*
X135000000Y-121150000D03*
X135000000Y-115750000D03*
D40*
X106475000Y-115650000D03*
X108475000Y-115650000D03*
D19*
X99125000Y-105100000D03*
X97125000Y-105100000D03*
D15*
X108920000Y-108990000D03*
X108920000Y-106990000D03*
D65*
X107600000Y-113600000D03*
X109500000Y-113600000D03*
X108550000Y-111500000D03*
D13*
X109200000Y-100150000D03*
X109200000Y-97025000D03*
D66*
X147075000Y-121200000D03*
X147075000Y-113200000D03*
X151575000Y-121200000D03*
X151575000Y-113200000D03*
D63*
X103125000Y-113425000D03*
X100625000Y-113425000D03*
D18*
X119921200Y-112547400D03*
X121996200Y-112547400D03*
D15*
X124150000Y-113963200D03*
X124150000Y-111963200D03*
D27*
X100850000Y-116040000D03*
X100850000Y-118040000D03*
D64*
X142175000Y-121150000D03*
X142175000Y-115750000D03*
D67*
X85178000Y-106324400D03*
X90678000Y-106324400D03*
D15*
X95225000Y-106975000D03*
X95225000Y-104975000D03*
D27*
X110350000Y-116000000D03*
X110350000Y-118000000D03*
D47*
X101800000Y-98960000D03*
X101800000Y-100230000D03*
X101800000Y-101500000D03*
X101800000Y-102770000D03*
X106750000Y-102770000D03*
X106750000Y-101500000D03*
X106750000Y-100230000D03*
X106750000Y-98960000D03*
D11*
X112825200Y-116448400D03*
X115950200Y-116448400D03*
D68*
X93613400Y-120457000D03*
X93613400Y-119507000D03*
X93613400Y-118557000D03*
X91338400Y-118557000D03*
X91338400Y-119507000D03*
X91338400Y-120457000D03*
D53*
X147275000Y-107675000D03*
D54*
X147275000Y-102675000D03*
D27*
X118059200Y-112826800D03*
X118059200Y-114826800D03*
M02*
